<?xml version="1.0" encoding="UTF-8"?>
<svg id="_Слой_2" data-name="Слой 2" xmlns="http://www.w3.org/2000/svg" viewBox="0 0 231.42 152.28">
  <defs>
    <style>
      .cls-1 {
        opacity: .5;
      }

      .cls-1, .cls-2 {
        fill: #333;
      }

      .cls-2 {
        stroke: #000;
        stroke-miterlimit: 10;
        stroke-width: .25px;
      }
    </style>
  </defs>
  <g id="_Камни" data-name="Камни">
    <g>
      <path class="cls-1" d="M199,142.22c16.83-4.08,27.26-14.16,30.95-23.96,7.71-19.53-15.9-37.07-50.34-41.72-29.58-4.3-60.17,1.09-86.16,9.36-30.39,9.36-62.23,26.31-70.08,41.58-2.12,4.04-2.74,8.42.09,12.25,11.42,14.65,67.52,13.14,96.55,11.62,15.25-.86,32.46-2.34,47.4-3.99,10.47-1.17,22.24-2.69,31.48-5.11l.09-.02Z"/>
      <path class="cls-2" d="M177.45,122.96c16.82-7.46,27.24-25.88,30.93-43.81,7.7-35.7-15.89-67.76-50.31-76.26-29.56-7.86-60.13,1.99-86.1,17.11C41.6,37.12,9.78,68.1,1.94,96.02c-2.12,7.39-2.74,15.39.09,22.39,11.41,26.79,67.47,24.02,96.49,21.24,15.24-1.56,32.44-4.28,47.37-7.29,10.47-2.14,22.22-4.91,31.46-9.35l.09-.04Z"/>
    </g>
  </g>
</svg>