<?xml version="1.0" encoding="UTF-8"?>
<svg id="_Слой_2" data-name="Слой 2" xmlns="http://www.w3.org/2000/svg" xmlns:xlink="http://www.w3.org/1999/xlink" viewBox="0 0 48.03 53.27">
  <defs>
    <style>
      .cls-1 {
        fill: url(#_Безымянный_градиент_173);
        opacity: .5;
        stroke: #000;
        stroke-miterlimit: 10;
        stroke-width: .25px;
      }
    </style>
    <linearGradient id="_Безымянный_градиент_173" data-name="Безымянный градиент 173" x1="36.25" y1="8.7" x2="8.5" y2="56.77" gradientUnits="userSpaceOnUse">
      <stop offset="0" stop-color="#006837"/>
      <stop offset=".45" stop-color="#006837" stop-opacity=".98"/>
      <stop offset=".61" stop-color="#006837" stop-opacity=".92"/>
      <stop offset=".72" stop-color="#006837" stop-opacity=".8"/>
      <stop offset=".81" stop-color="#006837" stop-opacity=".64"/>
      <stop offset=".89" stop-color="#006837" stop-opacity=".43"/>
      <stop offset=".96" stop-color="#006837" stop-opacity=".17"/>
      <stop offset="1" stop-color="#006837" stop-opacity="0"/>
    </linearGradient>
  </defs>
  <g id="_Трава" data-name="Трава">
    <path class="cls-1" d="M26.12,24.05c.62-6.26,2.6-12.33,6.29-17.26.41-1.32-2.93,1.52-3.54,2.47-5.1,6.74-6.64,13.14-8.2,19.57-1.12,4.68-3.01,10.54-6.4,17.38-.66,1.22-1.46,3.15-2.2,1.44-4.22-11.3-4.53-29.52,2.61-40.46,1.75-2.73,3.34-4.28,5.49-6.33.55-.55.76-.8.47-.7-1.4.67-3.14,1.94-4.38,3.04C4.17,14.7,0,33.59.13,49.58c.25,2.58.61,3.53,3.41,3.28,10-.07,20.46.1,30.5.29,1.9.09,2.71-.95,2.44-2.85-.25-2.51-.2-4.77.33-7,1.43-5.79,5.19-9.97,9.76-12.94,1.22-.8,2.35-1.64-.13-.76-10.55,3.91-14.15,14.66-15.88,19.53-.98.4-2.15-.94-2.89-1.56-.4-.37-.75-.74-.99-1.22-2.4-5.11-1.61-15.52-.59-22.11l.03-.2Z"/>
  </g>
</svg>