<?xml version="1.0" encoding="UTF-8"?>
<svg id="_Слой_2" data-name="Слой 2" xmlns="http://www.w3.org/2000/svg" viewBox="0 0 382.18 264.84">
  <defs>
    <style>
      .cls-1 {
        opacity: .5;
      }

      .cls-1, .cls-2 {
        fill: #333;
      }

      .cls-2 {
        stroke: #000;
        stroke-miterlimit: 10;
        stroke-width: .25px;
      }
    </style>
  </defs>
  <g id="_Камни" data-name="Камни">
    <g>
      <path class="cls-1" d="M67.28,246.98c-29.87-7.25-48.37-25.12-54.93-42.53-13.68-34.66,28.22-65.78,89.34-74.03,52.49-7.63,106.78,1.94,152.9,16.61,53.94,16.61,110.44,46.69,124.37,73.8,3.77,7.17,4.87,14.94-.16,21.74-20.27,26.01-119.83,23.32-171.35,20.61-27.07-1.52-57.61-4.16-84.13-7.08-18.59-2.08-39.46-4.77-55.87-9.07l-.16-.04Z"/>
      <path class="cls-2" d="M57.62,218.13c-29.85-13.25-48.34-45.93-54.9-77.74C-10.95,77.02,30.92,20.12,92,5.04c52.46-13.94,106.71,3.54,152.8,30.37,53.9,30.37,110.37,85.35,124.28,134.91,3.77,13.11,4.87,27.31-.16,39.74-20.25,47.54-119.75,42.63-171.24,37.69-27.05-2.77-57.57-7.6-84.07-12.95-18.57-3.8-39.44-8.72-55.83-16.59l-.16-.08Z"/>
    </g>
  </g>
</svg>