<?xml version="1.0" encoding="UTF-8"?>
<svg id="_Слой_2" data-name="Слой 2" xmlns="http://www.w3.org/2000/svg" xmlns:xlink="http://www.w3.org/1999/xlink" viewBox="0 0 27.15 51.08">
  <defs>
    <style>
      .cls-1 {
        fill: url(#_Безымянный_градиент_173);
        opacity: .5;
        stroke: #000;
        stroke-miterlimit: 10;
        stroke-width: .25px;
      }
    </style>
    <linearGradient id="_Безымянный_градиент_173" data-name="Безымянный градиент 173" x1="27.7" y1="6.24" x2="1.71" y2="51.27" gradientUnits="userSpaceOnUse">
      <stop offset="0" stop-color="#006837"/>
      <stop offset=".45" stop-color="#006837" stop-opacity=".98"/>
      <stop offset=".61" stop-color="#006837" stop-opacity=".92"/>
      <stop offset=".72" stop-color="#006837" stop-opacity=".8"/>
      <stop offset=".81" stop-color="#006837" stop-opacity=".64"/>
      <stop offset=".89" stop-color="#006837" stop-opacity=".43"/>
      <stop offset=".96" stop-color="#006837" stop-opacity=".17"/>
      <stop offset="1" stop-color="#006837" stop-opacity="0"/>
    </linearGradient>
  </defs>
  <g id="_Трава" data-name="Трава">
    <path class="cls-1" d="M1.17,50.96c-.5-.31-.65-.69-.75-1.25-.85-4.66.32-13.86,1.23-18.7C3.71,20.15,8.35,7.23,17.15.15c.73.36-.07,1.22-.34,1.65-1.17,1.89-2.79,3.54-3.84,5.64-5.69,11.34-5.47,28.39-.81,40.03,2.79-7.87,4.87-18.54,14.74-19.92-1.63,2.56-3.95,3.9-5.7,6.52-3.72,5.56-4.07,10.45-2.79,16.89H1.17Z"/>
  </g>
</svg>