<?xml version="1.0" encoding="UTF-8"?>
<svg id="_Слой_2" data-name="Слой 2" xmlns="http://www.w3.org/2000/svg" viewBox="0 0 41.77 60.05">
  <defs>
    <style>
      .cls-1 {
        fill: #39b54a;
      }

      .cls-2 {
        fill: #009245;
      }

      .cls-3 {
        fill: none;
        stroke: #000;
        stroke-miterlimit: 10;
        stroke-width: .25px;
      }

      .cls-4 {
        fill: #fcee21;
      }

      .cls-5 {
        fill: #5181ff;
      }
    </style>
  </defs>
  <g id="_Цветы" data-name="Цветы">
    <g>
      <g>
        <path class="cls-1" d="M39.53,24.48c1.37,1.37,1.43,4.09-.24,5.24-2.48,1.71-7.19,1.13-10.03,1.77,1.05-2.36,3.43-4.34,5.94-5.05.08-.02.12-.1.1-.17s-.1-.12-.17-.1c-2.35.66-4.28,1.93-6,3.64h0c.96-3.77,4.68-7.47,8.84-6.22.44.13,1.25.59,1.56.9Z"/>
        <path class="cls-2" d="M37.49,22.49c4.18.57,5.61,6.32,1.86,8.29-2.81,1.48-6.75,1.12-9.81,1.57.27,1.04.66,2.06.92,3.11,1.52,6.3.97,12.33-.88,18.48-.49,1.63-1.21,4.45-2.72,5.34-2.69,1.59-5.49-.78-5.24-3.69.1-1.08,1.03-2.06,1.49-3.02,2.96-6.07,3.39-12.82,1.91-19.38-1.91,1.83-2.43,4.86-4.04,6.91-4.62,5.89-11.98-.51-7.25-6.53,2.41-3.08,6.72-4.38,10.43-3.07,0,0,0,0,0,0l-2.25-5.13c-1.77-.06-3.3-.27-4.54-1.64.06,5.39-7.37,4.47-9.59,1.32-.13-.18-.23-.38-.32-.57-.06-.11-.13-.23-.17-.35-.05-.12-.08-.24-.1-.37-.03-.14-.07-.29-.1-.43-.03-.1-.03-.21-.03-.32,0-.24,0-.47,0-.72v-.57c0-.12-.12-.2-.24-.16C2.12,23.59-1.71,16.46,1.34,12.98c.98-1.12,2.67-1.81,4.15-1.84,0,0,.02,0,0-.02-.2-.52-.64-.87-.91-1.39C2.51,5.82,7.75.21,11.97,2.21c1.14.54,1.84,1.58,2.73,2.43h0c1.53-7.87,14.23-4.15,10.04,3.24h0c2.32-.51,4.48-.07,5.34,2.38,1.37,3.92-1.09,6.88-5.05,6.97h0c1.44,1.98,1.25,4.67-.38,6.42t0,0c1.35,1.77,2.43,3.76,3.64,5.58,1.34-4.04,4.67-7.36,9.22-6.75ZM39.29,29.73c1.67-1.15,1.61-3.87.24-5.24-.31-.31-1.13-.77-1.56-.9-4.15-1.25-7.87,2.46-8.84,6.21h0c1.72-1.7,3.65-2.97,6-3.63.07-.02.16.03.17.1s-.03.16-.1.17c-2.51.71-4.89,2.69-5.94,5.05,2.84-.65,7.55-.06,10.03-1.77ZM30.38,46.72c.08-.67.12-1.78.09-2.46-.09-1.76-.24-3.51-.45-5.26-.16-1.35-.34-2.69-.68-3.99-.42-1.63-1.07-3.18-1.72-4.73-.57-1.36-1.15-2.74-2.01-3.97-.35-.5-.92-1.39-1.49-1.65-.47-.21-.73.07-1.19.33-.08.04-.1.14-.07.23.4.79.86,1.56,1.21,2.38.39.9.87,2.71,1.28,3.39.25.43,1.06.4,1.18.93.1.47-.61.56-.65.94,1.64,6.41,1.19,13.43-1.6,19.46-.46,1-1.84,2.89-1.8,3.85.08,2.18,2.84,3.64,4.45,1.9.67-.73,1.05-1.7,1.35-2.65.12-.42.32-.8.42-1.22.11-.54.29-1.07.45-1.59.41-1.33.73-2.68.97-4.05.1-.61.2-1.21.28-1.83ZM23.12,16.25c3.74.69,7.87-1.51,6.02-5.91-1.15-2.74-4.39-1.69-6.48-.78-.12.06-.5.27-.84.45-.08.04-.16.02-.2-.03-.06-.05-.08-.15-.02-.22,1.54-1.86,3.91-3,2.86-5.91,0-.03-.02-.05-.03-.07-.03-.1-.07-.18-.11-.27s-.09-.17-.13-.25c-.05-.08-.1-.16-.15-.23-.05-.08-.11-.15-.17-.22l-.18-.21c-.06-.06-.12-.12-.19-.18s-.14-.12-.21-.17-.14-.1-.22-.16c-.07-.05-.15-.1-.23-.15l-.24-.13c-.09-.03-.17-.08-.25-.11-.08-.03-.17-.07-.25-.1s-.17-.06-.26-.09c-.09-.03-.17-.06-.27-.08-.09-.03-.17-.05-.27-.07-.09-.02-.18-.03-.27-.05-.1-.02-.19-.03-.28-.04-.1-.02-.19-.03-.28-.03-.1,0-.19-.02-.29-.02-.09,0-.18,0-.28,0-.09,0-.18,0-.28,0-.09,0-.18,0-.27,0-.1,0-.18,0-.27.02-.1,0-.19.02-.29.03h0s-.03,0-.05.02c-.03,0-.05.02-.09.02-.03.02-.07.03-.11.03-.03.02-.07.03-.11.03-.02,0-.03,0-.06.02,0,0-.2.06-.26.1-.03.02-.07.03-.1.04-.59.19-1.13.52-1.56.97-.31.31-.47.73-.66,1.12-.04.1-.11.21-.15.32s-.09.21-.16.31c-.13.19-.21.41-.36.59-.16.18-.42.23-.65.24-.26,0-.48-.17-.69-.3-.13-.08-.24-.17-.38-.24-.16-.08-.31-.2-.45-.31-.28-.22-.54-.45-.83-.64-.83-.54-2.18-.5-3.09-.25-1.67.44-3.25,2.11-3.32,3.87-.03.87.34,1.68.63,2.49.05.13.1.26.16.39.32.62,1.05,1.2,1.64,1.53.16.09.09.33-.09.32-2.59-.1-5.87.15-6.74,2.97-.52,1.7.32,3.93,1.58,5.13,2.05,1.94,4.31.55,6.15-.86-.72,1.5-1.49,2.81-.91,4.52.76,2.25,4.74,3.57,6.83,2.74.6-.24,1.07-.89,1.44-1.4.45-.64.3-1.67.21-2.39-.07-.52-.16-1.02-.18-1.55-.02-.31-.07-.81.09-1.09,0,0,0,.02.02.03.26.66.43,1.34.8,1.98.37.62.83,1.19,1.41,1.63,1.24.93,2.77.94,4.12.24,2.37-1.22,2.88-4.34,1.24-6.38l-1.11-.98c-.13-.11-.03-.32.14-.29ZM23.23,31.6c.17-.05.16-.29-.02-.32-.98-.22-1.89-.42-2.92-.34-2.99.22-6.97,3.09-7.14,6.29-.11,2.03,1.25,4.26,3.43,4.25,4.56,0,5.18-6.5,7.73-9.13-2.82.04-5.17,1.35-6.71,3.68-.1.02-.1-.15-.07-.21.09-.21.87-1.26,1.06-1.49,1.52-1.82,2.56-1.98,4.63-2.73h0Z"/>
        <path class="cls-1" d="M30.46,44.26c.03.68,0,1.79-.09,2.46-.08.61-.17,1.21-.28,1.83-.24,1.36-.56,2.72-.97,4.05-.16.52-.33,1.05-.45,1.59-.1.42-.3.8-.42,1.22-.3.94-.67,1.91-1.35,2.65-1.61,1.74-4.37.29-4.45-1.9-.03-.96,1.34-2.86,1.8-3.85,2.79-6.03,3.24-13.06,1.6-19.46.03-.38.75-.46.65-.94-.12-.52-.93-.5-1.18-.93-.41-.68-.88-2.49-1.28-3.39-.36-.81-.81-1.59-1.21-2.38-.03-.09,0-.18.07-.23.46-.26.72-.54,1.19-.33.58.26,1.14,1.15,1.49,1.65.86,1.22,1.44,2.6,2.01,3.97.66,1.55,1.3,3.1,1.72,4.73.34,1.3.52,2.65.68,3.99.21,1.75.37,3.5.45,5.26Z"/>
        <path class="cls-5" d="M29.14,10.34c1.84,4.4-2.28,6.6-6.02,5.91-.17-.03-.27.17-.14.29l1.11.98c1.64,2.04,1.13,5.16-1.24,6.38-1.35.7-2.88.69-4.12-.24-.58-.44-1.04-1.01-1.41-1.63-.37-.64-.53-1.31-.8-1.98,0,0,0-.02-.02-.03l-1.05-1.67c3.53,0,6.62-3.83,3.92-7.08l2.23-1.3c.04.05.12.08.2.03.34-.18.72-.39.84-.45,2.1-.91,5.33-1.97,6.48.78Z"/>
        <path class="cls-5" d="M24.46,3.86c1.05,2.91-1.32,4.05-2.86,5.91-.06.07-.04.17.02.22l-2.23,1.3c-1.25-1.5-3.02-1.93-4.91-1.66-3.59.52-5.11,5.02-2.31,7.46,1.03.89,2.18,1.28,3.29,1.28l1.05,1.67c-.16.28-.1.78-.09,1.09.03.52.11,1.03.18,1.55.09.72.24,1.75-.21,2.39-.38.51-.84,1.15-1.44,1.4-2.09.83-6.07-.48-6.83-2.74-.59-1.71.19-3.02.91-4.52-1.84,1.41-4.11,2.8-6.15.86-1.26-1.2-2.1-3.43-1.58-5.13.87-2.82,4.15-3.08,6.74-2.97.17,0,.24-.24.09-.32-.59-.33-1.32-.91-1.64-1.53-.06-.13-.1-.26-.16-.39-.29-.81-.66-1.62-.63-2.49.07-1.77,1.65-3.43,3.32-3.87.92-.24,2.26-.29,3.09.25.29.18.55.42.83.64.14.1.29.23.45.31.13.06.24.16.38.24.21.13.43.31.69.3.23-.02.49-.06.65-.24.15-.18.23-.4.36-.59.07-.1.12-.19.16-.31s.1-.22.15-.32c.18-.39.34-.8.66-1.12.43-.45.97-.78,1.56-.97.03-.02.07-.03.1-.04.06-.03.25-.09.26-.1.03,0,.04,0,.06-.02.04,0,.08-.02.11-.03.04,0,.08-.02.11-.03.03,0,.06,0,.09-.02.02,0,.03,0,.05-.02h0c.1-.02.19-.03.29-.03.09,0,.17-.02.27-.02.09,0,.18,0,.27,0,.1,0,.19,0,.28,0,.1,0,.19,0,.28,0,.1,0,.19,0,.29.02.09,0,.18.02.28.03.09,0,.18.03.28.04.09.02.18.03.27.05.1.02.18.04.27.07.1.02.18.04.27.08.09.03.17.05.26.09s.17.07.25.1c.09.03.17.08.25.11l.24.13c.08.05.16.1.23.15.08.05.15.1.22.16s.14.11.21.17.13.12.19.18l.18.21c.05.07.11.14.17.22.05.07.1.15.15.23.04.09.09.17.13.25s.08.17.11.27c0,.02.02.04.03.07Z"/>
        <path class="cls-1" d="M23.21,31.28c.17.03.18.27.02.32h0c-2.07.75-3.11.91-4.63,2.73-.19.23-.97,1.28-1.06,1.49-.03.06-.03.23.07.21,1.54-2.33,3.89-3.64,6.71-3.68-2.54,2.63-3.16,9.12-7.73,9.13-2.18,0-3.55-2.22-3.43-4.25.17-3.21,4.15-6.07,7.14-6.29,1.03-.08,1.94.12,2.92.34Z"/>
        <path class="cls-2" d="M19.39,11.28c2.69,3.25-.39,7.08-3.92,7.08-1.11,0-2.26-.38-3.29-1.28-2.81-2.45-1.28-6.95,2.31-7.46,1.9-.27,3.66.16,4.91,1.66ZM14.64,17.5c6.14.85,5.86-7.52.02-6.6-3.94.62-3.92,6.06-.02,6.6Z"/>
        <path class="cls-4" d="M14.66,10.9c5.84-.92,6.13,7.45-.02,6.6-3.9-.54-3.92-5.98.02-6.6Z"/>
      </g>
      <g>
        <path class="cls-3" d="M15.47,18.36c-1.11,0-2.26-.38-3.29-1.28-2.81-2.45-1.28-6.95,2.31-7.46,1.9-.27,3.66.16,4.91,1.66,2.69,3.25-.39,7.08-3.92,7.08Z"/>
        <path class="cls-3" d="M14.64,17.5c6.14.85,5.86-7.52.02-6.6-3.94.62-3.92,6.06-.02,6.6Z"/>
        <path class="cls-3" d="M37.49,22.49c-4.55-.61-7.88,2.71-9.22,6.75-1.21-1.82-2.28-3.81-3.64-5.58t0,0c1.63-1.76,1.83-4.45.38-6.42h0c3.96-.09,6.42-3.04,5.05-6.97-.86-2.45-3.02-2.88-5.34-2.37h0C28.93.49,16.23-3.23,14.7,4.63h0c-.88-.84-1.58-1.88-2.73-2.42C7.75.21,2.51,5.82,4.59,9.74c.27.52.71.87.91,1.39,0,0,0,.02,0,.02-1.48.03-3.17.72-4.15,1.84-3.05,3.48.78,10.61,5.49,8.59.11-.04.24.03.24.16v.57c0,.24,0,.48,0,.72,0,.11,0,.22.03.32.03.14.06.29.1.43.03.12.05.24.1.37.04.12.11.24.17.35.1.19.19.38.32.57,2.22,3.16,9.65,4.07,9.59-1.32,1.23,1.37,2.77,1.58,4.54,1.64l2.25,5.13s0,0,0,0c-3.71-1.31-8.01,0-10.43,3.07-4.74,6.02,2.62,12.42,7.25,6.53,1.61-2.05,2.12-5.09,4.04-6.91,1.49,6.55,1.06,13.31-1.91,19.38-.46.96-1.4,1.94-1.49,3.02-.24,2.91,2.55,5.28,5.24,3.69,1.51-.89,2.23-3.71,2.72-5.34,1.85-6.15,2.4-12.18.88-18.48-.25-1.05-.65-2.07-.92-3.11,3.06-.45,7-.1,9.81-1.57,3.75-1.97,2.32-7.72-1.86-8.29Z"/>
        <path class="cls-3" d="M21.62,9.98c.04.05.12.08.2.03.34-.18.72-.39.84-.45,2.1-.91,5.33-1.97,6.48.78,1.84,4.4-2.28,6.6-6.02,5.91-.17-.03-.27.17-.14.29l1.11.98c1.64,2.04,1.13,5.16-1.24,6.38-1.35.7-2.88.69-4.12-.24-.58-.44-1.04-1.01-1.41-1.63-.37-.64-.53-1.31-.8-1.98,0,0,0-.02-.02-.03-.16.28-.1.78-.09,1.09.03.52.11,1.03.18,1.55.09.72.24,1.75-.21,2.39-.38.51-.84,1.15-1.44,1.4-2.09.83-6.07-.48-6.83-2.74-.59-1.71.19-3.02.91-4.52-1.84,1.41-4.11,2.8-6.15.86-1.26-1.2-2.1-3.43-1.58-5.13.87-2.82,4.15-3.08,6.74-2.97.17,0,.24-.24.09-.32-.59-.33-1.32-.91-1.64-1.53-.06-.13-.1-.26-.16-.39-.29-.81-.66-1.62-.63-2.49.07-1.77,1.65-3.43,3.32-3.87.92-.24,2.26-.29,3.09.25.29.18.55.42.83.64.14.1.29.23.45.31.13.06.24.16.38.24.21.13.43.31.69.3.23-.02.49-.06.65-.24.15-.18.23-.4.36-.59.07-.1.12-.19.16-.31s.1-.22.15-.32c.18-.39.34-.8.66-1.12.43-.45.97-.78,1.56-.97.03-.02.07-.03.1-.04.06-.03.25-.09.26-.1.03,0,.04,0,.06-.02.04,0,.08-.02.11-.03.04,0,.08-.02.11-.03.03,0,.06,0,.09-.02.02,0,.03,0,.05-.02h0c.1-.02.19-.03.29-.03.09,0,.17-.02.27-.02.09,0,.18,0,.27,0,.1,0,.19,0,.28,0,.1,0,.19,0,.28,0,.1,0,.19,0,.29.02.09,0,.18.02.28.03.09,0,.18.03.28.04.09.02.18.03.27.05.1.02.18.04.27.07.1.02.18.04.27.08.09.03.17.05.26.09s.17.07.25.1c.09.03.17.08.25.11l.24.13c.08.05.16.1.23.15.08.05.15.1.22.16s.14.11.21.17.13.12.19.18l.18.21c.05.07.11.14.17.22.05.07.1.15.15.23.04.09.09.17.13.25s.08.17.11.27c0,.02.02.04.03.07,1.05,2.91-1.32,4.05-2.86,5.91-.06.07-.04.17.02.22Z"/>
        <path class="cls-3" d="M23.23,31.6h0c-2.07.75-3.11.91-4.63,2.73-.19.23-.97,1.28-1.06,1.49-.03.06-.03.23.07.21,1.54-2.33,3.89-3.64,6.71-3.68-2.54,2.63-3.16,9.12-7.73,9.13-2.18,0-3.55-2.22-3.43-4.25.17-3.21,4.15-6.07,7.14-6.29,1.03-.08,1.94.12,2.92.34.17.03.18.27.02.32Z"/>
        <path class="cls-3" d="M30.1,48.55c-.24,1.36-.56,2.72-.97,4.05-.16.52-.33,1.05-.45,1.59-.1.42-.3.8-.42,1.22-.3.94-.67,1.91-1.35,2.65-1.61,1.74-4.37.29-4.45-1.9-.03-.96,1.34-2.86,1.8-3.85,2.79-6.03,3.24-13.06,1.6-19.46.03-.38.75-.46.65-.94-.12-.52-.93-.5-1.18-.93-.41-.68-.88-2.49-1.28-3.39-.36-.81-.81-1.59-1.21-2.38-.03-.09,0-.18.07-.23.46-.26.72-.54,1.19-.33.58.26,1.14,1.15,1.49,1.65.86,1.22,1.44,2.6,2.01,3.97.66,1.55,1.3,3.1,1.72,4.73.34,1.3.52,2.65.68,3.99.21,1.75.37,3.5.45,5.26.03.68,0,1.79-.09,2.46-.08.61-.17,1.21-.28,1.83Z"/>
        <path class="cls-3" d="M39.29,29.73c-2.48,1.71-7.19,1.13-10.03,1.77,1.05-2.36,3.43-4.34,5.94-5.05.08-.02.12-.1.1-.17s-.1-.12-.17-.1c-2.35.66-4.28,1.93-6,3.64h0c.96-3.77,4.68-7.47,8.84-6.22.44.13,1.25.59,1.56.9,1.37,1.37,1.43,4.09-.24,5.24Z"/>
      </g>
    </g>
  </g>
</svg>