<?xml version="1.0" encoding="UTF-8"?>
<svg id="_Слой_2" data-name="Слой 2" xmlns="http://www.w3.org/2000/svg" viewBox="0 0 1530.39 852.41">
  <defs>
    <style>
      .cls-1 {
        fill: #fefdf8;
      }

      .cls-2 {
        fill: #98876d;
      }

      .cls-3 {
        fill: #98876c;
      }

      .cls-4 {
        fill: #99876c;
      }

      .cls-5 {
        fill: #97876d;
      }

      .cls-6 {
        fill: #fefefc;
      }

      .cls-7 {
        fill: #98876e;
      }

      .cls-8 {
        fill: #fefdf7;
      }

      .cls-9 {
        fill: #d6bd96;
      }

      .cls-10 {
        fill: #9a8769;
      }

      .cls-11 {
        fill: #fefdfb;
      }

      .cls-12 {
        fill: #99876b;
      }

      .cls-13 {
        fill: #fdfdfa;
      }

      .cls-14 {
        fill: #fefefb;
      }
    </style>
  </defs>
  <g id="_Слой_1-2" data-name="Слой 1">
    <g>
      <g>
        <path class="cls-4" d="M617.55,16.27c12.31-.07,24.71.05,37.02.01V.69s75.97,0,75.97,0l1.12,15.62,35.9-.02V.69s188.96,0,188.96,0v15.6s109.92.02,109.92.02l1.12-15.62h112.99c.81,4.65-1.11,30.08-.01,31.18.72.72,14.45-.53,17.54-.01v37.01c0,.88-17.53-.88-17.53,0v52.6c0,.88,17.17-1.55,17.57,1.12l-.02,172.27c-5.83.08-11.72-.12-17.54-.01.24-52.57-.19-105.24.01-157.81-3.3-.55-18.74.79-19.5.02-.83-.83.85-14.78.02-15.6-.75-.75-15.19.59-18.37-.02-2.61.39-.34,15.62-1.12,15.62h-37.01v-15.59c3.28-.54,18.75.77,19.49.02s-.78-10.94-.02-11.71c.84-.85,16.7.87,17.55.02.79-.8-.81-12.86-.02-13.66.74-.75,16.2.56,19.49.01v-38.96c0-.98,19.11,1.61,19.52-1.12l-.02-12.53h-19.49s0-27.26,0-27.26h-74.03c-.78,0,.78,15.58,0,15.58h-75.98c5.38,20.18-14.01,8.12-17.54,11.68-.79.8.81,12.86.02,13.66-.75.75-15.19-.58-18.37.02l-1.12-25.36h-37.01c-.78,0,.78-15.58,0-15.58h-151.95v27.28c-5.81.1-11.71-.16-17.53-.01-.05-3.89.05-7.81.01-11.7-7.43-1.5-54.52,2.02-56.51.02-.69-.69.5-12.71.01-15.59h-37.01c-.49,2.88.7,14.91.01,15.59-.89.89-18.62-.91-19.5-.02s.68,21.44.02,25.35l-16.42.02c-2.96-.44.16-24.09-1.11-25.37-.88-.88-18.64.9-19.5.02-.55-.56.03-12.79,0-15.6Z"/>
        <path class="cls-2" d="M824.04,836.42c68.77,1.14,137.73-.86,206.51.01v-13.65s37,0,37,0c-.66-3.92.9-24.44.01-25.34-.73-.73-14.46.55-17.55.02v-13.65h37.02v27.27c3.09.52,16.83-.73,17.54-.01.89.9-.67,21.44-.02,25.35h19.5s-.02-25.35-.02-25.35c3.08.51,16.87-.7,17.55,0,.76.77-.78,10.94-.02,11.71s16.22-.54,19.5,0c.05-17.51-.1-35.1-.01-52.61,6.47.07,13.01-.05,19.48,0v66.24h-19.49s0,13.64,0,13.64h-74.03l-1.12-13.67-35.9.02v13.65s-225.97,0-225.97,0v-13.64Z"/>
        <path class="cls-6" d="M1161.06,850.06v-13.65s19.48.01,19.48.01v-66.24c-6.47-.05-13.01.07-19.48,0,.03-5.62-1.39-37.59-.01-38.97.88-.89,18.62.91,19.5.02.96-.96-.98-24.38-.02-25.35.72-.72,14.45.53,17.54.01v-81.82c-3.09-.52-16.83.73-17.54.01-.89-.9.67-21.44.02-25.35-6.48-.04-13.01.08-19.49.01-.04-9.07.04-18.21,0-27.27,6.48-.07,13.02.05,19.49.01-.19-14.26.23-28.61,0-42.87,7.84,1.6,6.89-17.14,0-15.58-.13-1.89.31-4.14,0-5.84-2.24-12.19-14-6.25-15.6-7.78-.5-.48-.37-11.99.86-13.77,2.24-3.24,16.74-1.68,21.64-1.82,3.75-.11,7.82,1.97,6.73-3.9h7.79v370.14h-40.91Z"/>
        <path class="cls-3" d="M300.01,822.78c.37-12.94-.26-26.02-.01-38.97h19.49v27.28c13.43.79,20.1-5.22,17.53,11.69h37.01c-2.76-17.26,4.9-10.68,18.36-11.72,2.5.37.5,11.72,1.12,11.72h74.03c.68,0-.68,13.64,0,13.64h38.96c.68,0-.68-13.64,0-13.64h54.55v-25.34s19.49,0,19.49,0l-.02,25.35,130.54-.02c.04,4.53-.06,9.11,0,13.65-62.31.23-124.72-.16-187.03-.01v13.65s-74.02,0-74.02,0v-13.65s-130.53.02-130.53.02c-.48-2.66.69-12.98.02-13.66s-16.31.06-19.49.01Z"/>
        <path class="cls-12" d="M74.03.69h93.51l1.12,15.62,55.38-.02V.69s149.99,0,149.99,0c.03,5.19-.04,10.4,0,15.58,25.3-.09,50.69.06,75.99.01V.69s167.53,0,167.53,0c.03,5.19-.04,10.4,0,15.58-49.97.29-100.04-.21-150.01-.01v15.59s-37,0-37,0v25.34s-17.54,0-17.54,0l.02-25.35-38.98.02c-.03-5.18.05-10.41,0-15.6-44.13.16-88.35-.11-132.48-.01v15.59s-37,0-37,0v25.34s-16.41.02-16.41.02l-1.12-25.36h-38.96c-.49-2.88.7-14.91.01-15.59-2.62-2.62-63.81.21-74.04.01V.69Z"/>
        <path class="cls-3" d="M0,203.29h17.53c.08,26.59-.06,53.28,0,79.87h38.96v11.69H17.53v52.6c3.3.55,18.74-.76,19.49-.01.96.96-.98,24.38-.02,25.35.75.75,16.2-.56,19.49-.01v27.27c-6.47.05-13.01-.07-19.48,0-.03-2.24.42-11.28.01-11.7-.83-.87-18.63.9-19.5.02-.96-.97.73-23.16.02-27.29H0s0-157.79,0-157.79Z"/>
        <path class="cls-11" d="M0,624.08h17.54s-.02,54.56-.02,54.56c6.47.07,13.02-.12,19.49-.01.04,9.07-.02,18.2,0,27.27-6.48.06-13.02-.05-19.49-.01.84,38.89-1.09,78.02,0,116.9-5.83,0-11.7,0-17.53,0v-198.71Z"/>
        <path class="cls-1" d="M1198.08,479.92v-118.84s-17.54.02-17.54.02l-.02-12.53c.42-2.88,16.42.05,17.58-1.11,1.38-1.38-1.05-33.53,0-38.98-5.83-.08-11.72.12-17.54.01.05-4.54-.02-9.1,0-13.64,5.83-.11,11.72.09,17.54.01l.02-172.27c-.4-2.67-17.57-.24-17.57-1.12v-52.6c0-.88,17.53.88,17.53,0V31.86c-3.09-.52-16.83.73-17.54.01-1.1-1.1.82-26.53.01-31.18h21.43v479.23h-3.9Z"/>
        <path class="cls-6" d="M204.55,850.06v-13.65s95.47.02,95.47.02c.09-4.53-.14-9.12,0-13.65,3.18.05,18.8-.7,19.49-.01s-.5,10.99-.02,13.66l130.54-.02v13.65h-245.47Z"/>
        <path class="cls-5" d="M111.04,836.42c10.26-.06,73.3,2.7,75.99.01.67-.67-.49-10.99-.02-13.66,37.62.48,75.38-.61,113,.01-.13,4.53.1,9.12,0,13.65l-95.48-.02v13.65s-93.5,0-93.5,0c0-4.54,0-9.1,0-13.64Z"/>
        <path class="cls-14" d="M0,43.55h17.53c-.51,53.19-.17,106.55,0,159.74H0V43.55Z"/>
        <path class="cls-6" d="M524.04,850.06v-13.65c62.3-.15,124.71.24,187.02.01.05,4.54-.03,9.1,0,13.64h-187.02Z"/>
        <path class="cls-3" d="M0,822.78c5.83,0,11.7,0,17.53,0,.13,4.53-.1,9.12,0,13.65,5.45-1.06,37.61,1.38,38.98,0,.79-.79-.81-12.86-.02-13.66.85-.86,16.7.88,17.55.02s-.67-21.44-.02-25.35h19.5c.65,3.91-.91,24.45-.02,25.35.85.85,16.74-.86,17.55-.02.47.49,0,11.14,0,13.65-12.31.07-24.71-.05-37.02-.01v13.65s-74.02,0-74.02,0v-27.27Z"/>
        <path class="cls-7" d="M0,587.06c5.83,0,11.7,0,17.53,0,.12-5.18-.09-10.42,0-15.6,6.48-.03,13.01.06,19.49.01-.13,5.18.1,10.42,0,15.6-6.48,0-13.01,0-19.49-.01-.09,3.74-.91,24.44-.01,25.34s18.62-.91,19.5-.02c2.34,2.34-.05,57.38-.01,66.25-6.47-.11-13.02.08-19.49.01l.02-54.57H0s0-37,0-37Z"/>
        <path class="cls-3" d="M0,43.55V.69h56.49v15.6c5.82.08,11.71-.13,17.53-.01,0,2.38.78,15.58,0,15.58h-37.01c-.49-2.88.7-14.91.01-15.59-.74-.74-16.21.55-19.5,0-.05,9.07.1,18.22.01,27.28,2.71,0,19.48-.97,19.48,0v77.92h37.01v15.58h-37.01v66.24c0,.97-16.77,0-19.48,0-.17-53.19-.51-106.56,0-159.74H0Z"/>
        <polygon class="cls-11" points="956.51 .69 1067.56 .69 1066.44 16.31 956.5 16.28 956.51 .69"/>
        <path class="cls-3" d="M0,479.92h17.53c-.13-4.53.1-9.12,0-13.65H0s0-52.59,0-52.59c5.83,0,11.7,0,17.53,0-.15,5.42-1.46,39.47-.01,40.92.88.88,18.64-.9,19.5-.02.76.77-.78,10.94-.02,11.71.86.87,18.66-.89,19.5-.02.47.49-.08,11.08,0,13.65-12.96.07-26,0-38.96,0,.27,9.38-2.35,63.9-.01,66.25.88.88,18.66-.89,19.5-.02.47.49-.09,11.08,0,13.65-12.31-.21-24.71.15-37.01,0v-79.87Z"/>
        <path class="cls-11" d="M374.03.69h75.98v15.6c-25.29.05-50.68-.1-75.98-.01-.04-5.19.03-10.4,0-15.58Z"/>
        <path class="cls-13" d="M0,361.09h17.54c.71,4.12-.98,26.32-.02,27.28.87.88,18.67-.89,19.5-.02.41.42-.04,9.46-.01,11.7-6.48.07-13.02-.05-19.49-.01-.09,4.53.14,9.12,0,13.65-5.83,0-11.7,0-17.53,0v-52.6Z"/>
        <path class="cls-1" d="M767.55,836.42c5.83-.12,11.72.09,17.54.01.09-4.53-.14-9.12,0-13.65,3.08-.05,18.8-.7,19.49-.01.79.8-.81,12.86-.02,13.66.69.69,16.31-.06,19.49-.01v13.64h-56.49c0-4.54,0-9.1,0-13.64Z"/>
        <polygon class="cls-11" points="167.54 .69 224.03 .69 224.04 16.28 168.66 16.31 167.54 .69"/>
        <path class="cls-7" d="M711.05,836.42c18.79-.07,37.72.38,56.49,0v-13.65c5.82-.06,11.71.11,17.53.01-.13,4.53.1,9.12,0,13.65-5.83.08-11.72-.13-17.54-.01,0,4.54,0,9.1,0,13.64h-56.49c-.03-4.54.05-9.1,0-13.64Z"/>
        <path class="cls-13" d="M0,559.79c12.31.15,24.71-.21,37.01,0,.12,3.87.1,7.82,0,11.69-6.48.05-13.02-.04-19.49-.01-.08,5.18.13,10.42,0,15.6-5.83,0-11.7,0-17.53,0v-27.27Z"/>
        <path class="cls-13" d="M617.55.69h37.01v15.6c-12.3.04-24.7-.08-37.01-.01-.04-5.19.03-10.4,0-15.58Z"/>
        <polygon class="cls-1" points="730.54 .69 767.55 .69 767.56 16.28 731.66 16.31 730.54 .69"/>
        <polygon class="cls-13" points="1050.02 850.06 1050.01 836.41 1085.92 836.39 1087.04 850.06 1050.02 850.06"/>
        <path class="cls-14" d="M74.03,850.06v-13.65c12.3-.04,24.7.08,37.01.01,0,4.54,0,9.1,0,13.64h-37.01Z"/>
        <path class="cls-1" d="M56.49.69h17.53v15.58c-5.83-.12-11.72.09-17.54.01V.69Z"/>
        <path class="cls-1" d="M0,466.28h17.54c.09,4.52-.14,9.1,0,13.64H0v-13.64Z"/>
        <path class="cls-9" d="M17.53,822.78c6.48,0,13.02,0,19.49.01-.08-38.93.08-77.96,0-116.9,3.16-.03,18.8.7,19.49.01s-.47-10.99,0-13.65h37.01v-13.65c-18.79-.21-37.7.32-56.49.01-.04-8.86,2.35-63.9.01-66.25-.88-.89-18.62.91-19.5.02s-.08-21.6.01-25.34c6.48,0,13.01,0,19.49.01.09-5.18-.14-10.42,0-15.6,3.39-.03,19.22.92,19.51-1.12l-.02-10.58c-6.47-.07-13.02.12-19.49.01-.08-2.57.48-13.16,0-13.65-.84-.87-18.63.9-19.5.02-2.34-2.34.28-56.87.01-66.25,12.96,0,26,.07,38.96,0,.26,9.06-.18,18.22-.01,27.28l16.42.02c2.08-.31,1.01-23.34,1.12-27.31,6.47-.12,13.02.09,19.49.01v-13.66s-19.5,0-19.5,0c-.09,4.53.14,9.12,0,13.65-5.83.1-11.7-.03-17.53,0-.07-2.56.48-13.16,0-13.65-.84-.87-18.64.89-19.5.02-.76-.77.78-10.94.02-11.71-.87-.88-18.62.9-19.5.02-1.45-1.45-.14-35.5.01-40.92,6.48,0,13.01,0,19.49.01-.03-4.53.04-9.11,0-13.65,6.47-.07,13.01.05,19.48,0v-27.27c-3.3-.55-18.74.76-19.49.01-.96-.96.98-24.38.02-25.35-.75-.75-16.2.56-19.49.01v-52.6h38.96v-11.69H17.53c-.06-26.59.08-53.28,0-79.87,2.71,0,19.48.97,19.48,0v-66.24h37.01v-15.58h-37.01V43.55c0-.97-16.77,0-19.48,0,.09-9.07-.06-18.22-.01-27.28,3.29.55,18.76-.74,19.5,0,.69.69-.5,12.71-.01,15.59h37.01c.78,0,0-13.2,0-15.58,10.23.2,71.42-2.63,74.04-.01.69.69-.5,12.71-.01,15.59h38.96l1.12,25.36,16.42-.02v-25.34s37,0,37,0v-15.59c44.12-.1,88.34.17,132.47.01.04,5.18-.04,10.42,0,15.6l38.98-.02-.02,25.35h17.55s-.01-25.34-.01-25.34h37.01v-15.59c49.96-.2,100.03.3,150,.01.02,2.8-.56,15.04,0,15.6.86.88,18.62-.9,19.5-.02,1.27,1.28-1.85,24.93,1.11,25.37l16.42-.02c.66-3.91-.92-24.45-.02-25.35s18.61.91,19.5.02c.69-.69-.5-12.71-.01-15.59h37.01c.49,2.88-.7,14.91-.01,15.59,2,2,49.09-1.52,56.51-.02.04,3.89-.06,7.81-.01,11.7-6.47.17-13.02-.12-19.49-.01v13.66s19.5,0,19.5,0c-.03-4.53.04-9.11,0-13.65,5.82-.15,11.72.11,17.54.01v-27.28s151.94,0,151.94,0c.78,0-.78,15.58,0,15.58h37.01l1.12,25.36c3.17-.61,17.62.73,18.37-.02.79-.8-.81-12.86-.02-13.66,3.54-3.55,22.92,8.5,17.54-11.68h75.98c.78,0-.78-15.58,0-15.58h74.03v27.27h19.49s.02,12.52.02,12.52c-.4,2.73-19.52.14-19.52,1.12v38.96c-3.29.55-18.75-.76-19.49-.01-.79.8.81,12.86.02,13.66-.85.85-16.72-.87-17.55-.02-.76.77.78,10.94.02,11.71s-16.22-.56-19.5-.02v15.59h37.02c.78,0-1.49-15.23,1.12-15.62,3.18.61,17.62-.73,18.37.02.83.83-.85,14.78-.02,15.6.77.77,16.21-.57,19.5-.02-.2,52.57.23,105.24-.01,157.81-12.91.25-26.06.25-38.96,0-.19-3.88.15-7.82,0-11.7h-17.55s0,11.71,0,11.71c5.83.08,11.72-.13,17.54-.01.22,4.52-.17,9.13,0,13.65,12.96.17,26.02-.26,38.97-.01-.04,4.1.97,26.32.01,27.28-.75.75-16.2-.56-19.49-.01v37.01c0,.97,19.48-.97,19.48,0v93.51c-3.28.53-18.79-.74-19.49-.01-.47.49.08,11.09,0,13.65-12.31.08-24.71-.05-37.02-.01l-.02,12.53c.42,2.88,16.43-.05,17.58,1.11.79.8-.81,12.86-.02,13.66.69.69,16.36,0,19.49-.01-.1,21.39-.09,42.89,0,64.29-6.47.07-13.01-.05-19.48,0v27.27c6.47.05,13.01-.07,19.48,0,.03,5.85-1.46,39.47-.01,40.92.75.75,16.2-.56,19.49-.01v38.96h-56.49s0,13.64,0,13.64h37.01c-.66,3.92.9,24.44.01,25.34-.75.75-16.2-.56-19.49-.01v27.27h-37.01v13.64h37.01c.42,2.42-.63,11.07,0,11.7.68.7,16.33-.04,19.49-.01-.09,17.51.06,35.1.01,52.61-3.28-.54-18.78.73-19.5,0-.76-.77.78-10.94.02-11.71-.69-.7-14.47.51-17.55,0l.02,25.35h-19.5c-.65-3.91.91-24.45.02-25.35-.72-.72-14.45.53-17.54.01v-27.27h-37.01v13.65c3.08.53,16.81-.75,17.54-.02.89.9-.67,21.42-.01,25.34h-37.01v13.65c-68.77-.87-137.73,1.13-206.5-.01,0-3.83.91-24.44.01-25.34s-18.62.91-19.5.02c-.96-.97-.1-23.36.01-27.28,6.47-.12,13.02.09,19.49.01v-13.66s-19.5,0-19.5,0c-.09,4.53.14,9.12,0,13.65-6.46.12-13.03.13-19.48,0-.09-8.42.06-16.92.01-25.34h-17.55v25.35c5.82.08,11.72-.13,17.54-.01.14,12.91.37,26.06,0,38.96-5.83.1-11.72-.07-17.54-.01v13.65c-18.77.38-37.7-.07-56.48,0-.05-4.54.05-9.11,0-13.65l-130.54.02.02-25.35h-19.5s.01,25.34.01,25.34h-54.55c-.68,0,.68,13.64,0,13.64h-38.96c-.68,0,.68-13.64,0-13.64h-74.03c-.62,0,1.38-11.35-1.12-11.72-13.46,1.04-21.12-5.54-18.36,11.72h-37.01c2.56-16.91-4.1-10.9-17.53-11.69v-27.27h-19.49c-.25,12.94.38,26.02.01,38.96-37.61-.62-75.38.47-113-.01-.47,2.66.69,12.98.02,13.66-2.68,2.69-65.72-.07-75.99-.01,0-2.51.48-13.16,0-13.65-.82-.84-16.71.87-17.55.02-.89-.9.67-21.44.02-25.35h-19.5c-.65,3.91.91,24.45.02,25.35s-16.7-.88-17.55-.02c-.79.8.81,12.86.02,13.66-1.38,1.38-33.53-1.06-38.98,0-.09-4.53.14-9.12,0-13.65Z"/>
        <path class="cls-4" d="M1161.06,770.19c-3.16-.03-18.81.71-19.49.01-.62-.63.43-9.28,0-11.7h-37.01v-13.64h37.01v-27.27c3.3-.55,18.74.76,19.49.01.89-.9-.67-21.42-.01-25.34h-37.01v-13.64h56.49s0-38.96,0-38.96c-3.3-.55-18.74.76-19.49.01-1.45-1.45.04-35.07.01-40.92,6.48.07,13.02-.05,19.49-.01.65,3.91-.91,24.45-.02,25.35.72.72,14.45-.53,17.54-.01v81.82c-3.09.52-16.83-.73-17.54-.01-.96.96.98,24.38.02,25.35-.88.89-18.62-.91-19.5-.02-1.38,1.38.04,33.35.01,38.97Z"/>
        <path class="cls-7" d="M1161.06,479.92c.07-2.56-.48-13.16,0-13.65.7-.73,16.21.54,19.49.01v-93.51c0-.97-19.48.97-19.48,0v-37.01c3.3-.55,18.74.76,19.49.01.96-.97-.05-23.19-.01-27.28,5.83.11,11.72-.09,17.54-.01-1.05,5.45,1.38,37.6,0,38.98-1.15,1.16-17.15-1.77-17.58,1.11l.02,12.53,17.55-.02v118.84h-3.91c-11.01,0-22.1-.07-33.12,0Z"/>
        <path class="cls-7" d="M1161.06,507.19c6.48,0,13,0,19.48,0,.31,1.7-.13,3.95,0,5.84.34,5.13-.09,10.43,0,15.58.24,14.25-.18,28.61,0,42.87-6.48.04-13.01-.08-19.49-.01-.09-21.39-.1-42.89,0-64.29Z"/>
        <path class="cls-12" d="M1161.06,598.75c-6.47-.07-13.01.05-19.48,0v-27.27c6.47-.05,13.01.07,19.48,0,.04,9.07-.04,18.21,0,27.27Z"/>
        <path class="cls-1" d="M1161.06,479.92c11.01-.07,22.1,0,33.12,0,1.09,5.87-2.98,3.79-6.73,3.9-4.9.14-19.4-1.42-21.64,1.82-1.23,1.78-1.36,13.3-.86,13.77,1.6,1.53,13.36-4.41,15.6,7.78-6.48,0-13,0-19.48,0,.04-9.06-.25-18.23,0-27.27Z"/>
        <path class="cls-1" d="M1180.55,513.04c6.89-1.56,7.84,17.19,0,15.58-.09-5.15.34-10.46,0-15.58Z"/>
        <path class="cls-5" d="M17.53,822.78c-1.1-38.87.83-78.01,0-116.9,6.48-.04,13.01.07,19.49.01.09,38.93-.07,77.96,0,116.9-6.48,0-13.01,0-19.49-.01Z"/>
        <path class="cls-12" d="M37.01,678.63c18.8.31,37.71-.22,56.5-.01v13.65h-37.02c-.46,2.66.66,12.99,0,13.65-.69.69-16.33-.04-19.49-.01-.02-9.07.04-18.21,0-27.27Z"/>
        <path class="cls-10" d="M1141.58,294.85c-5.83-.11-11.72.09-17.54.01v-11.71s17.55,0,17.55,0c.14,3.88-.2,7.82,0,11.7,12.91.25,26.06.25,38.96,0-.02,4.54.05,9.1,0,13.64-12.95-.25-26.02.18-38.97.01-.16-4.52.23-9.13,0-13.65Z"/>
        <path class="cls-7" d="M17.53,413.68c.13-4.53-.1-9.12,0-13.65,6.47-.04,13.01.08,19.49.01.05,4.54-.02,9.11,0,13.65-6.48-.01-13.01,0-19.49-.01Z"/>
        <path class="cls-12" d="M785.08,783.82c6.45.13,13.03.12,19.48,0-.11,3.93-.97,26.32-.01,27.28.88.89,18.62-.91,19.5-.02s-.01,21.5-.01,25.34c-3.18-.05-18.8.7-19.49.01-.79-.8.81-12.86.02-13.66-.69-.69-16.41-.04-19.49.01.37-12.9.14-26.05,0-38.96Z"/>
        <path class="cls-10" d="M37.01,559.79c6.47.11,13.02-.08,19.49-.01l.02,10.58c-.3,2.04-16.13,1.09-19.51,1.12.1-3.87.12-7.82,0-11.69Z"/>
        <path class="cls-12" d="M1161.06,507.19c-3.13,0-18.8.7-19.49.01-.79-.8.81-12.86.02-13.66-1.15-1.16-17.15,1.77-17.58-1.11l.02-12.53c12.31-.04,24.71.09,37.02.01-.25,9.05.04,18.22,0,27.27Z"/>
        <path class="cls-10" d="M56.49,479.92c5.83-.03,11.71.1,17.53,0,.13-4.53-.1-9.12,0-13.65h19.5s0,13.66,0,13.66c-6.47.08-13.02-.13-19.49-.01-.11,3.97.96,26.99-1.12,27.31l-16.42-.02c-.17-9.06.27-18.23.01-27.28Z"/>
        <path class="cls-10" d="M785.08,783.82c-5.83-.12-11.72.09-17.54.01v-25.35h17.55c.05,8.42-.1,16.92-.01,25.34Z"/>
        <path class="cls-10" d="M767.55,43.55c.05,4.54-.03,9.12,0,13.65h-19.5s0-13.66,0-13.66c6.47-.11,13.02.18,19.49.01Z"/>
        <path class="cls-10" d="M804.56,783.82c.13-4.53-.1-9.12,0-13.65h19.5s0,13.66,0,13.66c-6.47.07-13.02-.13-19.49-.01Z"/>
      </g>
      <g>
        <path class="cls-9" d="M701.67,15.17c0,2.12-.83,16.55,0,16.55h39.92v24.83h16.52v-24.83h37.17V15.17c49.99-.1,100.06.16,150.05,0,0,2.12-.83,16.55,0,16.55h19.27v24.83h17.9v-24.83h19.27V15.17h37.17v16.55h56.44c.07,3.66-.09,7.37,0,11.03-6.41.09-12.87-.06-19.28,0v13.8h19.28c-.08-4.58.12-9.21,0-13.79,5.95-.09,11.95.06,17.9,0V15.17h151.43v16.55h37.17v24.83h19.27c.39-2.33-.54-13.27,0-13.8.68-.68,17.23.69,17.91.01.48-.48-.35-9,0-11.04h75.71V15.17h74.34v27.59h19.27v13.79h-19.27v38.62h-19.27c-.39,2.33.54,13.27,0,13.8-.68.68-17.23-.69-17.91-.01-.51.51.37,10.23,0,12.42h-19.27v15.17h37.17v-15.17h19.27v15.17h19.27c-.1,52.85.14,105.77,0,158.62-12.81.14-25.73.14-38.55,0-.11-4.12.08-8.3,0-12.42h-17.91v12.43c5.95.04,11.95-.07,17.9,0,.12,4.58-.09,9.22,0,13.8,12.83.09,25.73-.15,38.55,0-.05,8.72.04,17.49,0,26.21h-19.27v37.24h19.27v93.79h-19.27c-.05,4.58.08,9.21,0,13.79-3.76.02-36.92-1.05-37.19.79l.02,13.01c2.76.46,17.28-.65,17.91-.01s-.64,13.18-.01,13.81c.68.68,16.42,0,19.28,0-.05,21.59-.05,43.24,0,64.83-6.4.13-12.87-.1-19.27,0v26.21c6.4.1,12.87-.14,19.27,0,.04,13.77-.03,27.61,0,41.38h19.27v38.62h-56.44v13.79h37.17v26.21h-19.27v27.59h-37.17v12.41h37.17c.37,2.19-.52,11.91,0,12.42.68.68,16.23-.07,19.28,0-.05,17.45.04,34.96,0,52.41h-19.27c-.35-2.04.49-10.56,0-11.04-.63-.63-15.13.48-17.9,0v24.83h-19.27v-24.83h-17.9v-27.59h-37.17v13.8s17.9,0,17.9,0v24.83h-37.17v13.8c-68.79-.5-137.69.65-206.49,0-.14-8.25.1-16.57,0-24.83h-19.27c.11-9.17-.15-18.42,0-27.59,6.41-.06,12.87.04,19.28,0v-13.8h-19.28c-.05,4.58.08,9.21,0,13.79-6.4.06-12.87.07-19.27,0-.05-8.72.03-17.5,0-26.21h-17.9v26.21c5.95.05,11.95-.07,17.9,0,.07,12.84.21,25.79,0,38.62-5.95.05-11.95-.04-17.9,0-.03,4.58.05,9.21,0,13.8-18.78.2-37.65-.04-56.44,0-.05-4.58.03-9.21,0-13.79h-130.78v-24.83h-19.27v24.83h-53.69c-.69,0,.69,13.79,0,13.79h-39.92c-.69,0,.69-13.79,0-13.79h-74.34c-.55,0,.55-11.03,0-11.03h-19.27c-.55,0,.55,11.03,0,11.03h-37.17c-.35-2.04.49-10.56,0-11.04-.58-.58-13.91.44-16.53,0v-27.59h-19.27c-.16,12.85.21,25.77,0,38.62-9.62-.09-19.29.07-28.91,0V15.17c33.93-.05,67.94.06,101.87,0Z"/>
        <path class="cls-4" d="M701.67,0v15.17c25.22-.05,50.5.03,75.72,0V0s167.94,0,167.94,0v15.17c12.37-.04,24.8.02,37.18,0V0s75.71,0,75.71,0c.54,1.85-.76,15.17,0,15.17h37.17c.76,0-.54-13.33,0-15.17h188.6c.54,1.85-.76,15.17,0,15.17h111.51c.76,0-.54-13.33,0-15.17h112.88v31.73s17.9,0,17.9,0v37.24h-17.9v52.41c4.8.82,12.78-1.15,16.99-.02,1.46.39.79,2.69.91,2.78v171.04c-5.94.04-11.95-.07-17.9,0-.01,4.59.03,9.21,0,13.79-12.83-.14-25.72.1-38.55,0-.08-4.58.13-9.22,0-13.8-5.95-.06-11.95.04-17.9,0v-12.43h17.91c.07,4.12-.12,8.3,0,12.42,12.81.14,25.73.14,38.55,0,.14-52.85-.1-105.77,0-158.62h-19.27v-15.17h-19.27v15.17h-37.17v-15.17h19.27c.37-2.19-.52-11.91,0-12.42.68-.68,17.23.69,17.91.01.53-.53-.39-11.47,0-13.8h19.27v-38.62h19.27v-13.79h-19.27V15.17h-74.34v16.55h-75.71c-.35,2.04.49,10.56,0,11.04-.68.68-17.23-.69-17.91-.01-.53.53.39,11.47,0,13.8h-19.27v-24.83h-37.17V15.17h-151.43v27.59c-5.95.06-11.95-.09-17.9,0,.12,4.58-.08,9.21,0,13.79h-19.27v-13.8c6.4-.06,12.87.1,19.27,0-.09-3.66.07-7.37,0-11.03h-56.44V15.17h-37.17v16.55h-19.27v24.83h-17.9v-24.83h-19.27c-.83,0,0-14.44,0-16.55-50,.15-100.06-.11-150.06,0v16.56s-37.16,0-37.16,0v24.83h-16.52v-24.83h-39.92c-.83,0,0-14.44,0-16.55-33.93.06-67.94-.05-101.87,0V0h101.87Z"/>
        <path class="cls-6" d="M1508.37,729.65c.17-.17,2.37.62,2.78-.91,1.88-7.12-3.57-13.13,6.89-17.69,5.9-2.58,4.07,6.93,12.36,2.05v139.31h-930.59v-15.17h28.92c.05-4.58-.08-9.21,0-13.79,2.89.03,18.6-.69,19.28,0,.53.53-.39,11.47,0,13.8h129.4c.69,0-.69,13.79,0,13.79h74.34v-13.8c62.38-.07,124.83.12,187.22,0,.05,4.58-.03,9.21,0,13.79h56.44c.03-4.58-.05-9.21,0-13.79,5.95-.06,11.95.04,17.9,0,.05-4.58-.08-9.22,0-13.8,2.84-.03,18.6-.69,19.28,0,.63.63-.64,13.18-.01,13.81.68.68,16.39-.03,19.28,0,.08,4.58-.05,9.21,0,13.79h225.76c.69,0-.69-13.79,0-13.79h37.17c.69,0-.69,13.79,0,13.79h74.34c.69,0-.69-13.79,0-13.79h19.27v-66.21c-6.4-.1-12.87.13-19.27,0,.04-12.86-.02-25.77,0-38.63.83-.84,15.28.85,18.37.03,1.53-.41.74-2.61.91-2.78Z"/>
        <path class="cls-6" d="M1530.39,482.75v139.31c-3.76-.6-15.35,1.43-17.32-1.29-2.76-3.8,6.56-16.28-4.71-20.78-6.13-2.45-12.58-1.24-19.27-1.38-.02-8.72.02-17.49,0-26.21,6.68-.14,13.15,1.07,19.27-1.38.7-.28,2.48.83,2.81-.87.65-12.52-1.06-26.1-.1-38.49.27-3.47,2.55-5.68,2.75-8.29.11-1.52-1.51-15.49-5.46-14.43-.03-.46.05-.93,0-1.38-1.79-15.4-11.27-3.36-14.53-8.21-1.1-1.63-1.11-12.37-.01-13.95,1.76-2.53,30.68-.67,36.57-2.67Z"/>
        <path class="cls-8" d="M1530.39,124.14v358.62c-5.89,2-34.81.14-36.57,2.67-1.1,1.58-1.08,12.32.01,13.95,3.26,4.85,12.74-7.19,14.53,8.21h-19.27c.02-9.17-.15-18.42,0-27.59,12.37-.08,24.8.06,37.17,0v-118.62l-17.92-.79.02-13.01h17.9s0-38.61,0-38.61c-5.95-.05-11.95.07-17.9,0,.03-4.59-.01-9.21,0-13.79,5.95-.06,11.95.04,17.9,0V124.14c.46.35,3.07-.24,4.12,0Z"/>
        <path class="cls-6" d="M1508.37,0h22.03v124.14c-1.06-.24-3.66.35-4.13,0-.12-.09.55-2.39-.91-2.78-4.21-1.13-12.19.84-16.99.02v-52.41h17.9V31.72h-17.9s0-31.72,0-31.72Z"/>
        <path class="cls-6" d="M1395.49,0c-.54,1.85.76,15.17,0,15.17h-111.51c-.76,0,.54-13.33,0-15.17h111.51Z"/>
        <path class="cls-6" d="M777.39,0v15.18c-25.21.02-50.5-.05-75.71,0V0h75.71Z"/>
        <path class="cls-8" d="M1530.39,622.06v91.03c-8.29,4.88-6.46-4.63-12.36-2.05-10.45,4.56-5,10.57-6.89,17.69-.41,1.53-2.61.74-2.78.91v-23.46s17.9,0,17.9,0v-81.38h-17.9s0-24.83,0-24.83c11.26,4.5,1.95,16.98,4.71,20.78,1.97,2.72,13.56.69,17.32,1.29Z"/>
        <path class="cls-6" d="M982.5,0v15.18c-12.36.02-24.8-.04-37.17,0V0h37.17Z"/>
        <path class="cls-8" d="M1095.38,0c-.54,1.85.76,15.17,0,15.17h-37.17c-.76,0,.54-13.33,0-15.17h37.17Z"/>
        <path class="cls-7" d="M628.71,823.44c-.08,4.58.06,9.22,0,13.8h-28.92v-13.8c9.62.07,19.29-.09,28.91,0Z"/>
        <path class="cls-2" d="M1508.37,599.99v24.83s17.9,0,17.9,0v81.38h-17.9s0,23.45,0,23.45c-.17.17.62,2.38-.91,2.78-3.09.82-17.53-.87-18.37-.03-.01,12.86.04,25.77,0,38.63,6.4.13,12.87-.1,19.27,0v66.21h-19.27c-.69,0,.69,13.79,0,13.79h-74.34c-.69,0,.69-13.79,0-13.79h-37.17c-.69,0,.69,13.79,0,13.79h-225.76c-.05-4.58.08-9.21,0-13.79,68.8.65,137.7-.5,206.5,0v-13.8s37.16,0,37.16,0v-24.83h-17.9s0-13.79,0-13.79h37.17v27.59h17.9v24.83h19.27v-24.83c2.77.47,17.27-.64,17.9,0,.48.48-.35,9,0,11.04h19.27c.04-17.45-.05-34.96,0-52.41-3.05-.06-18.6.69-19.28,0-.51-.51.37-10.23,0-12.42h-37.17v-12.41h37.17v-27.59h19.27v-26.21h-37.17v-13.79h56.44v-38.62h-19.27c-.03-13.77.04-27.61,0-41.38,6.69.14,13.15-1.07,19.27,1.38Z"/>
        <path class="cls-4" d="M628.71,823.44c.21-12.85-.16-25.77,0-38.62h19.27v27.59c2.61.43,15.94-.59,16.53,0,.48.49-.35,9,0,11.04h37.17c.55,0-.55-11.03,0-11.03h19.27c.55,0-.55,11.03,0,11.03h74.34c.69,0-.69,13.79,0,13.79h39.92c.69,0-.69-13.79,0-13.79h53.69v-24.83h19.27v24.83h130.78c.03,4.58-.05,9.21,0,13.79-62.39.12-124.84-.08-187.23,0v13.8s-74.33,0-74.33,0c-.69,0,.69-13.79,0-13.79h-129.4c-.39-2.33.54-13.27,0-13.8-.68-.68-16.39.03-19.28,0Z"/>
        <path class="cls-7" d="M1508.37,308.96c5.95.07,11.95-.05,17.9,0v38.62h-17.9s-.02,13-.02,13l17.92.79v118.62c-12.37.06-24.8-.08-37.17,0,.08-4.58-.05-9.21,0-13.79h19.27v-93.79h-19.27v-37.24h19.27c.04-8.72-.05-17.49,0-26.21Z"/>
        <path class="cls-7" d="M1508.37,507.58c.05.45-.03.92,0,1.38,1.44,20.09-1.07,41.79,0,62.07-6.12,2.45-12.59,1.24-19.27,1.38-.05-21.59-.05-43.24,0-64.83h19.27Z"/>
        <path class="cls-4" d="M1113.28,784.82c-5.95-.07-11.95.05-17.9,0v-26.21h17.9c.02,8.71-.06,17.49,0,26.21,6.4.07,12.87.06,19.27,0,.08-4.58-.05-9.21,0-13.79h19.27v13.8c-6.4.04-12.87-.07-19.27,0-.15,9.17.11,18.41,0,27.59h19.27c.1,8.25-.14,16.58,0,24.83-2.89-.03-18.6.69-19.28,0-.63-.63.64-13.18.01-13.81-.68-.68-16.44-.02-19.28,0,.21-12.83.07-25.78,0-38.62Z"/>
        <path class="cls-4" d="M1489.1,480c-.15,9.17.02,18.42,0,27.59-2.86,0-18.6.69-19.28,0-.63-.63.64-13.18.01-13.81s-15.15.48-17.91.01l-.02-13.01c.28-1.84,33.43-.77,37.19-.79Z"/>
        <path class="cls-7" d="M1113.28,823.44c-.08,4.58.06,9.22,0,13.8-5.95.04-11.95-.07-17.9,0-.05,4.58.03,9.21,0,13.79h-56.44c-.03-4.58.05-9.21,0-13.79,18.79-.04,37.66.2,56.44,0,.05-4.59-.03-9.22,0-13.8,5.95-.03,11.95.06,17.9,0Z"/>
        <path class="cls-4" d="M1489.1,572.41c.02,8.72-.02,17.49,0,26.21-6.4-.14-12.87.1-19.27,0v-26.21c6.4-.1,12.87.13,19.27,0Z"/>
        <path class="cls-8" d="M1508.37,508.96c3.95-1.07,5.57,12.91,5.46,14.43-.2,2.61-2.48,4.82-2.75,8.29-.95,12.38.75,25.96.1,38.49-.33,1.69-2.11.59-2.81.87-1.07-20.27,1.44-41.97,0-62.07Z"/>
      </g>
    </g>
  </g>
</svg>