<?xml version="1.0" encoding="UTF-8"?>
<svg id="_Слой_2" data-name="Слой 2" xmlns="http://www.w3.org/2000/svg" viewBox="0 0 133.86 240.33">
  <defs>
    <style>
      .cls-1 {
        fill: #fefdf8;
      }

      .cls-2 {
        fill: #98876d;
      }

      .cls-3 {
        fill: #98876c;
      }

      .cls-4 {
        fill: #99876c;
      }

      .cls-5 {
        fill: #97876d;
      }

      .cls-6 {
        fill: #fefefc;
      }

      .cls-7 {
        fill: #98876e;
      }

      .cls-8 {
        fill: #fefdf7;
      }

      .cls-9 {
        fill: #d6bd96;
      }

      .cls-10 {
        fill: #9a8769;
      }

      .cls-11 {
        fill: #fefdfb;
      }

      .cls-12 {
        fill: #99876b;
      }

      .cls-13 {
        fill: #fdfdfa;
      }

      .cls-14 {
        fill: #fefefb;
      }
    </style>
  </defs>
  <g id="_Слой_1-2" data-name="Слой 1">
    <g>
      <g>
        <path class="cls-4" d="M131.3,96.98c.01,1.93,0,3.88,0,5.81h2.45s0,11.93,0,11.93l-2.45.18v5.64s2.45,0,2.45,0v29.67h-2.45s0,17.26,0,17.26l2.45.18v17.74c-.73.13-4.72-.17-4.9,0-.11.11.08,2.27,0,2.75h-5.81c-.14,0,.14-2.75,0-2.75h-8.26c-.14,0,.24,2.7-.18,2.76h-27.05c-.01-.92.02-1.84,0-2.76,8.26.04,16.53-.03,24.78,0,.09-.52-.12-2.94,0-3.06.13-.13,2.32.13,2.45,0,.12-.12-.09-2.39,0-2.88-.06-.41-2.45-.05-2.45-.18v-5.81h2.45c.09.51-.12,2.94,0,3.06s1.72-.12,1.84,0c.13.13-.14,2.62,0,2.76.13.12,2.02-.13,2.14,0,.12.12-.09,2.54,0,3.06h6.12c.15,0-.25,3,.18,3.06h1.97s0-3.06,0-3.06h4.28v-11.62c0-.12-2.45.12-2.45,0v-11.93c-3.17.84-1.28-2.2-1.83-2.75-.13-.12-2.02.13-2.14,0-.12-.12.09-2.39,0-2.88l3.98-.18v-5.81c0-.12,2.45.12,2.45,0v-23.86h-4.28c-.02-.91.03-1.84,0-2.75.61,0,1.23,0,1.84,0,.24-1.17-.32-8.56,0-8.87.11-.11,2,.08,2.45,0v-5.81c-.45-.08-2.34.11-2.45,0-.14-.14.14-2.92,0-3.06s-3.37.11-3.98,0v-2.58c.07-.46,3.78.03,3.98-.17.14-.14-.14-2.93,0-3.06.09-.09,2.01,0,2.45,0Z"/>
        <path class="cls-2" d="M2.51,129.4c-.18,10.8.13,21.63,0,32.43h2.14s0,5.81,0,5.81c.62-.1,3.84.14,3.98,0,.12-.11-.09-2.27,0-2.76h2.14v5.81h-4.28c-.08.49.11,2.64,0,2.75-.14.14-3.37-.11-3.98,0v3.06s3.98,0,3.98,0c-.08.48.11,2.65,0,2.76-.12.12-1.72-.12-1.84,0s.08,2.55,0,3.06c2.75,0,5.51-.02,8.26,0-.01,1.02,0,2.04,0,3.06H2.51v-3.06s-2.14,0-2.14,0v-11.62l2.15-.18v-5.64s-2.15,0-2.15,0v-35.49h2.14Z"/>
        <path class="cls-6" d="M.37,182.33h2.14s0,3.06,0,3.06h10.4c0-1.02-.01-2.04,0-3.06.88,0,5.9-.22,6.12,0,.14.14-.14,2.92,0,3.06.15.15,3.83-.15,3.98,0,.11.11-.08,2.27,0,2.75h12.85c.08-.49-.11-2.64,0-2.75.14-.14,3.37.11,3.98,0,0-1.02-.01-2.04,0-3.06,1.42,0,2.86,0,4.28,0,.01,1.02,0,2.04,0,3.06,2.24-.03,4.49.04,6.73,0-.25,1.23,2.69,1.08,2.45,0,.3-.02.65.05.92,0,1.91-.35.98-2.2,1.22-2.45.07-.08,1.88-.06,2.16.14.51.35.26,2.63.29,3.4.02.59-.31,1.23.61,1.06v1.22H.37v-6.42Z"/>
        <path class="cls-3" d="M4.65,47.11c2.03.06,4.09-.04,6.12,0v3.06h-4.28c-.12,2.11.82,3.16-1.84,2.75v5.81c2.71-.43,1.68.77,1.84,2.88-.06.39-1.84.08-1.84.18v11.62c0,.11-2.14-.11-2.14,0v6.12c0,.11,2.14-.11,2.14,0v8.57h3.98s0,3.06,0,3.06h-3.98s0,20.5,0,20.5c-.71,0-1.43,0-2.14,0-.04-9.78.03-19.59,0-29.37H.37s0-11.62,0-11.62h2.14s0-20.5,0-20.5c.42-.07,2.04.11,2.14,0s0-2.56,0-3.06Z"/>
        <path class="cls-12" d="M133.75,11.62v14.68l-2.45.18v8.7s2.45,0,2.45,0v23.56c-.81,0-1.63,0-2.45,0,.01,3.97,0,7.96,0,11.93h2.45s0,26.31,0,26.31c-.81,0-1.63,0-2.45,0-.05-7.85.03-15.71,0-23.56h-2.45s0-5.81,0-5.81h-3.98s0-2.75,0-2.75h3.98s0-6.12,0-6.12c.81,0,1.64,0,2.45,0-.02-6.93.02-13.87,0-20.8h-2.45s0-5.81,0-5.81h-3.98s0-2.58,0-2.58l3.98-.18v-6.12c.45-.08,2.34.11,2.45,0,.41-.41-.03-10.02,0-11.63h2.45Z"/>
        <path class="cls-3" d="M101.93,0v2.75c-4.18.01-8.37,0-12.54,0v6.12h-1.84V2.75h-8.26c-.09.52.12,2.94,0,3.06-.15.15-3.83-.15-3.98,0-.12.12.09,2.54,0,3.06h-4.28c0-1.02.01-2.04,0-3.06.35,0,1.77.07,1.84,0,.14-.13-.14-2.93,0-3.06.15-.15,3.64.11,4.29,0V0s24.78,0,24.78,0Z"/>
        <path class="cls-11" d="M35.86,0v2.75s-8.57,0-8.57,0c-.01,1.02.02,2.04,0,3.06-1.42,0-2.86,0-4.28,0,0-1.02,0-2.04,0-3.06-6.11.13-12.25-.17-18.36,0,0-.92,0-1.84,0-2.75h31.2Z"/>
        <path class="cls-1" d="M58.49,188.14h18.66s0-2.75,0-2.75h1.97c.45.06,0,2.58.17,2.76.22.22,5.27-.17,6.12,0,.01-.91-.02-1.84,0-2.75.71,0,1.43,0,2.14,0,.02.91-.01,1.84,0,2.75h27.05c.42-.06.04-2.75.18-2.75h8.26c.14,0-.14,2.75,0,2.75h5.81c.08-.49-.11-2.64,0-2.75.17-.17,4.17.13,4.9,0v3.37H58.49v-.61Z"/>
        <path class="cls-6" d="M.37,32.12h2.14s0,14.99,0,14.99c.71.01,1.43-.02,2.14,0,0,.5.11,2.95,0,3.06s-1.73-.08-2.14,0v20.5s-2.14,0-2.14,0v-38.55Z"/>
        <path class="cls-5" d="M2.51,17.44c0,1.61-.42,11.51,0,11.93.11.11,1.73-.08,2.14,0-.08,5.91.1,11.84,0,17.74-.71-.02-1.43.02-2.14,0v-14.99s-2.14,0-2.14,0v-14.68c.71,0,1.43,0,2.14,0Z"/>
        <path class="cls-14" d="M127.02,0v2.75c-8.35-.08-16.73-.03-25.09,0V0h25.09Z"/>
        <path class="cls-6" d="M.37,82.29h2.14c.02,9.78-.04,19.58,0,29.37-.71,0-1.43,0-2.14,0v-29.37Z"/>
        <path class="cls-3" d="M4.65,0c0,.92,0,1.84,0,2.75-.71.02-1.43-.02-2.14,0,.17.86-.22,5.91,0,6.12.12.12,2.02-.13,2.14,0,.13.13-.14,2.62,0,2.76s3.37-.11,3.98,0v3.06c-.61.1-3.84-.14-3.98,0-.13.13.14,2.63,0,2.76-.08.07-1.75,0-2.14,0-.01-1.93,0-3.88,0-5.81H.37S.37,0,.37,0h4.28Z"/>
        <path class="cls-7" d="M41.67,0c0,.92,0,1.84,0,2.75.81.02,1.64-.01,2.45,0,0,1.02-.01,2.04,0,3.06-.81-.02-1.64.02-2.45,0,0-1.02,0-2.04,0-3.06-.59-.01-3.84-.14-3.98,0s.14,2.92,0,3.06c-.37.37-9.01,0-10.4,0,.02-1.02-.01-2.04,0-3.06h8.57s0-2.75,0-2.75h5.81Z"/>
        <path class="cls-3" d="M127.02,0h6.73v8.87h-2.45c-.01.91.02,1.84,0,2.75-.37,0-2.45.12-2.45,0v-5.81c.45-.08,2.34.11,2.45,0,.12-.12-.09-2.55,0-3.06-1.42,0-2.86.02-4.28,0,0,.43.15,3.06,0,3.06h-12.24v5.81h-2.45v-5.81h-10.4c-.15,0,0-2.63,0-3.06,8.35-.03,16.73-.08,25.09,0V0Z"/>
        <polygon class="cls-11" points="133.75 150.21 133.75 167.64 131.3 167.47 131.3 150.21 133.75 150.21"/>
        <path class="cls-3" d="M58.49,0v2.75c.71-.02,1.43.02,2.14,0V0s8.26,0,8.26,0c0,.92,0,1.84,0,2.75-.85-.02-6.2-.23-6.43,0-.14.14.14,2.93,0,3.06-.12.12-1.72-.12-1.84,0-.14.13.14,2.93,0,3.06-.08.07-1.74-.01-2.14,0-.01-2.04,0-4.08,0-6.12-1.47.04-10.03-.37-10.4,0-.14.14.14,2.93,0,3.06-.08.07-1.74-.01-2.14,0,.03-1.93-.02-3.88,0-5.81h12.54Z"/>
        <path class="cls-11" d="M133.75,58.74v11.93h-2.45c0-3.97.02-7.96,0-11.93.81,0,1.63,0,2.45,0Z"/>
        <path class="cls-13" d="M77.15,0v2.75c-.65.11-4.13-.15-4.28,0-.14.14.14,2.93,0,3.06-.07.06-1.48,0-1.84,0-.01-1.02,0-2.04,0-3.06-.71-.01-1.43.02-2.14,0,0-.92,0-1.84,0-2.75h8.26Z"/>
        <path class="cls-1" d="M2.51,120.53c.02.91-.01,1.84,0,2.75.71.01,1.43-.02,2.14,0,0,.48.11,2.95,0,3.06-.13.12-2.02-.13-2.14,0-.11.11,0,2.56,0,3.06H.37v-8.87c.71,0,1.43,0,2.14,0Z"/>
        <polygon class="cls-11" points="133.75 26.31 133.75 35.18 131.3 35.18 131.3 26.49 133.75 26.31"/>
        <path class="cls-7" d="M2.51,111.66c.01,2.95-.06,5.92,0,8.87h2.14c.01.91-.02,1.84,0,2.75-.71-.02-1.43.02-2.14,0-.01-.91.02-1.84,0-2.75-.71,0-1.43,0-2.14,0v-8.87c.71,0,1.43,0,2.14,0Z"/>
        <path class="cls-13" d="M45.95,0c-.02,1.93.03,3.88,0,5.81-.61.02-1.23.02-1.84,0,0-1.02,0-2.04,0-3.06-.81-.01-1.64.02-2.45,0,0-.92,0-1.84,0-2.75h4.28Z"/>
        <path class="cls-13" d="M133.75,96.98v5.81h-2.45c0-1.93.01-3.88,0-5.81.81,0,1.63,0,2.45,0Z"/>
        <polygon class="cls-1" points="133.75 114.72 133.75 120.53 131.3 120.53 131.3 114.9 133.75 114.72"/>
        <polygon class="cls-13" points=".37 164.89 2.51 164.89 2.52 170.53 .37 170.7 .37 164.89"/>
        <path class="cls-14" d="M.37,11.62h2.14c0,1.93-.01,3.88,0,5.81-.71,0-1.43,0-2.14,0v-5.81Z"/>
        <path class="cls-1" d="M133.75,8.87v2.75h-2.45c.02-.91-.01-1.84,0-2.75h2.45Z"/>
        <path class="cls-1" d="M60.64,0v2.75c-.71.01-1.43-.02-2.14,0V0h2.14Z"/>
        <path class="cls-9" d="M4.65,2.75c0,1.02,0,2.04,0,3.06,6.11-.01,12.24.01,18.36,0,0,.5-.11,2.95,0,3.06s1.73-.07,2.14,0v5.81h2.14c.03-2.95-.05-5.92,0-8.87,1.39,0,10.03.37,10.4,0,.14-.14-.14-2.92,0-3.06s3.39-.01,3.98,0c0,1.02,0,2.04,0,3.06.81.01,1.64-.02,2.45,0,0,.53-.15,3.02.18,3.06h1.66c.01-1.02-.02-2.05,0-3.06.4-.01,2.07.08,2.14,0,.14-.13-.14-2.92,0-3.06.37-.37,8.93.04,10.4,0,0,2.04-.01,4.08,0,6.12-1.42.04-2.86-.03-4.28,0v2.58c.05.33,3.66.16,4.28.18.02,1.02-.01,2.04,0,3.06h2.14s0-3.06,0-3.06c-.71-.01-1.43.02-2.14,0-.02-.92,0-1.84,0-2.75.4-.01,2.07.08,2.14,0,.14-.13-.14-2.93,0-3.06.12-.12,1.72.12,1.84,0,.14-.14-.14-2.92,0-3.06.23-.23,5.57-.02,6.43,0,0,1.02,0,2.04,0,3.06.71,0,1.43,0,2.14,0,.01,1.02,0,2.04,0,3.06h4.28c.09-.52-.12-2.94,0-3.06.15-.15,3.83.15,3.98,0,.12-.12-.09-2.54,0-3.06h8.26v6.12h1.84V2.75c4.18,0,8.37.01,12.54,0,0,.43-.15,3.06,0,3.06h10.4v5.81h2.45v-5.81h12.24c.15,0,0-2.63,0-3.06,1.42.01,2.86,0,4.28,0-.09.52.12,2.95,0,3.06-.11.11-2-.08-2.45,0v5.81c0,.12,2.07,0,2.45,0-.03,1.61.41,11.22,0,11.63-.11.11-2-.08-2.45,0v6.12l-3.98.18v2.58s3.98,0,3.98,0v5.81h2.45c.02,6.93-.03,13.87,0,20.8-.81,0-1.64,0-2.45,0v6.12s-3.98,0-3.98,0v2.76s3.98,0,3.98,0v5.81h2.45c.03,7.85-.05,15.71,0,23.56-.44,0-2.36-.09-2.45,0-.14.14.14,2.92,0,3.06-.2.2-3.91-.29-3.98.17v2.58c.62.1,3.84-.14,3.98,0s-.14,2.92,0,3.06c.11.11,2-.08,2.45,0v5.81c-.45.08-2.34-.11-2.45,0-.31.31.24,7.71,0,8.87-.61,0-1.23,0-1.84,0-.03-1.02.02-2.04,0-3.06h-2.14s0,3.06,0,3.06c.71,0,1.43,0,2.14,0,.02.91-.02,1.84,0,2.75h4.28s0,23.86,0,23.86c0,.12-2.45-.12-2.45,0v5.81l-3.98.18c.1.5-.11,2.77,0,2.88.13.12,2.02-.13,2.14,0,.56.56-1.33,3.6,1.83,2.75v11.93c0,.12,2.45-.12,2.45,0v11.62h-4.28v3.06s-1.97,0-1.97,0c-.43-.06-.02-3.06-.18-3.06h-6.12c-.09-.52.12-2.94,0-3.06-.13-.12-2.02.13-2.14,0-.13-.13.14-2.63,0-2.76-.12-.12-1.72.12-1.84,0s.09-2.55,0-3.06h-2.45v5.81c0,.12,2.39-.23,2.45.18-.1.5.11,2.77,0,2.88-.13.13-2.32-.13-2.45,0-.12.12.09,2.54,0,3.06-8.26-.03-16.53.04-24.78,0-.04-2.03-.04-4.09,0-6.12.61-.03,1.23.02,1.84,0v-2.76s-1.84,0-1.84,0c-.01.91.02,1.84,0,2.75-.71.04-1.43-.03-2.14,0-.03,2.03.04,4.09,0,6.12-.64,0-4.13.15-4.28,0-.12-.12.09-2.54,0-3.06h-5.81c-.15,0,.15,3.06,0,3.06h-14.68c-.08-.51.12-2.95,0-3.06-.08-.07-1.74.01-2.14,0-.01-1.93,0-3.88,0-5.81h-1.97c-.45.06,0,2.58-.17,2.76-.13.12-2.02-.13-2.14,0-.11.11,0,2.57,0,3.06-3.36-.02-6.74-.01-10.1,0-.01-1.02,0-2.04,0-3.06h-4.28c0,1.02.01,2.04,0,3.06-.92,0-6.2-.23-6.43,0-.12.12.09,2.54,0,3.06h-6.12v-8.87h-2.14v5.81c-.62-.1-3.84.14-3.98,0-.12-.12.09-2.54,0-3.06h-4.28v-5.81h-2.14v5.81c-.38.07-1.74-.1-1.84,0-.11.11,0,2.56,0,3.06-2.75-.01-5.51,0-8.26,0,.08-.52-.11-2.95,0-3.06.12-.12,1.72.12,1.84,0,.11-.11-.08-2.27,0-2.76h-3.98s0-3.06,0-3.06c.61-.1,3.84.14,3.98,0,.11-.11-.08-2.27,0-2.75h4.28v-5.81h-2.14c-.08.48.12,2.64,0,2.75-.14.14-3.36-.11-3.98,0v-5.81h-2.14c.14-10.8-.18-21.63,0-32.43.6,0,3.84.14,3.98,0s-.14-2.92,0-3.06c.15-.15,3.67-.02,4.28,0,.02,1.02-.01,2.04,0,3.06h2.14s0-3.06,0-3.06c-.71-.01-1.43.02-2.14,0-.02-1.01-.02-2.05,0-3.06,1.32-.01,2.66,0,3.98,0v-2.76h-3.98c-.01.91.02,1.84,0,2.75-2.03.02-4.09.06-6.12,0-.02-.92.01-1.84,0-2.75h-2.14c-.06-2.95.01-5.92,0-8.87.71,0,1.43,0,2.14,0v-20.5s3.98,0,3.98,0v-3.06s-3.98,0-3.98,0v-8.57c0-.11-2.14.11-2.14,0v-6.12c0-.11,2.14.11,2.14,0v-11.62c0-.1,1.78.22,1.84-.18-.16-2.11.87-3.32-1.84-2.88v-5.81c2.66.4,1.71-.64,1.84-2.75h4.28v-3.06c-2.03-.04-4.09.06-6.12,0,.1-5.91-.07-11.84,0-17.74-.42-.07-2.04.11-2.14,0-.42-.42.01-10.32,0-11.93.39,0,2.07.08,2.14,0,.13-.13-.14-2.62,0-2.76.14-.14,3.37.11,3.98,0v-3.06c-.61-.1-3.84.14-3.98,0s.14-2.62,0-2.76c-.13-.12-2.02.13-2.14,0-.22-.22.17-5.27,0-6.12.71-.01,1.43.02,2.14,0Z"/>
        <path class="cls-4" d="M12.91,182.33c0-.5-.11-2.95,0-3.06.1-.1,1.46.07,1.84,0v-5.81h2.14v5.81h4.28c.09.52-.12,2.94,0,3.06.14.14,3.36-.11,3.98,0v-5.81h2.14v8.87h6.12c.09-.52-.12-2.94,0-3.06.23-.23,5.51,0,6.43,0-.01,1.02,0,2.04,0,3.06-.61.1-3.84-.14-3.98,0-.11.11.08,2.27,0,2.75h-12.85c-.08-.49.11-2.64,0-2.75-.15-.15-3.83.15-3.98,0-.14-.14.14-2.92,0-3.06-.22-.22-5.24,0-6.12,0Z"/>
        <path class="cls-7" d="M58.49,182.33c.4.01,2.07-.08,2.14,0,.11.11-.08,2.55,0,3.06h14.68c.15,0-.15-3.06,0-3.06h5.81c.09.52-.12,2.94,0,3.06.15.15,3.64,0,4.28,0-.02.91.01,1.84,0,2.75-.86-.17-5.9.22-6.12,0-.18-.18.28-2.69-.17-2.76h-1.97s0,2.76,0,2.76h-18.66v-.61c0-1.73.01-3.47,0-5.2Z"/>
        <path class="cls-7" d="M54.21,182.33c0,1.02,0,2.04,0,3.06-.27.05-.62-.02-.92,0-.81.05-1.64-.01-2.45,0-2.24.04-4.49-.03-6.73,0,0-1.02.01-2.04,0-3.06,3.36-.01,6.74-.02,10.1,0Z"/>
        <path class="cls-12" d="M39.83,182.33c.01-1.02,0-2.04,0-3.06h4.28c0,1.02-.01,2.04,0,3.06-1.42,0-2.86,0-4.28,0Z"/>
        <path class="cls-1" d="M58.49,182.33c.01,1.73,0,3.47,0,5.2-.92.17-.59-.47-.61-1.06-.02-.77.22-3.05-.29-3.4-.28-.19-2.09-.21-2.16-.14-.24.25.69,2.1-1.22,2.45,0-1.02,0-2.04,0-3.06,1.42,0,2.86-.04,4.28,0Z"/>
        <path class="cls-1" d="M53.29,185.39c.24,1.08-2.7,1.23-2.45,0,.81-.01,1.64.05,2.45,0Z"/>
        <path class="cls-5" d="M4.65,2.75c6.1-.17,12.25.13,18.36,0,0,1.02-.01,2.04,0,3.06-6.11.01-12.24-.01-18.36,0,0-1.02,0-2.04,0-3.06Z"/>
        <path class="cls-12" d="M27.29,5.81c-.05,2.95.03,5.92,0,8.87h-2.14v-5.81c-.42-.07-2.04.1-2.14,0-.11-.11,0-2.56,0-3.06,1.42,0,2.86,0,4.28,0Z"/>
        <path class="cls-10" d="M87.56,179.27c.02-.91-.01-1.84,0-2.75h1.84s0,2.76,0,2.76c-.61.02-1.23-.03-1.84,0-.04,2.03-.04,4.09,0,6.12-.71,0-1.43,0-2.14,0,.04-2.03-.03-4.09,0-6.12.71-.03,1.43.04,2.14,0Z"/>
        <path class="cls-7" d="M68.89,2.75c.71.02,1.43-.02,2.14,0,0,1.02-.01,2.04,0,3.06-.71,0-1.43,0-2.14,0,0-1.02,0-2.04,0-3.06Z"/>
        <path class="cls-12" d="M10.77,123.29c-.02,1.01-.02,2.05,0,3.06-.62-.02-4.13-.15-4.28,0-.14.14.14,2.92,0,3.06s-3.38,0-3.98,0c0-.5-.11-2.95,0-3.06.13-.12,2.02.13,2.14,0,.11-.11,0-2.58,0-3.06,2.03.06,4.09.02,6.12,0Z"/>
        <path class="cls-10" d="M45.95,5.81c-.02,1.02.01,2.04,0,3.06h-1.66c-.32-.04-.17-2.53-.18-3.06.61.02,1.23.02,1.84,0Z"/>
        <path class="cls-12" d="M54.21,182.33c0-.49-.11-2.95,0-3.06.13-.12,2.02.13,2.14,0,.18-.18-.28-2.69.17-2.76h1.97c0,1.94-.01,3.88,0,5.82-1.42-.04-2.86,0-4.28,0Z"/>
        <path class="cls-10" d="M58.49,8.87c0,.92-.02,1.84,0,2.75.71.02,1.43-.02,2.14,0v3.06s-2.14,0-2.14,0c-.01-1.02.02-2.04,0-3.06-.62-.02-4.24.15-4.29-.18v-2.58c1.43-.03,2.87.04,4.29,0Z"/>
        <path class="cls-10" d="M10.77,123.29c.02-.91-.01-1.84,0-2.75h3.98v2.76c-1.32,0-2.66-.02-3.98,0Z"/>
        <path class="cls-10" d="M127.02,120.53c-.71,0-1.43,0-2.14,0v-3.06s2.14,0,2.14,0c.02,1.02-.03,2.04,0,3.06Z"/>
        <path class="cls-10" d="M10.77,126.35c.71.02,1.43-.02,2.14,0v3.06s-2.14,0-2.14,0c-.01-1.02.02-2.04,0-3.06Z"/>
      </g>
      <g>
        <path class="cls-9" d="M131.48,110.19c-.33,0-2.6-.13-2.6,0v6.27h-3.9v2.59h3.9v5.84h2.6c.02,7.85-.02,15.71,0,23.56-.33,0-2.6-.13-2.6,0v3.03h-3.9v2.81h3.9v3.03h2.6v5.84h-2.6v8.86c-.58.01-1.16-.01-1.73,0-.01-1.01.01-2.02,0-3.03h-2.17v3.03c.72-.01,1.45.02,2.17,0,.01.93,0,1.88,0,2.81h4.33v23.78h-2.6v5.84h-3.9v3.03c.37.06,2.08-.08,2.17,0,.11.11-.11,2.71,0,2.81.08.08,1.41-.06,1.73,0v11.89h2.6v11.67h-4.33v3.03h-2.17v-3.03h-6.06v-3.03c-.37-.06-2.08.08-2.17,0-.11-.11.11-2.71,0-2.81-.08-.08-1.61.06-1.95,0v-3.03h-2.38v5.84h2.38v3.03h-2.38v3.03c-8.3-.02-16.61.02-24.91,0-.02-2.01-.02-4.04,0-6.05.65-.02,1.3.01,1.95,0v-2.81h-1.95c0,.93.01,1.88,0,2.81-.72.02-1.45-.01-2.17,0-.01,2.01.02,4.04,0,6.05-1.37,0-2.75,0-4.12,0v-3.03h-5.85v3.03h-14.73v-3.03c-.72,0-1.45.01-2.17,0,0-.59.16-5.8-.12-5.84h-2.04c-.07.44.1,2.72,0,2.82s-2.07-.1-2.17,0c-.11.11,0,2.58,0,3.03-3.39,0-6.79,0-10.18,0-.02-1.01.01-2.02,0-3.03h-4.12c-.02,1.01.02,2.02,0,3.03-2.16,0-4.34,0-6.5,0v3.03h-6.06v-8.86h-2.17v5.84h-4.12v-3.03h-4.33v-5.84h-1.95v5.84c-.34.06-1.87-.08-1.95,0-.11.11.01,2.55,0,3.03-2.74,0-5.49,0-8.23,0v-3.03c.32-.05,1.66.08,1.73,0,.1-.1-.07-2.38,0-2.81h-3.9v-3.03h3.9v-2.81h4.33v-5.84h-2.17s0,2.81,0,2.81h-3.9v-5.84h-2.17c.08-10.8-.1-21.62,0-32.43,1.3-.02,2.6.02,3.9,0v-3.03c1.44.02,2.89-.02,4.33,0,.01,1.01,0,2.02,0,3.03h2.17v-3.03c-.72,0-1.45.01-2.17,0-.01-1.01-.01-2.02,0-3.03,1.37,0,2.75,0,4.12,0v-2.81h-4.12c0,.93.01,1.88,0,2.81-2.02.01-4.05.03-6.06,0,0-.93,0-1.88,0-2.81-.72,0-1.45,0-2.17,0-.03-2.95,0-5.91,0-8.86.72,0,1.45,0,2.17,0v-20.54h3.9v-3.03h-3.9v-8.43c0-.11-2.17.11-2.17,0v-6.27c0-.11,2.17.11,2.17,0v-11.67c0-.09,1.73.09,1.73,0v-3.03c0-.09-1.73.09-1.73,0v-5.84c.32-.05,1.66.08,1.73,0,.09-.09-.07-2.18,0-2.6h4.33v-3.03c-2.02-.02-4.05.03-6.06,0,.01-1.51-.01-3.03,0-4.54h126.93c0,5.33,0,10.67,0,16Z"/>
        <path class="cls-4" d="M133.86,110.19h-2.38c0,3.96,0,7.93,0,11.89h2.38s0,26.37,0,26.37h-2.38c0,1.94,0,3.9,0,5.84h2.38s0,11.89,0,11.89c-.29.09-2.38-.12-2.38,0v5.84c0,.12,2.09-.09,2.38,0v29.62c-.29.09-2.38-.12-2.38,0v17.51c0,.12,2.09-.09,2.38,0v17.73h-4.98s0,2.81,0,2.81h-5.85v-2.81h-8.23c-.13.75.18,2.01,0,2.67-.06.23-.42.12-.44.14h-26.86c0-.93.01-1.88,0-2.81-.72,0-1.45,0-2.17,0,.02-2.01-.02-4.04,0-6.05.72-.01,1.45.02,2.17,0,.01-.93,0-1.88,0-2.81h1.95v2.81c-.65.01-1.3-.02-1.95,0-.02,2.01-.02,4.04,0,6.05,8.3.02,16.61-.02,24.91,0v-3.03h2.38v-3.03h-2.38v-5.84h2.38v3.03c.34.06,1.87-.08,1.95,0,.11.11-.11,2.71,0,2.81.08.08,1.8-.06,2.17,0v3.03h6.06v3.03h2.17v-3.03h4.33v-11.67h-2.6v-11.89c-.32-.05-1.66.08-1.73,0-.11-.11.11-2.71,0-2.81-.08-.08-1.8.06-2.17,0v-3.03h3.9v-5.84h2.6v-23.78h-4.33c0-.93.01-1.88,0-2.81-.72.02-1.45-.01-2.17,0v-3.03h2.17c0,1-.02,2.02,0,3.03.58-.01,1.16.01,1.73,0v-8.86h2.6v-5.84h-2.6v-3.03h-3.9v-2.81h3.9v-3.03c0-.13,2.27,0,2.6,0-.02-7.85.02-15.71,0-23.56h-2.6s0-5.84,0-5.84h-3.9v-2.59h3.9v-6.27c0-.13,2.27,0,2.6,0,0-5.33,0-10.67,0-16h2.38v16Z"/>
        <path class="cls-6" d="M19.28,236.87s-.1.37.14.44c1.12.3,2.06-.56,2.78,1.08.4.93-1.09.64-.32,1.94H0V94.19h2.38v4.54c.72,0,1.45-.01,2.17,0,0,.45.11,2.92,0,3.03-.08.08-1.8-.06-2.17,0v20.32c0,.11-2.17-.11-2.17,0v11.67h2.17c.01,9.8-.02,19.6,0,29.4-.72,0-1.45,0-2.17,0v8.86c.72,0,1.45,0,2.17,0,.01.93,0,1.88,0,2.81.72,0,1.45-.01,2.17,0,0,.45.11,2.92,0,3.03-.1.1-2.07-.1-2.17,0-.11.11,0,2.57,0,3.03-.72.01-1.45,0-2.17,0v35.45c0,.11,2.17-.11,2.17,0v5.84c0,.11-2.17-.11-2.17,0v11.67c0,.11,2.17-.11,2.17,0v3.03h10.4c.02-1.01-.02-2.02,0-3.03,2.02,0,4.05,0,6.07,0,.13.13-.13,2.4,0,2.88.06.24.41.12.44.14Z"/>
        <path class="cls-6" d="M58.05,240.33h-21.88c.09-.59-.22-2.41.2-2.72.6-.43,2.56,1.03,3.26-.74.38-.96.19-1.98.22-3.03,1.37,0,2.75,0,4.12,0,.02,1.05-.17,2.07.22,3.03.04.11-.13.39.14.44,1.97.1,4.1-.17,6.04-.02.54.04.89.4,1.3.43.24.02,2.43-.24,2.27-.86.07,0,.15,0,.22,0,2.42-.28.53-1.77,1.29-2.28.26-.17,1.94-.17,2.19,0,.4.28.11,4.82.42,5.74Z"/>
        <path class="cls-8" d="M114.36,240.33h-56.32c-.31-.92-.02-5.47-.42-5.74-.25-.17-1.93-.17-2.19,0-.76.51,1.13,2-1.29,2.28v-3.03c1.44,0,2.89-.02,4.33,0,.01,1.94,0,3.89,0,5.84h18.63l.12-2.81h2.04s0,2.81,0,2.81h6.06c0-.93-.01-1.88,0-2.81.72,0,1.45,0,2.17,0,.01.93,0,1.88,0,2.81h26.86c-.05.07.04.48,0,.65Z"/>
        <path class="cls-6" d="M133.86,236.87v3.46h-19.49c.04-.17-.05-.58,0-.65.01-.02.38.09.44-.14.18-.66-.13-1.91,0-2.67h8.23v2.81h5.85v-2.81s4.98,0,4.98,0Z"/>
        <path class="cls-6" d="M133.86,219.14c-.29-.09-2.38.12-2.38,0v-17.51c0-.12,2.09.09,2.38,0v17.51Z"/>
        <path class="cls-6" d="M133.86,122.08h-2.38c0-3.96,0-7.93,0-11.89h2.38v11.89Z"/>
        <path class="cls-8" d="M36.17,240.33h-14.3c-.77-1.3.73-1.01.32-1.94-.72-1.64-1.66-.79-2.78-1.08-.24-.06-.12-.41-.14-.44h3.68s0,2.81,0,2.81h12.78v-2.81s3.9,0,3.9,0c-.71,1.77-2.67.31-3.26.74-.43.31-.11,2.13-.2,2.72Z"/>
        <path class="cls-6" d="M133.86,154.29h-2.38c0-1.94,0-3.89,0-5.84h2.38v5.84Z"/>
        <path class="cls-8" d="M133.86,172.01c-.29-.09-2.38.12-2.38,0v-5.84c0-.12,2.09.09,2.38,0v5.84Z"/>
        <path class="cls-7" d="M4.55,98.73c-.72-.01-1.45,0-2.17,0v-4.54h2.17c-.01,1.51.01,3.03,0,4.54Z"/>
        <path class="cls-2" d="M39.64,236.87h-3.9s0,2.81,0,2.81h-12.78v-2.81s-3.68,0-3.68,0c-.03-.03-.37.1-.44-.14-.13-.48.14-2.75,0-2.88-2.02,0-4.05,0-6.07,0-.02,1.01.02,2.02,0,3.03H2.38v-3.03c0-.11-2.17.11-2.17,0v-11.67c0-.11,2.17.11,2.17,0v-5.84c0-.11-2.17.11-2.17,0v-35.45c.72,0,1.45.01,2.17,0-.1,10.8.08,21.62,0,32.43h2.17s0,5.84,0,5.84h3.9v-2.81s2.17,0,2.17,0v5.84h-4.33v2.81h-3.9v3.03h3.9c-.07.43.1,2.71,0,2.81-.08.08-1.41-.06-1.73,0v3.03c2.74,0,5.49,0,8.23,0,0-.48-.11-2.92,0-3.03.08-.08,1.61.06,1.95,0v-5.84h1.95v5.84h4.33v3.03h4.12v-5.84h2.17v8.86h6.06v-3.03c2.16,0,4.34,0,6.5,0-.02,1.05.17,2.06-.22,3.03Z"/>
        <path class="cls-4" d="M4.55,98.73c2.02.03,4.05-.02,6.06,0v3.03h-4.33c-.07.41.09,2.5,0,2.6-.08.08-1.41-.06-1.73,0v5.84c0,.09,1.73-.09,1.73,0v3.03c0,.09-1.73-.09-1.73,0v11.67c0,.11-2.17-.11-2.17,0v6.27c0,.11,2.17-.11,2.17,0v8.43h3.9v3.03h-3.9v20.54c-.72,0-1.45,0-2.17,0-.02-9.8.01-19.6,0-29.4H.22s0-11.67,0-11.67c0-.11,2.17.11,2.17,0v-20.32c.37-.06,2.08.08,2.17,0,.11-.11,0-2.57,0-3.03Z"/>
        <path class="cls-7" d="M85.34,236.87c-.01.93,0,1.88,0,2.81h-6.06v-2.81s-2.04,0-2.04,0l-.12,2.81h-18.63c0-1.94.01-3.89,0-5.84.72.01,1.45,0,2.17,0v3.03h14.73v-3.03h5.85v3.03c1.37,0,2.75,0,4.12,0Z"/>
        <path class="cls-7" d="M54.15,236.87c-.07,0-.14,0-.22,0-3.16.23-6.56-.17-9.75,0-.38-.96-.19-1.98-.22-3.03,3.39,0,6.79,0,10.18,0v3.03Z"/>
        <path class="cls-4" d="M10.61,174.82c.01-.93,0-1.88,0-2.81h4.12v2.81c-1.37,0-2.75,0-4.12,0-.01,1.01-.01,2.02,0,3.03.72.01,1.45,0,2.17,0v3.03h-2.17c0-1.01.01-2.02,0-3.03-1.44-.02-2.89.02-4.33,0v3.03c-1.3.02-2.6-.02-3.9,0,0-.45-.11-2.92,0-3.03.1-.1,2.07.1,2.17,0,.11-.11,0-2.58,0-3.03,2.02.03,4.05.01,6.06,0Z"/>
        <path class="cls-4" d="M58.48,233.84c-1.44-.02-2.89,0-4.33,0,0-.45-.11-2.92,0-3.03.1-.1,2.07.1,2.17,0s-.08-2.38,0-2.81h2.04c.29.04.12,5.25.12,5.84Z"/>
        <path class="cls-7" d="M4.55,174.82c-.72-.01-1.45,0-2.17,0,0-.93.01-1.88,0-2.81-.72,0-1.45,0-2.17,0v-8.86c.72,0,1.45,0,2.17,0,0,2.95-.03,5.91,0,8.86.72,0,1.45,0,2.17,0,0,.93,0,1.88,0,2.81Z"/>
        <path class="cls-4" d="M43.97,233.84c-1.37,0-2.75,0-4.12,0,.02-1.01-.02-2.02,0-3.03h4.12c.01,1.01-.02,2.02,0,3.03Z"/>
        <path class="cls-8" d="M53.93,236.87c.17.62-2.03.87-2.27.86-.41-.03-.76-.39-1.3-.43-1.94-.15-4.08.12-6.04.02-.27-.05-.09-.33-.14-.44,3.18-.17,6.59.23,9.75,0Z"/>
      </g>
    </g>
  </g>
</svg>