<?xml version="1.0" encoding="UTF-8"?>
<svg id="_Слой_2" data-name="Слой 2" xmlns="http://www.w3.org/2000/svg" viewBox="0 0 76 147">
  <defs>
    <style>
      .cls-1 {
        fill: #421b10;
      }

      .cls-2 {
        fill: #4b2419;
      }

      .cls-3 {
        fill: #603a2c;
      }

      .cls-4 {
        fill: #fcd2b4;
      }

      .cls-5 {
        fill: #3e170c;
      }

      .cls-6 {
        fill: #f8ceb0;
      }

      .cls-7 {
        fill: #d99c7f;
      }

      .cls-8 {
        fill: #3a2c25;
      }

      .cls-9 {
        fill: #423026;
      }

      .cls-10 {
        fill: #d99e82;
      }

      .cls-11 {
        fill: #fbe0ca;
      }

      .cls-12 {
        fill: #8c4e38;
      }

      .cls-13 {
        fill: #40241c;
      }

      .cls-14 {
        fill: #fae0ca;
      }

      .cls-15 {
        fill: #2e1711;
      }

      .cls-16 {
        fill: #d49578;
      }

      .cls-17 {
        fill: #552e21;
      }

      .cls-18 {
        fill: #ce8d71;
      }

      .cls-19 {
        fill: #f9cfb1;
      }

      .cls-20 {
        fill: #311912;
      }

      .cls-21 {
        fill: #835044;
      }

      .cls-22 {
        fill: #3e170b;
      }

      .cls-23 {
        fill: #98837e;
      }

      .cls-24 {
        fill: #513c35;
      }

      .cls-25 {
        fill: #d79573;
      }

      .cls-26 {
        fill: #4f281b;
      }

      .cls-27 {
        fill: #c1876d;
      }

      .cls-28 {
        fill: #512b1e;
      }

      .cls-29 {
        fill: #492419;
      }

      .cls-30 {
        fill: #fdd4b6;
      }

      .cls-31 {
        fill: #361f18;
      }

      .cls-32 {
        fill: #fde4ce;
      }

      .cls-33 {
        fill: #fce2cb;
      }

      .cls-34 {
        fill: #8f4f36;
      }

      .cls-35 {
        fill: #fadfc9;
      }

      .cls-36 {
        fill: #d1c7c5;
      }

      .cls-37 {
        fill: #d39073;
      }

      .cls-38 {
        fill: #522719;
      }

      .cls-39 {
        fill: #7c4b3f;
      }

      .cls-40 {
        fill: #f5d8c2;
      }

      .cls-41 {
        fill: #e29d79;
      }

      .cls-42 {
        fill: #97837e;
      }

      .cls-43 {
        fill: #874830;
      }

      .cls-44 {
        fill: #8e4e37;
      }

      .cls-45 {
        fill: #4a2318;
      }

      .cls-46 {
        fill: #441f14;
      }

      .cls-47 {
        fill: #4b2318;
      }

      .cls-48 {
        fill: #d18e71;
      }

      .cls-49 {
        fill: #d19b80;
      }

      .cls-50 {
        fill: #d7997b;
      }

      .cls-51 {
        fill: #f3d2bb;
      }

      .cls-52 {
        fill: #f6caac;
      }

      .cls-53 {
        fill: #d99b7d;
      }

      .cls-54 {
        fill: #e4a07c;
      }
    </style>
  </defs>
  <g id="_Слой_34_Изображение" data-name="Слой 34 Изображение">
    <g>
      <path class="cls-30" d="M25,5c6.88-1.69,17.32.35,23.34,4.16,4.47,2.84,11.85,7.89,10.31,13.61l5.36,13.23c-.19,3.4-.53,6.64-1,10-.53,3.78-1.55,6.98-2,12-.03.33.04.67,0,1-1.81-1.23-2.07-1.14-3.93-.26-4.26,2.01-5.23,3.18-10.07,4.26-4.31,1.82-14.4-2.75-15.99-6.51-1.14-2.69,5.28-.43,5.97-2.99-4.6-1.81-2.98-5.83-4.56-9.43-1.93-4.42-9.45-11.26-14.49-7.64-1.35.97-.48,4.46-2.43,5.55l-4.5-2.98c-.64-14.2-1.63-24.64,12-32,.57-.31,1.39-1.85,2-2ZM52,45c-.21-1.31-.02-2.34-1.64-2.85-4.19-1.33-16.21-1.53-13.36,5.85,2.88.32,6.52-1.4,8,2,0,4.54,1.75,7.11,6,4,2.17-1.59,1.44-6.29,1-9Z"/>
      <path class="cls-1" d="M20,105c-.42,4.25.75,4.81,3.35,7.1.61.54.51,1.8.65,1.9,1.65,2.03,12.14,1,12.86-.14.58-.93.08-6.52.14-8.41s-1.01-4.01,2-3.45c.45.53,1.75.99,1.8,1.14.14.39-1.06,3.52-.9,5.37.19,2.15,1.66,3.26,2.05,5.06s-.29,3.98.05,5.43l-2,1c-.06-.27-.9-1.96-1-2-6.47-1.6-17.4-3.81-15,6-.11.07.02,1.76-1.01,2.45-1.74,1.17-4.86.15-5.81,3.25-1.31,4.28,1.16,5.03,1.81,7.3.45,1.57.04,4.22,1,6-.22-.18-1.58.02-2.54-.95-.59-.59-3.46-3.92-3.53-4.5-.24-2.03-.34-11.28.07-12.82.22-.83,4.94-3.96,5.01-4.28.64-2.97-1.79-2.18-2-3.12-.51-2.3.61-5.44-.17-7.67-.46-1.31-4.91-3.85-5.5-4.98-.7-1.36-3.53-8.98-4.34-9.68l1-1c.3.51,3.09.76,3.96,1.53,1.96,1.71,2.89,9.48,8.04,9.47Z"/>
      <path class="cls-54" d="M11,39l4.5,2.98c1.96-1.09,1.09-4.58,2.43-5.55,5.04-3.63,12.56,3.22,14.49,7.64,1.57,3.6-.04,7.62,4.56,9.43-.69,2.55-7.11.29-5.97,2.99,1.59,3.76,11.68,8.34,15.99,6.51-4.27.95-14.76,2.64-18-1-.18-.2-.32-1.61-.96-2.5-.72-1.01-2.83-2.21-2.99-3.12-.41-2.47,6.11-3.69-6.06-5.38-.33-.31-.52-.71-1-1-.85-.52-2.91-.52-4-1-.09-.17-.7-.46-1-1-.05-.09,1.15-1.2.51-2.02-.52-.67-2.23-.59-2.53-1.7-.36-1.3.1-3.66.03-5.28ZM25.25,42.75c-1.03-1.02-1.3-5.26-3.74-4.74s-3.48,12.86,4.01,13.1c.94.03,4.52-3.71,4.54-4.6.05-2.79-3.6-2.57-4.81-3.76Z"/>
      <path class="cls-31" d="M20,5c1.46.01,2.57.57,3,2-13.63,7.36-12.64,17.8-12,32,.07,1.62-.39,3.98-.03,5.28.31,1.11,2.01,1.03,2.53,1.7.65.82-.56,1.93-.51,2.02-2.71-.74-5.19-1.74-5.77-4.69-1.65-8.46-1.07-25.24,4.23-32.35,3.12-4.19,5.21-4.08,8.54-5.96Z"/>
      <path class="cls-44" d="M61,59c-.51,4.74-3.15,1.02,1,7,.08.75-.96,1.69-1,2-9.45-1.64-20.29-1.24-30-1-.97-1.23-1.96-2.91-3-4l1-1c3.24,3.64,13.73,1.95,18,1,4.84-1.08,5.81-2.26,10.07-4.26,1.86-.88,2.12-.96,3.93.26Z"/>
      <path class="cls-2" d="M60,9c.81.59,4.29,1.3,4.78,2.21.58,1.08-.05,2.86.38,4.13.49,1.46,2.59,1.31,2.87,2.36.74,2.85.3,18.89.03,22.86-.12,1.86.24,3.74-2.06,4.45,0-.13-1.03-1.15-1.04-2.42-.03-4.93.94-11.1-.96-15.58-.08-2.27.42-5.32-.02-7.31-.11-.49-2.24-1.06-2.98-5.69-.15-.94.11-2.04,0-3.01-.15-.18-2.85,2.73-1.98-1.49l.99-.51Z"/>
      <path class="cls-29" d="M12,63c-1.18,1.26-3.2,3.57-4,5-.71,1.25-2.59,5.06-3,6-1.31,3.03-.98,4.91-1,8-.01,2.42.93,4.84,0,7-.8-.21-2.07.14-3,0-.47-1.94-.29-15.24.24-17.26,1.38-5.26,4.98-9.04,8.76-12.74l2.99-1-.99,5Z"/>
      <path class="cls-8" d="M20,5C27.45.8,30.38.54,39.54.96c3.29.15,16.42,2.84,18.31,4.22.5.37.01,1.68.14,1.82-4.09,1.31-6.63-2.36-9.55-2.96-1.95-.39-4.38.05-6.45-.04-5.22-.24-12.32-.66-17,1-.61.15-1.43,1.69-2,2-.43-1.43-1.54-1.99-3-2Z"/>
      <path class="cls-28" d="M37,134c-1.9,4.65,2.95,5.46,3.02,7.44.24,6.25-12.01,5.09-16.45,4.46-4.82-.68-3.29-2.66-3.57-2.9-.96-1.78-.55-4.43-1-6h1c-.08,1.14.49,4.76,1.66,5.04,1.4.34,12.29.21,13.68-.2,2.68-.79.65-2.4.65-2.85.02-1.9-.66-4.04,1-5Z"/>
      <path class="cls-20" d="M73,137c1.03,2.09,1.71,8.49-.67,9.04s-17,.33-19.77-.1c-3.17-.49-2.94-1.65-4.56-2.94.01-1.46.57-2.57,2-3,.2.4,1.07.37,1,2,0,.15-1.26.23-1,.99,4.12-.72,18.66,1.44,21-.99,1.62-1.69.38-3.73,2-5Z"/>
      <path class="cls-46" d="M64,113c.58,6.17-.79,13.57-.03,19.55.13,1,0,1.14,1.03,1.45,2.76.84,5.81-1.45,8,3-1.62,1.27-.38,3.31-2,5,1.06-8.51-3.27-4.79-7.38-6.12s-2.22-20.62-2.62-24.88v-1c.89.99,2.07,1.07,3,3Z"/>
      <path class="cls-5" d="M44,121c.44.9.77,2.7,1,3-3.44-1.14-4.21,1.99-2,4-2.43,1.05-2.81,4.16-4.29,5.75-.41.45-1.45.1-1.71.25-1.66.96-.98,3.1-1,5-2.84-.46-1.95-1.9-5-3-1.45-4.53,5.78-4.42,8-9,1.08-2.22,1.53-4.39,1-7l2-1c.14.61,1.73,1.45,2,2Z"/>
      <path class="cls-15" d="M45,124c1.18,1.53,5.96,4.27,6,6,.02.68-2.7,5.44-2.8,6.69-.11,1.41,1.26,2.23,1.8,3.31-1.43.43-1.99,1.54-2,3-.27-.22-1.58.58-2.33-1.2-1.74-4.11.26-9.61-.63-13.17-.3-1.2-1.86-.46-2.04-.63-2.21-2.01-1.44-5.14,2-4Z"/>
      <path class="cls-45" d="M58,90l4,1c-.6.61-1.42,1.47-2,2-.18.16-1.74-.57-2.04.63-.48,1.93-.29,13.68,1.04,14.37,3.16,1.63,1.19,1.1,2,2v1c-6.56.54-5.7-.76-6-6-.22-3.97.16-8.03,0-12,1.16-1.19-.24-.93,3-3Z"/>
      <path class="cls-3" d="M64,69v19c-.52,1.37-.99,1.98-2,3l-4-1c.82-.53,2.67-1.06,2.79-1.21.6-.76.15-1.91.21-2.79.3-4.46,0-8.93,0-13,0-1.6-.19-3.5,0-5,.04-.31,1.08-1.25,1-2,.78,1.12,1.14.55,2,3Z"/>
      <path class="cls-47" d="M19,51c.14.14,1.42,2.23,2,3,.79,1.05,2.74.52,1.99,2.99-4.07.45-7.84-1.92-8.99,3.01-.07.32.07.68,0,1-.75,3.58-1.43,1.39-2,2l.99-5-2.99,1c1.54-1.5,5.56-4,5.75-4.31.6-.95.07-2.42.25-2.69.09-.15,2.77.42,2-2,.48.29.67.69,1,1Z"/>
      <path class="cls-24" d="M58,7c.36.38,1.86,1.9,2,2l-.99.51c-.88,4.22,1.82,1.3,1.98,1.49.12.97-.14,2.07,0,3.01-3.08-1.23-4.65-3.95-7.77-5.73-3.63-2.07-7.29-3.05-11.23-4.27,2.07.1,4.5-.35,6.45.04,2.93.59,5.46,4.27,9.55,2.96Z"/>
      <path class="cls-23" d="M66,45c0,2.87-1.22,9.34-2,12,.31-.47.5-10.13-1-11,.47-3.36.81-6.6,1-10,.16-2.89.1-6.09,0-9,1.91,4.47.93,10.65.96,15.58,0,1.27,1.04,2.29,1.04,2.42Z"/>
      <path class="cls-26" d="M64,57c-.09.13-2.43.34-3,1,.45-5.02,1.47-8.22,2-12,1.5.87,1.31,10.53,1,11Z"/>
      <path class="cls-17" d="M4,89c4.79,1.27,3.08,3.43,4,5l-1,1c-.21-.18-1.96.47-2.73-.21-.25-.22-3.2-5.46-3.27-5.79.93.14,2.2-.21,3,0Z"/>
      <path class="cls-42" d="M65,134c-1.03-.31-.9-.45-1.03-1.45-.76-5.98.61-13.38.03-19.55,2.54,5.28.21,14.86,1,21Z"/>
      <path class="cls-23" d="M64,88v-19c1.63,4.63,1.71,14.5,0,19Z"/>
      <path class="cls-36" d="M60,93c-2.02,4.56-.61,10.08-1,15-1.33-.69-1.52-12.43-1.04-14.37.3-1.2,1.86-.47,2.04-.63Z"/>
      <path class="cls-22" d="M18,50c.77,2.42-1.91,1.85-2,2-.56-1.05-1.46-1.95-2-3,1.09.48,3.15.48,4,1Z"/>
      <path class="cls-25" d="M42,4c3.94,1.23,7.59,2.2,11.23,4.27,3.13,1.78,4.69,4.5,7.77,5.73.74,4.63,2.87,5.2,2.98,5.69.44,1.99-.06,5.04.02,7.31.1,2.91.16,6.11,0,9l-5.36-13.23c1.55-5.71-5.83-10.77-10.31-13.61-6.02-3.82-16.46-5.86-23.34-4.16,4.68-1.66,11.78-1.24,17-1Z"/>
      <path class="cls-7" d="M52,45h-1c-5.23-.33-6-.14-6,5-1.48-3.4-5.12-1.68-8-2-2.85-7.38,9.17-7.17,13.36-5.85,1.62.51,1.43,1.54,1.64,2.85Z"/>
      <path class="cls-9" d="M51,45c.31,3.48-4.56,5.97-.01,7.65v1.35c-4.24,3.11-5.99.54-5.99-4,0-5.14.77-5.33,6-5Z"/>
      <path class="cls-27" d="M51,54v-1.35c-4.56-1.68.31-4.17,0-7.65h1c.44,2.71,1.17,7.41-1,9Z"/>
      <path class="cls-37" d="M31,80c2.68.34,6.26,4.86,8.39,7.06.58.6.43,1.76.61,1.94,4.65,4.43,9.34-1.22,12,2.99-1.22-.17-2.03.43-3,1.01-6.41,3.82-5.84,5.62,2,5-.13.83-.05,2.1,0,3-4.59-1.52-8.84,3.22-3.46,4.05,2.01.31,3.47-.99,4.46-1.05.85,2.41,1.61,1.89,1.95,2.74.48,1.22-.5,3.85.98,4.84,1.39.93,4.75.11,5.08.42.83.78-1.19,18.69.73,22.77,2.2,4.66,10.97-.42,9.26,7.24-6.07.56-12.84-.4-19,0,.07-1.63-.8-1.6-1-2-.55-1.08-1.92-1.9-1.8-3.31.1-1.25,2.82-6.01,2.8-6.69l6.99-1.49c-4.67-2.33-8.66-6.89-13.99-7.51-.27-.55-1.86-1.39-2-2-.34-1.45.34-3.66-.05-5.43s-1.86-2.91-2.05-5.06c-.16-1.85,1.04-4.98.9-5.37-.05-.15-1.35-.61-1.8-1.14-1.64-1.91-1.86-2.28-4-3-.79-.27-1.67-.92-2-1,1.29-4.35-2.8-2.35-3.07-3.55-.9-4.04,1.49-10.32-.93-14.45.25-.11,1.52-.06,2,0Z"/>
      <path class="cls-53" d="M8,68c-1.17,4.58,2.1,5.84,4.5,8.98,1.38-2.48,1.97-3.83,3.5-5.98-1.23,5.58,5.17,7.07,9.29,5.8,1.82-.56,2.89-3.27,4.71-3.8.53-.15,1.37.1,2,0-1.77,2.41-2.97,4.1-1,7-.48-.06-1.75-.11-2,0-.43.19-1.93,2.62-2,3,.12-3.51.61-2.75-2.44-3-6.04-.5-6.06-1.16-8.56,3-.25.42-1.6.35-1.99,2.48-.35,1.95-.34,9.03.19,10.82.58,1.94,5.02,4.87,6.8,8.71h-1c-5.15,0-6.07-7.76-8.04-9.47-.88-.76-3.66-1.01-3.96-1.53-.92-1.57.79-3.73-4-5,.93-2.16-.01-4.58,0-7,2.69,8.56,8.39,11.88,6.79-.3l-5.79-7.7c.41-.94,2.29-4.75,3-6Z"/>
      <path class="cls-50" d="M39,127c-2.22,4.58-9.45,4.47-8,9-3.5-1.27-3.17,1.21-4.02-4.29-.48-3.1-6.82,3.09-6.98,5.29h-1c-.65-2.27-3.12-3.02-1.81-7.3.95-3.1,4.07-2.08,5.81-3.25,1.03-.69.89-2.38,1.01-2.45,1.96-1.25,2.72,2.75,3-4,5.11,5.16,2.25,8.58,12,7Z"/>
      <path class="cls-6" d="M39,118c.1.04.94,1.73,1,2,.53,2.61.08,4.78-1,7-9.75,1.58-6.89-1.84-12-7,.02-.43-.13-1.9,0-2,.48-.36,11.44-.21,12.01,0Z"/>
      <path class="cls-12" d="M35,99c2.14.72,2.36,1.09,4,3-3.01-.56-1.94,1.53-2,3.45s.44,7.48-.14,8.41c-.72,1.15-11.21,2.17-12.86.14.25.18,2.2-.05,3,0,2.31.16,4.69-.1,7.01,0,.04-1-.04-2,0-3,.11-3.98-.76-8.4,1-12Z"/>
      <path class="cls-21" d="M39,118c-.56-.21-11.53-.36-12.01,0-.12.09.02,1.56,0,2-.28,6.75-1.04,2.75-3,4-2.4-9.81,8.53-7.6,15-6Z"/>
      <path class="cls-49" d="M21,105c.19.4-.39,1.59.27,2.73.87,1.52,6.02,3.67,5.73,6.27-.8-.05-2.75.18-3,0-.13-.1-.04-1.36-.65-1.9-2.6-2.29-3.77-2.85-3.35-7.1h1Z"/>
      <path class="cls-4" d="M25.25,42.75c1.21,1.19,4.86.97,4.81,3.76-.02.89-3.6,4.63-4.54,4.6-7.49-.24-6.39-12.59-4.01-13.1s2.71,3.72,3.74,4.74Z"/>
      <path class="cls-34" d="M29,62l-1,1c-.48-.51-2.8-2.93-3-3,.21-2.61-2.17-4.09,0-6.99l-4,.99c-.58-.77-1.86-2.86-2-3,12.17,1.69,5.64,2.92,6.06,5.38.15.91,2.27,2.11,2.99,3.12.64.89.78,2.3.96,2.5Z"/>
      <path class="cls-50" d="M61,68c-.19,1.5,0,3.4,0,5-.78.35-6.95-6.14-6.01-1.5.51,2.53,2.45,1.78,2.98,3.27.36,1,.94,5.39,1.04,6.75.18,2.67-3.3,5.19,1.99,4.48-.06.88.39,2.03-.21,2.79-.12.15-1.97.68-2.79,1.21-3.24,2.07-1.84,1.81-3,3-.68.7-2.58,1.4-3,2-.43-1.43-1.54-1.99-3-2,.97-.58,1.78-1.18,3-1.01-2.66-4.21-7.35,1.44-12-2.99,2.49-.18,4.53,1.16,7.08.62,1.6-.34,1.67-1.89,2.71-2.54s3.15-.49,4.26-1.54c4.78-4.53-3.76-14.6-8.56-15.52s-10.61-.92-13.48,2.98c-.63.1-1.47-.15-2,0v-6c.33,0,.67,0,1,0,9.71-.24,20.55-.64,30,1Z"/>
      <path class="cls-16" d="M25,60c.2.07,2.52,2.49,3,3,1.04,1.09,2.03,2.77,3,4-.33,0-.67,0-1,0-2.84.07-7.66-.53-10,0,.32-3.42-2.74-6.34-6-6,.07-.32-.07-.68,0-1,2.91.55,8.63-.77,11,0Z"/>
      <path class="cls-35" d="M20,67c-1.58.36-3.07,2.7-4,4-1.53,2.15-2.12,3.5-3.5,5.98-2.4-3.14-5.67-4.4-4.5-8.98.8-1.43,2.82-3.74,4-5,.57-.61,1.25,1.58,2-2,3.26-.34,6.32,2.58,6,6Z"/>
      <path class="cls-40" d="M5,74l5.79,7.7c1.6,12.18-4.1,8.86-6.79.3.02-3.09-.31-4.97,1-8Z"/>
      <path class="cls-19" d="M20,137c.16-2.21,6.5-8.39,6.98-5.29.85,5.5.53,3.03,4.02,4.29,3.05,1.1,2.16,2.54,5,3,0,.45,2.02,2.06-.65,2.85-1.39.41-12.28.54-13.68.2-1.18-.28-1.75-3.9-1.66-5.04Z"/>
      <path class="cls-13" d="M70,142c.33-.03.67.02,1,0-2.34,2.43-16.88.27-21,.99-.26-.76.99-.84,1-.99,6.16-.4,12.93.56,19,0Z"/>
      <path class="cls-48" d="M55,105c.3,5.24-.56,6.54,6,6,.41,4.26-1.43,23.56,2.62,24.88s8.44-2.39,7.38,6.12c-.33.02-.67-.03-1,0,1.71-7.66-7.07-2.57-9.26-7.24-1.92-4.07.1-21.99-.73-22.77-.33-.31-3.68.51-5.08-.42-1.48-.99-.5-3.62-.98-4.84-.34-.85-1.1-.32-1.95-2.74.49-.03,2.08,1.11,3,1Z"/>
      <path class="cls-41" d="M44,121c5.34.62,9.32,5.18,13.99,7.51l-6.99,1.49c-.04-1.73-4.82-4.47-6-6-.23-.3-.56-2.1-1-3Z"/>
      <path class="cls-39" d="M55,105c-.92.11-2.51-1.03-3-1-.35-1-.93-1.88-1-3-.05-.9-.13-2.17,0-3,.05-.29.91-2.87,1-3,.42-.6,2.32-1.3,3-2,.16,3.97-.22,8.03,0,12Z"/>
      <path class="cls-52" d="M61,86c-5.29.71-1.8-1.81-1.99-4.48-.09-1.36-.68-5.75-1.04-6.75-.53-1.48-2.47-.74-2.98-3.27-.94-4.64,5.22,1.85,6.01,1.5,0,4.07.3,8.54,0,13Z"/>
      <path class="cls-43" d="M21,54l4-.99c-2.17,2.91.21,4.38,0,6.99-2.37-.77-8.09.55-11,0,1.15-4.92,4.93-2.55,8.99-3.01.75-2.48-1.21-1.94-1.99-2.99Z"/>
      <path class="cls-32" d="M32,73c2.87-3.9,8.91-3.85,13.48-2.98,4.8.91,13.35,10.99,8.56,15.52-1.1,1.05-3.2.87-4.26,1.54s-1.11,2.2-2.71,2.54c-2.54.55-4.59-.8-7.08-.62-.18-.17-.03-1.34-.61-1.94-2.13-2.2-5.71-6.72-8.39-7.06-1.97-2.9-.77-4.59,1-7Z"/>
      <path class="cls-38" d="M29,80c2.43,4.13.03,10.42.93,14.45.27,1.2,4.35-.8,3.07,3.55-1.47-.35-3.75.43-5.28.02-.59-.16-1.05-1.88-3.72-3.02-1.26-1.17-.65-4.36-1-5,6.15-.5,3.25-3.13,4-7,.07-.38,1.57-2.81,2-3Z"/>
      <path class="cls-18" d="M24,95c2.67,1.14,3.13,2.86,3.72,3.02,1.53.41,3.81-.38,5.28-.02.33.08,1.21.73,2,1-1.76,3.6-.89,8.02-1,12-2.38-1.79-.08-7.28-1.13-8.87-.5-.76-4.2-.72-5.57-1.46-.74-.4-4.05-4.35-4.3-5.67.26.13.71-.12,1,0Z"/>
      <path class="cls-40" d="M52,95c-.09.13-.95,2.71-1,3-7.84.62-8.41-1.18-2-5,1.46.01,2.57.57,3,2Z"/>
      <path class="cls-51" d="M51,101c.07,1.12.65,2,1,3-.99.05-2.45,1.36-4.46,1.05-5.38-.83-1.14-5.57,3.46-4.05Z"/>
      <path class="cls-33" d="M17,92c.26.59,4.98,2.48,6,3,.26,1.33,3.56,5.27,4.3,5.67,1.37.74,5.07.7,5.57,1.46,1.04,1.58-1.25,7.08,1.13,8.87-.03,1,.04,2.01,0,3-2.31-.1-4.7.16-7.01,0,.29-2.61-4.86-4.75-5.73-6.27-.65-1.14-.08-2.33-.27-2.73-1.78-3.84-6.22-6.76-6.8-8.71-.53-1.79-.54-8.86-.19-10.82.38-2.13,1.73-2.06,1.99-2.48,1.3,2.5-1.69,6.91,1,9Z"/>
      <path class="cls-11" d="M30,67v6c-1.82.53-2.88,3.24-4.71,3.8-4.13,1.27-10.52-.22-9.29-5.8.93-1.3,2.42-3.64,4-4,2.34-.53,7.16.07,10,0Z"/>
      <path class="cls-14" d="M16,83c2.5-4.16,2.52-3.5,8.56-3,3.06.25,2.57-.51,2.44,3-.75,3.87,2.15,6.5-4,7-.05-.09-1.48.32-1.97-.72-.89-1.9-.35-5.41-3.02-6.27-.49,2.17-1.84,7.15-1.01,9-2.69-2.09.3-6.5-1-9Z"/>
      <path class="cls-10" d="M17,92c-.82-1.85.52-6.83,1.01-9,2.67.86,2.12,4.37,3.02,6.27.49,1.04,1.92.63,1.97.72.35.64-.26,3.83,1,5-.29-.12-.74.13-1,0-1.02-.52-5.74-2.41-6-3Z"/>
    </g>
  </g>
</svg>