<?xml version="1.0" encoding="UTF-8"?>
<svg id="_Слой_2" data-name="Слой 2" xmlns="http://www.w3.org/2000/svg" viewBox="0 0 74 150">
  <defs>
    <style>
      .cls-1 {
        fill: #d39174;
      }

      .cls-2 {
        fill: #421b10;
      }

      .cls-3 {
        fill: #41190d;
      }

      .cls-4 {
        fill: #cf9276;
      }

      .cls-5 {
        fill: #39281f;
      }

      .cls-6 {
        fill: #4e2518;
      }

      .cls-7 {
        fill: #331c15;
      }

      .cls-8 {
        fill: #d99c7f;
      }

      .cls-9 {
        fill: #431c12;
      }

      .cls-10 {
        fill: #fbd1b3;
      }

      .cls-11 {
        fill: #d79a7c;
      }

      .cls-12 {
        fill: #3d1f16;
      }

      .cls-13 {
        fill: #d99d80;
      }

      .cls-14 {
        fill: #dfa78b;
      }

      .cls-15 {
        fill: #4a2216;
      }

      .cls-16 {
        fill: #78483d;
      }

      .cls-17 {
        fill: #f2c7aa;
      }

      .cls-18 {
        fill: #f9dcc6;
      }

      .cls-19 {
        fill: #3b241d;
      }

      .cls-20 {
        fill: #d89a7c;
      }

      .cls-21 {
        fill: #411a0f;
      }

      .cls-22 {
        fill: #fdd4b6;
      }

      .cls-23 {
        fill: #f6dbc6;
      }

      .cls-24 {
        fill: #fbd1b4;
      }

      .cls-25 {
        fill: #fde4ce;
      }

      .cls-26 {
        fill: #fce2cb;
      }

      .cls-27 {
        fill: #d6987b;
      }

      .cls-28 {
        fill: #91533b;
      }

      .cls-29 {
        fill: #f1d4be;
      }

      .cls-30 {
        fill: #40190e;
      }

      .cls-31 {
        fill: #411a0e;
      }

      .cls-32 {
        fill: #704237;
      }

      .cls-33 {
        fill: #e8bda0;
      }

      .cls-34 {
        fill: #fbe1cb;
      }

      .cls-35 {
        fill: #451d11;
      }

      .cls-36 {
        fill: #da9e80;
      }

      .cls-37 {
        fill: #d8997c;
      }

      .cls-38 {
        fill: #492014;
      }

      .cls-39 {
        fill: #493129;
      }

      .cls-40 {
        fill: #532e23;
      }

      .cls-41 {
        fill: #8d4d35;
      }

      .cls-42 {
        fill: #c59076;
      }

      .cls-43 {
        fill: #93553d;
      }

      .cls-44 {
        fill: #441f14;
      }

      .cls-45 {
        fill: #7b493e;
      }

      .cls-46 {
        fill: #352922;
      }

      .cls-47 {
        fill: #512c23;
      }

      .cls-48 {
        fill: #f9ddc6;
      }

      .cls-49 {
        fill: #3d160b;
      }

      .cls-50 {
        fill: #f9dcc5;
      }

      .cls-51 {
        fill: #cc8a6e;
      }

      .cls-52 {
        fill: #ca8d72;
      }

      .cls-53 {
        fill: #532b1e;
      }

      .cls-54 {
        fill: #8a4c34;
      }

      .cls-55 {
        fill: #392019;
      }

      .cls-56 {
        fill: #915038;
      }
    </style>
  </defs>
  <g id="_Слой_20_Изображение" data-name="Слой 20 Изображение">
    <g>
      <path class="cls-2" d="M66,9c6.36,7.33,8.47,8.35,6.96,19.58l1.04,2.42v12l-3,3c0-.21-1-.74-1-1-.02-10.58,2.18-26.12-6-34l2-2Z"/>
      <path class="cls-7" d="M64,84c1.92.67,3.01-.57,4,2-3.19,3.17-5.25,6.51-4.02,11.3.29,1.11,2.57.69,3.04,3.16.39,2.06.25,10.83-.54,12.52-.59,1.27-2.77,1.99-3.29,3.71-.87,2.9.46,6.65-.41,9.59-1.58,5.38-10.45,4.99-14.8,4.71-.34,2.17.06,3.1,2,4l-1,2c-.6-.43-1.71.24-2.85-1.67-1.23-2.06-.24-2.92-.15-4.33,1.84-3.39,1.25-3.57,5-4,3.45-.4,7.45-.04,9.51-3.99.82-1.57.49-3.35.49-5.01,0-2.48-1.17-5.08-1-7,.13-1.41,2.08-3.82,2.01-5.36-.03-.69-1.89-1.24-2.01-1.64-.37-1.24.08-4.31,0-6-.17-3.91.37-8.2,0-12,.52-.13,1.41.21,2.24-.04.78-.23,1.18-1.41,1.76-1.96Z"/>
      <path class="cls-31" d="M32,124c-.01,2.41.2,4.6,0,7-4.88-.23-2.55-6.45-2.99-9.44-7.69-.92-5.5,7.22-6.01,12.44-.04.45-.53.9-1,1-.75-1.18-2.58-1.24-3.01-3.49-.67-3.47.82-8.39-.19-11.81-.12-.4-4.44-6.29-4.8-6.7.75.14,1.89-1.02,2-1,3.04.54,3.97,2.43,9,2,.97-.08,3.66-.26,4-1,2.66-2.68-.66-8.32,2-11,1.93,3.17,1.02,17.12,1,22Z"/>
      <path class="cls-41" d="M30,56c1.68.52,5.57,6.84,9.71,7.79,3.04.7,13.94.71,16.29-.79.51-.32.9-1.64,1.69-2.03,2.99-1.49,3.29,0,6.31-2.97-.12.74.99,1.79,1,2,.03.77-1.09,2.09-.49,3.04.15.23,2.72,3.05,3.49,3.96-2.86.83-1.02,2.47-1,4-.64-.19-1.46-.94-2-1-.74-1.65-1.66-2.64-3.52-2.98-7.56-1.38-23.98,2.46-29.48-2.02-4-3.26-2.01-4.39-9-5,.39-.49.66-1.75,1-2,.28-.2,4.73-1.97,5-2s.76-.08,1,0Z"/>
      <path class="cls-11" d="M17,21c.07,3.58-.75,17.08,2.12,18.87,3.47,2.17,2.87-2.83,4.56-3.95,5.16-3.44,12.41,4.77,14.32,9.09-.78.9-1.18,2.15-2,3,.93-4.91-4.95-4.84-6.47-7.07-.61-.89-.41-2.74-.58-2.89-2.92-2.58-4.39,4.78-3.97,7.42.23,1.43,2.89,4.38,4.02,5.55-1.81-.02-2.54-.54-4-1-2.54-.79-5.1-3.08-8-3-.3-.34-.68-.65-1-1,.48-8.29-1.11-17.1,1-25Z"/>
      <path class="cls-44" d="M24,5c1.6.06,4.15-.62,5,1-6.2,4.01-10.03,7.61-12,15-2.11,7.9-.52,16.71-1,25-.35-.38-2.47.54-3.01-2.48-.58-3.24-.56-21.77.05-24.98.85-4.49,7-11.93,10.96-13.54Z"/>
      <path class="cls-47" d="M24,58c-.34.25-.61,1.51-1,2-2.01-.17-7.78-.42-9.3-.02-.72.19-4.37,6.63-6.7,7.02.03-.48-1.11-2.09-1-3,3.34-9.56,6.14-6.41,14.53-6.99,2.85-.2,1.04-2.47,1.47-4.01.07.01.32-1.12.98-1.01l1.02,6.01Z"/>
      <path class="cls-46" d="M57,3l-4,1c-4.38-.73-12.61-.08-17.51-.02-1.69.02-4.44-.64-5.49,1.02-.12.03-.58.73-1,1-.85-1.62-3.4-.94-5-1,3.78-1.54,7.49-3.64,11.52-3.98,6.99-.59,14.88.58,21.48,1.98Z"/>
      <path class="cls-21" d="M68,67c.11.13,1.44-.31,1.82.14.58.7.57,16.82.22,18.23-.29,1.19-1.89.47-2.04.63-.99-2.57-2.08-1.33-4-2,.47-.45,1.37-.76,1.67-1.31.38-.68.19-1.25.33-1.69,1.24-3.92,1.06-5.89,1-10-.02-1.53-1.86-3.17,1-4Z"/>
      <path class="cls-9" d="M31,136c.69.24.84.18,1,1,.97,5.01-2.76,7.8,4,9-1.32.03-3.31-.5-4,1-4.49-3.32-1.94-4.63-3.44-7.06-1.04-1.68-4.28-.4-5.41-1.09-.68-.41-.65-3.07-1.15-3.85.47-.1.96-.55,1-1,2.22.87,6.12,1.34,8,2Z"/>
      <path class="cls-55" d="M36,146c2-.05,4,.01,6,0,3.99-.02,8.01.01,12,0-1.64,1.39-.65,2.57-4.45,3.05-4.67.59-13.89.66-17.55-2.05.69-1.5,2.68-.97,4-1Z"/>
      <path class="cls-49" d="M5,70c-1.35,10.06-.01,15.82,0,25,0,.47-.81,1.4-1,2-1.19-1.72-2.53-1.41-3-5,3.43-6.1-2.09-17.15,3-22,.2-.03.62-.81,1-1-.06.32.04.67,0,1Z"/>
      <path class="cls-53" d="M70,45c0,.26,1,.79,1,1,.01,1.59-.41,7.23-.91,8.55-.9,2.35-3.01,4.16-5.09,5.45,0-.21-1.12-1.26-1-2,4.05-3.99,2.25-7.12,3-12l3-1Z"/>
      <path class="cls-30" d="M12,103c-.45,2.87.18,6.22,1,9-4.18-3.9-5.34-9.7-9-15,.19-.6,1-1.53,1-2,5.16.88,2.88,6.28,7,8Z"/>
      <path class="cls-15" d="M25,50c.29,2.53,1.63,4.89,4,6-.27.03-4.72,1.8-5,2l-1.02-6.01c-.66-.11-.91,1.02-.98,1.01-2.93-.54-4.04-4.9-5-6,2.9-.08,5.46,2.21,8,3Z"/>
      <path class="cls-19" d="M50,135c2.58,1.19,6.75.75,7.01,1,.42.39.29,7.52-1.01,9-3.22.53-1.55-1.07-2-3-.81-3.49-.97-2.52-4-3-.38-.49-.65-1.75-1-2l1-2Z"/>
      <path class="cls-39" d="M57,3c7.28,1.55,4.83,1.19,9,6l-2,2c-.21-.2-1.66-.25-2.5-.96-2.69-2.3-4.65-5.4-8.5-6.04l4-1Z"/>
      <path class="cls-51" d="M16,112c-.11-.02-1.25,1.14-2,1-.34-.39-.63-.65-1-1-.82-2.78-1.45-6.13-1-9,.07-.47.52-.88,1-1,.29.28,2.3-.16,2.86,1.61.73,2.31-.18,5.85.14,8.39Z"/>
      <path class="cls-42" d="M54,142c.45,1.93-1.22,3.53,2,3-.71.81-1.71.75-2,1-3.99.01-8.01-.02-12,0v-1c4.42.83,7.92-1.91,12-3Z"/>
      <path class="cls-40" d="M4,70c-5.09,4.85.43,15.9-3,22-.36-2.76-.57-19.5-.05-21.45.31-1.15,2.09-.4,3.05-.55Z"/>
      <path class="cls-6" d="M7,67c-.01.19-.97,1.36-1,3h-1c.04-.33-.06-.68,0-1,.37-2.16.12-2.49,1-5-.11.91,1.03,2.52,1,3Z"/>
      <path class="cls-4" d="M53,4c3.85.64,5.81,3.74,8.5,6.04.84.72,2.29.76,2.5.96,8.18,7.88,5.98,23.42,6,34l-3,1c.67-4.4,2.38-4.79,1.74-10.24-1.28-10.82-9.75-28.15-21.47-30.53-2.49-.51-15.09-.76-17.27-.23,1.04-1.66,3.8-1,5.49-1.02,4.9-.06,13.13-.71,17.51.02Z"/>
      <path class="cls-20" d="M32,66c.54.39.32,1.6,2.48,1.98,6.57,1.17,16.87-.48,24.08-.05,1.91.12,3.59-.17,4.43,2.06-1.84.31-3.32.65-2.99,2.98.88.08,1.86.34,2.42,1.04,1.89,2.35.04,7.28,3.57,6.98-.14.44.05,1.01-.33,1.69-.31.55-1.2.85-1.67,1.31-.57.55-.98,1.73-1.76,1.96-.84.25-1.72-.09-2.24.04-.43-4.47-2.98-3.76-2.98-4.5,0-1.1,3.92-.56,2.83-3.81-.17-.5-7.01-7.35-7.51-7.53-1.39-.48-10.24-.46-11.7,0-.94.3-8.25,7.99-8.49,9.54-.69,4.43,3.49,2.52,5.82,3.82.9.5,3.3,4.5,4.4,5.09,2.26,1.21,8.79,2.08,11.07,1.44,1.11-.31.06-2.36,1.15-3.16,1.42-1.05,4-.54,5.41-.9.37,3.8-.17,8.09,0,12-4.17-.13-2.28,4-3.54,6-1.69,2.68-2.01-.81-2.46,6-.02.33.02.67,0,1-3.93-.31-2.47-.19-3.03,2.42-1.11,5.15-3.16,7.82-3.97,12.58-.27.18-.53.71-1,1-.24.15-.76-.15-1,0-1.21-3.18,2.43-5.91,2.72-7.64.18-1.07-.69-2.45-.61-3.74.25-3.72,3.08-9.41-4.16-7.19-6.83,2.1-2.06,10.96-5.96,15.57,0-.13-.96-1.15-1.03-2.43-.19-3.22,1.64-9.65-2.46-10.58-.65-.01-.85,11.87-.51,13.01h-1c.02-4.88.93-18.83-1-22-.71-1.16-4.86-4.19-5-4.73-.45-1.69-.11-6.62,0-8.78.19-3.78,3.06-4.71-2.99-5.49-.06,2.39.69,4.14-1.01,6,.5-4.48.32-4.36-2-7,1.43-1.4,2.99-.67,5-2,.35-.23.85-1.66,2.03-2.43,1.36-.89,4.03-.98,4.75-1.8,3.04-3.45-1.6-11.72-5.7-8.68-.33.25-1.57,5.72-5.09,5.92,0-.09-.85-.6-1-1,.67-.62,2.98-2.5,3.03-2.7,1.41-5.55-4.73-7.82-9.03-5.3.15-.15-.56-1.75.63-2.04,1.35-.33,10.27-.25,11.85.06,2.06.4,3.69,2.69,5.52,3.98ZM29.01,94.98c.24.28,6.09,3.6,6.46,3.62,1.07.05,4.52-1.25,4.51-2.1-.04-2.71-14.3-5.47-10.97-1.52ZM51,95c-.12-.04-.5-1.47-1.66-1.8-2.01-.56-4.27-.12-6.33-.2-.21,4.39,4.37,1.32,6.99,2.99,2.26,1.44,2.7,2.98,7,1.99.23-4.29-4.21-2.44-6-2.99Z"/>
      <path class="cls-1" d="M46,127c-.05,1.33.08,2.68,0,4-.09,1.41-1.07,2.26.15,4.33,1.14,1.91,2.24,1.25,2.85,1.67.35.25.62,1.51,1,2-6.02-.94-3.77-2.25-5.62-2.86-1.57-.52-4.61.3-5.27-.26-.18-.16-1.17-4.44-1.01-4.73.19-.35,5.79-3.45,6.9-4.15.24-.15.76.15,1,0Z"/>
      <path class="cls-16" d="M61,118c0,1.66.33,3.44-.49,5.01-2.06,3.95-6.06,3.59-9.51,3.99v-3c.8-.49,1.4-1.64,2-2,1.39-.84,3-2.49,4-3s2.82-.55,4-1Z"/>
      <path class="cls-56" d="M60,98c.08,1.69-.37,4.76,0,6-3.13.65-4.15,2.9-4,6h-2c.45-6.81.76-3.31,2.46-6,1.26-2-.62-6.13,3.54-6Z"/>
      <path class="cls-12" d="M60,104c.12.39,1.98.94,2.01,1.64.07,1.54-1.88,3.95-2.01,5.36l-3,1c-.18-2.2-.99-1.89-1-2-.15-3.1.87-5.35,4-6Z"/>
      <path class="cls-32" d="M60,111c-.17,1.92.99,4.52,1,7-1.18.45-2.96.47-4,1-.13-2.31.19-4.7,0-7l3-1Z"/>
      <path class="cls-35" d="M51,124v3c-3.75.43-3.16.61-5,4,.08-1.32-.05-2.67,0-4,.47-.29.73-.82,1-1,2.1-1.36,3.24-1.54,4-2Z"/>
      <path class="cls-34" d="M10,79c5.29.98,2.05,6.44,3.55,10.95,1.13,3.41,5.19,4.74,5.96,6.04.97,1.64.11,4.39.57,4.96.35.43,2.28-.18,2.92.05,4.28,1.54,3.29,3.51,3,8-.11,1.72-.52,3.36-1,5-5.03.43-5.96-1.46-9-2-.32-2.54.59-6.08-.14-8.39-.56-1.77-2.57-1.33-2.86-1.61s-2.88-6.32-2.97-6.7c-.62-2.56-1.4-11.73-1.03-14.3.06-.42.71-1.47,1-2Z"/>
      <path class="cls-38" d="M22,89c1.69-1.85.94-3.61,1.01-6,6.05.78,3.19,1.71,2.99,5.49-.11,2.16-.46,7.09,0,8.78.14.54,4.3,3.57,5,4.73-2.66,2.68.66,8.32-2,11,.26-.57,0-3.83,0-5,0-11.31-4.44-5.38-6-7-.18-.18.27-3.09-.16-4.35-.48-1.4-5.91-3.05-2.84-6.65.33-.39,1.61-.57,2-1Z"/>
      <path class="cls-45" d="M23,134c.51-5.22-1.67-13.36,6.01-12.44.44,2.99-1.89,9.21,2.99,9.44-.14,1.75.11,3.45-1,5-1.88-.66-5.78-1.13-8-2Z"/>
      <path class="cls-38" d="M35,136l-3,1c-.16-.82-.31-.76-1-1,1.11-1.55.86-3.25,1-5,.2-2.4-.01-4.59,0-7h1c1.49,4.97,2.31,5.36,2,12Z"/>
      <path class="cls-43" d="M29,108c0,1.17.26,4.43,0,5-.34.74-3.03.92-4,1,.48-1.64.89-3.28,1-5l3-1Z"/>
      <path class="cls-22" d="M30,5c2.18-.53,14.78-.28,17.27.23,11.72,2.38,20.19,19.71,21.47,30.53.64,5.45-1.07,5.84-1.74,10.24-.75,4.88,1.05,8.01-3,12-3.01,2.97-3.32,1.47-6.31,2.97-.8.4-1.19,1.71-1.69,2.03-8.15.32-16.72,1.3-19.99-7.99,10.01.22,5.07-.32,3.54-4.04-.78-1.89-.61-3.86-1.54-5.96-1.91-4.32-9.16-12.52-14.32-9.09-1.69,1.12-1.09,6.12-4.56,3.95-2.87-1.79-2.05-15.29-2.12-18.87,1.97-7.39,5.8-10.99,12-15,.42-.27.88-.97,1-1ZM57,45c-.21-4.93-16.15-4.45-15,1.47.5,2.57,7.61,1.12,8,1.53.46.47-.99,5.16.99,6.01.61,1.89,4.24.75,5.99.99.76-1.84-1.64-3.61-1.63-4.49,0-.81,1.76-2.37,1.63-5.51Z"/>
      <path class="cls-37" d="M38,45c.93,2.1.76,4.07,1.54,5.96,1.53,3.73,6.47,4.26-3.54,4.04,3.27,9.29,11.85,8.32,19.99,7.99-2.35,1.5-13.25,1.5-16.29.79-4.13-.95-8.03-7.27-9.71-7.79,1.63-.95,2.42-1.37,2.02-3.5-.22-.66-2.22-.67-3.02-1.5,3.2.03,4.76-.66,7-3,.82-.85,1.22-2.1,2-3Z"/>
      <path class="cls-27" d="M23,60c6.99.61,5,1.74,9,5v1c-1.83-1.3-3.47-3.58-5.52-3.98-1.58-.31-10.5-.39-11.85-.06-1.19.29-.48,1.89-.63,2.04-2.39,2.37-5.41,4.79-8,7-.06-.29,0-.69,0-1,.03-1.64.99-2.81,1-3,2.33-.39,5.98-6.83,6.7-7.02,1.52-.4,7.29-.16,9.3.02Z"/>
      <path class="cls-17" d="M63,70c.54-.09,1.43-.07,2,0s1.36.81,2,1c.06,4.11.24,6.08-1,10-3.53.3-1.68-4.63-3.57-6.98-.56-.7-1.54-.97-2.42-1.04-.33-2.33,1.15-2.67,2.99-2.98Z"/>
      <path class="cls-27" d="M65,70c-.57-.07-1.46-.09-2,0-.85-2.23-2.53-1.95-4.43-2.06-7.21-.44-17.51,1.22-24.08.05-2.16-.39-1.94-1.6-2.48-1.98v-1c5.5,4.48,21.92.64,29.48,2.02,1.87.34,2.79,1.33,3.52,2.98Z"/>
      <path class="cls-28" d="M29,51c.8.83,2.81.84,3.02,1.5.4,2.13-.39,2.55-2.02,3.5-.24-.08-.73-.03-1,0-2.37-1.11-3.71-3.47-4-6,1.46.46,2.19.98,4,1Z"/>
      <path class="cls-10" d="M29,51c-1.13-1.17-3.79-4.12-4.02-5.55-.42-2.64,1.05-10,3.97-7.42.17.15-.03,2.01.58,2.89,1.53,2.23,7.4,2.17,6.47,7.07-2.24,2.34-3.8,3.03-7,3Z"/>
      <path class="cls-52" d="M35,136c-.03.66.08,1.36,0,2-.42,3.32-2.44.81-1.99,3.99.86.67,9.97-1.38,8.99,3.01v1c-2,.01-4-.05-6,0-6.76-1.2-3.03-3.99-4-9l3-1Z"/>
      <path class="cls-8" d="M6,71c.88,4.16,2.75,1.22,4,5-1.1.61-4.75.49-5.06,1.61-.79,2.83.69,9.03.07,12.38,2.49-1.36-.48-9.1,3.99-8.99-.36,2.57.41,11.74,1.03,14.3.09.38,2.69,6.43,2.97,6.7-.48.12-.93.53-1,1-4.12-1.72-1.84-7.12-7-8-.01-9.18-1.35-14.94,0-25h1c0,.31-.06.71,0,1Z"/>
      <path class="cls-24" d="M45,127c-1.11.7-6.71,3.8-6.9,4.15-.16.29.83,4.58,1.01,4.73.66.56,3.7-.26,5.27.26,1.84.61-.4,1.91,5.62,2.86,3.03.48,3.19-.49,4,3-4.08,1.09-7.58,3.83-12,3,.97-4.39-8.14-2.33-8.99-3.01-.44-3.18,1.57-.67,1.99-3.99,2.42-3.25,1.07-7.72,1.06-11.39,0-1.06.95-2.25.94-2.61,3.9-4.6-.88-13.46,5.96-15.57,7.23-2.23,4.4,3.47,4.16,7.19-.09,1.28.79,2.66.61,3.74-.29,1.73-3.93,4.47-2.72,7.64Z"/>
      <path class="cls-25" d="M60,86c-1.42.36-3.99-.14-5.41.9-1.09.8-.04,2.85-1.15,3.16-2.29.64-8.82-.23-11.07-1.44-1.1-.59-3.5-4.59-4.4-5.09-2.33-1.31-6.51.6-5.82-3.82.24-1.55,7.55-9.24,8.49-9.54,1.46-.47,10.31-.49,11.7,0,.5.17,7.34,7.02,7.51,7.53,1.09,3.26-2.84,2.71-2.83,3.81,0,.74,2.55.03,2.98,4.5Z"/>
      <path class="cls-29" d="M14,64c4.3-2.52,10.44-.25,9.03,5.3-.05.2-2.36,2.08-3.03,2.7-.6.56-1.72,1.79-2,2-3,2.19-4.03,1.94-7,3-.21-.38-.91-.73-1-1-1.25-3.78-3.12-.84-4-5,2.59-2.21,5.61-4.63,8-7Z"/>
      <path class="cls-26" d="M21,73c3.51-.2,4.75-5.67,5.09-5.92,4.1-3.04,8.74,5.23,5.7,8.68-.73.83-3.4.92-4.75,1.8-1.18.77-1.68,2.2-2.03,2.43h-5.01c-.88-2.36.95-5.41,1.01-7Z"/>
      <path class="cls-33" d="M37,124c.01.36-.94,1.54-.94,2.61,0,3.68,1.36,8.14-1.06,11.39.08-.64-.03-1.34,0-2,.31-6.64-.51-7.03-2-12-.34-1.14-.14-13.02.51-13.01,4.09.93,2.26,7.36,2.46,10.58.08,1.28,1.03,2.3,1.03,2.43Z"/>
      <path class="cls-54" d="M54,111c-.28,3.68.11,7.36-1,11-.6.36-1.2,1.51-2,2-.76.46-1.9.64-4,2,.8-4.76,2.86-7.43,3.97-12.58.56-2.6-.89-2.73,3.03-2.42Z"/>
      <path class="cls-23" d="M17,80c1.92-.43,2.08.95,3,2,2.32,2.64,2.5,2.52,2,7-.39.43-1.67.61-2,1-5.37.99-4.94-7.02-3-10Z"/>
      <path class="cls-18" d="M29.01,94.98c-3.33-3.95,10.93-1.19,10.97,1.52.01.85-3.44,2.15-4.51,2.1-.37-.02-6.23-3.34-6.46-3.62Z"/>
      <path class="cls-3" d="M56,110c0,.11.82-.2,1,2s-.13,4.69,0,7c-1,.51-2.61,2.16-4,3,1.11-3.64.72-7.32,1-11,.02-.33-.02-.67,0-1h2Z"/>
      <path class="cls-14" d="M21,73c-.06,1.59-1.89,4.64-1.01,7h5.01c-2.01,1.33-3.57.6-5,2-.92-1.05-1.08-2.43-3-2,.92-1.42,4.24-2.46,1-6,.28-.21,1.4-1.44,2-2,.15.4,1,.91,1,1Z"/>
      <path class="cls-22" d="M51,95l-1,1c-2.62-1.68-7.2,1.39-6.99-2.99,2.06.08,4.32-.36,6.33.2,1.16.32,1.55,1.76,1.66,1.8Z"/>
      <path class="cls-50" d="M51,95c1.78.55,6.22-1.29,6,2.99-4.29.99-4.74-.55-7-1.99l1-1Z"/>
      <path class="cls-36" d="M18,74c3.24,3.54-.08,4.58-1,6-1.94,2.98-2.37,10.99,3,10-3.07,3.6,2.36,5.25,2.84,6.65.43,1.26-.01,4.17.16,4.35-.64-.23-2.57.39-2.92-.05-.46-.57.4-3.31-.57-4.96-.77-1.3-4.83-2.63-5.96-6.04-1.5-4.51,1.74-9.97-3.55-10.95.27-.49.89-1.96,1-2,2.97-1.06,4-.81,7-3Z"/>
      <path class="cls-48" d="M10,76c.09.27.79.62,1,1-.11.04-.73,1.51-1,2-.29.53-.94,1.58-1,2-4.47-.1-1.5,7.64-3.99,8.99.61-3.35-.86-9.55-.07-12.38.31-1.13,3.96-1,5.06-1.61Z"/>
      <path class="cls-20" d="M29,108l-3,1c.29-4.49,1.28-6.46-3-8,1.56,1.62,6-4.31,6,7Z"/>
      <path class="cls-13" d="M51,54c-1.99-.85-.54-5.54-.99-6.01-.4-.41-7.5,1.04-8-1.53-1.15-5.92,14.79-6.4,15-1.47-1.69.25-5.22-2.16-6.53,0-.23.39.39,8.57.53,9Z"/>
      <path class="cls-5" d="M57,45c.13,3.14-1.62,4.69-1.63,5.51-.01.88,2.39,2.65,1.63,4.49-1.75-.24-5.38.89-5.99-.99-.14-.43-.76-8.62-.53-9,1.31-2.16,4.83.26,6.53,0Z"/>
    </g>
  </g>
</svg>