<?xml version="1.0" encoding="UTF-8"?>
<svg id="_Слой_2" data-name="Слой 2" xmlns="http://www.w3.org/2000/svg" viewBox="0 0 97 154">
  <defs>
    <style>
      .cls-1 {
        fill: #392920;
      }

      .cls-2 {
        fill: #471f13;
      }

      .cls-3 {
        fill: #461f13;
      }

      .cls-4 {
        fill: #644135;
      }

      .cls-5 {
        fill: #321c16;
      }

      .cls-6 {
        fill: #d49c81;
      }

      .cls-7 {
        fill: #472014;
      }

      .cls-8 {
        fill: #50291e;
      }

      .cls-9 {
        fill: #f8cdaf;
      }

      .cls-10 {
        fill: #441d12;
      }

      .cls-11 {
        fill: #fbdfc8;
      }

      .cls-12 {
        fill: #452b24;
      }

      .cls-13 {
        fill: #e7a682;
      }

      .cls-14 {
        fill: #5b3123;
      }

      .cls-15 {
        fill: #995c43;
      }

      .cls-16 {
        fill: #f3caad;
      }

      .cls-17 {
        fill: #fbd0b2;
      }

      .cls-18 {
        fill: #f7ccaf;
      }

      .cls-19 {
        fill: #3d241c;
      }

      .cls-20 {
        fill: #eac2a7;
      }

      .cls-21 {
        fill: #401a0f;
      }

      .cls-22 {
        fill: #3c221a;
      }

      .cls-23 {
        fill: #421c11;
      }

      .cls-24 {
        fill: #e5a07c;
      }

      .cls-25 {
        fill: #d29377;
      }

      .cls-26 {
        fill: #431c11;
      }

      .cls-27 {
        fill: #f7cdb0;
      }

      .cls-28 {
        fill: #fdd4b6;
      }

      .cls-29 {
        fill: #a6654b;
      }

      .cls-30 {
        fill: #fde4ce;
      }

      .cls-31 {
        fill: #95573e;
      }

      .cls-32 {
        fill: #cb896d;
      }

      .cls-33 {
        fill: #98583f;
      }

      .cls-34 {
        fill: #3c241c;
      }

      .cls-35 {
        fill: #d79579;
      }

      .cls-36 {
        fill: #965840;
      }

      .cls-37 {
        fill: #e1a07d;
      }

      .cls-38 {
        fill: #b9aba8;
      }

      .cls-39 {
        fill: #fbe1cb;
      }

      .cls-40 {
        fill: #ce8c70;
      }

      .cls-41 {
        fill: #e5a07b;
      }

      .cls-42 {
        fill: #fbdcc4;
      }

      .cls-43 {
        fill: #d39074;
      }

      .cls-44 {
        fill: #f3f1f0;
      }

      .cls-45 {
        fill: #e0a07f;
      }

      .cls-46 {
        fill: #8d4d35;
      }

      .cls-47 {
        fill: #fcd1b3;
      }

      .cls-48 {
        fill: #472e27;
      }

      .cls-49 {
        fill: #5d3021;
      }

      .cls-50 {
        fill: #d39072;
      }

      .cls-51 {
        fill: #ce8b6f;
      }

      .cls-52 {
        fill: #fbd2b4;
      }

      .cls-53 {
        fill: #431d13;
      }

      .cls-54 {
        fill: #461f14;
      }

      .cls-55 {
        fill: #f8c9aa;
      }

      .cls-56 {
        fill: #da9d81;
      }

      .cls-57 {
        fill: #f9dcc5;
      }

      .cls-58 {
        fill: #f4c7a9;
      }

      .cls-59 {
        fill: #f8cfb2;
      }

      .cls-60 {
        fill: #f8caab;
      }

      .cls-61 {
        fill: #f4d6bf;
      }

      .cls-62 {
        fill: #e39f7b;
      }

      .cls-63 {
        fill: #854b36;
      }

      .cls-64 {
        fill: #d99b7d;
      }

      .cls-65 {
        fill: #8c4c35;
      }

      .cls-66 {
        fill: #8c4c34;
      }

      .cls-67 {
        fill: #e4a07c;
      }

      .cls-68 {
        fill: #492317;
      }
    </style>
  </defs>
  <g id="_Слой_12_Изображение" data-name="Слой 12 Изображение">
    <g>
      <path class="cls-23" d="M34,2c5.74-.71,22.34-.76,28,0,2.92.39,1.74,1.48,4,3-.38.04-1.82,1.52-3,1-1.87-.5-4.5-.89-6.46-1.04-13.78-1.08-26.19-.72-33.54,12.04-4.97,8.63-1.71,13.06-4.07,21.22-.33,1.14-1.81,1.47-1.93,1.78-1.45,3.73-.56,7.32,2,10l-3,1c-3.06-3.75-3.67-5.35-3.02-10.53.44-3.53,2.5-4.57,2.98-7.01,1.68-8.52-.88-13.97,5.04-21.96,2-2.7,9.87-9.12,13-9.5Z"/>
      <path class="cls-20" d="M92,90c-.04,5.02.42,10.66.06,15.55-.21,2.81-2.98,4.72-1.06,8.45-.26.12-.68-.1-1,0-3.96,1.21-12.15,2.96-13-2,4.29,1.13,10.48-4.68,5.48-6.99-1.86-.86-2.09,4.4-5.48,2.99.04-1.68-.37-3.81.17-5.35.38-1.09,1.95-1.54,2.87-2.41.5-.47.66-2.1.96-2.25.59-.29,2.77.29,3,0,.42-.51-.61-3.98.15-4.87.27-.32,6.61-2.63,7.85-3.14Z"/>
      <path class="cls-25" d="M10,62c.25,1.49-.36,7.65,0,8.01.29.29,5.96-.14,8.11.43,1.9.5,1.71,2.14,3.12,2.87,1.32.68,3.8.4,4.81,1.17s3.26,11.53,4.51,13.5c.85,1.34,2.82,1.4,3.45,2.03.2.2-.27,1.66.03,1.99s1.52-.96,1.97-.99c.09.64-.13,1.42,0,2-8.52-.76-4.73.25-6.14,4.37-.48,1.4-2.61,1.28-2.88,2.33-.67,2.58.28,8.05.02,11.3-.12,1.52-.81,3.73-1,6-1.23-5.15-1.77-14.36-1.06-19.56.5-3.61,5.31-6.17,2.52-10.46-2.17-3.32-1.52-3.17-2.98-5.95-1.15-2.18-3.62-4.4-4.48-7.04h-3c-.39.36.28,8.13,0,10-.17,1.13.17,1.27-1,2v-12l-.53-.94c-2.64-.69-5.06.61-7.47.94-.96.13-2.02-.09-3,0-.22-3.02.97-3.34-3-3,.2-.87,1.68-2.07,2-3,1.02,1.95,1.68,2.36,4,2,.11-2.08-.35-4.3.2-6.35.33-1.2,1.75-1.52,1.8-1.66Z"/>
      <path class="cls-21" d="M23,95c.54,6.22-.73,13.48-.05,19.55.25,2.26.34,3.47,3.05,3.45-.06.66.07,1.34,0,2-.1.98.12,2.02,0,3-.27,2.18-.61,2.5-1,4-1.8-1.1-.81-4.11-1.01-6-.76-.26-.86,1-.99,1-5.76.07-1.68-11.69-2.99-13.01-.49-.49-8.29.55-10.4-.13-1.71-.55-1.41-2.7-1.61-2.86v-1c4.24-.75,10.97,2.35,12-3,.16-.81,0-2.06,0-3l.81-.67c.23-2.49-.22-6.36,2.19-3.33Z"/>
      <path class="cls-10" d="M2,71c3.97-.34,2.78-.02,3,3s-.04,6.04,0,9c.05,4.1-1.98,15.24,3,16-.02,2,.02,4,0,6v1c-2.7-2.23-6.11-2.28-6.94-7.56-.88-5.57-.33-21.85.94-27.44Z"/>
      <path class="cls-26" d="M73,9c1.14,1.13,7,7.83,7,8.5v16c0,.29,2.06,1.58,2.48,2.52,1.01,2.23.61,6.86.51,9.53-.07,1.92,1.03,4.01-2,3.45.26-3.06-.07-6.08-1-9-.1-.3-1.76-.77-1.96-1.74-.97-4.61-.03-13.25-1.25-17.55-.76-2.69-6.15-6.98-5.79-10.71.17-.01,1.25-1.15,2-1Z"/>
      <path class="cls-23" d="M80,91c1.38,2.53,1.16,4.08,1,7-.3.15-.46,1.77-.96,2.25-.92.87-2.49,1.32-2.87,2.41-.53,1.53-.12,3.67-.17,5.35-.03,1.21-.19,2.91,0,4,.85,4.96,9.04,3.21,13,2-1.55,7.6-10.87.98-15,7,0-.16-.96-1.38-1-3-.09-3.5.72-16.17,0-18,3.7.54,2.44-.55,3-2,1.43-3.66-.05-7.69,3-7Z"/>
      <path class="cls-7" d="M54,111c.49-.41,1.7-3.65,2.99-1.99,1.58,2.03-1.91,3.32-1.98,3.67-.28,1.46-.35,9.1-.02,10.33.15.54,1.88.42,2,3-.89,1.08-2.86-.06-3,0-1.66-.74-2.63-1.65-2.98-3.52-.45-2.37,1.49-7.3-2.02-6.47.15,6.16,1.17,8.31-4.01,11.99-.28-.94-1.14-1.09-2-1,0-1.67-.01-3.33,0-5,5.55-.14,1.87-8.88,3-10,.56-.56,5.42,1.13,8-1Z"/>
      <path class="cls-5" d="M95,75c-1.33,10.18,1.79,24.94.01,34.53-.19,1-3.38,4.19-4.01,4.47-1.92-3.73.85-5.64,1.06-8.45.36-4.89-.1-10.53-.06-15.55,0-1,.02-2,0-3-.05-2.33.1-4.68,0-7-.04-.99.11-2.03,0-3,.77-1.25,1.34-2.35,3-2Z"/>
      <path class="cls-12" d="M45,128c-.63.45-2.41-1.39-2.06,2.49.27,3,2.34,3.99,2.85,6.22,1.25,5.41,1.12,11.3-3.8,14.3-1.04-1.66-3.79-1-5.49-1.02-4.91-.06-11.94-.58-16.51.02v-1c6.12-.45,13,.62,19,0,5.22-.54,4.99-5.62,4.01-10.52-.51-2.56-2.5-2.15-3.45-3.55-.21-.31-2.85-6.7-2.56-6.93,1.97.9,4.04-.87,5-1,.33-.05.67.04,1,0,.86-.09,1.72.06,2,1Z"/>
      <path class="cls-8" d="M81,50c-.77,3.63-4.32,2.6-5.98,6.5,2.07,2.63,5.25.82,7.97,2.01,1.42.62,2.08,2.54,3.01,3.49-2.54-.19-1.11,1.63-4,2-.33.04-.67-.02-1,0,.03-.81-.83-1.49-1-2-.19-.58.59-1.76-.62-2.05-4.09-.97-10.99,2.84-8.38-4.95.26-.52-.38-2.5.05-2.93.4-.39,2.17.09,2.95-.07.6-.12,1.46.23,2.29-.02.62-.19,1.43-3.38,4.71-1.98Z"/>
      <path class="cls-23" d="M25,127c-.33,1.25-1.43,3.34-2,5-1.13,3.27-2.66,5.43-3,9-.25,2.62.18,5.37,0,8v1c-.07,0-.42.98-1,1-2.59-1.97-2.55-11.32-1.96-14.46.08-.44,3.01-7.89,3.25-8.27.84-1.35,4.2-1.65,2.71-6.27.13,0,.23-1.26.99-1,.2,1.89-.79,4.9,1.01,6Z"/>
      <path class="cls-68" d="M86,62c4.23,4.35,5.96,8.02,9,13-1.66-.35-2.23.75-3,2-.1-.91.34-1.65-.27-2.72-.66-1.16-4.41-2.96-4.73-3.28-1.78-1.77-4.52-4.67-5-7,2.89-.37,1.46-2.19,4-2Z"/>
      <path class="cls-48" d="M58,142c7.05,1.63,12.59.07,19,1,.47.07.89.52,1,1-3.33,3.25-21.84,4.4-23-3,.32.17,2.5.88,3,1Z"/>
      <path class="cls-16" d="M80,40c.93,2.92,1.26,5.94,1,9-.03.33.06.7,0,1-3.28-1.41-4.1,1.79-4.71,1.98-.82.26-1.69-.1-2.29.02-.71-3.82.89-6.66,2.72-9.81.91-1.57-.54-2.87,3.28-2.19Z"/>
      <path class="cls-53" d="M57,126c.2,4.39-3.05,8.35-2,15-2.58-1.37-3.48-.25-4.05-4.45-.5-3.68-.69-8.89,3.05-10.55.14-.06,2.11,1.08,3,0Z"/>
      <path class="cls-34" d="M42,151c-4.14,2.52-19.29,2.83-23,0,.58-.02.93-.99,1-1,4.58-.6,11.61-.08,16.51-.02,1.69.02,4.45-.64,5.49,1.02Z"/>
      <path class="cls-14" d="M19,50c.43.45.78,1.54,1.25,1.74,1.17.49,1.93.11,2.75.26s2.3-.38,2.87.13c.46.41-.03,1.61.13,1.87,1.42,6.24-8.53.78-12,4-1.07.09-2.08.48-3,1,0-.18-1.13-1.27-1-2,2.83-1.55,6.34-.39,8.03-1.47,2.85-1.81-.93-3.18-2.03-4.53l3-1Z"/>
      <path class="cls-22" d="M75,128c.15.14,1.46-.34,1.82.14.56.75-.08,2.89.43,4.08,1.71,4.05,5.41,7.23.75,11.78-.11-.48-.53-.93-1-1v-1c-.06-5.77,1.55-5.5-3-8,.12-1.65-.17-3.37,0-5,.05-.46.53-.9,1-1Z"/>
      <path class="cls-54" d="M11,59c0,.32.05.69,0,1-.02.11-.71,1.27-1,2-.05.13-1.47.46-1.8,1.66-.56,2.04-.09,4.27-.2,6.35-2.31.35-2.98-.06-4-2,1.32-3.86,1.86-8.74,6-11-.13.73,1,1.82,1,2Z"/>
      <path class="cls-49" d="M75,121c.06,1.23-2.46,4.71,0,7-.47.1-.95.54-1,1-6.4-1.85-2.98-5.38-3-10l3-1c.04,1.62.99,2.84,1,3Z"/>
      <path class="cls-38" d="M62,2c-5.66-.76-22.26-.71-28,0,1.04-1.66,3.79-1,5.49-1.02,7.22-.08,15.64-.75,22.51,1.02Z"/>
      <path class="cls-4" d="M73,9c-.75-.15-1.83.99-2,1-.32.02-.82.08-1,0-1.3-.57-4.62-3.37-7-4,1.18.52,2.62-.96,3-1,4.81-.56,4.57,1.6,7,4Z"/>
      <path class="cls-28" d="M63,6c2.38.63,5.7,3.43,7,4-1.14,9.28,4.38,22.67-3.48,30.02-3.18,2.98-8.81,1.71-9.52,5.98-1.01,2.82,3.92,1.9,3.02,5.5-.05.21-3.92,1.59-2.02,3.5.31.31,4.76-.19,6.01.01-.17-2.29.23-4.74,0-7.01,1.58-.83,2.54-2.64,3,.53.89,6.11.41,8.9-5,12.47-1.96.81-3.6,2.6-5.55,2.96-5.06.93-12.12-.58-17.45.04-.93-.15-1.54-.94-4-1-.88-.02-2.32-.18-3,0-.15-.71-.85-1.41-1-2-.89-3.51-3.63-12.02-1.01-14.51,1.81-1.72,2.22.57,3.01,1.51-.24,2.27.16,4.72,0,7.01h6c.49-2-2.04-2.73-2.01-4.5.03-1.56,2.99-3.8,2.01-6.51-.7-1.94-5.53-.41-7.98-1.52-1.3-.59-6.98-7.07-7.47-8.53-1.62-4.8.04-11.82-.55-16.95C30.35,4.23,42.76,3.88,56.54,4.96c1.96.15,4.59.54,6.46,1.04Z"/>
      <path class="cls-67" d="M39,44c-4.66-.17-5.51-.63-6,4-.8-.94-1.21-3.23-3.01-1.51-2.62,2.49.13,11,1.01,14.51-.72.13-1.84-1-2-1-.46-2.26-1.82-4.1-3-6-.16-.26.34-1.46-.13-1.87-.58-.51-2.07.01-2.87-.13,1.27-2.78-1.11-7.53-2.53-10-1.07-1.85-.19-2.55-3.47-2,.12-.31,1.6-.64,1.93-1.78,2.36-8.16-.9-12.59,4.07-21.22.59,5.13-1.08,12.15.55,16.95.49,1.46,6.17,7.94,7.47,8.53,2.45,1.11,7.28-.42,7.98,1.52Z"/>
      <path class="cls-27" d="M17,40c3.27-.55,2.4.15,3.47,2,1.43,2.47,3.8,7.22,2.53,10-.82-.15-1.58.23-2.75-.26-.48-.2-.83-1.29-1.25-1.74-2.56-2.68-3.45-6.27-2-10Z"/>
      <path class="cls-64" d="M88,79c.07.32-.08.69,0,1,.71,2.84.74,7.26,4,7,.02,1,0,2,0,3-1.24.5-7.57,2.82-7.85,3.14-.76.89.27,4.36-.15,4.87-.23.28-2.42-.3-3,0,.16-2.92.38-4.47-1-7-.15-.27.16-.81,0-1,8.3,3.23,9.39-9.09,4.5-10-1.31-.24-8.95-.33-9.96-.06-1.22.33-.25,2.6-.54,3.06-.09.14-2.32-.04-2.86,1.61s-.14,4.5-.14,6.39c-1.78,1.66-.98,5.5-1,8-2.03-2.3-4.87-7.28-8-8,.34-.3.79-.6,1-1,1.62-2.98,2.74-2.92,3.87-4.59,1.31-1.94.96-4.93,3.13-6.41,3.16-2.15,13.97-1.05,18,0Z"/>
      <path class="cls-15" d="M77,112c-.19-1.09-.03-2.79,0-4,3.4,1.41,3.62-3.85,5.48-2.99,5,2.31-1.2,8.12-5.48,6.99Z"/>
      <path class="cls-41" d="M36,91c6.62-.39,7.84.23,13.52,2.01.56.18.3-1.79,1.13-2.01,1.13-.3,10.07-.29,11.35,0,3.13.72,5.97,5.7,8,8-.05,6.94.97,13.25,1,20,.02,4.62-3.4,8.15,3,10-.17,1.63.12,3.35,0,5-9.09-4.99-16.92-4.03-16,8-.5-.12-2.68-.83-3-1-1.05-6.65,2.2-10.61,2-15-.12-2.58-1.85-2.46-2-3,2.58-1.87,5.05-1.5,6-5-.12,1.31.07,2.68,0,4,6.55.1,8.99-3.56,6.04-9.54l-5.05,1.55c1.67-5.4,5.77-6.59,5.99-11.99-1.66-1.68-7.86,5.09-9.73,5.78-1.29.48-3.59-.16-4.19.34-.49.41.14,2.63-.07,2.87-.53.59-13.38-.12-16,0-.52.02-1.33-.84-3,0-2.99,1.51-1.45,4.37-3,7-3.49-1.2-.99-7.67-5-7,.26-3.25-.69-8.72-.02-11.3.27-1.05,2.4-.93,2.88-2.33,1.42-4.12-2.37-5.13,6.14-4.37,1,4.41,4.27,5.19,8.01,3.99.7-3.42-2.3-1.42-4.32-2.01-1.01-.29.44-1.61-3.69-1.98-.13-.58.09-1.36,0-2ZM57,101c1.84-1.85,6.57-5.13,3.06-7.55-3.72-2.57-5.04,1.12-5.34,1.23-1.65.57-3.82-.12-4.72,1.33-3.04.93,1.15,3.22,3,4,.28.12.7-.11,1,0,.56,3.02-1.53,1.93-3.45,2-2.22.08-11.53-.77-11.53,1.5,0,1.9,12.33,2.02,14.25,1.5.26-.07,2.91-3.19,3.73-4Z"/>
      <path class="cls-30" d="M28,60c.33-.03.67,0,1,0,.16,0,1.28,1.13,2,1,.15.59.85,1.29,1,2-4.42,1.14-.33,2.21,0,2.69.64.9.66,2.44,1.49,3.3,1.39,1.44,11.67,5.4,12.08,5.93,2.74,3.57-2.18,4.84-2.41,5.21-1.62,2.61,2.13,3.91,2.84,4.86,1.22,7.64-6.9,4.42-12,5-.63-.63-2.6-.7-3.45-2.03-1.25-1.97-3.47-12.7-4.51-13.5s-3.49-.49-4.81-1.17c-1.41-.73-1.22-2.37-3.12-2.87-2.16-.56-7.83-.14-8.11-.43-.35-.35.25-6.52,0-8.01.29-.73.98-1.89,1-2,3.74,1.68,9.51,1.2,13.62,1.07,1.88-.06,3.03-1.04,3.38-1.07Z"/>
      <path class="cls-2" d="M23,84c2.31,5.52,5.05,5.29,0,11-2.42-3.02-1.97.84-2.19,3.33l-.81.67c0-.33.03-.68,0-1-.72-6.67-1.14-3.17-4.51-5.99-1.55-1.3-2.36-2.94-3.49-4.01.75-1.78,3.1-1.44,4-2,1.17-.73.83-.87,1-2,2.04-.83,3.96-.83,6,0Z"/>
      <path class="cls-40" d="M20,74c.85,2.64,3.33,4.86,4.48,7.04,1.47,2.78.82,2.62,2.98,5.95,2.79,4.28-2.02,6.85-2.52,10.46-.72,5.2-.18,14.41,1.06,19.56-.03.33.03.67,0,1-2.71.02-2.8-1.19-3.05-3.45-.67-6.07.6-13.33.05-19.55,5.05-5.71,2.31-5.48,0-11-.18-.44.15-1.48-.21-2.29-1.04-2.4-4.07-3.68-2.79-7.71Z"/>
      <path class="cls-62" d="M16,74c-9.17-1.6-5.24,7.13-6,13-.5,3.84-1.94,6.16-2,12-4.98-.76-2.95-11.9-3-16,3.87.44,2.9-6.03,3-9,2.4-.33,4.83-1.63,7.47-.94l.53.94Z"/>
      <path class="cls-9" d="M16,74v12c-.9.56-3.25.22-4,2-.44-.41-1.44-.61-2-1,.76-5.87-3.17-14.6,6-13Z"/>
      <path class="cls-57" d="M27,111c4.01-.67,1.51,5.8,5,7,.24.08.65-.02,1,0v2c-2.47.77-4.05,2.02-7,0,.07-.66-.06-1.34,0-2,.03-.33-.03-.67,0-1,.19-2.27.88-4.48,1-6Z"/>
      <path class="cls-13" d="M46,85c1.08,1.47,1.21,2.16,1.01,4h.98c-.17-.91.71-1.39,1.01-2,.58,5.51,9.88,2.12,14,3-.21.4-.66.7-1,1-1.27-.29-10.21-.3-11.35,0-.84.22-.57,2.19-1.13,2.01-5.68-1.77-6.9-2.4-13.52-2.01-.44.03-1.66,1.32-1.97.99s.17-1.79-.03-1.99c5.1-.58,13.22,2.64,12-5Z"/>
      <path class="cls-66" d="M20,74c-1.27,4.03,1.75,5.31,2.79,7.71.35.81.02,1.85.21,2.29-2.04-.83-3.96-.83-6,0,.29-1.87-.38-9.64,0-10.01h3Z"/>
      <path class="cls-61" d="M8,74c-.1,2.97.87,9.44-3,9-.04-2.96.22-6.07,0-9,.98-.09,2.04.13,3,0Z"/>
      <path class="cls-18" d="M12,88c1.13,1.07,1.94,2.7,3.49,4.01,3.37,2.83,3.78-.68,4.51,5.99l-4.5-2.98c-5.44,4.9-1.88,8.05,4.5,6.98-1.03,5.35-7.76,2.25-12,3,.02-2-.02-4,0-6,.06-5.84,1.5-8.16,2-12,.56.39,1.56.59,2,1Z"/>
      <path class="cls-43" d="M33,120c5.1-1.6,1.92.16,3.96,1.53s4.21-.73,6.04-1.53c.05.66,0,1.34,0,2-.01,1.67,0,3.33,0,5-.33.04-.67-.05-1,0-1.9.21-4.2-.3-6,0,.09-3.8-4.67-4.25-6-1-1.16-1.06-2.74-2.02-4-3,.12-.98-.1-2.02,0-3,2.95,2.02,4.53.77,7,0Z"/>
      <path class="cls-36" d="M20,102c-6.38,1.07-9.94-2.08-4.5-6.98l4.5,2.98c.03.32,0,.67,0,1,0,.94.16,2.19,0,3Z"/>
      <path class="cls-63" d="M30,126c.56.52.87,1.75,2,2-.14.07,1.42,2.18-.5,2.98-4.84-6.07-3.76-.53-8.5,1.02.57-1.66,1.67-3.75,2-5,.39-1.5.73-1.82,1-4,1.26.98,2.84,1.94,4,3Z"/>
      <path class="cls-24" d="M71,10c-.36,3.72,5.03,8.02,5.79,10.71,1.21,4.3.28,12.94,1.25,17.55.2.97,1.86,1.44,1.96,1.74-3.82-.68-2.37.62-3.28,2.19-1.83,3.15-3.43,5.99-2.72,9.81-.78.16-2.55-.33-2.95.07-.44.43.2,2.42-.05,2.93-.2.4-3.73,4.83-4,5-1.17.74-3.87.53-5,1,5.41-3.57,5.89-6.36,5-12.47-.46-3.17-1.42-1.36-3-.53-.67-6.45-6.35-3.83-7-2,.71-4.28,6.33-3,9.52-5.98,7.86-7.35,2.34-20.74,3.48-30.02.18.08.68.02,1,0Z"/>
      <path class="cls-32" d="M74,100c.72,1.83-.09,14.5,0,18l-3,1c-.03-6.75-1.05-13.06-1-20,.02-2.5-.78-6.34,1-8,.02,8.08,1.77,5.87,3,9Z"/>
      <path class="cls-3" d="M74,83c-1.2,3.58,4.84,5.6,6,7,.16.19-.15.73,0,1-3.05-.69-1.57,3.34-3,7,.57-1.81-.39-5.8,0-8.01h-2.99c-1.73,1.64,1.51,12.7,3,8.01-.56,1.45.7,2.54-3,2-1.23-3.13-2.98-.92-3-9,0-1.89-.39-4.78.14-6.39s2.78-1.47,2.86-1.61Z"/>
      <path class="cls-50" d="M54,111c.22-.24-.42-2.46.07-2.87.6-.5,2.89.14,4.19-.34,1.87-.69,8.07-7.46,9.73-5.78-.22,5.4-4.33,6.59-5.99,11.99-.36,1.17-.9,2.86-1,4-.95,3.5-3.42,3.13-6,5-.34-1.23-.26-8.87.02-10.33.07-.35,3.56-1.64,1.98-3.67-1.3-1.66-2.5,1.59-2.99,1.99Z"/>
      <path class="cls-65" d="M54,111c-2.58,2.13-7.44.43-8,1-1.13,1.13,2.55,9.87-3,10,0-.66.05-1.34,0-2-.44-6.32-.87-4.54-5-9,2.62-.12,15.47.59,16,0Z"/>
      <path class="cls-37" d="M87,71c.32.32,4.07,2.12,4.73,3.28.61,1.07.17,1.81.27,2.72.11.97-.04,2.01,0,3h-4c-.08-.31.07-.68,0-1-.23-1.07-.91-2.32-1-3-.22-1.58.15-3.38,0-5Z"/>
      <path class="cls-11" d="M92,80c.1,2.32-.05,4.67,0,7-3.26.26-3.29-4.16-4-7h4Z"/>
      <path class="cls-52" d="M39,149c-6,.62-12.88-.45-19,0,.18-2.63-.25-5.38,0-8,6.6-2.63,3.89-7.61,12.48-7.01s8.29,8.18,6.52,15.01Z"/>
      <path class="cls-51" d="M42,127c-.95.13-3.02,1.91-5,1-.29.23,2.35,6.63,2.56,6.93.95,1.4,2.94.99,3.45,3.55.97,4.89,1.21,9.98-4.01,10.52,1.77-6.83,1.97-14.42-6.52-15.01s-5.88,4.38-12.48,7.01c.34-3.57,1.87-5.73,3-9,4.74-1.55,3.66-7.09,8.5-1.02,1.92-.8.36-2.91.5-2.98.18-.09,3.56-.93,4-1,1.8-.3,4.1.21,6,0Z"/>
      <path class="cls-30" d="M81,64c.33-.02.67.04,1,0,.48,2.33,3.22,5.23,5,7,.15,1.62-.22,3.42,0,5-3.44,1.07-12.28,1.85-15.46,1.07-1.37-.34.9-4.25-3.03-3.06s3.19,3.74,1.49,4.99c-2.17,1.48-1.82,4.47-3.13,6.41-1.13,1.67-2.25,1.61-3.87,4.59-4.12-.88-13.42,2.51-14-3,2.85-5.71-.11-6.95.09-8.37.59-4.16,8.52-4.8,11.15-5.9,3.04-1.26,5.04-4.31,9.76-3.75.94-1.23-3.78-3.96-.36-4.86,3-.78,7.95.12,11.37-.13Z"/>
      <path class="cls-24" d="M80,62c.17.51,1.03,1.19,1,2-3.42.25-8.37-.65-11.37.13-3.42.9,1.3,3.63.36,4.86-4.72-.56-6.72,2.49-9.76,3.75-2.63,1.09-10.56,1.73-11.15,5.9-.2,1.41,2.77,2.66-.09,8.37-.3.6-1.18,1.09-1.01,1.99h-.98c.2-1.83.07-2.53-1.01-3.99-.71-.96-4.45-2.25-2.84-4.86.23-.37,5.15-1.65,2.41-5.21-.41-.53-10.68-4.5-12.08-5.93-.83-.85-.85-2.4-1.49-3.3-.34-.48-4.42-1.55,0-2.69.68-.18,2.12-.02,3,0,.87,5.74,19.22,4.73,23.51,3.99,2.28-.4,2.34-1.93,2.49-1.99,1.99-.69,6.62-2.9,7-3,2.95-.78,8.62.55,12,0Z"/>
      <path class="cls-31" d="M71,55c-2.61,7.8,4.29,3.99,8.38,4.95,1.22.29.43,1.47.62,2.05-3.38.55-9.05-.78-12,0l-1-2c.27-.17,3.8-4.6,4-5Z"/>
      <path class="cls-35" d="M77,142v1c-6.41-.93-11.95.63-19-1,6.44-1.03,12.51.15,19,0Z"/>
      <path class="cls-6" d="M14,58c4.31-.38,10.69-.84,14,2-.35.03-1.51,1.01-3.38,1.07-4.11.13-9.88.6-13.62-1.07.05-.31,0-.68,0-1,.92-.52,1.93-.91,3-1Z"/>
      <path class="cls-46" d="M29,60c-.33,0-.67-.03-1,0-3.31-2.84-9.69-2.38-14-2,3.47-3.22,13.42,2.24,12-4,1.18,1.9,2.54,3.74,3,6Z"/>
      <path class="cls-59" d="M74,134c4.55,2.5,2.94,2.23,3,8-6.49.15-12.56-1.03-19,0-.92-12.03,6.91-12.99,16-8Z"/>
      <path class="cls-1" d="M64,48c.24,2.27-.16,4.72,0,7.01-1.24-.2-5.69.3-6.01-.01-1.9-1.9,1.97-3.28,2.02-3.5.9-3.6-4.03-2.68-3.02-5.5.65-1.83,6.33-4.45,7,2Z"/>
      <path class="cls-19" d="M39,44c.98,2.71-1.98,4.95-2.01,6.51-.03,1.76,2.5,2.49,2.01,4.48h-6c.17-2.28-.23-4.73,0-6.99.49-4.63,1.34-4.17,6-4Z"/>
      <path class="cls-33" d="M39,64c.13.02.9.88,2.39,1.06,6.32.76,13.3-.92,19.61-.06-.15.05-.21,1.59-2.49,1.99-4.29.75-22.64,1.75-23.51-3.99,2.46.06,3.07.85,4,1Z"/>
      <path class="cls-29" d="M67,60l1,2c-.38.1-5.01,2.31-7,3-6.31-.86-13.29.81-19.61.06-1.5-.18-2.26-1.04-2.39-1.06,5.33-.62,12.39.89,17.45-.04,1.95-.36,3.59-2.15,5.55-2.96,1.13-.47,3.83-.26,5-1Z"/>
      <path class="cls-39" d="M80,90c-1.16-1.4-7.2-3.42-6-7,.29-.46-.68-2.74.54-3.06,1.01-.27,8.65-.18,9.96.06,4.89.91,3.8,13.23-4.5,10Z"/>
      <path class="cls-56" d="M70,79c1.7-1.25-5.35-3.82-1.49-4.99s1.66,2.72,3.03,3.06c3.18.79,12.01,0,15.46-1.07.09.68.77,1.93,1,3-4.03-1.05-14.84-2.15-18,0Z"/>
      <path class="cls-45" d="M38,111c4.13,4.46,4.56,2.68,5,9-1.83.81-4.06,2.88-6.04,1.53s1.14-3.13-3.96-1.53v-2c.99.06,2.01-.02,3,0l-1-7c1.67-.84,2.48.02,3,0Z"/>
      <path class="cls-17" d="M62,114l5.05-1.55c2.95,5.98.51,9.65-6.04,9.54.07-1.31-.13-2.69,0-4,.1-1.14.64-2.83,1-4Z"/>
      <path class="cls-60" d="M57,101c-.81.82-3.46,3.93-3.73,4-1.92.52-14.25.4-14.25-1.5,0-2.27,9.31-1.42,11.53-1.5,1.92-.07,4.01,1.02,3.45-2,.99.36,1.9.95,3,1Z"/>
      <path class="cls-47" d="M50,96c.9-1.45,3.07-.76,4.72-1.33.3-.1,1.62-3.8,5.34-1.23,3.51,2.42-1.22,5.7-3.06,7.55-1.1-.05-2.01-.64-3-1-.3-.11-.72.12-1,0,.78-1.48,2.38-2.22,2-3.99-1.46.25-3.79-.37-5,0Z"/>
      <path class="cls-17" d="M35,111l1,7c-.99-.02-2.01.06-3,0-.35-.02-.76.08-1,0,1.55-2.63,0-5.49,3-7Z"/>
      <path class="cls-55" d="M36,93c4.13.37,2.68,1.69,3.69,1.98,2.02.59,5.02-1.41,4.32,2.01-3.73,1.2-7.01.41-8.01-3.99Z"/>
      <path class="cls-42" d="M50,96c1.21-.37,3.54.25,5,0,.39,1.77-1.22,2.51-2,3.99-1.85-.78-6.04-3.07-3-4Z"/>
      <path class="cls-58" d="M36,127c-.44.07-3.82.91-4,1-1.13-.25-1.44-1.48-2-2,1.33-3.25,6.09-2.8,6,1Z"/>
      <path class="cls-44" d="M77,98c-1.49,4.69-4.72-6.36-3-8.01h2.99c-.39,2.21.58,6.2,0,8.01Z"/>
    </g>
  </g>
</svg>