<?xml version="1.0" encoding="UTF-8"?>
<svg id="_Слой_2" data-name="Слой 2" xmlns="http://www.w3.org/2000/svg" viewBox="0 0 105 150">
  <defs>
    <style>
      .cls-1 {
        fill: #915239;
      }

      .cls-2 {
        fill: #a3918c;
      }

      .cls-3 {
        fill: #d6997c;
      }

      .cls-4 {
        fill: #fcd2b4;
      }

      .cls-5 {
        fill: #d7997c;
      }

      .cls-6 {
        fill: #fde3cd;
      }

      .cls-7 {
        fill: #e0dad8;
      }

      .cls-8 {
        fill: #3d251d;
      }

      .cls-9 {
        fill: #582f21;
      }

      .cls-10 {
        fill: #5a3429;
      }

      .cls-11 {
        fill: #8c513b;
      }

      .cls-12 {
        fill: #3b231c;
      }

      .cls-13 {
        fill: #461e12;
      }

      .cls-14 {
        fill: #f9ceb1;
      }

      .cls-15 {
        fill: #fbd0b2;
      }

      .cls-16 {
        fill: #4c2316;
      }

      .cls-17 {
        fill: #54291b;
      }

      .cls-18 {
        fill: #8f4e36;
      }

      .cls-19 {
        fill: #f9cfb1;
      }

      .cls-20 {
        fill: #5c3528;
      }

      .cls-21 {
        fill: #2f1811;
      }

      .cls-22 {
        fill: #4f291e;
      }

      .cls-23 {
        fill: #50281c;
      }

      .cls-24 {
        fill: #fce3cd;
      }

      .cls-25 {
        fill: #633b2d;
      }

      .cls-26 {
        fill: #4e261a;
      }

      .cls-27 {
        fill: #e5a07c;
      }

      .cls-28 {
        fill: #d3977a;
      }

      .cls-29 {
        fill: #cb9175;
      }

      .cls-30 {
        fill: #da9875;
      }

      .cls-31 {
        fill: #3f180d;
      }

      .cls-32 {
        fill: #e5a17d;
      }

      .cls-33 {
        fill: #392119;
      }

      .cls-34 {
        fill: #fdd4b6;
      }

      .cls-35 {
        fill: #441d11;
      }

      .cls-36 {
        fill: #623c30;
      }

      .cls-37 {
        fill: #fce2cb;
      }

      .cls-38 {
        fill: #f8cfb1;
      }

      .cls-39 {
        fill: #fbcfb0;
      }

      .cls-40 {
        fill: #faceb0;
      }

      .cls-41 {
        fill: #958f8b;
      }

      .cls-42 {
        fill: #eae6e5;
      }

      .cls-43 {
        fill: #784634;
      }

      .cls-44 {
        fill: #5c3427;
      }

      .cls-45 {
        fill: #552f24;
      }

      .cls-46 {
        fill: #563125;
      }

      .cls-47 {
        fill: #633424;
      }

      .cls-48 {
        fill: #d69576;
      }

      .cls-49 {
        fill: #e6a481;
      }

      .cls-50 {
        fill: #4b2418;
      }

      .cls-51 {
        fill: #f8cbac;
      }

      .cls-52 {
        fill: #97573d;
      }

      .cls-53 {
        fill: #441f14;
      }

      .cls-54 {
        fill: #3e2620;
      }

      .cls-55 {
        fill: #fadcc4;
      }

      .cls-56 {
        fill: #3d160b;
      }

      .cls-57 {
        fill: #461f14;
      }

      .cls-58 {
        fill: #4d271d;
      }

      .cls-59 {
        fill: #461d12;
      }

      .cls-60 {
        fill: #51372e;
      }

      .cls-61 {
        fill: #4f251a;
      }

      .cls-62 {
        fill: #fce1cb;
      }

      .cls-63 {
        fill: #3b2c23;
      }

      .cls-64 {
        fill: #d28f72;
      }

      .cls-65 {
        fill: #fcd2b3;
      }

      .cls-66 {
        fill: #4c2315;
      }

      .cls-67 {
        fill: #facdae;
      }

      .cls-68 {
        fill: #f6f5f5;
      }

      .cls-69 {
        fill: #f7cdaf;
      }

      .cls-70 {
        fill: #472116;
      }

      .cls-71 {
        fill: #5f3628;
      }

      .cls-72 {
        fill: #482015;
      }

      .cls-73 {
        fill: #8c4c34;
      }
    </style>
  </defs>
  <g id="_Слой_7_Изображение" data-name="Слой 7 Изображение">
    <g>
      <path class="cls-27" d="M54,7c6.05-.03,11.15-.59,17.22,3.03,2.28,1.36,4.1,6.25,8.78,4.97-.12.6.18,1.57,0,2-.09.22-1.57.49-1.66,1.43-.16,1.78,2.24,4.13,2.6,6.13.65,3.56-.7,8.63.02,11.77.28,1.21,2.35,1.03,3.03,1.68,0,.67,0,1.33,0,2-4.06-1.06-6.69,6.83-6.05,9.37.28,1.12,1.96.51,2.05.63.16.22-.16.8,0,1-3.54.33-5.68,2.48-6,6-.54-.49-7.3,3.26-9,3.01l1,2.99c-1.05.27-2.71-.32-4.25.21-.42.15-6.75,3.89-6.75,4.29v23c0,.18,1.61,1.78,1.99,1.5,1.17-9.29,3.41-20.36,12.99-24.49l-2.98-4.51c8.39-2.36,9.63-3.02,19-3,1,0,2,0,3,0h1c-.4,3.41,3.42,3.49,2,8-1.94-1.5-4.46-4.58-6.52-4.98s-14.47-.56-14.46,1.48c0,1.15,4.21,1.62,5.52,2.46,2.96,1.9,5.98,7.09,9.46,9.04-7.5.7-6.37,1.8-9,8-.21.49.03,1.71-.51,2.94-.86,1.95-3.58,1.59-1.49,4.06.49.58,1.77.71,1.99,1.73.82,3.8,0,8.28,1.01,13.27.54,2.67-1.35,4.08,3,5-.19.37.13,1.41,0,2-5.3,1.03-6.07,9.15-1,10-.26,1.26-1.11,2.06-1,4-2.37-1.05-2.26,1.4-4-3-.4-1.02-.86-2.9-1-4-.22-1.72,1.14-10.02-1.48-8.99-5.13,2.01-5.76,7.24-3.52,11.99-.79.2-4.07.16-5,0l1-6c-7.81-.51-4.73-.2-6,3-.1.24-1.56.64-2,1-.04-.33.05-.67,0-1-.08-.51-1.04-1.14-.75-2.29.26-1.02,1.97-2.11,1.75-3.17-.07-.35-5.12-4.6-5.49-4.6-4.11-.02-3.37,7.56-3.51,10.06-4.62.22-3.1,9.14-3,13-1.42-.17-2.02-.08-3,1-2.26,2.48-.32,8.31-.99,9.01-.23.24-3.02-.15-4.01,0,8-13.55-6.73-14.14-8-2-.7-.2-2.07.05-3,0-.66-.03-1.34.02-2,0-1.46-5.38,3.24-4.27,4.5-6,.7-.96.4-2.88,1.07-3.93,1.34-2.12,5.19-3.77,2.98-7.13-.59-.9-2.34-.72-2.54-.93-1.75-1.83-2.43-5.93-6-5,.11-.62-.12-1.39,0-2,.38-1.94,2.48-2.27-.99-3.65v-1.35c2.76-1,2.26-1.04,2.99-3,1.01-2.7.73-3.87,1.26-6.24.24-1.04,1.53-1.97,1.78-3.32.14-.76-3.94-3.42-2.04-6.45.06-.09,1.74.4,2.02-.65.58-2.18-.27-4.34-1.02-6.35-.8-2.11-5.16-7.65-7.02-8.48-3-1.35-6.8.67-8.98-1.52,7.63,1.14,7.6-.73,12-5,1.01,1.18,1.11,2.65,2,4s2.75,3.9,4.02,4.48c5.97,2.74,8.41-3.45,3.98-7.48-.09-.64.14-1.44,0-2,10.55.54,11.07,13.72,12,21.52.22,1.83-.32,1.62,2,1.48.17-3.47,1.98-25.11,1.01-26-.22-.2-3,.23-4.28-.2-2.31-.78-3.22-4.06-7.72-2.8-.65-1.48-6.35-5.18-7-5-1.06-4.67-2.47-8.06-8-7-.36-.31-.65-.69-1-1l.98-.5-.98-.5c-3.43-8.94,1.04-9.7,1.99-14.51.87-4.44-2.56-12.49,3.01-13.49-.85,3.93-1.26,6.22-.87,10.38.22,2.36,3.45,14.12,4.87,15.12.51.36,10.72,4.09,11.73,4.27,11.69,2.01,25.94-2.45,28.02-15.5,2.74-17.22-4.33-19.74-16.76-28.26ZM69.32,71.31c-6.87,7.5,5.66,11.55,7.49,2.96,1.39-6.53-4.12-6.64-7.49-2.96ZM30.99,84.99c.14.14,2.61-.15,3.95.53,1.44.73,6.91,8.83,7.99,4.9,1.82-6.63-6.72-9.86-11.94-8.42.12.81-.18,2.81,0,2.99ZM74,84.99c0-4.53-6.76-3.37-9.38-1.88-3.73,2.12-3.57,5.24-2.6,8.89,3.77-4.54,5.07-7.27,11.98-7ZM47.22,103.81c-.74-1.3.24-3.86-.69-5.83-2.31-4.89-19.09-4.23-15.98,4.07.24.63,7.32,7.49,8.16,7.74,1.9.57,5.5.59,7.29-.34.25-.13,3.99-3.67,3.99-3.95-.02-.75-2.46-1.15-2.77-1.69ZM73.69,97.3c-2.56-3.02-12.08-2.9-14.72-.83-1.11.87-1.47,7.86-3.03,9.93,3.04,3.3,6.64,4.87,11.34,3.6,1.8-.49,9.26-9.35,6.42-12.7ZM33.71,111.32c-2.23-1.9-4.04-1.09-3.71,2.14.07.7,4.03,9.84,5.48,9.53,3.77-.79.69-9.57-1.78-11.67ZM46.99,117.01h-7s0,6,0,6c1.57,1.55,7.91-5.23,6.99-6Z"/>
      <path class="cls-35" d="M36,6c-.13.28.14.75,0,1-2.09,3.83-7.38,7.72-8.48,10.06-.77,1.63-.26,2.77-.52,3.94-5.58,1-2.14,9.04-3.01,13.49-.94,4.81-5.42,5.57-1.99,14.51.12.31-.14.93,0,1-.42-.38-2.34-.38-3.58-1.9-1.91-2.35-2-11.56-1.41-14.59.42-2.14,2.28-2.7,2.77-4.22.88-2.73-.02-8.13.44-9.7.19-.64,6.75-8.99,7.9-9.96,2.59-2.18,4.38-3.61,7.88-3.63Z"/>
      <path class="cls-54" d="M67,3c.18.07,1.33,2.41,2.44,3.04,5.21,2.95,6.14,3.12,10.56,7.96v1c-4.69,1.28-6.5-3.61-8.78-4.97-6.06-3.62-11.17-3.06-17.22-3.03s-12.01-.02-18,0c.14-.25-.13-.72,0-1,.45-.94.96-2.7,2-3,1.42-.41,27.64-.51,29,0Z"/>
      <path class="cls-33" d="M81,17c6.15,2.71,3.11,7.75,4.01,12.49.42,2.2,2.54,2.8,2.97,5.03.6,3.05.33,9.77-.99,12.49-4.37.77-.12-6.3-3-9-.69-.65-2.75-.46-3.03-1.68-.72-3.13.63-8.2-.02-11.77-.36-2-2.76-4.34-2.6-6.13.09-.94,1.57-1.21,1.66-1.43-.1,1.14.93-.03,1,0Z"/>
      <path class="cls-35" d="M20,87c.3,1.11.34,4.34,1.15,4.86.73.48,3.61.15,4.85.14.33,0,.67,0,1,0v16c-.73,1.96-.23,2-3,3-4.16,1.49-7.65,1-12,1-.13-.24.11-.68,0-1s.13-.75,0-1h1c4.08,2.68,8.15-.2,10-4,1.12-2.29,1.49-6.68-.27-8.77-.44-.52-1.54-.1-1.73-.23-1-.73-.42-1.59-3-2,.09-.98-.97-2.37-1-3-.01-.32-.03-.68,0-1,.1-.96,1.57-3.82,2-5,.42.19.88.56,1,1Z"/>
      <path class="cls-3" d="M87,92c4.36,1.43,5.6-5.73,6.5-6.02,4.04-1.33,1.65,2.94,2.99,5.07.57.9,2.44.83,2.51.95.55.9-1.08,5.4,3,5-.61,1.27-1.96,1.86-2,2-4.81-6.73-4.22,7.44-5,10-.47.18-1.39-.14-2,0-2.87-3.99,4.64-10.96-.25-13.75-.26-.15-5.46-1.29-5.75-1.25v-2Z"/>
      <path class="cls-49" d="M31,58c.65-.18,6.35,3.52,7,5-.17.05-.75,1.33-3,2-3.01-2.56-13.8-2.86-17.29-2.02-.97.23-2.48,4.7-4.71,5.02.07-.98-.13-2.07,0-3s-.14-2.06,0-3c.37-.3.67-.67,1-1s.76-.58,1-1v-1c.68-.16,2.17-.06,3,0,3.11.21,5.8,1.52,9.58,1.06,3.06-.38,3.22-2,3.42-2.06Z"/>
      <path class="cls-23" d="M81,141c0,.67,0,1.33,0,2-1.68,1.85-2.71,4.44-5.52,4.98-4.17.8-11.04.54-14.48-1.98-.08-.75.97-1.7,1-2,1.98.11,4.02-.16,6,0,.69.06,1.53,1.14,3.25.83,2.48-.44,2.95-2.4,3.75-2.83,1.24-.67,3.67-.8,5-2,.06.47.52.9,1,1Z"/>
      <path class="cls-8" d="M100,78c.25.36,1.65.69,2.06,1.4,1.71,2.99,1.46,14.42-.06,17.6-4.08.4-2.45-4.1-3-5,1.28-5.3-1.08-8.81-2-13,.74-.08,1.97-1.08,3-1Z"/>
      <path class="cls-47" d="M49,120c.14-2.5-.61-10.09,3.51-10.06.38,0,5.42,4.25,5.49,4.6.22,1.07-1.49,2.15-1.75,3.17-.29,1.15.67,1.78.75,2.29-.73-.12-1.8.99-2,1-.95.04-3.21-1.41-5,0,0-.13-1.02-.69-1-1Z"/>
      <path class="cls-57" d="M27,141c5,4.38,5.71,3.76,12,4,1.77.07,3.44-.08,5,1-.65.51-.34,1.6-2.48,1.98s-9.91.39-11.99,0c-2.86-.54-3.01-2.46-4.53-3.98-.13-.94.19-2.15,0-3,.66.02,1.34-.03,2,0Z"/>
      <path class="cls-66" d="M23,51c5.53-1.06,6.94,2.33,8,7-.21.06-.37,1.68-3.42,2.06-3.78.47-6.47-.85-9.58-1.06,5.24-4.16,14.96.55,5-8Z"/>
      <path class="cls-53" d="M80,51c.41.52.6,1.41,1,2-.84.58-1.98.9-3,1.01-.06,4.46,5.21,2.52,8.35,3.18,1.55.33,2.1,1.57,2.65,1.81v1c-1,0-2,0-3,0-1.73-2.45-10.75-.06-12.01-1-.23-.17.23-1.8,0-2,.32-3.52,2.46-5.67,6-6Z"/>
      <path class="cls-22" d="M81,143c0-.67,0-1.33,0-2,0-6.21-1.75-9.64-2-14,4.89,2.17,7.45,6.69,5.79,12.3-.62,2.09-2.75,2.56-3.79,3.7Z"/>
      <path class="cls-16" d="M46,133c.02.67-.03,1.34,0,2,.22,5.03,3.59,6.57-2,11-1.56-1.08-3.23-.93-5-1,.5-1.55,3.53-.64,3.95-1.04.49-.46-.25-8.19.05-9.96.98-1.08,1.58-1.17,3-1Z"/>
      <path class="cls-17" d="M62,144c-.03.3-1.08,1.25-1,2-5.34-3.91-1.67-7.3-4-13-.22-.96.98-.93,1-1,5.23.99,4.5,7.64,4,12Z"/>
      <path class="cls-72" d="M26,128c-3.34,3.27-1.85,9.29-1,13,.19.85-.13,2.06,0,3-2.06-2.06-3.5-1.5-4.05-5.45-.85-6.13.18-7.13,3.05-11.55l2,1Z"/>
      <path class="cls-9" d="M49,120c-.02.31,1,.87,1,1-.02.77-1.02,2.62-1.06,4.44-.1,4.69,2.54,8.21-2.94,9.56-.03-.66.02-1.33,0-2-.1-3.86-1.62-12.78,3-13Z"/>
      <path class="cls-26" d="M95,109c.78-2.56.19-16.73,5-10-1.3,4.49,2.49,7.18-5,10Z"/>
      <path class="cls-45" d="M12,110c.13.25-.11.69,0,1-1.91-.73-5.55-3.01-6-5-.49-2.14.07-6.4,0-9,4.76.16,2.35,5.42,3.2,8.3.16.54,2.05,3.22,2.8,4.7Z"/>
      <path class="cls-12" d="M83,108c.87.75.46,1.8,2.48,2.06,3.45.45,4.92-.47,7.52-1.06.61-.14,1.53.18,2,0-1.95,6.37-7.69,3.49-13,4-.33.03-.68-.06-1,0,.13-.59-.19-1.63,0-2,.25-.47,2.44-1.16,2-3Z"/>
      <path class="cls-71" d="M81,113c.32-.06.67.03,1,0,.58,3.58-1.34,6.75-2,10-5.07-.85-4.3-8.97,1-10Z"/>
      <path class="cls-20" d="M97,69c-.47.11-.95.54-1,1-1.06-.16-2.08-.44-3-1-.16-.1-.56-.66-1-1,1.42-4.51-2.4-4.59-2-8h1c2.3,1.59,3.69,1.95,5.45,5.09.87,1.54.26,3.09.55,3.91Z"/>
      <path class="cls-36" d="M13,61c-.09.27.05.65,0,1-.14.94.14,2.05,0,3-.17,1.89-3.89,4.23-4.01,4.71-.6,2.39,1.25,6.28-.99,8.29.59-2-.16-7.29,0-10,.06-1.1.02-4.59.15-4.79.54-.8,3.78-1.65,4.85-2.21Z"/>
      <path class="cls-10" d="M25,118c3.57-.93,4.25,3.17,6,5-.24,3.6-4.11,4.13-5,5l-2-1c.53-.82,2-1.09,2.54-2.49,1.48-3.84-1.72-3.83-2.46-4.63-.33-.36.84-1.41.92-1.89Z"/>
      <path class="cls-63" d="M5,82c-.11,4.98.08,10.01,0,14.99h-1.99s0-17.99,0-17.99c.32-.37,1.49-.59,2-1-.05,1.33.03,2.67,0,4Z"/>
      <path class="cls-70" d="M57,120c.05.33-.04.67,0,1,.47,3.44,1.85,7.33,1,11-.02.07-1.22.04-1,1-.07-.18-1.62-.38-1.99-2.48-.5-2.89.29-6.51-.01-9.52.2,0,1.27-1.12,2-1Z"/>
      <path class="cls-44" d="M8,78c-.09.3-1.6.45-2,4h-1c.03-1.33-.05-2.67,0-4,.15-3.78-1.29-8.23,3-10-.16,2.71.59,8,0,10Z"/>
      <path class="cls-43" d="M84,38c2.88,2.7-1.37,9.77,3,9-1.06,2.18-3.98,4.61-6,6-.4-.59-.59-1.48-1-2-.16-.2.16-.78,0-1,4.54-3.55,4.06-4.47,4-10,0-.67,0-1.33,0-2Z"/>
      <path class="cls-68" d="M67,3c-1.36-.51-27.58-.41-29,0,1.04-1.66,3.79-1,5.49-1.02,7.56-.08,16.29-.74,23.51,1.02Z"/>
      <path class="cls-46" d="M24,111v1.35c3.48,1.38,1.38,1.71,1,3.65-2.94-3.78-10.99-.22-13-4,4.35,0,7.84.49,12-1Z"/>
      <path class="cls-21" d="M100,78c-1.03-.08-2.26.92-3,1-.73-3.34-1.38-5.34-1-9,.05-.46.53-.89,1-1,.62,1.74,2.6,8.41,3,9Z"/>
      <path class="cls-2" d="M6,92c-.03,1.66-.05,3.34,0,5,.07,2.6-.49,6.86,0,9l-.8-.67c.85-3.85-1.41-5.92-2.2-8.33h1.99c.09-4.99-.11-10.02,0-15h1c-.35,3.05.05,6.8,0,10Z"/>
      <path class="cls-41" d="M3,97c-1.14-3.46-2.12-15.57,0-18v18Z"/>
      <path class="cls-60" d="M81,17c-.07-.03-1.1,1.14-1,0,.18-.43-.12-1.4,0-2v-1c.94,1.03,1.27,1.49,1,3Z"/>
      <path class="cls-59" d="M91,60h-2v-1c.78.33,1.25.48,2,1Z"/>
      <path class="cls-61" d="M15,60h-1c.26-.11.57-.9,1-1v1Z"/>
      <path class="cls-31" d="M14,61c-.13.14-.95-.14-1,0,.35-.18.64-.84,1-1-.08.33.13.86,0,1Z"/>
      <path class="cls-34" d="M54,7c12.43,8.52,19.5,11.04,16.76,28.26-2.08,13.05-16.33,17.51-28.02,15.5-1.01-.17-11.22-3.91-11.73-4.27-1.42-1-4.65-12.75-4.87-15.12-.39-4.16.01-6.45.87-10.38.26-1.18-.26-2.31.52-3.94,1.11-2.34,6.39-6.22,8.48-10.06,5.99-.02,12.01.03,18,0Z"/>
      <path class="cls-64" d="M59,120l1.32-.02c1.52,1.84,1.07,2.58,3.68,3.02.93.16,4.21.2,5,0,1.53-.4,2.77-3.21,5-3,.14,1.1.6,2.98,1,4-3.93-2.48-4.46,1.06-3.58,4.11.5,1.74,1.99,1.67,2.52,2.66.74,1.38.56,4.15,1.54,5.26,1.34,1.53,3.89.59,4.46,1.05.4.33-.04,2.12.06,2.92-1.33,1.2-3.76,1.33-5,2-.1-13.71-18.06-11.67-7,2-1.98-.16-4.02.11-6,0,.5-4.36,1.23-11.01-4-12,.85-3.67-.53-7.56-1-11,.44-.36,1.9-.76,2-1Z"/>
      <path class="cls-6" d="M73.69,97.3c2.85,3.35-4.61,12.21-6.42,12.7-4.7,1.27-8.3-.3-11.34-3.6,1.56-2.07,1.92-9.06,3.03-9.93,2.64-2.07,12.15-2.2,14.72.83Z"/>
      <path class="cls-24" d="M47.22,103.81c.31.54,2.75.94,2.77,1.69,0,.28-3.74,3.82-3.99,3.95-1.79.93-5.39.91-7.29.34-.83-.25-7.92-7.11-8.16-7.74-3.12-8.3,13.66-8.96,15.98-4.07.93,1.97-.04,4.54.69,5.83Z"/>
      <path class="cls-62" d="M66,63c.31-.08.69.09,1,0l2.98,4.51c-9.58,4.13-11.82,15.2-12.99,24.49-.38.28-1.99-1.31-1.99-1.5v-23c0-.4,6.33-4.14,6.75-4.29,1.54-.53,3.2.06,4.25-.21Z"/>
      <path class="cls-37" d="M38,63c4.5-1.26,5.42,2.02,7.72,2.8,1.28.43,4.06,0,4.28.2.97.89-.83,22.52-1.01,26-2.31.14-1.78.35-2-1.48-.93-7.8-1.45-20.98-12-21.52-.22-.9-1-1.91-1-3,.34-.08.72-.92,1-1,2.25-.67,2.83-1.95,3-2Z"/>
      <path class="cls-40" d="M92,68c.44.34.84.9,1,1,.66,8.31-.87,6.43-7,7-3.48-1.95-6.51-7.14-9.46-9.04-1.31-.84-5.51-1.32-5.52-2.46-.01-2.04,12.47-1.86,14.46-1.48s4.59,3.48,6.52,4.98Z"/>
      <path class="cls-19" d="M35,65c-.28.08-.66.92-1,1-5.95,1.44-3.68-1.17-9,4-4.4,4.27-4.37,6.14-12,5-2.61-2.62-.14-4.98,0-7,2.23-.32,3.74-4.78,4.71-5.02,3.5-.84,14.28-.55,17.29,2.02Z"/>
      <path class="cls-5" d="M13,68c-.14,2.02-2.61,4.38,0,7,2.18,2.18,5.98.16,8.98,1.52,1.86.84,6.22,6.37,7.02,8.48-2.52.64-6.56-7.8-8-6,1.05,3.3-1.26,4.97-2,7-.43,1.18-1.9,4.04-2,5-.85-2.14,1.15-6.09.85-7.44-.24-1.05-2.16-1.29-2.93-2.26-1.47-1.88.41-5-4.66-2.54-1.61.78-2.64,2.48-4.26,3.25.4-3.55,1.91-3.7,2-4,2.23-2.01.38-5.9.99-8.29.12-.48,3.84-2.82,4.01-4.71-.13.93.07,2.02,0,3Z"/>
      <path class="cls-48" d="M96,70c-.38,3.66.27,5.66,1,9-2.1.24-3.52-.34-5.95.55-3.84,1.42-3.8,3.31-4.05,6.45h-3c-.03-.33.06-.68,0-1-.87-4.61-3.96-3.47-7-1,2.63-6.2,1.5-7.3,9-8,6.13-.57,7.66,1.31,7-7,.92.56,1.94.84,3,1Z"/>
      <path class="cls-13" d="M87,86c-.16,1.96,0,4.03,0,6v2c-.43.05-2.44,2.36-3,3-2.19,2.48-4.81,5.77-3,9,.28.5,1.45,1.53,2,2,.44,1.84-1.75,2.53-2,3-4.35-.92-2.46-2.33-3-5,.12-3.84-.17-7.72-.03-11.57.05-1.29,1.02-2.25,1.03-2.43h5.01c-.13-1.96.19-4.05,0-6h3Z"/>
      <path class="cls-4" d="M30,141c1.27-12.14,16-11.55,8,2-6.65.96-4.11-.89-8-2Z"/>
      <path class="cls-18" d="M75,124c1.74,4.4,1.63,1.95,4,3,.25,4.36,2,7.79,2,14-.48-.1-.94-.53-1-1-.11-.79.34-2.59-.06-2.92-.57-.46-3.12.48-4.46-1.05-.98-1.12-.79-3.88-1.54-5.26-.53-.98-2.03-.92-2.52-2.66-.87-3.05-.34-6.59,3.58-4.11Z"/>
      <path class="cls-15" d="M35,71c4.43,4.03,1.99,10.22-3.98,7.48-1.27-.58-3.17-3.19-4.02-4.48-1-6.06,4.2-6.46,8-3Z"/>
      <path class="cls-73" d="M25,141c-.85-3.71-2.34-9.73,1-13,.89-.87,4.76-1.4,5-5,.2.21,1.95.03,2.54.93,2.21,3.36-1.64,5.01-2.98,7.13-.67,1.05-.37,2.97-1.07,3.93-1.26,1.74-5.95.62-4.5,6Z"/>
      <path class="cls-4" d="M69.32,71.31c3.36-3.68,8.88-3.56,7.49,2.96-1.83,8.59-14.36,4.54-7.49-2.96Z"/>
      <path class="cls-50" d="M19,86c.75-2.03,3.05-3.7,2-7,1.44-1.8,5.48,6.64,8,6,.76,2,1.61,4.17,1.02,6.35-.28,1.05-1.97.56-2.02.65h-1c-.33,0-.67,0-1,0,2.55-2.26-5.05-9.93-6-5-.12-.44-.58-.81-1-1Z"/>
      <path class="cls-39" d="M30.99,84.99c-.18-.18.12-2.18,0-2.99,5.22-1.44,13.77,1.79,11.94,8.42-1.08,3.93-6.55-4.17-7.99-4.9-1.34-.68-3.81-.39-3.95-.53Z"/>
      <path class="cls-55" d="M74,84.99c-6.91-.27-8.22,2.46-11.98,7-.97-3.65-1.13-6.77,2.6-8.89,2.62-1.49,9.39-2.65,9.38,1.88Z"/>
      <path class="cls-65" d="M69,123c-2.24-4.75-1.61-9.98,3.52-11.99,2.63-1.03,1.27,7.27,1.48,8.99-2.23-.21-3.47,2.6-5,3Z"/>
      <path class="cls-67" d="M33.71,111.32c2.47,2.11,5.54,10.88,1.78,11.67-1.45.3-5.41-8.83-5.48-9.53-.34-3.23,1.47-4.04,3.71-2.14Z"/>
      <path class="cls-69" d="M84,40c.06,5.53.54,6.45-4,10-.09-.12-1.77.49-2.05-.63-.63-2.53,1.99-10.43,6.05-9.37Z"/>
      <path class="cls-52" d="M74,57c.22.2-.23,1.83,0,2,1.26.94,10.27-1.45,12.01,1-9.37-.02-10.61.64-19,3-.31.09-.69-.08-1,0l-1-2.99c1.7.24,8.46-3.5,9-3.01Z"/>
      <path class="cls-56" d="M84,85c-2.87-.54-4.27,2.18-6,4-.93.97-1.09,2.42-3,2-2.1-2.47.63-2.11,1.49-4.06.54-1.24.31-2.46.51-2.94,3.04-2.47,6.13-3.61,7,1Z"/>
      <path class="cls-30" d="M43,134c-.29,1.77.45,9.49-.05,9.96-.42.4-3.45-.51-3.95,1.04-6.29-.24-7,.38-12-4,.93.05,2.3-.2,3,0,3.89,1.11,1.35,2.96,8,2,.98-.14,3.77.24,4.01,0,.67-.69-1.26-6.52.99-9.01Z"/>
      <path class="cls-32" d="M34,66c0,1.09.78,2.1,1,3,.14.56-.09,1.36,0,2-3.8-3.46-9-3.06-8,3-.89-1.35-.99-2.82-2-4,5.32-5.17,3.05-2.56,9-4Z"/>
      <path class="cls-39" d="M46.99,117.01c.92.77-5.42,7.55-6.99,6v-6.01s6.99.01,6.99.01Z"/>
      <path class="cls-51" d="M59,120c1.27-3.2-1.81-3.51,6-3l-1,6c-2.6-.44-2.15-1.18-3.68-3.02l-1.32.02Z"/>
      <path class="cls-1" d="M28,92c-1.9,3.03,2.18,5.69,2.04,6.45-.24,1.34-1.54,2.28-1.78,3.32-.54,2.36-.26,3.53-1.26,6.24v-16h1Z"/>
      <path class="cls-25" d="M79,92c-.01.18-.99,1.14-1.03,2.43-.14,3.85.15,7.73.03,11.57-1.01-5-.19-9.47-1.01-13.27-.22-1.01-1.5-1.15-1.99-1.73,1.91.42,2.07-1.03,3-2-.11.91,1.03,2.54,1,3Z"/>
      <path class="cls-31" d="M22,50c-.14-.07.12-.69,0-1l.98.5-.98.5Z"/>
      <path class="cls-19" d="M18,95c2.58.41,2,1.27,3,2-.93,3.55,1.91,5.69,2,9-1.85,3.8-5.92,6.68-10,4-1.12-6.8-6.48-16.81,5-15Z"/>
      <path class="cls-14" d="M6,82c1.62-.77,2.65-2.47,4.26-3.25,5.08-2.46,3.19.66,4.66,2.54.76.97,2.69,1.21,2.93,2.26.3,1.35-1.7,5.3-.85,7.44-.03.32-.01.68,0,1l-7.49-6.01-3.51,6.01c.05-3.2-.35-6.95,0-10Z"/>
      <path class="cls-28" d="M17,92c.03.63,1.09,2.02,1,3-11.48-1.81-6.12,8.2-5,15h-1c-.75-1.48-2.64-4.16-2.8-4.7-.85-2.88,1.57-8.14-3.2-8.3-.05-1.66-.03-3.34,0-5l3.51-6.01,7.49,6.01Z"/>
      <path class="cls-7" d="M20,87c.95-4.93,8.55,2.74,6,5-1.25.01-4.12.34-4.85-.14-.81-.53-.85-3.76-1.15-4.86Z"/>
      <path class="cls-29" d="M21,97c.19.14,1.3-.28,1.73.23,1.76,2.09,1.38,6.47.27,8.77-.09-3.31-2.93-5.45-2-9Z"/>
      <path class="cls-38" d="M87,94c.29-.04,5.5,1.1,5.75,1.25,4.88,2.79-2.63,9.76.25,13.75-2.61.59-4.07,1.51-7.52,1.06-2.02-.26-1.6-1.31-2.48-2.06-.55-.47-1.72-1.5-2-2,1.39-2.92,3.46-5.55,3-9,.56-.64,2.57-2.95,3-3Z"/>
      <path class="cls-4" d="M97,79c.92,4.19,3.28,7.7,2,13-.08-.12-1.95-.05-2.51-.95-1.34-2.13,1.05-6.4-2.99-5.07-.9.29-2.14,7.45-6.5,6.02,0-1.97-.16-4.04,0-6,.25-3.14.21-5.03,4.05-6.45,2.42-.89,3.84-.32,5.95-.55Z"/>
      <path class="cls-36" d="M14,61c.13-.14-.08-.67,0-1h1c-.24.42-.67.67-1,1Z"/>
      <path class="cls-58" d="M13,62c.05-.35-.09-.73,0-1,.05-.14.87.14,1,0-.33.33-.63.7-1,1Z"/>
      <path class="cls-4" d="M75,142c-.8.43-1.27,2.39-3.75,2.83-1.73.31-2.57-.77-3.25-.83-11.06-13.67,6.9-15.71,7-2Z"/>
      <path class="cls-42" d="M84,85c.06.32-.03.67,0,1,.19,1.95-.13,4.04,0,6.01h-5.01c.03-.47-1.11-2.1-1-3.01,1.73-1.82,3.13-4.54,6-4Z"/>
      <path class="cls-11" d="M81,106c-1.81-3.23.81-6.52,3-9,.46,3.45-1.61,6.08-3,9Z"/>
    </g>
  </g>
</svg>