<?xml version="1.0" encoding="UTF-8"?>
<svg id="_Слой_2" data-name="Слой 2" xmlns="http://www.w3.org/2000/svg" viewBox="0 0 66 149">
  <defs>
    <style>
      .cls-1 {
        fill: #bf846a;
      }

      .cls-2 {
        fill: #806760;
      }

      .cls-3 {
        fill: #f9ddc7;
      }

      .cls-4 {
        fill: #e3a481;
      }

      .cls-5 {
        fill: #e5a37e;
      }

      .cls-6 {
        fill: #8e533c;
      }

      .cls-7 {
        fill: #fcd3b5;
      }

      .cls-8 {
        fill: #573227;
      }

      .cls-9 {
        fill: #fde3cd;
      }

      .cls-10 {
        fill: #e7a682;
      }

      .cls-11 {
        fill: #d49275;
      }

      .cls-12 {
        fill: #f9cfb2;
      }

      .cls-13 {
        fill: #fbe0ca;
      }

      .cls-14 {
        fill: #552e23;
      }

      .cls-15 {
        fill: #f0d1bb;
      }

      .cls-16 {
        fill: #2e1711;
      }

      .cls-17 {
        fill: #f7c9ab;
      }

      .cls-18 {
        fill: #431c10;
      }

      .cls-19 {
        fill: #33251d;
      }

      .cls-20 {
        fill: #3b231d;
      }

      .cls-21 {
        fill: #845649;
      }

      .cls-22 {
        fill: #e5a07c;
      }

      .cls-23 {
        fill: #fbdfc9;
      }

      .cls-24 {
        fill: #f2d8c2;
      }

      .cls-25 {
        fill: #e4a07b;
      }

      .cls-26 {
        fill: #74463a;
      }

      .cls-27 {
        fill: #441c11;
      }

      .cls-28 {
        fill: #fdd4b6;
      }

      .cls-29 {
        fill: #816961;
      }

      .cls-30 {
        fill: #613628;
      }

      .cls-31 {
        fill: #451e13;
      }

      .cls-32 {
        fill: #ccc2bf;
      }

      .cls-33 {
        fill: #f8cfb1;
      }

      .cls-34 {
        fill: #d39073;
      }

      .cls-35 {
        fill: #c8bcba;
      }

      .cls-36 {
        fill: #4b2215;
      }

      .cls-37 {
        fill: #411a0e;
      }

      .cls-38 {
        fill: #50281b;
      }

      .cls-39 {
        fill: #8d4e36;
      }

      .cls-40 {
        fill: #5e423a;
      }

      .cls-41 {
        fill: #d38f73;
      }

      .cls-42 {
        fill: #3f251d;
      }

      .cls-43 {
        fill: #fad0b3;
      }

      .cls-44 {
        fill: #8e4e36;
      }

      .cls-45 {
        fill: #431b10;
      }

      .cls-46 {
        fill: #8b4b34;
      }

      .cls-47 {
        fill: #8d4d35;
      }

      .cls-48 {
        fill: #8a4b34;
      }

      .cls-49 {
        fill: #e1a280;
      }

      .cls-50 {
        fill: #d7967a;
      }

      .cls-51 {
        fill: #4a2419;
      }

      .cls-52 {
        fill: #db9874;
      }

      .cls-53 {
        fill: #3d160b;
      }

      .cls-54 {
        fill: #96563d;
      }

      .cls-55 {
        fill: #461f14;
      }

      .cls-56 {
        fill: #fce1cb;
      }

      .cls-57 {
        fill: #d7997b;
      }

      .cls-58 {
        fill: #382019;
      }

      .cls-59 {
        fill: #f4caad;
      }

      .cls-60 {
        fill: #3c2e26;
      }

      .cls-61 {
        fill: #593327;
      }

      .cls-62 {
        fill: #4b251a;
      }
    </style>
  </defs>
  <g id="_Слой_38_Изображение" data-name="Слой 38 Изображение">
    <g>
      <path class="cls-38" d="M50,145c-.36.37-.86,3.3-2,4h-1c-5.71-2.28-12.93-.41-19-1-1.04-.33-1.39-1.24-2-2,.11-.48.53-.93,1-1,3.44-.5,8.28.08,12,0,3.98-.08,6.32-.55,10-1,.07,0,.61.84,1,1Z"/>
      <path class="cls-35" d="M47,149h-19v-1c6.07.59,13.29-1.28,19,1Z"/>
      <path class="cls-57" d="M15,98c.09.11,1.73-.47,2.03.65.96,3.68-.9,8.81,1.24,13.58.51,1.14,4.68,6.62,5.74,7.76.58.63,2.75.45,3.04,1.67.95,4.13.66,14.04-3.49,16.38-3.36,1.89-14.5,1.38-18.55-.05,3.55,1.07,11.8-.78,16,0l-1.01-8c-3.38-.2-5.19,3.64-8.01,4.63-2.16.76-2.77-.63-2.98-.63,1.68-1.56,2.7-3.13,5-4,2.16-.82,3.91,1.83,3.07-4.53-.28-2.11-1.28-1.64-3.07-2.47-.19-3.61,1.43-5.38-2.5-4.99-.66.07-.45.99-.5.99-.28.02-.69-.76-1-1,1.76-3.9.92-8.71,1-13,4.53.2,1.84-4.72,4-7Z"/>
      <path class="cls-45" d="M30,118c.03.98-.13,2.07,0,3,.17,1.24,1.27,5.82,1.74,6.77,1.49,3.06,6.56,2.63,3.6,9.03-.67,1.45-2.32,1.25-3.34,2.21-4.88.6-5.4-.09-5,6-.47.07-.89.52-1,1-.43-.54-1.22-.74-2-2-.23-.37.63-1.89-.59-2.05l-21.41.05c-3.09-3.11-.71-6.78,2-9,.03.66-.04,1.34,0,2,.07,1.32-.52,2.54,1,3,4.05,1.42,15.19,1.94,18.55.05,4.14-2.33,4.44-12.24,3.49-16.38-.28-1.22-2.45-1.04-3.04-1.67-.02-1,.03-2,0-3l6,1Z"/>
      <path class="cls-18" d="M5,73c-.08.96-1.05,2.18-1,4,.07,2.73.27,3.49,1,6,1.99,6.89,4.82,4.91,6.57,8.02.83,1.49-.57,2.5-.57,2.98,0,3.66.07,7.35,0,11-.08,4.29.76,9.1-1,13-3.37-2.66-1.33-5.04-2.67-8.76-.45-1.24-1.85-1.57-2.33-2.24-.67-1.9,1.66-2.35,2-3,1.41-2.73.94-8.12,0-11-.06-.17-2.07-2.72-2.22-2.82-.29-.19-.73.85-.78.82-1.11-.74-1.28-.67-2-2v-18c.59-1.25,1.6-1.47,2-2,.74,1.2,1.13,2.58,1,4Z"/>
      <path class="cls-44" d="M32,64c3.64-.17,3.88.11,7-2l1,2c-1.33.55-1.94,1.7-4,2-7.4,1.08-16.77-1.63-24,1-2.7.7-4.39,6.33-7,6,.13-1.42-.26-2.8-1-4,.77-1.02,3.8-4.39,3.88-4.7.56-1.98-1.01-4.2-.88-6.3.01-.21,1.02-1.13,1-2,6.69,6.17,14.87,8.43,24,8Z"/>
      <path class="cls-58" d="M59,108c-.2-3.63.28-7.38,0-11-.04-.54-.92-1.41-1-2,2.23.15,3.53.04,4-2.5,1.17-6.21-.21-15.46-2-21.5l2-1c.21.2,1.44,0,2.01.49,1.26,1.07,1.59,25.79.97,28.99-.31,1.59-4.67,6.78-5.98,8.52Z"/>
      <path class="cls-36" d="M42,86c.07,2.2-.24,3.94,1,6,1.17,1.94,4.37,1.64,2,6-.64.07-1.61-.16-2,0-1.65.7-1.58,12.48,0,13,1.03.34,8.92.24,10.57.08,2.07-.2,1.03-3.76,4.43-1.08-1.94,2.55-3.49,2.47-4,3-2.97-2.64-7.95-.43-11,0-.87.12-3.4.23-3.88-.15-.43-.57.03-1.46-.12-1.85.6-6.85-.79-14.86-.05-21.55.25-2.26.34-3.47,3.05-3.45Z"/>
      <path class="cls-37" d="M11,9c-2.03,1.54-2.1,3.07-3,5-4.28,9.13-4.26,14.19-3,24,.22,1.75-.42,4.66,0,6-.32.94-1.13.97-2,1-.33.01-.84.08-1,0-.62-9.12,1.29-19.17-1-28,.29-.94,7.59-8.87,9-10l1,2Z"/>
      <path class="cls-55" d="M54,113c-2.91,3.06-1.87,11.76-2,16-.05,1.66.06,3.34,0,5-2.71.02-2.8-1.19-3.05-3.45-.63-5.68,2.78-13.69-3.95-15.55-.53-.75-1.37-1.33-2-2,3.05-.43,8.03-2.64,11,0Z"/>
      <path class="cls-42" d="M59,46c-.96-.27-.95-1.15-1-2,.67-.97.88-.75,1.06-2.39.36-3.32.6-19.46,0-22.02-.28-1.19-1.88-.41-2.05-.59-.86-.89-1.31-2-2-3-.01-.33-.01-.67,0-1,.02-.49,1.05-3.06,1-4,1.33,1.78,4.19,4.46,4.76,6.74,1.58,6.29,1.36,19.31.22,25.78-.38,2.17-1.66,1.99-1.99,2.48Z"/>
      <path class="cls-60" d="M45,2c.74,3.23-2.35,1.74-5,2-4.05-.57-10.63-.1-15,0-1.33.03-2.68-.07-4,0-1.61.09-3.5-.22-5,0,.97-2.26,2.09-2.76,4.45-3.05,4.76-.6,20.49-.46,24.55,1.05Z"/>
      <path class="cls-31" d="M59,46c-5.14,7.72-10.22,5.92-3,14-1.44-.88-3.69.99-4,1-1.82.06-2.84-1-3-1,.96-2.17-3-2.81-3.02-3.51-.02-1.01,2.2-3.33,3.02-5.49,1.52-4.01,2.1-1.34,5.23-3.01.24-.13,3.61-3.76,3.77-3.99.05.85.04,1.73,1,2Z"/>
      <path class="cls-14" d="M56,11c.05.94-.98,3.51-1,4-2.45-1.92-4.59-5.16-7-7s-4.87-3.56-8-4c2.65-.26,5.74,1.23,5-2,6.03,2.24,7.55,4.37,11,9Z"/>
      <path class="cls-1" d="M59,108c-.42.56-.58,1.45-1,2-3.39-2.67-2.36.89-4.43,1.08-1.65.16-9.54.25-10.57-.08v-1c7.92.23,8.25,1.26,12-5,1.49-2.48,2.64-5.44,4-8,.28,3.62-.2,7.37,0,11Z"/>
      <path class="cls-20" d="M50,145c-.39-.16-.93-1.01-1-1-.78-2.35,2.29-2.03,2.85-3.63.59-1.69.08-4.42.15-6.37.06-1.66-.05-3.34,0-5,4.68,1.73,3.75,11.76,1.03,14.57-1.1,1.13-2.86,1.25-3.03,1.43Z"/>
      <path class="cls-51" d="M8,56c.02.87-.99,1.79-1,2-5.42-2.34-1.43-8.69-4-13,.87-.03,1.68-.06,2-1,1.61,5.18,2.86,4.03,3,12Z"/>
      <path class="cls-27" d="M11,119c.06,0-.16-.92.5-.99,3.93-.39,2.31,1.38,2.5,4.99.07,1.27.23,6.73,0,7-.19.22-2.22-.18-3,0v-11Z"/>
      <path class="cls-53" d="M4,105c-.55-.79-1.96-1.03-2.55-2.92-1.05-3.34-1.34-8.56,2.55-10.08v13Z"/>
      <path class="cls-62" d="M21,4c-.08,1.1-.6,2.01-1,3-.67.02-1.33-.02-2,0-2.62.09-4.82.35-7,2l-1-2c1.94-1.56,3.07-2.57,6-3,1.5-.22,3.39.09,5,0Z"/>
      <path class="cls-29" d="M2,45c-1.38-.7-.94-1.22-1.05-2.44-.31-3.45-.6-23.48.05-25.56,2.29,8.83.38,18.88,1,28Z"/>
      <path class="cls-16" d="M62,70l-2,1c-.09-.29-.69-1.12-1-2-.32-.93-.13-2.25-.74-3.71-.8-1.9-3.79-2.9-2.26-5.29,1.1,1.23,3.59,2.2,4.46,4.04.8,1.69.42,4.89,1.54,5.96Z"/>
      <path class="cls-61" d="M11,130c.78-.18,2.81.22,3,0-2.3.87-3.32,2.44-5,4-1.79,0-3.45-.07-5,1-.04-.66.03-1.34,0-2,2.89-2.36,3.35-2.14,7-3Z"/>
      <path class="cls-32" d="M2,142l21.41-.05c1.22.16.36,1.68.59,2.05-4.61-2.82-19.09.93-22-2Z"/>
      <path class="cls-30" d="M4,91s.49-1.01.78-.82c.15.1,2.16,2.65,2.22,2.82-.56.09-1.88-.17-2,0-.31.42-.25,9.41-.02,10.38.28,1.17,1.09.54,2.02.63-.34.65-2.67,1.1-2,3-.56-.79-.72-1.6-1-2v-14Z"/>
      <path class="cls-2" d="M2,89c-1.76-3.26-1.57-14.69,0-18v18Z"/>
      <path class="cls-57" d="M45,115c6.72,1.86,3.32,9.87,3.95,15.55.25,2.26.34,3.47,3.05,3.45-.08,1.95.43,4.68-.15,6.37-.55,1.6-3.63,1.28-2.85,3.63-3.68.45-6.02.92-10,1,1.79-2.47,6.7-2.26,7.06-5.51.76-6.87-6.56-1.54-9.01-.91-1.88.48-3.39.22-5.05.42,1.02-.95,2.67-.75,3.34-2.21,2.95-6.4-2.11-5.97-3.6-9.03-.46-.95-1.57-5.53-1.74-6.77,2.85.34,4.37,4.3,7.05,5.45,6,2.58,7.63-4.29,10.95-7.95-2.77-.73-2.3-2.51-3-3.49Z"/>
      <path class="cls-43" d="M39,145c-3.72.08-8.56-.5-12,0-.4-6.09.12-5.4,5-6,1.66-.21,3.17.06,5.05-.42,2.45-.63,9.77-5.95,9.01.91-.36,3.25-5.26,3.04-7.06,5.51Z"/>
      <path class="cls-34" d="M36,67v4c-4.33-3.05-17.11-1.73-18,4.99l6,1.02c.73,2.96-2.51,1.93-3.51,3.97-2.72,5.57,4.33,9.17,9.45,7.46.8-.27,8.58-5.18,8.84-5.64.2-.36.32-6.29.21-6.8,5.09-.02,9.56,3.31,14,4,.63.1,1.35-.07,2,0-.16.43-.15,4.4,0,5l-3,1c-.04-.29-.84-.66-1-1-.14-.3.38-1.38-.17-1.8l-8.82-3.2c.03,1.99-.07,4,0,6-2.71-.02-2.8,1.19-3.05,3.45-.74,6.69.65,14.7.05,21.55-2.45-6.16-.27-15.18-1.01-22l-3.99,4c-1.08-.26-2.76.18-4,0-.89-.13-1.93-1.02-3.49-1.06-3.38-.08-8.73,2.43-4.01,3.06,4.17.56,4.52-1.77,4.5,3-2.19.29-5.7-.96-6.01,2.49-.02.75,5.19.74,6.01.51.67-.19.91-2.93,2.99-2-.38,1.78,1.86,4.13,2.01,5,.46,2.55-.68,4.71-1,7-.28,2.03-.91,3.29-1,6-5.22.45-1.8-8.76-3.57-9.02-10.26-.7-2.62,2.27-2.43,9.02.03,1-.02,2,0,3-1.06-1.14-5.23-6.62-5.74-7.76-2.13-4.78-.28-9.9-1.24-13.58-.29-1.12-1.93-.54-2.03-.65-.88-1.07-.81-3.7-4-4,0-.48,1.4-1.49.57-2.98-1.75-3.11-4.57-1.13-6.57-8.02,1.98,1.34,6.17,6.52,8.55,3.05s-1.54-6.78-1.59-8.54c0-.28,3.52-1,2.04-4.5-5.93-1.56-5.81,2.3-10,4-.05-1.82.92-3.04,1-4,2.61.33,4.3-5.3,7-6,3.81-.98,18.9-.13,24,0ZM20,106.99c1.5.12,8.01.44,7.98-1.49-.05-2.61-7.59-1.4-7.98,1.49Z"/>
      <path class="cls-59" d="M9,134c.21,0,.82,1.38,2.98.63,2.82-.99,4.63-4.83,8.01-4.63l1.01,8c-4.21-.78-12.45,1.07-16,0-1.52-.46-.93-1.68-1-3,1.55-1.07,3.21-1,5-1Z"/>
      <path class="cls-47" d="M15,98c-2.16,2.28.53,7.2-4,7,.07-3.65,0-7.34,0-11,3.19.3,3.12,2.93,4,4Z"/>
      <path class="cls-48" d="M14,123c1.79.84,2.79.36,3.07,2.47.84,6.35-.91,3.7-3.07,4.53.23-.27.07-5.73,0-7Z"/>
      <path class="cls-7" d="M45,115c.7.98.23,2.77,3,3.49-3.32,3.66-4.95,10.53-10.95,7.95-2.67-1.15-4.2-5.11-7.05-5.45-.13-.93.03-2.02,0-3-.01-.33-.01-.67,0-1,.09-2.71.72-3.97,1-6,3.63,4.46,9.49,2.75,14,4Z"/>
      <path class="cls-46" d="M24,117c-.19-6.75-7.83-9.72,2.43-9.02,1.77.25-1.65,9.46,3.57,9.02-.01.33-.01.67,0,1l-6-1Z"/>
      <path class="cls-3" d="M4,77c4.19-1.7,4.07-5.56,10-4,1.48,3.5-2.05,4.22-2.04,4.5.05,1.76,4,5.02,1.59,8.54s-6.57-1.71-8.55-3.05c-.73-2.51-.93-3.27-1-6Z"/>
      <path class="cls-41" d="M7,93c.94,2.88,1.41,8.27,0,11-.93-.09-1.74.54-2.02-.63-.23-.96-.29-9.96.02-10.38.12-.16,1.44.1,2,0Z"/>
      <path class="cls-28" d="M25,4c3.52,2.29,8.53.35,12.44,1.06,3.03.55,6.43,4.18,10.56,2.94,2.41,1.84,4.55,5.08,7,7-.01.33-.01.67,0,1,.12,3.36-.42,8.01,3,10,.08,2.99-.02,6.01,0,9l-3.51,4c-1.96.43-2.77-6.68-10.76-2.76-1.66.82-6.57,6.25-7.19,7.8-1.39,3.49.09,6.82-4.53,9.48-.47,3.25,6.04.32,6,2-.06,2.54-7.49,3.29-6.01,8.49-9.13.43-17.31-1.83-24-8-.14-7.97-1.39-6.82-3-12-.42-1.34.22-4.25,0-6,2.59-5.76,3.74-15.57,6.57-20.93,1.97-3.73,5.85-3.69,8.43-10.07.4-.99.92-1.9,1-3,1.32-.07,2.67.03,4,0ZM27.99,43.01c-2.7.2-7.26-.93-9.09,1.4-1.32,1.68-1.58,9.04.03,10.16,5.87,4.09,4.47-5.69,5.2-7.94.81-2.52,4.7-.25,3.87-3.62Z"/>
      <path class="cls-25" d="M32,64c-1.48-5.2,5.95-5.95,6.01-8.49.04-1.67-6.47,1.26-6-2,4.62-2.66,3.14-5.98,4.53-9.48.62-1.55,5.53-6.98,7.19-7.8,7.99-3.92,8.79,3.19,10.76,2.76l3.51-4c.02,2.98-.17,6.03,0,9-.16.23-3.53,3.86-3.77,3.99-3.13,1.68-3.71-.99-5.23,3.01l-6.98,2.5c.48.77,2.97,2.62,2.96,3-.01.41-5.42,5.12-5.98,5.5-3.12,2.11-3.36,1.83-7,2Z"/>
      <path class="cls-39" d="M49,51c-.82,2.16-3.04,4.48-3.02,5.49.02.7,3.98,1.34,3.02,3.51-1.56-.05-6.66,3.03-9,4l-1-2c.56-.38,5.97-5.09,5.98-5.5.01-.38-2.48-2.23-2.96-3l6.98-2.5Z"/>
      <path class="cls-49" d="M49,60c.16,0,1.18,1.06,3,1v2c-.72,0-4.82,2.1-7,1.01-.69,1.73,3.04,3.73,1.99,4.99-1.62,1.93-2.07-1.89-2.64-2.01-2.15-.45-5.84.08-8.36.02v-1c2.06-.3,2.67-1.45,4-2,2.34-.97,7.44-4.05,9-4Z"/>
      <path class="cls-54" d="M36,66v1c-5.1-.13-20.19-.98-24,0,7.23-2.63,16.6.08,24-1Z"/>
      <path class="cls-23" d="M58,89c.38,1.58-.24,4.18,0,6,.08.59.96,1.46,1,2-1.36,2.56-2.51,5.52-4,8-2.99-.79-7.12-3.63-5-7,.29-.46,1.61-.34,1.98-2.48.35-1.99.31-7.45.02-9.52l3-1c.35,1.37,2.67,2.64,3,4Z"/>
      <path class="cls-4" d="M55,65c.07.01.41-1.05.98-1.02-.64,2.93,1.62,3.11,3.02,5.02.31.88.91,1.71,1,2,1.8,6.05,3.18,15.29,2,21.5-.48,2.54-1.78,2.65-4,2.5-.24-1.82.38-4.42,0-6,3.49.12,2.76.62,3-2.45s-.17-6.4,0-9.54c-1-1.04-5.78,2.4-5.99,3-.65-.07-1.37.1-2,0,.94-2.39,4.8-3.98,5.06-6.55.3-3.05-4.29-4.63-3.06-8.45Z"/>
      <path class="cls-5" d="M39,111c.15.38-.31,1.28.12,1.85.48.38,3.01.28,3.88.15.63.67,1.47,1.25,2,2-4.51-1.25-10.37.46-14-4,.32-2.29,1.46-4.45,1-7h1c3.79.61,3.69-7.55,2-10-.28-.41-.44-.87-1-1l3.99-4c.74,6.82-1.44,15.84,1.01,22Z"/>
      <path class="cls-33" d="M45,98c1.63-.18,3.36.12,5,0-2.12,3.37,2.01,6.21,5,7-3.75,6.26-4.08,5.23-12,5-.12-2.44,2.78-3.27,2.97-5.47.28-3.31-3.96-3.12-2.97-6.53.39-.16,1.36.07,2,0Z"/>
      <path class="cls-12" d="M42,86c-.06-1.99.04-4.01,0-6l8.82,3.2c.55.41.03,1.49.17,1.8-3.57,4.58.3,9.16-8,7-1.24-2.06-.93-3.8-1-6Z"/>
      <path class="cls-50" d="M52,86c.3,2.07.33,7.54-.02,9.52-.37,2.14-1.7,2.02-1.98,2.48-1.64.12-3.37-.18-5,0,2.37-4.36-.83-4.06-2-6,8.3,2.16,4.43-2.42,8-7,.16.34.96.71,1,1Z"/>
      <path class="cls-6" d="M43,98c-.99,3.41,3.25,3.22,2.97,6.53-.19,2.2-3.08,3.03-2.97,5.47v1c-1.58-.52-1.65-12.3,0-13Z"/>
      <path class="cls-52" d="M20,7c-2.57,6.38-6.45,6.34-8.43,10.07-2.83,5.36-3.98,15.16-6.57,20.93-1.26-9.81-1.28-14.87,3-24,2.9-3.77,7.9-3.35,10-7,.67-.02,1.33.02,2,0Z"/>
      <path class="cls-8" d="M18,7c-2.1,3.65-7.1,3.23-10,7,.9-1.93.97-3.46,3-5,2.18-1.65,4.38-1.91,7-2Z"/>
      <path class="cls-40" d="M57,19c.17.18,1.77-.6,2.05.59.6,2.56.36,18.7,0,22.02-.18,1.64-.39,1.42-1.06,2.39-.17-2.97.02-6.02,0-9s.08-6.01,0-9c-.06-2.39.4-4.83-1-7Z"/>
      <path class="cls-11" d="M57,19c1.4,2.17.94,4.61,1,7-3.42-1.99-2.88-6.64-3-10,.69,1,1.14,2.11,2,3Z"/>
      <path class="cls-21" d="M40,4c3.13.44,5.63,2.19,8,4-4.12,1.23-7.52-2.39-10.56-2.94-3.92-.71-8.93,1.24-12.44-1.06,4.37-.1,10.95-.57,15,0Z"/>
      <path class="cls-26" d="M56,60c-1.53,2.39,1.46,3.39,2.26,5.29.61,1.46.41,2.78.74,3.71-1.41-1.91-3.66-2.08-3.02-5.02-.57-.03-.91,1.03-.98,1.02-.89-.18-2.32-2-3-2v-2c.31,0,2.56-1.88,4-1Z"/>
      <path class="cls-9" d="M36,71c1.73,1.22,2.55,2.88,3,5,.11.51-.01,6.44-.21,6.8-.26.46-8.04,5.37-8.84,5.64-5.13,1.71-12.17-1.89-9.45-7.46,1-2.04,4.24-1.01,3.51-3.97l-6-1.02c.89-6.72,13.67-8.04,18-4.99Z"/>
      <path class="cls-13" d="M55,65c-1.23,3.82,3.35,5.4,3.06,8.45-.25,2.58-4.11,4.16-5.06,6.55-4.44-.69-8.91-4.02-14-4-.45-2.12-1.27-3.78-3-5v-4c2.52.06,6.21-.47,8.36-.02.57.12,1.02,3.94,2.64,2.01,1.05-1.25-2.68-3.26-1.99-4.99,2.17,1.1,6.28-1.01,7-1.01.68,0,2.11,1.82,3,2ZM49.01,75.99c4.33-.12,3.08-3.59.49-5.99l-.49,5.99Z"/>
      <path class="cls-24" d="M55,80c.22-.59,4.99-4.03,5.99-3-.17,3.15.25,6.4,0,9.54s.49,2.57-3,2.45c-.33-1.36-2.65-2.63-3-4-.15-.6-.16-4.57,0-5Z"/>
      <path class="cls-17" d="M30,93c2.23,4.21.73,4.5-3,5,.01-4.77-.33-2.44-4.5-3-4.72-.63.64-3.14,4.01-3.06,1.56.04,2.61.93,3.49,1.06Z"/>
      <path class="cls-10" d="M34,93c.56.13.72.59,1,1-3.54,1.62-1.56,6.81-2,10h-1c-.15-.86-2.4-3.22-2.01-5-2.08-.93-2.31,1.81-2.99,2,0-1,0-2,0-3,3.73-.5,5.23-.79,3-5,1.24.18,2.92-.26,4,0Z"/>
      <path class="cls-15" d="M20,106.99c.39-2.89,7.93-4.1,7.98-1.49.03,1.93-6.48,1.61-7.98,1.49Z"/>
      <path class="cls-56" d="M27,98c0,1,0,2,0,3-.82.23-6.03.24-6.01-.51.31-3.45,3.82-2.2,6.01-2.49Z"/>
      <path class="cls-19" d="M27.99,43.01c.84,3.37-3.05,1.1-3.87,3.62-.73,2.25.67,12.03-5.2,7.94-1.61-1.12-1.35-8.48-.03-10.16,1.83-2.33,6.39-1.2,9.09-1.4Z"/>
      <path class="cls-28" d="M35,94c1.69,2.45,1.79,10.61-2,10,.44-3.19-1.54-8.38,2-10Z"/>
      <path class="cls-22" d="M49.01,75.99l.49-5.99c2.59,2.4,3.84,5.87-.49,5.99Z"/>
    </g>
  </g>
</svg>