<?xml version="1.0" encoding="UTF-8"?>
<svg id="_Слой_2" data-name="Слой 2" xmlns="http://www.w3.org/2000/svg" viewBox="0 0 66 150">
  <defs>
    <style>
      .cls-1 {
        fill: #dd9a77;
      }

      .cls-2 {
        fill: #41190d;
      }

      .cls-3 {
        fill: #fcd3b5;
      }

      .cls-4 {
        fill: #bdb0ac;
      }

      .cls-5 {
        fill: #331c15;
      }

      .cls-6 {
        fill: #d29477;
      }

      .cls-7 {
        fill: #94553d;
      }

      .cls-8 {
        fill: #d49275;
      }

      .cls-9 {
        fill: #f9cfb2;
      }

      .cls-10 {
        fill: #fae0ca;
      }

      .cls-11 {
        fill: #8d5b4d;
      }

      .cls-12 {
        fill: #2e1711;
      }

      .cls-13 {
        fill: #3d2620;
      }

      .cls-14 {
        fill: #facfb1;
      }

      .cls-15 {
        fill: #d79b7e;
      }

      .cls-16 {
        fill: #e6a47f;
      }

      .cls-17 {
        fill: #f6c9ac;
      }

      .cls-18 {
        fill: #bab2b0;
      }

      .cls-19 {
        fill: #e5a07c;
      }

      .cls-20 {
        fill: #8f513a;
      }

      .cls-21 {
        fill: #c8876b;
      }

      .cls-22 {
        fill: #d89a7c;
      }

      .cls-23 {
        fill: #804934;
      }

      .cls-24 {
        fill: #411a0f;
      }

      .cls-25 {
        fill: #fdd4b6;
      }

      .cls-26 {
        fill: #362b24;
      }

      .cls-27 {
        fill: #3f2822;
      }

      .cls-28 {
        fill: #fde4ce;
      }

      .cls-29 {
        fill: #f8cfb1;
      }

      .cls-30 {
        fill: #452b23;
      }

      .cls-31 {
        fill: #4c271c;
      }

      .cls-32 {
        fill: #40190e;
      }

      .cls-33 {
        fill: #fcd3b6;
      }

      .cls-34 {
        fill: #fbe1cb;
      }

      .cls-35 {
        fill: #341d17;
      }

      .cls-36 {
        fill: #351c15;
      }

      .cls-37 {
        fill: #91543d;
      }

      .cls-38 {
        fill: #d8997c;
      }

      .cls-39 {
        fill: #3a231c;
      }

      .cls-40 {
        fill: #fad0b3;
      }

      .cls-41 {
        fill: #8e4e36;
      }

      .cls-42 {
        fill: #d19376;
      }

      .cls-43 {
        fill: #d49b7f;
      }

      .cls-44 {
        fill: #502a1e;
      }

      .cls-45 {
        fill: #421c10;
      }

      .cls-46 {
        fill: #905038;
      }

      .cls-47 {
        fill: #fbd2b4;
      }

      .cls-48 {
        fill: #fadec7;
      }

      .cls-49 {
        fill: #492115;
      }

      .cls-50 {
        fill: #d29679;
      }

      .cls-51 {
        fill: #e6a784;
      }

      .cls-52 {
        fill: #cd8f73;
      }

      .cls-53 {
        fill: #36271e;
      }

      .cls-54 {
        fill: #835348;
      }

      .cls-55 {
        fill: #8c4e37;
      }

      .cls-56 {
        fill: #fdd3b6;
      }

      .cls-57 {
        fill: #693725;
      }

      .cls-58 {
        fill: #472116;
      }

      .cls-59 {
        fill: #4e2417;
      }
    </style>
  </defs>
  <g id="_Слой_23_Изображение" data-name="Слой 23 Изображение">
    <g>
      <path class="cls-22" d="M53,67c2.54,2.86,6.21,2.18,5,7-1.35-.17-6.34-2.58-6.99.51-.48,2.27,3.05,2.03,3.02,3-.11,3.6-8.64,9.76,4.98,8.48-.29.68-.7,1.32-1,2-.31.18-.59.74-1,1-4.05-.06-7.82,2.15-3,4.5-3.21,2.07-3.88,6.25-2.79,9.81.41,1.35,2.21,2.08,2.6,3.39.81,2.76-.18,4.69,1.2,8.31.56,1.47-.88,2.56,3,2-.11.4.05.81-.51.99-.5.04-.99,0-1.49,0-.83,0-2.02-.98-3.03-.49-1.78.86-1.45,2.68-1.97,3.49-.12.19-.09,1.12-.55,1.97-.86,1.59-3.26-.1-2.45,6.03.05.35-.08.73,0,1l-1.99-1c-1.54,3.58-.73,6.4-.01,10-10.73-.8-6.1-10.9-7-19,4.94-2.04,2.2-2.5,3.42-7.1.66-2.5,4.57-2.33,2.6-4.42-9.89-3.44-3.61,5.19-9.02,9.52-.29-2.18.21-4.75,0-7-2.32-.43-2.83,2.22-4.7,2.79-2.04.62-4.32-.05-6.29.2,4.27-7.59.99-18.46,2-27.01h-2s-1,0-1,0c.15-1.64.39-6.59-1.52-6.99-1.62-.35-2.28,1.95-3.51,2.47-1.48.62-3.1.27-4.3.73-1.7.64-1.35,3.9-4.67,2.8,2.92-4.15-1.15-5.41-2-9,.35.06.76-.1,1,0,.66.28,1.58,2.93,4.5,2.93s4.11-2.8,4.5-2.93c1.01-.34,7.24-.16,8.07.43,1.19.83.69,3.78,1.5,5.54,1.11,2.39,11.16,6.53,13.7,6.02.23-.05,2.06-2.24,3.72-2.99.68-.3,2.53.6,3-1,1.36-1.13.95-7.88.58-9.54-.28-1.26-1.16-1.04-1.58-1.46-5.69-5.61-10.5-4.64-18-3.01l-1-3.99c7.75-.72,17,.13,25,0ZM42.99,93.01c-5.02-.41-7.06-.71-6.99,4.99l6.99-4.99ZM32.99,95.01c-4.57.02-2.71,5.87-2.99,9h2.99s0-9,0-9Z"/>
      <path class="cls-19" d="M8,22c.65,5.88-2.51,17,4.99,19,.51-5.67,1.95-5.83,7.46-4.9,2.26.38,8.15,5.89,9.04,7.92.93,2.13.15,4.3.71,6.29s5.32,4.06,1.32,4.7c-.42.07-7.17-.46-4.52,1.99.89.82,7,.14,7,6.01-2.31-.18-4.68.12-7,0-.74-3.59-3.82-3.13-4.59-5.95-.42-1.55,1.01-4.63.6-5.04-.14-.14-2.8.08-4.03-.46-1.39-.61-2.63-2.12-3.77-2.4-1.35-.33-2.07.86-2.21.85-.63-.03-2.02-1.09-3-1-.63-.66-1.35-1.34-2-2-1.27-8.08-1.93-17.08,0-25ZM19.99,38c-3.9-2.66-5.45,5.73-2.54,10.05,3.62,5.4,6.37,2.11,9.54-1.56-1.3-1.86-4.1-1.84-5.43-3.55-.96-1.23-1.35-4.8-1.56-4.95Z"/>
      <path class="cls-24" d="M39,120c.9,8.1-3.73,18.2,7,19,3.97.29,9.55.29,13.53,0,2.84-.2,1.05-2.48,1.47-4.01.07-.01.38-1.03,1-1,.1.13,1.76-.51,2.04.63,1.26,5.15.64,7.9-4.53,8.37-8.09.74-11.27.27-19.51,2-.32.07-.68-.07-1,0,.2-8.76-2.84-5-8-6-1.27-2.64-1.42-6.75-1.07-9.56.04-.31,2.88-5.19,3.07-5.44,1.04-1.41,2.4-3.24,4-4,.44-.21,1.51.2,2,0Z"/>
      <path class="cls-24" d="M25,87c1.15,6.34,1.83,16.17,1.07,22.55-.22,1.83-2.99,2.07-3.07,4.45-2.34.35-3.77.91-5,3-2.62,4.45.31,11.21-1.15,15.38-.48,1.36-2.61,1.28-2.87,2.31-.53,2.09.27,5.79.02,8.31-.04.45-.53.89-1,1-.81-.96-2.09-1.1-2.57-2.91-2.51-9.5,2.63-9.18,3.51-14.65.36-2.26-.04-8.72-.97-10.66-.44-.91-5.65-5.07-6.97-6.79.96-.27.95-1.15,1-2,3.87,1.2,2.41,3.51,7,4s7.26,1.2,9-3c1.32-3.18,1.26-6.07.9-9.43-.09-.68-.58-.43-.9-.57-.38-.17-1.36.07-2,0-1.02-.96-.65-3.39-1-4,2.7.72,3.81-4.89,4-7h1Z"/>
      <path class="cls-35" d="M23,2c4.43-.71,13.11-.16,18,0,3.07.1,7.99-1.3,8,3-7.46-1.2-16.6-1.97-24,0-7.51.88-15.22,9.72-17,17-1.93,7.92-1.27,16.92,0,25-.74-.75-3.28.12-3.98-3.53-.64-3.36-.47-23.49.4-26.59.51-1.79,2.04-1.72,2.28-2.18.52-1.04.06-2.56.61-3.39,2.29-3.41,11.81-8.69,15.68-9.31Z"/>
      <path class="cls-32" d="M63,89c0,.49-1.34,2.1-1,3h-1c-4.01-.11-3.72,7.61-3.04,10.37.29,1.2,1.87.47,2.04.63.57.54.9,1.72,2,2-1.04,1.47-3.45,3.52-3.8,4.7-.71,2.37.3,5.4-.2,7.3-3.88.56-2.44-.53-3-2l-.65-23.57c.1-.65,1.94-1.99,2.65-2.43.41-.26.69-.82,1-1,.66-.38,3.09.71,3.86-1.64.58-1.77.33-8.6.18-10.94-.09-1.35-.99-2.11-1.04-2.42-.1-.61.03-1.34,0-2,2.3.7,1.93,2.59,2.06,4.45.28,4.24,0,9.22-.06,13.55Z"/>
      <path class="cls-5" d="M4,71v6c0,4.25-.27,8.81,0,13,.2,3.03-.62,5.54,3,7,.04,1.33,0,2.67,0,4,0,1.99.12,4.02,0,6-.05.85-.04,1.73-1,2-.77-1.01-4.76-8.37-4.99-9.51-.69-3.5-.55-20.63-.01-24.49.58-4.15,2-3.25,3-4Z"/>
      <path class="cls-45" d="M58,11c.11.13,1.3-.26,1.75.22.27.29,3.93,6.11,4.25,6.78v27c-.33.37-1.49.59-2,1,0-.27-1-.8-1-1,.06-6.08,1.02-18.27-.01-23.48-.5-2.53-2.61-2.55-2.99-6.52-.12-1.31.08-2.68,0-4Z"/>
      <path class="cls-31" d="M14,143c2.62-1.08,2.92,1.64,3.79,1.91,6.26,1.94,14.09,1.38,20.21.09.32-.07.68.07,1,0s.68.07,1,0c-2.09,7.71-15.17,2.47-21.54,4.08-.73-.09-4.73-4.21-5.46-5.08.47-.11.96-.55,1-1Z"/>
      <path class="cls-23" d="M49,5c1.26.2,2.75.64,4,1h1c.72.65,1.24,2.3,2,3l1,1c.33.34.68.65,1,1,.08,1.32-.12,2.69,0,4-2.99-.16-5.8-6.01-7.25-6.72-1.25-.62-2.9-.02-3.99-.49-1.49-.64-2.24-2.2-3.46-2.58-2.27-.71-15.33-.55-18.3-.2,7.4-1.97,16.54-1.2,24,0Z"/>
      <path class="cls-36" d="M13,50c1.75.97,2.92,3.56,4.38,4.65.86.64,2.45.22,2.62.36,1.91,1.62-4.09,2.85-3,4.99-1.73-.1-3.4.83-5,1-.74.08-1.94-.05-2-1,.56-.58,1.33-3.57,3.72-4.44.17-2.99-2.1-3.33-3.09-4.63-.55-.72-.48-1.77-.63-1.93.98-.09,2.37.97,3,1Z"/>
      <path class="cls-13" d="M12,61v1c-1.36.1-2.26,2.06-3,3-1.92,2.43-2.27,3.95-5,6-1,.75-2.42-.15-3,4-1.73-4.75,2.27-5.08,2.84-6.66,2.69-7.48,1.52-3.55,6.16-8.34.06.95,1.26,1.08,2,1Z"/>
      <path class="cls-49" d="M58,57h1c-1.11,1.06-1.49,7.64-1,9-.27.97-1.15.94-2,1-1.73-3.42-6.08-2.31-3-7,1.31-.64,2.05-3.98,5-3Z"/>
      <path class="cls-26" d="M62,105c-1.1-.28-1.43-1.46-2-2l1-11h1c.04.11,1.53.52,1.8,1.66.48,2.08.59,7.71,0,9.69-.37,1.27-1.59,1.35-1.8,1.65Z"/>
      <path class="cls-58" d="M61,45c0,.2,1,.73,1,1,0,.99-.81,9.8-.95,10.38-.28,1.17-1.88.46-2.05.62h-1v-12.01s3,0,3,0Z"/>
      <path class="cls-54" d="M61,69c.02.67-.03,1.34,0,2s-.1,1.39,0,2c-.3.91-1.15,1.06-2,1-.33-.02-.67.04-1,0,1.21-4.82-2.46-4.14-5-7,.99-.02,2.01.07,3,0,.85-.06,1.73-.03,2-1,.07.2,2.42,2.42,3,3Z"/>
      <path class="cls-4" d="M64,45v-27c1.56,3.2,1.51,20.2,1.06,24.6-.16,1.54-.17,1.38-1.06,2.4Z"/>
      <path class="cls-39" d="M61,69c1.26,1.27,1.7-.61,3,3v17h-1c.05-4.33.34-9.31.06-13.55-.12-1.86.24-3.74-2.06-4.45-.03-.66.02-1.33,0-2Z"/>
      <path class="cls-37" d="M56,118c-1.88,3.64-.72,8.04-1,12h-1c-.42-3.15.83-4.75-1-8-.46-.82-1.12-1-2-1,.52-.81.18-2.63,1.97-3.49,1.01-.49,2.21.49,3.03.49Z"/>
      <path class="cls-44" d="M55,130c1.49,1.84,4.41.42,5.87,1.17.52.27.63,2.19,1.13,2.83-.62-.03-.93.99-1,1-.31.06-.67-.02-1,0-2.06-1.62-5.1-.96-6-4-.08-.28.05-.65,0-1h1Z"/>
      <path class="cls-30" d="M41,2c-4.89-.16-13.57-.71-18,0,5.01-1.67,12.92-1.68,18,0Z"/>
      <path class="cls-18" d="M64,89v-17c1.65,4.58,1.69,12.66,0,17Z"/>
      <path class="cls-12" d="M57,10l-1-1c.35.32.67.66,1,1Z"/>
      <path class="cls-27" d="M54,6h-1c.1.03-.13-1.02,1,0Z"/>
      <path class="cls-28" d="M28,67l1,3.99c7.5-1.63,12.31-2.6,18,3.01.62,3.14-3.66,2.83-6,3.01-.44,2.13,1.27,2.7,3,2.99l1,6c-1.66.74-3.49,2.94-3.72,2.99-2.54.52-12.59-3.63-13.7-6.02-.82-1.76-.31-4.71-1.5-5.54-.84-.58-7.07-.77-8.07-.43-.4-.15-.92-1.01-1-1,.06-6.15,4.64-8.27,10-9,.33-.04.67.03,1,0Z"/>
      <path class="cls-9" d="M25,114c1.97-.25,4.25.42,6.29-.2,1.87-.57,2.38-3.22,4.7-2.79.22,2.25-.28,4.82,0,7,.07.56.8,1.36,1,2-1.6.76-2.96,2.59-4,4-3.31.67-4.3,4.04-8.29,3.03-.6-.15-7.9-7.84-6.71-10.03,1.23-2.09,2.66-2.65,5-3,.64-.1,1.36.08,2,0Z"/>
      <path class="cls-48" d="M20,64c-1.54,5.22-7.86,6.1-5.99,13,1.08.28,2.33-.96,2.99-1,.08,0,.6.85,1,1-.39.13-1.63,2.93-4.5,2.93s-3.84-2.65-4.5-2.93c-4-5.43,3.4-7.68,0-12,.74-.94,1.64-2.9,3-3,1.27-.09,6.04,2.01,8,2Z"/>
      <path class="cls-46" d="M53,60c-3.08,4.69,1.27,3.58,3,7-.99.07-2.01-.02-3,0-8,.13-17.25-.72-25,0-.33.03-.67-.04-1,0v-1c-.12-.95.18-2.13,0-3,2.32.12,4.69-.18,7,0,7.59.58,11.99.45,19-3Z"/>
      <path class="cls-47" d="M24,87c-.19,2.11-1.3,7.72-4,7-1.24-2.15-4.12-3.99-4.49-8-2.9,3.08-1.02,8.18-1.51,12-2.33-.85-.91-9-1-11-.93.11-2.2-.21-3,0v-1c3.32,1.1,2.97-2.15,4.67-2.8,1.21-.46,2.82-.11,4.3-.73,1.23-.52,1.89-2.81,3.51-2.47,1.91.41,1.66,5.35,1.52,6.99Z"/>
      <path class="cls-34" d="M58,74c.33.04.67-.02,1,0,3.33,4.79,1.97,7.36,0,12-13.62,1.28-5.09-4.88-4.98-8.48.03-.98-3.5-.73-3.02-3,.66-3.09,5.65-.68,6.99-.51Z"/>
      <path class="cls-40" d="M48,130c1.59,5.2,7.62,5.31,12,5,.33-.02.69.06,1,0-.42,1.53,1.37,3.81-1.47,4.01-3.98.28-9.56.29-13.53,0-.72-3.6-1.53-6.41.01-10l1.99,1Z"/>
      <path class="cls-10" d="M8,77c.85,3.59,4.92,4.85,2,9v1c-1.23.32-2.53,2.39-4,3-.44.18-1.39-.12-2,0-.27-4.19,0-8.75,0-13,1.27.15,2.82-.22,4,0Z"/>
      <path class="cls-20" d="M57,89c-.7.44-2.55,1.79-2.65,2.43l.65,23.57c-1.38-3.62-.39-5.55-1.2-8.31-.38-1.31-2.18-2.04-2.6-3.39-1.09-3.56-.42-7.73,2.79-9.81-4.82-2.35-1.04-4.55,3-4.5Z"/>
      <path class="cls-7" d="M36,118c5.41-4.33-.88-12.96,9.02-9.52,1.97,2.09-1.93,1.92-2.6,4.42-1.22,4.6,1.52,5.06-3.42,7.1-.49.2-1.56-.21-2,0-.2-.64-.93-1.44-1-2Z"/>
      <path class="cls-43" d="M9,65c3.4,4.32-4,6.57,0,12-.24-.1-.65.06-1,0-1.18-.22-2.73.15-4,0v-6c2.73-2.05,3.08-3.57,5-6Z"/>
      <path class="cls-51" d="M48,85c1.81-6.1-1.04-4.48-4-5-1.72-.3-3.43-.86-3-2.99,2.33-.18,6.61.14,6-3.01.42.42,1.3.2,1.58,1.46.36,1.66.78,8.41-.58,9.54Z"/>
      <path class="cls-57" d="M25,87h2c-1.01,8.54,2.27,19.41-2,27-.64.08-1.36-.1-2,0,.08-2.38,2.85-2.62,3.07-4.45.76-6.39.08-16.21-1.07-22.55Z"/>
      <path class="cls-55" d="M53,122c-2.35,2.65-1.55,6.27,0,9l-5-2c-.81-6.13,1.59-4.44,2.45-6.03.46-.85.43-1.78.55-1.97.88,0,1.54.18,2,1Z"/>
      <path class="cls-39" d="M58,88c.3-.68.71-1.32,1-2,1.97-4.64,3.33-7.21,0-12,.85.06,1.7-.09,2-1,.05.3.96,1.06,1.04,2.42.15,2.34.4,9.18-.18,10.94-.77,2.35-3.2,1.26-3.86,1.64Z"/>
      <path class="cls-56" d="M32.99,95.01v9s-2.99,0-2.99,0c.28-3.13-1.57-8.99,2.99-9Z"/>
      <path class="cls-42" d="M53,131h1c.9,3.04,3.94,2.38,6,4-4.38.31-10.41.2-12-5-.08-.27.05-.65,0-1l5,2Z"/>
      <path class="cls-17" d="M42.99,93.01l-6.99,4.99c-.07-5.7,1.97-5.4,6.99-4.99Z"/>
      <path class="cls-3" d="M44,80c2.96.52,5.81-1.1,4,5-.47,1.6-2.32.7-3,1l-1-6Z"/>
      <path class="cls-25" d="M25,5c2.97-.35,16.03-.51,18.3.2,1.22.38,1.97,1.94,3.46,2.58,1.1.47,2.74-.12,3.99.49,1.46.71,4.27,6.57,7.25,6.72.37,3.96,2.49,3.99,2.99,6.52,1.03,5.21.08,17.4.01,23.48h-3s0,12,0,12c-2.95-.98-3.69,2.36-5,3-7.01,3.45-11.41,3.58-19,3,0-5.87-6.11-5.19-7-6.01-2.65-2.45,4.1-1.92,4.52-1.99,4-.64-.77-2.78-1.32-4.7s.22-4.16-.71-6.29-6.77-7.54-9.04-7.92c-5.51-.93-6.95-.77-7.46,4.9-7.5-1.99-4.34-13.12-4.99-19,1.78-7.28,9.49-16.12,17-17ZM42,50c.03,1.67-.04,3.34,0,5.01,10,.47,3.87-3.51,4.15-5.31.16-1.03,2.06-1.94,1.88-4.19-.08-1.02-1.87-.3-2.03-.51-2.5-3.18-.24-3.58-7-3-2.5.21-6.55.47-5.84,4.36.62,3.43,6.47,2.1,8.84,3.64Z"/>
      <path class="cls-41" d="M13,50c.14,0,.86-1.19,2.21-.85,1.14.28,2.38,1.8,3.77,2.4,1.22.53,3.88.31,4.03.46.41.41-1.02,3.49-.6,5.04.77,2.82,3.85,2.37,4.59,5.95.18.87-.12,2.05,0,3-1.52-2-5.74-1.89-7-3-.91-.81-.35-3.83-3-3-1.09-2.14,4.91-3.38,3-4.99-.17-.14-1.76.28-2.62-.36-1.45-1.09-2.63-3.68-4.38-4.65Z"/>
      <path class="cls-14" d="M19.99,38c.21.15.6,3.72,1.56,4.95,1.33,1.7,4.13,1.69,5.43,3.55-3.17,3.67-5.92,6.95-9.54,1.56-2.9-4.32-1.35-12.71,2.54-10.05Z"/>
      <path class="cls-38" d="M18,117c-1.18,2.19,6.12,9.88,6.71,10.03,3.99,1.01,4.98-2.35,8.29-3.03-.18.25-3.03,5.13-3.07,5.44-.35,2.81-.2,6.92,1.07,9.56-3.07-.6-10.6-5.73-11.07-.48-.59,6.54,13.6,7.17,18.07,6.48-6.12,1.29-13.96,1.85-20.21-.09-.87-.27-1.17-2.99-3.79-1.91.24-2.52-.55-6.22-.02-8.31.26-1.04,2.4-.95,2.87-2.31,1.46-4.18-1.47-10.93,1.15-15.38Z"/>
      <path class="cls-29" d="M31,139c5.16,1,8.2-2.76,8,6-.32.07-.68-.07-1,0-4.47.68-18.66.06-18.07-6.48.47-5.24,8-.11,11.07.48Z"/>
      <path class="cls-33" d="M10,87c.8-.21,2.07.11,3,0,.09,2-1.33,10.15,1,11,.84.31,3.66-.05,5,0,1.9,2.84-.04,6.16,2,9,.63.88.6,1.24,2,1-1.74,4.2-4.42,3.49-9,3-3.28-3.13-2.2-11.17-7-10,0-1.33.04-2.67,0-4-.07-2.39.4-4.82-1-7,1.47-.61,2.77-2.68,4-3Z"/>
      <path class="cls-8" d="M20,94c.35.61-.02,3.04,1,4-.65-.07-1.34.02-2,0-1.34-.05-4.16.31-5,0,.49-3.82-1.39-8.91,1.51-12,.37,4,3.25,5.84,4.49,8Z"/>
      <path class="cls-52" d="M7,101c4.8-1.17,3.72,6.87,7,10-4.59-.49-3.13-2.8-7-4,.12-1.98,0-4.01,0-6Z"/>
      <path class="cls-59" d="M23,108c-1.4.24-1.37-.12-2-1-.91-3.56,1.89-5.7,2-9,.31.14.8-.11.9.57.36,3.36.42,6.25-.9,9.43Z"/>
      <path class="cls-1" d="M21,98c.64.07,1.62-.17,2,0-.11,3.3-2.91,5.44-2,9-2.04-2.84-.1-6.16-2-9,.66.02,1.35-.07,2,0Z"/>
      <path class="cls-21" d="M60,103c-.17-.16-1.75.57-2.04-.63-.68-2.76-.97-10.47,3.04-10.37l-1,11Z"/>
      <path class="cls-50" d="M6,90c1.4,2.18.93,4.61,1,7-3.62-1.46-2.8-3.97-3-7,.61-.12,1.56.18,2,0Z"/>
      <path class="cls-6" d="M17,60c2.65-.83,2.09,2.19,3,3v1c-1.96,0-6.73-2.09-8-2v-1c1.6-.17,3.27-1.1,5-1Z"/>
      <path class="cls-2" d="M54,130c.05.35-.08.72,0,1h-1c-1.55-2.73-2.35-6.35,0-9,1.83,3.25.58,4.85,1,8Z"/>
      <path class="cls-16" d="M27,66v1c-5.36.73-9.94,2.85-10,9-.66.04-1.92,1.28-2.99,1-1.87-6.9,4.45-7.77,5.99-13v-1c1.26,1.11,5.48,1,7,3Z"/>
      <path class="cls-53" d="M46,45c.16.21,1.95-.51,2.03.51.18,2.25-1.72,3.16-1.88,4.19-.28,1.8,5.84,5.78-4.15,5.31-.04-1.66.03-3.34,0-5.01-.01-.66-.02-1.34,0-2,.04-1-.05-2.01,0-3h4.01Z"/>
      <path class="cls-15" d="M39,42c-.77,2.8,2.18,3.44,3,6-.02.66-.01,1.34,0,2-2.37-1.54-8.22-.21-8.84-3.64-.7-3.89,3.35-4.15,5.84-4.36Z"/>
      <path class="cls-11" d="M39,42c6.76-.58,4.5-.18,7,3h-4.01c-.05.99.04,2,0,3-.82-2.56-3.77-3.2-3-6Z"/>
    </g>
  </g>
</svg>