<?xml version="1.0" encoding="UTF-8"?>
<svg id="_Слой_2" data-name="Слой 2" xmlns="http://www.w3.org/2000/svg" viewBox="0 0 91 148">
  <defs>
    <style>
      .cls-1 {
        fill: #573329;
      }

      .cls-2 {
        fill: #43281f;
      }

      .cls-3 {
        fill: #8c4f38;
      }

      .cls-4 {
        fill: #461f13;
      }

      .cls-5 {
        fill: #724c3f;
      }

      .cls-6 {
        fill: #48241a;
      }

      .cls-7 {
        fill: #5f3f36;
      }

      .cls-8 {
        fill: #35241c;
      }

      .cls-9 {
        fill: #563126;
      }

      .cls-10 {
        fill: #573931;
      }

      .cls-11 {
        fill: #c8bdb9;
      }

      .cls-12 {
        fill: #f9ceb0;
      }

      .cls-13 {
        fill: #fcd3b5;
      }

      .cls-14 {
        fill: #9b5f48;
      }

      .cls-15 {
        fill: #f9dfc8;
      }

      .cls-16 {
        fill: #4b2216;
      }

      .cls-17 {
        fill: #fde3cd;
      }

      .cls-18 {
        fill: #4b322b;
      }

      .cls-19 {
        fill: #8b4c34;
      }

      .cls-20 {
        fill: #4d261a;
      }

      .cls-21 {
        fill: #542f23;
      }

      .cls-22 {
        fill: #fbe0ca;
      }

      .cls-23 {
        fill: #d99b7e;
      }

      .cls-24 {
        fill: #4d271c;
      }

      .cls-25 {
        fill: #451c10;
      }

      .cls-26 {
        fill: #f5c7aa;
      }

      .cls-27 {
        fill: #845143;
      }

      .cls-28 {
        fill: #fadfc8;
      }

      .cls-29 {
        fill: #e6e2e1;
      }

      .cls-30 {
        fill: #522b1f;
      }

      .cls-31 {
        fill: #d89a7c;
      }

      .cls-32 {
        fill: #7a4a3f;
      }

      .cls-33 {
        fill: #513c35;
      }

      .cls-34 {
        fill: #e0a78a;
      }

      .cls-35 {
        fill: #facdaf;
      }

      .cls-36 {
        fill: #f1bfa0;
      }

      .cls-37 {
        fill: #d99d7f;
      }

      .cls-38 {
        fill: #fdd4b6;
      }

      .cls-39 {
        fill: #d99a7e;
      }

      .cls-40 {
        fill: #4c261a;
      }

      .cls-41 {
        fill: #3c2d24;
      }

      .cls-42 {
        fill: #4c2114;
      }

      .cls-43 {
        fill: #4c261b;
      }

      .cls-44 {
        fill: #4d2519;
      }

      .cls-45 {
        fill: #e8c9b3;
      }

      .cls-46 {
        fill: #492217;
      }

      .cls-47 {
        fill: #411a0e;
      }

      .cls-48 {
        fill: #8f5039;
      }

      .cls-49 {
        fill: #765a52;
      }

      .cls-50 {
        fill: #2b1d16;
      }

      .cls-51 {
        fill: #5b362a;
      }

      .cls-52 {
        fill: #f9cdaf;
      }

      .cls-53 {
        fill: #5f443b;
      }

      .cls-54 {
        fill: #885648;
      }

      .cls-55 {
        fill: #e5a27d;
      }

      .cls-56 {
        fill: #603324;
      }

      .cls-57 {
        fill: #f2c8ab;
      }

      .cls-58 {
        fill: #74473c;
      }

      .cls-59 {
        fill: #8e4e36;
      }

      .cls-60 {
        fill: #e2a17e;
      }

      .cls-61 {
        fill: #e19e7a;
      }

      .cls-62 {
        fill: #d59a7e;
      }

      .cls-63 {
        fill: #40251d;
      }

      .cls-64 {
        fill: #ce8b6f;
      }

      .cls-65 {
        fill: #3d160b;
      }

      .cls-66 {
        fill: #e2dcda;
      }

      .cls-67 {
        fill: #8b4c35;
      }

      .cls-68 {
        fill: #542c20;
      }

      .cls-69 {
        fill: #d89d80;
      }

      .cls-70 {
        fill: #90543d;
      }

      .cls-71 {
        fill: #de9e7c;
      }

      .cls-72 {
        fill: #f9dec8;
      }

      .cls-73 {
        fill: #502b20;
      }

      .cls-74 {
        fill: #cf8c70;
      }
    </style>
  </defs>
  <g id="_Слой_18_Изображение" data-name="Слой 18 Изображение">
    <g>
      <path class="cls-74" d="M54,118c1.7,2.22,3.69,3.6,4,4,.5.64,2.74,3.59,3,4,1.35,2.1,4.62,11.54,3,13-.15.14-2.11-.08-4,1-.64.37-1.34.66-2,1-.67,0-1.33,0-2,0,.25-5.13-6.34-3.47-7-4.01-.16-.13.03-2.21,0-2.99,7.28-3.69-1.95-6.63-3.48-10.02-1.12-2.48-.34-5.4-.52-7.99,3.56-.65,5.92.72,9,2Z"/>
      <path class="cls-64" d="M5,93c5.41.78,14.69-4.25,11.86,5.38-.64,2.19-2.76.47-2.85.62-.26.42-.55,7.21.99,8-.15.23.15.76,0,1-.48.77-1.48,2.57-2,3l-3,1c-.81.09-2.25.13-3,0l-2-1c-.32-.16-.67-.7-1-1,.4-5.64-1.02-11.63,1-17Z"/>
      <path class="cls-59" d="M65,51c-.58.61-.85,1.72-2,2-1.91-2.29-7.48,2.3-7.99,3.51-1.14,2.7,6.7,1.65,6.99,4.49-1.79.09-4.76.21-6.26,1.01s-1.27,2.6-1.74,2.99c-7.54,6.3-22.28,1.33-31.53,2.98-2.66.47-1.89,4.09-5.47,3.02.76-4.34,7.8-4.29,7-9,1.22.65,3.65,1.64,5,2,8.81,2.37,26.25,2.43,23-10.99,4.66,1.25,4.86-1.52,7-3.01l6,1Z"/>
      <path class="cls-65" d="M37,2c5.1,0,10.87.13,16,0,.44-.01.83.95,1,1,.56,3.02-1.53,1.94-3.45,2-6.66.22-14.28-1.01-20.55,1-2.88,2.95-8.99,4.61-11.59,7.91-.41.52-3.34,6.7-3.41,7.09h-1c-1.66,1.04-1,3.8-1.02,5.49-.06,6.02-.3,12.57.02,18.51-2.29-8.49-.38-18.22-1-27C15.82,8.07,26.61,2.01,37,2Z"/>
      <path class="cls-19" d="M17,79c1.65.85.53,3.35,1.26,4.76.23.45,2.8,1.62,3.74,3.24.6,1.04.77,1.86,1,3-5.36.5-2.05,7.85-3.18,11.35-.27.83-3.88,3.29-4.82,4.65-.16.22.15.77,0,1-1.54-.79-1.25-7.58-.99-8,.09-.15,2.21,1.57,2.85-.62,2.83-9.63-6.46-4.6-11.86-5.38.26-.69.72-1.32,1-2,4.27-.78,3.04-.7,6-2,1.9-.83,1.55.38,4-2s.98-3.99,1-8Z"/>
      <path class="cls-46" d="M70,46c-3.02.56-1.94-1.53-2-3.45-.14-4.17.22-8.4,0-12.55-.39-7.18-3.82-11.72-4-16-.02-.51,1.11-2.08,1-3,1.54,1.89,5.48,5.93,5.98,8.52.77,3.98.38,23.01-.98,26.48Z"/>
      <path class="cls-4" d="M46,127c-.36.65-.61,1.37-1,2-9.72-.96-7.85,8.29-9,15-.55.18-1.59-.2-2,0-.42-.16-.81-.96-1-1,.19-2.96-.27-6.07,0-9,.53-5.82,3.74-7.52,7-12,.1.04,1.28-1.04,2.06-.54.3.19,2.45,3.85,3.94,5.54Z"/>
      <path class="cls-1" d="M23,107c.79.52.98,2.66,3,2-1.66,2-2.55-.92-3,4-.06.66.02,1.34,0,2-5.84,1.16-1.89,11.8-3,16-.68,1.01-3.33,4.52-4,5-1.6-.06-4.15.62-5-1,1.85-1.82,4.72-3.25,5.55-5.95,1.23-3.97-.49-9.36.6-12.43.46-1.28,2.29-1.31,2.61-1.84.88-1.49.05-5.8,3.24-7.78Z"/>
      <path class="cls-16" d="M23,90c.3,1.45-.29,3.54,0,5,.59,2.93,1.06,6.9,4,8-.05,1.85.25,4.49-1,6-2.02.66-2.21-1.48-3-2-3-1.97-4.46-.99-7,1l-1-2c.94-1.35,4.56-3.82,4.82-4.65,1.12-3.5-2.19-10.85,3.18-11.35Z"/>
      <path class="cls-21" d="M14,21c.68,7.45-.89,16.28-.08,23.54.24,2.17,1.58,1.68,3.08,2.46.84,5.29-1.5,7.14,3,12-4.87-.86.87,9.86-4,9,.04-.33-.05-.68,0-1,1.37-8.79-.39-4.93-1.8-9.7-.5-1.68-1.03-8-1.2-10.3-.05-.66.04-1.34,0-2-.32-5.94-.08-12.5-.02-18.51.02-1.69-.64-4.45,1.02-5.49Z"/>
      <path class="cls-9" d="M54,3c7.03,2.19,6.66,2.7,11,8,.11.92-1.02,2.49-1,3-4.31-.55-7.32-6.82-10.72-7.78-3.1-.87-12.48-.39-16.28-.22-2.32.11-4.68-.07-7,0,6.27-2.01,13.88-.78,20.55-1,1.93-.06,4.01,1.02,3.45-2Z"/>
      <path class="cls-43" d="M64,88c1.68,1.56,1.16,2.33,4,3,.78.19,2.78-.25,3,0,.21.24-.07,3.03,0,4,.05.66-.02,1.34,0,2h-1c-.1-.25-3.41-3.77-3.66-3.86-6.12-2.15-4.61,3.07-5.86,5.84-.3.68-1.42.87-1.48,1.02l-2-1c1.23-2.71.53-4.08,1-6,.55-2.28,3.56-5.83,6-5Z"/>
      <path class="cls-6" d="M71,99c.04,2.32-.13,4.69,0,7,.2,3.48-1.13,5.17,3,6,2.05,2.08,6.18.62,9,1-.85.57-.71,2.47-3.52,2.98-9.55,1.76-13.02-6.08-11.46-14.51.38-2.05,1.9-2.29,1.98-2.47h1Z"/>
      <path class="cls-20" d="M34,144c-.83.41-.48,2.55-4.45,3.05s-16.86.72-19.55-2.05c6.09-2.06,13.17-.64,19.58-.96,1.36-.07,2.11-.99,2.42-1.04.26-.04.75-.06,1,0,.19.04.58.84,1,1Z"/>
      <path class="cls-42" d="M63,53c.81,2.13-3.67,1.85-1.52,4.02,1.43,1.44,6.39,1.3,8.81,2.23,1.21.47,1.56,1.68,1.71,1.75l-1,1c-2.83-.95-5.08-.99-8-1-.33,0-.67-.02-1,0-.29-2.84-8.14-1.79-6.99-4.49.51-1.22,6.08-5.8,7.99-3.51Z"/>
      <path class="cls-29" d="M45,129c-1.51,2.45-2.81,2.78-4,6-.17.46.11,1.37,0,2-.3,1.65-2.23,3.4,0,6-1.4.04-3.61.55-5,1,1.15-6.71-.72-15.96,9-15Z"/>
      <path class="cls-68" d="M6,91c-.28.68-.74,1.31-1,2-2.02,5.37-.6,11.36-1,17-1.32-1.2-2.51-.98-2.98-3.52-.38-2.08-.39-9.89,0-11.95.65-3.41,2.36-3.05,4.97-3.53Z"/>
      <path class="cls-50" d="M62,125c.49.49,4.36,2.42,4.99,3.71,2.4,4.92,1.2,7.5-2.99,10.29,1.62-1.46-1.65-10.9-3-13l1-1Z"/>
      <path class="cls-8" d="M56,141c.67,0,1.33,0,2,0-8.08,4.11-9.45,1.78-17,2-2.23-2.6-.3-4.35,0-6,1.78,6.04,9.47,4,15,4Z"/>
      <path class="cls-45" d="M84,77c0,.33,0,.67,0,1,0,.25-.81,3.58-1,5-.54,3.94,1.02,3.41-3,5-.19-1.67.4-3.95.05-5.36-.31-1.26-1.61-.43-2.05-.64-.34-.17-.66-.89-1-1-.13-2.32-.51-5.02,2-6,1.16,2.34,2.6,3.3,5,2Z"/>
      <path class="cls-51" d="M16,136c-3.8,2.7-6.01-1.86-5.01,7.01h21.01c-.31.05-1.06.97-2.42,1.04-6.41.32-13.5-1.1-19.58.96-4.06-4.19-2.21-6.83,1-10,.85,1.62,3.4.94,5,1Z"/>
      <path class="cls-25" d="M59,100c-1.5,4.21-1.72,10.78,0,15-.47.1-.96.54-1,1-4.85-.6-2.91-7.74-3-12-.02-1-.01-2,0-3,.51-.64,1.71-1.36,2-2l2,1Z"/>
      <path class="cls-53" d="M88,108c-.17.5-2.04,4.63-2.24,4.8-.77.69-2.45,0-2.76.2-2.82-.38-6.95,1.08-9-1,.31.06.67-.02,1,0,3.45.25,8.77-.69,10.44-4.01,1.11-2.22.45-4.66.56-6.99.09-2.1.38-13.41,0-14h1c-.48,6.31-.48,14.92,1,21Z"/>
      <path class="cls-63" d="M88,108c-1.48-6.08-1.48-14.69-1-21,.06-.85.03-1.73,1-2,1.68,5.09,1.71,17.81,0,23Z"/>
      <path class="cls-14" d="M68,30c.22,4.15-.14,8.38,0,12.55.06,1.92-1.02,4.01,2,3.45-.11.29-1.24.64-1.6,1.23-.26.43.32,1.62-.31,2.32-1.09,1.22-2.89,1.24-3.09,1.45l-6-1c2.4-1.67,3.27-.39,6-3,4.63-4.44-.09-11.54,3-17Z"/>
      <path class="cls-33" d="M84,77c-2.4,1.3-3.84.34-5-2-1.03-2.06-.57-3.84-1-5l2-1c1.46,2.69,3.92,4.18,4,8Z"/>
      <path class="cls-30" d="M13,45c.04.66-.05,1.34,0,2-2.3-.7-1.93-2.59-2.06-4.45-.38-5.59-.67-20.07,1.06-24.55.62,8.78-1.29,18.51,1,27Z"/>
      <path class="cls-47" d="M62,125l-1,1c-.26-.41-2.5-3.36-3-4,.13-1.97-.19-4.05,0-6,.04-.46.53-.9,1-1,.06.15,1.48.44,1.81,1.65.65,2.34-.55,6.61,1.19,8.35Z"/>
      <path class="cls-73" d="M16,68c-.77,6.05-2.36,12.88,0,19-2.45,2.38-2.1,1.17-4,2,3.32-5.53,1.59-11.46,1.94-17.55.11-1.86-.23-3.75,2.06-4.45-.05.32.04.67,0,1Z"/>
      <path class="cls-2" d="M80,69l-2,1c-.47-1.26-1.4-2.73-2-4-.15-.31.39-1.42-.16-1.81-.63-.45-2.53-.11-3.77-.72-.72-.36-.95-1.43-1.07-1.47l1-1c1.73.78,4.43.95,5.59,1.91,1.59,1.32,1.41,4.24,2.41,6.09Z"/>
      <path class="cls-24" d="M84,78c3.29-.72,1.39,1.9,2.26,4.25.43,1.15,1.52,2.06,1.74,2.75-.97.27-.94,1.15-1,2h-1c-.15-.24-2.63-.24-3-4,.19-1.42,1-4.75,1-5Z"/>
      <path class="cls-46" d="M53,2c-5.13.13-10.9,0-16,0h16Z"/>
      <path class="cls-5" d="M64,139c-1.5,1-1.75.65-3,1h-1c1.89-1.08,3.85-.86,4-1Z"/>
      <path class="cls-7" d="M13,111c-1.46,1.19-1.36.82-3,1l3-1Z"/>
      <path class="cls-65" d="M16,108h-1c.15-.24-.15-.77,0-1s-.16-.78,0-1l1,2Z"/>
      <path class="cls-66" d="M71,99h-1c.09-.21.09-1.78,0-2h1c.02.67-.01,1.33,0,2Z"/>
      <path class="cls-7" d="M7,112c-1.38-.25-1.36-.67-2-1l2,1Z"/>
      <path class="cls-11" d="M60,140h1c-.05.01.15.93-.5.98l-.5-.98Z"/>
      <path class="cls-32" d="M49,134c.03.78-.16,2.86,0,2.99.66.53,7.25-1.13,7,4.01-5.53,0-13.22,2.04-15-4,.11-.63-.17-1.54,0-2l8-2c.04.33-.01.67,0,1Z"/>
      <path class="cls-67" d="M46,113c-.76,3.39,2.54,1.4,5.31,2.2,1.64.47,1.88,1.74,2.69,2.8-3.08-1.29-5.44-2.66-9-2,.18,2.59-.6,5.51.52,7.99,1.53,3.39,10.77,6.33,3.48,10.02-.01-.33.04-.67,0-1-.6-5.09-.36-3-3-6-1.49-1.69-3.64-5.34-3.94-5.54-.77-.5-1.96.58-2.06.54-.23-.08-1.24-2.55-2-2,1.95-1.09,6.16-5.89,8-7Z"/>
      <path class="cls-19" d="M55,104c.09,4.26-1.85,11.4,3,12-.19,1.95.13,4.03,0,6-.31-.4-2.3-1.78-4-4-.81-1.06-1.06-2.33-2.69-2.8-2.77-.8-6.06,1.19-5.31-2.2,1.92-1.16,6.62-1.8,7.7-4.28.67-1.54-.26-3.84,1.3-4.72Z"/>
      <path class="cls-38" d="M37,6c3.8-.17,13.18-.65,16.28.22,3.41.96,6.41,7.23,10.72,7.78.18,4.28,3.61,8.82,4,16-3.09,5.46,1.63,12.56-3,17-4.99,1.06-2.43-3.59-3.03-6.48-.53-2.55-1.92-3.46-4.47-3.61-6.05-.37-14.53,10.27-12.36,16.48.6,1.71,3.19.91,2.91,3.09-.09.69-4.03,6.06-4.57,6.51-2.78,2.31-10.63.42-14.49,1.01-1.35-.36-3.78-1.35-5-2-.58-.31-1.49-.26-2.55-.95-.73-.47-.97-1.54-1.45-2.05-4.5-4.86-2.16-6.71-3-12-.6-3.73-1.69-5.81-2-10,2.87-5.54,4.13-16.04,7.54-20.96,3.1-4.46,10.31-6.79,14.46-10.04ZM35.99,44.01c-5.55-1.04-12.52,2.89-6,7.5l-3,.5c-1.09,3.06,5.28,3.73,6,3,.29-.3.35-6.41,1.05-8.27.44-1.18,2.8-.06,1.95-2.73Z"/>
      <path class="cls-31" d="M54,66c-.12.07-1.93,1.88-2,2-.89,1.46-1.35,2.1-1.01,4-3.38-2.72-10.22-2.53-14.54-2.05-2.26.25-3.47.35-3.45,3.05-6.61,5.91-.19,7.79.04,8.54.96,3.13-2.42,2.61-3.04,3.97s1.58,1.81,3,3.49c-1.41,5.63,2.64,3.54,3,4,1.85,2.37-3.8,1.46-1.53,4.03s4.46,1.28,6.53-1.03c.91-1.02,1.41-1.44,1-3-.16-.61-1.49-1.44-2-2,2.06-.19,4.23.4,6.29-.21,1.31-.39,2.32-2.09,3.71-2.79,4-2.02,10.48-3.61,7-8.99,3.25.62,5.3-.29,8-1.01,2.17-.57,3.6,1.48,3-3,2.58.8,5.28-.91,7-1,.1,0,.24,1.25.99,1v-9c.62,1.27,1.54,2.74,2.01,4,.43,1.16-.03,2.94,1,5-2.51.98-2.13,3.68-2,6-.7-.23-2.08.14-3,0-3.92-.61-9.31-2.5-13,0l1,5c-.9-.84-.66-2.53-2.4-1.93-4.81,3.15-4.29,4.93-4.6,9.93-.14,2.31.03,4.68,0,7-.01,1-.02,2,0,3-1.56.88-.63,3.19-1.3,4.72-1.08,2.48-5.78,3.12-7.7,4.28s-6.05,5.91-8,7c-2.87,1.6-8.42,3.52-10.98.5,3.4-1.18,11.66-6.87,12.97-10.01,1.01-2.43-7.09-1.57-7.99-1.49,5.49-2.26-2.95-5.39-5-8-.31-3.12.18-5.52-4-6-.29-1.46.3-3.55,0-5-.23-1.14-.4-1.96-1-3l5.01-.51c-5.21-6.57-.54-3.97.01-6.19.22-.89.28-8.01-.02-8.3-1.99-1.94-7.83,2.17-10,3,.08-1.29-.2-2.83,0-4,3.57,1.06,2.81-2.55,5.47-3.02,9.25-1.65,23.99,3.32,31.53-2.98v1ZM47.68,95.71c-.46.69-2.24.37-2.69,2.76-.28,1.47-.24,7.53,1.51,7.51.55,0,5.44-8.98,5.53-9.53.24-1.53-.02-3.73-1.54-4.44-1.76-.82-1.95,2.43-2.8,3.7Z"/>
      <path class="cls-55" d="M29,64c3.86-.59,11.71,1.3,14.49-1.01.54-.45,4.48-5.82,4.57-6.51.28-2.18-2.31-1.38-2.91-3.09-2.18-6.21,6.3-16.85,12.36-16.48,2.55.16,3.94,1.06,4.47,3.61.6,2.88-1.96,7.54,3.03,6.48-2.73,2.61-3.6,1.33-6,3-2.14,1.49-2.34,4.26-7,3.01,3.25,13.42-14.19,13.37-23,10.99ZM57.99,40.01c-1.15-1.3-7.94,6.52-8.92,7.63,5.5,10.19,10.69-.07,8.92-7.63Z"/>
      <path class="cls-40" d="M20,59c.48.52.72,1.58,1.45,2.05,1.06.68,1.96.63,2.55.95.8,4.71-6.24,4.66-7,9-.2,1.17.08,2.71,0,4-.11,1.77,0,2.58,0,4-.02,4.01,1.55,5.52-1,8-2.36-6.12-.77-12.95,0-19,4.87.86-.87-9.86,4-9Z"/>
      <path class="cls-69" d="M62,61c.33-.02.67,0,1,0,2.5,3.74,4.83,2.82,9,4v1l-10.99-.99,4.99,7.99-5.56-3.94c-2.73-2.64-1.85-5.78-6.44-3.06v-1c.47-.4.3-2.23,1.74-2.99s4.47-.91,6.26-1.01Z"/>
      <path class="cls-60" d="M37,6c-4.15,3.25-11.36,5.57-14.46,10.04-3.41,4.92-4.67,15.43-7.54,20.96-.28-3.7-.61-12.73,0-16,.07-.39,3.01-6.57,3.41-7.09,2.6-3.3,8.7-4.96,11.59-7.91,2.32-.07,4.68.11,7,0Z"/>
      <path class="cls-61" d="M15,37c.31,4.19,1.4,6.27,2,10-1.49-.78-2.83-.29-3.08-2.46-.81-7.26.75-16.08.08-23.54h1c-.61,3.27-.28,12.3,0,16Z"/>
      <path class="cls-72" d="M17,75c2.18-.83,8.01-4.95,10-3,.3.29.24,7.41.02,8.3-.55,2.22-5.22-.38-.01,6.19l-5.01.51c-.94-1.62-3.51-2.8-3.74-3.24-.72-1.41.39-3.9-1.26-4.76,0-1.42-.11-2.23,0-4Z"/>
      <path class="cls-13" d="M32,109c.9-.08,9.01-.94,7.99,1.49-1.31,3.14-9.58,8.83-12.97,10.01,2.56,3.02,8.11,1.1,10.98-.5.44,5.36-14.16,10.59-5,14-.27,2.93.19,6.04,0,9-.25-.06-.74-.04-1,0H10.99c-1-8.86,1.2-4.3,5.01-7,.67-.48,3.32-3.99,4-5,.97-1.45,2.69-3.21,3-5,2.08-2.09.46-5.59,1.21-8.29.64-2.29,5.55-6.25,6.79-8.71.33-.05.67.03,1,0Z"/>
      <path class="cls-70" d="M40,122c-3.26,4.48-6.47,6.18-7,12-9.16-3.41,5.44-8.64,5-14,.76-.55,1.77,1.92,2,2Z"/>
      <path class="cls-44" d="M49,133l-8,2c1.19-3.22,2.49-3.55,4-6,.39-.63.64-1.35,1-2,2.64,3,2.4.91,3,6Z"/>
      <path class="cls-54" d="M27,101c2.05,2.61,10.49,5.74,5,8-.33.03-.67-.05-1,0-4.59.64-4.15,2.96-8,4,.45-4.92,1.34-2,3-4,1.25-1.51.95-4.15,1-6,.02-.65.06-1.36,0-2Z"/>
      <path class="cls-56" d="M23,115c-.11,3.37.52,7.97,0,11-.31,1.79-2.03,3.55-3,5,1.11-4.2-2.84-14.84,3-16Z"/>
      <path class="cls-62" d="M31,109c-1.24,2.46-6.15,6.42-6.79,8.71-.75,2.7.87,6.2-1.21,8.29.52-3.03-.11-7.63,0-11,.02-.66-.06-1.34,0-2,3.85-1.04,3.41-3.36,8-4Z"/>
      <path class="cls-3" d="M27,101c.06.64.02,1.35,0,2-2.94-1.1-3.41-5.07-4-8,4.18.48,3.69,2.88,4,6Z"/>
      <path class="cls-71" d="M74,81c-.26,2.25.07,3.96,1,6,.21.47,2.85,2.53,3,4-.32,4.04.73,9.33-5,9,.07-.32-.08-.69,0-1,.05-.22.93-.6,1-1,.04-.23.08-.82,0-1-.54-1.23-1.92-1.5-3-2-.07-.98.21-3.77,0-4-.22-.25-2.22.19-3,0-.67-2.45,2.33-2.07,2.85-3.62.61-1.84-.02-4.39.16-6.38h-10c3.69-2.5,9.08-.61,13,0Z"/>
      <path class="cls-15" d="M61,81h10c-.18,1.99.46,4.54-.16,6.38-.51,1.55-3.52,1.17-2.85,3.62-2.84-.67-2.32-1.44-4-3-.69-.64-1.31-1.36-2-2l-1-5Z"/>
      <path class="cls-48" d="M55,94c.31-4.99-.2-6.77,4.6-9.93,1.74-.6,1.5,1.09,2.4,1.93.69.64,1.31,1.36,2,2-2.44-.83-5.45,2.72-6,5l-3,1Z"/>
      <path class="cls-27" d="M58,93c-.47,1.92.23,3.29-1,6-.29.64-1.49,1.36-2,2,.03-2.32-.14-4.69,0-7l3-1Z"/>
      <path class="cls-49" d="M74,97h-1.49c-.67.19-.4.67-.51,1-.2.59.32,1.13,1,1-.08.31.07.68,0,1-.3,1.31-.72,1.97-1,4-.11.82.02,1.77-1,2-.13-2.31.04-4.68,0-7-.01-.67.02-1.33,0-2s.05-1.34,0-2c1.08.5,2.46.77,3,2Z"/>
      <path class="cls-58" d="M74,109c.18,1.06.42,2.08,1,3-.33-.02-.69.06-1,0-4.13-.83-2.8-2.52-3-6,1.02-.23.89-1.18,1-2,2.68.78,1.69,3.17,2,5Z"/>
      <path class="cls-10" d="M71,62c.12.04.35,1.11,1.07,1.47,1.24.61,3.14.27,3.77.72.55.39.01,1.5.16,1.81-1.36-.19-2.68-.63-4-1-4.17-1.18-6.5-.26-9-4,2.92.01,5.17.05,8,1Z"/>
      <path class="cls-37" d="M83,83c.37,3.76,2.85,3.76,3,4,.38.59.09,11.9,0,14h-1c-3.2-4.28-4.42-7.87-5-13,4.02-1.59,2.46-1.06,3-5Z"/>
      <path class="cls-36" d="M78,82c.43.21,1.73-.62,2.05.64.35,1.41-.24,3.69-.05,5.36-.48.19-1.75-.27-1.99,0s.05,2.18-.01,2.99c-.15-1.47-2.79-3.53-3-4,3.14.68,1.62-1.75,2.2-4.3l.8-.7Z"/>
      <path class="cls-35" d="M77,81c.34.11.66.83,1,1l-.8.7c-.58,2.56.94,4.98-2.2,4.3-.93-2.04-1.26-3.75-1-6,.92.14,2.3-.23,3,0Z"/>
      <path class="cls-57" d="M86,101c-.1,2.33.56,4.77-.56,6.99-1.67,3.32-6.99,4.26-10.44,4.01-.58-.92-.82-1.94-1-3,2.86.11,1.85,3.46,5.75,1.71.21-.09,3.01-3.14,3.08-3.36.78-2.47-1.1-5.04,2.17-6.35h1Z"/>
      <path class="cls-41" d="M35.99,44.01c.85,2.67-1.51,1.55-1.95,2.73-.69,1.86-.75,7.97-1.05,8.27-.72.73-7.09.06-6-3l3-.5c-6.52-4.61.45-8.54,6-7.5Z"/>
      <path class="cls-17" d="M33,73c2.61-2.33,11.14-2.85,14.34-2.05,1.24.31.91,2.47,1.64,3.32,1.1,1.29,4.12,3.5,5.01,4.73,5.18,7.15-1.22,3.22-4,9-1.39.7-2.4,2.41-3.71,2.79-2.06.61-4.22.02-6.29.21-1.76.16-4.25,1.19-5.43,1.08-.7-.07-.74-2.09-1.57-3.08-1.42-1.68-3.61-2.11-3-3.49s3.99-.84,3.04-3.97c-.23-.75-6.65-2.63-.04-8.54Z"/>
      <path class="cls-28" d="M54,66c4.59-2.73,3.71.41,6.44,3.06l5.56,3.94c1.02.04,1.86,1.96,2,2,.6,4.48-.83,2.43-3,3-3.17.31-6.96-.44-10,0-1.14-3.56-3.91-5.81-3-10,.07-.12,1.88-1.93,2-2Z"/>
      <path class="cls-22" d="M72,66l3,8c-1.72.09-4.42,1.8-7,1-.14-.04-.98-1.96-2-2l-4.99-7.99,10.99.99Z"/>
      <path class="cls-52" d="M47.68,95.71c.85-1.27,1.04-4.52,2.8-3.7,1.52.71,1.78,2.92,1.54,4.44-.08.54-4.98,9.52-5.53,9.53-1.76.02-1.8-6.04-1.51-7.51.46-2.39,2.23-2.07,2.69-2.76Z"/>
      <path class="cls-39" d="M55,78c-.47.07-.89.52-1,1-.89-1.23-3.92-3.44-5.01-4.73-.73-.86-.41-3.01-1.64-3.32-3.2-.8-11.73-.28-14.34,2.05-.02-2.71,1.19-2.8,3.45-3.05,4.32-.48,11.16-.67,14.54,2.05-.34-1.9.12-2.54,1.01-4-.91,4.19,1.86,6.44,3,10Z"/>
      <path class="cls-23" d="M65,78c-2.7.72-4.75,1.63-8,1.01,3.48,5.38-3,6.97-7,8.99,2.78-5.78,9.18-1.85,4-9,.11-.48.53-.93,1-1,3.04-.44,6.83.31,10,0Z"/>
      <path class="cls-34" d="M33,89c.83.99.88,3.01,1.57,3.08,1.18.11,3.67-.92,5.43-1.08.51.56,1.84,1.39,2,2-6.44-1.39-7.62,3.91-1,3-2.07,2.31-4.35,3.5-6.53,1.03s3.38-1.65,1.53-4.03c-.36-.46-4.41,1.63-3-4Z"/>
      <path class="cls-23" d="M76,66v9c-.76.25-.9-1.01-1-1l-3-8v-1c1.32.37,2.64.81,4,1Z"/>
      <path class="cls-26" d="M42,93c.41,1.56-.09,1.98-1,3-6.62.91-5.44-4.39,1-3Z"/>
      <path class="cls-52" d="M57.99,40.01c1.77,7.56-3.42,17.82-8.92,7.63.98-1.12,7.77-8.93,8.92-7.63Z"/>
      <path class="cls-12" d="M80,88c.58,5.13,1.8,8.72,5,13-3.27,1.31-1.39,3.88-2.17,6.35-.07.22-2.87,3.27-3.08,3.36-3.9,1.75-2.9-1.6-5.75-1.71-.31-1.83.68-4.22-2-5,.28-2.03.7-2.69,1-4,5.73.33,4.68-4.96,5-9,.06-.81-.22-2.72.01-2.99s1.51.18,1.99,0Z"/>
      <path class="cls-18" d="M74,98c-.07.4-.95.78-1,1-.68.13-1.2-.41-1-1h2Z"/>
      <path class="cls-65" d="M74,97c.08.18.04.77,0,1h-2c.11-.33-.16-.81.51-.99h1.49Z"/>
    </g>
  </g>
</svg>