<?xml version="1.0" encoding="UTF-8"?>
<svg id="_Слой_2" data-name="Слой 2" xmlns="http://www.w3.org/2000/svg" viewBox="0 0 78 149">
  <defs>
    <style>
      .cls-1 {
        fill: #d99c7e;
      }

      .cls-2 {
        fill: #52281b;
      }

      .cls-3 {
        fill: #8f5038;
      }

      .cls-4 {
        fill: #fde3cd;
      }

      .cls-5 {
        fill: #d99c7f;
      }

      .cls-6 {
        fill: #4d2315;
      }

      .cls-7 {
        fill: #4d261a;
      }

      .cls-8 {
        fill: #fbd1b3;
      }

      .cls-9 {
        fill: #45322a;
      }

      .cls-10 {
        fill: #864831;
      }

      .cls-11 {
        fill: #d1c8c5;
      }

      .cls-12 {
        fill: #ddd6d4;
      }

      .cls-13 {
        fill: #d49074;
      }

      .cls-14 {
        fill: #402923;
      }

      .cls-15 {
        fill: #855144;
      }

      .cls-16 {
        fill: #d59a7d;
      }

      .cls-17 {
        fill: #4a2216;
      }

      .cls-18 {
        fill: #5e3a2f;
      }

      .cls-19 {
        fill: #4f291e;
      }

      .cls-20 {
        fill: #df9f7c;
      }

      .cls-21 {
        fill: #421a0e;
      }

      .cls-22 {
        fill: #753d28;
      }

      .cls-23 {
        fill: #411a0f;
      }

      .cls-24 {
        fill: #fdd4b6;
      }

      .cls-25 {
        fill: #fadfc9;
      }

      .cls-26 {
        fill: #d69573;
      }

      .cls-27 {
        fill: #db9e82;
      }

      .cls-28 {
        fill: #f6dac4;
      }

      .cls-29 {
        fill: #f1cfb8;
      }

      .cls-30 {
        fill: #e1a07d;
      }

      .cls-31 {
        fill: #7c4a3f;
      }

      .cls-32 {
        fill: #522c1f;
      }

      .cls-33 {
        fill: #5c3428;
      }

      .cls-34 {
        fill: #e5a07b;
      }

      .cls-35 {
        fill: #492216;
      }

      .cls-36 {
        fill: #4a3329;
      }

      .cls-37 {
        fill: #e19e7b;
      }

      .cls-38 {
        fill: #593225;
      }

      .cls-39 {
        fill: #413028;
      }

      .cls-40 {
        fill: #4b2418;
      }

      .cls-41 {
        fill: #dba083;
      }

      .cls-42 {
        fill: #efbea0;
      }

      .cls-43 {
        fill: #d4997c;
      }

      .cls-44 {
        fill: #fbd2b4;
      }

      .cls-45 {
        fill: #532c20;
      }

      .cls-46 {
        fill: #f8dec8;
      }

      .cls-47 {
        fill: #d18e71;
      }

      .cls-48 {
        fill: #3d160b;
      }

      .cls-49 {
        fill: #d6977a;
      }

      .cls-50 {
        fill: #75453a;
      }

      .cls-51 {
        fill: #532d21;
      }

      .cls-52 {
        fill: #39221b;
      }

      .cls-53 {
        fill: #fce2cc;
      }

      .cls-54 {
        fill: #fce1cb;
      }

      .cls-55 {
        fill: #d7997b;
      }

      .cls-56 {
        fill: #502a1d;
      }

      .cls-57 {
        fill: #d29175;
      }

      .cls-58 {
        fill: #dba082;
      }

      .cls-59 {
        fill: #884831;
      }

      .cls-60 {
        fill: #d99b7d;
      }

      .cls-61 {
        fill: #8c4c34;
      }

      .cls-62 {
        fill: #f8cbae;
      }
    </style>
  </defs>
  <g id="_Слой_30_Изображение" data-name="Слой 30 Изображение">
    <g>
      <path class="cls-56" d="M47,145c.33.01.67,0,1,0,3.47.08,6.52.91,10,1,.96.02,2.08.11,3,0l-3,3h-9c-4.71-5.13-13.42-2.54-20-3,5.23-1.7,12.41-1.19,18-1Z"/>
      <path class="cls-61" d="M17,36c-1.11,11.6.93,9.3,8.31,12.99.65.32.7,1.83,1.91,2.32,4.33,1.77,7.22-.8,2.78,5.17,5.95,8.64,15.67,9.05,24.99,6.52,1.35-.37,3.81-1.34,5-2-.71,3.49,2.06,1.37,4,2s2.8,2.7,4,4c-1.67,1.09-.98,4.11-1,6h-1c-.16-1.71-1.12-4.6-3-5-8.9-2.17-18.82-.56-28-1-.33-.02-.67.03-1,0-4.97-6.55-9.4-9.33-18-6-.1.04-.25,1.37-1,2,.6-2.9-.54-3.22-3-4,3.66-3.16,5.26-1.91,10-2,.66-4.98-4.3-7.14-7-11,1.67-3.28.96-7.35,1-11,.34.32.7.64,1,1Z"/>
      <path class="cls-23" d="M69,68c.47,8.94-1.09,18.26,1,27-2.48-.58-3.72-1.26-5.99-1.99v18s8.99,0,8.99,0h1c-.5.63-.61,2.55-1.13,2.83-1.73.94-7.6-.86-9.38,2.16-1.56,2.65.11,10.56-.49,14.01-.6-.2-1.41-1.5-2-2-.32-1.23-.9-2.84-1-4-.25-2.95.27-6.05,0-9-.49-5.35-2.22-4.53-4-9,6.14-1.76,3.62-1.82,4-8,.17-2.75-.98-6.96,2.04-8.49,1.18-.59,3.32.03,4.01-1.16,1.56-2.69.91-11.74.95-15.34.02-1.89-.67-4.91,1-6,.31.34.74.63,1,1Z"/>
      <path class="cls-52" d="M30,5c-.09.06.21,1.36-.71,2.01-3.16,2.23-5.63,3.25-8.29,6.49-6.24,7.6-4.91,12.37-5,21.5-.04,3.65.67,7.72-1,11-4.17-5.97-3.84-20.86-1.67-28.17,2.41-8.13,7.97-12.07,15.67-14.83l1,2Z"/>
      <path class="cls-21" d="M47,135v10c-5.59-.19-12.77-.7-18,1-1.75-.12-3.11.32-4.96-.52-4.21-1.92-7.78-8.59-2.04-11.48-.04.65-.03,1.34,0,2,.04.96-.17,2.17,0,3,1.18,5.8,8.85,4.18,14,4,1.71-.06,8.58.37,9.04-1.67,1.79-7.94-2.52-4.12-5.11-5.78-1.28-.82-.73-2.43-.93-3.56,2.77-2.9,2.15-3.83,2-8,.9.45,2.43-.59,3.92,1.57,2.04,2.95-.09,6.88,2.08,9.43Z"/>
      <path class="cls-59" d="M29,112c.22,2.22,1.96,5.82,1.01,8.99,3.56.92,1.52-5.75,3-6.99,1-.45,1.8.98,1.99,1,.22,4.07,1.71,6.34,5,8,.37.18.66.83,1,1,.15,4.17.77,5.1-2,8-.53-2.95.69-5.92-4.51-5.05-2.99.5-7.49,10.12-12.49,9.05-.03-.66-.04-1.35,0-2,.64-.32,2.6.5,3.53-.97.57-.91.17-2.52.56-3.24.52-.96,1.85-.85,1.95-1.43.25-1.44-1-2.68-1.04-3.35-.3-5.15,3.87-6.09,1-13h1Z"/>
      <path class="cls-45" d="M7,72c-1.34,2.51-.72,2.64-1,5-.19,1.59.23,3.45,0,5-2.04,13.71-2.34,16.72,0,31,.1.62-.07,1.35,0,2-1.09-1.13-4.9-4.08-5.07-5.45-.47-3.87-.68-29.08.05-31.85.12-.44,2.83-4.22,4.02-7.7l2,2Z"/>
      <path class="cls-40" d="M65,8c2.74,2.18,6.29,6.46,8,10v27c-.33-.04-.68.05-1,0-.55-.09-1.6-1.07-2-1-.9-6.67,1.21-16.3.02-22.54-.08-.43-3.07-5.12-4.02-7.46-.25-.62-.94-4.18-2-5l1-1Z"/>
      <path class="cls-39" d="M65,8l-1,1c-2.15-1.66-4.08-1.34-6-2-8.43-2.91-17.1-4.66-26-2-.62.06-1.74-.16-2,0l-1-2C38.75-.49,53.95.36,62.97,5.57c1.33.77,1.54,2.03,2.03,2.43Z"/>
      <path class="cls-2" d="M25,87c.15,1.62-.22,3.43,0,5,.28,2.02.87,3.36,1,6,.02.33-.02.67,0,1-2.14.33-4.06-3.95-4.49-3.98-2.96-.2-2.42,3.15-2.51,4.98-.02.33.02.67,0,1-6.61-2.21-2.33-6.79,1-10,.97-.93.62-.37,2-2,1.57-1.85,1.1-1.15,3-2Z"/>
      <path class="cls-17" d="M70,69c.92,5.87-1.7,18.42,1,23,1.55,2.62,4.78,2.59,5.04,3.67.28,1.15.28,13.6,0,14.71s-1.94.5-2.04.63h-1c1.69-4.74,1.22-8.41,0-13.01-.19-.73.35-2.51-.05-2.92s-2.16.12-2.95-.07c-2.09-8.74-.53-18.06-1-27,.25.35.83.65,1,1Z"/>
      <path class="cls-19" d="M12,59c2.46.78,3.6,1.1,3,4-.92.77-1.28,1.26-2,2-2.07,2.12-4.6,4.37-6,7l-2-2c2.15-6.28,1.56-6.31,7-11Z"/>
      <path class="cls-38" d="M72,45c-1.9,1.99-1.66,12.45-2.08,12.95-.37.44-2.38-.2-2.92.05-.19-.38-.98-.81-1-1-.47-3.7.38-7.4,1-11,1.06.06,2.79-1.96,3-2,.4-.07,1.45.91,2,1Z"/>
      <path class="cls-33" d="M20,115c-.92-.52-1.93-.91-3-1-1.78-3.99,1.89-6.32,1.98-6.69.43-1.74-.08-4.32.02-6.31.02-.33-.02-.67,0-1,4.01,1.42,3.57,9.23,2.98,12.52-.38,2.14-1.47,1.83-1.98,2.48Z"/>
      <path class="cls-51" d="M10,114c.99.07,2.01-.06,3,0,1.32.09,2.68-.11,4,0,1.07.09,2.08.48,3,1-2.99,3.78-8.27,4.24-12.8,2.33-1.76-.74-1.03-2.15-1.2-2.33-.07-.65.1-1.38,0-2,1.23.86,2.57.9,4,1Z"/>
      <path class="cls-14" d="M63,130c1.93.63,9.64.65,10,1,.23.22.11,5.29-.2,6.35-.36,1.26-1.6,1.36-1.8,1.65.14-1.67.35-2.7-1-4-1.76-1.69-2.97-.82-5-1-.29-2-3.24-2.45-3.78-3.25-.63-.92-.04-2.06-.22-2.75.59.5,1.4,1.8,2,2Z"/>
      <path class="cls-18" d="M71,139c-2.76,3.98-5.04,6.4-10,7-.92.11-2.04.02-3,0,3.46-4.63,11.01-3.6,12-11,1.35,1.3,1.14,2.33,1,4Z"/>
      <path class="cls-48" d="M26,98c4.42.25,2.63,9.48,3,13,.03.33-.03.67,0,1h-1c-2.62-6.31-1.52-6.42-2-13-.02-.33.02-.67,0-1Z"/>
      <path class="cls-35" d="M27,125c.04.67,1.29,1.91,1.04,3.35-.1.58-1.43.48-1.95,1.43-.4.73,0,2.34-.56,3.24-.93,1.47-2.89.65-3.53.97.29-5.02-.1-6.75,5-9Z"/>
      <path class="cls-11" d="M73,45v-27c.73,1.5.87,1.38,1.07,3.39.46,4.76.62,17.63-.04,22.14-.12.8,0,1.6-1.02,1.47Z"/>
      <path class="cls-7" d="M66,57c.02.19.81.62,1,1-.55.26-2.52,4.01-3,5-1.94-.63-4.71,1.49-4-2,.77-.43,2.48-.99,2.73-1.31.93-1.22-.94-3.55,3.27-2.69Z"/>
      <path class="cls-12" d="M71,92c-2.7-4.58-.08-17.13-1-23,2.65,5.62.12,16.43,1,23Z"/>
      <path class="cls-44" d="M53,118c.89.25,3.75-.3,4.01,0-1.02,1.97.99,5.33.99,6.01.01,1.97-2.41,6.2-.56,9.06,1.17,1.66,5.51.75,7.56.94s3.24-.69,5,1c-.99,7.4-8.54,6.37-12,11-3.48-.09-6.53-.92-10-1,0-2,0-4,0-6,8.61-7.21,6.1-11.09-2-17-1.65-1.67-.17-2.33,0-3,2.44,2.78,9.47,3.11,7-1Z"/>
      <path class="cls-10" d="M48,139c0,2,0,4,0,6-.33,0-.67.01-1,0v-16c.73,3.89,1.02,5.76,1,10Z"/>
      <path class="cls-24" d="M32,5c7.71-.79,15.14-.48,21.75,3.75,1.15.73,8.95,7.08,9.33,7.67,1.6,2.48.43,4.76,1.13,6.87,4.07,12.33,5.12,9.11,2.8,22.7-.62,3.6-1.47,7.3-1,11-4.21-.86-2.34,1.46-3.27,2.69-.25.32-1.96.88-2.73,1.31-1.19.66-3.65,1.63-5,2-8.65.22-15.74,1.7-18.99-7.99,9.75.16,5.28-.07,3.56-4.07-1.15-2.66-1.16-5.58-2.71-8.29-2.58-4.47-7.88-8.19-13.23-6.71-.88.25-1.11,4.38-3.12,5.04-1.47-1.54-2.08-3.31-3.5-4.98-.3-.36-.66-.68-1-1,.1-9.13-1.23-13.9,5-21.5,2.66-3.24,5.13-4.27,8.29-6.49.91-.64.62-1.95.71-2.01.26-.16,1.38.06,2,0ZM57,46c.05-7.93-14.76-3.6-15.04-2.33s.19,2.96.03,4.33h8c1.21,4.95-.28,8.54,5.32,6.82,4.91-1.51-1.31-3.99-1.3-4.32,2.8-1.83,2.96-1.2,2.98-4.5Z"/>
      <path class="cls-13" d="M63,68c-2.49-.53-6.28.37-8.99.01-.34.34,2.71,2.85,2.99,2.99-2.33,4.53,2.99,10.04,3.01,11.49.01.94-4,.97-3.01,3.51,9.67,2.25,9.66-5.72,8.99-12.99h1c-.04,3.6.61,12.66-.95,15.34-.69,1.19-2.84.57-4.01,1.16-3.02,1.53-1.87,5.74-2.04,8.49-2.79-.26-3.07,2.94-4,5-.03.06-.78.25-1,1-.15.53.1,1.37,0,2-2.67.6-5.19,1.4-8,1-1.37-2.17-1.18-5.07-4-6,0-.16-1.8-2.28-1-2.99.19-.17,1.54.29,2.13-.1,2.12-1.42,4.49-1.92,4.7-2.1s1.96-4.14,2.16-4.81c.29-.98-.5-2.59.5-4.02.75-1.08,3.37-.52,2.5-2.47-.53-1.19-4.71-1.34-2.78-4.35.59-.92,4.43-.48,2.28-5.15-2.97-6.46-12.79-4.99-18.49-5.01.09-.99-.06-2.01,0-3,9.18.44,19.1-1.17,28,1Z"/>
      <path class="cls-34" d="M17,36c1.42,1.67,2.03,3.44,3.5,4.98,2.01-.65,2.23-4.79,3.12-5.04,5.36-1.49,10.65,2.23,13.23,6.71,1.56,2.7,1.57,5.63,2.71,8.29,1.72,4,6.19,4.23-3.56,4.07,3.25,9.69,10.34,8.21,18.99,7.99-9.32,2.53-19.05,2.12-24.99-6.52,4.44-5.97,1.55-3.4-2.78-5.17-1.22-.5-1.26-2-1.91-2.32-7.38-3.69-9.42-1.39-8.31-12.99Z"/>
      <path class="cls-53" d="M20,67c2.18-1.15,4.45-4.06,7.55-3.64,1.74.24,1.92,2.93,2.69,3.43.97.63,2.61.11,3.77.21.33.03.67-.02,1,0-.06.99.09,2.01,0,3-.03.35.09.75,0,1-3.43-1.02-4.7,3.97-6.82,4.94-2.81,1.28-6.25.2-9.18.06-.86-2.75.49-6.36,1-9Z"/>
      <path class="cls-28" d="M16,61c1.13-.47,4.43.33,6,0,.62,2.09-1.81,2.59-2.46,3.99-.46,1,.51,1.82.47,2-.43.23-2.05-.43-2.81.15-1.7,1.3.47,6.32-4.19,4.86v-7.01c.72-.74,1.08-1.23,2-2,.75-.63.9-1.96,1-2Z"/>
      <path class="cls-20" d="M34,67c-1.16-.1-2.8.42-3.77-.21-.76-.49-.95-3.19-2.69-3.43-3.1-.43-5.37,2.49-7.55,3.64.04-.19-.93-1-.47-2,.65-1.4,3.09-1.91,2.46-3.99-1.57.32-4.87-.47-6,0,8.6-3.33,13.03-.55,18,6Z"/>
      <path class="cls-49" d="M63,68c1.88.4,2.84,3.29,3,5-3.85,1.2-5.13-1.56-7.5-2.56-.46-.19-1.39.61-1.5.56-.29-.14-3.33-2.65-2.99-2.99,2.71.36,6.51-.54,8.99-.01Z"/>
      <path class="cls-31" d="M70,95c.79.18,2.54-.34,2.95.07s-.14,2.2.05,2.92h0c1.22,4.6,1.69,8.27,0,13.01h-9.01s.01-17.99.01-17.99c2.28.73,3.51,1.41,5.99,1.99Z"/>
      <path class="cls-54" d="M47,108c11.84-1.2,4.99,3.43,7.11,5.9.35.41,4.76.87,5.89,1.1.27,2.95-.25,6.05,0,9h-2c0-.68-2.02-4.04-.99-6.01-.26-.3-3.12.26-4.01,0-1.92-.55-4.46-1.73-6-3-2.52-2.07-2.31-2.35-2-6,.54-.56,1.22-.92,2-1Z"/>
      <path class="cls-57" d="M55,106c.32-.07.7.09,1,0,1.78,4.47,3.51,3.65,4,9-1.13-.24-5.54-.7-5.89-1.1-2.12-2.46,4.74-7.1-7.11-5.9v-1c2.81.4,5.33-.4,8-1Z"/>
      <path class="cls-16" d="M60,124c.1,1.16.68,2.77,1,4,.18.69-.41,1.84.22,2.75.55.8,3.49,1.25,3.78,3.25-2.06-.18-6.4.72-7.56-.94-1.85-2.87.58-7.09.56-9.06h2Z"/>
      <path class="cls-3" d="M60,98c-.38,6.18,2.14,6.24-4,8-.3.09-.68-.07-1,0,.1-.63-.15-1.47,0-2l1-1c.93-2.06,1.21-5.26,4-5Z"/>
      <path class="cls-47" d="M39,132c-3.62,3.79-3.43,4.1-3,10-2.73-.44-6.9.65-9.3.02-1.04-.27-1.6-4.18-4.7-3.02-.17-.83.04-2.04,0-3,5,1.06,9.5-8.55,12.49-9.05,5.2-.87,3.97,2.1,4.51,5.05Z"/>
      <path class="cls-10" d="M39,132c.2,1.12-.34,2.74.93,3.56,2.59,1.66,6.9-2.16,5.11,5.78-.46,2.03-7.33,1.61-9.04,1.67v-1c-.43-5.9-.62-6.21,3-10Z"/>
      <path class="cls-22" d="M42,118c.19.18,2.86,3.78,3,4,1.8,2.96,1.45,4.07,2,7v6c-2.17-2.56-.04-6.49-2.08-9.43-1.49-2.16-3.02-1.11-3.92-1.57-.34-.17-.63-.82-1-1l-2-8c.22.11,3.82,2.82,4,3Z"/>
      <path class="cls-15" d="M22,139c3.1-1.16,3.66,2.75,4.7,3.02,2.4.63,6.57-.46,9.3-.02v1c-5.15.18-12.82,1.8-14-4Z"/>
      <path class="cls-40" d="M33,111c2.74.51,3.04,1.51,4,4-.4-.17-1.36.08-2,0-.19-.02-.99-1.45-1.99-1-1.48,1.25.55,7.92-3,6.99.96-3.17-.79-6.77-1.01-8.99-.03-.33.03-.67,0-1,1.27.15,2.82-.22,4,0Z"/>
      <path class="cls-6" d="M37,115c.29.12.74-.13,1,0l2,8c-3.29-1.66-4.78-3.93-5-8,.64.08,1.6-.17,2,0Z"/>
      <path class="cls-60" d="M13,65v7.01c4.66,1.46,2.49-3.56,4.19-4.86.76-.58,2.38.08,2.81-.15-.51,2.64-1.86,6.25-1,9s6.71,1.25,8.52,1.15c.79-.04,1.33.84,1.48.85,0,1,0,2,0,3-1.6-1.08-2.49.07-3,0-.32-.04-1.2-1.07-2.48-1.09-5.74-.07-5.5,4.91-10.52,6.09-.07-.47-.52-.9-1-1,.93-2.38,1.33-.74,1-4-.6-5.87-.88-5.81-7-4,.28-2.36-.34-2.49,1-5s3.93-4.88,6-7Z"/>
      <path class="cls-58" d="M12,81c-.71,3.06-5.56,5.16-6.01,7.49-.77,3.97-.8,17.52.78,21.25.66,1.55,2.49,2.69,3.24,4.27-1.43-.1-2.77-.14-4-1-2.34-14.28-2.04-17.29,0-31,2.23,1.98,3.67-.64,6-1Z"/>
      <path class="cls-29" d="M13,81h-1c-2.33.36-3.77,2.98-6,1,.23-1.55-.19-3.41,0-5,6.12-1.81,6.4-1.87,7,4Z"/>
      <path class="cls-26" d="M58,7l8,7c.95,2.34,3.94,7.03,4.02,7.46,1.19,6.23-.92,15.87-.02,22.54-.21.04-1.94,2.06-3,2,2.33-13.6,1.27-10.38-2.8-22.7-.7-2.11.47-4.39-1.13-6.87-.38-.59-8.18-6.94-9.33-7.67-6.61-4.23-14.04-4.54-21.75-3.75,8.9-2.66,17.57-.91,26,2Z"/>
      <path class="cls-9" d="M64,9c1.06.82,1.75,4.38,2,5l-8-7c1.92.66,3.85.34,6,2Z"/>
      <path class="cls-55" d="M51,91c-.2.66-1.96,4.64-2.16,4.81s-2.58.67-4.7,2.1c-.6.4-1.94-.07-2.13.1-.8.71,1.01,2.84,1,2.99-.07,1.32-1.35,3.06-1.1,5.48.19,1.86,1.98,2.11,2.1,2.52,1.89,6.16-4.76,4.9-2,9-.18-.18-3.78-2.89-4-3-.26-.13-.71.12-1,0-.96-2.49-1.26-3.49-4-4-.83-2.37-.44-6.37-1.18-8.36-.54-1.46-2.6-1.31-2.85-2.34-.73-3.07,1.67-7.7-3.97-8.31-.22-1.57.15-3.38,0-5,.37-.17.69-.88,1-1,.63-.24,2.59.37,2.93-.04.32-.37.07-3.83.07-4.96,2.13,1.44,4.38,5.96,7.03,7.47l14.97,2.53ZM34.77,99.21c.67,1.14-.43,6.45,2.72,5.78,2.14-.45,1.88-7.2,1.02-9-1.1-2.3-6.19-4.6-6.57-.48-.32,3.41,2.35,2.87,2.84,3.7Z"/>
      <path class="cls-25" d="M26,81v5c-.31.12-.63.83-1,1-1.9.85-1.43.15-3,2-1.76.09-8.16,1.81-9,1-.23-.22.14-3.02,0-4,5.01-1.18,4.77-6.16,10.52-6.09,1.29.02,2.17,1.05,2.48,1.09Z"/>
      <path class="cls-43" d="M11,92l.99-3.99c-1.22,5.2,4.98,2.36,8.01,2.99-3.33,3.21-7.61,7.79-1,10-.1,1.98.4,4.57-.02,6.31-.09.37-3.76,2.71-1.98,6.69-1.32-.11-2.68.09-4,0,2.41-3.78,4.4-7.36,2.46-11.97-1.46-3.48-2.58-7.1-4.46-10.03Z"/>
      <path class="cls-5" d="M13,86c.14.98-.24,3.78,0,4,.85.81,7.25-.91,9-1-1.38,1.63-1.03,1.07-2,2-3.03-.63-9.23,2.2-8.01-2.99l-.99,3.99c-2.51-3.89-.1-4.19,1-7,.48.1.93.53,1,1Z"/>
      <path class="cls-50" d="M25,92c5.64.61,3.24,5.24,3.97,8.31.24,1.02,2.3.87,2.85,2.34.74,1.99.35,5.99,1.18,8.36-1.18-.22-2.73.15-4,0-.37-3.52,1.42-12.75-3-13-.13-2.64-.72-3.98-1-6Z"/>
      <path class="cls-8" d="M12,85c-1.1,2.81-3.51,3.11-1,7,1.89,2.93,3,6.55,4.46,10.03,1.94,4.61-.05,8.18-2.46,11.97-.99-.06-2.01.07-3,0-.75-1.58-2.58-2.71-3.24-4.27-1.58-3.73-1.54-17.28-.78-21.25.45-2.33,5.3-4.43,6.01-7.49h1c.33,3.26-.07,1.62-1,4Z"/>
      <path class="cls-37" d="M48,139c.02-4.24-.27-6.11-1-10-.55-2.93-.2-4.04-2-7h1c8.1,5.91,10.61,9.79,2,17Z"/>
      <path class="cls-30" d="M45,109c-.31,3.65-.52,3.93,2,6-.29,1.34-.67,2.67-1,4-.17.67-1.65,1.33,0,3h-1c-.14-.22-2.81-3.82-3-4-2.76-4.1,3.89-2.84,2-9h1Z"/>
      <path class="cls-27" d="M53,118c2.47,4.11-4.56,3.78-7,1,.33-1.33.71-2.66,1-4,1.54,1.27,4.08,2.45,6,3Z"/>
      <path class="cls-36" d="M57,46c-.02,3.3-.18,2.67-2.98,4.5,0,.33,6.22,2.81,1.3,4.32-5.6,1.72-4.11-1.87-5.32-6.82-.14-.59.31-1.58.01-2.31-.22-.54-3.94-1.23-2.01-2.68s7.02,1.93,9,2.99Z"/>
      <path class="cls-1" d="M50,48h-8c.16-1.37-.31-3.09-.03-4.33s15.09-5.6,15.04,2.33c-1.98-1.07-7-4.49-9-2.99s1.79,2.14,2.01,2.68c.3.74-.15,1.73-.01,2.31Z"/>
      <path class="cls-4" d="M35,70c5.71.03,15.52-1.45,18.49,5.01,2.15,4.66-1.69,4.22-2.28,5.15-1.93,3.01,2.25,3.16,2.78,4.35.87,1.95-1.74,1.4-2.5,2.47-1,1.43-.2,3.04-.5,4.02l-14.97-2.53c-2.65-1.51-4.89-6.03-7.03-7.47,0-1,0-2,0-3,1.82.06,5.39-5.28,6-7,.09-.25-.03-.65,0-1Z"/>
      <path class="cls-46" d="M66,73c.67,7.28.67,15.24-8.99,12.99-.99-2.54,3.02-2.56,3.01-3.51-.02-1.45-5.35-6.96-3.01-11.49.11.05,1.05-.75,1.5-.56,2.36,1,3.65,3.76,7.5,2.56Z"/>
      <path class="cls-42" d="M47,107v1c-.78.08-1.46.44-2,1h-1c-.13-.41-1.91-.65-2.1-2.52-.24-2.43,1.03-4.17,1.1-5.48,2.82.93,2.63,3.83,4,6Z"/>
      <path class="cls-24" d="M55,104c.22-.75.97-.94,1-1l-1,1Z"/>
      <path class="cls-41" d="M35,71c-.61,1.72-4.18,7.06-6,7-.15,0-.69-.89-1.48-.85-1.82.09-7.62,1.72-8.52-1.15,2.93.14,6.36,1.22,9.18-.06,2.13-.97,3.4-5.96,6.82-4.94Z"/>
      <path class="cls-32" d="M29,81c0,1.13.25,4.59-.07,4.96-.35.41-2.31-.2-2.93.04v-5c.51.07,1.4-1.08,3,0Z"/>
      <path class="cls-62" d="M34.77,99.21c-.49-.83-3.16-.29-2.84-3.7.39-4.12,5.47-1.81,6.57.48.87,1.8,1.12,8.55-1.02,9-3.15.67-2.04-4.64-2.72-5.78Z"/>
    </g>
  </g>
</svg>