<?xml version="1.0" encoding="UTF-8"?>
<svg id="_Слой_2" data-name="Слой 2" xmlns="http://www.w3.org/2000/svg" viewBox="0 0 99 150">
  <defs>
    <style>
      .cls-1 {
        fill: #815043;
      }

      .cls-2 {
        fill: #461f13;
      }

      .cls-3 {
        fill: #b0a09c;
      }

      .cls-4 {
        fill: #d99778;
      }

      .cls-5 {
        fill: #cb9074;
      }

      .cls-6 {
        fill: #fcd2b4;
      }

      .cls-7 {
        fill: #a8674c;
      }

      .cls-8 {
        fill: #fcd3b5;
      }

      .cls-9 {
        fill: #441d12;
      }

      .cls-10 {
        fill: #3a221a;
      }

      .cls-11 {
        fill: #fde3cd;
      }

      .cls-12 {
        fill: #e29e7b;
      }

      .cls-13 {
        fill: #fbdfc8;
      }

      .cls-14 {
        fill: #482217;
      }

      .cls-15 {
        fill: #eabda0;
      }

      .cls-16 {
        fill: #e39e7a;
      }

      .cls-17 {
        fill: #985940;
      }

      .cls-18 {
        fill: #402a24;
      }

      .cls-19 {
        fill: #39211b;
      }

      .cls-20 {
        fill: #f9cfb1;
      }

      .cls-21 {
        fill: #4f2214;
      }

      .cls-22 {
        fill: #8f5138;
      }

      .cls-23 {
        fill: #e6a581;
      }

      .cls-24 {
        fill: #593429;
      }

      .cls-25 {
        fill: #8a4a32;
      }

      .cls-26 {
        fill: #e5a07c;
      }

      .cls-27 {
        fill: #fbd1b2;
      }

      .cls-28 {
        fill: #d08d71;
      }

      .cls-29 {
        fill: #e5a17d;
      }

      .cls-30 {
        fill: #431c11;
      }

      .cls-31 {
        fill: #4f2a1e;
      }

      .cls-32 {
        fill: #fdd4b6;
      }

      .cls-33 {
        fill: #b48b7a;
      }

      .cls-34 {
        fill: #d8997b;
      }

      .cls-35 {
        fill: #d28f73;
      }

      .cls-36 {
        fill: #98583f;
      }

      .cls-37 {
        fill: #e3a17e;
      }

      .cls-38 {
        fill: #5d372b;
      }

      .cls-39 {
        fill: #844933;
      }

      .cls-40 {
        fill: #7e4f43;
      }

      .cls-41 {
        fill: #f9cdaf;
      }

      .cls-42 {
        fill: #503830;
      }

      .cls-43 {
        fill: #cdb19e;
      }

      .cls-44 {
        fill: #5d2f20;
      }

      .cls-45 {
        fill: #553c34;
      }

      .cls-46 {
        fill: #e19f7c;
      }

      .cls-47 {
        fill: #5c352a;
      }

      .cls-48 {
        fill: #4a2317;
      }

      .cls-49 {
        fill: #fdd3b5;
      }

      .cls-50 {
        fill: #4b2418;
      }

      .cls-51 {
        fill: #532d22;
      }

      .cls-52 {
        fill: #51271a;
      }

      .cls-53 {
        fill: #fce3cc;
      }

      .cls-54 {
        fill: #fbd2b4;
      }

      .cls-55 {
        fill: #3d160b;
      }

      .cls-56 {
        fill: #4a2215;
      }

      .cls-57 {
        fill: #fad0b2;
      }

      .cls-58 {
        fill: #f6ccae;
      }

      .cls-59 {
        fill: #beb1ad;
      }

      .cls-60 {
        fill: #fcd2b3;
      }

      .cls-61 {
        fill: #502619;
      }

      .cls-62 {
        fill: #502518;
      }

      .cls-63 {
        fill: #df9d7a;
      }
    </style>
  </defs>
  <g id="_Слой_9_Изображение" data-name="Слой 9 Изображение">
    <g>
      <path class="cls-26" d="M53,5c2.79.05,8.17-.58,10.3-.02,1.02.27.98,2.08,1.68,2.5,2.37,1.43,2.74.63,6.62,3.38,1.25.89,3.82,1.8,4.45,2.84,2.53,4.13,3.35,11.84,4.22,16.53.18.98,1.48,1.99,1.67,3.33.29,1.99.46,8.73.05,10.45-.07.28-2.97,4.63-3.22,4.77-2.98,1.68-5.8-2.35-5.78,5.23-2.46.5-10.21,4.43-8,7-3.62,1.22-7.65,2.25-11,4.5v24.5c5.05-.2,2.19-6.81,3.2-10.3.13-.44,3.47-7.28,3.92-8.08,2.27-3.98,8.75-4.03,4.87-10.63,6.54-2.07,6.81-3.28,15-3,2.78.1,5.29.47,8,1-.08.5-.1,1.54,0,2-3.02.3-6.64-.43-9.53,0-3.07.45-.65,5.66-.32,5.86,4.15,2.5,3.84-2.59,4.79-3.4.46-.39,4.18,1.04,5.07-1.46.06.22,1.59,3.16,2,4-2.42,5.11-5.66,4.01-7,10-.4,1.8-.81,3.17,0,5-2,.18-5.5-.45-7,0-6.22,1.87,2.4,9.58-3,12-.13-.17-.82.16-1,0-2.26-2.06-3.16-3.56-7-3-.66-.35-1.33-.67-2-1,.42-.31.94-1.67,2.02-2.44,2.33-1.66,13.36-6.18,2.33-6.5-6.7-.19-9.41,4.75-8.35,10.94-2.76,2-1.77,2-3,4-1.63,2.64-4.66,6.11-2,9v1c-.66.02-1.34-.06-2,0-1.33.11-2.8-.36-4.04.47-1.01.68-.66,2.02-.96,2.53-.53.88-.96,1.12-2,1,.04-.73.08-1.45-.45-2.05-.68-.87-1.6-.79-2.55-.95,4.24-6.12,6.49-1.68,3-9,.68-4.64-3.02-5.46,2-7-1.65-6.31,2.42-18.01.8-23.31-.66-2.16-8.37-5.19-10.8-5.69v-1l2-.5c-4.05-1.82-7.32-2.36-11-5.5-.98-5.45-2.42-4.84-7-4-.29-.37-.66-.68-1-1-.9-4.06-3.17-7.88-2.02-12.3.27-1.05,2.39-.95,2.87-2.32.31-.88,2.14-16.84,2.15-18.38.34-.32.72-.62,1-1l.05,19.45c3.97,7.85,6.36,12.47,15.55,14.45s20.01.2,25.6-8.2c9.79-14.72,1.31-29.08-13.2-35.7ZM76.9,71.15c-.12-.21-3.73-2.57-3.95-2.66-4.47-2-6.98,4.81-5.96,8.51,1.68-.31,8.42.47,8.95-.06.21-.21,1.09-5.53.95-5.79Z"/>
      <path class="cls-9" d="M65,2c1.08.26,2.23,2.08,3.75,2.78,1.08.5,2.94-.16,4.02.45.64.36,8.28,10.58,8.67,11.82.76,2.41,3.04,11.94,3.49,14.51.36,2.09.49,11.58.06,13.44l-3-1c.41-1.72.24-8.46-.05-10.45-.19-1.34-1.48-2.35-1.67-3.33-.88-4.69-1.69-12.4-4.22-16.53-.63-1.04-3.2-1.95-4.45-2.84-3.88-2.75-4.26-1.94-6.62-3.38-.7-.42-.66-2.24-1.68-2.5-2.13-.56-7.51.08-10.3.02-11.77-.23-20.29-.52-28,10-.28.38-.66.68-1,1,0-.29-1.8-2.62-1-4,3.32-3.98,6.68-5.48,10.92-7.62.82-.41,1.44-2.18,2.08-2.38,1.38-.44,27.25-.42,29,0Z"/>
      <path class="cls-30" d="M19,90c.03.66-.04,1.33,0,1.99,1.67.39,2.68-.48,4-.99,3.03-.56,1.92,1.53,2,3.45.24,6.16-.18,12.39,0,18.55-4.59,3.97-3.59,12.88-.04,17.32.75.94,1.86.53,2.04.68,3.67,2.92,2.72,3.66,9,3,1.23-.13,3.19-1.62,5-1,0,.14,1.13,1.28,1,2-.25.1-.65-.05-1,0-4.82.7-10.99-.5-16,0-.76-.48-5.73-4.3-5.84-4.66-1.09-3.33.98-12.19-.59-14.41-.93-1.32-4.82-.62-7.56-1.94-.51-3.14.95-1.62,3-2,1.34-.25,2.26-.17,3.75-.75,1.31-.51,1.57-1.65,2.25-2.25.19-.17,1.75.57,2.04-.63,1.4-5.77-2.66-10.58-6.14-14.85,0-3.1.78-2.94,3.1-3.52Z"/>
      <path class="cls-2" d="M54,115c1,.04,2.01-.05,3,0,.57.65-.5,10.27-.07,12.46.24,1.2,2.9-.11,3.14,1.1,1.48,7.54-4.1,21.41,10.45,18.46,3.05-.62,2.31-5.09,7.48-4.01-.07.42.4,1.19,1,1v1c-4.97,4.72-11.25,5.42-17.97,3.42-6.04-1.8-3.07-8.52-4.24-12.72-.39-1.41-2.49-2.42-2.8-3.7-.89-3.69.19-12.41,0-17Z"/>
      <path class="cls-50" d="M24,16c-.01,1.54-1.84,17.5-2.15,18.38-.48,1.36-2.6,1.27-2.87,2.32-1.15,4.42,1.12,8.24,2.02,12.3-1.09-1.02-4.81-2.97-5.02-3.71-.39-1.41-.28-10.94-.03-12.83.38-2.81,2.33-4.5,2.82-7.18,1.08-5.93-.2-7.97,4.23-13.28-.8,1.38,1,3.71,1,4Z"/>
      <path class="cls-19" d="M84,81c.33-.03.67.03,1,0l-1,2c-5.34,1.44-6.64,7.34-4,12,.75,1.43,6.56,1.3,8,0l1,1c-.05.16,1.26,1.82,1.01,1.99-1.31.89-9.38.29-10.58,1.94-1.57,2.18.28,15.44-.44,19.07-.93.18-2.21-.22-3,0-.01-.33.01-.67,0-1l1-37c1.5-.45,5,.18,7,0Z"/>
      <path class="cls-48" d="M85,45c-.7,3.03-7.97,5.74-7,9.99.54.53,8.39-.47,10.32-.03,1.23.28,1.05,2.34,1.67,3.03-.46.14-.93.54-1,1-2.71-.53-5.22-.9-8-1-4.38-3.07-7.98,2.11-8-4-.03-7.58,2.8-3.54,5.78-5.23.25-.14,3.16-4.49,3.22-4.77l3,1Z"/>
      <path class="cls-18" d="M96,68c.22.29,1.77-1.04,2.08,1.43.58,4.67.66,17.16-2.08,20.57-.54-.18-1.69-1.07-2-1-.44-3.99-.34-7.06,0-11,.01-.13.87-1.12,1.05-2.41.34-2.4-1.08-6,.95-7.59Z"/>
      <path class="cls-47" d="M4,99c5.13-.65,3.22,3,4.25,5.25.59,1.31,1.72,1.89,2.2,2.84,1.15,2.29-.41,3.89,3.55,4.91-2.05.38-3.51-1.14-3,2-6.96-3.34-6.46-8.17-8-14,.35-.26.85-.6,1-1Z"/>
      <path class="cls-42" d="M4,80c.16,6.83,2.61,11.94,0,19-.15.4-.65.74-1,1-.08-.31-1.51-.77-1.68-1.25-.66-1.86-.73-14-.31-16.28.38-2.05,1.95-2.32,1.99-2.47h1Z"/>
      <path class="cls-51" d="M47,115c.27.08.63.78,1,1,.44,3.37-2.24,5.77-2.95,8.55-.66,2.59.92,8.9-3.05,10.45.13-.72-1-1.86-1-2,.04-1.21.98-9.89,1.15-10.38.49-1.42,4.84-2.22,2.85-7.62.63.1,1.48-.16,2,0Z"/>
      <path class="cls-61" d="M29,54c.21,1.19-.15,2.73,0,4-.3,0-5.71.91-6,1-.95-.14-1.1-1.21-1-2,.46-3.62,3.49-2.53,0-7,4.58-.84,6.02-1.45,7,4Z"/>
      <path class="cls-44" d="M54,112c.12.96-.04,2.02,0,3-.33-.01-.67,0-1,0-1.6.01-4.16-.58-5,1-.37-.22-.73-.92-1-1,1.54-3.25-2.06-4.31-2.06-4.6,0-.65,1.05-1.2,1.06-1.4,1.04.12,1.47-.12,2-1,4.77-.18,5.43-.61,6,4Z"/>
      <path class="cls-21" d="M79,145v-1c-.02-.67-.4-.87-1-1,.37-2.19.94-3.26,1-6,.11-5.32-1-5.04-2-9,4.41,2.06,5.92,5.72,5.93,10.63,0,3.89-1.73,4.28-3.93,6.37Z"/>
      <path class="cls-38" d="M9,70c.04.18.04.97,0,1-.27.17-1.75-.48-2.03.63-.5,1.98.38,5.14.03,7.37-.47.08-1.79,1.47-3,1h-1c1.37-5.78,1.31-9.68,5-15-.86,2.07.74,3.8,1,5Z"/>
      <path class="cls-14" d="M23,59c-.58.17-2.47,1.48-3,2-2,.14-4.41-.39-6.25.04-.99.23-1.35,1.78-1.75,1.96-.29.13-.77-.14-1,0-.2-7.21,6.52-3.77,11-6-.1.79.05,1.86,1,2Z"/>
      <path class="cls-59" d="M65,2c-1.75-.42-27.62-.44-29,0,1.04-1.66,3.79-1,5.49-1.02,7.56-.08,16.29-.74,23.51,1.02Z"/>
      <path class="cls-31" d="M41,135c-3.5,3.88-12.18,2.4-16,0,5.01-.5,11.18.7,16,0Z"/>
      <path class="cls-10" d="M94,64c.04,2.37.67,3.47-2,3-.21-.4-.85-.69-1-1-.41-.84-1.94-3.78-2-4-.08-.3.07-.68,0-1-.1-.46-.08-1.5,0-2,.07-.46.54-.86,1-1,2.87,3.17,2.16,2.76,4,6Z"/>
      <path class="cls-52" d="M76,119c.15,3.71.04,5.23,1,9-2.62-1.23-3.35,1.49-4-4-.14-1.16-.07-2.79,0-4,.75-.15,1.97-.72,3-1Z"/>
      <path class="cls-45" d="M96,90c-1.03,1.27-6.87,5.56-7,6l-1-1c.64-.58.7-2.17,1-3,.1-.27-.07-.66,0-1,1.86.34,4.05-1.77,5-2,.31-.07,1.46.82,2,1Z"/>
      <path class="cls-24" d="M11,63c.23-.14.71.13,1,0l-1,4c-.43.52-.14,2.75-2,3-.26-1.2-1.86-2.93-1-5,1.55-2.24,1.89-1.29,3-2Z"/>
      <path class="cls-3" d="M54,132c-2.26-4.86-.43-11.57-1-17,.33,0,.67-.01,1,0,.19,4.59-.89,13.31,0,17Z"/>
      <path class="cls-33" d="M96,68c-2.03,1.59-.62,5.2-.95,7.59-.18,1.29-1.04,2.28-1.05,2.41-.41-2.64.57-6.63,0-9-.15-.61-1.71-1.43-2-2,2.67.47,2.04-.63,2-3,.68,1.19,1.46,3.3,2,4Z"/>
      <path class="cls-32" d="M53,5c14.5,6.61,22.99,20.98,13.2,35.7-5.59,8.4-16.24,10.22-25.6,8.2s-11.58-6.59-15.55-14.45l-.05-19.45c7.71-10.52,16.23-10.23,28-10Z"/>
      <path class="cls-49" d="M38,61c2.43.49,10.14,3.53,10.8,5.69,1.62,5.3-2.45,17-.8,23.31-5.39-.43-2.12-8.07-2.98-11.3-.27-1-2.07-.98-2.47-1.7-.9-1.59-.32-3.58-1.48-5.57-1.32-2.27-5.45-3.84-8.07-3.42,8.11,10.83-3.63,12.29-8.51,2.99-2.54-.64-3.41,7.67-9.77,5.82-3.67-1.07-3.24-5.25-3.72-5.82,1.96-2.65,3.64-4.67,6-7,.78-.78,2.02-2.04,3-3,4.82-.34,13.45-.92,18,0Z"/>
      <path class="cls-34" d="M76,118c.01.33-.01.67,0,1-1.03.28-2.25.85-3,1,.18-2.86,2.15-7.58.53-10.03-1.87-2.83-4.39.83-5.53,1.03-3.78.67-9.22-2.15-8,3-.44,2.39-.29,5.03,1,7,2.17,3.33,7.48,4.26,11,3-1.75,1.37-2.42.36-1.48,2.93,1.34,3.63,4.21,9.23,8.48,10.07-.06,2.74-.63,3.81-1,6-5.17-1.08-4.43,3.39-7.48,4.01-14.55,2.95-8.97-10.92-10.45-18.46-.24-1.2-2.9.11-3.14-1.1-.43-2.18.64-11.81.07-12.46-.99-.05-2,.05-3,0-.04-.98.12-2.04,0-3,6.19-1.22.88-3.94-1-7,.66-.06,1.34.02,2,0,9.53-.33,18.17.79,18-12,.18.16.87-.17,1,0,3.46,4.41,1.8,18.76,2,25ZM73,143c.93-7.58-.3-12.93-9.06-11.58-2.82,5.91,2.24,13.45,9.06,11.58Z"/>
      <path class="cls-29" d="M11,71c.48.57.06,4.75,3.72,5.82,6.35,1.86,7.22-6.45,9.77-5.82,4.88,9.3,16.62,7.84,8.51-2.99,2.62-.43,6.75,1.15,8.07,3.42,1.16,1.99.57,3.98,1.48,5.57.41.72,2.21.7,2.47,1.7.86,3.23-2.41,10.87,2.98,11.3-5.02,1.54-1.32,2.36-2,7-.79-1.66-3.6-6.01-3.8-6.7-1.13-3.92,1.63-8.65-4.91-10.08-1.48-.32-7.18-.6-8.29-.21-1.65.58.78,4.59-6,2-.8-.62-1.31-3.41-3-2-3.55,1.29-1.35,5.78-1.95,8.38-.27,1.15-1.94.49-2.05.62.96-4.92-.97-7.05-3.03-10.99-2.44,2.12-5.2.86-5.97.99.34-2.22-.53-5.39-.03-7.37.28-1.12,1.76-.46,2.03-.63.55.11,1.86-.17,2,0Z"/>
      <path class="cls-11" d="M46,97c3.49,7.32,1.24,2.88-3,9-.32-.05-.67.04-1,0-6.02-.69-6.33-.23-11-5-1.91-3.77-1.22-3.61-2-7,.98-2.87,9.75-3.33,9-6.49-.66-2.75-10.38-2.42-9-7.51,1.11-.39,6.81-.11,8.29.21,6.54,1.43,3.78,6.16,4.91,10.08.2.69,3.01,5.04,3.8,6.7Z"/>
      <path class="cls-35" d="M29,94c.78,3.39.09,3.23,2,7,1.79,3.55,7.31,11.87,11,5,.33.04.68-.05,1,0,.95.16,1.87.09,2.55.95.53.6.49,1.31.45,2.05-.01.2-1.07.75-1.06,1.4,0,.29,3.6,1.35,2.06,4.6-.52-.16-1.37.1-2,0-1.7.82-.48,3.49-1.24,4.78-.32.53-2.15.56-2.61,1.84-1.53,4.33,2.67,8.22-3.15,10.38-.07-1.04.9-2.24,1-3,.58-4.54.09-10.26-6-8-.06-.99.09-2.02,0-3,2.14-.29,6.44.69,8.07-.44,1.17-.81,1.24-5.28.94-5.56-.18-.17-3.29.22-4.99-.52-2.28-.99-5.1-6.49-5.53-6.5-3.62-.02-3.2,4.79-2.49,7.01-.85.18-2.4-.26-3,0-.21-6.64-.17-12.49,1-19,.96-.1,1.74-.14,2,1Z"/>
      <path class="cls-53" d="M65,61c.3-.1.7.1,1,0,3.88,6.6-2.61,6.64-4.87,10.63-.45.8-3.79,7.64-3.92,8.08-1.02,3.48,1.85,10.09-3.2,10.3v-24.5c3.35-2.25,7.38-3.28,11-4.5Z"/>
      <path class="cls-11" d="M66,90c6.12,3.29,4.53,6.51,1,12-4.97.96-9.87-1.79-10-7,1.23-2,.24-2,3-4,.93-.67,2.51-.93,4-2,.67.33,1.34.65,2,1Z"/>
      <path class="cls-27" d="M60,91c-1.06-6.19,1.65-11.13,8.35-10.94,11.03.32,0,4.84-2.33,6.5-1.08.77-1.59,2.14-2.02,2.44-1.49,1.07-3.07,1.33-4,2Z"/>
      <path class="cls-60" d="M76.9,71.15c.14.26-.74,5.58-.95,5.79-.53.53-7.27-.24-8.95.06-1.03-3.7,1.49-10.51,5.96-8.51.22.1,3.83,2.45,3.95,2.66Z"/>
      <path class="cls-20" d="M73,93c.17,12.79-8.47,11.67-18,12v-1c3.91-.6,9.57,1.77,12-2,3.53-5.49,5.12-8.71-1-12,3.84-.56,4.74.94,7,3Z"/>
      <path class="cls-54" d="M67,102c-2.43,3.77-8.09,1.4-12,2-2.66-2.89.37-6.36,2-9,.13,5.21,5.03,7.96,10,7Z"/>
      <path class="cls-62" d="M76,118c-.2-6.24,1.46-20.59-2-25,5.4-2.42-3.22-10.13,3-12l-1,37Z"/>
      <path class="cls-13" d="M89,61c.07.32-.08.7,0,1-.89,2.49-4.61,1.06-5.07,1.46-.95.81-.64,5.9-4.79,3.4-.33-.2-2.75-5.41.32-5.86,2.9-.42,6.52.3,9.53,0Z"/>
      <path class="cls-22" d="M73,54c.02,6.11,3.62.93,8,4-8.19-.28-8.46.93-15,3-.3.1-.7-.1-1,0-2.21-2.57,5.54-6.5,8-7Z"/>
      <path class="cls-41" d="M86,74c4.64-.94,2.7,2.32,3,6-.93.85-2.77.87-4,1-.33.03-.67-.03-1,0-.81-1.83-.4-3.2,0-5,.64-.69,1.3-1.37,2-2Z"/>
      <path class="cls-7" d="M38,60v1c-4.55-.92-13.18-.34-18,0,.53-.52,2.42-1.83,3-2,.29-.09,5.7-.99,6-1,3.21-.07,5.46,3.03,9,2Z"/>
      <path class="cls-17" d="M53,105c1.88,3.06,7.19,5.78,1,7-.57-4.61-1.23-4.18-6-4,.3-.5-.05-1.85.96-2.53,1.24-.83,2.71-.36,4.04-.47Z"/>
      <path class="cls-36" d="M29,54c3.67,3.14,6.95,3.69,11,5.5l-2,.5c-3.54,1.03-5.79-2.07-9-2-.15-1.27.21-2.81,0-4Z"/>
      <path class="cls-4" d="M92,67c.29.57,1.85,1.39,2,2-3.27.38-5.68,2.91-8,5-.7.63-1.36,1.31-2,2,1.34-5.99,4.58-4.89,7-10,.15.31.79.6,1,1Z"/>
      <path class="cls-8" d="M7,79c.77-.13,3.53,1.13,5.97-.99,2.05,3.94,3.98,6.07,3.03,10.99-.39.46-2.82,4.25-2.82,4.51,0,1.19,12.34,10.58,6.82,15.49-.68.6-.93,1.74-2.25,2.25-1.49.58-2.41.5-3.75.75-3.96-1.02-2.41-2.61-3.55-4.91-.48-.95-1.61-1.53-2.2-2.84-1.02-2.25.88-5.9-4.25-5.25,2.61-7.06.16-12.17,0-19,1.21.47,2.53-.92,3-1Z"/>
      <path class="cls-25" d="M29,112c1.24,3.86,2.02,2.27,3,3,2.25,7.71-5.88,6.63-6,13-.21.9.85,2.95,1,3-.18-.14-1.3.26-2.04-.68-3.54-4.45-4.55-13.35.04-17.32.34-.3.87-.95,1-1,.6-.26,2.15.18,3,0Z"/>
      <path class="cls-56" d="M20,80c1.69-1.41,2.2,1.38,3,2,2.49,1.9,3.91,1.68,5.02,2.48,4.33,3.11-1.68,6.56-1.79,6.98-.14.57.8,1.34.77,1.54-1.17,6.51-1.21,12.36-1,19-.13.05-.66.7-1,1-.18-6.16.24-12.38,0-18.55-.08-1.93,1.03-4.01-2-3.45,6.87-2.69,1.02-5.65-.9-3.85-.36.34.2,2.3-.18,2.74-.43.51-2.16-.08-2.92.11-.09-1.87-.04-9.14,1-10Z"/>
      <path class="cls-58" d="M39,129c-.1.76-1.07,1.96-1,3-1.19.44-2.47-1.12-2,2-6.28.66-5.33-.08-9-3,.82.27,1.09-2.54,3.48-3.02s6.23-.15,8.52,1.02Z"/>
      <path class="cls-5" d="M19,90c-2.32.58-3.1.42-3.1,3.52,3.48,4.26,7.54,9.08,6.14,14.85-.29,1.2-1.85.46-2.04.63,5.52-4.91-6.83-14.3-6.82-15.49,0-.27,2.44-4.05,2.82-4.51.11-.13,1.78.53,2.05-.62.61-2.59-1.59-7.09,1.95-8.38-1.04.86-1.09,8.13-1,10Z"/>
      <path class="cls-28" d="M45,115c1.99,5.4-2.36,6.2-2.85,7.62-.17.49-1.11,9.17-1.15,10.38-1.81-.62-3.77.87-5,1-.47-3.12.81-1.56,2-2,5.82-2.16,1.62-6.05,3.15-10.38.45-1.28,2.29-1.3,2.61-1.84.77-1.29-.46-3.96,1.24-4.78Z"/>
      <path class="cls-43" d="M19,90c.76-.19,2.49.4,2.92-.11.37-.44-.18-2.4.18-2.74,1.92-1.8,7.77,1.16.9,3.85-1.32.51-2.32,1.39-4,.99-.04-.66.03-1.33,0-1.99Z"/>
      <path class="cls-55" d="M79,144c-.6.19-1.07-.58-1-1,.6.13.98.33,1,1Z"/>
      <path class="cls-63" d="M94,78c-.34,3.94-.44,7.01,0,11-.95.23-3.14,2.34-5,2,.83-3.99,3-6.83-3-7-.58-.02-1.64-.14-2,0v-1l1-2c1.23-.13,3.07-.15,4-1,1.6-1.48.98-2.96,1.01-5,1.87-.06,1.05,3.69,3.99,3Z"/>
      <path class="cls-40" d="M83,92c2.07.2,3.79.75,6,0-.3.83-.36,2.42-1,3-1.44,1.3-7.25,1.43-8,0-.2-.38.04-2.17,0-3,.99.06,2.02-.09,3,0Z"/>
      <path class="cls-62" d="M84,83v1c-3.35,1.27-4.16,4.85-4,8,.04.83-.2,2.62,0,3-2.64-4.66-1.34-10.56,4-12Z"/>
      <path class="cls-39" d="M77,128c1,3.96,2.11,3.68,2,9-4.27-.84-7.14-6.44-8.48-10.07-.95-2.57-.27-1.56,1.48-2.93h1c.65,5.49,1.38,2.77,4,4Z"/>
      <path class="cls-63" d="M17,64c-2.36,2.33-4.04,4.35-6,7-.14-.17-1.45.11-2,0,.04-.03.04-.82,0-1,1.86-.25,1.57-2.48,2-3,1.17-1.42,4.07-3.36,6-3Z"/>
      <path class="cls-1" d="M20,61c-.98.96-2.22,2.22-3,3-1.93-.36-4.83,1.58-6,3l1-4c.4-.18.76-1.73,1.75-1.96,1.84-.43,4.25.1,6.25-.04Z"/>
      <path class="cls-23" d="M68,111l-1,10c2.32.64,4.16-.63,6-1-.07,1.21-.14,2.84,0,4h-1c-3.52,1.26-8.83.33-11-3,2.97-.67,3.04-7.88,1.99-9s-2.87,1.33-2.99,2c-1.22-5.15,4.22-2.33,8-3Z"/>
      <path class="cls-57" d="M89,91c-.07.34.1.73,0,1-2.21.75-3.93.2-6,0-.99-3.68,2.44-4.85,3-8,6,.17,3.83,3.01,3,7Z"/>
      <path class="cls-15" d="M94,69c.57,2.37-.41,6.36,0,9-2.94.7-2.12-3.06-3.99-3-.03,2.03.59,3.52-1.01,5-.3-3.68,1.64-6.94-3-6,2.32-2.09,4.73-4.62,8-5Z"/>
      <path class="cls-6" d="M73,143c-6.82,1.87-11.88-5.67-9.06-11.58,8.76-1.35,9.99,4,9.06,11.58Z"/>
      <path class="cls-6" d="M73,120c-1.84.38-3.68,1.65-6,1l1-10c1.14-.2,3.65-3.86,5.53-1.03,1.62,2.45-.35,7.17-.53,10.03Z"/>
      <path class="cls-6" d="M60,114c.12-.67,1.98-3.08,2.99-2s.98,8.33-1.99,9c-1.29-1.97-1.44-4.61-1-7Z"/>
      <path class="cls-37" d="M29,80c-1.39,5.1,8.34,4.76,9,7.51.75,3.16-8.02,3.62-9,6.49-.26-1.14-1.04-1.1-2-1,.04-.2-.91-.97-.77-1.54.1-.42,6.12-3.87,1.79-6.98-1.12-.8-2.54-.57-5.02-2.48,6.78,2.59,4.35-1.42,6-2Z"/>
      <path class="cls-16" d="M42,106c-3.69,6.87-9.21-1.45-11-5,4.67,4.77,4.98,4.31,11,5Z"/>
      <path class="cls-16" d="M29,112c-.71-2.22-1.13-7.03,2.49-7.01.43,0,3.25,5.5,5.53,6.5,1.69.74,4.8.34,4.99.52.3.28.23,4.76-.94,5.56-1.63,1.13-5.93.14-8.07.44-.14-1.46.53-1.87-1-3-.98-.73-1.76.86-3-3Z"/>
      <path class="cls-12" d="M39,129c-2.29-1.17-6.11-1.5-8.52-1.02s-2.66,3.29-3.48,3.02c-.15-.05-1.21-2.1-1-3,.12-.48,6.54-6.83,7-7,6.09-2.26,6.58,3.46,6,8Z"/>
      <path class="cls-28" d="M33,118c.09.98-.06,2.01,0,3-.46.17-6.88,6.52-7,7,.12-6.37,8.25-5.29,6-13,1.53,1.13.86,1.54,1,3Z"/>
      <path class="cls-46" d="M86,84c-.56,3.15-3.99,4.32-3,8-.98-.09-2.01.06-3,0-.16-3.15.65-6.73,4-8,.36-.14,1.42-.02,2,0Z"/>
    </g>
  </g>
</svg>