<?xml version="1.0" encoding="UTF-8"?>
<svg id="_Слой_2" data-name="Слой 2" xmlns="http://www.w3.org/2000/svg" viewBox="0 0 99 154">
  <defs>
    <style>
      .cls-1 {
        fill: #715149;
      }

      .cls-2 {
        fill: #f7caac;
      }

      .cls-3 {
        fill: #f7f6f5;
      }

      .cls-4 {
        fill: #d69477;
      }

      .cls-5 {
        fill: #fcd2b4;
      }

      .cls-6 {
        fill: #fcd3b5;
      }

      .cls-7 {
        fill: #94553d;
      }

      .cls-8 {
        fill: #482115;
      }

      .cls-9 {
        fill: #3a221b;
      }

      .cls-10 {
        fill: #db9b7a;
      }

      .cls-11 {
        fill: #d59779;
      }

      .cls-12 {
        fill: #ba7d63;
      }

      .cls-13 {
        fill: #84594b;
      }

      .cls-14 {
        fill: #825246;
      }

      .cls-15 {
        fill: #dfa78b;
      }

      .cls-16 {
        fill: #583226;
      }

      .cls-17 {
        fill: #f2c3a6;
      }

      .cls-18 {
        fill: #e5a380;
      }

      .cls-19 {
        fill: #451c10;
      }

      .cls-20 {
        fill: #9c5c42;
      }

      .cls-21 {
        fill: #844630;
      }

      .cls-22 {
        fill: #4f2a20;
      }

      .cls-23 {
        fill: #facfb2;
      }

      .cls-24 {
        fill: #4e352c;
      }

      .cls-25 {
        fill: #c8bdba;
      }

      .cls-26 {
        fill: #f6c9ab;
      }

      .cls-27 {
        fill: #fce3cd;
      }

      .cls-28 {
        fill: #3b241e;
      }

      .cls-29 {
        fill: #ab6b4f;
      }

      .cls-30 {
        fill: #815044;
      }

      .cls-31 {
        fill: #5b392f;
      }

      .cls-32 {
        fill: #fbd3b5;
      }

      .cls-33 {
        fill: #e4a07b;
      }

      .cls-34 {
        fill: #b2a39f;
      }

      .cls-35 {
        fill: #f5cbae;
      }

      .cls-36 {
        fill: #fdd4b6;
      }

      .cls-37 {
        fill: #492318;
      }

      .cls-38 {
        fill: #fde4ce;
      }

      .cls-39 {
        fill: #975941;
      }

      .cls-40 {
        fill: #441d11;
      }

      .cls-41 {
        fill: #32211a;
      }

      .cls-42 {
        fill: #673d31;
      }

      .cls-43 {
        fill: #f8cfb1;
      }

      .cls-44 {
        fill: #f7cbad;
      }

      .cls-45 {
        fill: #fbd2b5;
      }

      .cls-46 {
        fill: #482116;
      }

      .cls-47 {
        fill: #d39073;
      }

      .cls-48 {
        fill: #975a42;
      }

      .cls-49 {
        fill: #894b34;
      }

      .cls-50 {
        fill: #411a0e;
      }

      .cls-51 {
        fill: #3f2821;
      }

      .cls-52 {
        fill: #da9f82;
      }

      .cls-53 {
        fill: #451d11;
      }

      .cls-54 {
        fill: #431b0f;
      }

      .cls-55 {
        fill: #d38f73;
      }

      .cls-56 {
        fill: #8b4d36;
      }

      .cls-57 {
        fill: #fad0b3;
      }

      .cls-58 {
        fill: #8e4e36;
      }

      .cls-59 {
        fill: #715046;
      }

      .cls-60 {
        fill: #864730;
      }

      .cls-61 {
        fill: #431b10;
      }

      .cls-62 {
        fill: #4a2317;
      }

      .cls-63 {
        fill: #975b42;
      }

      .cls-64 {
        fill: #e6e3e2;
      }

      .cls-65 {
        fill: #e3a07d;
      }

      .cls-66 {
        fill: #3d160b;
      }

      .cls-67 {
        fill: #94543b;
      }

      .cls-68 {
        fill: #461f14;
      }

      .cls-69 {
        fill: #431e13;
      }

      .cls-70 {
        fill: #fce2cc;
      }

      .cls-71 {
        fill: #583125;
      }

      .cls-72 {
        fill: #d69578;
      }

      .cls-73 {
        fill: #f4c5a8;
      }

      .cls-74 {
        fill: #d29074;
      }

      .cls-75 {
        fill: #6d3e33;
      }

      .cls-76 {
        fill: #5f3c31;
      }

      .cls-77 {
        fill: #e9bea2;
      }

      .cls-78 {
        fill: #da9d80;
      }

      .cls-79 {
        fill: #e39f7b;
      }

      .cls-80 {
        fill: #98695a;
      }

      .cls-81 {
        fill: #e3a07b;
      }

      .cls-82 {
        fill: #8c4c35;
      }

      .cls-83 {
        fill: #603627;
      }
    </style>
  </defs>
  <g id="_Слой_22_Изображение" data-name="Слой 22 Изображение">
    <g>
      <path class="cls-33" d="M36,10c.74-1.65,1.66-2.64,3.52-2.98,2.44-.45,18.81-.43,20.78.18,1.21.37,1.98,1.93,3.45,2.58,1.09.49,2.89-.17,4.01.47.45.25.77,1.85,1.84,2.6,5.14,3.58,6.41,5.27,9.39,11.15.11,4.5-.15,9.04,0,13.54.06,1.93-1.02,4.01,2,3.46.04.33-.05.68,0,1-2.89.17-6.19,8.93-6.1,10.53.12,2.21,1.96,1.26,3.1,2.47-.58.25-.88.69-2,1-1,.28-3.35-.44-3.93.1-.47.43.18,2.38-.07,2.9-.08.16-2.12,1.27-3,2-2.86,2.38-1.68,1.04-4,2,3.42-2.98,7.27-10.5,1.01-12l-1.01,5v-10.01s-5,0-5,0c2.72-3.63,5.78.14,8.04-1.42.9-.62,3.23-7.9,3.51-9.52,1.3-7.54-.24-16.77-6.86-21.26-10.46-7.1-16.89-6.4-28.7-3.8Z"/>
      <path class="cls-40" d="M22,83c1.51,5.21,6.25,11.55,4.57,17.08-.29.96-1.42,1.55-1.57,1.92-1.71,4.34-1.66,12.41,0,17,.13.52,2.63,2.03,3,3-.11,3.1.53,6.87-.66,9.77-1.48,3.58-5.26.66-6.34,10.23-.07.65.04,1.34,0,2s.07,1.35,0,2c-.11,1.07-.47,2.08-1,3-.41-.56-1.6-.32-1.98-2.48-1.52-8.56,2.3-13.08,5.94-20.05.34-1.63-2.96-3.57-2.96-3.97v-14.5c0-.88-13.4,2.41-15-6-.21-1.13.07-2.72,0-4h1c.17.72,2.96,4.37,4,5,2.12,1.29,3.46,1.27,6,1,5.7-.61,4.29-4.67,4-10s-.78-4.42-4-9c.45-.47.66-1.73,1-2,1.71-1.38,2.43-.57,4,0Z"/>
      <path class="cls-46" d="M27,10c2.98-2.94,1.55-1.48,4.94-3.56,1.62-1,2.39-3.25,4.49-3.36,1.28-.07,3.21.95,5.04.97,10.48.13,22.04-2.45,30.53,3.46.95.66,8.81,11.43,8.98,12.19.9,4.08.48,12.02,1.08,16.75.19,1.5,1.68,2.77,2,4.99.22,1.5.29,7.68-.03,8.9-.29,1.13-1.93.54-2.03.66.79-3.36-.59-6.38-1-9-.05-.32.04-.67,0-1-.58-4.61-.53-14.1-2-17-2.98-5.88-4.26-7.57-9.39-11.15-1.07-.75-1.4-2.35-1.84-2.6-1.12-.63-2.92.02-4.01-.47-1.48-.66-2.25-2.21-3.45-2.58-1.97-.61-18.33-.62-20.78-.18-1.87.34-2.79,1.33-3.52,2.98-3.45.76-3.14.79-6,2-.88.37-2.08.34-3,1v-3Z"/>
      <path class="cls-61" d="M52,111c-.58,5.05.44,10.81,6,12h1c.35,4.29-2.77,3-3.08,5.46-.16,1.28-1,7.53,2.08,6.54-.05.32.03.67,0,1-.09,1.07-.48,2.08-1,3-6.06-5.04-5.36-6.95-5.01-15-.13-.18-2.6,1.63-2.99,2-3.33.91-1.79-4.04-2-7-.23-3.19.79-4.31-3-5-.59-.11-2.55-.14-3,0-.04-1.35-.41-2.58,1-3,1.5-.45,7.82-.1,10,0Z"/>
      <path class="cls-37" d="M21,18c.2,8.33,1.16,15.85-2,24-.21.54-.69,1.12-1,2-1.01,2.87-1.4,4.68-1,8-.14-.17-1.82.64-2.56-1.9-.62-2.15-.87-7.5-.46-9.63.48-2.49,2.79-2.07,3.05-3.16.99-4.1-.09-14.02,1.11-17.71.52-1.61,2.07-1.18,2.87-1.6Z"/>
      <path class="cls-28" d="M7,71c.04.14-.01,2.24,0,3,.03,1.66.05,3.34,0,5-.17,6-1.37,12.46-1,19,.07,1.28-.21,2.87,0,4-1.12-.44-2.3-.96-3-2,.29-7.96-.39-16.05,0-24,.26-5.34.83-4.02,2-7,.41.59,1.87,1.55,2,2Z"/>
      <path class="cls-8" d="M26,55c1.98,1.62,2.15,3.53,2,6-3.4-.76-9.71-.01-13,1-.94.29-2.22.35-3,1l-3-1c.58-.91,1.36-4.32,2.2-4.79.41-.23,6.87-.85,8.8-1.21s3.89-1.26,6-1Z"/>
      <path class="cls-65" d="M88,76c-.58,4.62.82,2.33,3,3-6.1,1.5-.69,5,1.51,7.99l.49-6.99h1c.24,4.48-.15,9.05,0,13.54.06,1.92-1.02,4.01,2,3.46-.26,3.11-1.23,2.24-2,4-1.2-1.44-.6-3.66-3-3,.71-1.35,5.5-3.19-1-5-2.95-2.93,1.82-9.27-4-8-3.34-5.18,1.1-5.09,1-9h1Z"/>
      <path class="cls-76" d="M78,138c.18.02.62.81,1,1-1.16,1.47-1.13,2.54-3.52,2.98s-14.67.35-16.46-.54c-.71-.35-1.29-1.84-2.02-2.44.52-.92.91-1.93,1-3,6.43,2.72,13.38,1.21,20,2Z"/>
      <path class="cls-9" d="M87,120c.45.04.9.53,1,1-.06.14,1.18,1.83,1.01,1.99-2.42,1.07-8.47.44-10.07,1.45-1.32.83-.68,2.55-.93,3.55s-.99,2.84-1,3c-1.07-.21-1.52-1.64-2-2v-5c0-1.67,0-3.33,0-5,3.63,1.94,8.07.62,12,1Z"/>
      <path class="cls-42" d="M79,66c2.36.21,4.62-.29,7.11.43s1.55,4.13,3.89,1.57c1.82,2.47,3.25,2.55,4,7,.04.26-.08,3.59,0,5h-1c-.53-.66-1.25-.77-2-1-2.18-.67-3.58,1.62-3-3,2.7-1.32,1.63-1.3.64-3.1-2.65-4.83-5.28-4.55-9.64-6.9Z"/>
      <path class="cls-51" d="M91,98c2.4-.66,1.8,1.56,3,3-2.56,5.87.91,12.84-3.31,18.72-.63.88-2.61,1.1-2.69,1.28-.1-.47-.55-.96-1-1,5.56-6.08.93-16.17,4-22Z"/>
      <path class="cls-35" d="M81,42c.41,2.62,1.79,5.64,1,9-1.46,1.78-.09,2.32-4,4-1.14-1.22-2.98-.27-3.1-2.47-.09-1.6,3.21-10.36,6.1-10.53Z"/>
      <path class="cls-83" d="M75,61c2.24,4.24,8.21.65,12,2.49,1.69.82,2.08,3.26,3,4.51-2.34,2.56-1.41-.85-3.89-1.57s-4.74-.22-7.11-.43c-.99-.09-2.01.07-3,0-.68-.98-1.28-2.04-2-3,1.01-.3.84-1.19,1-2Z"/>
      <path class="cls-22" d="M96,77c-.2,6.31.28,12.7,0,19-.01.33.03.67,0,1-3.02.56-1.94-1.53-2-3.46-.15-4.5.25-9.07,0-13.54-.08-1.41.04-4.74,0-5,1.01.39,1.51,1.07,2,2Z"/>
      <path class="cls-66" d="M43,150c-.17.14.16.85,0,1h-21c-1.62-1.23.01-1.81,1.48-2,5.37-.69,14.26-.32,19.52,1Z"/>
      <path class="cls-30" d="M47,119c.21,2.96-1.33,7.91,2,7-1.52,1.42-2.62,4.1-5,5-.38-.56-2.21-.86-3-1,5.01-4.02.83-8.24,6-11Z"/>
      <path class="cls-68" d="M44,131c.18.26,1.76,5.11,2,6-2.5,2.06-.02,8.89-1,11-.33.04-.68-.05-1,0-.48-3.3.78-8.42-.15-11.36-.62-1.96-2.66-1.44-2.85-1.64-.68-.69-1.51-2.71-2-3,.29-1.12,1.24-1.39,2-2,.79.14,2.62.44,3,1Z"/>
      <path class="cls-50" d="M12,63c-2.42,2.02-2.3,6.61-5,8-.13-.45-1.59-1.41-2-2,1.67-4.26,2.17-4.11,4-7l3,1Z"/>
      <path class="cls-71" d="M43,148c.33-.01.68.05,1,0s.67.04,1,0c-.75,1.12-1.12,1.25-2,2-5.25-1.32-14.14-1.69-19.52-1-1.47.19-3.11.78-1.48,2-1.09-.53-1.36-1.12-2-2,.53-.92.89-1.93,1-3,5.53,3.22,15.37,2.28,22,2Z"/>
      <path class="cls-16" d="M79,139c-.38-.19-.82-.98-1-1,.69-2.3-1.07-5.18-1-7,0-.16.75-2.01,1-3,4.66,2.63,3.89,7.34,1,11Z"/>
      <path class="cls-59" d="M18,44c-.82,3.25.45,8.76,3.74,10.01.77.29,1.91-.19,2.26,0,.69.35.96.15,2,1-2.11-.26-4.01.63-6,1-2.04-.66-2.35-3.23-3-4-.4-3.32-.01-5.13,1-8Z"/>
      <path class="cls-64" d="M3,100c-1.84-2.76-1.06-14.33-1.02-18.51.02-1.69-.64-4.45,1.02-5.49-.39,7.95.29,16.04,0,24Z"/>
      <path class="cls-19" d="M76,56c-.62,1.61-.68,3.33-1,5-.16.81.01,1.7-1,2-.75-1.01-2.72-1.34-2-4,.25-.53-.4-2.48.07-2.9.59-.54,2.93.18,3.93-.1Z"/>
      <path class="cls-25" d="M43,151c-2.01,1.83-17.97,1.47-21,0h21Z"/>
      <path class="cls-69" d="M45,148c.98-2.11-1.5-8.94,1-11,.8,2.98,1.62,4.98.98,8.53-.39,2.17-1.66,1.99-1.98,2.47Z"/>
      <path class="cls-34" d="M96,96c.28-6.3-.2-12.69,0-19,1.99,3.79,1.42,14.55,0,19Z"/>
      <path class="cls-31" d="M22,18c-.24.15-.73-.14-1,0-.04-1.57.41-2.63,1-4h1c-.74,1.26-1.04,2.54-1,4Z"/>
      <path class="cls-3" d="M25,11c-.08.33.12.76,0,1h-1c.12-.13-.1-.99,1-2v1Z"/>
      <path class="cls-1" d="M23,14h-1c.17-.39,1.49-1.44,2-2h1c-.74,1.43-1.89,1.82-2,2Z"/>
      <path class="cls-1" d="M27,10v1h-2v-1c.25-.23,1.76.24,2,0Z"/>
      <path class="cls-36" d="M60,46c-2.42,3.23.66,6.24-1,9.99h6s1.01-4.99,1.01-4.99c6.26,1.5,2.41,9.01-1.01,12-2.46,1.01-3.54,2.85-4,3-4.55,1.45-16.5-1.06-22,0-2.08-.86-2.95-2.6-6-3-.41-4.05-5.5-13.07,1-12,.09,1.98-.77,5.99,2.43,5.98,6.43-.02,1.29-2.99,1.56-4.46.13-.73,1.76-1.15,2.01-1.52,4.53-6.94-2.75-5.17-5-6-1.52-.56-5.45-4.02-8.08-4.42-3.86-3.04-3.6-14.35-2.69-18.85.85-4.17,4.79-5.93,5.77-9.73,2.86-1.21,2.55-1.24,6-2,11.81-2.6,18.24-3.3,28.7,3.8,6.62,4.49,8.15,13.72,6.86,21.26-.28,1.62-2.61,8.9-3.51,9.52-2.27,1.56-5.32-2.21-8.04,1.42Z"/>
      <path class="cls-24" d="M60,46h5.01s0,10,0,10h-6c1.66-3.76-1.42-6.77,1-10Z"/>
      <path class="cls-20" d="M70,63c-1.43,2.73-5.05,3.62-8,4-.33.04-.67-.03-1,0v-1c.46-.15,1.54-1.99,4-3,2.32-.96,1.14.38,4-2,.38.6.58,1.47,1,2Z"/>
      <path class="cls-49" d="M74,63c.72.96,1.32,2.02,2,3-3.8-.28-3.38.33-6-3-.42-.53-.62-1.4-1-2,.88-.73,2.92-1.84,3-2-.72,2.66,1.25,2.99,2,4Z"/>
      <path class="cls-62" d="M81,41c-3.02.56-1.94-1.53-2-3.46-.15-4.51.11-9.05,0-13.54,1.47,2.9,1.42,12.39,2,17Z"/>
      <path class="cls-74" d="M47,119c-5.17,2.76-.99,6.98-6,11-.76.61-1.71.88-2,2-.84-.51-6.36-2.42-6.96-1.97-.25.19-.33,2.37-1,3.24s-1.53,1.16-2.04,1.73c-2.84,3.22-1.68,5.52-2.06,5.94-.25.27-4.81.32-5.94,1.06,1.08-9.57,4.86-6.66,6.34-10.23,1.19-2.89.55-6.67.66-9.77.02-.66,0-1.33,0-2,2.88,1.94,5.92-1.44,9-3v6.01s-6.01,0-6.01,0l.02,3c2.16-2.17,5.94.06,6.84-.21.26-.07,2.59-3.55,3.18-4.26,2.15-2.6,4.17-1.4,2.98-7.53,3.79.69,2.77,1.81,3,5Z"/>
      <path class="cls-11" d="M11,77c-.9,7.89,1.5,13.46,6,4l1,2c-.34.27-.55,1.53-1,2-.94.99-3.09,2.32-3,2.5.78,1.48,3.3,1.95,5,6.5.36.97,1.42,1.52,1.01,3-1.84-.07-3.85-.17-5,1.52-.71,1.73,1.43,1.59,1.99,2.48-2.16-.08-5.16-.59-6,2-1.04-.63-3.83-4.28-4-5-.29-1.27-.31-10.13-.02-11.3.34-1.35,4.49-1.39,2.54-3.75-.72-.87-3.81-.66-2.52-3.95.05-.13,1.88-1.93,2-2,.35-.2,1.42.17,2,0Z"/>
      <path class="cls-79" d="M39,132c.49.29,1.32,2.31,2,3,3.33,3.53,1.66,8.61,2,13-6.63.28-16.47,1.22-22-2,.07-.65-.04-1.34,0-2,2.65.7,6.69,1.69,9.3,1.02,1.13-.29,1.43-3,2.2-3s1.07,2.72,2.2,3.01c12.19,3.14,4.27-13.42-5.7-10.02.5-.57,1.39-.89,2.04-1.73s.75-3.06,1-3.24c.6-.45,6.12,1.46,6.96,1.97Z"/>
      <path class="cls-5" d="M29,135c9.97-3.4,17.89,13.16,5.7,10.02-1.13-.29-1.43-3.01-2.2-3.01s-1.07,2.71-2.2,3c-2.61.67-6.65-.32-9.3-1.02.04-.66-.07-1.35,0-2,1.13-.74,5.69-.79,5.94-1.06.38-.42-.78-2.72,2.06-5.94Z"/>
      <path class="cls-56" d="M24,84c.86,1.74,3.78,6.48,3.99,7.51.76,3.87.21,11.6-.99,15.49h-1c.12-1.71-.62-3.37-1-5,.15-.38,1.27-.96,1.57-1.92,1.68-5.53-3.05-11.86-4.57-17.08.69.25,1.32.73,2,1Z"/>
      <path class="cls-47" d="M27,107c.37.22.75.93,1,1-.01,3.99.02,8.01,0,12,0,.67.02,1.34,0,2-.37-.97-2.87-2.48-3-3-.95-3.91.79-8.85,1-12h1Z"/>
      <path class="cls-80" d="M21,94c.29,5.33,1.7,9.39-4,10,.88-1.12.71-1.86,0-3-.56-.9-2.7-.75-1.99-2.48,1.15-1.69,3.16-1.59,5-1.52.41-1.47-.64-2.03-1.01-3h2Z"/>
      <path class="cls-63" d="M7,79c-1.29,3.3,1.8,3.09,2.52,3.95,1.95,2.36-2.21,2.4-2.54,3.75-.29,1.17-.27,10.03.02,11.3h-1c-.37-6.54.83-13,1-19Z"/>
      <path class="cls-60" d="M17,85c3.22,4.58,3.7,3.44,4,9h-2c-1.7-4.55-4.21-5.03-5-6.5-.09-.17,2.06-1.51,3-2.5Z"/>
      <path class="cls-39" d="M20,76c.48,1.36.75,3.37,1.23,4.28.74,1.42,1.58,1.32,2.77,3.72-.68-.27-1.31-.75-2-1-1.57-.57-2.29-1.38-4,0l-1-2c.72-1.5.69-3.39,1-4,.67-1.33.95-.8,2-1Z"/>
      <path class="cls-75" d="M26,107c-.21,3.15-1.95,8.09-1,12-1.66-4.59-1.71-12.66,0-17,.38,1.63,1.12,3.29,1,5Z"/>
      <path class="cls-27" d="M17,101c.71,1.14.88,1.88,0,3-2.54.27-3.88.29-6-1,.84-2.59,3.84-2.08,6-2Z"/>
      <path class="cls-81" d="M30,12c-.98,3.8-4.93,5.56-5.77,9.73-.91,4.5-1.17,15.81,2.69,18.85,2.63.4,6.56,3.86,8.08,4.42-.87,1.23-.89,2.57-1,4-.05.65-.03,1.35,0,2-6.5-1.07-1.41,7.95-1,12-.96-.13-2.02.08-3,0-.6-.78-.69-1.71-2-2,.15-2.47-.02-4.38-2-6-1.04-.85-1.31-.65-2-1,1.56-3.95-.36-10.94-5-12,3.16-8.15,2.2-15.67,2-24,.27-.14.76.15,1,0,2.02-1.24,2.64-3.31,5-5,.92-.66,2.12-.63,3-1Z"/>
      <path class="cls-66" d="M27,11v2c-2.36,1.69-2.98,3.76-5,5-.04-1.46.26-2.74,1-4,.11-.18,1.26-.57,2-2,.12-.24-.08-.67,0-1h2Z"/>
      <path class="cls-55" d="M22,76c4.39,5.38,7.48,3.52,8,4,.29.27-.35,5.51.19,7.3.19.64,4.1,6.11,5.8,5.7-2.85,1.89-2.14,10.56-2,14,.03.66-.03,1.33,0,1.99,8.28.37,3.12-5.17,5.99-9.99-.11.14.05.64,0,1-.09.7-.39,2.12.6,2.02,3.4.94,12.23-1.28,7.42-4.54-2.95-2-7.34,2.35-6.02-4.48,1.65.13,3.34-.07,5,0,.16,0,1.01.96,2,1,1.85.08,7.2.05,9,0-1.03.11-1.69,1.84-2,2-1.58.8-5.57,1.07-5.99,2.51-.91,4.59,3.74,2.23,4.99,4.48-3.57.63-11.69-1.29-13.99,1.01-1.38,1.38-1.12,2.22-1,4,4.83-.7,12.01.94,16.46.07,1.2-.24-.11-2.9,1.1-3.14,1.75-.34,8.98.55,9.46.07-.7-2.68,2.28-9.23-3.01-8.01-.63-.92-1.78-1.64-2-3,4.42-2.16,6.98.83,9-5,.32-.16.62-.76,1-1,.11,1.65-.14,3.36,0,5-6.62,1.82-1.01,4.24-.2,6.72.55,1.7.1,3.55.2,5.28.26,4.72-.95,13.63-.05,17.38.29,1.2,1.43.45,2.05.62.26.07.62.79,1,1v5c-3.38-2.49-6.69-3.68-11.02-2.54-6,1.58-5.3,3.93-5.98,8.54-3.08.99-2.25-5.26-2.08-6.54.32-2.46,3.43-1.17,3.08-5.46-.21-2.59-2.47-3.15-2.98-5.54-1.04-4.8,1.48-3.07,1.98-3.46-.74,1.96,2.5,5.07,4,6,4.57,2.83,9.36-4.46,8.01-9.4.13-.98-1.34-.68-2.01-.6-4.27.47-2.6,3.01-3,6-3.75.33.11-4.44-6-3,.13-.14-.16-1.05.33-1.67.39-.49,1.45-.43,1.92-1.61,2.09-5.27-3.19-.04-4.77.26-4.4.84-10.34-1.41-14.48,1.02-1.41.42-1.04,1.65-1,3-.17.05-1.65,1.3-3,2,1.47-7-4.08-7.05-5.49-1-2.52-1.23-.93-6.2-1.57-6.96-.31-.37-2.21.15-2.94-.03-.25-.07-.63-.78-1-1,1.19-3.89,1.74-11.62.99-15.49-.2-1.03-3.12-5.78-3.99-7.51-1.19-2.4-2.03-2.29-2.77-3.72-.47-.91-.75-2.92-1.23-4.28.6-.12,1.36.08,2,0Z"/>
      <path class="cls-45" d="M58,135c.67-4.6-.03-6.96,5.98-8.54,4.33-1.14,7.64.04,11.02,2.54.48.36.93,1.79,2,2-.07,1.82,1.69,4.7,1,7-6.62-.79-13.57.72-20-2,.03-.33-.05-.68,0-1Z"/>
      <path class="cls-17" d="M44,114c1.19,6.13-.83,4.93-2.98,7.53-.59.72-2.92,4.19-3.18,4.26-.9.26-4.67-1.97-6.84.21l-.02-3h6.01s0-6,0-6c.34-.17.63-.81,1-1,1.35-.7,2.83-1.95,3-2,.45-.14,2.41-.11,3,0Z"/>
      <path class="cls-58" d="M42,111c4.14-2.43,10.08-.18,14.48-1.02,1.57-.3,6.85-5.53,4.77-.26-.47,1.19-1.53,1.12-1.92,1.61-.48.62-.2,1.53-.33,1.67-.38.43-.51.62-1,1s-3.02-1.34-1.98,3.46c.52,2.39,2.77,2.94,2.98,5.54h-1c-.68-1.85-3.28-2.95-3.8-4.7-1.15-3.84,1.8-7.11-2.2-7.3-2.18-.1-8.5-.45-10,0Z"/>
      <path class="cls-21" d="M52,111c4,.19,1.05,3.46,2.2,7.3.52,1.75,3.12,2.85,3.8,4.7-5.56-1.19-6.58-6.95-6-12Z"/>
      <path class="cls-43" d="M24,54c-.36-.18-1.5.3-2.26,0-3.28-1.25-4.56-6.76-3.74-10.01.31-.88.79-1.46,1-2,4.64,1.06,6.56,8.05,5,12Z"/>
      <path class="cls-10" d="M15,62v1c-.21,2.14-.29,4.42-2,6-.67.62-3.16-1.06-2,5,.45.46,6.78-.43,8.41-.05,1.23.29.38,1.44.6,2.05-1.05.2-1.33-.33-2,1-2.93-2.06-4.57-.7-7,0-.58.17-1.65-.2-2,0-.01-1.46-.57-2.57-2-3-.01-.76.04-2.86,0-3,2.7-1.39,2.58-5.98,5-8,.78-.65,2.06-.71,3-1Z"/>
      <path class="cls-36" d="M9,77c-.12.07-1.95,1.87-2,2,.05-1.66.03-3.34,0-5,1.43.43,1.99,1.54,2,3Z"/>
      <path class="cls-33" d="M28,61c1.31.29,1.4,1.22,2,2,.23.31-.13,1.61.98,2.48,5.74,4.49,20.29,3.77,27.56,3.52,1.92-.06,4.01,1.02,3.45-2,2.95-.38,6.57-1.27,8-4,2.62,3.33,2.2,2.72,6,3,.99.07,2.01-.09,3,0,4.36,2.36,6.99,2.07,9.64,6.9.99,1.79,2.06,1.77-.64,3.1h-1c-2.87-1.01-1.02-4.36-3.68-5.82-1.22-.67-5.11-1.16-6.69-1.11-4.86.15-6.09,6.42-9.13-.07-1.98,1.27-4.74,5.71-6.52,6.49-1.94.84-4.15.35-6.27.77-.99.2-2.21,1.73-2.72,1.74-.25,0-2.51-1.8-4-1.01-.11,1.89.7,3.98-1,5.01.97-8.2-2.79-4.92-7.29-6.21-.39-.11-5.19-3.29-5.71-3.79-1.58-1.51-3.72-5.97-7-8s-8.02-.57-12-1v-1c3.29-1.01,9.6-1.76,13-1Z"/>
      <path class="cls-38" d="M52,78c.51-.02,1.73-1.55,2.72-1.74,2.13-.42,4.33.08,6.27-.77,1.77-.77,4.54-5.21,6.52-6.49,3.04,6.49,4.27.22,9.13.07,1.58-.05,5.46.44,6.69,1.11,2.66,1.46.81,4.8,3.68,5.82.1,3.91-4.34,3.82-1,9,.32.5,1.75.67,1.99,1.73,1.68,7.44-2.93,5.27-8.99,5.27h-3c-.92-1.79-1.01-3.03-1-5,.04-5.87,1.36-5.16,7-5.01.18-1.35.22-1.62-1-1.99-1.72-2.09-5.15-.42-7.39-1.14-1.62-.51-.96-3.92-4.1-2.85-3.61,1.22,2.22,3.88,2.49,4.99.35,1.47-.09,4.2,0,6,.02.33-.02.67,0,1-.38.24-.68.84-1,1-2.26,1.12-3.28,2.94-4.46,3.09-3.08.37-9.9.25-13.13-.02-2.01-.16-2.45-.14-3.41-2.07.81-3.76,2.85-4.9,2.99-5.52.61-2.62-6.06-1.46-.99-6.48Z"/>
      <path class="cls-32" d="M90,93c6.5,1.81,1.71,3.65,1,5-3.07,5.83,1.56,15.92-4,22-3.93-.38-8.37.94-12-1,0-.33,0-.67,0-1,1.59-1.27,4.69-.57,6.03-1.47,1.8-1.21,1.11-5.14-.55-5.52-2.51-.59-1.6,5.22-5.49,1.99.51-7.57.72-5.57,4-11,.12-.2,1.11-.43,1.75-1.72s.11-4.13,1.25-5.28c1.69-1.71,6.36,0,8-2Z"/>
      <path class="cls-18" d="M86,85c5.82-1.27,1.05,5.07,4,8-1.64,2-6.31.29-8,2,.35-2.03-1.67-2.04-3-3,6.05,0,10.66,2.16,8.99-5.27-.24-1.06-1.66-1.23-1.99-1.73Z"/>
      <path class="cls-77" d="M93,80l-.49,6.99c-2.2-3-7.6-6.49-1.51-7.99.75.23,1.47.34,2,1Z"/>
      <path class="cls-54" d="M76,93c.06.1,1.76-.48,2.04.64.6,2.4-1.27,6.58.96,8.36-3.28,5.43-3.49,3.43-4,11-.11,1.65.02,3.35,0,5,0,.33,0,.67,0,1,0,1.67,0,3.33,0,5-.38-.21-.74-.93-1-1-1.74-5.48-1.06-12.19-1-18s-.51-5.46-1-10l4-2Z"/>
      <path class="cls-12" d="M44,148c-.32.05-.67-.01-1,0-.34-4.39,1.33-9.47-2-13,.19.19,2.23-.33,2.85,1.64.93,2.94-.33,8.06.15,11.36Z"/>
      <path class="cls-7" d="M33,63c3.05.4,3.92,2.14,6,3,3.98,1.64,17.06,1.45,22,1,.33-.03.67.04,1,0,.56,3.02-1.53,1.94-3.45,2-7.28.24-21.82.96-27.56-3.52-1.11-.87-.75-2.17-.98-2.48.98.08,2.04-.13,3,0Z"/>
      <path class="cls-41" d="M34,49c3.34-1.44,7.02-2.46,6,2-.24.37-1.87.8-2.01,1.52-.27,1.47,4.87,4.44-1.56,4.46-3.2,0-2.35-4-2.43-5.98-.03-.65-.05-1.35,0-2Z"/>
      <path class="cls-13" d="M40,51c1.02-4.46-2.66-3.44-6-2,.11-1.43.13-2.77,1-4,2.25.83,9.53-.94,5,6Z"/>
      <path class="cls-29" d="M61,66v1c-4.94.45-18.02.64-22-1,5.5-1.06,17.45,1.45,22,0Z"/>
      <path class="cls-26" d="M28,108c.73.19,2.63-.34,2.94.03.63.76-.95,5.73,1.57,6.96,1.42-6.04,6.96-5.99,5.49,1-.37.19-.66.83-1,1-3.08,1.56-6.12,4.94-9,3,.02-3.99-.01-8.01,0-12Z"/>
      <path class="cls-44" d="M18,77c-.31.61-.28,2.5-1,4-4.5,9.46-6.9,3.89-6-4,2.43-.7,4.07-2.06,7,0Z"/>
      <path class="cls-38" d="M27,64c.98,1.57-2.85,5.16-2,5.99.13.13,1.77-.27,2.63.33,1.96,1.37,2.04,3.78,6.37,1.68.52.5,5.33,3.68,5.71,3.79,4.49,1.29,8.26-1.99,7.29,6.21-6.43,3.89-.53,2.47.02,4.71.43,1.76-.3,4.35-.02,6.29-1.66-.07-3.35.13-5,0-1.31-.1-3.18-1.87-6,0-1.71.41-5.61-5.06-5.8-5.7-.54-1.79.09-7.04-.19-7.3-.52-.48-3.61,1.38-8-4-.63-.77-.52-2.77-1.67-3.04-2.14-.49-5.45.4-7.82.04l.49-4.01c1.71-1.58,1.79-3.86,2-6,3.98.43,8.59-1.11,12,1Z"/>
      <path class="cls-47" d="M56,96c.16,1.65,3,1.71,3.01,2.51.03,1.93-5.13,3.31-3.02,5.49.57.58,14.51,2.48,8-7,5.28-1.22,2.31,5.33,3.01,8.01-.47.47-7.7-.42-9.46-.07-1.2.24.11,2.9-1.1,3.14-4.45.87-11.63-.77-16.46-.07-.12-1.78-.38-2.62,1-4v3c19.51,1.29,19.53-4.28,0-3,2.31-2.3,10.42-.38,13.99-1.01-1.25-2.25-5.9.11-4.99-4.48.42-1.43,4.42-1.7,5.99-2.51Z"/>
      <path class="cls-23" d="M62,94c.22,1.36,1.37,2.08,2,3,6.5,9.48-7.44,7.58-8,7-2.11-2.18,3.05-3.55,3.02-5.49-.01-.8-2.85-.86-3.01-2.51.31-.16.97-1.89,2-2,1.33-.03,2.67.02,4,0Z"/>
      <path class="cls-4" d="M52,78c-5.06,5.02,1.61,3.86.99,6.48-.15.62-2.18,1.76-2.99,5.52-.28,1.3,0,2.78-1,4-.99-.04-1.84-.99-2-1-.27-1.94.46-4.53.02-6.29-.55-2.24-6.45-.82-.02-4.71,1.7-1.03.89-3.12,1-5.01,1.49-.79,3.75,1.02,4,1.01Z"/>
      <path class="cls-2" d="M42,93c-.72,1.54-3.49,4.67-3.8,5.7-.73,2.48,1.12,10.56-4.2,8.3-.14-3.44-.85-12.11,2-14s4.69-.1,6,0Z"/>
      <path class="cls-47" d="M42,93c-1.31,6.83,3.07,2.48,6.02,4.48,4.81,3.26-4.02,5.48-7.42,4.54-.99.1-.69-1.31-.6-2.02,1.8,1.4,7.07,1.9,7.01-1.49-.02-1.1-6.18-.62-7.01.49-2.88,4.82,2.29,10.36-5.99,9.99-.04-.66.02-1.33,0-1.99,5.33,2.26,3.47-5.82,4.2-8.3.3-1.03,3.08-4.16,3.8-5.7Z"/>
      <path class="cls-73" d="M59,113c6.11-1.44,2.25,3.33,6,3-.04.33.03.67,0,1-.23,2.71.87,3.46-3,3-1.5-.93-4.74-4.04-4-6,.49-.38.62-.57,1-1Z"/>
      <path class="cls-72" d="M71,89c-2.02,5.83-4.58,2.84-9,5-1.33.02-2.67-.03-4,0-1.8.05-7.15.08-9,0,1-1.22.72-2.7,1-4,.95,1.93,1.4,1.9,3.41,2.07,3.23.26,10.05.39,13.13.02,1.19-.14,2.2-1.97,4.46-3.09Z"/>
      <path class="cls-67" d="M72,95c.49,4.54,1.05,4.44,1,10h-1c-.1-1.73.35-3.58-.2-5.28-.81-2.49-6.42-4.91.2-6.72.06.66-.07,1.35,0,2Z"/>
      <path class="cls-82" d="M75,87c-.01,1.97.08,3.21,1,5,.14.27-.15.77,0,1l-4,2c-.07-.65.06-1.34,0-2-.14-1.64.11-3.35,0-5-.02-.33.02-.67,0-1h3Z"/>
      <path class="cls-6" d="M68,110c1.26,3.18,1.53,7.84-3,7,.03-.33-.04-.67,0-1,.4-2.99-1.27-5.53,3-6Z"/>
      <path class="cls-47" d="M68,110c.68-.07,2.14-.38,2.01.6,1.34,4.94-3.45,12.22-8.01,9.4,3.87.46,2.77-.29,3-3,4.53.84,4.26-3.82,3-7Z"/>
      <path class="cls-53" d="M74,123c-.62-.18-1.76.57-2.05-.62-.9-3.75.31-12.66.05-17.38h1c-.06,5.81-.74,12.52,1,18Z"/>
      <path class="cls-70" d="M40,99c.83-1.11,6.99-1.59,7.01-.49.06,3.39-5.21,2.89-7.01,1.49.05-.36-.11-.86,0-1Z"/>
      <path class="cls-78" d="M13,69l-.49,4.01c2.37.36,5.68-.54,7.82-.04,1.15.27,1.04,2.27,1.67,3.04-.64.08-1.4-.12-2,0-.21-.61.63-1.76-.6-2.05-1.62-.38-7.96.52-8.41.05-1.15-6.06,1.33-4.38,2-5Z"/>
      <path class="cls-57" d="M27,64c3.28,2.03,5.42,6.49,7,8-4.34,2.1-4.41-.31-6.37-1.68-.86-.6-2.5-.2-2.63-.33-.85-.83,2.98-4.42,2-5.99Z"/>
      <path class="cls-52" d="M81,80c1.21.37,1.17.64,1,1.99-5.63-.15-6.96-.87-7,5.01h-3c-.09-1.8.35-4.53,0-6,1.56-1.34,7.3-1.52,9-1Z"/>
      <path class="cls-14" d="M79,92c1.33.96,3.35.97,3,3-1.14,1.15-.61,4-1.25,5.28s-1.63,1.52-1.75,1.72c-2.23-1.79-.37-5.96-.96-8.36-.28-1.11-1.98-.54-2.04-.64-.15-.23.14-.73,0-1h3Z"/>
      <path class="cls-15" d="M72,81c-.27-1.11-6.1-3.77-2.49-4.99,3.14-1.06,2.48,2.34,4.1,2.85,2.24.71,5.67-.95,7.39,1.14-1.7-.52-7.44-.34-9,1Z"/>
      <path class="cls-48" d="M75,118c.02-1.65-.11-3.35,0-5,3.89,3.22,2.97-2.58,5.49-1.99,1.65.39,2.35,4.31.55,5.52-1.34.9-4.44.2-6.03,1.47Z"/>
      <path class="cls-44" d="M41,104c19.53-1.28,19.51,4.29,0,3v-3Z"/>
    </g>
  </g>
</svg>