<?xml version="1.0" encoding="UTF-8"?>
<svg id="_Слой_2" data-name="Слой 2" xmlns="http://www.w3.org/2000/svg" viewBox="0 0 81 148">
  <defs>
    <style>
      .cls-1 {
        fill: #633323;
      }

      .cls-2 {
        fill: #664237;
      }

      .cls-3 {
        fill: #8f5038;
      }

      .cls-4 {
        fill: #4c2519;
      }

      .cls-5 {
        fill: #f9ceb0;
      }

      .cls-6 {
        fill: #fcd3b5;
      }

      .cls-7 {
        fill: #573024;
      }

      .cls-8 {
        fill: #c08a71;
      }

      .cls-9 {
        fill: #432d27;
      }

      .cls-10 {
        fill: #3c251e;
      }

      .cls-11 {
        fill: #e1dcda;
      }

      .cls-12 {
        fill: #3a241e;
      }

      .cls-13 {
        fill: #f4d4be;
      }

      .cls-14 {
        fill: #f0d1bb;
      }

      .cls-15 {
        fill: #5e362a;
      }

      .cls-16 {
        fill: #daa185;
      }

      .cls-17 {
        fill: #f5c9ab;
      }

      .cls-18 {
        fill: #2e1711;
      }

      .cls-19 {
        fill: #d89878;
      }

      .cls-20 {
        fill: #884932;
      }

      .cls-21 {
        fill: #5b392f;
      }

      .cls-22 {
        fill: #f2d3bd;
      }

      .cls-23 {
        fill: #d89a7c;
      }

      .cls-24 {
        fill: #432b24;
      }

      .cls-25 {
        fill: #fdd4b6;
      }

      .cls-26 {
        fill: #a26248;
      }

      .cls-27 {
        fill: #522618;
      }

      .cls-28 {
        fill: #47352a;
      }

      .cls-29 {
        fill: #f6ceb1;
      }

      .cls-30 {
        fill: #fde4ce;
      }

      .cls-31 {
        fill: #4d2519;
      }

      .cls-32 {
        fill: #4d261b;
      }

      .cls-33 {
        fill: #915138;
      }

      .cls-34 {
        fill: #d6967a;
      }

      .cls-35 {
        fill: #492217;
      }

      .cls-36 {
        fill: #d39073;
      }

      .cls-37 {
        fill: #4c271c;
      }

      .cls-38 {
        fill: #93563e;
      }

      .cls-39 {
        fill: #8d4e36;
      }

      .cls-40 {
        fill: #e7a886;
      }

      .cls-41 {
        fill: #552f24;
      }

      .cls-42 {
        fill: #d38f73;
      }

      .cls-43 {
        fill: #e8ab89;
      }

      .cls-44 {
        fill: #e19e7b;
      }

      .cls-45 {
        fill: #3f170c;
      }

      .cls-46 {
        fill: #593227;
      }

      .cls-47 {
        fill: #573125;
      }

      .cls-48 {
        fill: #5a3227;
      }

      .cls-49 {
        fill: #572a1b;
      }

      .cls-50 {
        fill: #472015;
      }

      .cls-51 {
        fill: #905038;
      }

      .cls-52 {
        fill: #4b2318;
      }

      .cls-53 {
        fill: #4a2418;
      }

      .cls-54 {
        fill: #f9ddc6;
      }

      .cls-55 {
        fill: #cb9276;
      }

      .cls-56 {
        fill: #fce2cc;
      }

      .cls-57 {
        fill: #d89a7d;
      }

      .cls-58 {
        fill: #5b3225;
      }

      .cls-59 {
        fill: #d29074;
      }

      .cls-60 {
        fill: #d28f72;
      }

      .cls-61 {
        fill: #754d44;
      }

      .cls-62 {
        fill: #935740;
      }

      .cls-63 {
        fill: #9e9491;
      }

      .cls-64 {
        fill: #432b23;
      }
    </style>
  </defs>
  <g id="_Слой_39_Изображение" data-name="Слой 39 Изображение">
    <g>
      <path class="cls-60" d="M60,112c-1.36-.13-3.4.93-3,2.49,2.05.46,3.63,4.02,4.2,4.42.72.51,1.69-.94,1.8-.91.95.24,2.02,1.54,3,2,.02.25,1.09,4.6,1.21,4.82.36.64,2.32.68,2.79,1.18,1.9,2.01,3.33,4.68,6,6,.28,1.83-.19,4.09,0,6-.42.51-.58,1.53-1,2-1.16.48-3,.49-4,1-.6-1.86-.77-9.98-2.5-9.98-1.75,1.1-3.92,3.62-5.58,4.44s-3.36.29-3.92.54c.49-2.56-.1-3.8-1-6-1.46-3.54-.95-1.02-3.97-2.53-1.32-.66-1.42-1.91-2.03-2.47,12.47-.02,2.61-10.34-2-10v-1c.59-.54.88-1.22,1-2,1.41-.11,2.84.27,4.26-.2s2.92-2.78,3.24-2.78c1.06,0,1.31,2.77,1.5,2.98Z"/>
      <path class="cls-23" d="M69,47c-.06.33.08.69,0,1-3.98.24-6.34,1.2-9,4-1.3.06-3.94,1.8-6,1.01l2,4.99c-3.39.31-3.14,3.22-4,4-4.32,3.88-16.13,4.02-21,2,3.4-.6,11.44,1.08,14-.5.78-.48,1.52-2.47,2.5-3.5.8-.84,3.29-1.66,3.5-2.51.66-2.68-4.35-2.78-6-2.5,1.7-6.83,8.56-20.97,17.39-17.84,2.34.83,1.29,6.86,7.61-1.15-.03,4.3-.24,6.78-1,11ZM51.2,49.82c.15.26,3.76,2.14,4.38,2.2,5.96.6,7.3-14.13,2.41-11.54-1.92,1.02-8.3,6.67-6.78,9.34Z"/>
      <path class="cls-53" d="M56,3c.56,3.02-1.53,1.94-3.45,2-6.32.21-13.63-1-19.55,1-.76.18-12.83,7.33-13.49,8.01-.27.28-3.16,6.09-3.51,6.99-2.11,5.43-.74,14.23-1,20.51-.05,1.22.76,3.72-.99,3.48v-26.99c3.97-10.33,12.96-14.9,23.51-15.98,4.69-.48,14.19-.66,18.48.98Z"/>
      <path class="cls-12" d="M65,58c2.8.25,7.86,3.59,9.58,5.92,1.82,2.47.97,4.49,1.94,6.06.57.93,2.43,1.16,2.98,2.02.76,1.18.92,17.5.33,19.35-.16.51-7.16,6.72-7.89,7.12-1.51.84-3.16.23-3.93.52h-2c.16-.27-.41-1.29.19-1.8,2.86-.1,3.88-2.55,5.81-4.2,1.23-1.05,2.66-.71,4-3s1.74-13.06.47-15.01c-.41-.62-1.94-.71-2.23-1.21-.6-1.02,0-2.53-1.24-4.78-.59-1.07-4.63-4.85-6-5-.13-.57.2-1.74,0-2-.15-.2-3.76-2.92-4-3,.58-.18,1.6-1.04,2-1Z"/>
      <path class="cls-50" d="M2,129c.69,3.18,2.3,2.5,3,3,3.7,2.63,8.53,6.5,12.69,7.79,3.29,1.02,5.5.06,8.31-.79.52-.16,1.37.11,2,0-3.53,9.74-20.55,3.6-24.82-2.64-2.46-3.59-2.67-3.34-1.18-7.36Z"/>
      <path class="cls-32" d="M67,11c.45.48,2.37.5,2.76,1.21.52.93.04,2.53.78,3.76.44.72,1.94.81,2.22,1.25.73,1.16.71,24.82.24,27.29s-1.78,2.65-4,2.5c.76-4.22.97-6.7,1-11,.03-3.48.46-8.19-.06-11.44s-3.87-7.75-3.94-11.56c0-.15,1.13-1.28,1-2Z"/>
      <path class="cls-7" d="M20,66c.3-.08.67.06,1,0-.83,1.94-.72,3.99-1,6-.09.63.04,1.35,0,2s-1.05,1.95-1.05,3.49c0,1.44.74,8.3,1.05,9.51.12.46,3.4,3.22,4,4-2.37-.04-3.47-.67-3,2-2.63-1.67-4.45-.85-5.05-5.45-.42-3.19-.49-15.92.1-18.82.22-1.12,2.9-2.45,3.95-2.73Z"/>
      <path class="cls-52" d="M65,101c-.92,4-.56,7.31-1,11-.03.26-.96.71-1,1-.89-.17-2.42-.37-3-1-.19-.21-.44-2.99-1.5-2.98-.32,0-1.77,2.29-3.24,2.78s-2.85.09-4.26.2c.19-1.23-.13-2.71,0-4,2.08-1.31,2.97-1.74,5-4l9-3Z"/>
      <path class="cls-31" d="M50,114v1c-.5.04-1.36.81-2,1-5.94,1.77-5.53,2.81-1,7l-1,2c-1.21-1.21-5.62-6.02-6.49-6.01-.47,0-2.84,6.79-6.51,6.01.2-.38-.33-1.62.02-2.28.83-1.53,4.22-2.6,2.98-6.72.41-.52.57-1.52,1-2,.06-.06.94.08,1.63-.41.4-.29.36-1.58.96-1.6,1.72-.07,8.35,1.29,10.42,2.01Z"/>
      <path class="cls-4" d="M67,11c.13.72-1,1.85-1,2-4.24,1.19-8.26-6.61-9.73-7s-21.69-.38-23.27,0c5.92-2,13.22-.79,19.55-1,1.93-.06,4.01,1.02,3.45-2,4.16,1.59,7.98,4.81,11,8Z"/>
      <path class="cls-20" d="M36,116c1.24,4.12-2.15,5.2-2.98,6.72-.35.65.18,1.9-.02,2.28-.96,1.82-2.76,2.6-3,3h-4.01c0,2.65,0,5.34,0,8-2.94-.97-3.91-10.13-3.01-11.01.32-.3,4.01.44,5.76-.27s5.91-7.04,7.25-8.72Z"/>
      <path class="cls-55" d="M70,93c.67,0,1.33,0,2,0-1.94,1.65-2.95,4.1-5.81,4.2-.6.51-.03,1.53-.19,1.8-.04.06-.67-.09-1,1-.09.29.08.67,0,1l-9,3c4-4.46,2.69-4.71,8.9-8.64,2.03-1.29-.29-2.44,5.1-2.36Z"/>
      <path class="cls-37" d="M14,18v26.99c1.76.23.95-2.27,1-3.48.26-6.28-1.11-15.08,1-20.51-.55,7.74.75,16.39,0,24-.05.53-.81,1.37-1,2-.05-.16-1.25-.41-1.48-1.02-1.33-3.46-.89-24.42.48-27.98Z"/>
      <path class="cls-10" d="M75,140c-1.43,1.58-4.33,4.97-6,6h-18c-.36-.22-.75-.65-1-1,.48-.11.93-.53,1-1,3.8-.24,7.81.34,11.58.04,1.33-.11,2.11-.99,2.42-1.04,1.25-.2,2.85.33,4.22-.04,1.09-.3,1.39-1.76,1.78-1.96,1-.51,2.84-.52,4-1Z"/>
      <path class="cls-18" d="M58,130c.9,2.2,1.49,3.44,1,6-.62.28-1.2.67-2,1-.56-2.22-4.81.22-6-2,.66-.68,3.43-2.39,3-2.99-2.39.13-2.91-1.93-4-3.01l8,1Z"/>
      <path class="cls-41" d="M21,59l-1,2c-.98-1.12-3.21-1.64-3.8-3.7-.82-2.87-.08-6.5-1.2-10.3.19-.63.95-1.47,1-2,5.21,1.96,1.86,11.12,5,14Z"/>
      <path class="cls-47" d="M14,126c-.42.47-.61,1.42-1,2-3.05.72-5.78,1.4-9,1.01l1,2.99c-.7-.5-2.31.18-3-3,2.48-6.7,5.65-2.45,11-5,.06.85.03,1.73,1,2Z"/>
      <path class="cls-27" d="M24,91c.26.33,1.36.33,1.81,1.69.37,1.11.13,2.2.19,3.31.09,1.63.36,4.84-.45,6.07-.89,1.35-3,.63-3.55.93-.36-4.25,3.24-7.3-1-10-.47-2.67.63-2.04,3-2Z"/>
      <path class="cls-49" d="M64,54c.75,1.24,1.02,2.56,1,4-.4-.04-1.42.82-2,1-.29-.1-5.58-.98-6-1-.97-3.15,2.04-3.29,2.73-4.29.48-.69.18-1.62.27-1.71,2.43-.11,2.82.05,4,2Z"/>
      <path class="cls-35" d="M16,112c.44,4.62.95,10.64-2,14-.97-.27-.94-1.15-1-2-.2-2.69-.47-8.96.03-11.26.22-1.03,1.82-1.39,1.97-1.74.47.1.96.55,1,1Z"/>
      <path class="cls-9" d="M77,127c1.67,2.29,3.31,2.83,3,6.39-.38,4.44-3.49,3.99-4,4.61-.19-1.91.28-4.17,0-6-.35-2.31-.45-3.08-2-4.99h3Z"/>
      <path class="cls-48" d="M67,118c2.73.96,4.92,3.84,7,6,.62,3-1.48,1.88-4,2-.47-.5-2.43-.54-2.79-1.18-.12-.22-1.19-4.57-1.21-4.82-.03-.47,1.03-1.58,1-2Z"/>
      <path class="cls-39" d="M26,96c3.9-1.19,3.62,2.9,3.01,5.28-.16.64-6.02,6.34-8.01,4.72.03-.44-.41-1.17-1-1,.21-.11.82-1.35,2-2,.55-.3,2.67.42,3.55-.93.8-1.23.54-4.44.45-6.07Z"/>
      <path class="cls-2" d="M47,123c.57.53.7,1.69,1.77,1.98.98.27,2.19.02,3.23.02.61.56.71,1.81,2.03,2.47,3.02,1.51,2.51-1.01,3.97,2.53l-8-1c-1.33-1.33-2.67-2.67-4-4l1-2Z"/>
      <path class="cls-45" d="M30,128c-1.74,2.96-.98,8.18-2,11-.63.11-1.48-.16-2,0,0-1,0-2,0-3,0-2.66,0-5.35,0-8.01h4.01Z"/>
      <path class="cls-62" d="M69,48c-.68,2.76-1.92,5.58-5,6-1.18-1.95-1.57-2.11-4-2,2.66-2.8,5.02-3.76,9-4Z"/>
      <path class="cls-64" d="M57,137c-8.91-.88-5.13.94-6,7-.07.47-.52.89-1,1-3.63-5.13-2.41-6.44,1-10,1.19,2.22,5.44-.22,6,2Z"/>
      <path class="cls-46" d="M20,105c.59-.17,1.03.56,1,1-.08,1.21-.56,1.97-1,3-.95,2.22-1.15,3.72-4,3-.04-.45-.53-.9-1-1,.66-1.57.78-4.18,1.2-4.8.6-.88,2.88-.72,3.8-1.2Z"/>
      <path class="cls-58" d="M21,59c.13.12,2.84,1.91,3,2,5.21,4.13.86,4.28-3,5v-1c.76.09,1.05-.25,1-1-.04-.57-1.47-2.4-2-3l1-2Z"/>
      <path class="cls-21" d="M64,112c3.15-.61,2.86,3.68,3,6,.03.42-1.03,1.53-1,2-.98-.46-2.05-1.76-3-2,.16-1.61-.23-3.45,0-5,.04-.29.97-.74,1-1Z"/>
      <path class="cls-61" d="M77,127h-3c1.55,1.92,1.65,2.69,2,5-2.67-1.32-4.1-3.99-6-6,2.52-.12,4.62,1,4-2,1.05,1.09,1.79,1.35,3,3Z"/>
      <path class="cls-63" d="M69,146c-2.64,1.64-15.27,1.69-18,0h18Z"/>
      <path class="cls-24" d="M68,99c-.43.16-.93,2.95-3,1,.33-1.09.96-.94,1-1h2Z"/>
      <path class="cls-11" d="M22,64c.05.75-.24,1.09-1,1h-1l2-1Z"/>
      <path class="cls-15" d="M21,66c-.33.06-.7-.08-1,0v-1h1v1Z"/>
      <path class="cls-29" d="M71,141c-.39.2-.69,1.66-1.78,1.96-1.36.38-2.96-.16-4.22.04-5.41.59-6.98.17-10.99-3.02-.66-2.13,1.49-2.36,2.99-2.98.8-.33,1.38-.72,2-1,.56-.25,2.32.24,3.92-.54s3.84-3.34,5.58-4.44c1.73,0,1.9,8.12,2.5,9.98Z"/>
      <path class="cls-22" d="M52,125c-2.85-2.65-6.17-4.63-4-9,.64-.19,1.5-.96,2-1,4.61-.34,14.47,9.98,2,10Z"/>
      <path class="cls-1" d="M40,102c-.37,5.25-2.76,3.18,2,8,.15.16-.55,1.76.63,2.04,1.51.36,6.43.11,8.37-.04-.12.78-.41,1.46-1,2-2.06-.72-8.7-2.08-10.42-2.01-.6.03-.55,1.32-.96,1.6-.68.48-1.57.34-1.63.41-3.39-4.57-1.63-10.1,0-15,.35.03.72-.07,1,0,1.48.4,2.11,1.48,2,3Z"/>
      <path class="cls-14" d="M60,112c.58.63,2.11.83,3,1-.23,1.55.16,3.39,0,5-.11-.03-1.08,1.42-1.8.91-.57-.4-2.15-3.96-4.2-4.42-.4-1.56,1.64-2.62,3-2.49Z"/>
      <path class="cls-25" d="M33,6c1.59-.38,21.85-.38,23.27,0s5.49,8.19,9.73,7c.07,3.81,3.43,8.35,3.94,11.56s.09,7.96.06,11.44c-6.33,8.01-5.28,1.97-7.61,1.15-8.83-3.12-15.69,11.01-17.39,17.84,1.64-.28,6.66-.18,6,2.5-.21.85-2.7,1.67-3.5,2.51-.98,1.03-1.72,3.02-2.5,3.5-2.56,1.58-10.6-.1-14,.5-1.37-.57-6.32-2.62-7-3-.16-.09-2.87-1.88-3-2-3.14-2.88.21-12.04-5-14,.75-7.61-.55-16.26,0-24,.35-.9,3.24-6.71,3.51-6.99.65-.68,12.73-7.83,13.49-8.01ZM38.99,44.01c-2.92.08-5.79-.82-8.05,1.44-3.27,3.26-1.81,12.87,3.91,9.41,1.61-.97.76-8.24,1.24-8.8.52-.61,3.91,1.14,2.9-2.05Z"/>
      <path class="cls-51" d="M31,64c4.87,2.02,16.68,1.88,21-2l1,2c-.35.23-1.09,1.32-2,2-.79.59-.48,1.81-2.49,2.06-6.85.84-18.96-1.53-24.81-.08-1.1.27-1.68,3.75-3.7,4.02.28-2.01.17-4.06,1-6,3.86-.72,8.21-.87,3-5,.68.38,5.63,2.43,7,3Z"/>
      <path class="cls-5" d="M51.2,49.82c-1.52-2.67,4.86-8.32,6.78-9.34,4.9-2.59,3.56,12.14-2.41,11.54-.62-.06-4.23-1.94-4.38-2.2Z"/>
      <path class="cls-38" d="M57,58c.42.02,5.71.9,6,1,.24.08,3.85,2.8,4,3-5.48.21-9.24-1.2-14,2l-1-2c.86-.78.61-3.69,4-4,.32-.03.68-.02,1,0Z"/>
      <path class="cls-26" d="M60,52c-.09.09.21,1.03-.27,1.71-.69,1-3.7,1.13-2.73,4.29-.32-.02-.68-.03-1,0l-2-4.99c2.06.79,4.7-.94,6-1.01Z"/>
      <path class="cls-6" d="M67,62c.2.26-.13,1.43,0,2-2.06-.23-4.72,1.38-7,1.01-1.48,1.39,4.23,5.21,5,5.99l-1,7c-1.33-.02-2.67.01-4,0-.16-.21.16-.78,0-1-.31-.43-2.6-1.92-3-2-.67-1.96-5.53-.54-6.01-.99-.33-.32.24-6.53,0-8.01.91-.68,1.65-1.77,2-2,4.76-3.2,8.52-1.79,14-2Z"/>
      <path class="cls-13" d="M67,64c1.37.15,5.41,3.93,6,5,2.5,3.39-5.65,10.54-6,7.37-.39-3.58.56-2.74-2-5.37-.77-.79-6.48-4.6-5-5.99,2.28.37,4.93-1.24,7-1.01Z"/>
      <path class="cls-40" d="M73,69c1.24,2.25.65,3.76,1.24,4.78.29.5,1.82.58,2.23,1.21,1.28,1.95.86,12.74-.47,15.01l-1.01-13c-2.27-.21-3.71,2.11-5.99,2-.78-.04-2.58-.96-5-1l1-7c2.56,2.63,1.61,1.79,2,5.37.35,3.17,8.5-3.98,6-7.37Z"/>
      <path class="cls-16" d="M70,81c.45.36,1.81-.38,2.8,1.67.88,1.83.99,5.22,1.21,7.33h1.99c-1.34,2.29-2.77,1.94-4,3-.67,0-1.33,0-2,0v-12Z"/>
      <path class="cls-42" d="M23,76c.18,0,1.13-1.33,1.98-1.01,1.75,2.27.5,12.43,1.01,13.01.17.19,2.2-.12,3,0,2.49.34,3.68.39,5,3,.98,1.94.26,2.28,0,4-.12.83-1.36,2.06-1,3.47.62,2.42,3.04.45,4,.53-1.63,4.9-3.39,10.43,0,15-.43.48-.59,1.48-1,2-1.33,1.68-5.48,8-7.25,8.72s-5.44-.03-5.76.27c-.91.87.07,10.03,3.01,11.01,0,1,0,2,0,3-2.8.85-5.02,1.82-8.31.79-4.16-1.29-9-5.17-12.69-7.79l-1-2.99c3.21.39,5.95-.29,9-1.01,10.06-2.37,6.46-10.44,7-19,.44-1.03.92-1.79,1-3,1.99,1.62,7.84-4.08,8.01-4.72.61-2.38.9-6.47-3.01-5.28-.06-1.11.18-2.2-.19-3.31-.45-1.35-1.55-1.35-1.81-1.69-.6-.78-3.88-3.54-4-4,5.07-.25,2.41-7.42,3-11Z"/>
      <path class="cls-57" d="M51,66c.24,1.48-.34,7.68,0,8.01.48.46,5.34-.97,6.01.99-1.66-.33-4.12.15-6,0-5.48-.45-1.89-2.9-4.62-3.88-1.64-.59-13.58-.35-15.36.4-4.84,2.04-2.88,5.2-3.13,7.86-.27,2.84-2.76,6.89,1.11,8.62-.8-.11-2.83.2-3,0-.51-.58.74-10.75-1.01-13.01-.85-.32-1.81,1.01-1.98,1.01-.5-.02-1.04-1.69-1.71-1.95l-1.29-.05c.04-.65-.09-1.37,0-2,2.02-.27,2.61-3.75,3.7-4.02,5.85-1.44,17.96.93,24.81.08,2.01-.25,1.7-1.47,2.49-2.06Z"/>
      <path class="cls-56" d="M20,74l1.29.05c.67.27,1.21,1.93,1.71,1.95-.59,3.58,2.07,10.75-3,11-.31-1.21-1.05-8.07-1.05-9.51,0-1.54,1.01-2.83,1.05-3.49Z"/>
      <path class="cls-56" d="M70,81v12c-5.38-.08-3.06,1.07-5.1,2.36-6.21,3.93-4.9,4.18-8.9,8.64-2.03,2.26-2.92,2.69-5,4-.59.37-1.35.73-2,1-5.1.61-6.56-2.6-7-7-.03-.32-.02-.68,0-1,4.91-4.02,13.41.62,15-8,3.98-.75,8.15,1.13,7-5,.84-.2,2.05.15,3,0-.05-.65.1-1.36,0-1.99-.52-3.41-3.08-4.32,2-6,.45.2.68.75,1,1Z"/>
      <path class="cls-19" d="M51,112c-1.94.15-6.87.41-8.37.04-1.18-.29-.47-1.89-.63-2.04,3.47,2.62,4.9-.11,7-1,.65-.27,1.41-.63,2-1-.13,1.29.19,2.77,0,4Z"/>
      <path class="cls-42" d="M48,116c-2.17,4.37,1.15,6.35,4,9-1.04,0-2.25.25-3.23-.02-1.07-.29-1.2-1.45-1.77-1.98-4.53-4.19-4.94-5.23,1-7Z"/>
      <path class="cls-8" d="M57,137c-1.5.62-3.65.85-2.99,2.98,4.01,3.19,5.58,3.61,10.99,3.02-.31.05-1.09.93-2.42,1.04-3.77.3-7.78-.28-11.58-.04.87-6.06-2.91-7.88,6-7Z"/>
      <path class="cls-3" d="M20,109c-.54,8.56,3.06,16.63-7,19,.39-.58.58-1.53,1-2,2.95-3.36,2.44-9.38,2-14,2.85.72,3.05-.78,4-3Z"/>
      <path class="cls-33" d="M57,78c-.14,3.65.19,7.36,0,11-.07,1.28.21,2.86,0,4-3.28.62-2.54,2.71-3.7,3.02-5.71,1.51-10.84-3.86-11.3,4.98-.02.32-.03.68,0,1h-2c.11-1.52-.52-2.6-2-3,.53-4.46,5.1-1.41,4-6,2.01-.22,4.14.3,6.28-.21,9.29-2.2,4.18-8.33,5.88-14.14.77-2.65,2.56-.62,2.84-.66Z"/>
      <path class="cls-17" d="M42,93c1.1,4.59-3.47,1.54-4,6-.28-.07-.65.03-1,0-.96-.08-3.38,1.89-4-.53-.36-1.4.87-2.64,1-3.47,2.43-2.66,5.09-1.69,8-2Z"/>
      <path class="cls-44" d="M42,102c.44,4.4,1.9,7.61,7,7-2.1.89-3.53,3.62-7,1-4.76-4.82-2.37-2.75-2-8h2Z"/>
      <path class="cls-28" d="M38.99,44.01c1.02,3.18-2.38,1.44-2.9,2.05-.48.57.36,7.83-1.24,8.8-5.72,3.46-7.18-6.15-3.91-9.41,2.26-2.26,5.13-1.36,8.05-1.44Z"/>
      <path class="cls-36" d="M57,75c.4.08,2.69,1.57,3,2-.91.62-1.92.87-3,1-.28.03-2.07-1.99-2.84.66-1.69,5.81,3.42,11.94-5.88,14.14-2.14.5-4.26-.01-6.28.21-2.91.31-5.57-.66-8,2,.26-1.72.98-2.06,0-4,6.63-2.57,17.8-6.94,17-16,1.88.15,4.34-.33,6,0Z"/>
      <path class="cls-54" d="M60,78c.55.7.52,2.23,1.29,2.76.69.47,2.29.04,2.57.33,1.19,1.22-2.07,8.62,3.14,4.91.1.63-.05,1.35,0,1.99-.95.16-2.16-.19-3,0-2.77.65-5,2.5-7,1,.19-3.64-.14-7.35,0-11,1.08-.13,2.09-.38,3-1,.16.22-.16.79,0,1Z"/>
      <path class="cls-34" d="M64,78c2.42.04,4.22.96,5,1v1c-5.08,1.68-2.52,2.59-2,6-5.21,3.7-1.95-3.69-3.14-4.91-.28-.29-1.88.15-2.57-.33-.77-.53-.74-2.06-1.29-2.76,1.33.01,2.67-.02,4,0Z"/>
      <path class="cls-13" d="M69,79c2.28.11,3.73-2.21,5.99-2l1.01,13h-1.99c-.22-2.11-.33-5.5-1.21-7.33-.99-2.05-2.35-1.31-2.8-1.67-.32-.25-.55-.8-1-1v-1Z"/>
      <path class="cls-30" d="M29,88c-3.87-1.73-1.38-5.78-1.11-8.62.25-2.66-1.71-5.82,3.13-7.86,1.79-.75,13.72-.99,15.36-.4,2.72.98-.87,3.43,4.62,3.88.8,9.06-10.37,13.43-17,16-1.32-2.61-2.51-2.66-5-3Z"/>
      <path class="cls-59" d="M57,93c-1.59,8.62-10.09,3.98-15,8,.46-8.84,5.58-3.47,11.3-4.98,1.17-.31.43-2.4,3.7-3.02Z"/>
      <path class="cls-43" d="M64,88c1.15,6.13-3.02,4.25-7,5,.21-1.14-.07-2.72,0-4,2,1.5,4.23-.35,7-1Z"/>
    </g>
  </g>
</svg>