<?xml version="1.0" encoding="UTF-8"?>
<svg id="_Слой_2" data-name="Слой 2" xmlns="http://www.w3.org/2000/svg" viewBox="0 0 102 150">
  <defs>
    <style>
      .cls-1 {
        fill: #471f13;
      }

      .cls-2 {
        fill: #efebea;
      }

      .cls-3 {
        fill: #e8c0a4;
      }

      .cls-4 {
        fill: #8d4d36;
      }

      .cls-5 {
        fill: #8d503a;
      }

      .cls-6 {
        fill: #8f5038;
      }

      .cls-7 {
        fill: #7a483c;
      }

      .cls-8 {
        fill: #fcd3b5;
      }

      .cls-9 {
        fill: #94533a;
      }

      .cls-10 {
        fill: #3a2920;
      }

      .cls-11 {
        fill: #db9b79;
      }

      .cls-12 {
        fill: #f4dac4;
      }

      .cls-13 {
        fill: #51291d;
      }

      .cls-14 {
        fill: #fbd1b3;
      }

      .cls-15 {
        fill: #d99d80;
      }

      .cls-16 {
        fill: #fbd0b3;
      }

      .cls-17 {
        fill: #411b10;
      }

      .cls-18 {
        fill: #d99b7e;
      }

      .cls-19 {
        fill: #8f4f37;
      }

      .cls-20 {
        fill: #fadfc8;
      }

      .cls-21 {
        fill: #ede7e5;
      }

      .cls-22 {
        fill: #d59376;
      }

      .cls-23 {
        fill: #8a4a32;
      }

      .cls-24 {
        fill: #5c3a30;
      }

      .cls-25 {
        fill: #d2967a;
      }

      .cls-26 {
        fill: #fbe1ca;
      }

      .cls-27 {
        fill: #e5a07c;
      }

      .cls-28 {
        fill: #894a33;
      }

      .cls-29 {
        fill: #54291c;
      }

      .cls-30 {
        fill: #e4a07b;
      }

      .cls-31 {
        fill: #d89a7c;
      }

      .cls-32 {
        fill: #492419;
      }

      .cls-33 {
        fill: #5e3629;
      }

      .cls-34 {
        fill: #fdd4b6;
      }

      .cls-35 {
        fill: #dea689;
      }

      .cls-36 {
        fill: #4e281d;
      }

      .cls-37 {
        fill: #f3d0b7;
      }

      .cls-38 {
        fill: #fde4ce;
      }

      .cls-39 {
        fill: #451e13;
      }

      .cls-40 {
        fill: #311a13;
      }

      .cls-41 {
        fill: #f7cbad;
      }

      .cls-42 {
        fill: #d39073;
      }

      .cls-43 {
        fill: #5a3931;
      }

      .cls-44 {
        fill: #855346;
      }

      .cls-45 {
        fill: #40190e;
      }

      .cls-46 {
        fill: #563025;
      }

      .cls-47 {
        fill: #da9f82;
      }

      .cls-48 {
        fill: #8d4e37;
      }

      .cls-49 {
        fill: #451d11;
      }

      .cls-50 {
        fill: #d38f73;
      }

      .cls-51 {
        fill: #f5caac;
      }

      .cls-52 {
        fill: #563228;
      }

      .cls-53 {
        fill: #e3aa8d;
      }

      .cls-54 {
        fill: #d89c7f;
      }

      .cls-55 {
        fill: #dca083;
      }

      .cls-56 {
        fill: #f9cdb0;
      }

      .cls-57 {
        fill: #4f291d;
      }

      .cls-58 {
        fill: #452015;
      }

      .cls-59 {
        fill: #492115;
      }

      .cls-60 {
        fill: #3d160b;
      }

      .cls-61 {
        fill: #461f14;
      }

      .cls-62 {
        fill: #f8cdb0;
      }

      .cls-63 {
        fill: #dba184;
      }

      .cls-64 {
        fill: #d69478;
      }

      .cls-65 {
        fill: #fce2cc;
      }

      .cls-66 {
        fill: #38211b;
      }

      .cls-67 {
        fill: #301913;
      }

      .cls-68 {
        fill: #fad0b2;
      }

      .cls-69 {
        fill: #efc4a7;
      }

      .cls-70 {
        fill: #e6bda4;
      }

      .cls-71 {
        fill: #f4c9ab;
      }

      .cls-72 {
        fill: #5a2f21;
      }

      .cls-73 {
        fill: #98593f;
      }

      .cls-74 {
        fill: #c68a6e;
      }

      .cls-75 {
        fill: #8c4e37;
      }

      .cls-76 {
        fill: #bf8469;
      }

      .cls-77 {
        fill: #90533c;
      }

      .cls-78 {
        fill: #e8ad8b;
      }

      .cls-79 {
        fill: #f7cdaf;
      }

      .cls-80 {
        fill: #f9d0b2;
      }

      .cls-81 {
        fill: #462015;
      }

      .cls-82 {
        fill: #d49473;
      }

      .cls-83 {
        fill: #3b2b21;
      }

      .cls-84 {
        fill: #e4a07c;
      }

      .cls-85 {
        fill: #3e2720;
      }

      .cls-86 {
        fill: #f8cbae;
      }
    </style>
  </defs>
  <g id="_Слой_36_Изображение" data-name="Слой 36 Изображение">
    <g>
      <path class="cls-30" d="M63,5c2.41.63,5.21,5.12,10,2,.37.26.65.71,1,1-3.4,3.09,1.28,5.54,1.66,6.31,1.95,3.94,3.91,8.85,4.32,13.2.57,6.18-1.42,7.14,2.02,12.48-5-.98-1.95,2.6-3.53,5.02-.48.73-2.23.64-2.51,1.68-.73,2.69.85,4.05,1.03,5.3.04.31.02.68,0,1-.02.35.09.8,0,1-.06.13-1.38,1.18-2,2-5.32-.38-6.23,7.26-12,6v-1c5.3-3.2,11.26-7.54,4-13-.39-3.74-1.15-4.6-5-4v-1c5.81-3.4,9.83-4.82,10.91-12.59,2.1-15.09-5.95-17.09-15.91-25.41,1.75.08,4.63-.36,6,0Z"/>
      <path class="cls-17" d="M66,3c.3.09.75,1.5,1.26,1.67,1.57.52,3.23.18,4.75.83.71.3.79,1.36.99,1.5-4.79,3.12-7.59-1.37-10-2-7.16-1.67-16.84-1.67-24,0-.63.21-10.25,6.61-11.06,7.46-1.54,1.6-1.33,2.66-1.94,3.54-7.16,10.44-1.5,14.48-5,23-.06.14-1.46.44-1.81,1.65-.41,1.41-.54,6.39-.26,7.8.23,1.14,2.5.19,2.95.62.58.56-.17,2.95.12,3.93-11.54-4.01-3.89-16.4-3.02-24.52.34-3.18-.53-7.04.04-9.96.86-4.46,10.37-14.66,14.98-15.52,2.62-.49,30.1-.53,32,0Z"/>
      <path class="cls-61" d="M59,119c6.22,2.95,8.98,7.4,6.94,14.27-.17.59-1.15.52-1.94,2.73-.66,1.82-1.76,2.72-.87,5.39.57,1.71,2.61,1.34,2.87,1.61.2.2.02,1.41.51,2,1.9,2.31,15.68.36,19.49,1h1c-.67.83-.87,1.45-2,2-5.56-1.78-13.48-1.54-19,0-5.96-3.04-7.51-10.11-6.02-16.3.27-1.12,3.68-1.71,3.02-2.69-6.19-.94-5.28-6.83-7-10.01,1.23-.98,1.8-.57,3,0Z"/>
      <path class="cls-81" d="M22,56v1c-2.4-.03-2.27.32-4,1-5.74,2.25-4.59,3.83-7,8-.97,1.68-2.29,3.72-3,5-.99,1.79-1.43,2.64-1,5-.73.04-2.68,1.21-3,2-.1.25.06.65,0,1l-3-1c.31-1.43,5.54-15.37,6.26-16.76.17-.33,5.07-4.95,5.42-5.06,2.63-.81,6.48.15,9.32-.18Z"/>
      <path class="cls-40" d="M4,79c-.21,1.28-.09,3.59,0,5,.11,1.66.55,4.42,1,6,.27.95,1.61,4.5,2,5-.05,3.32.07,6.68,0,10-.03,1.32.5,3.31-1,4-3.83-5.52-.67-7.15-2.15-11.38-.48-1.36-2.6-1.27-2.87-2.32-.36-1.39-.33-15.66.02-17.3l3,1Z"/>
      <path class="cls-67" d="M74,8c3.56,2.96,4.85,4.41,6,9,1.58,6.3.76,13,1.94,19.42.23,1.26,2.89-.08,3.13,1.12.56,2.84-.52,7.33-.07,10.45-.74.86-1.9.88-2,1-.21-3.35.85-6.13-1-9-3.44-5.34-1.45-6.3-2.02-12.48-.4-4.36-2.37-9.27-4.32-13.2-.38-.77-5.07-3.22-1.66-6.31Z"/>
      <path class="cls-32" d="M98,78h2c-.49,5.02.69,11.15,0,16-.08.57-1.69,1.91-1.95,3.52-1.42,8.74,2.38,7.86-6.05,14.48h-1c-.66-1.8.65-2.89,1-4,4.77-2.07,2.59-7.77,3-12,1.07-4.05,2.66-3.56,3.02-5.47.68-3.56-.52-8.72-.02-12.53Z"/>
      <path class="cls-61" d="M24,111c-.3.29-.89.77-1,1-2.67,5.69.66,13-2,19-.32,0-.69.05-1,0-.57-.08-1.35-.8-2-1,.87-2.24,1.77-12.41.86-13.86-.44-.7-5.71-1.09-7.86-2.14-.27-2.68.05-1.83,2-2,3.55-.31,7.11,1.01,10-2,.25.39.66.69,1,1Z"/>
      <path class="cls-57" d="M80,111c3.17.34,5.61.92,9,1,.67.02,1.33-.01,2,0h1c-.72.57-.85,2.28-2.68,2.8-2.1.6-4.92-.25-6.32.2-1.8.57-.93,9.89-.96,12.58-.01,1.35-1.01,2.19-1.04,2.42-3.14-4.86-.18-9.27-2-16-.29-1.06-.72-2.01-1-3h1c.33.03.67-.04,1,0Z"/>
      <path class="cls-36" d="M38,145c-1.48,1.36-3.57,3.6-5.53,3.98-2.3.44-12.67.43-15,0-2.07-.38-1.98-1.66-2.48-1.99.1-.47.55-.96,1-1,4.13-.4,8.77.21,13,0,2.68-.13,3.46.55,6-1,.37-.22.7-.67,1-1l2,1Z"/>
      <path class="cls-3" d="M82,40c1.85,2.87.79,5.65,1,9-.3.37-.72.65-1,1l-5,2c-.18-1.26-1.76-2.61-1.03-5.3.28-1.03,2.03-.95,2.51-1.68,1.58-2.42-1.47-6,3.53-5.02Z"/>
      <path class="cls-79" d="M21,39c1.33,2.4,5.75,10.16,4.51,12.01-.65.98-1.14.16-2.51,2.99-.2-.09-.96-.86-1-1-.29-.98.46-3.37-.12-3.93-.45-.43-2.72.52-2.95-.62-.28-1.41-.15-6.39.26-7.8.35-1.21,1.75-1.51,1.81-1.65Z"/>
      <path class="cls-52" d="M95,66c2.74,5.29,1.69,4.92,3.15,9.38.44,1.36,2.6,1.26,2.88,2.31.81,3.11.16,12.92-1.02,16.3.68-4.85-.49-10.98,0-16.01h-2s-1,0-1,0c-.03-.29-3.15-3.23-3-5,0-.65.09-1.39,0-2-.24-1.62-1.02-2.76-2-4,.68-.39,2.2-.3,3-1Z"/>
      <path class="cls-59" d="M80,55c2.67.6,7.71.98,9.41,2.09,1.9,1.25,4.51,6.82,5.59,8.91-.8.7-2.32.61-3,1-.26.15-.85-.16-1,0,.65-3.13-4.61-8.43-7-9l-.67-.81-4.33-.2c-.31-.18.79-1.39,1-1.99Z"/>
      <path class="cls-39" d="M45,119c-.26.6.23,2.39-.52,3.94-.83,1.71-3.73,2.97-4.48,5.06-.21-.48-2.95-1.62-2-4,1.08-2.14,1.44-3.65,3-6l4,1Z"/>
      <path class="cls-72" d="M40,131c.05.15,1.6.46,1.98,2.47,1.1,5.75-.19,8.05-3.98,11.53l-2-1c.46-.51,1.89-2.53,2-3,3.54-2.87-2.78-10.76,2-10Z"/>
      <path class="cls-58" d="M80,17c3.11-.55,1.85,1.56,1.99,3.47.24,3.19.36,11.5,1.16,13.92.45,1.35,2.6,1.26,2.88,2.31.54,2.07.3,9.76-1.02,11.3-.45-3.13.63-7.61.07-10.45-.24-1.2-2.9.14-3.13-1.12-1.17-6.42-.36-13.13-1.94-19.42Z"/>
      <path class="cls-24" d="M83,115c.68,4.5-.91,11.37-.07,15.45.22,1.09,2.42.16,2.89.67.53.56-.03,2.34.38,3.17,1.03,2.07,2.44.63,2.8,3.71-1.35-1.65-2.83.02-3,0-.33-.04-.68.06-1,0-1.12-1.99-1.72-3.78-2.55-5.91-.29-.74-1.4-.97-1.45-1.09-.07-.18-.04-.71,0-1,.03-.23,1.03-1.07,1.04-2.42.03-2.69-.84-12.01.96-12.58Z"/>
      <path class="cls-9" d="M32,61c-1.03-.28-2.82.31-4.28-.18-3.09-1.05-.79-3.76-5.72-3.82v-1c.32-.67.67-1.33,1-2,3.36,1.61,8.69.75,9,7Z"/>
      <path class="cls-5" d="M40,128c.28.63-.27,2.28,0,3-4.78-.76,1.54,7.13-2,10,.17-.74.14-3.18,0-4-.71-4.07-4.77-5.12-2.24-10.79.56-1.27,2.08-1.9,2.24-2.21-.95,2.38,1.79,3.52,2,4Z"/>
      <path class="cls-6" d="M53,111v1c-1.22-.37-3.53.25-5,0,0,1.73-.52,2.3,1,2.99-.17,1.64-3.84,3.64-4,4l-4-1c.65-.98.72-2.62,1-3,.19-.27,3.97-2.06,5-4,1.99-.09,4.01.12,6,0Z"/>
      <path class="cls-45" d="M85,148c-3.42,1.66-15.71,1.68-19,0,5.52-1.54,13.44-1.78,19,0Z"/>
      <path class="cls-58" d="M16,137v9c-.45.04-.9.53-1,1-.96-.62-2.01.86-2.75-2.7-.59-2.86-.79-4.9.75-7.3.95-.12,2.14.18,3,0Z"/>
      <path class="cls-33" d="M53,112c.46.14,6.24,6.01,6,7-1.2-.57-1.77-.98-3,0-1.55-2.87-5.03-3.1-7-4-1.52-.69-1-1.27-1-2.99,1.46.25,3.77-.37,5,0Z"/>
      <path class="cls-85" d="M66,3c-1.9-.53-29.38-.49-32,0,1.04-1.66,3.79-1,5.49-1.02,7-.07,14.03-.09,21.03,0,1.69.02,4.45-.64,5.49,1.02Z"/>
      <path class="cls-43" d="M7,105c4.41-.49,2.41,5.28,3,6,.11.14,2.24,0,3,0v1c-1.95.17-2.27-.68-2,2-2.11-1.03-3.69-3.12-5-5,1.5-.69.97-2.68,1-4Z"/>
      <path class="cls-66" d="M89,138c.49,4.33.39,5.02-2,8h-1v-8c.17.02,1.65-1.65,3,0Z"/>
      <path class="cls-13" d="M20,131c-1.4,3.14.03,5.14-4,6-.86.18-2.05-.12-3,0,.8-1.26,4.57-5.9,5-7,.65.2,1.43.92,2,1Z"/>
      <path class="cls-29" d="M82,50c-.38.48-.66,1.38-1,2-.66.23-1.38.86-2,1-.58.13-1.36-.09-2,0,.02-.32.04-.69,0-1l5-2Z"/>
      <path class="cls-30" d="M80,55c-.32-.07-.69.08-1,0v-2c.62-.14,1.34-.77,2-1-.56,1.04-.65,1.99-1,3Z"/>
      <path class="cls-34" d="M57,5c9.96,8.32,18.01,10.32,15.91,25.41-1.08,7.77-5.11,9.19-10.91,12.59-1.77,1.04-4.52,1.48-5.99,3.51v1.48s3.99,0,3.99,0c.09.23,2.09.64,1.9,2.32-.21,1.82-4.28,4.75,1.6,4.76,4.27.01,3.86-3.59,3.5-7.09,7.26,5.46,1.3,9.8-4,13-1.12.67-3.3,0-3,3-6.86-1.01-15.15,1.42-22-1-.16-.33-.78-.62-1-1-1.76-2.98-2.08-2.06-3.58-3.9-1.69-2.07-3.25-11.34,1.58-9.1.19,5.29-.43,6.52,6,6.01.01-9.74,4.25-8.67-5-12.01-.97-.35-1.84.12-3.52-.94-9.47-5.97-7.79-16.47-6.48-26.06.6-.88.4-1.94,1.94-3.54.81-.85,10.43-7.25,11.06-7.46,1.86-.62,14.86-.15,18,0Z"/>
      <path class="cls-27" d="M79,55c.31.08.68-.07,1,0-.21.6-1.31,1.81-1,1.99l4.33.2.67.81c-3.4-.82-9.55.22-10.04,4.51-.24,2.11,2.06,1.12,2.07,1.99.03,2.93-11.29,4.84-14.04,5.98-1.63.68-2.78,1.92-4.3,2.73-2.78,1.49-5.21-.11-3.7,6.08.33,1.37,3.57,1.16,3.03,3.19-3.86,1.45-3.14,3.85-3.02,7.51h15c-.88,2.32-11.49.24-14.35.99-.81.21-.59,2.1-1.13,2.01-.84-.15-4.8-2.93-5.52-3,.14-3.65.82-6.08-3.01-7.51-.55-2.03,2.71-1.83,3.03-3.19,1.71-7.14-1.42-4.45-4.35-5.45-1.67-.57-1.62-3.04-3.34-3.68-2.31-.85-7.13-2.04-10.08-2.94-1.17-.36-3.99-.02-4.22-.25-.67-.68.63-11.51-8.02-8.98,1.73-.68,1.6-1.03,4-1,4.94.06,2.63,2.77,5.72,3.82,1.45.5,3.25-.1,4.28.18.95.25,2.27,2.87,5,1,.22.38.84.67,1,1,.5,1.02.33,3.73,1.66,4.04l23.33-.05c.3-2.34-1.16-2.73-2.99-2.99-.3-2.99,1.88-2.33,3-3v1c3.82,6.08,9.22-2.32,12-6,.62-.82,1.94-1.87,2-2,.32,1.03,1.23.81,2,1Z"/>
      <path class="cls-83" d="M62,44c3.85-.6,4.61.26,5,4,.36,3.5.77,7.1-3.5,7.09-5.88-.02-1.81-2.94-1.6-4.76.19-1.68-1.81-2.1-1.9-2.32-.57-1.43.44-3.53,2-4Z"/>
      <path class="cls-23" d="M75,56c-2.78,3.68-8.18,12.08-12,6,5.77,1.26,6.68-6.38,12-6Z"/>
      <path class="cls-85" d="M63,5c-1.37-.36-4.25.08-6,0-3.14-.15-16.14-.62-18,0,7.16-1.67,16.84-1.67,24,0Z"/>
      <path class="cls-78" d="M62,43v1c-1.56.47-2.57,2.57-2,4h-4s0-1.49,0-1.49c1.47-2.03,4.22-2.48,5.99-3.51Z"/>
      <path class="cls-60" d="M79,53v2c-.77-.19-1.68.03-2-1,.09-.2-.02-.65,0-1,.64-.09,1.42.13,2,0Z"/>
      <path class="cls-84" d="M36,43c-1.17,1.85-1.07,3.92-1,6-4.83-2.24-3.27,7.03-1.58,9.1,1.5,1.83,1.82.92,3.58,3.9-2.73,1.87-4.05-.75-5-1-.31-6.25-5.64-5.39-9-7,1.38-2.83,1.86-2.01,2.51-2.99,1.23-1.85-3.19-9.61-4.51-12.01,3.5-8.52-2.16-12.56,5-23-1.31,9.59-2.99,20.09,6.48,26.06,1.69,1.06,2.55.59,3.52.94Z"/>
      <path class="cls-50" d="M76,102c-.16,5.02.97,5.38,2,9,.28.99.71,1.94,1,3-.4,2.75.69,6.95-.15,9.38-.59,1.7-3.88.74-2.87,5.08.72,3.11,2.52,2.64,5.02,2.54.05.11,1.16.35,1.45,1.09.83,2.13,1.43,3.93,2.55,5.91-7.31-1.42-4.86-5.15-17-3-1.37.24-2.79.05-4,1,.79-2.21,1.77-2.15,1.94-2.73,2.03-6.87-.72-11.32-6.94-14.27.24-.99-5.54-6.86-6-7v-1c1.32-.08,2.67.07,4,0l-2.99-4.99c1.96-.15,4.05.19,6,0,.89,2.17.08,5.75,3,5-.88,9.36,6.93,10.12,7,2,.25.16,1.52-.34,1.86.1.95,1.22-1.07,5.83,1.14,6.9.12.29,2.61,1.42,2.99.99-.15-2.97.23-6.04,0-8.99s-1.6-7.06-2-10h2ZM72.99,121c-.21-.2-2.18.12-2.99,0l1.5,7c1.25-.89,1.96-6.54,1.49-7Z"/>
      <path class="cls-80" d="M85,138c.32.06.67-.04,1,0v8c-3.81-.64-17.59,1.31-19.49-1-.49-.59-.31-1.8-.51-2-.27-3.03-.19-5.73,2-8,12.14-2.15,9.69,1.58,17,3Z"/>
      <path class="cls-82" d="M68,135c-2.19,2.27-2.27,4.97-2,8-.26-.26-2.31.1-2.87-1.61-.88-2.67.22-3.57.87-5.39,1.21-.95,2.63-.76,4-1Z"/>
      <path class="cls-38" d="M18,58c8.65-2.53,7.35,8.3,8.02,8.98.23.23,3.05-.11,4.22.25,2.95.9,7.77,2.1,10.08,2.94,1.73.63,1.67,3.11,3.34,3.68,2.93.99,6.07-1.69,4.35,5.45-.33,1.36-3.58,1.16-3.03,3.19,3.84,1.43,3.15,3.86,3.01,7.51-1.78-.18-6.75,2.24-8.87.86-.66-.43-.59-3.3-1.28-3.72-1.07-.67-4.35.57-5.43-1.06s.16-4.44-.64-5.87c-.21-.37-5.6-4.2-6.79-5.2-1.65-1.39-3.35-4.41-4.68-4.82-4.11-1.26-10.86,2.71-9.32-4.18,2.41-4.17,1.26-5.75,7-8Z"/>
      <path class="cls-35" d="M11,66c-1.54,6.89,5.21,2.92,9.32,4.18,1.33.41,3.03,3.43,4.68,4.82-.61-.12-1.55.18-2,0-.75-.3-1.46-1.44-2.45-1.52-4.19-.34-9.44.89-10.55,5.52-.49-1.33-1.91-.92-3-1-.99-.07-2.01.05-3,0,.32-.79,2.27-1.96,3-2,.13,0,1.27,1.34,2.4.99,2.42-.76,1.34-6.92-1.4-5.99.71-1.28,2.03-3.32,3-5Z"/>
      <path class="cls-69" d="M8,71c2.73-.93,3.81,5.23,1.4,5.99-1.13.35-2.27-.99-2.4-.99-.43-2.36,0-3.21,1-5Z"/>
      <path class="cls-14" d="M7,78c.16,2.81.58,6.09-3,6-.09-1.41-.21-3.72,0-5,.06-.35-.1-.75,0-1,.99.05,2.01-.07,3,0Z"/>
      <path class="cls-62" d="M5,90c3.09.48,12.57-1.8,9.66,2.76-.17.26-1.39.12-1.53.34-1.21,1.84,5.46,6.3,7.86,5.91,1.49,2.96.59,3.53,1,6-3.27.04-2.21-4.1-6-3-.12,1.98.14,4.02,0,6-.07.94.26,1.94-.09,2.87-.4.41-2.08.13-2.91.13-3.04-3.08-1.58-13.43-3.97-15.56-.63-.56-1.93-.3-2.03-.44-.39-.5-1.73-4.05-2-5Z"/>
      <path class="cls-47" d="M10,79c-1.34,5.57.37,8.78,6,8-.67,1.57-.34,6.78.22,7.79.32.56,3.4,1.47,4.78,4.21-2.4.4-9.07-4.06-7.86-5.91.14-.22,1.36-.07,1.53-.34,2.9-4.56-6.58-2.27-9.66-2.76-.45-1.58-.89-4.34-1-6,3.58.09,3.16-3.19,3-6,1.09.08,2.51-.33,3,1Z"/>
      <path class="cls-54" d="M13,111c-.76,0-2.89.14-3,0-.59-.72,1.41-6.49-3-6,.07-3.32-.05-6.68,0-10,.1.13,1.4-.13,2.03.44,2.39,2.14.93,12.49,3.97,15.56Z"/>
      <path class="cls-70" d="M98,78c-.49,3.81.7,8.98.02,12.53-.36,1.91-1.96,1.42-3.02,5.47s-1.74,8.03-3,12c-.35,1.11-1.66,2.2-1,4-.67-.01-1.33.02-2,0v-1c2.46-5.3,2.26-7.52,1-13,.34-2.71,3.85-3.71,4.5-4.95.5-.95-.62-2.56-.5-3.05s2.37-1.92,2.54-3.47c.1-.95.5-8.1.46-8.53h1Z"/>
      <path class="cls-7" d="M92,108c1.26-3.97,1.95-7.99,3-12-.41,4.23,1.77,9.93-3,12Z"/>
      <path class="cls-42" d="M26,112c0,.36-.93,1.41-.93,2.53.01,4.15,1.04,7.48,5.42,8.49,2.23-2.18-1.35-1.84-1.5-2.66-.47-2.46.33-5.74.02-8.36.99,0,2.02.08,3,0v6.01c4.61,1.54,5.46-2.09,7-3.01.44-.26,2.2.18,3,0-.28.38-.35,2.02-1,3-1.56,2.35-1.92,3.86-3,6-.16.31-1.68.95-2.24,2.21-2.52,5.67,1.54,6.71,2.24,10.79-1.58-.99-3.18-1.59-5-2-8.8-2-9.92-.75-17,4v-2c4.03-.86,2.6-2.86,4-6,.31.05.68,0,1,0,9.66-.17,2.64-5.31,2.01-8.51s.37-7.23-.01-10.49c.11-.23.7-.71,1-1,.34-.33.69-.64,1-1h1c-.01.67,0,1.33,0,2Z"/>
      <path class="cls-49" d="M22,87c-5.5-.66-3.65,5.18,0,8,2.69,2.08,2.89.84,2.99,1,.75,1.2-.53,11.45,0,14-.31.36-.66.67-1,1-.34-.31-.75-.61-1-1-.29-.45-.94-1.61-1-2-.14-.94.16-2.07,0-3-.41-2.47.49-3.04-1-6-1.38-2.74-4.46-3.65-4.78-4.21-.57-1.01-.9-6.22-.22-7.79,2.09-.29,2.53-.61,4-2,1.12.26,1.43,1.45,2,2Z"/>
      <path class="cls-48" d="M23,112c.38,3.25-.59,7.42.01,10.49s7.65,8.35-2.01,8.51c2.66-6-.67-13.31,2-19Z"/>
      <path class="cls-76" d="M22,108c.06.39.71,1.55,1,2-2.89,3.01-6.45,1.69-10,2v-1c.83,0,2.51.29,2.91-.13.35-.93.02-1.94.09-2.87h6Z"/>
      <path class="cls-1" d="M85,87l2,3c-.46.19-.71,2.36-1,3-1.33,2.91-2.08,2.31-4,5-.52.24-1.76.75-2,1-2.22,2.36-.48,8.58-1,12h-1c-1.03-3.62-2.16-3.98-2-9s.45-4.01,3-7c3.5-4.12,4.63-1.63,3-8,.96-.13,2.02.07,3,0Z"/>
      <path class="cls-77" d="M80,99v6c2.41.67,2.17-1.65,2.93-2.31,3.95-3.43,2.9,2.11,3.07,4.32-3.27,2.05-7.04-.91-6,4-.33-.04-.67.03-1,0,.52-3.42-1.22-9.64,1-12Z"/>
      <path class="cls-75" d="M81,130c-.04.29-.07.82,0,1-2.5.1-4.29.57-5.02-2.54-1.01-4.34,2.28-3.37,2.87-5.08.85-2.44-.25-6.63.15-9.38,1.82,6.73-1.14,11.14,2,16Z"/>
      <path class="cls-74" d="M86,107c.26,3.29-1.29,4.56,3,4v1c-3.39-.08-5.83-.66-9-1-1.04-4.91,2.73-1.95,6-4Z"/>
      <path class="cls-8" d="M33,135c2.76,2.81,2.01,6.38,2,10-2.54,1.55-3.32.87-6,1-2.17-6.51-3.03-1.15-3.65-.99-2.47.63-6.58-.44-9.35-.01v-6c7.08-4.75,8.2-6,17-4Z"/>
      <path class="cls-11" d="M38,137c.14.82.17,3.26,0,4-.11.47-1.54,2.49-2,3-.3.33-.63.78-1,1,0-3.62.76-7.19-2-10,1.82.41,3.42,1.01,5,2Z"/>
      <path class="cls-25" d="M16,145c2.77-.43,6.89.64,9.35.01.62-.16,1.48-5.52,3.65.99-4.23.21-8.87-.4-13,0v-1Z"/>
      <path class="cls-15" d="M94,73c-.15,1.77,2.97,4.71,3,5,.04.43-.36,7.58-.46,8.53-.17,1.54-2.42,2.98-2.54,3.47-1.76.37-5.74-.53-7,0l-2-3c1.98-.15,4.02.11,6.01,0,.17-3.3-.25-6.71,0-10.01,3.95.55,3.05-.57,3-4Z"/>
      <path class="cls-63" d="M94,71c-2.84-.64-2.77,2.86-3,5-3.63-1.84-7.27-2.67-11.42-2.02-1.26.2-.3,3.82-.58,5.02-.35-1.14-1.57-2.22-1.01-4-1.11,1.11-3.1,1.43-3.99,2,.84-1.2,4.87-5.51,5.78-5.93,3.39-1.55,6.98-.39,9.61-1.2,1.71-.53,1.32-2.56,1.61-2.87.15-.16.74.15,1,0,.98,1.24,1.76,2.38,2,4Z"/>
      <path class="cls-51" d="M94,71c.09.61,0,1.35,0,2,.05,3.43.95,4.55-3,4,.02-.33-.04-.67,0-1,.23-2.14.16-5.64,3-5Z"/>
      <path class="cls-38" d="M84,58c2.39.57,7.65,5.87,7,9-.29.31.1,2.33-1.61,2.87-2.63.82-6.22-.34-9.61,1.2-.91.42-4.94,4.73-5.78,5.93-6.39,4.11-3.06,7.88-5,13h-15c-.13-3.66-.84-6.06,3.02-7.51.54-2.03-2.69-1.82-3.03-3.19-1.51-6.19.91-4.59,3.7-6.08,1.52-.82,2.67-2.05,4.3-2.73,2.75-1.15,14.07-3.05,14.04-5.98,0-.87-2.31.12-2.07-1.99.49-4.28,6.65-5.32,10.04-4.51Z"/>
      <path class="cls-31" d="M25,75c1.18,1,6.58,4.83,6.79,5.2.8,1.43-.4,4.31.64,5.87s4.36.39,5.43,1.06c.68.43.62,3.3,1.28,3.72,2.12,1.37,7.08-1.05,8.87-.86.73.08,4.69,2.86,5.52,3,.54.09.32-1.79,1.13-2.01,2.85-.75,13.46,1.33,14.35-1,1.94-5.12-1.39-8.89,5-13,.89-.57,2.88-.89,3.99-2-.56,1.78.66,2.86,1.01,4,.1.31-.1.71,0,1-3.48-.61-2.42,4.74-4,7-4.14,2.68-1.57,10.88-1,15,.4,2.94,1.77,7.01,2,10-3.82-2.22-3.78,6.03-3,8-2.21-1.07-.19-5.68-1.14-6.9-.34-.44-1.61.06-1.86-.1-.72-.47-5.55-4.55-6-5-1.26-1.25-.89-2.87-1.01-3-.54-.57-2.5.95-2.99,1-1.95.19-4.03-.15-6,0l2.99,4.99c-1.32.07-2.67-.08-4,0-1.99.12-4.01-.09-6,0,.05-.1-.7-.98-.52-1.5.48-1.36,1.91-1.8,1.51-3.5-1.66-.26-3.88.39-5.37.04-1.24-.3-.41-1.64-.62-2.04.07-.65-.11-1.38,0-2,2.15.15,3.31.4,5-1,.53-.44,1.49-.15,1-1.99h-4c1.64-1.11,4.51-1.81,4-4-3.87.46-12.06-3.2-13.03,2.51-.9,5.31,2.21,3.84,5.04,4.48,1.79,4.14-.53,6.53-1,9l-3.49-3.01c-1.08-.05-.24,2.17-.51,3.01-4.57,1.1-2.49-2.48-3-3-1.94-1.95-4.25,2.63-5,4h-1c0-.67-.01-1.33,0-2,.04-2.65-.15-5.36,0-8,3.56.54,3.04-5.37,3-8-.12-8.26-2.17-5.28-3.35-8.22-1.53-3.81-.79-2.87-2.65-5.78-.36-.57.26-3.85,0-5,.45.18,1.39-.12,2,0ZM65.73,95.26c-.56-.61-3.26-1.7-3.73-1.26l2.51,10.98c2.53,1.22,3.42-7.34,1.22-9.73ZM54.02,94.93l-.03,4.1,6,.04.03-4.1-6-.04ZM54,101.98v3.02s6.01.01,6.01.01v-3.02s-6.01-.01-6.01-.01Z"/>
      <path class="cls-22" d="M42,104c.21.41-.62,1.75.62,2.04,1.5.36,3.71-.3,5.37-.04.4,1.7-1.03,2.14-1.51,3.5-.18.52.57,1.4.52,1.5-1.03,1.94-4.81,3.73-5,4-.8.18-2.56-.26-3,0,1.61-1.26-.07-3.61,0-4,.47-2.47,2.79-4.86,1-9,.35.08.8-.12,1,0,.1.06.72,1.46,1,2Z"/>
      <path class="cls-73" d="M60,64c1.84.27,3.3.66,2.99,2.99l-23.33.05c-1.33-.32-1.16-3.02-1.66-4.04,6.85,2.42,15.14,0,22,1Z"/>
      <path class="cls-10" d="M36,43c9.25,3.33,5.01,2.27,5,12.01-6.43.51-5.81-.72-6-6.01-.07-2.08-.17-4.15,1-6Z"/>
      <path class="cls-4" d="M80,84c.63.89.77-1.82,2,3-1.06.14-1.77-.05-2.94.52-3.51,1.71-5.23,8.93-.06,7.48-2.55,2.99-2.84,2.11-3,7h-2c-.57-4.12-3.14-12.32,1-15,1.31-.85,3.7-1.37,5-3Z"/>
      <path class="cls-16" d="M70,113c-.07,8.12-7.88,7.36-7-2,.1-1.07.47-2.08,1-3,.45.45,5.28,4.53,6,5Z"/>
      <path class="cls-20" d="M76,112c.22,2.96-.16,6.03,0,8.99-.38.42-2.88-.7-2.99-.99-.78-1.97-.82-10.22,3-8Z"/>
      <path class="cls-56" d="M72.99,121c.47.45-.24,6.11-1.49,7l-1.5-7c.81.12,2.78-.19,2.99,0Z"/>
      <path class="cls-84" d="M60,106c.49-.05,2.45-1.57,2.99-1,.12.13-.25,1.75,1.01,3-.53.92-.9,1.93-1,3-2.92.75-2.11-2.83-3-5Z"/>
      <path class="cls-12" d="M23,75c.26,1.15-.36,4.43,0,5-.73.58-2.77,4.79-3,5-1.47,1.39-1.91,1.71-4,2-5.63.78-7.34-2.43-6-8,1.11-4.63,6.36-5.85,10.55-5.52.98.08,1.7,1.22,2.45,1.52Z"/>
      <path class="cls-19" d="M16,108c.15-1.98-.12-4.02,0-6,3.78-1.1,2.73,3.05,6,3,.16.93-.14,2.06,0,3h-6Z"/>
      <path class="cls-71" d="M89,95c.29,1.02.89,2.52,1,3,1.26,5.48,1.46,7.7-1,13-4.29.56-2.74-.71-3-4-.17-2.21.87-7.75-3.07-4.32-.76.66-.51,2.98-2.92,2.31v-6c.23-.25,1.47-.76,1.99-1,1.91-.87,4.75-1.58,7-3Z"/>
      <path class="cls-26" d="M94,90c-.13.5,1,2.1.5,3.05-.65,1.23-4.16,2.24-4.5,4.95-.11-.48-.71-1.98-1-3-.55-1.92,1.06-2.34-3-2,.29-.64.54-2.81,1-3,1.26-.53,5.24.37,7,0Z"/>
      <path class="cls-46" d="M23,80c1.86,2.91,1.12,1.97,2.65,5.78,1.18,2.94,3.23-.04,3.35,8.22-3.91,1.58-2.81,4.72-3,8-.15,2.64.04,5.35,0,8h-1c-.54-2.55.75-12.8,0-14-.1-.16-.3,1.08-2.99-1,5.83.43,3.28-4.89,0-8-.57-.55-.88-1.74-2-2,.23-.21,2.27-4.42,3-5Z"/>
      <path class="cls-68" d="M39,111c-.07.39,1.61,2.74,0,4-1.54.92-2.39,4.55-7,3.01v-6.01c1.32-.11,2.5.55,3-1,.27-.84-.57-3.06.51-3.01l3.49,3.01Z"/>
      <path class="cls-86" d="M29,112c.32,2.62-.48,5.89-.02,8.36.16.82,3.74.47,1.5,2.66-4.37-1.01-5.4-4.34-5.42-8.49,0-1.12.93-2.17.93-2.53h1c.67,0,1.33,0,2,0Z"/>
      <path class="cls-41" d="M27,112c.75-1.37,3.06-5.95,5-4,.52.52-1.57,4.1,3,3-.5,1.55-1.68.89-3,1-.98.08-2.01,0-3,0-.67,0-1.33,0-2,0Z"/>
      <path class="cls-2" d="M22,87c3.28,3.11,5.83,8.43,0,8-3.65-2.82-5.5-8.66,0-8Z"/>
      <path class="cls-65" d="M91,76c-.04.33.02.67,0,1-.24,3.29.17,6.7,0,10.01-1.98.11-4.03-.15-6.01,0-.98.07-2.04-.13-3,0-1.23-4.82-1.37-2.11-2-3-.12-.17-.59-2.84-1-4-.1-.29.1-.69,0-1,.27-1.2-.68-4.82.58-5.02,4.15-.65,7.79.18,11.42,2.02Z"/>
      <path class="cls-21" d="M82,87c1.63,6.37.5,3.88-3,8-5.17,1.45-3.45-5.77.06-7.48,1.16-.57,1.88-.38,2.94-.52Z"/>
      <path class="cls-55" d="M86,93c4.06-.34,2.45.08,3,2-2.25,1.42-5.09,2.13-7,3,1.92-2.69,2.67-2.09,4-5Z"/>
      <path class="cls-41" d="M40,102c-2.83-.64-5.94.83-5.04-4.48.97-5.71,9.16-2.06,13.03-2.51.51,2.19-2.36,2.89-4,3.99-1.29.87-.84-1.27-2,2-.07.19-.91.49-1,1-.2-.12-.65.08-1,0Z"/>
      <path class="cls-41" d="M65.73,95.26c2.2,2.39,1.31,10.95-1.22,9.73l-2.51-10.98c.47-.44,3.17.65,3.73,1.26Z"/>
      <rect class="cls-37" x="54.95" y="94" width="4.1" height="6" transform="translate(-40.35 153.39) rotate(-89.64)"/>
      <path class="cls-44" d="M79,80c.41,1.16.88,3.83,1,4-1.3,1.63-3.69,2.15-5,3,1.58-2.26.52-7.61,4-7Z"/>
      <path class="cls-28" d="M29,94c.04,2.63.56,8.54-3,8,.19-3.28-.91-6.42,3-8Z"/>
      <rect class="cls-8" x="55.49" y="100.49" width="3.02" height="6.02" transform="translate(-46.61 160.3) rotate(-89.89)"/>
      <path class="cls-64" d="M44,99h4c.49,1.85-.47,1.56-1,2-1.27.27-4.19-.4-5,0,1.16-3.27.71-1.13,2-2Z"/>
      <path class="cls-53" d="M47,101c-1.69,1.4-2.85,1.15-5,1,.06-.34-.1-.95,0-1,.81-.4,3.73.27,5,0Z"/>
      <path class="cls-18" d="M42,102c-.11.62.07,1.35,0,2-.28-.54-.9-1.94-1-2,.09-.51.93-.81,1-1-.1.05.06.66,0,1Z"/>
    </g>
  </g>
</svg>