<?xml version="1.0" encoding="UTF-8"?>
<svg id="_Слой_2" data-name="Слой 2" xmlns="http://www.w3.org/2000/svg" viewBox="0 0 103 150">
  <defs>
    <style>
      .cls-1 {
        fill: #471f13;
      }

      .cls-2 {
        fill: #835346;
      }

      .cls-3 {
        fill: #421b10;
      }

      .cls-4 {
        fill: #6e5149;
      }

      .cls-5 {
        fill: #e0b99f;
      }

      .cls-6 {
        fill: #dea486;
      }

      .cls-7 {
        fill: #fcd3b5;
      }

      .cls-8 {
        fill: #fde3cd;
      }

      .cls-9 {
        fill: #f8ceb0;
      }

      .cls-10 {
        fill: #482115;
      }

      .cls-11 {
        fill: #bdb5b4;
      }

      .cls-12 {
        fill: #4a2d23;
      }

      .cls-13 {
        fill: #341e18;
      }

      .cls-14 {
        fill: #442b23;
      }

      .cls-15 {
        fill: #8f4f37;
      }

      .cls-16 {
        fill: #603729;
      }

      .cls-17 {
        fill: #874c36;
      }

      .cls-18 {
        fill: #f5d7c0;
      }

      .cls-19 {
        fill: #d9a489;
      }

      .cls-20 {
        fill: #eec4a8;
      }

      .cls-21 {
        fill: #f8ddc7;
      }

      .cls-22 {
        fill: #e0a98c;
      }

      .cls-23 {
        fill: #3d2c22;
      }

      .cls-24 {
        fill: #c0876d;
      }

      .cls-25 {
        fill: #442f25;
      }

      .cls-26 {
        fill: #f6c9ab;
      }

      .cls-27 {
        fill: #ede7e5;
      }

      .cls-28 {
        fill: #d5987c;
      }

      .cls-29 {
        fill: #f5c8aa;
      }

      .cls-30 {
        fill: #e5a07c;
      }

      .cls-31 {
        fill: #b0a09b;
      }

      .cls-32 {
        fill: #e4a07b;
      }

      .cls-33 {
        fill: #d89a7c;
      }

      .cls-34 {
        fill: #8d7771;
      }

      .cls-35 {
        fill: #fdd4b6;
      }

      .cls-36 {
        fill: #f9dfc9;
      }

      .cls-37 {
        fill: #fde4ce;
      }

      .cls-38 {
        fill: #cf997e;
      }

      .cls-39 {
        fill: #dca78c;
      }

      .cls-40 {
        fill: #f8ccae;
      }

      .cls-41 {
        fill: #fbe2cc;
      }

      .cls-42 {
        fill: #f8ccaf;
      }

      .cls-43 {
        fill: #975a42;
      }

      .cls-44 {
        fill: #40190e;
      }

      .cls-45 {
        fill: #3e241d;
      }

      .cls-46 {
        fill: #95583f;
      }

      .cls-47 {
        fill: #50291d;
      }

      .cls-48 {
        fill: #98583e;
      }

      .cls-49 {
        fill: #f4d4bc;
      }

      .cls-50 {
        fill: #582c1e;
      }

      .cls-51 {
        fill: #492216;
      }

      .cls-52 {
        fill: #d38f73;
      }

      .cls-53 {
        fill: #fad1b3;
      }

      .cls-54 {
        fill: #d8997c;
      }

      .cls-55 {
        fill: #8b594c;
      }

      .cls-56 {
        fill: #f7d8c0;
      }

      .cls-57 {
        fill: #431d12;
      }

      .cls-58 {
        fill: #422a22;
      }

      .cls-59 {
        fill: #5f382c;
      }

      .cls-60 {
        fill: #ebc0a3;
      }

      .cls-61 {
        fill: #db9c7f;
      }

      .cls-62 {
        fill: #d89c7f;
      }

      .cls-63 {
        fill: #9d5d44;
      }

      .cls-64 {
        fill: #442b22;
      }

      .cls-65 {
        fill: #8a4b34;
      }

      .cls-66 {
        fill: #623d32;
      }

      .cls-67 {
        fill: #97583f;
      }

      .cls-68 {
        fill: #f1c0a2;
      }

      .cls-69 {
        fill: #431d13;
      }

      .cls-70 {
        fill: #3d160b;
      }

      .cls-71 {
        fill: #f5d4bd;
      }

      .cls-72 {
        fill: #875447;
      }

      .cls-73 {
        fill: #4a2c24;
      }

      .cls-74 {
        fill: #5d3a30;
      }

      .cls-75 {
        fill: #cf9579;
      }

      .cls-76 {
        fill: #f9d0b2;
      }

      .cls-77 {
        fill: #472116;
      }

      .cls-78 {
        fill: #3d251e;
      }

      .cls-79 {
        fill: #e4a27e;
      }

      .cls-80 {
        fill: #8f5641;
      }

      .cls-81 {
        fill: #e4dfdd;
      }
    </style>
  </defs>
  <g id="_Слой_25_Изображение" data-name="Слой 25 Изображение">
    <g>
      <path class="cls-8" d="M86,57c1.46,2.8,3.35,5.3,5,8-.31,1.36.82,4.35-.65,5.03-2.37,1.09-7.44.38-9.62.97-.33.09-3.78,4.14-4.72,5-1.35,1.23-3.88,1.93-4.9,3.6-.82,1.34-2.12,5.99-3.1,8.4-.93,3.44-12.73,2.27-13.57,1.07-3.11-4.46,2.05-5.51,2.56-6.09,1.7-1.93-2.37-2.11-2.85-3.59-2.27-6.94,1.9-4.82,5.09-6.46,3.98-2.05,3.49-1.68,8-3.2,2.73-.92,4.76-3.91,8.76-2.74-3.08-7.13.42-8.66,7-10,.88-.18,2.07.15,3,0Z"/>
      <path class="cls-33" d="M22,56c1.51.09,6,.47,7,1,.27.14,2.52,3.28,3,4,3.19,4.72,1.38,1.87,6.26,3.02,1.1.26,1.23,1.65,1.74,1.98,4.11,2.68,17.45.09,23,.99.31-1.01-1.03-2.53-1-2.99.2-2.59,1.84-2.54,3-3l-1,2.99c3.63.3,6.47.07,7-3.99,2.98-.7,4.4-.65,6-4,1.66.37,3.27.98,5,1h1c-6.57,1.33-10.07,2.87-7,10-4.01-1.17-6.04,1.82-8.76,2.74-4.52,1.52-4.02,1.15-8,3.2-3.19,1.64-7.36-.48-5.09,6.46.48,1.48,4.55,1.66,2.85,3.59-.51.58-5.67,1.63-2.56,6.09.83,1.2,12.63,2.37,13.57-1.07-.26.63.34,2.66-.02,2.97-.81.7-10.01-.58-12.28,0-1.08.28-1.05,4.34-7.16,3.09-1.18-.24.11-2.9-1.09-3.13-3.13-.61-9.64,1.04-12.21-.2-.21-.1-3.18-3.25-3.25-3.48-.44-1.53.34-3.76,0-5.26.64,2.03,2.42,7.38,4.73,8,1.06.29,10.74.24,11.16-.12.2-.18,1.22-4.69,1.06-5.28-.41-1.45-2.81-1.45-2.93-1.63-.98-1.41,2.21-3.06,2.78-4.69,2.37-6.79-4.13-4.01-6.56-5.54-3.08-1.94-6.25-3.79-10.2-5.28-1.57-.59-3.62-.2-5.05-.95-2.39-1.24,1.99-3.21,1.97-4.02,0-.27-2.93-4.15-3.16-4.28-.75-.44-7.61-.49-8.79-.22v-1c1.46-.16,2.64-1.14,5-1Z"/>
      <path class="cls-3" d="M26,116c-.07.66.06,1.34,0,2-.15,1.64.07,3.35,0,5-.14,3.06.23,6.05-1,9h-1c.08-1.09-1.96-2.73-2-3-.32-2.41.5-13.51,0-14.01-.36-.36-6.63.38-10-.99-.49-3.15.93-1.5,2-2,1.08,1.49,5.85.33,7.02-.5,1.44-1.02.7-2.43.98-3.5.4-1.57,1.06-3.41,1-5-.23-6.17-6.97-5.62-7-13,0-.99.54-2.11,1-3,.66.04,1.34-.05,2,0-1.05,6.08,1.09,7.77,6.99,8,.79-5.5-2.13-7.61-6.99-8,.6-3.44,2.59-2.64,4-6,.14-.32.91-.66,1-1,3.68,6.04,6.42,12.17,4.99,19.49-.43,2.22-2.54,2.81-2.97,5.03-.65,3.34.41,7.94-.01,11.49Z"/>
      <path class="cls-57" d="M67,4c-6.93-.55-15.41-.11-22.51-.02-1.69.02-4.44-.64-5.49,1.02-1.26.28-2.42,1.86-3,3-5.7,1.84-7.04,4.11-10,9-5.93,9.81-2.07,12.65-4.05,21.25-.21.92-1.89,1.44-1.95,1.75-.55,2.45-.46,6.32-1,9-.16-.17-2.24.32-2.85-1.64-.49-1.56-.44-8.06.05-9.66.45-1.45,2.36-2.05,2.78-4.22.8-4.05-.75-9.88.03-13.97.12-.64,6.3-10.15,7.08-10.92C33.87.94,51.28,1.22,61.49,2c1.94.15,4.12.48,5.51,2Z"/>
      <path class="cls-10" d="M87,93c-.73,3.04-2.89,3.31-5,6-.29.37-1.39.41-1.81,1.69-.39,1.2-.06,2.27-.19,3.31-.18,1.4-.1,3.54,0,5,0,.06-1.04.33-.58.98,1.59,2.27,8.39,3.02,10.58,1.02.36-.06.78.11,1,0,2.04-1.01.45-6.99,4-6,.03,1.32-.5,3.31,1,4-7.4,9.11-6.09,3.96-14.3,5.98-1.11.27-2.11,5.25-5.7,4.02.56-5.52,2.5-12.49,0-18,.09-2.27.95-4.3,1-6,5.71-.62,6.76-2.55,6-8,.32-.06.67.03,1,0,5.01,0,.51,4.01,3,6Z"/>
      <path class="cls-51" d="M86,48c-4.39,1.09-.09-7.58-3-9-.39-.19-1.4.13-2,0,.08-2.09-.8-12.91-1.23-15.27-.69-3.8-3.77-5.65-3.77-9.73,0-1.86.42-2.06,2-3,.88,1.1,6,7.98,6,8.5v16c0,.25,2.54,1.78,2.97,4.02.57,2.96.25,5.92-.97,8.48Z"/>
      <path class="cls-47" d="M5,92c1.3,3.48,1.18,1.27,2,2,0,1.54.74,8.91,1.02,10.3.1.47,2.23,1.56,2.98,2.7.51.79-.68,4.22,3,4-.12.05.12.94,0,1-1.07.5-2.49-1.15-2,2-2.25-.91-7.15-5.49-7.78-7.72-.86-3.03.39-6.75-.23-9.59-.18-.83-1.84-.76-2.3-1.9-.98-2.41-1.16-11.63-.67-14.32.38-2.06,1.94-2.32,1.99-2.48,2.2,4.53.04,8.75,2,14Z"/>
      <path class="cls-45" d="M101,78v16c-.73,2.15-1.88,2.29-1.97,2.7-.64,2.81.57,6.75-.05,9.59-.07.32-2.22,1.77-2.98,2.71-1.5-.69-.97-2.68-1-4-.07-3.63-.43-8.58,0-12,.08-.62.79-1.87,1-3,.33-1.78,1.7-3.01,1.95-4.54.45-2.74-.33-5.84.05-8.46.07-.47.52-.89,1-1,.04.14,1.41.78,2,2Z"/>
      <path class="cls-10" d="M54,121c.31,4.77,2.28,2.81,2.87,4.59.31.94-.82,1.93-.87,2.41-6.7-1.65-1.24-12.84-7.49-12.01-1.14,5.99,2.14,9.87-5.51,12.01-.28.08-.65-.04-1,0-.49-2.92-.9-7.86,3-8,.08,0,.26,1.21.98,1.01v-9.01c12.04-.76,7.49.9,8.02,9Z"/>
      <path class="cls-77" d="M17,57v1c-5.2,1.18-5.4,8.79-7,12-.35.71-1.67,1.38-2,2-1.61,3.05.01,5.64-3,5-.21-1.01.41-2.43-1-3,.32-1.5-.46-3.67.15-5.36.48-1.33,2.3-1.34,2.61-1.86.69-1.17-.15-3.25.73-4.78.2-.34,5.43-5.2,5.79-5.37,2.51-1.13,3.52.39,3.72.36Z"/>
      <path class="cls-73" d="M42,128c.24,1.44.49,1.22,1,2,2.36,3.64,3.83,3.61,3.06,9.54-.51,3.92-2.02,3.42-4.06,5.46l-2-2c4.02-3.54-1.7-12.71,0-15.01.11-.15,1.55.06,2,0Z"/>
      <path class="cls-20" d="M20,40l6.55,7.03-.55,5.97c-1.33-.05-2.67.03-4,0-.04-.34.07-.7,0-1-.08-.33.09-.71,0-1-.41-1.29-.48-1.28-1,0h-1c-.42-.49-.58-1.54-1-2,.54-2.68.45-6.55,1-9Z"/>
      <path class="cls-59" d="M24,132c-.02.22-1.62,2.77-2,4-1,3.26-3.08,5.75-2,10,6.17,0,11.87-.94,18,0-2.76,2.91-14.16-.87-18,2-1.37-.5-3.63-1.49-4-3,4.81,1.46,3.32-5.52,2-9,1.21-2.54,1.85-4.88,4-7,.04.27,2.08,1.91,2,3Z"/>
      <path class="cls-70" d="M82,146c-2.69-4.64,1.1-7.44-3-12-.58-.65-1.14-.66-2-2,.28-2.75-.69-5.33-1-8,5.27-.53,2.67,2.5,3.71,4.69.73,1.53,2.66,2.6,3.08,4.02.84,2.83.49,10.56-.79,13.29Z"/>
      <path class="cls-17" d="M76,119c-.05.48-.87,1.31-.88,2.5s.82,1.98.88,2.5c.31,2.67,1.28,5.25,1,8-2.17-3.38-2.97-6.89-6.98-9.5,3.77-1.15,2.45-3.55,2.98-4.5.35-.61.76-1.35,1-2,.06-.15,1.61-.38,1.98-2.48.57-3.22-.11-7.97.02-11.52.01-.33-.01-.67,0-1,2.5,5.51.56,12.48,0,18Z"/>
      <path class="cls-66" d="M96,67c-.43.61-1.84,1.5-2,2-1.63-.78-2.14-2.59-3-4-1.65-2.7-3.54-5.2-5-8,1.2-.19,1.77-2.23,4.57-.07.31.24,4.52,5.5,4.91,6.13.88,1.42.24,3.3.52,3.94Z"/>
      <path class="cls-12" d="M67,4c2.62.21,3.96.67,6,2v3c-1.36-.87-2.71-.68-4-1-3.14-.77-5.8-2.69-8.46-3.04-3.13-.42-18.88-.55-21.54.04,1.04-1.66,3.8-1,5.49-1.02,7.11-.09,15.59-.54,22.51.02Z"/>
      <path class="cls-14" d="M82,146c-.51,1.07-.99,1.45-2,2-4.77-2.84-18.88.95-22-2h3c3.9,0,12.18.72,15.3-.2s2.58-4.28,2.7-6.8c.08-1.66-.06-3.34,0-5,4.1,4.56.31,7.36,3,12Z"/>
      <path class="cls-74" d="M55,121c7,5.5,7.57,8.74,2,16-.15-3.56,1.36-5.76-3-5,.25-.76,1.99-1.3,2.46-2.01.63-.95-.48-1.74-.46-1.99.05-.48,1.18-1.46.87-2.41-.58-1.78-2.55.17-2.87-4.59h1Z"/>
      <path class="cls-78" d="M42,145c-.77.77-1.33,2.43-2.42,3.05-3.27,1.87-15.89,1.3-19.58-.05,3.84-2.87,15.24.91,18-2,.46-.49,1-2.28,1-3h1l2,2Z"/>
      <path class="cls-64" d="M58,146c3.12,2.95,17.23-.84,22,2-2.68,1.47-16.83,1.52-20.57,1.05-2.85-.35-2.1-.72-3.43-2.05,1.31-.48.95-1.9,1-3,.81.35.79,1.8,1,2Z"/>
      <path class="cls-44" d="M54,132c4.36-.76,2.85,1.44,3,5,.1,2.29.1,4.71,0,7-.05,1.1.31,2.52-1,3-.8-.8-1.62-.44-1.98-2.48-.27-1.5-.35-11.48-.02-12.52Z"/>
      <path class="cls-16" d="M99,76c-.48.11-.93.53-1,1-.87.1-2.6-1.05-3-1,.96-1.86-.93-4.22-1-5-.05-.54-.12-1.63,0-2,.16-.5,1.57-1.39,2-2,.12.26,2.28.88,2.8,2.68.61,2.11-.24,4.78.2,6.32Z"/>
      <path class="cls-1" d="M83,51c-1.74,2.2-2.27,3.22-1,6-1.73-.02-3.34-.63-5-1-2.46-.56-3.5,1.46-3-3,.65-.27,2.24.26,3,0,2.27-.77,2.56-1.35,4-3l2,1Z"/>
      <path class="cls-80" d="M78,11c-1.58.94-2,1.14-2,3-2.35-.34-5.14-4.03-7-6,1.29.31,2.64.13,3.99,1v-3c2.42,1.57,3.3,2.86,5.01,5Z"/>
      <path class="cls-34" d="M5,77c1.21,5.79-.1,9.17,0,15-1.96-5.25.2-9.47-2-14,.4-1.29.72-2.68,1-4,1.41.57.79,1.99,1,3Z"/>
      <path class="cls-13" d="M18,136c1.32,3.48,2.81,10.46-2,9-.32-1.33-.2-6,.19-7.35.36-1.22,1.72-1.47,1.81-1.65Z"/>
      <path class="cls-50" d="M26,53c1,.04,2.01-.05,3,0v4.01c-1.01-.53-5.49-.91-7-1,1.22-1.26.11-2.13,0-3,1.33.03,2.67-.05,4,0Z"/>
      <path class="cls-58" d="M83,39c2.91,1.42-1.39,10.09,3,9-.93,1.93-2.3,2.12-3,3l-2-1c.48-.55,1.77-.73,1.98-1.73.57-2.69-.33-6.39.02-9.27Z"/>
      <path class="cls-11" d="M101,94v-16c1.88,3.92,1.42,11.82,0,16Z"/>
      <path class="cls-31" d="M43,130c-.51-.78-.76-.56-1-2,.35-.04.72.08,1,0v2Z"/>
      <path class="cls-69" d="M22,52h-1v-1h1c.09.29-.08.67,0,1Z"/>
      <path class="cls-4" d="M21,52c-.5-.18-.69-.64-1-1h1v1Z"/>
      <path class="cls-54" d="M32,82c.33,1.5-.44,3.73,0,5.26.07.23,3.03,3.37,3.25,3.48,2.57,1.24,9.08-.41,12.21.2,1.2.23-.09,2.89,1.09,3.13,6.11,1.25,6.09-2.81,7.16-3.09,2.27-.59,11.48.69,12.28,0,.36-.31-.24-2.33.02-2.97.98-2.41,2.28-7.06,3.1-8.4,1.02-1.67,3.56-2.37,4.9-3.6l2.99-1.01c-.57,1.71.74,2.95,1.01,4.01.08.32-.09.7,0,1-3.51-1.25-3.92,3.77-5,7-.33.97-1.64,1.78-1.94,3.53-.57,3.34-1.04,10,2.94,11.47-.12,3.55.55,8.3-.02,11.52-.37,2.1-1.93,2.33-1.98,2.48-.2-2.03.6-5.35-.47-7.03-3.09-4.87-6.5,9.17-.53,9.03-.54.95.79,3.35-2.98,4.5,4.02,2.61,4.81,6.13,6.98,9.5.86,1.34,1.42,1.35,2,2-.06,1.66.08,3.34,0,5-6.57-9.24-23.66-6.23-18,7h-3c-.21-.2-.19-1.65-1-2,.1-2.29.1-4.71,0-7,5.57-7.26,5-10.5-2-16-1.88-3.17,3.47-8.42,2-10-.41-.44-9.86.21-12,0-3.31-.33-2.3-2.68-3.51-3-3.33-.88-1.46,2.78-1.49,3-.29,1.91-1.31,5.07-2,7-.47,1.32-1.32,3.51-2.99,3.99.83-3.09-1.54-2.87-2.43-4.09-.79-1.08-.48-2.8-.58-2.91.09.33,2.57,3.3,2.99,3,.68-1.72,1.69-9.31,1.01-9.99-2.67-2.69-4.83,3.81-3.99,7-1.45-1.61-2.36,1.5-3,2,.44-2.13,1.57-7.46-.02-9-2.65-2.56-1.95,5.68-2.06,6.41-.12.81-.91,1.4-.93,1.59.43-3.54-.64-8.15.01-11.49.43-2.22,2.54-2.81,2.97-5.03,1.43-7.32-1.31-13.44-4.99-19.49.35-1.32-.83-4.18,1-5,1.67,1.41,6.59,5.17,7,7ZM62,94c1.23,2.96.2,1.9,0,3h-1c-.85-2.82-5.11-2.45-7-1-4.51,3.47,3.16,3.35,5.99,3.01l-3.99,2.99c-.33,0-.67-.02-1,0-4.43.25-2.35,4.44,3.57,4.09,3.71-.22,2.21-2.18,4.09-2.9,1.37-.52,3.98.22,4.91-1.12,2.63-3.77-.73-9.26-5.06-10.09-3.24-.62-.57,1.87-.51,2.02ZM40,94c-5.75-.15-6.17,6.14-3.52,10.02,1.71,2.5,2.1-1.8,3.04-2.06,1.79-.49,4.46,3.86,8.47,2.03.59-3.15-2.16-1.34-4.99-2.99-.63-4.63,7.07.56,5.99-3.99-5.37,2.06-6.32-2.94-8.99-3.01ZM64.99,111c-3.74-.44-.16,4.27-4.99,3,1.04,8.27,6.22,3.03,4.99-3ZM65.5,121.02c-2.07,0-2.07,6.96,0,6.96s2.07-6.96,0-6.96Z"/>
      <path class="cls-22" d="M94,69c-.12.37-.05,1.46,0,2-2.48,1.6-1.86,4.55-2,7-.17,2.98.13,6.02,0,9.01-.66,0-1.33.02-2,0,2.78-9.41,1.26-14.69-9.42-13.02-1.26.2-.3,3.82-.58,5.02-.27-1.06-1.58-2.3-1.01-4.01l-2.99,1.01c.95-.87,4.39-4.91,4.72-5,2.18-.6,7.25.12,9.62-.97,1.47-.68.34-3.67.65-5.03.86,1.41,1.37,3.22,3,4Z"/>
      <path class="cls-35" d="M61,45c-2,3.58,2,4.05,2.05,4.56.25,2.51-2.28,3.16-2.05,5.44h6s1.01-7.99,1.01-7.99c5.57,3.51,1.76,8.53,0,13-.64.13-2.29.72-3,1-1.16.46-2.8.41-3,3h-22c-.88-3.65-1.72-3.04-5-3-.12-2.26-2.36-3.68-2.82-5.72s-.53-8,2.81-7.27l1.01,6.99h6c-.73-3.26-1.49-2.85-1-6,1.13-.79,5.78-.8,6-1.01,1.75-1.64-3.45-3.19-5-3.99-3.34-1.72-8.38-3.21-11.35-5.15-8.58-5.62-4.37-13.42-4.65-21.85,2.96-4.89,4.3-7.16,10-9,10.58-3.41,20.78-3.09,29.94,3.56,4.16,3.02,7.75,8.86,8.01,14.08.14,2.92-2.65,15.55-4.92,16.88-2.65,1.56-5.96-1.22-8.02,2.48Z"/>
      <path class="cls-37" d="M17,58c1.18-.27,8.04-.22,8.79.22.23.13,3.15,4.02,3.16,4.28.02.81-4.36,2.77-1.97,4.02,1.43.74,3.48.35,5.05.95,3.95,1.49,7.12,3.34,10.2,5.28,2.43,1.53,8.93-1.25,6.56,5.54-.57,1.63-3.76,3.28-2.78,4.69.12.18,2.52.17,2.93,1.63.17.6-.85,5.11-1.06,5.28-.42.37-10.1.41-11.16.12-2.3-.62-4.09-5.97-4.73-8-.41-1.83-5.33-5.59-7-7-1.11-.94-1.61-3.19-3.71-3.8-3.24-.94-7.8.57-11.29-1.2,1.6-3.21,1.8-10.82,7-12Z"/>
      <path class="cls-32" d="M42,44h-6.01s0,11,0,11l-1.01-6.99c-3.34-.73-3.27,5.22-2.81,7.27s2.7,3.46,2.82,5.72c-1,.01-2,0-3,0-.48-.72-2.73-3.86-3-4v-4.01c-.99-.05-2,.04-3,0l.55-5.97-6.55-7.03c.07-.31,1.74-.83,1.95-1.75,1.98-8.6-1.89-11.44,4.05-21.25.29,8.42-3.92,16.23,4.65,21.85,2.97,1.95,8.01,3.43,11.35,5.15Z"/>
      <path class="cls-67" d="M62,64c-.04.46,1.31,1.98,1,2.99-5.55-.91-18.89,1.69-23-.99-.09-.64.14-1.44,0-2h22Z"/>
      <path class="cls-48" d="M35,61c3.28-.04,4.12-.65,5,3,.14.56-.09,1.36,0,2-.51-.33-.64-1.72-1.74-1.98-4.89-1.15-3.07,1.71-6.26-3.02,1,0,2,.01,3,0Z"/>
      <path class="cls-63" d="M71,60c-.53,4.07-3.37,4.3-7,3.99l1-2.99c.71-.28,2.36-.87,3-1,.9-.18,2.15.2,3,0Z"/>
      <path class="cls-46" d="M74,53c-.5,4.46.54,2.44,3,3-1.6,3.35-3.02,3.3-6,4,.53-4.08.59-1.33,1.74-3.25.66-1.11-.27-3.11,1.26-3.75Z"/>
      <path class="cls-52" d="M40,111c.03-.23-1.84-3.88,1.49-3,1.21.32.2,2.67,3.51,3v9c-3.9.14-3.49,5.08-3,8-.45.05-1.89-.15-2,0-1.71,2.29,4.02,11.47,0,15.01h-1c.06-9.52-10.16-10.28-17-7,.38-1.23,1.98-3.78,2-4h1c5.66.8,5.4-7.17,1-9,.07-1.65-.15-3.36,0-5,.97-.21,2.22-.39,3-1,.64-.5,1.55-3.61,3-2,.1.11-.21,1.83.58,2.91.89,1.22,3.25.99,2.43,4.09,1.67-.49,2.52-2.68,2.99-3.99h4c-.07-2.53.88-6-2-7Z"/>
      <path class="cls-76" d="M16,90c.03,7.38,6.77,6.83,7,13-3.13,5.43-2.44-1.07-6-1-2.74,1.37.34,8.66,0,8.99-.28.28-2.35-.26-3,0-3.68.22-2.49-3.21-3-4,.22-6.64.93-8.62-4-13,0-5.98,4.54-3.69,9-4Z"/>
      <path class="cls-41" d="M11,78c1.06-4.19,10.83-5.22,12-4.01.34.35-.24,5.64,0,7.01-1.41,3.36-3.4,2.56-4,6-.66-.05-1.34.04-2,0-1.99-.12-4.02.09-6.01,0,.42-2.62-.58-6.69,0-9.01Z"/>
      <path class="cls-62" d="M8,72c.56,2.36.57,4.83,3,6-.58,2.31.42,6.39,0,9.01,1.99.09,4.02-.13,6.01,0-.46.89-1,2.01-1,3-4.46.31-9.01-1.98-9,4-.82-.73-.7,1.48-2-2-.1-5.83,1.21-9.21,0-15,3.01.64,1.39-1.95,3-5Z"/>
      <path class="cls-39" d="M25,75c-1.83.82-.65,3.68-1,5-.09.34-.86.68-1,1-.24-1.37.35-6.65,0-7.01-1.18-1.22-10.95-.19-12,4.01-2.43-1.17-2.44-3.64-3-6,.33-.62,1.65-1.29,2-2,3.49,1.77,8.05.27,11.29,1.2,2.09.6,2.59,2.85,3.71,3.8Z"/>
      <path class="cls-81" d="M19,87c4.86.39,7.79,2.49,6.99,8-5.9-.23-8.05-1.92-6.99-8Z"/>
      <path class="cls-24" d="M17,102v6.01s5,0,5,0c-.27,1.06.46,2.48-.98,3.5-1.17.83-5.95,1.99-7.02.5.12-.06-.12-.95,0-1,.65-.26,2.71.27,3,0,.34-.34-2.74-7.62,0-8.99Z"/>
      <path class="cls-2" d="M17,102c3.56-.07,2.87,6.43,6,1,.06,1.59-.6,3.43-1,5h-5.01s0-6,0-6Z"/>
      <path class="cls-60" d="M26,116c.02-.18.8-.78.93-1.59.11-.74-.59-8.98,2.06-6.41,1.58,1.53.45,6.87.02,9-.78.61-2.03.79-3,1,.06-.66-.07-1.34,0-2Z"/>
      <path class="cls-65" d="M25,132c1.23-2.95.86-5.94,1-9,4.4,1.83,4.66,9.8-1,9Z"/>
      <path class="cls-30" d="M69,8c1.86,1.97,4.65,5.66,7,6,0,4.08,3.07,5.93,3.77,9.73.43,2.36,1.31,13.18,1.23,15.27-.16,4.33-7.58,8.7-4,14-.76.26-2.35-.27-3,0-1.54.64-.6,2.64-1.26,3.75-1.15,1.92-1.21-.83-1.74,3.25-.85.2-2.1-.18-3,0,1.77-4.47,5.58-9.49,0-13l-1.01,8c.11-5.17,1.28-12.94-6-10,2.07-3.69,5.38-.92,8.02-2.48,2.27-1.33,5.06-13.96,4.92-16.88-.25-5.21-3.84-11.05-8.01-14.08-9.16-6.65-19.36-6.97-29.94-3.56.58-1.14,1.74-2.72,3-3,2.66-.59,18.42-.47,21.54-.04,2.65.36,5.31,2.28,8.46,3.04Z"/>
      <path class="cls-21" d="M96,90c-.21,1.13-.92,2.38-1,3-5.07,2.97-2.67,12.59-4,18-.22.11-.64-.06-1,0-3.54.61-4.42.41-4-3,.14-1.1,1.66-4.81-.06-5.96-3.2-2.15-3.19,4.53-5.94,1.96.13-1.03-.2-2.11.19-3.31.42-1.28,1.52-1.33,1.81-1.69,3.75.75,5.7-2.33,8.52-3.99.92-1.26-6.32-3.47-.52-4.01,1.71,0,3.98-1.45,6-1Z"/>
      <path class="cls-36" d="M90,87c-2.85-.13-3.38-.21-6,0-.33.03-.68-.06-1,0-.17-1.2-.56-1.95-1-3-.46-1.1-1-.74-2-4-.09-.3.08-.68,0-1,.27-1.2-.68-4.82.58-5.02,10.68-1.67,12.2,3.6,9.42,13.02Z"/>
      <path class="cls-79" d="M98,77c-.39,2.62.39,5.72-.05,8.46-.25,1.53-1.62,2.76-1.95,4.54-2.02-.45-4.29,1-6,1-.19,0-1.67-1.6-2.99-1-.15.94.19,2.16,0,3-2.49-1.99,2.01-6-3-6,2.62-.21,3.15-.13,6,0,.66.03,1.34,0,2,0,.13-2.98-.16-6.03,0-9.01.9-.39,2.23-1.9,3-2,.4-.05,2.13,1.1,3,1Z"/>
      <path class="cls-15" d="M82,84c.44,1.05.83,1.8,1,3-.92.17-2.25-.34-3.24,0-.23.08-3.39,3.02-3.5,3.23-1.25,2.49.75,4.28.74,4.77-.05,1.7-.91,3.73-1,6-.01.33.01.67,0,1-3.98-1.47-3.52-8.13-2.94-11.47.3-1.75,1.62-2.56,1.94-3.53,3.74.27,3.59-3.87,7-3Z"/>
      <path class="cls-27" d="M83,87c.76,5.45-.29,7.38-6,8,.01-.49-1.99-2.28-.74-4.77.11-.21,3.28-3.16,3.5-3.23.99-.33,2.32.18,3.24,0Z"/>
      <path class="cls-19" d="M95,105c-3.55-.99-1.96,4.99-4,6,1.33-5.41-1.07-15.03,4-18-.43,3.42-.07,8.37,0,12Z"/>
      <path class="cls-55" d="M80,104c2.75,2.57,2.74-4.1,5.94-1.96,1.72,1.15.2,4.85.06,5.96l-6,1c-.1-1.46-.18-3.6,0-5Z"/>
      <path class="cls-18" d="M90,91c-5.8.54,1.44,2.75.52,4.01-2.81,1.66-4.76,4.74-8.52,3.99,2.11-2.69,4.27-2.96,5-6,.2-.83-.14-2.05,0-3,1.33-.61,2.81,1,2.99,1Z"/>
      <path class="cls-28" d="M86,108c-.42,3.41.46,3.61,4,3-2.2,2-9,1.25-10.58-1.02-.45-.65.59-.92.58-.98l6-1Z"/>
      <path class="cls-5" d="M83,39c-.35,2.88.55,6.58-.02,9.27-.21,1-1.5,1.18-1.98,1.73-1.44,1.65-1.73,2.23-4,3-3.58-5.3,3.84-9.67,4-14,.6.13,1.61-.19,2,0Z"/>
      <path class="cls-75" d="M11,107c-.75-1.15-2.88-2.23-2.98-2.7-.28-1.39-1.02-8.76-1.02-10.3,4.93,4.38,4.22,6.36,4,13Z"/>
      <path class="cls-43" d="M45,111c2.15.22,11.6-.44,12,0,1.46,1.58-3.88,6.83-2,10h-1c-.53-8.1,4.03-9.76-8-9v9.01c-.73.21-.91-1.01-1-1.01v-9Z"/>
      <path class="cls-70" d="M22,51h-1c.52-1.28.59-1.29,1,0Z"/>
      <path class="cls-53" d="M39,143c0,.72-.54,2.51-1,3-6.13-.93-11.84,0-18,0-1.07-4.25,1-6.74,2-10,6.84-3.28,17.06-2.52,17,7Z"/>
      <path class="cls-49" d="M74,116c-.24.65-.65,1.39-1,2-5.97.13-2.56-13.9.53-9.03,1.07,1.69.27,5,.47,7.03Z"/>
      <path class="cls-7" d="M61,146c-5.66-13.23,11.43-16.24,18-7-.12,2.52.56,5.83-2.7,6.8s-11.4.2-15.3.2Z"/>
      <path class="cls-53" d="M95,76c-.77.1-2.1,1.61-3,2,.14-2.45-.48-5.4,2-7,.07.78,1.96,3.14,1,5Z"/>
      <path class="cls-61" d="M62,94c-.06-.15-2.73-2.64.51-2.02,4.32.83,7.68,6.32,5.06,10.09-.93,1.34-3.54.59-4.91,1.12-1.88.72-.38,2.68-4.09,2.9-5.92.36-8-3.84-3.57-4.09-2.59,4.99,8.2,3.47,5,0-.14-.15-3.1,0-4,0l3.99-2.99c-2.84.34-10.5.46-5.99-3.01-1.03,3.21,4.89,2.54,7,1h1c-.31,1.66-1.23,3.22-1,4.99,8.05,1.59,8.4-7.17,1-7.99Z"/>
      <path class="cls-29" d="M40,94c-1.99,2.79.58,5.59,3,7,2.84,1.66,5.59-.15,4.99,2.99-4.02,1.82-6.68-2.52-8.47-2.03-.94.26-1.33,4.56-3.04,2.06-2.65-3.88-2.23-10.17,3.52-10.02Z"/>
      <path class="cls-26" d="M62,94c7.41.82,7.05,9.59-1,7.99-.24-1.78.69-3.34,1-4.99.2-1.1,1.23-.04,0-3Z"/>
      <path class="cls-71" d="M32,115c-.84-3.18,1.32-9.68,3.99-7,.68.69-.32,8.28-1.01,9.99-.42.31-2.9-2.66-2.99-3Z"/>
      <path class="cls-6" d="M40,94c2.68.07,3.63,5.06,8.99,3.01,1.07,4.56-6.63-.63-5.99,3.99-2.42-1.41-4.99-4.21-3-7Z"/>
      <path class="cls-9" d="M64.99,111c1.23,6.03-3.95,11.27-4.99,3,4.84,1.28,1.25-3.44,4.99-3Z"/>
      <path class="cls-72" d="M80,80c1,3.26,1.54,2.9,2,4-3.41-.87-3.26,3.27-7,3,1.08-3.23,1.49-8.25,5-7Z"/>
      <path class="cls-56" d="M40,111c2.88,1,1.94,4.47,2,7h-4c.69-1.93,1.71-5.09,2-7Z"/>
      <path class="cls-68" d="M61,97c-2.11,1.54-8.03,2.21-7-1,1.89-1.45,6.15-1.82,7,1Z"/>
      <path class="cls-40" d="M65.5,121.02c2.07,0,2.07,6.96,0,6.96s-2.07-6.96,0-6.96Z"/>
      <path class="cls-42" d="M56,102c.9,0,3.87-.14,4,0,3.2,3.47-7.6,4.98-5,0,.33-.02.67,0,1,0Z"/>
      <path class="cls-25" d="M42,44c.65,1.93-.79,3.67-1,5-.5,3.15.26,2.74,1,5.99h-6s0-11,0-11h6.01Z"/>
      <path class="cls-23" d="M67,55h-6c-.23-2.28,2.3-2.93,2.05-5.44-.05-.51-4.06-.98-2.05-4.56,7.28-2.94,6.11,4.83,6,10Z"/>
      <path class="cls-38" d="M42,44c1.56.8,6.76,2.36,5,3.99-.22.21-4.87.21-6,1.01.21-1.33,1.65-3.07,1-5Z"/>
    </g>
  </g>
</svg>