<?xml version="1.0" encoding="UTF-8"?>
<svg id="_Слой_2" data-name="Слой 2" xmlns="http://www.w3.org/2000/svg" viewBox="0 0 100 151">
  <defs>
    <style>
      .cls-1 {
        fill: #fbdec7;
      }

      .cls-2 {
        fill: #421b10;
      }

      .cls-3 {
        fill: #512a1d;
      }

      .cls-4 {
        fill: #fcd2b4;
      }

      .cls-5 {
        fill: #e1ba9f;
      }

      .cls-6 {
        fill: #fcd3b5;
      }

      .cls-7 {
        fill: #8e5949;
      }

      .cls-8 {
        fill: #fde3cd;
      }

      .cls-9 {
        fill: #f9ccae;
      }

      .cls-10 {
        fill: #482217;
      }

      .cls-11 {
        fill: #da9977;
      }

      .cls-12 {
        fill: #facfb1;
      }

      .cls-13 {
        fill: #df9e7b;
      }

      .cls-14 {
        fill: #895a4b;
      }

      .cls-15 {
        fill: #e3a07c;
      }

      .cls-16 {
        fill: #51291b;
      }

      .cls-17 {
        fill: #5e2f20;
      }

      .cls-18 {
        fill: #4c251a;
      }

      .cls-19 {
        fill: #8a4a32;
      }

      .cls-20 {
        fill: #e29f7b;
      }

      .cls-21 {
        fill: #e5a07c;
      }

      .cls-22 {
        fill: #e49f7b;
      }

      .cls-23 {
        fill: #40190d;
      }

      .cls-24 {
        fill: #894a33;
      }

      .cls-25 {
        fill: #593d34;
      }

      .cls-26 {
        fill: #411a0f;
      }

      .cls-27 {
        fill: #fdd4b6;
      }

      .cls-28 {
        fill: #fcd2b5;
      }

      .cls-29 {
        fill: #552b1d;
      }

      .cls-30 {
        fill: #975941;
      }

      .cls-31 {
        fill: #441e13;
      }

      .cls-32 {
        fill: #f7cbad;
      }

      .cls-33 {
        fill: #50332b;
      }

      .cls-34 {
        fill: #e29f7c;
      }

      .cls-35 {
        fill: #da9673;
      }

      .cls-36 {
        fill: #3d261f;
      }

      .cls-37 {
        fill: #8e4e35;
      }

      .cls-38 {
        fill: #e5a07b;
      }

      .cls-39 {
        fill: #d38f73;
      }

      .cls-40 {
        fill: #fad0b3;
      }

      .cls-41 {
        fill: #39231d;
      }

      .cls-42 {
        fill: #573023;
      }

      .cls-43 {
        fill: #4a2318;
      }

      .cls-44 {
        fill: #562d20;
      }

      .cls-45 {
        fill: #f4d5bf;
      }

      .cls-46 {
        fill: #e5a17c;
      }

      .cls-47 {
        fill: #fbd2b4;
      }

      .cls-48 {
        fill: #d29578;
      }

      .cls-49 {
        fill: #d7997b;
      }

      .cls-50 {
        fill: #301913;
      }

      .cls-51 {
        fill: #382018;
      }

      .cls-52 {
        fill: #d49174;
      }

      .cls-53 {
        fill: #825044;
      }

      .cls-54 {
        fill: #40241d;
      }

      .cls-55 {
        fill: #e5a481;
      }

      .cls-56 {
        fill: #ebbd9f;
      }

      .cls-57 {
        fill: #4d251a;
      }

      .cls-58 {
        fill: #502416;
      }

      .cls-59 {
        fill: #865244;
      }

      .cls-60 {
        fill: #8c4c34;
      }
    </style>
  </defs>
  <g id="_Слой_5_Изображение" data-name="Слой 5 Изображение">
    <g>
      <path class="cls-49" d="M25,94c2.08,5.69,2.99,6.41,7.23,10.75,3.87.66,7.88.04,11.77.25-.85,3.58-3.79,6.63,1,7-.18.98-.33,2.24-1,3-.13.15-1.75-.54-2.04.63-.7,2.82.89,7.9-.11,10.75-.48,1.36-2.6,1.27-2.87,2.32-1.2,4.61,2.77,14.91-4.68,17.09-3.76,1.1-5.64-.36-8.3-.79-.11-.62.16-1.49,0-2,10.94,2.46,15.27-16.96,1-11,.35-1.43.54-2.51,1-4,.22-.71,1.51-2.28,1-2.99-.09-.13-2.43-.39-3-1.01.11-.97-.04-2.01,0-3h6.01c.16-5.11,1.1-9.79-4.52-11.99-1.73-.68-1.35.43-1.49,1.47-.42,3.16.13,7.17,0,10.52-1,0-2,0-3,0,.02-.49-1.01-1.55-1-2,.08-4.56-.36-9.55,0-14,.02-.19.84-.78.93-1.59.38-3.45-.79-6.68,2.07-9.41ZM35.01,112c-.36.35-.85,9.69,2.48,8.99,3.57-.75,1.03-12.45-2.48-8.99Z"/>
      <path class="cls-46" d="M64,58c.28.58-.58,2.04.51,2.02,1.75-.03,3.12-2.68,5.49-2.02.1.98-.1,2.01,0,3,.99.08,2.01-.08,3,0-1.89,5.12,4.73,17.5,9.94,15.51,4.42-1.69,5.45-4.23,4.06-8.51h1c.62,3.51,2.49,4.32,4,1,.03.32,0,.67,0,1-.08,3.41-2.05,6.86,0,10-2.8-.4-3.11.12-4.5-3-.66,2.31-4.33,3.93-5.03,5.02-1.15,1.79.73,6.14.52,8.98-1,0-2-.04-3,0-.27-2.19,1.33-11.7-2.47-10.97-.76.15-1.35,1.92-1.53,1.97-1.64.45-3.44.14-6,1-.2-4.72-7.55-2.84-9.92-1.41-5.39,3.24-1.08,10.24-6.08,11.41.81-1.51-1.81-2.78-3-3,1.19,1.57,1.83.03,2.01-1.48.34-2.89-.53-8.36.95-10.88.68-1.16,2.51-.33,2.89-.74.45-.49-.05-3.23.66-4.89.9-2.09,4.86-3.33,5.47-6.54.43-2.29-.2-5.1.03-7.49-1.43.25-3.86-.37-5.01,0,1.03-1.57,5.19-1.69,6,0ZM70.38,74.38c.93-.9,2.95-1.16,2.59-2.83-7.38-10.85-14.76,9-4.62,5.27,1.2-.44,1.32-1.76,2.03-2.45Z"/>
      <path class="cls-26" d="M71,8l-1,3c-4.55-3.78-6.8-2.06-8.8-3.23-.48-.28-.51-2.17-1.82-2.62-1.95-.67-5.97-.06-8.39-.15-3.44-.12-11.53-.62-14.29.21-1.14.34-1.82,1.74-2.8,2.2-3.47,1.6-11.57,5.67-12.9,9.6-.1.29.09.68,0,1-2.47.71-1.73,2.73-2.02,4.48-.7,4.16-1.24,8.37-1.98,12.52-.3,1.72-.75,1.53-1,5-.17,2.43-1.06,2.03,0,6-.6-.13-1.61.19-2,0v-16c1.79-5.41,2.56-13.35,5.59-17.91.26-.4,6.23-6.61,6.66-6.82,1.29-.61,2.83.03,4.09-.43,1.39-.51,1.23-2.28,2.46-2.83,1.29-.58,26.95-.83,28.32-.44,3.65,1.03,7.24,4.2,9.89,6.43Z"/>
      <path class="cls-23" d="M80,91c1-.04,2,0,3,0-.24,3.33-1.25,3.55-3,6-1.94,2.71-4.14,2.82-4,8,.18,6.77,6.48,8.62,12,5,.54-.36,1.82-.74,2-1l2,1c-1.05,1.24-2.59,3.89-4.02,4.49-2.01.84-8.04.37-8.84,1.66-1.34,2.16.91,13.06.68,13.71-.19.52-4.88,3.65-5.82,4.15-.2-.64-.94-1.45-1-2-.08-.65.08-1.35,0-2,3.71-3.05,4.6-9.99,2.97-14.23-.64-1.66-2.49-.14-2.97-4.77s.61-9.98-.03-14.47c-.38-2.68-3.56-2.61.03-4.53,1.41-.76,5.24-.94,7-1Z"/>
      <path class="cls-2" d="M44,115c.66.04,1.34-.05,2,0-1.96,5.22-.11,11.57-1.04,16.46-.39,2.04-2.16,3.21-2.74,5.26-.72,2.56-.04,7.84-1.16,9.8-2.91,5.07-20.77,6.11-21.06-2.51,1.48.37,4.26.72,6,1,2.66.43,4.54,1.89,8.3.79,7.45-2.18,3.48-12.48,4.68-17.09.27-1.05,2.4-.95,2.87-2.32,1-2.85-.6-7.93.11-10.75.29-1.17,1.92-.48,2.04-.63Z"/>
      <path class="cls-20" d="M9,76c-.34,4.53,1.76,3.73,5,4l-2,1.49c.81,1.5,3.16,2.52,4,3.51.11.13-.16,1.03.31,1.67.9,1.2,3.44.94,2.69,4.33-2.99-.07-6.01.11-9,0-1.32-.05-2.68.11-4,0-.33-.03-.67.04-1,0-2.01-3.39,0-6.44-.09-9.42-.04-1.4-.85-2.93-.91-4.58,3.68,2.56,2.6-.21,3.98-1.47.37-.34.97.49,1.02.47Z"/>
      <path class="cls-51" d="M82,45c-3.81.78-1.38-7.05-2-10.54-.19-1.08-.87-1.21-1-1.46-2.34-4.66-1.7-5.83-3.11-10.39-1.23-3.97-2.92-9.13-5.89-11.61l1-3c2.57,2.16,8.04,7.65,8.86,10.73.57,2.13-1.08,4.33-.86,6.69.22,2.47,2.53,3.84,2.96,6.12.28,1.46.44,12.85.04,13.46Z"/>
      <path class="cls-41" d="M20,91c.66.04,1.34-.06,2,0v14.01c-.36,4.45.09,9.44,0,14-5.93-1.53-1.53-18.54-3-20-.56-.56-4.97,1.47-9-2,3.85-2.35,10.24,1.15,10-6Z"/>
      <path class="cls-53" d="M90,65c-2.67-.47-2.04.63-2,3h-1c-1.36-4.18-1.54-2.28-4-3-.92-.27-1.2-.88-3-1,1.1-4.72-3.19-2.72-7-3-.99-.07-2.01.08-3,0-.09-.99.1-2.02,0-3-.03-.32,0-.67,0-1,3.4,3.06,5.55-.88,6-1,.39-.11,7.65,1.45,8.02,1.62,2.4,1.09,4.63,5.13,5.98,7.38Z"/>
      <path class="cls-31" d="M22,49c.75.17,2.3-.41,2.85.13.61.6.53,4.02,1.15,4.87,1.33,5.92-5.87,1-9,4-2.08.07-4.13-.23-6,1-.25-.14-.75.15-1,0-.43-.26-.99-.26-1-1,.26-.25-.17-2.29,1.61-2.86,2.18-.7,9.77.39,10.38-.14-.79-2.75-2.56-4.11-3.99-6.99,1.73.03,3.34.62,5,1Z"/>
      <path class="cls-50" d="M4,69c.25,2.53-.1,5.39,0,8,.06,1.64.86,3.18.91,4.58.09,2.98-1.91,6.03.09,9.42-1.02-.14-3.79-.61-4.04-1.67-.46-1.9-.35-17.56.05-19.86s1.73-2.05,1.99-2.48c.19.63.95,1.47,1,2Z"/>
      <path class="cls-10" d="M64,134c2.41.06,3.16-.59,5-1,1.33-.3,2.81-.05,4-1,.06.55.8,1.36,1,2-1.15.62-1.25,1.6-3.52,1.95-3.54.55-14.54,1.16-15.48-2.95-.53-2.31-.4-9.11,1-11,2.98,4.64-1.79,11.77,8,12Z"/>
      <path class="cls-48" d="M28,128c-.46,1.49-.65,2.57-1,4-1.2,4.91-2.79,5.42-1,11,.16.51-.11,1.38,0,2-1.74-.28-4.52-.63-6-1-.31-.08-.69.08-1,0,.02-2-.03-4,0-6,1.69-1.15,3.83-2.86,5.01-4.49,1.63-2.25,1.19-5.81,3.99-5.51Z"/>
      <path class="cls-43" d="M96,100c-.19-.38-.97-.81-1-1-.13-.92.05-2.02,0-3-.17-3.14-.91-6.43-1-9,0-.21,1.12-1.79,1-4-.06-1.17.04-2.46,0-3,2.75.49,2.74.61,3.05,3.45.76,6.84.68,10.63-2.05,16.55Z"/>
      <path class="cls-5" d="M16,40c3.28-5.24,2.51-.35,3.54.91,3.43,4.15,2.08,3.77,3.46,6.09l-1,2c-1.66-.38-3.27-.97-5-1-.34-.68-.74-1.04-1-2-1.06-3.97-.17-3.57,0-6Z"/>
      <path class="cls-18" d="M75,49c1.09-.04,2.52-.24,3,1-1.23,1.88-4.21,3.44-2,6-.45.12-2.6,4.06-6,1,0-1.33,0-2.67,0-4,1.37-1.94-2.06-3.72,5-4Z"/>
      <path class="cls-54" d="M10,91c1.56,2.55,8.28,3.21,9,0,.33,0,.67-.02,1,0,.24,7.15-6.15,3.65-10,6-1.95-1.67-3.57-3.33-4-6,1.32.11,2.68-.05,4,0Z"/>
      <path class="cls-17" d="M51,112c.11.89.06,2.08,0,3s-.98,1.79-1,2c-.64-2.14-2.19-1.85-4-2-.66-.05-1.34.04-2,0,.67-.76.82-2.02,1-3,.22-1.19-.17-2.73,0-4,4.85-.17,5.45-.57,6,4Z"/>
      <path class="cls-36" d="M22,129c-.1.11.17,1.04-.31,1.67-.51.67-2.07.71-2.52,1.98-.53,1.48-.14,3.69-.16,5.35-.03,2,.02,4,0,6-.79-.21-2.85-.89-3.04-1.67.23-4.86-1.57-11.13,4.04-13.33.46-.18,1.39.12,2,0Z"/>
      <path class="cls-44" d="M51,115c4.11-.12,2.35,3.47,3.25,5.78.2.52,1.49.81,1.75,1.22-1.4,1.89-1.53,8.69-1,11-2.31-2.36-.2-6.62-1.15-9.35-.79-2.26-4.29-.8-3.85-6.65.02-.21.94-1.07,1-2Z"/>
      <path class="cls-33" d="M10,59c-1.11,1.55-.87,3.25-1,5-3.14-.69-1.59,4.21-5,5-.05-.53-.81-1.37-1-2,1.64-2.67.42-4.34,1.21-5.8.14-.25,3.84-2.28,4.79-3.2.01.74.57.74,1,1Z"/>
      <path class="cls-3" d="M95,99c.03.19.81.62,1,1-.29.64-1.56,1.18-1.85,2.7-.98,5.24,1.96,2.44-2.15,7.3l-2-1c2.35-3.41-.1-11.43,5-10Z"/>
      <path class="cls-25" d="M79,33c.13.25.81.38,1,1.46.63,3.48-1.81,11.32,2,10.54-.98,1.5-2.3,1.7-2.66,2.22-.1.14-.36,1.29-1.34,2.78-.48-1.24-1.91-1.04-3-1-.06-2.41,3.78-3.84,4.01-4.71.76-2.81-.54-8.06-.01-11.29Z"/>
      <path class="cls-57" d="M26,121c-.04.99.11,2.03,0,3-.58,5.1-1.71,2.47-4,5-.61.12-1.54-.18-2,0,1.39-1.69,2.94-6.07,3-8,1,0,2,0,3,0Z"/>
      <path class="cls-42" d="M95,80c-.91-.16-2.05.14-3,0-2.05-3.14-.08-6.59,0-10,2.25,1.01,2.79,7.3,3,10Z"/>
      <path class="cls-29" d="M90,65c.84,1.4,1.64.27,2,4-1.51,3.32-3.38,2.51-4-1-.04-2.37-.67-3.47,2-3Z"/>
      <path class="cls-31" d="M14,46c-2.2-1.08-.94-13.16,0-16v16Z"/>
      <path class="cls-4" d="M26,143c-1.79-5.58-.2-6.09,1-11,14.27-5.96,9.94,13.46-1,11Z"/>
      <path class="cls-28" d="M26,121c.13-3.35-.42-7.36,0-10.52.14-1.04-.25-2.15,1.49-1.47,5.63,2.2,4.68,6.88,4.52,11.99h-6.01Z"/>
      <path class="cls-37" d="M23,83c1.09,1.01,3.75.31,2.99,2.48-.36,1.04-3,1.89-3,4.01,0,1.52,1.69,2.53,2.01,3.51.1.31-.11.71,0,1-2.86,2.73-1.69,5.97-2.07,9.41-.09.8-.91,1.4-.93,1.59v-14.01c-.66-.05-1.34.05-2,0-.33-.02-.67,0-1,0,.76-3.39-1.79-3.13-2.69-4.33-.48-.64-.21-1.54-.31-1.67,1.45-3.06,4.19,3.24,5.99,2l1.01-4Z"/>
      <path class="cls-24" d="M26,124c.56.63,2.91.88,3,1.01.51.71-.78,2.28-1,2.99-2.8-.3-2.36,3.26-3.99,5.51-1.18,1.63-3.32,3.34-5.01,4.49.02-1.66-.37-3.87.16-5.35.45-1.26,2.01-1.3,2.52-1.98.48-.63.21-1.56.31-1.67,2.29-2.53,3.42.1,4-5Z"/>
      <path class="cls-30" d="M44,105c1.7.09,3.74-.38,5.34.17,1.19.4,7.92,6.99,1.66,6.83-.55-4.57-1.15-4.17-6-4-.17,1.28.22,2.81,0,4-4.79-.37-1.85-3.42-1-7Z"/>
      <path class="cls-32" d="M35.01,112c3.51-3.46,6.05,8.24,2.48,8.99-3.33.7-2.84-8.64-2.48-8.99Z"/>
      <path class="cls-40" d="M27,93c-.16,2.04-.24,3.75.93,5.57.2.31,4.98,5,5.3,5.18,1.9,1.1,8.12-.26,10.77.25-.07.32.07.69,0,1-3.9-.2-7.9.41-11.77-.25-4.24-4.34-5.14-5.06-7.23-10.75-.11-.29.1-.69,0-1,.62-.11,1.5.17,2,0Z"/>
      <path class="cls-21" d="M51,5c2.42.08,6.44-.53,8.39.15,1.3.45,1.33,2.34,1.82,2.62,2,1.17,4.24-.55,8.8,3.23,2.98,2.47,4.67,7.64,5.89,11.61,1.41,4.56.77,5.73,3.11,10.39-.53,3.23.77,8.47.01,11.29-.23.87-4.07,2.3-4.01,4.71-7.06.28-3.63,2.06-5,4-.82,1.16-4.67,3.74-6,5-.81-1.69-4.97-1.57-6,0-.4.13-5.26,4.33-6.98,4.76-2.61,9.06.73,18.06-.02,27.24-1.76-.33-4.16.28-6,0-.61-3.82.85-27.81-.1-28.9-.21-.24-3.27-.5-4.44-1.04-3.35-1.55-4.98-4.68-8.46-1.05-.04-.34.07-.7,0-1-.97-4.09-3.2-3.15-4.89-5.61-1.23-1.78-3.92-5.08-4.11-5.39-1.37-2.32-.03-1.95-3.46-6.09-1.04-1.25-.26-6.15-3.54-.91.25-3.47.7-3.28,1-5,1.72-.22,2.73,2.46,3-.48.51-5.45-.44-11.1,1-16.52.09-.32-.1-.71,0-1,2.02,5.56-.26,12.39,1.24,18.26.23.91,4.44,8.02,5.24,8.76,11.86,11.02,37.19,5.93,39.41-12.63,1.69-14.12-5.54-19.02-15.89-26.39Z"/>
      <path class="cls-38" d="M17,58c5.7-.2,9.67-.11,15,2,1.31,10.41,2.13,4.84,5.45,10.04.27.42,3.99,8.36,4.12,8.84,1.19,4.31-1.65,10.34,3.43,11.11,1.84.28,4.24-.33,6,0,1.19.22,3.81,1.49,3,3-.26.06-.74.04-1,0-1.16-.19-2.66-1.68-4.56-1.95-10.62-1.5-4.16,3.89-3.44,7.95-1.54.38-2.33-.74-3-2-.99-1.87-1.22-5.99-3.66-6.84-3.88-1.34-7.24,0-10.34,1.84-.42.25-.78.93-1,1-.5.17-1.38-.11-2,0-.32-.97-2.01-1.99-2.01-3.51,0-2.12,2.64-2.98,3-4.01.76-2.17-1.9-1.47-2.99-2.48-.24-.22.16-2.3-1.62-2.86s-4.4.02-6.38-.14c2.06-1.5-3.05-5.49-5-6,.02-.14-1.02-2.15.11-2.92.54-.37,2.05-.02,2.89-.08,2.05-.13,6.65-.41,8.3-.02,1.08.26,4.96,9.04,10.7,6.02,1.28-5.66-1.6-6.13-4.51-10l-4.49,2.99c.44-2.98-.01-4.49-1.01-6.99-.2-.51.6-1.75-.63-2.04-2.08-.5-5.41.44-7.88.03-2.26-.38-2.21-1.82-2.49-1.99,1.87-1.23,3.92-.93,6-1Z"/>
      <path class="cls-8" d="M54,93c5.01-1.17.7-8.17,6.08-11.41,2.37-1.43,9.71-3.31,9.92,1.41-4.15,1.39-7.16,1.12-9.98,5.5l9.98,4.5c-.39,3.03-1.71,6.73-3,9-4.59,1.74-5.93,4.25-12,3-7.11-5.26-1.73-4.68-2-12,.26.04.74.06,1,0Z"/>
      <path class="cls-8" d="M58,58c1.15-.38,3.57.25,5.01,0-.23,2.39.4,5.2-.03,7.49-.61,3.2-4.56,4.45-5.47,6.54-.72,1.65-.21,4.4-.66,4.89-.37.4-2.21-.43-2.89.74-1.48,2.52-.61,7.99-.95,10.88-.18,1.5-.82,3.05-2.01,1.48.74-9.18-2.59-18.18.02-27.24,1.73-.43,6.58-4.63,6.98-4.76Z"/>
      <path class="cls-4" d="M73,61c3.81.28,8.1-1.72,7,3-1.29-.09-4.58-.86-3.99,1.49,1.49,2.14,7.55,7.78,9.99,5.51,2.17-2.02-3.79-4.05-3-5.99,2.46.72,2.64-1.18,4,3s.36,6.82-4.06,8.51c-5.21,1.99-11.83-10.39-9.94-15.51Z"/>
      <path class="cls-16" d="M80,91c-1.76.06-5.59.24-7,1,.23-1.61-.39-2.22-2-2,0-.32-2.07-3.86-1.01-6,2.8-.37,6.81,1.42,6.01-2,.18-.05.77-1.82,1.53-1.97,3.8-.74,2.2,8.78,2.47,10.97Z"/>
      <path class="cls-12" d="M92,80c.95.14,2.09-.16,3,0,.04.54-.06,1.83,0,3-1.91,6.57-3.7-.77-8.07,1.43-1.87,1.32.15,6.76-2.43,7.42-.43.11-1.19-.84-1.5-.84.2-2.84-1.68-7.19-.52-8.98.7-1.08,4.37-2.71,5.03-5.02,1.39,3.12,1.69,2.59,4.5,3Z"/>
      <path class="cls-15" d="M76,82c.8,3.42-3.2,1.63-6.01,2-1.06,2.14,1.01,5.69,1.01,6,0,1.13-.9,2.24-1,3l-9.98-4.5c2.82-4.38,5.83-4.11,9.98-5.5,2.56-.86,4.36-.55,6-1Z"/>
      <path class="cls-4" d="M70.38,74.38c-.71.69-.83,2.01-2.03,2.45-10.14,3.73-2.76-16.13,4.62-5.27.36,1.67-1.67,1.93-2.59,2.83Z"/>
      <path class="cls-59" d="M70,57c0,.33-.03.68,0,1-2.36-.67-3.74,1.98-5.49,2.02-1.09.02-.23-1.43-.51-2.02,1.33-1.26,5.18-3.84,6-5,0,1.33,0,2.67,0,4Z"/>
      <path class="cls-27" d="M51,5c10.35,7.37,17.58,12.27,15.89,26.39-2.22,18.56-27.56,23.66-39.41,12.63-.79-.74-5.01-7.85-5.24-8.76-1.5-5.88.78-12.71-1.24-18.26,1.33-3.93,9.43-8,12.9-9.6.99-.45,1.67-1.86,2.8-2.2,2.76-.82,10.85-.33,14.29-.21Z"/>
      <path class="cls-11" d="M21,18c-1.44,5.42-.49,11.07-1,16.52-.28,2.94-1.28.26-3,.48.73-4.15,1.27-8.36,1.98-12.52.29-1.75-.44-3.77,2.02-4.48Z"/>
      <path class="cls-39" d="M53,93c.27,7.32-5.11,6.74,2,12,2.35,1.74,6.07,4.67,9,2l1,1c-2.83,2.91-1.07,5.25-8,4.01-.42,7.61,4.68,7.68,10,3.99-1.75,6.61,2.88,4.49,4.9,7.6,1.47,2.26.83,4.17,1.1,6.4.08.65-.08,1.35,0,2-1.19.95-2.67.7-4,1l1.99-4.99c-1.36-.1-12.58-.63-10.51,2,.91,1.15,3.84,1.32,3.52,3.99-9.79-.23-5.02-7.36-8-12-.26-.4-1.54-.69-1.75-1.22-.9-2.31.86-5.9-3.25-5.78.06-.92.11-2.11,0-3,6.26.16-.47-6.43-1.66-6.83-1.6-.55-3.64-.08-5.34-.17.07-.31-.07-.68,0-1,.34-1.58,1.49-2.26,1-5-.72-4.05-7.17-9.44,3.44-7.95,1.89.27,3.4,1.75,4.56,1.95Z"/>
      <path class="cls-47" d="M92,98c-.97.6-2.55.51-2.99,1.74-.85,2.36-.83,7.53-1.01,10.26-5.52,3.62-11.82,1.77-12-5,1.53-1.85,3.64-3.38,4-6,4.09-2.5,12.17-13.97,12-1Z"/>
      <path class="cls-60" d="M73,111c.48,4.62,2.33,3.11,2.97,4.77,1.63,4.25.74,11.19-2.97,14.23-.27-2.23.37-4.15-1.1-6.4-2.03-3.11-6.65-.99-4.9-7.6.05-.17,1.87-2.87,2-3,.96-.96,2.62-1.79,4-2Z"/>
      <path class="cls-52" d="M71,90c1.61-.22,2.23.39,2,2-3.59,1.92-.41,1.85-.03,4.53.64,4.49-.45,9.89.03,14.47-1.38.21-3.04,1.04-4,2,2.12-4.46.61-9.75-4-5l-1-1c.32-.29,2.48-4.08,3-5,1.29-2.27,2.61-5.97,3-9,.1-.76.99-1.87,1-3Z"/>
      <path class="cls-34" d="M94,87c-7.21,0-.25,2.64.02,3.72.38,1.49-.23,3.64-.02,5.28.5,2.74-1.48,1.68-2,2,.17-12.97-7.91-1.5-12,1,.09-.64-.06-1.35,0-2,1.75-2.45,2.76-2.67,3-6,.31,0,1.07.95,1.5.84,2.57-.66.56-6.09,2.43-7.42,4.38-2.2,6.17,5.14,8.07-1.43.12,2.21-1.01,3.79-1,4Z"/>
      <path class="cls-13" d="M95,99c-5.1-1.43-2.65,6.59-5,10-.18.26-1.46.64-2,1,.18-2.73.16-7.9,1.01-10.26.44-1.23,2.02-1.13,2.99-1.74.52-.32,2.5.74,2-2h1c.05.98-.13,2.08,0,3Z"/>
      <path class="cls-14" d="M80,99c-.36,2.62-2.47,4.15-4,6-.14-5.18,2.06-5.29,4-8-.06.65.09,1.36,0,2Z"/>
      <path class="cls-56" d="M9,64c-.29,3.88-1.59,5.42,4,6v1c-.84.05-2.35-.29-2.89.08-1.13.78-.09,2.78-.11,2.92-.17,1.26.49,1.41-1,2-.05.02-.65-.81-1.02-.47-1.38,1.26-.3,4.03-3.98,1.47-.1-2.61.25-5.47,0-8,3.41-.79,1.86-5.69,5-5Z"/>
      <path class="cls-58" d="M23,83l-1.01,4c-1.8,1.25-4.53-5.06-5.99-2-.84-.99-3.19-2.01-4-3.51l2-1.49c.33.03.67-.03,1,0,1.99.16,4.57-.44,6.38.14s1.38,2.64,1.62,2.86Z"/>
      <path class="cls-9" d="M10,74c1.95.51,7.06,4.5,5,6-.33-.03-.67.03-1,0-3.24-.27-5.34.53-5-4,1.49-.59.83-.74,1-2Z"/>
      <path class="cls-35" d="M19,91c-.72,3.21-7.44,2.55-9,0,2.99.11,6.01-.07,9,0Z"/>
      <path class="cls-1" d="M80,64c1.8.12,2.08.73,3,1-.79,1.94,5.17,3.98,3,5.99-2.44,2.27-8.49-3.37-9.99-5.51-.59-2.35,2.7-1.57,3.99-1.49Z"/>
      <path class="cls-6" d="M11,59c.28.16.23,1.61,2.49,1.99,2.47.41,5.8-.53,7.88-.03,1.23.29.43,1.54.63,2.04v7.01c-2.92-.22-6.12.29-9,0-5.59-.58-4.29-2.12-4-6,.13-1.75-.11-3.45,1-5,.25.15.75-.14,1,0Z"/>
      <path class="cls-19" d="M32,58c.07.3-.04.66,0,1s-.04.67,0,1c-5.33-2.11-9.3-2.2-15-2,3.13-3,10.33,1.92,9-4,.4.55,5.07,2.68,6,4Z"/>
      <path class="cls-38" d="M32,58c-.93-1.32-5.6-3.45-6-4-.62-.85-.54-4.27-1.15-4.87-.55-.54-2.1.05-2.85-.13l1-2c.19.32,2.88,3.61,4.11,5.39,1.69,2.46,3.92,1.52,4.89,5.61Z"/>
      <path class="cls-45" d="M64,134c.32-2.67-2.61-2.84-3.52-3.99-2.07-2.64,9.15-2.1,10.51-2l-1.99,4.99c-1.84.41-2.59,1.06-5,1Z"/>
      <path class="cls-7" d="M94,87c.09,2.57.83,5.86,1,9h-1c-.21-1.64.4-3.78.02-5.28-.27-1.08-7.23-3.73-.02-3.72Z"/>
      <path class="cls-28" d="M42,97c.67,1.26,1.46,2.38,3,2,.49,2.74-.66,3.42-1,5-2.65-.5-8.87.85-10.77-.25-.32-.19-5.1-4.87-5.3-5.18-1.16-1.82-1.09-3.53-.93-5.57.22-.07.58-.75,1-1,.9,8.65,8.72,13.94,14,5Z"/>
      <path class="cls-8" d="M32,59c3.48-3.62,5.11-.49,8.46,1.05,1.17.54,4.23.8,4.44,1.04.95,1.09-.51,25.09.1,28.9-5.08-.77-2.24-6.8-3.43-11.11-.13-.48-3.85-8.42-4.12-8.84-3.32-5.2-4.14.37-5.45-10.04-.04-.33.04-.67,0-1Z"/>
      <path class="cls-8" d="M42,97c-5.28,8.94-13.1,3.65-14-5,3.11-1.84,6.46-3.18,10.34-1.84,2.44.84,2.67,4.97,3.66,6.84Z"/>
      <path class="cls-4" d="M22,63c.99,2.5,1.44,4.01,1.01,6.99l4.49-2.99c2.91,3.87,5.79,4.35,4.51,10-5.74,3.02-9.63-5.77-10.7-6.02-1.65-.39-6.24-.12-8.3.02v-1c2.88.3,6.08-.21,9.01,0v-7.01Z"/>
      <path class="cls-55" d="M67,102c-.52.92-2.68,4.71-3,5-2.93,2.67-6.65-.26-9-2,6.07,1.25,7.41-1.26,12-3Z"/>
      <path class="cls-22" d="M69,113c-.13.13-1.95,2.83-2,3-5.32,3.69-10.42,3.62-10-3.99,6.92,1.25,5.17-1.1,8-4.01,4.61-4.75,6.12.54,4,5Z"/>
    </g>
  </g>
</svg>