<?xml version="1.0" encoding="UTF-8"?>
<svg id="_Слой_2" data-name="Слой 2" xmlns="http://www.w3.org/2000/svg" viewBox="0 0 100 151">
  <defs>
    <style>
      .cls-1 {
        fill: #70534b;
      }

      .cls-2 {
        fill: #471f13;
      }

      .cls-3 {
        fill: #fbdec7;
      }

      .cls-4 {
        fill: #4b2419;
      }

      .cls-5 {
        fill: #fcd2b4;
      }

      .cls-6 {
        fill: #4c2519;
      }

      .cls-7 {
        fill: #f9ceb0;
      }

      .cls-8 {
        fill: #fcd3b5;
      }

      .cls-9 {
        fill: #fde3cd;
      }

      .cls-10 {
        fill: #8b584a;
      }

      .cls-11 {
        fill: #482217;
      }

      .cls-12 {
        fill: #51291d;
      }

      .cls-13 {
        fill: #3a221b;
      }

      .cls-14 {
        fill: #fbd1b3;
      }

      .cls-15 {
        fill: #461e12;
      }

      .cls-16 {
        fill: #ca896e;
      }

      .cls-17 {
        fill: #edc3a7;
      }

      .cls-18 {
        fill: #cf8d71;
      }

      .cls-19 {
        fill: #facfb1;
      }

      .cls-20 {
        fill: #f7c9ab;
      }

      .cls-21 {
        fill: #e9a986;
      }

      .cls-22 {
        fill: #f9cfb1;
      }

      .cls-23 {
        fill: #ede7e5;
      }

      .cls-24 {
        fill: #f9cdae;
      }

      .cls-25 {
        fill: #e5a07c;
      }

      .cls-26 {
        fill: #fbd1b2;
      }

      .cls-27 {
        fill: #d08d71;
      }

      .cls-28 {
        fill: #d69274;
      }

      .cls-29 {
        fill: #441c11;
      }

      .cls-30 {
        fill: #fdd4b6;
      }

      .cls-31 {
        fill: #421a0f;
      }

      .cls-32 {
        fill: #4c261a;
      }

      .cls-33 {
        fill: #d18f72;
      }

      .cls-34 {
        fill: #3b221a;
      }

      .cls-35 {
        fill: #8d4f37;
      }

      .cls-36 {
        fill: #cb896d;
      }

      .cls-37 {
        fill: #441e13;
      }

      .cls-38 {
        fill: #825346;
      }

      .cls-39 {
        fill: #50281b;
      }

      .cls-40 {
        fill: #fbdec6;
      }

      .cls-41 {
        fill: #371c15;
      }

      .cls-42 {
        fill: #fdd3b5;
      }

      .cls-43 {
        fill: #864a34;
      }

      .cls-44 {
        fill: #8d4d35;
      }

      .cls-45 {
        fill: #b0a8a5;
      }

      .cls-46 {
        fill: #3d160b;
      }

      .cls-47 {
        fill: #865a4f;
      }

      .cls-48 {
        fill: #8f533c;
      }

      .cls-49 {
        fill: #cec9c7;
      }

      .cls-50 {
        fill: #5a2d1e;
      }

      .cls-51 {
        fill: #502a1f;
      }

      .cls-52 {
        fill: #fce2cc;
      }

      .cls-53 {
        fill: #451e11;
      }

      .cls-54 {
        fill: #fce1cb;
      }

      .cls-55 {
        fill: #c2b6b2;
      }

      .cls-56 {
        fill: #351d17;
      }

      .cls-57 {
        fill: #643625;
      }

      .cls-58 {
        fill: #4b251a;
      }

      .cls-59 {
        fill: #3a2019;
      }

      .cls-60 {
        fill: #482015;
      }

      .cls-61 {
        fill: #8b4b33;
      }
    </style>
  </defs>
  <g id="_Слой_10_Изображение" data-name="Слой 10 Изображение">
    <g>
      <path class="cls-25" d="M68,6c.53-.15,1.37.1,2,0,.22.66.72,1.33,1,2,2.27,5.39,7.53,8.65,8.78,14.72.81,3.94-.62,9.42.2,12.58.27,1.06,2.41.97,2.87,2.31.84,2.44-.25,6.63.15,9.38-.34.33-.67.67-1,1l-.99-1v2c-.33.33-.73.65-1.01,1-4.95-2.59-9.13,5.81-7.56,8.03,1.04,1.47,10.61,1.7,12.56-.03,2.02.13,3.52,2.6,5,4-.27.08-.65-.03-1,0-3.69.35-9.04-.75-12.29.21-2.12.62-3.35,3.46-4.71,4.79-2.85,2.8-8.52,6.43-4.51,10.02,1.26,1.13,7.28,1.65,8.38.85.62-.45.69-4.03,2.13-4.87,3.53,3.06,4.01.62,6.74-.79,3.83-1.98,5.62-.76,5.26-7.21.81,1.44,2.66,5.75,3,6,1.23,2.36,1.4,6.03,1.08,8.57-.25,1.94-1.98,1.47-2.1,1.93-.73,2.94,1.8,2.24,2.01,3.16.56,2.53-1.16,6.27,1.01,8.33-.22,2.53-.97,4.57-4,5,.17-2.66,1.95-6.6.99-9.99-1.33-1.49-7.24,6.61-8.99,6.99-.07-.63-.02-1.35,0-2,.16-6.43.24-3.24,2.5-5.96.81-.98-3.28-6.73-3.65-6.94-2.55-1.44-7.98,3.07-5.85,7.9-4.71,2.82-.05,2.5.09,4.42.63,8.53-.64,17.94-.09,26.58-4.38,2.25-1.67,4.29-3,6-.13.16-1.93.05-2.51.94-1.8,2.73.71,5.45,1.51,8.06.17.54-.16,1.44,0,2l-8-1c-.1,6.11-1.63,10.49,6,11-.14,0-1.18.94-2.49,1.06-5.64.51-7.1-6.33-6.51-11.06.43-3.47,2.99-5.11,2.87-6.32-.14-1.41-2.22-3.25-2.87-4.68,4.57-.02,2.71-5.87,3-9.01h-2.99s0,9.01,0,9.01c-2.12-4.67.47-7.46-4-12-.16-.16-1.26-.07-1.94-.61-.9-.73-1.02-2.13-2.33-2.73-3.29-1.51-3.44,1-5.12,2.99-.43.5-2.92.29-1.49,2.27.33.45,3.79-.6.88,4.09h-7.99c-.69,2.65,2.57,2.24,3.02,3.74.32,1.09-.08,2.94-.02,4.26.16,3.25.48,7.11-1,10-3.16-.31-6.74.12-10,0v-1c7.63.75,8.78-.32,8-8l-10,1c.1-.76,1.07-1.96,1-3,.6-.54,3.01-1.88,2.98-2.5-.03-.68-2.19-1.09-2.68-1.78-1.38-1.94-1.71-7.59-4.3-9.72-.33-5.95.22-12.03,0-18-.05-1.29.18-2.82,0-4l4-.52c-2.58-4.15-2.99-9.63-8.49-8.47-4.24.89-1.69,6.67-3.51,9.99-.29-.12-.71.11-1,0-.49-.19-1.48.19-2,0,1.99-1.83,3.03-7,1.53-9.06-.52-.72-2.23-.68-3.2-1.31-.55-.36.05-1.46-.84-1.63-2.26-.45-1.03,1.65-2.18,2.02-1.02.33-2.43-.22-3.31-.01v-1c.45-.06.81.09.98-.51.93-3.44-2.23-7.68,3.02-8.49.38,6.32,4.4,1.76,6.51,7,1.3.35,4.94-4.81,6-6.02,1.43-.03,3.93,2.92,5.49,4.02.53.37.4,1.73,2.51,2.02,4.4.62,5.53-2.7,4.56-6.48-.33-1.26-3.96.65-3.06-2.54,1.33-.05,2.67.03,4,0,7.02,3.92,3.03,3.59,5.55,8,.43.76,2.23.68,2.48,1.7.82,3.32-.35,8.81,1.47,12.3,4-2.55,3.01-24.26,1.26-25.75-2.35-2-8.67-3.05-11.75-3.24.85-.85,4.75-1.19,3-2.99-.19-.19-3.68-.53-5.24-1.29-2.46-1.2-3.42-3.04-5.76-3.72-.57-1.81.42-4.15-3-4,2.56-4.22-1.22-9.67-5-12,.67-1.75,2.77-1.66,3.04-2.7,1.52-5.96-3.16-9.37,2.96-18.3.81,4.38-.99,9.13-.78,13.19.1,1.97,4,13.4,5.01,14.57.53.61,11.57,5.06,13.26,5.24,12.62,1.38,24.61-4.07,26.42-17.58,2-14.95-5.63-19.36-16.92-26.41,1.16,0,2.64-.97,4.37-.9,4.46.2,5.51,2.36,10.63.9ZM70,62c-2.23.76-5.78-1.07-7.38-.77-.81.15-5.61,4.09-7.7,4.42-1.38,2.12-1.25,17.39-.96,20.9.14,1.75-.2,3.27,1.57,4.44,2.41.48,1.43-1.95,1.49-3.48.08-2.3-.51-6.01.15-7.89.48-1.37,2.61-1.25,2.87-2.32.31-1.33-.33-3.1.14-4.63.77-2.48,11.18-5.51,9.84-10.66ZM41.99,89.99c.86-7.61-5.26-10.08-12-8.99-.8,4.54,1.32,2.18,3.95,3.52s4.06,6.27,8.05,5.47ZM73.01,81c-6.83-.73-13.55.8-12,8.99,3.15,0,2.96-3.36,5.7-4.79,3.41-1.78,7.4.37,6.3-4.2ZM46,102c2.44.47,5.91,1.26,7.97-.53.35-.3,3.02-5.65,3-5.98-.07-1.39-10.49-3.58-10.98.51-5.83-1.89-20.7-4.11-15.38,5.89,4.76,8.96,11.18,9.64,18.36,2.61-.02-.58-2.68-1.53-2.98-2.5ZM72.85,96.14c-1.55-2.44-13.5-2.8-15.35.87-.68,1.34-.39,3.32-1.04,4.96-.39,1-2.44,2.11-2.44,2.53-.04,3.13,8.02,5.41,11.34,4.33.47-.15,6.91-6.39,7.11-6.84.58-1.35,1.07-4.76.38-5.84ZM69.81,124.76c1.53-.87,6.52-9.84,1.72-10.42-5.82-.71-4.62,6.76-4.52,10.66.92-.07,1.93.26,2.8-.24Z"/>
      <path class="cls-31" d="M76,88c-2.13-4.83,3.3-9.35,5.85-7.9.37.21,4.46,5.96,3.65,6.94-2.26,2.73-2.34-.47-2.5,5.96-1.5.78-2.82.3-3.08,2.47-1.07,8.95,5.3,7.57,12.08,7.53-.31,4.74-7.23,2.81-11,3-.66.03-1.34-.05-2,0,.56,4.72-1.26,10.7,1,15.01-.83,3.41-7.7,1.15-1,9l-1,1c-1.4-1.69-5.07-2.85-5-6,1.33-1.71-1.38-3.75,3-6,1.81-.93.96-20.65.95-24.54,0-1.67,1.03-3.73.84-4.88-.2-1.21-1.74-1.45-1.79-1.58Z"/>
      <path class="cls-56" d="M33,9c-1.03.71-6.03,6.59-7,8-6.12,8.92-1.44,12.34-2.96,18.3-.27,1.05-2.37.96-3.04,2.7-1.38,3.6.62,7.44,1,11-.69-.66-3.17-.5-4.47-3.07-.32-.63-.67-6.46-.6-7.42.23-3.47,3.39-17.31,4.56-20.52.56-1.54,6.84-10.23,7.95-11.05,1.34-.99,3.8-1.29,5.56-1.95,1.38,1.55,0,2.61-1,4Z"/>
      <path class="cls-29" d="M19,92c.19.1.34,1.42,1.66,1.82,1.65.5,3.62.14,5.34.18.22,5.97-.33,12.05,0,18,.1,1.73-.35,3.58.2,5.28s2.47,2.4,2.78,3.25c.65,1.77-3.63,2.76-4.98,4.47l-2-1c.81-1.53,1.58-6.5.06-7.56-2.87-2-7.73,1.84-12.06-2.44.64-.19,1.46-.94,2-1,1.6-.17,3.46.23,5,0,6.25-.94,7.23-3.67,5.78-10.29-.56-2.55-2.01-2.59-2.78-3.71-.38-.54-.43-1.59-.94-2.25-1.41-1.84-4.87-1.63-2.06-5.75.29.11.71-.12,1,0,.55.23.78.88,1,1Z"/>
      <path class="cls-13" d="M71,8c5.96-1.63,9.13,7.74,11.97,11.53l4.1,24.03c.19,1.99-3.77,3.15-4.07,3.45-.4-2.75.69-6.94-.15-9.38-.47-1.34-2.6-1.26-2.87-2.31-.82-3.16.61-8.64-.2-12.58-1.25-6.07-6.51-9.33-8.78-14.72Z"/>
      <path class="cls-37" d="M98,70c.62,8.78-1.29,18.51,1,27-.12.47-5.23,7.53-7,6,.4-.26-.93-1.46-1-2-.12-.87-.06-2.09,0-3,3.03-.43,3.78-2.47,4-5,.23-2.71.66-21.13,0-22.01-.18-.24-1.69.24-2,0-.34-.25-2.19-4.56-3-6-.53-.94-1.45-1.44-1-3,.35-.03.73.08,1,0,.86-.24.8-.19,1-1,4.16.06,3.3,3.67,4.61,5.92.66,1.12,1.82,1.91,2.39,3.08Z"/>
      <path class="cls-34" d="M68,5v1c-5.12,1.46-6.17-.69-10.63-.9-1.73-.08-3.21.89-4.37.9-6.37.02-14.5-.8-20,3,1-1.39,2.38-2.45,1-4,6.49-2.41,23.16-3.13,30.55-2.55,2.4.19,2.71,2.14,3.45,2.55Z"/>
      <path class="cls-2" d="M60,136h1c-.58,4.73.87,11.57,6.51,11.06,1.31-.12,2.35-1.06,2.49-1.06.33,0,.67-.01,1,0,.78.03,4.59,1.82,6,2-.34.18-.39,1.6-2.48,1.98-2.35.43-11.45.35-13.5-.51-5.85-2.43-3.12-8.77-4.02-12.48l3-1Z"/>
      <path class="cls-11" d="M23,133c.71,5.77,2.95,3.82,8,4,3.26.12,6.84-.31,10,0,.53.05,1.37.81,2,1-.41.46-2.51,2.94-2.71,2.98-5.65,1.22-15.53.73-19.29-3.98,1.26-3.08.91-5.56,2-9,.14,1.64-.2,3.38,0,5Z"/>
      <path class="cls-50" d="M47,119c2.9-4.69-.56-3.64-.88-4.09-1.43-1.98,1.06-1.76,1.49-2.27,1.68-1.99,1.84-4.51,5.12-2.99,1.31.61,1.43,2,2.33,2.73.68.55,1.78.45,1.94.61.68,2.74-5.44,2.96-2,6-.47.1-.96.55-1,1-2.26-1.76-4.08-.66-6,1-.04-.21-.81-.61-1-1,.15-.22-.15-.76,0-1Z"/>
      <path class="cls-39" d="M7,80v1c-1.11.26-1.14.02-2,1-3.1,3.55.63,6.1.63,7.5,0,1.02-3.6,7.75-.63,10.5.15.79-.96,1.71-1,2-3.74-4.07-3.6-11.23-3.06-16.56.45-4.51,2.66-4.66,3.06-6.44.89.49,1.96,1.14,3,1Z"/>
      <path class="cls-32" d="M80,50c-.17.21,0,1.25-.55,2-.83,1.13-3.04.35-2.44,2.49.6,1.4,6.02,2.04,7.99,2.52v1c-1.95,1.73-11.52,1.5-12.56.03-1.57-2.22,2.62-10.62,7.56-8.03Z"/>
      <path class="cls-6" d="M47,120c.19.39.96.79,1,1,.83,4.28-2.43,4.94-2.77,6.61s1.51,4.51.58,7.7c-.53,1.82-2.11,1.91-2.8,2.69-.63-.19-1.47-.95-2-1,1.48-2.89,1.16-6.75,1-10,3.78-1.62,2.45-5.86,3.18-6.85.36-.49,1.74-.04,1.82-.15Z"/>
      <path class="cls-12" d="M55,119c.19.17,1.75-.57,2.04.63,1.23,4.99-2.83,13.23,2.96,16.37l-3,1c-.41-1.66-2.74-1.58-3.02-2.7-.51-1.99-.23-11.66.02-14.3.04-.45.53-.9,1-1Z"/>
      <path class="cls-17" d="M25,50c-.19.31-1.53.62-2,1-.64-.65-1.35-1.38-2-2-.38-3.56-2.38-7.4-1-11,3.78,2.33,7.56,7.78,5,12Z"/>
      <path class="cls-4" d="M5,100c.18.16,1.85-.18,2.53.93,1.24,2.02-.04,5.26.45,7.36.19.8,4.1,2.33,4.02,4.71-.54.06-1.36.81-2,1-4.54-4.49-6.91-4.91-6-12,.04-.29,1.15-1.21,1-2Z"/>
      <path class="cls-59" d="M24,57c.16,0,1.94,1.52,3,1-2.09,1.06-4.34,2.28-6,4-.33.02-.67-.02-1,0-4.78.31-4.04.36-8,2-.29.12-.75-.13-1,0,.12-6.3,4.82-4.35,8.47-5.04,1.68-.31,2.73-1.92,4.53-1.96Z"/>
      <path class="cls-58" d="M82,143c-.8.17-1.89-1.03-2-1-.01-1.33.02-2.67,0-4-.04-3.2.17-4.37-2-7l1-1c2.31,2.7,4.42,2.62,4.81,7.8.26,3.4-.88,3.05-1.81,5.2Z"/>
      <path class="cls-47" d="M82,143s.71.55.42.99c-1.78,2.66-3.06,2.75-5.42,4.01-1.41-.18-5.22-1.97-6-2,.58-.42,1.54-1.88,2-2,.98-.26,2.63.18,4.24-.26,1.07-.29,2.02-1.56,2.76-1.74.11-.03,1.2,1.17,2,1Z"/>
      <path class="cls-51" d="M12,64c.17,1.69-.92,3.52-1,5-.03.65-.04,1.35,0,2-5.25.81-2.09,5.05-3.02,8.49-.18.6-.54.45-.98.51l-1-9c.24-.31,1.39-.26,1.81-1.68,1.26-4.21-1.53-2.89,3.19-5.32.25-.13.71.12,1,0Z"/>
      <path class="cls-15" d="M24,125c-.1.12-.8,2.37-1,3-1.09,3.44-.74,5.92-2,9-2.56-3.2-.8-1.64-.91-5.49-.05-1.65-1.11-4.01-.91-4.93.25-1.12,2.35-1.71,2.82-2.59l2,1Z"/>
      <path class="cls-41" d="M28,54c.39,1.24,1.47,2.37.98,3.99-.6.21-1.62-.17-1.98.01-1.06.52-2.84-1-3-1,2.66-2.5,1.38-3.6-1-6,.47-.38,1.81-.69,2-1,3.42-.15,2.43,2.19,3,4Z"/>
      <path class="cls-55" d="M99,97c-2.29-8.49-.38-18.22-1-27,1.22,2.49,1.77,23.94,1,27Z"/>
      <path class="cls-53" d="M7,80c-1.04.14-2.11-.51-3-1,.89-3.87-1.35-3.59,2-8l1,9Z"/>
      <path class="cls-1" d="M81,106c-2.45,4.23.02,10.82-1,15-2.26-4.31-.44-10.29-1-15.01.66-.05,1.33.04,2,0Z"/>
      <path class="cls-46" d="M88,57l3,3c-.06.32.08.69,0,1-.2.81-.14.76-1,1-1.48-1.4-2.98-3.87-5-4v-1c.86.21,2.29-.25,3,0Z"/>
      <path class="cls-46" d="M82,48c-.33.34-.67.66-1,1v-2s1,1,1,1Z"/>
      <path class="cls-45" d="M70,5v1c-.63.1-1.47-.15-2,0v-1c.35.19,1.39-.14,2,0Z"/>
      <path class="cls-32" d="M91,60l-3-3c1.19.42,2.63,1.79,3,3Z"/>
      <path class="cls-49" d="M70,6v-1c1.89.42-.03.9,0,1Z"/>
      <path class="cls-30" d="M53,6c11.29,7.05,18.92,11.47,16.92,26.41-1.81,13.51-13.8,18.96-26.42,17.58-1.69-.19-12.73-4.63-13.26-5.24-1.02-1.16-4.91-12.6-5.01-14.57-.21-4.06,1.59-8.81.78-13.19.97-1.41,5.97-7.29,7-8,5.5-3.8,13.63-2.98,20-3Z"/>
      <path class="cls-9" d="M46,96c-.14,1.15-.25,5.2,0,6,.3.97,2.96,1.92,2.98,2.5-7.18,7.03-13.6,6.35-18.36-2.61-5.32-10,9.55-7.78,15.38-5.89Z"/>
      <path class="cls-9" d="M72.85,96.14c.69,1.08.2,4.5-.38,5.84-.19.45-6.64,6.69-7.11,6.84-3.33,1.08-11.38-1.2-11.34-4.33,0-.43,2.05-1.53,2.44-2.53.65-1.64.36-3.62,1.04-4.96,1.85-3.67,13.8-3.3,15.35-.87Z"/>
      <path class="cls-54" d="M36,62c3.08.19,9.4,1.24,11.75,3.24,1.76,1.5,2.74,23.2-1.26,25.75-1.82-3.5-.65-8.98-1.47-12.3-.25-1.01-2.05-.94-2.48-1.7-2.51-4.41,1.47-4.08-5.55-8-1.77-.99-3.66-1.03-4.98-2.5,1.66-1.14,2.72-3.23,3.98-4.5Z"/>
      <path class="cls-5" d="M32,62c3.03,3.76-4.86,1.69-5.9,4.62s.58,6.25,3.9,6.38c-.13,1.07-.45,2.07-1,3-1.56-1.1-4.06-4.05-5.49-4.02-1.06,1.21-4.7,6.37-6,6.02-2.11-5.24-6.13-.68-6.51-7-.04-.65-.03-1.35,0-2,2.46-5.16,8.43-2.5,9-7,.33-.02.67.02,1,0,3.55-.17,7.45-.13,11,0Z"/>
      <path class="cls-52" d="M70,62c1.33,5.15-9.08,8.18-9.84,10.66-.47,1.52.17,3.3-.14,4.63-.25,1.07-2.39.95-2.87,2.32-.66,1.88-.06,5.59-.15,7.89-.05,1.53.92,3.96-1.49,3.48-1.77-1.16-1.42-2.68-1.57-4.44-.29-3.51-.42-18.78.96-20.9,2.09-.33,6.9-4.26,7.7-4.42,1.6-.31,5.16,1.53,7.38.77Z"/>
      <path class="cls-33" d="M5,82l.51,5.01c2.23-.04,3.16-3.76,5.97-3.01,2.36.63.3,5.83,3.52,7,.52.19,1.51-.19,2,0-2.81,4.12.65,3.91,2.06,5.75.51.66.56,1.71.94,2.25v2c-2.96-4.36-7.43-7.62-13-6.99-.83,3.37,3.02,1.11,3.87,3.62,1.3,3.84-2.34,15.75,6.12,14.38v1c-1.54.23-3.4-.17-5,0,.08-2.37-3.83-3.91-4.02-4.71-.5-2.1.79-5.34-.45-7.36-.68-1.11-2.35-.77-2.53-.93-2.97-2.75.62-9.49.63-10.5,0-1.4-3.73-3.95-.63-7.5Z"/>
      <path class="cls-42" d="M89,62c-.45,1.56.47,2.06,1,3,.37,6.46-1.42,5.23-5.26,7.21-2.73,1.41-3.21,3.85-6.74.79-1.09-.95-2.94-5.31-6-6,1.36-1.34,2.59-4.17,4.71-4.79,3.25-.96,8.61.14,12.29-.21Z"/>
      <path class="cls-27" d="M57,113c4.47,4.54,1.88,7.33,4,12,.65,1.43,2.73,3.26,2.87,4.68.12,1.21-2.44,2.85-2.87,6.32h-1c-5.79-3.14-1.73-11.38-2.96-16.37-.3-1.2-1.85-.46-2.04-.63-3.44-3.04,2.68-3.26,2-6Z"/>
      <path class="cls-54" d="M72,136c.64,2.24,3.88,4.28,1,8-.46.12-1.42,1.58-2,2-.33-.01-.67,0-1,0-7.64-.51-6.1-4.89-6-11l8,1Z"/>
      <path class="cls-26" d="M72,67c3.06.69,4.91,5.05,6,6-1.44.84-1.51,4.42-2.13,4.87-1.1.8-7.12.28-8.38-.85-4.01-3.59,1.67-7.22,4.51-10.02Z"/>
      <path class="cls-19" d="M83,95c1.75-.38,7.67-8.49,8.99-6.99.96,3.4-.82,7.33-.99,9.99-.06.91-.12,2.13,0,3-6.58.35-7.33.03-8-6Z"/>
      <path class="cls-60" d="M18,91c1.82-3.32-.73-9.1,3.51-9.99,5.5-1.16,5.91,4.33,8.49,8.47l-4,.52c-.21-1.35-.17-2.12-1.5-2.98-1.43,2.39-3.02,3.74-5.5,4.98-.22-.12-.45-.77-1-1Z"/>
      <path class="cls-28" d="M46,102c-.25-.8-.14-4.85,0-6,.48-4.08,10.9-1.9,10.98-.51.02.33-2.65,5.68-3,5.98-2.07,1.79-5.53.99-7.97.53Z"/>
      <path class="cls-22" d="M29,129l10-1c.77,7.68-.37,8.75-8,8-2.56-.96-2.3-4.6-2-7Z"/>
      <path class="cls-7" d="M7,81c.88-.21,2.3.34,3.31.01,1.15-.37-.08-2.47,2.18-2.02.89.18.29,1.28.84,1.63.97.63,2.68.6,3.2,1.31,1.5,2.07.46,7.23-1.53,9.06-3.22-1.17-1.16-6.37-3.52-7-2.81-.75-3.74,2.97-5.97,3.01l-.51-5.01c.86-.98.89-.74,2-1Z"/>
      <path class="cls-61" d="M73,125c-.07,3.15,3.6,4.31,5,6,2.17,2.63,1.96,3.8,2,7-3.16-1.36-6.22-.4-8-4-.8-2.6-3.32-5.32-1.51-8.06.59-.89,2.39-.78,2.51-.94Z"/>
      <path class="cls-44" d="M26,112c2.6,2.13,2.92,7.78,4.3,9.72.49.69,2.65,1.1,2.68,1.78.03.62-2.38,1.96-2.98,2.5-2.69,2.43-4.09,5.08-7,7-.2-1.62.14-3.36,0-5,.2-.63.9-2.88,1-3,1.35-1.71,5.63-2.71,4.98-4.47-.31-.85-2.26-1.64-2.78-3.25-.55-1.7-.11-3.55-.2-5.28Z"/>
      <path class="cls-48" d="M28,54c2.34.68,3.29,2.52,5.76,3.72,1.57.76,5.05,1.1,5.24,1.29,1.75,1.8-2.16,2.14-3,2.99-1.32-.08-2.67.05-4,0-3.55-.13-7.45-.17-11,0,1.66-1.72,3.91-2.94,6-4,.36-.18,1.38.2,1.98-.01.49-1.61-.59-2.75-.98-3.99Z"/>
      <path class="cls-40" d="M41.99,89.99c-3.99.8-5.41-4.12-8.05-5.47s-4.75,1.02-3.95-3.52c6.74-1.09,12.86,1.38,12,8.99Z"/>
      <path class="cls-3" d="M73.01,81c1.1,4.57-2.9,2.42-6.3,4.2-2.74,1.43-2.55,4.79-5.7,4.79-1.54-8.19,5.17-9.72,12-8.99Z"/>
      <path class="cls-14" d="M69.81,124.76c-.87.5-1.88.17-2.8.24-.1-3.9-1.3-11.37,4.52-10.66,4.8.58-.2,9.55-1.72,10.42Z"/>
      <path class="cls-21" d="M36,62c-1.26,1.27-2.32,3.36-3.98,4.5,1.32,1.47,3.21,1.51,4.98,2.5-1.33.03-2.67-.05-4,0-.77.03-2.87-.15-3,0-.24.26.13,3.01,0,4.01-3.32-.13-4.91-3.53-3.9-6.38s8.93-.86,5.9-4.62c1.33.05,2.68-.08,4,0Z"/>
      <path class="cls-24" d="M33,69c-.9,3.19,2.74,1.28,3.06,2.54.98,3.78-.16,7.1-4.56,6.48-2.1-.3-1.98-1.65-2.51-2.02.55-.93.87-1.93,1-3,.12-1-.24-3.74,0-4.01.14-.15,2.23.04,3,0Z"/>
      <path class="cls-18" d="M29,129c-.3,2.4-.56,6.04,2,7v1c-5.05-.18-7.29,1.77-8-4,2.91-1.92,4.31-4.57,7-7,.07,1.04-.9,2.24-1,3Z"/>
      <path class="cls-16" d="M83,95c.67,6.03,1.42,6.35,8,6,.07.54,1.4,1.74,1,2-6.78.04-13.16,1.42-12.08-7.53.26-2.17,1.58-1.69,3.08-2.47-.02.65-.07,1.37,0,2Z"/>
      <path class="cls-36" d="M80,138c.02,1.33-.01,2.67,0,4-.75.18-1.69,1.45-2.76,1.74-1.6.44-3.26,0-4.24.26,2.88-3.72-.36-5.76-1-8-.16-.56.17-1.46,0-2,1.78,3.6,4.84,2.64,8,4Z"/>
      <path class="cls-57" d="M76,119c-.55-8.63.72-18.05.09-26.58-.14-1.93-4.8-1.6-.09-4.42.06.13,1.59.36,1.79,1.58.19,1.15-.84,3.21-.84,4.88,0,3.89.86,23.61-.95,24.54Z"/>
      <path class="cls-23" d="M26,90c.18,1.18-.05,2.71,0,4-1.72-.04-3.69.32-5.34-.18-1.32-.4-1.47-1.71-1.66-1.82,2.48-1.24,4.07-2.59,5.5-4.98,1.33.86,1.29,1.64,1.5,2.98Z"/>
      <path class="cls-43" d="M47,119c-.15.24.15.78,0,1-.08.11-1.46-.34-1.82.15-.73.99.6,5.23-3.18,6.85-.06-1.32.34-3.17.02-4.26-.44-1.49-3.71-1.09-3.02-3.73h7.99Z"/>
      <path class="cls-35" d="M93,71c.3.23,1.82-.24,2,0,.66.88.23,19.29,0,22.01-2.18-2.06-.46-5.8-1.01-8.33-.2-.92-2.73-.23-2.01-3.16.11-.46,1.85,0,2.1-1.93.33-2.54.15-6.21-1.08-8.57Z"/>
      <path class="cls-20" d="M61,125v-9.01s3,0,3,0c-.28,3.14,1.58,8.98-3,9.01Z"/>
      <path class="cls-38" d="M20,99c.78,1.11,2.23,1.15,2.78,3.71,1.45,6.63.46,9.35-5.78,10.29v-1c5.85-2.45,6.54-5.78,3-11v-2Z"/>
      <path class="cls-10" d="M20,62c-.57,4.5-6.54,1.84-9,7,.08-1.48,1.17-3.31,1-5,3.96-1.64,3.22-1.69,8-2Z"/>
      <path class="cls-8" d="M20,101c3.54,5.22,2.85,8.55-3,11-8.46,1.37-4.82-10.54-6.12-14.38-.85-2.51-4.7-.25-3.87-3.62,5.57-.62,10.04,2.63,13,6.99Z"/>
    </g>
  </g>
</svg>