<?xml version="1.0" encoding="UTF-8"?>
<svg id="_Слой_2" data-name="Слой 2" xmlns="http://www.w3.org/2000/svg" viewBox="0 0 100 151">
  <defs>
    <style>
      .cls-1 {
        fill: #471f13;
      }

      .cls-2 {
        fill: #fbdec7;
      }

      .cls-3 {
        fill: #facfb0;
      }

      .cls-4 {
        fill: #4a2114;
      }

      .cls-5 {
        fill: #461f13;
      }

      .cls-6 {
        fill: #4a332c;
      }

      .cls-7 {
        fill: #4b2419;
      }

      .cls-8 {
        fill: #fcd2b4;
      }

      .cls-9 {
        fill: #441d12;
      }

      .cls-10 {
        fill: #9d9390;
      }

      .cls-11 {
        fill: #fde3cd;
      }

      .cls-12 {
        fill: #edeae9;
      }

      .cls-13 {
        fill: #884931;
      }

      .cls-14 {
        fill: #d59173;
      }

      .cls-15 {
        fill: #633829;
      }

      .cls-16 {
        fill: #fbd0b2;
      }

      .cls-17 {
        fill: #481f12;
      }

      .cls-18 {
        fill: #d89674;
      }

      .cls-19 {
        fill: #dd9b78;
      }

      .cls-20 {
        fill: #cbc1be;
      }

      .cls-21 {
        fill: #552e21;
      }

      .cls-22 {
        fill: #4f2518;
      }

      .cls-23 {
        fill: #db9a77;
      }

      .cls-24 {
        fill: #937e78;
      }

      .cls-25 {
        fill: #e5a07c;
      }

      .cls-26 {
        fill: #522b1e;
      }

      .cls-27 {
        fill: #d08f73;
      }

      .cls-28 {
        fill: #51281a;
      }

      .cls-29 {
        fill: #fdd4b6;
      }

      .cls-30 {
        fill: #fbd1b4;
      }

      .cls-31 {
        fill: #975941;
      }

      .cls-32 {
        fill: #f7f7f6;
      }

      .cls-33 {
        fill: #441d11;
      }

      .cls-34 {
        fill: #fadfc9;
      }

      .cls-35 {
        fill: #f6dac4;
      }

      .cls-36 {
        fill: #3f261f;
      }

      .cls-37 {
        fill: #50291d;
      }

      .cls-38 {
        fill: #f9cdaf;
      }

      .cls-39 {
        fill: #3e241c;
      }

      .cls-40 {
        fill: #451d11;
      }

      .cls-41 {
        fill: #4f3127;
      }

      .cls-42 {
        fill: #4f342b;
      }

      .cls-43 {
        fill: #371f19;
      }

      .cls-44 {
        fill: #8b4b34;
      }

      .cls-45 {
        fill: #472015;
      }

      .cls-46 {
        fill: #edb696;
      }

      .cls-47 {
        fill: #40251d;
      }

      .cls-48 {
        fill: #fadec7;
      }

      .cls-49 {
        fill: #3d160b;
      }

      .cls-50 {
        fill: #945a44;
      }

      .cls-51 {
        fill: #fce2cc;
      }

      .cls-52 {
        fill: #51281b;
      }

      .cls-53 {
        fill: #40261e;
      }

      .cls-54 {
        fill: #7b4b3f;
      }

      .cls-55 {
        fill: #ce8e72;
      }

      .cls-56 {
        fill: #3d2721;
      }

      .cls-57 {
        fill: #fbcfb1;
      }

      .cls-58 {
        fill: #e8a683;
      }
    </style>
  </defs>
  <g id="_Слой_8_Изображение" data-name="Слой 8 Изображение">
    <g>
      <path class="cls-25" d="M64,6c2.74,3.48,8.93,2.1,12.43,8.07.77,1.32,3.29,8.03,3.51,9.49.68,4.58-2,11.09,3.06,13.44-.23,3.69.49,7.38-1,11-.45.17-.87.53-1,1-.09.32.1.71,0,1-4.97-.57-8.68.33-8,6-.75-.57-20.03,6.46,0,5-7.24,2.74-17.98-1.37-19.05,10.45-.26,2.9-.26,18.28,1.06,19.54,1.7,1.62,1.68-.38,2.01-1.46,2.83-9.13-1.2-13,8.46-20.6,1.39-1.1,3.06-.67,3.51-.94l2,1c-1.07.38-4.17,5.82-3,6.99,3.67-1.12,11.54-.16,14.38-1.15,1.22-.42,1.28-2.15,1.89-2.55,1.21-.79,5.04-.56,5.6-1.43.64-1-.07-5.93.13-7.87,2.76,1.62,1.55,4.81,2,7,.57,2.77,1.82,1.59,2.07,3.43.34,2.46.6,7.7-2.07,8.57-.08-1.3,1-8-1.49-6.99-3.03,1.22-4.23,6-3.51,8.99h-1c-4.17,1.04-1.15-5.79-4.49-5.99-.6,1.96-3.23,3.02-3.95,4.05-.82,1.16-.37,2.65-.56,2.94-1.66,2.59-6.85,4.55,0,7-.78,5.94-.71,20.19,0,26-.68.68-2.61,1.4-3,2-.13-2.07.82-6.94-1.52-7.99-1.21-.54-3.9,4-5.32,4.65-.81,6.55-.22,11.34,5.84,5.34-.52,1.06-2.16,6.4-2.11,7.49.14,2.74,2.57,4.37,3.11,7.51.05.32-.03.67,0,1-12.4-10.41-12.97,7.95-4.49,7.99,1.54,0,2.72-1.86,3.49-1.99,1.56,4.7-6.01,3.29-7.98,2.48-6.35-2.62-1.36-10.34-7.02-11.48.23-6.94,1.09-13.21-3-19,.75-.51,4.64-1.1,2.99-2.98-.14-.15-1.77-.19-2.53-.97-1.55-1.58-.91-3.75-3.93-3.09-2.76.6-2.53,3.91-5.52,4.07-.87,1.07,2.34,3.66,2.99,3.98-.12,1.1-1.77,1.62-2,2-1.8,2.98-.42,4.56-1.19,7.31-.5,1.76-3.07,2.59-3.61,4.39-.8,2.71.11,6.42-.2,9.3-.33.01-.67-.04-1,0-1.67-.02-3.33.02-5,0l2.98-3.5c-2.41-2.78-6.73-1.1-9.98-1.5l2.99,4.99c-3.21-.56-3.97-2.18-6-4-.25-.22-1.26-.14-2-1-.35-4.01,4.24-2.26,5.12-3.58.63-.94.52-3.31,1.14-4.65,1.23-2.66,4.54-3.83,1.74-7.76,1.92.33,7.62.37,6.99-2.48-.11-.52-7.02-7.3-7.51-7.51-2.81-1.18-1,7.8-1.49,8.99-.63-.32-1.1-2.68-3-2-.65-4.04,1.61-20.65-2-22,1.8-.24,1.6-2.55,2-3,.19-.22,2.62-.13,2.94-1.56s-2.52-6.52-3.94-7.44c-1.22-.79-5.13-1.85-5.99-.99-.36.36-.29,8.36-2.01,9.99-.2-.14-.69.12-1,0-.27-.11-.68.09-1,0,2.9-6.11.52-8.87-3.5-12.98-.89.02.06,2.72-4.5,2.98.29-2.6-.49-5.8.05-8.26.22-1,1.68-1.29,1.95-1.74,1.27-2.09.34-1.97,3-4,.91,2.72-3.46,6.31-.26,8.01,6.57,3.5,8.69-1.41,13.26-4.01.73,6.76,11.2,11.28,10.1,1.49-.27-2.42-2.6-1.53-3.1-3.48h6c.52.35,6.61,10.09,6.79,10.7.82,2.83-.9,9.3,1.21,10.8.55.99,2-.9,2-1.01v-23c0-.98-8.88-4.58-11-4.5l1-2.99c-3.6-.51-6.16-1.99-9-4.01.04-1.6-.64-4.79-2-5.57-1.77-1.01-2.25,2.22-6-2.43-2.16-2.68-3.02-5.46-2.02-9.3.27-1.05,2.39-.95,2.87-2.32,1.07-3.07-.5-9.22.17-12.86.51-2.8,2.59-2.84,2.98-3.52-1.21,3.97,1.72,25.02,4.2,26.81.76.55,3.24.26,4.6.86,6.78,2.97,9.42,4.35,17.46,3.09,9.59-1.51,14.28-4.79,17.02-13.98,5-16.76-4.32-24.83-19.28-29.78,4.64-.17,9.35.12,14,0ZM30,83.99c5.36-1.3,8.48,5.43,11,6.52,3.53,1.52,2-7.9-2.7-9.3-2.52-.75-8.68-1.07-8.29,2.78ZM74,83.99c.08-4.29-5.88-3.38-8.74-2.23-3.92,1.58-4.85,5.33-4.25,9.24,4.36,1.02,3.68-4.64,7.23-6.27,1.85-.85,3.8-.8,5.76-.74ZM44.76,95.24c-2.29-2.21-13.21-1.32-14.58.92-3.31,5.42,6.9,15.07,14.18,12.66.24-.08,3.6-3.14,3.66-3.38.8-3.29-2.42-2.37-2.92-4.06-.43-1.45,1.63-4.24-.33-6.14ZM57,96c2.16,4.82-2.9,7.07-3.02,7.5-1.06,3.54,1.57,1.91,2.7,2.77.71.54.75,2.16,1.94,2.58s6.46.48,7.66.16c.52-.14,7.4-7.13,7.57-7.64,3.61-10.62-15.37-4.82-16.85-5.36-.15-.05-.45-1.62-2.47-1.99-2.3-.42-5.13.22-7.52,0-.58.51,2.53,8.58,4.61,8.94,3.1.54,3.43-5.79,5.39-6.95ZM64.02,115.99h-3.03v9.01h3.03v-9.01Z"/>
      <path class="cls-5" d="M20,94c1.2.39,3.9-.41,5,0,3.61,1.35,1.35,17.96,2,22,.37,2.29,1.38,3.06,2.98,4.5-1.33,2.26-4.6.97-6.04,1.94-1.6,1.08-1.5,10.76.06,12.56.74.86,1.75.78,2,1v5c-5.99-4.93-7.7-7.93-5.99-16.48.44-2.21,2.53-2.95,2.76-4.14,1.31-6.84-6.19-3.45-10.06-4.59-1.96-.57-3.43-3.34-4.71-4.79-.58-1.38,1-1.89,1-2h2c.03,1-.04,2.01,0,3h12.01c.44-4.11-.32-7.34-2-11-1.81-3.95-4.93-5.39-4-10,.31.12.8-.14,1,0,.91.64,1.04,2.69,2,3Z"/>
      <path class="cls-43" d="M35,5c.01.09,1.48-.08.98,1.46-.21.66-2.22,1.6-2.98,2.54-3.11,3.83-4.37,5.42-7,10-.39.68-2.46.72-2.98,3.52-.67,3.64.9,9.79-.17,12.86-.48,1.36-2.6,1.27-2.87,2.32-1,3.84-.14,6.62,2.02,9.3l-1,3c-4.86-5.57-6.27-8.34-4.77-16.27.51-2.69,2.44-4.57,3.06-6.94,1.83-7.02,1.09-13.14,8.05-18.45,2.25-1.72,4.83-2.92,7.66-3.34Z"/>
      <path class="cls-45" d="M65,2c6.04,2.94,17.21,10.95,18.82,17.76.53,2.23-.97,3.98-.85,5.79.1,1.45,1.02,3.08,1.02,3.44-.02,3.27-.87,5.89-1,8-5.06-2.35-2.38-8.86-3.06-13.44-.22-1.46-2.74-8.17-3.51-9.49-3.5-5.97-9.68-4.59-12.43-8.07-.21-.27.62-1.77-.59-2.05-4.08-.96-18.63-.05-23.84.13-1.72.06-2.91,2.48-2.57-1.08.34-.15.71-.96,1-1,6.77,1.63,15.43,1.28,22.5,1,1.38-.05,4.11.7,4.5-1Z"/>
      <path class="cls-9" d="M26,55c.61-.44.73-1.88,1.51-2.02,2.12-.38,1.44,1.27,2.49,2.02,2.84,2.03,5.4,3.5,9,4.01l-1,2.99c-.57.02-1.88-.12-2,0-2.45-1.79-6.22-3.63-9.31-3.01-.8.16-.69,1.8-1.91,2.34-2.53,1.11-5.14-.48-5.78,3.68-1.36.15-2.82-.29-4.31.2-1.32.43-1.35,1.54-1.69,1.8-2.66,2.03-1.73,1.91-3,4-1.62-.85-.94-3.4-1-5,1.45-1.43,3.69-5.9,4.98-6.52,4.02-1.9,6.03-.11,12.02-4.48Z"/>
      <path class="cls-40" d="M98,69c.62,9.12-1.29,19.17,1,28-.46,3.06-2.17,3.5-5,4,.06-.32-.04-.67,0-1,1.04-7.82,1.96-19.63,1.08-27.54-.24-2.17-1.58-1.68-3.08-2.46-.45-2.19.76-5.38-2-7,.03-.34-.07-.7,0-1,.1-.43,1.59-1.43,2-2,5.56,4.77,2.26,3.58,3.56,7.07.39,1.04,2.08,1.42,2.44,1.93Z"/>
      <path class="cls-1" d="M80,93c.39,3.57-1.58,9.07,3.52,9.98,3.02.54,6.91-1.53,8.48,2.02-3.67,1.72-6.15.81-10,1-.66.03-1.34-.05-2,0v14.01c-1.43.02-2.49,2.18-3-2-.71-5.81-.78-20.06,0-26,.14-1.07.44-2.08,1-3,.59,1.17,1.59.23,2,4Z"/>
      <path class="cls-33" d="M58,135c5.66,1.13.67,8.86,7.02,11.48,1.96.81,9.54,2.23,7.98-2.48.32-.06.67.05,1,0,1.23-.2,3.7-.14,5,0,.54.06,1.36.81,2,1-1.25,1.47-2.78,4.23-4.71,4.79s-12.66.56-14.59,0c-5.36-1.56-4.9-8.46-4.71-12.79,0-.2.97-1.09,1-2Z"/>
      <path class="cls-13" d="M80,120c.12,0,.61.83,1,1-.28,1.26-1.86,2.42-3,3-1.39-4.02-4.75-1.47-4.06,2.5.2,1.13,3.31,4.6,5.06,4.5.37,2.52.93,4.16,1,7l-6-1c-.54-3.14-2.97-4.77-3.11-7.51-.05-1.09,1.59-6.43,2.11-7.49.32-.65.61-1.41,1-2s2.32-1.32,3-2c.51,4.18,1.58,2.02,3,2Z"/>
      <path class="cls-28" d="M58,135c-.03.91-.99,1.8-1,2-5.16-4.28-2.03-10.14-3-15.5-.38-2.1-2.8-3.59-3.99-2.5-.31.28-1.07,5.58-2.01,8l-1-8c.23-.38,1.88-.9,2-2,4.87,2.39,3.77.53,6-1,4.09,5.79,3.23,12.06,3,19Z"/>
      <path class="cls-36" d="M37,3c-.34,3.55.85,1.13,2.57,1.08,5.21-.18,19.77-1.08,23.84-.13,1.21.28.38,1.78.59,2.05-4.65.12-9.36-.17-14,0-6.91.25-10.4.61-17,3,.76-.94,2.77-1.88,2.98-2.54.5-1.54-.97-1.38-.98-1.46-.36-2.59,1.18-1.64,2-2Z"/>
      <path class="cls-54" d="M83,91c.01,1-.02,2,0,3,.06,3.77,2.15,7.05,6,8,2.27.56,2.72-.23,3.67-1.97l1.33-.03c-.04.33.06.68,0,1-.16.84,2.1,2.08-2,4-1.56-3.55-5.46-1.49-8.48-2.02-5.1-.91-3.13-6.4-3.52-9.98.26-1.65,2.88-1.87,3-2Z"/>
      <path class="cls-26" d="M48,127c-.84,2.18-2.48,3.66-2.79,4.7-.93,3.19.66,5.89.4,7.89-.14,1.06-1.34,1.06-1.61,1.41-.59-.19-1.55-1.02-2-1,.31-2.88-.6-6.6.2-9.3.53-1.8,3.11-2.63,3.61-4.39.78-2.75-.61-4.33,1.19-7.31l1,8Z"/>
      <path class="cls-6" d="M5,81c.1,1.99-.12,4.01,0,6,.2,3.2-.67,8.79-.02,11.3.27,1.05,2.43.96,2.88,2.31.13.4,1.15,7.91,1.15,8.39,0,.11-1.58.62-1,2-1.06-1.2-2.95-1.63-3.61-3.97-.73-2.6.63-4.06.42-5.47-.16-1.08-1.63-1.26-1.82-1.56,1.65-5.71,1.64-13.37,0-19,.19-.32.79-.58,1-1,0,.07.96.27,1,1Z"/>
      <path class="cls-47" d="M82,49v-1c1.49-3.62.77-7.31,1-11,.13-2.11.98-4.73,1-8,5.08,3.27.18,11.24,2.59,16.54-.22,1.49-2.97,3.48-4.59,3.46Z"/>
      <path class="cls-39" d="M41,140c.33-.04.67.01,1,0,.45-.02,1.41.81,2,1-.86,1.08-1.02,2.28-2.72,2.79-.61.18-11.95.18-12.56,0-1.91-.57-1.94-2.15-2.72-2.79v-1c3.9.94,7.61,1.06,11.62,1.07,1.95,0,2.96-1.02,3.38-1.07Z"/>
      <path class="cls-7" d="M81,50c-.98,2.74-2.68,3.67-2.99,4.51-.8,2.14,1.81,1.31,1.99,1.49s-.12,1.44,0,2c-1.9-.05-4.82.42-6.35.02-1.04-.27-.57-1.95-.65-2.02-.68-5.67,3.03-6.57,8-6Z"/>
      <path class="cls-37" d="M81,145c-.64-.19-1.46-.94-2-1,1.18-1.86,1.05-3.92,1-6-.07-2.84-.63-4.48-1-7-.05-.33.06-.68,0-1,2.23.17,3.57,1.28,3.98,3.52.18.98.71,8.37.62,9.04-.19,1.47-2.01,1.74-2.6,2.44Z"/>
      <path class="cls-53" d="M3,100c-1.63-2.59-1.7-16.17,0-19,1.64,5.63,1.65,13.29,0,19Z"/>
      <path class="cls-50" d="M30,55c-1.05-.75-.38-2.4-2.49-2.02-.78.14-.9,1.57-1.51,2.02-1.94-1.42-3.43-3.21-5-5l1-3c3.75,4.65,4.23,1.42,6,2.43,1.36.78,2.04,3.97,2,5.57Z"/>
      <path class="cls-1" d="M79,131c-1.76.11-4.87-3.37-5.06-4.5-.69-3.98,2.67-6.52,4.06-2.5.35,1,.69,4.39,1,6,.06.32-.05.67,0,1Z"/>
      <path class="cls-17" d="M92,60c-.41.57-1.9,1.57-2,2-1.39-.53-2.74-2.71-4-3-1.1-1.7-4.11-.95-6-1-.12-.56.18-1.83,0-2,2.7.5,6.89.44,9.29,1.23,1.96.65,1.9,2.07,2.71,2.77Z"/>
      <path class="cls-24" d="M99,97c-2.29-8.83-.38-18.88-1-28,.71.98.88.78,1.06,2.39.57,5.19.68,20.64-.06,25.61Z"/>
      <path class="cls-10" d="M45,2c6.64-.24,13.36.18,20,0-.39,1.7-3.12.95-4.5,1-7.07.28-15.73.63-22.5-1,2.05-.31,4.78.08,7,0Z"/>
      <path class="cls-56" d="M6,81h-1c-.04-.73-1-.93-1-1-.25-3.7-1.33-8.48,3-9-.17,3.33.71,6.97-1,10Z"/>
      <path class="cls-42" d="M9,66c.06,1.6-.62,4.15,1,5-.27.45-1.74.74-1.95,1.74-.54,2.45.25,5.66-.05,8.26-.66.04-1.34-.03-2,0,1.71-3.03.83-6.67,1-10,.06-1.27-.06-4.71.09-4.9.34-.43,1.76.05,1.91-.1Z"/>
      <path class="cls-32" d="M65,2c-6.64.18-13.36-.24-20,0,4.74-1.38,15.82-2.03,20,0Z"/>
      <path class="cls-20" d="M82,106c-2.42,4.3-.04,10.68-1,15-.39-.17-.88-1-1-1v-14.01c.66-.05,1.34.04,2,0Z"/>
      <path class="cls-49" d="M82,49h-1c.13-.47.55-.83,1-1v1Z"/>
      <path class="cls-29" d="M50,6c14.96,4.95,24.28,13.02,19.28,29.78-2.74,9.19-7.43,12.47-17.02,13.98-8.03,1.27-10.67-.12-17.46-3.09-1.37-.6-3.85-.32-4.6-.86-2.48-1.79-5.41-22.84-4.2-26.81,2.63-4.58,3.89-6.17,7-10,6.6-2.39,10.09-2.75,17-3Z"/>
      <path class="cls-51" d="M86,59c1.26.29,2.61,2.47,4,3-.07.3.03.66,0,1-.2,1.94.52,6.87-.13,7.87-.56.86-4.39.63-5.6,1.43-.62.41-.68,2.13-1.89,2.55-2.84.99-10.7.03-14.38,1.15-1.18-1.18,1.92-6.61,3-6.99,1.43-.51,4.9,1.13,3.99-1.49-1.99-5.7-5.21.02-5.99.49-.45.27-2.12-.15-3.51.94-9.66,7.59-5.63,11.47-8.46,20.6-.33,1.08-.31,3.08-2.01,1.46-1.32-1.26-1.32-16.65-1.06-19.54,1.07-11.82,11.81-7.71,19.05-10.45,4.23-1.6,7.89-3.18,13-2Z"/>
      <path class="cls-11" d="M57,96c1.48.54,20.47-5.26,16.85,5.36-.17.51-7.05,7.5-7.57,7.64-1.2.32-6.51.25-7.66-.16s-1.23-2.04-1.94-2.58c-1.14-.86-3.77.77-2.7-2.77.13-.43,5.18-2.68,3.02-7.5Z"/>
      <path class="cls-11" d="M44.76,95.24c1.97,1.89-.09,4.69.33,6.14.49,1.69,3.71.76,2.92,4.06-.06.24-3.42,3.3-3.66,3.38-7.28,2.42-17.49-7.23-14.18-12.66,1.37-2.24,12.29-3.13,14.58-.92Z"/>
      <path class="cls-34" d="M38,62c2.12-.08,11,3.52,11,4.5v23c0,.12-1.45,2-2,1.01-2.1-1.5-.38-7.98-1.21-10.8-.18-.61-6.27-10.34-6.79-10.71-.79-.56-5.47-1.99-6-2,0-.67,0-1.33,0-2,3.82-.56,2.49-2.51,3-3,.12-.12,1.43.02,2,0Z"/>
      <path class="cls-27" d="M5,87c2.27-.71,6.92-4.88,9.01-1.99.39.55-3.8,4.36,1.99,5.99.32.09.73-.11,1,0-.93,4.61,2.19,6.05,4,10-3.34-.5-3.8-4.82-7.26-6.24-1.92-.79-3.69-.94-5.74-.75-.85,2.89,2.26,1.72,2.86,3.6.77,2.4.04,8.31.14,11.39h-2c0-.47-1.01-7.99-1.15-8.39-.45-1.35-2.6-1.26-2.88-2.31-.65-2.51.22-8.1.02-11.3Z"/>
      <path class="cls-3" d="M87,84c-.71-2.99.48-7.77,3.51-8.99,2.49-1,1.41,5.69,1.49,6.99.46,7.71,1.28,12.89-3,20-3.85-.95-5.94-4.23-6-8,1.29-.04,5.89-3.09,6.04-3.7.89-3.7-1.77-5.16-2.04-6.3Z"/>
      <path class="cls-8" d="M26,65c.14,1.96-.21,4.07,0,6-4.58,2.6-6.7,7.51-13.26,4.01-3.2-1.7,1.17-5.3.26-8.01.34-.26.37-1.37,1.69-1.8,1.48-.49,2.95-.04,4.31-.2,2.81-.32,3.87.13,7-1v1Z"/>
      <path class="cls-44" d="M27,116c1.9-.68,2.37,1.68,3,2,.58.29,1.53.92,2,1,2.8,3.94-.51,5.1-1.74,7.76-.62,1.35-.52,3.71-1.14,4.65-.88,1.32-5.47-.42-5.12,3.58-1.55-1.79-1.66-11.47-.06-12.56,1.44-.97,4.71.31,6.04-1.94-1.6-1.44-2.62-2.21-2.98-4.5Z"/>
      <path class="cls-48" d="M74,138c.16,1.98-.11,4.02,0,6-.33.05-.68-.06-1,0-.77.13-1.95,2-3.49,1.99-8.48-.04-7.92-18.39,4.49-7.99Z"/>
      <path class="cls-22" d="M77,85c.19-.3-.26-1.78.56-2.94.72-1.03,3.36-2.09,3.95-4.05,3.34.2.32,7.04,4.49,5.99,2.59,3.74-.33,2.58-2.06,4.44-.77.83-.72,2.33-.94,2.56-.12.13-2.74.35-3,2-.41-3.77-1.41-2.83-2-4-.52-1.02-.54-2.83-1-4Z"/>
      <path class="cls-38" d="M8,81c4.56-.26,3.61-2.96,4.5-2.98,4.02,4.11,6.4,6.87,3.5,12.98-5.79-1.63-1.6-5.45-1.99-5.99-2.09-2.88-6.74,1.28-9.01,1.99-.12-1.99.1-4.01,0-6h1c.66-.03,1.34.04,2,0Z"/>
      <path class="cls-16" d="M39,69h-6c.5,1.96,2.83,1.07,3.1,3.49,1.1,9.8-9.37,5.27-10.1-1.49.33-.19,1.53.22,2.35-.18,1.43-.71,2.27-3.87,4.65-3.82.53.01,5.21,1.44,6,2Z"/>
      <path class="cls-55" d="M92,70c1.49.78,2.83.29,3.08,2.46.89,7.9-.03,19.71-1.08,27.54l-1.33.03c-.95,1.75-1.4,2.53-3.67,1.97,4.28-7.11,3.46-12.29,3-20,2.68-.86,2.41-6.11,2.07-8.57-.25-1.85-1.5-.67-2.07-3.43Z"/>
      <path class="cls-57" d="M74,120c-.39.59-.68,1.35-1,2-6.06,6-6.65,1.2-5.84-5.34,1.42-.64,4.12-5.19,5.32-4.65,2.34,1.05,1.39,5.92,1.52,7.99Z"/>
      <path class="cls-4" d="M49,117c-.65-.32-3.86-2.91-2.99-3.98,2.99-.16,2.75-3.46,5.52-4.07,3.02-.66,2.38,1.52,3.93,3.09.77.78,2.4.82,2.53.97,1.65,1.88-2.25,2.47-2.99,2.98-2.23,1.53-1.13,3.39-6,1Z"/>
      <path class="cls-2" d="M30,83.99c-.38-3.85,5.77-3.53,8.29-2.78,4.7,1.4,6.24,10.82,2.7,9.3-2.52-1.08-5.63-7.82-11-6.52Z"/>
      <path class="cls-2" d="M74,83.99c-1.96-.06-3.92-.11-5.76.74-3.55,1.63-2.87,7.29-7.23,6.27-.59-3.91.33-7.66,4.25-9.24,2.85-1.15,8.81-2.06,8.74,2.23Z"/>
      <path class="cls-14" d="M57,96c-1.96,1.16-2.29,7.49-5.39,6.95-2.08-.36-5.18-8.43-4.61-8.94,2.4.22,5.22-.42,7.52,0,2.02.37,2.32,1.93,2.47,1.99Z"/>
      <path class="cls-16" d="M32,119c-.47-.08-1.42-.71-2-1,.49-1.19-1.33-10.17,1.49-8.99.49.21,7.39,6.99,7.51,7.51.63,2.85-5.07,2.81-6.99,2.48Z"/>
      <path class="cls-52" d="M26,82c.54,1.67,0,3.6,0,5-2.34.64-6.67,4.33-6,7-.96-.31-1.09-2.36-2-3,1.72-1.63,1.65-9.63,2.01-9.99.86-.85,4.77.2,5.99.99Z"/>
      <path class="cls-31" d="M73,56c.08.06-.39,1.74.65,2.02,1.53.4,4.45-.07,6.35-.02s4.9-.7,6,1c-5.11-1.18-8.77.4-13,2-20.03,1.46-.75-5.57,0-5Z"/>
      <path class="cls-18" d="M80,138c.05,2.08.18,4.14-1,6-1.3-.14-3.77-.2-5,0-.11-1.98.16-4.02,0-6-.03-.33.05-.68,0-1l6,1Z"/>
      <path class="cls-35" d="M32,140l-2.99-4.99c3.24.39,7.57-1.28,9.98,1.5l-2.98,3.5c-1.26-.02-2.87.2-4,0Z"/>
      <path class="cls-19" d="M87,84c.27,1.14,2.93,2.6,2.04,6.3-.15.61-4.75,3.66-6.04,3.7-.02-1,.01-2,0-3,.21-.23.16-1.73.94-2.56,1.74-1.86,4.65-.71,2.06-4.44h1Z"/>
      <path class="cls-12" d="M26,87c0,1.31-.52,3.34,1,4-.4.45-.2,2.76-2,3-1.1-.41-3.8.39-5,0-.67-2.67,3.66-6.36,6-7Z"/>
      <rect class="cls-29" x="60.98" y="115.99" width="3.03" height="9.01"/>
      <path class="cls-21" d="M27,91c-1.52-.66-.99-2.69-1-4,0-1.4.54-3.33,0-5,1.42.92,4.27,6.02,3.94,7.44s-2.75,1.34-2.94,1.56Z"/>
      <path class="cls-41" d="M26,136c2.03,1.82,2.79,3.44,6,4,1.13.2,2.74-.02,4,0,1.67.02,3.33-.02,5,0-.41.05-1.43,1.07-3.38,1.07-4.01,0-7.72-.13-11.62-1.07v-4Z"/>
      <path class="cls-15" d="M78,89c-.56.92-.86,1.93-1,3-6.85-2.45-1.66-4.41,0-7,.46,1.17.48,2.98,1,4Z"/>
      <path class="cls-46" d="M69,68c.78-.47,4-6.19,5.99-.49.91,2.62-2.56.97-3.99,1.49l-2-1Z"/>
      <path class="cls-30" d="M11,109c-.09-3.08.63-8.99-.14-11.39-.6-1.88-3.71-.71-2.86-3.6,2.05-.19,3.81-.04,5.74.75,3.46,1.42,3.91,5.74,7.26,6.24,1.68,3.66,2.44,6.89,2,11h-12.01c-.04-1,.04-2,0-3Z"/>
      <path class="cls-23" d="M36,62c-.51.49.82,2.44-3,3,0-1,.03-2,0-3-3.8-1.61-6.05,1.66-7.01,2-3.13,1.13-4.19.68-7,1,.64-4.16,3.25-2.57,5.78-3.68,1.21-.53,1.11-2.18,1.91-2.34,3.09-.62,6.86,1.23,9.31,3.01Z"/>
      <path class="cls-58" d="M33,65c0,.67,0,1.33,0,2-2.38-.05-3.22,3.1-4.65,3.82-.82.41-2.02,0-2.35.18-.21-1.93.14-4.04,0-6,2.23-.22,4.86.31,7,0Z"/>
      <path class="cls-3" d="M26,64c.96-.35,3.21-3.62,7.01-2,.02,1,0,2,0,3-2.14.31-4.77-.22-7,0v-1Z"/>
    </g>
  </g>
</svg>