<?xml version="1.0" encoding="UTF-8"?>
<svg id="_Слой_2" data-name="Слой 2" xmlns="http://www.w3.org/2000/svg" viewBox="0 0 78 150">
  <defs>
    <style>
      .cls-1 {
        fill: #4e271c;
      }

      .cls-2 {
        fill: #c3b7b3;
      }

      .cls-3 {
        fill: #433127;
      }

      .cls-4 {
        fill: #d39174;
      }

      .cls-5 {
        fill: #45332a;
      }

      .cls-6 {
        fill: #c08064;
      }

      .cls-7 {
        fill: #8f5038;
      }

      .cls-8 {
        fill: #321b15;
      }

      .cls-9 {
        fill: #f8cdaf;
      }

      .cls-10 {
        fill: #f0c2a5;
      }

      .cls-11 {
        fill: #fde3cd;
      }

      .cls-12 {
        fill: #d39477;
      }

      .cls-13 {
        fill: #664f48;
      }

      .cls-14 {
        fill: #421b0f;
      }

      .cls-15 {
        fill: #884931;
      }

      .cls-16 {
        fill: #543229;
      }

      .cls-17 {
        fill: #542d21;
      }

      .cls-18 {
        fill: #db9b7a;
      }

      .cls-19 {
        fill: #db997b;
      }

      .cls-20 {
        fill: #824f42;
      }

      .cls-21 {
        fill: #fbe0ca;
      }

      .cls-22 {
        fill: #d99d80;
      }

      .cls-23 {
        fill: #cac4c2;
      }

      .cls-24 {
        fill: #e3c2ad;
      }

      .cls-25 {
        fill: #4e2214;
      }

      .cls-26 {
        fill: #e8a885;
      }

      .cls-27 {
        fill: #3e261e;
      }

      .cls-28 {
        fill: #dc9e81;
      }

      .cls-29 {
        fill: #f9cfb1;
      }

      .cls-30 {
        fill: #e3a07c;
      }

      .cls-31 {
        fill: #462d25;
      }

      .cls-32 {
        fill: #694036;
      }

      .cls-33 {
        fill: #e49f7b;
      }

      .cls-34 {
        fill: #fbd1b2;
      }

      .cls-35 {
        fill: #f7ddc7;
      }

      .cls-36 {
        fill: #f6caad;
      }

      .cls-37 {
        fill: #fdd4b6;
      }

      .cls-38 {
        fill: #3c221b;
      }

      .cls-39 {
        fill: #582f24;
      }

      .cls-40 {
        fill: #6a483b;
      }

      .cls-41 {
        fill: #461c10;
      }

      .cls-42 {
        fill: #482116;
      }

      .cls-43 {
        fill: #cb8c71;
      }

      .cls-44 {
        fill: #d39073;
      }

      .cls-45 {
        fill: #91533b;
      }

      .cls-46 {
        fill: #7e4c40;
      }

      .cls-47 {
        fill: #dba386;
      }

      .cls-48 {
        fill: #dca285;
      }

      .cls-49 {
        fill: #fcd3b6;
      }

      .cls-50 {
        fill: #563025;
      }

      .cls-51 {
        fill: #7c4a3f;
      }

      .cls-52 {
        fill: #5d372c;
      }

      .cls-53 {
        fill: #afa6a4;
      }

      .cls-54 {
        fill: #492216;
      }

      .cls-55 {
        fill: #4c2317;
      }

      .cls-56 {
        fill: #d89c7f;
      }

      .cls-57 {
        fill: #fcd1b3;
      }

      .cls-58 {
        fill: #d8997e;
      }

      .cls-59 {
        fill: #edbea3;
      }

      .cls-60 {
        fill: #e5a17c;
      }

      .cls-61 {
        fill: #fbd2b4;
      }

      .cls-62 {
        fill: #d49679;
      }

      .cls-63 {
        fill: #3d160b;
      }

      .cls-64 {
        fill: #d18d71;
      }

      .cls-65 {
        fill: #301913;
      }

      .cls-66 {
        fill: #fefefe;
      }

      .cls-67 {
        fill: #543024;
      }

      .cls-68 {
        fill: #40241d;
      }

      .cls-69 {
        fill: #8c5038;
      }

      .cls-70 {
        fill: #d6997b;
      }

      .cls-71 {
        fill: #f7cdaf;
      }

      .cls-72 {
        fill: #f1c1a3;
      }

      .cls-73 {
        fill: #46342b;
      }

      .cls-74 {
        fill: #ab9a96;
      }

      .cls-75 {
        fill: #392019;
      }

      .cls-76 {
        fill: #938784;
      }
    </style>
  </defs>
  <g id="_Слой_40_Изображение" data-name="Слой 40 Изображение">
    <g>
      <path class="cls-23" d="M78,109h-1c1.57-9.13-1.16-22.37,0-32h1v32Z"/>
      <path class="cls-14" d="M15,63c-.08,1.88-.59,2.54-1,4-.74,2.67-1.67,2.54-2,7-.17,2.35-.21,5.67,0,8,.69,7.5,3.62,4.88,6,9,.14,3.45.15,9.13,1.23,12.27.51,1.48,2.76,2.98,2.75,3.23-.03.71-2.3,1.1-2.75,1.75-.65.94-.05,2.06-.23,2.75-1.67,6.37-.86,12.42-1,19-.12.16-.84-.16-1,0-2.67-2.86.22-14.01-1.01-16-.76-.16-1.56,1.02-1.99,1-1.64-.08-6.35-1.22-8-2-.84-4.34,6.61-.15,9-3-.58-3.22,1.46-16.16-1.61-16.96-.66-.17-1.28.97-1.39.96-2.28-.05-4.45-.99-5-1v-1c3.03.56,1.92-1.53,2-3.45.16-4.1.73-9.82-1-13.55.28-6.34-.05-8.25,6-12h1Z"/>
      <path class="cls-7" d="M55,57c.21.07,2.11,2.66,3,3-10.73-1.27-6.53,1.99-11.95,5.56-3.9,2.57-15.61,1.44-21.05,1.44h-11c.41-1.46.92-2.12,1-4,.03-.59.12-1.55,0-2-.16-.58-.33-.97-1-1h-1c-.03-.33.05-.68,0-1-.1-.63.09-1.36,0-2,4.97,1.18,7.68,4.58,13,6,3.77,1.01,8.01,1.84,12.05.56,1.56-.49,10.45-7.21,9.95-8.56,1.88,2.62,5.33,1.43,7,2Z"/>
      <path class="cls-14" d="M37,121c.08.03.3,1.08,1,1-2.53,4.13-.42,6.83,1,10,2.7,6.02-4.14,3.18-5,4-.3.28.2,4.77,0,6.01,6.05-1.13,12.31,2.78,18,0,.28-.14.66-.7,1-1l3,2c-5.33,5.48-16.93,1.84-24,3v-19c.37-1.37,1.33-3.77,2-5,.21-.39.81-.66,1-1,.62.11,1.51-.17,2,0Z"/>
      <path class="cls-15" d="M43,115c.67-.08,1.56-1.54,2.99-1-.93,5.01,2.6,8.88,5.01,13,1.78,3.05,2,7.58,5.49,6.99l.51-.99c1.38,4.08,2.38,6.52-1,10l-3-2c6.3-5.45,2-4.22-1.92-7.59-3.37-2.9-5.6-7.34-10.57-6.42l-.52,5.01h-1c-1.42-3.17-3.53-5.87-1-10,.74-1.2,1.56-.72,2-1,2.67-1.73,3.68-.68,3-6Z"/>
      <path class="cls-22" d="M67,63c.46.13,1.2,1.04,2,1,.1.63-.09,1.36,0,2,.58,4.24-.78,3.11,2,7,.39,6.08,3.1,10.44,3,16.54-.03,1.92.98,4.02-2,3.46-.15-2.82,1.21-6.85-2-6-.38-1.32-.91-2.62-1-4,1.28-.24,1.85.52,2.1-1.44.99-7.8-5.48-6.87-7.1-.56-2.5-2.17-1.75,1.02-2.51,1.03-3.2-3.1-6.19-1.6-8.49-2.03-.11-.02-1.75-.85-2-1-.09-.64.13-1.42,0-2,5.1.24,11.3-.07,14-5,1.88-3.44-.07-5.43,0-9,.47.19,1.43-.16,2,0Z"/>
      <path class="cls-54" d="M11,17c-2.3,8.05-1.73,10.82-2,19-.02.5-1.42,1.74-1,4.41.28,1.73,1.63,2.56,2,3.59l-3,2c-.03-.15-1.29-.44-1.48-1.03-.92-2.9-1.15-23.12-.51-26.45s5.46-8.36,7.98-10.52l1.01.52c-2.54,2.96-2.19,5.61-3.01,8.48Z"/>
      <path class="cls-27" d="M65,22c-.11,5.32.15,10.69,0,16-.06,2.18.45,5.52.02,7.3-.08.33-4.52,4.34-5.02,4.7l-4-1c7.11-4.6,5.75-6.5,6-14s-.16-10.03-2-17c-.33-1.26.22-3.15-.44-5.03-.9-2.56-4.47-3.73-2.56-5.97,5.43,3.96,6.89,8.86,8,15Z"/>
      <path class="cls-68" d="M74,75c1.04.6,1.98,1.37,3,2-1.16,9.63,1.57,22.87,0,32-.05.31-.85.67-1,1-2.27-2.72.14-5.61-2-9-2.57-4.07-1.74-2.99-2-8,2.98.56,1.97-1.54,2-3.46.1-6.1-2.61-10.46-3-16.54,2.15,3.01,2.82,1.89,3,2Z"/>
      <path class="cls-42" d="M56,88c.13.21-.27,1.06.21,1.77.71,1.05,4.7,2.09,5.58,4.94,2.03,6.57-.83,4.52-2.79,5.29l-3.01-4.99c2.44,2.85-2.8,2.28-3.79,5.7s.61,5.47-1.21,9.29c-4.43-4.03-.26-10.01-1-15,1.14-2.54,3.82-4.35,3.01-8,1.43-.38,2.02.6,2.99,1Z"/>
      <path class="cls-5" d="M55,5c.65,2.82-1.48,2.07-4,2-2.35-.07-3.49-.8-5-1,.56-3.03-1.53-1.92-3.45-2-5.83-.23-11.72.12-17.55,0-1.32-.03-3.31.5-4-1C27.35.6,38.7.02,45.56.94c.52.07,8.99,3.78,9.44,4.06Z"/>
      <path class="cls-56" d="M63,90c2.49-.13,3.07-.67,4.99-2-.19,1.19.31,3.04.01,4-.17.54-2.97,7.95-3.19,8.35-2.05,3.71-3.19.58-2.81,8.65-3.72.12-3.05-4.31-4-7,.41-.34.71-1.89,1-2,1.96-.77,4.81,1.28,2.79-5.29-.88-2.86-4.86-3.89-5.58-4.94-.48-.7-.08-1.56-.21-1.77,2.7,1.12,3.61,2.18,7,2Z"/>
      <path class="cls-65" d="M58,102c.95,2.69.28,7.12,4,7,.02.33-.03.67,0,1,.6,6.59,1.57,4.94,8,5h1c-.21.13-.35,1.07-1.06,1.43-10.31,5.25-16.39-4.01-13.98-13.8.29-1.19,1.83-.45,2.04-.63Z"/>
      <path class="cls-73" d="M17,130c-2.51,2.46-2.53,2.49-6,4-.54.24-1.81-.62-2.07.59-.37,1.73.81,3.12,1.07,4.41.18.87-.12,2.05,0,3-4.11-3.73-6.04-4.21-5-11,2.23-.28,7.26.89,8.55-.95,1.38-1.97,2.21-12.46.46-15.04.43.02,1.23-1.16,1.99-1,1.23,1.99-1.66,13.14,1.01,16Z"/>
      <path class="cls-50" d="M7,93c.55.01,2.72.95,5,1-4.71,2.43-6.34-1.34-7,5.49-.97,10.02-.49,11.49,10,10.51-2.39,2.85-9.84-1.34-9,3-5.26-2.49-4.7-11.3-4.08-16.53.2-1.71,3.48-3.51,5.08-3.47Z"/>
      <path class="cls-16" d="M32,146c-.59.1-1.35.79-2,1-.9-1.48-10.56-1.34-11.01-1-.16.12.1,1.44,0,2-4.55-1.54-5.91-3.2-9-6-.12-.95.18-2.13,0-3,2.45-.62,1.97,2.19,3.66,2.8,1.29.47,2.96-.1,4.34.74.75.45.67,2.22,1.69,2.48,1.7.44,7.06.08,9.3-.02.66-.03,1.34.05,2,0,.12-6.34-.62-11.97,1-18.01v19Z"/>
      <path class="cls-55" d="M49,112c-1.1,3.91,2.24,10.22,4,14l-2,1c-2.41-4.12-5.93-7.98-5.01-13-1.44-.54-2.32.92-2.99,1-.07,0-.38-1.01-1-1,.64-.66,2.88-2.82,3-3l4,1Z"/>
      <path class="cls-38" d="M56,49l4,1c-.52.37-1.37.69-2,1-.36.17-1.63-.33-1.91.05-.76,1.05.97,5.1-1.09,5.95-1.67-.57-5.12.62-7-2-.18-.48-3.38-1.2-1.02-2.52,1.23-.69,3.11-.22,4.26-.73.93-.41,3.77-2.11,4.75-2.75Z"/>
      <path class="cls-31" d="M13,57c.09.64-.1,1.37,0,2-6.4-1.14-4.81-8.02-6-13l3-2c1.52,4.29,2.4,8.54,3,13Z"/>
      <path class="cls-39" d="M25,4c-.71,4.45-3.59,2.22-6.56,3.94-2.47,1.43-5.9,6.54-7.44,9.06.82-2.87.47-5.52,3.01-8.48l-1.01-.52c3.02-2.58,3.88-3.44,8-5,.69,1.5,2.68.97,4,1Z"/>
      <path class="cls-67" d="M58,51l-1,6c5.91-.58,6.65-.16,10,4l-.98.5c.73.29.9,1.46.98,1.5-.57-.16-1.53.19-2,0-1.28-.5-2.1-1.49-4-2-.83-.23-1.17-.78-3-1-.89-.34-2.79-2.93-3-3,2.06-.85.33-4.9,1.09-5.95.28-.39,1.55.12,1.91-.05Z"/>
      <path class="cls-20" d="M51,110c-.58,1.22-1.96,1.86-2,2l-4-1c1.59-2.45.57-5.45,1.44-8.06.61-1.81,2.61-5.85,3.56-7.94.74,4.99-3.43,10.97,1,15Z"/>
      <path class="cls-40" d="M76,110c-1.54,3.31-1.94,3.08-5,5h-1c.85-2.73,1.28-6.46,2-9,.25-.88.67-2.16,1-3,.21-.53,1.05-1.15,1-2,2.14,3.39-.27,6.28,2,9Z"/>
      <path class="cls-52" d="M57,7c-1.91,2.24,1.66,3.41,2.56,5.97.66,1.88.11,3.77.44,5.03-2.01-4.62-6.25-6.97-9-11,2.52.07,4.65.82,4-2,1.26.76,1.54,1.67,2,2Z"/>
      <path class="cls-8" d="M30,147c-.57.18-1.26,1.59-3.52,1.95-3.43.54-4.68,0-7.48-.95.09-.56-.17-1.88,0-2,.45-.34,10.1-.48,11.01,1Z"/>
      <path class="cls-75" d="M69,66c2.41-.09,5.33,6.38,5,9-.18-.11-.85,1.01-3-2-2.78-3.89-1.42-2.76-2-7Z"/>
      <path class="cls-17" d="M57,133l-.51.99c-3.49.59-3.7-3.93-5.49-6.99l2-1c.68,1.45,3.27,4.83,4,7Z"/>
      <path class="cls-74" d="M8,75c1.73,3.72,1.16,9.45,1,13.55-.08,1.92,1.03,4.01-2,3.45,1.94-5.21.75-11.4,1-17Z"/>
      <path class="cls-76" d="M65,38c.15-5.31-.11-10.68,0-16,.9,4.97,2.27,11.28,0,16Z"/>
      <path class="cls-63" d="M68,62c.16.68-.55,1.26-1,1-.08-.04-.25-1.21-.98-1.5l.98-.5c.29.35.82.66,1,1Z"/>
      <path class="cls-1" d="M69,64c-.8.04-1.54-.87-2-1,.45.26,1.16-.32,1-1,.36.66.78.62,1,2Z"/>
      <path class="cls-2" d="M15,63h-1v-2h1c.12.45.03,1.41,0,2Z"/>
      <path class="cls-53" d="M14,61h-1c-.08-.27.03-.65,0-1h1v1Z"/>
      <path class="cls-66" d="M14,62c-.46-.17-.86-.52-1-1h1v1Z"/>
      <path class="cls-4" d="M25,67c-.11,2.83,4.09,3.67,2,6-5.6,4,.98,7.85.98,8.5s-3.05,1.95-3,3.99c.02.89,1.93.53,2.51,1.47.67,1.09.52,2.97,1.51,5.04.38.79,1.7.08,2,3,.07.65-.04,1.34,0,2-.64.07-1.38-.11-2,0-1.62-3.93-11.15-1.94-6,1,1.84,1.05,5.01.96,5.01,1.5l-5.01,1.5h-1c-.19-.82-3.63-9.36-4-10-2.38-4.12-5.31-1.5-6-9,3.34,2.84,5.06,4.97,10,3.99.83-2.61-2.94-2.49-3.08-3.59-.25-2.04,3.18-5.42,3.14-8.94-.08-7.15-5.91.47-10.05.54.33-4.46,1.26-4.33,2-7h11Z"/>
      <path class="cls-46" d="M15,110c-10.49.98-10.97-.49-10-10.51.66-6.83,2.29-3.06,7-5.49.1,0,.73-1.14,1.39-.96,3.07.81,1.04,13.75,1.61,16.96ZM8,98c-4.03-.6-1.18,7.59-1.99,10,4.9.14,1.22-7.1,1.99-10Z"/>
      <path class="cls-21" d="M12,74c4.14-.07,9.97-7.69,10.05-.54.04,3.52-3.39,6.9-3.14,8.94.14,1.1,3.91.98,3.08,3.59-4.93.97-6.65-1.16-10-3.99-.21-2.33-.17-5.65,0-8Z"/>
      <path class="cls-6" d="M25,107c0,.33.05.68,0,1-.91,6.14-4.93,6.91-5.8,9.71-.6,1.95-.07,4.27-.2,6.29-.17,2.59.67,3.61-1,6,.14-6.58-.67-12.63,1-19,3,.5,2.4-4.28,6-4Z"/>
      <path class="cls-45" d="M22,101c.85,3.68-2.01,3.86,3,4-.01.67.02,1.33,0,2-3.6-.28-3,4.5-6,4,.18-.69-.42-1.8.23-2.75.45-.66,2.72-1.04,2.75-1.75.01-.25-2.24-1.75-2.75-3.23-1.09-3.13-1.09-8.81-1.23-12.27.37.64,3.81,9.18,4,10Z"/>
      <path class="cls-43" d="M19,124c3.57-1.04,1.95,7.5,1.56,8.06-.96,1.38-7.55,2.04-9.56,1.94,3.47-1.51,3.49-1.54,6-4,.16-.16.88.16,1,0,1.67-2.39.83-3.41,1-6Z"/>
      <path class="cls-37" d="M46,6c1.51.2,2.65.93,5,1,2.75,4.03,6.99,6.38,9,11,1.84,6.97,2.26,9.2,2,17l-3.02,3.99c-3.17,0-2.18-3.18-5.68-3.78-5.55-.96-11.13,3.94-12.76,8.83-.81,2.43-.04,5.32-1.06,6.99-.42.69-2.3.86-2.51,1.47-1.49,4.32,4.24,1.07,6,4-1.15.75-6.23,6.38-6.68,6.48-2.95.63-7.13-.37-10.3.02-5.32-1.42-8.03-4.82-13-6-.6-4.46-1.48-8.71-3-13-.36-1.03-1.72-1.86-2-3.59-.43-2.67.98-3.91,1-4.41,3.83-5.25,5.36-13.19,6.94-19.31C27.17,5.93,30.44,3.94,46,6ZM24,44c-.39.31-1.15.37-1.49,1.02-.59,1.12-.41,1.89-.51,2.98-.3,3.41.45,10.36,5,6,1.42-1.36,1.04-2.29,1-4,1.24-3.48,4.98-1.14,7.03-2.47,4.44-2.89-4.6-8.7-11.03-3.53Z"/>
      <path class="cls-49" d="M58,60c1.83.22,2.17.77,3,1l-4.99,1.98c1.39.26,5.13,3.48,5.69,4.32.96,1.45-.49,4.93,3.3,4.7-2.7,4.93-8.9,5.24-14,5-.73-3.27-4.03-5.1-7-6-6.43-1.94-11.61-1.86-17,2,2.09-2.33-2.11-3.17-2-6,5.45,0,17.15,1.13,21.05-1.44,5.41-3.57,1.22-6.83,11.95-5.56Z"/>
      <path class="cls-60" d="M26,63c3.16-.4,7.35.6,10.3-.02.46-.1,5.54-5.73,6.68-6.48-1.76-2.93-7.5.31-6-4,.21-.61,2.09-.78,2.51-1.47,1.02-1.67.25-4.56,1.06-6.99,1.63-4.89,7.21-9.79,12.76-8.83,3.5.61,2.51,3.78,5.68,3.78l3.02-3.99c-.25,7.5,1.11,9.4-6,14-.99.64-3.82,2.33-4.75,2.75-1.15.51-3.03.05-4.26.73-2.37,1.32.84,2.04,1.02,2.52.51,1.34-8.39,8.06-9.95,8.56-4.04,1.28-8.29.45-12.05-.56ZM50.52,39.01c-.49.11-7.31,6.15-7.45,6.62-.7,2.26,2.63,4.97,4.59,5.16,6.34.6,7.05-12.7,2.86-11.78Z"/>
      <path class="cls-13" d="M15,61h-1v-1c.67.03.84.42,1,1Z"/>
      <path class="cls-64" d="M40,132l.52-5.01c4.97-.92,7.2,3.53,10.57,6.42,3.92,3.37,8.21,2.14,1.92,7.59-.34.3-.72.86-1,1-13.35,2.15-5.53-5.02-12-10Z"/>
      <path class="cls-70" d="M34,122c-.67,1.23-1.63,3.63-2,5-1.63,6.04-.88,11.66-1,18.01-.66.05-1.33-.04-2,0,4.21-6.05-4.71-10.71-4.04-15.44.6-4.2,7.29-4.74,7.04-9.56.3-.11.71.11,1,0,.19.79.05,1.62,1,2Z"/>
      <path class="cls-51" d="M52,142c-5.7,2.79-11.95-1.12-18,0,.2-1.24-.3-5.72,0-6.01.87-.82,7.7,2.02,5-4h1c6.47,4.98-1.35,12.15,12,10Z"/>
      <path class="cls-69" d="M40,118l-3,3c-.49-.17-1.38.11-2,0,.55-.96,2.01-2.26,2-3,1.02-.6,2.06-1.29,3-2v2Z"/>
      <path class="cls-18" d="M37,118c.01.74-1.45,2.04-2,3-.19.34-.79.61-1,1-.95-.38-.81-1.21-1-2,.23-.09,3.79-1.88,4-2Z"/>
      <path class="cls-25" d="M40,121c-.44.28-1.26-.2-2,1-.7.08-.92-.97-1-1l3-3v3Z"/>
      <path class="cls-41" d="M43,115c.68,5.32-.33,4.27-3,6v-5c.3-.22,1.54-1.53,2-2,.62-.01.93,1.01,1,1Z"/>
      <path class="cls-44" d="M53,80c-1.41,4.83,1.73,4.79,2.77,6.24.52.73.11,1.56.23,1.76-.98-.41-1.56-1.38-2.99-1,.82,3.65-1.86,5.46-3.01,8-.94,2.09-2.94,6.13-3.56,7.94-.88,2.61.15,5.6-1.44,8.06-.12.18-2.36,2.34-3,3-.46.47-1.7,1.78-2,2-.94.71-1.98,1.4-3,2-.03-1.66-2.73-.87-4-1,0-.33,0-.67,0-1,.98-.39,2.25-.1,2.99-1.52.06-2.5-2.05-.32-2.1-3.97-.04-3.25,1.39-2.42,2.11-3.51,2.31-3.52.3-7.55-2-5-1.81,2.01-.66,4.63-1,5.01-.47.52-6.19-1.07-7,.99h-1c.05-.32,0-.67,0-1,.02-.67-.01-1.33,0-2,4.61.12,5.5.74,6-4,.02-.2.02-3.65,0-4-.04-.66.07-1.35,0-2h6.01s0-3,0-3l-5.01-2c3.76-1.34,8.29-.29,10.99-1.51,1.45-.65,6.8-7.31,7.01-9.49.2.16.75-.15,1,0s1.89.98,2,1ZM46.99,93.01c-8.27.04-7.3,4.22-6.99,10.99,2.47.47,2.18-1.23,2.92-2.57.64-1.16,4.55-7.97,4.07-8.42Z"/>
      <path class="cls-34" d="M69,83c.09,1.38.62,2.68,1,4,1.73,6.04-2.33,11.77,3,16-.33.84-.75,2.12-1,3-3.42-.8-1.83,6.96-4.5,6.98-.34,0-3.13-4.07-5.5-2.98-.03-.33.02-.67,0-1-.38-8.07.76-4.93,2.81-8.65.22-.41,3.02-7.81,3.19-8.35,3.12-2.81-1.26-5.84-1-9,.66-.04,1.41.11,2,0Z"/>
      <path class="cls-71" d="M53,80c2.3.43,5.29-1.06,8.49,2.03.76-.02.01-3.2,2.51-1.03.11.1.83-.18.99.51v1.49c-5.35.91,3.37,4.82-1.99,7-3.39.18-4.3-.88-7-2-.12-.2.29-1.03-.23-1.76-1.04-1.45-4.18-1.41-2.77-6.24Z"/>
      <path class="cls-35" d="M61,61c1.9.51,2.72,1.5,4,2-.07,3.57,1.88,5.56,0,9-3.79.23-2.35-3.25-3.3-4.7-.55-.84-4.3-4.05-5.69-4.32l4.99-1.98Z"/>
      <path class="cls-24" d="M64,81c1.62-6.31,8.1-7.24,7.1.56-.25,1.96-.82,1.2-2.1,1.44-.59.11-1.34-.04-2,0s-1.4-.1-2,0v-1.49c-.17-.69-.89-.41-1-.51Z"/>
      <path class="cls-47" d="M70,87c3.21-.85,1.85,3.18,2,6,.26,5.01-.57,3.93,2,8,.05.85-.79,1.47-1,2-5.33-4.23-1.27-9.96-3-16Z"/>
      <path class="cls-48" d="M51,77c.13.58-.09,1.36,0,2-.25-.15-.8.16-1,0-.13-.11-.09-1.7-1-2.46-2.12-1.76-5.74-1.34-5-5.54,2.97.9,6.27,2.73,7,6Z"/>
      <path class="cls-30" d="M25,4c5.83.12,11.72-.23,17.55,0,1.92.08,4.01-1.03,3.45,2-15.56-2.06-18.83-.07-30.06,10.69-1.58,6.12-3.11,14.06-6.94,19.31.27-8.18-.3-10.95,2-19,1.54-2.53,4.97-7.64,7.44-9.06,2.97-1.72,5.85.51,6.56-3.94Z"/>
      <path class="cls-26" d="M65,83c.6-.1,1.35.04,2,0-.26,3.16,4.12,6.19,1,9,.3-.96-.2-2.81-.01-4-1.92,1.33-2.5,1.87-4.99,2,5.36-2.18-3.36-6.09,2-7Z"/>
      <path class="cls-29" d="M72,106c-.72,2.54-1.15,6.27-2,9-6.43-.06-7.4,1.59-8-5,2.36-1.09,5.16,2.99,5.5,2.98,2.67-.02,1.08-7.78,4.5-6.98Z"/>
      <path class="cls-61" d="M26,108h7.01c-.02,2.32.02,4.67,0,7l-1,1c-1.64.49-6.73,1.25-6.99,2.51-.78,3.71,5.11,2.16,6.99,1.49.25,4.82-6.44,5.36-7.04,9.56-.67,4.73,8.24,9.39,4.04,15.44-2.25.11-7.61.47-9.3.02-1.02-.27-.94-2.03-1.69-2.48-1.39-.84-3.05-.27-4.34-.74-1.7-.61-1.21-3.43-3.66-2.8-.26-1.28-1.44-2.68-1.07-4.41.26-1.21,1.53-.36,2.07-.59,2.01.09,8.6-.57,9.56-1.94.39-.56,2.01-9.09-1.56-8.06.13-2.02-.4-4.33.2-6.29.86-2.81,4.88-3.57,5.8-9.71h1Z"/>
      <path class="cls-11" d="M44,71c-.75,4.21,2.88,3.78,5,5.54.91.76.87,2.35,1,2.46-.21,2.18-5.56,8.84-7.01,9.49-2.71,1.22-7.23.16-10.99,1.51-.49.17-1.22,2.71-3,2-.99-2.06-.84-3.95-1.51-5.04-.57-.94-2.49-.58-2.51-1.47-.05-2.04,3.01-3.36,3-3.99s-6.58-4.5-.98-8.5,10.57-3.94,17-2Z"/>
      <path class="cls-36" d="M31,101c-.5,4.74-1.39,4.12-6,4-5.01-.14-2.15-.32-3-4h9Z"/>
      <path class="cls-10" d="M32,90l5.01,2v2.99s-6.01,0-6.01,0c-.3-2.92-1.62-2.21-2-3,1.78.71,2.51-1.83,3-2Z"/>
      <path class="cls-19" d="M29,97c.62-.11,1.36.07,2,0,.02.35.02,3.8,0,4h-8l5.01-1.5c0-.54-3.17-.45-5.01-1.5,2.11.27,4.01-.65,6-1Z"/>
      <path class="cls-33" d="M29,97c-1.99.35-3.89,1.27-6,1-5.15-2.94,4.38-4.93,6-1Z"/>
      <path class="cls-62" d="M8,98c-.77,2.9,2.91,10.14-1.99,10,.81-2.41-2.04-10.6,1.99-10Z"/>
      <path class="cls-12" d="M24,44c6.43-5.17,15.47.64,11.03,3.53-2.05,1.33-5.79-1.01-7.03,2.47-.07-3.21-.09-5.56-4-6Z"/>
      <path class="cls-3" d="M28,50c.04,1.71.42,2.64-1,4-6.81.89,1.54-5.09-5-6,.1-1.09-.09-1.86.51-2.98.35-.66,1.11-.71,1.49-1.02,3.91.44,3.93,2.79,4,6Z"/>
      <path class="cls-32" d="M22,48c6.54.91-1.81,6.89,5,6-4.55,4.36-5.3-2.59-5-6Z"/>
      <path class="cls-57" d="M50.52,39.01c4.18-.92,3.47,12.38-2.86,11.78-1.96-.19-5.29-2.9-4.59-5.16.15-.48,6.97-6.52,7.45-6.62Z"/>
      <path class="cls-28" d="M33,116c0,.33,0,.67,0,1,0,.89-.46,1.07,0,3-.29.11-.7-.11-1,0-1.88.68-7.78,2.22-6.99-1.49.27-1.26,5.35-2.03,6.99-2.51.32-.1.72.11,1,0Z"/>
      <path class="cls-59" d="M37,118c-.21.12-3.77,1.91-4,2-.46-1.93,0-2.11,0-3,1.27.13,3.97-.66,4,1Z"/>
      <path class="cls-9" d="M46.99,93.01c.47.45-3.44,7.25-4.07,8.42-.73,1.34-.45,3.04-2.92,2.57-.31-6.77-1.28-10.95,6.99-10.99Z"/>
      <path class="cls-59" d="M34,102c.26,2.65-1.23,5.74,2,5-.71,1.09-2.15.26-2.11,3.51.05,3.66,2.16,1.47,2.1,3.97-.74,1.42-2.01,1.13-2.99,1.52,0-.33,0-.67,0-1,.03-2.33-.01-4.68,0-7.01h-7.01c.81-2.05,6.53-.47,7-.99.34-.37-.82-3,1-5.01Z"/>
      <path class="cls-72" d="M36,107c-3.23.74-1.74-2.35-2-5,2.3-2.55,4.31,1.48,2,5Z"/>
      <path class="cls-58" d="M33,116c-.28.11-.68-.1-1,0l1-1c0,.33,0,.67,0,1Z"/>
    </g>
  </g>
</svg>