<?xml version="1.0" encoding="UTF-8"?>
<svg id="_Слой_2" data-name="Слой 2" xmlns="http://www.w3.org/2000/svg" viewBox="0 0 103 148">
  <defs>
    <style>
      .cls-1 {
        fill: #471e13;
      }

      .cls-2 {
        fill: #461f13;
      }

      .cls-3 {
        fill: #421b10;
      }

      .cls-4 {
        fill: #f8ceb1;
      }

      .cls-5 {
        fill: #613f34;
      }

      .cls-6 {
        fill: #4b2f25;
      }

      .cls-7 {
        fill: #e6e1e0;
      }

      .cls-8 {
        fill: #f9ceb0;
      }

      .cls-9 {
        fill: #d7997c;
      }

      .cls-10 {
        fill: #fcd4b6;
      }

      .cls-11 {
        fill: #cb8b6f;
      }

      .cls-12 {
        fill: #423127;
      }

      .cls-13 {
        fill: #fde3cd;
      }

      .cls-14 {
        fill: #492015;
      }

      .cls-15 {
        fill: #552a1b;
      }

      .cls-16 {
        fill: #421b0f;
      }

      .cls-17 {
        fill: #e7a682;
      }

      .cls-18 {
        fill: #fbd1b3;
      }

      .cls-19 {
        fill: #351d16;
      }

      .cls-20 {
        fill: #8f4f37;
      }

      .cls-21 {
        fill: #361e17;
      }

      .cls-22 {
        fill: #ca896d;
      }

      .cls-23 {
        fill: #ece8e7;
      }

      .cls-24 {
        fill: #e5e1df;
      }

      .cls-25 {
        fill: #874c36;
      }

      .cls-26 {
        fill: #431c10;
      }

      .cls-27 {
        fill: #c58a6e;
      }

      .cls-28 {
        fill: #f9cfb1;
      }

      .cls-29 {
        fill: #e5a07c;
      }

      .cls-30 {
        fill: #d08d71;
      }

      .cls-31 {
        fill: #d89a7c;
      }

      .cls-32 {
        fill: #492419;
      }

      .cls-33 {
        fill: #411a0f;
      }

      .cls-34 {
        fill: #7a6059;
      }

      .cls-35 {
        fill: #473028;
      }

      .cls-36 {
        fill: #fdd4b6;
      }

      .cls-37 {
        fill: #faceaf;
      }

      .cls-38 {
        fill: #fddec6;
      }

      .cls-39 {
        fill: #421a0f;
      }

      .cls-40 {
        fill: #d18f72;
      }

      .cls-41 {
        fill: #451e13;
      }

      .cls-42 {
        fill: #3b221a;
      }

      .cls-43 {
        fill: #6f524a;
      }

      .cls-44 {
        fill: #f7ceb0;
      }

      .cls-45 {
        fill: #cd8d71;
      }

      .cls-46 {
        fill: #f8ccae;
      }

      .cls-47 {
        fill: #441e13;
      }

      .cls-48 {
        fill: #4c2215;
      }

      .cls-49 {
        fill: #482116;
      }

      .cls-50 {
        fill: #402821;
      }

      .cls-51 {
        fill: #4b2215;
      }

      .cls-52 {
        fill: #967362;
      }

      .cls-53 {
        fill: #50281b;
      }

      .cls-54 {
        fill: #d39578;
      }

      .cls-55 {
        fill: #ce8c70;
      }

      .cls-56 {
        fill: #451d11;
      }

      .cls-57 {
        fill: #d38f73;
      }

      .cls-58 {
        fill: #8a4a33;
      }

      .cls-59 {
        fill: #4a2317;
      }

      .cls-60 {
        fill: #e19e7a;
      }

      .cls-61 {
        fill: #532d22;
      }

      .cls-62 {
        fill: #fbdfc7;
      }

      .cls-63 {
        fill: #fcd1b3;
      }

      .cls-64 {
        fill: #4a2318;
      }

      .cls-65 {
        fill: #e5a17c;
      }

      .cls-66 {
        fill: #fbd2b4;
      }

      .cls-67 {
        fill: #663d2f;
      }

      .cls-68 {
        fill: #fadcc4;
      }

      .cls-69 {
        fill: #492115;
      }

      .cls-70 {
        fill: #461f14;
      }

      .cls-71 {
        fill: #f8cdb0;
      }

      .cls-72 {
        fill: #fbddc6;
      }

      .cls-73 {
        fill: #3d231b;
      }

      .cls-74 {
        fill: #4d352e;
      }

      .cls-75 {
        fill: #fad0b2;
      }

      .cls-76 {
        fill: #d89a7d;
      }

      .cls-77 {
        fill: #674235;
      }

      .cls-78 {
        fill: #c5876c;
      }

      .cls-79 {
        fill: #e5a683;
      }

      .cls-80 {
        fill: #8c4c34;
      }

      .cls-81 {
        fill: #3f271f;
      }

      .cls-82 {
        fill: #8b4b33;
      }
    </style>
  </defs>
  <g id="_Слой_13_Изображение" data-name="Слой 13 Изображение">
    <g>
      <path class="cls-29" d="M71,9c.18.15.08,1.39.66,1.9,3.88,3.41,7.4,7.21,8.28,12.66.56,3.46-.74,9.11,0,11.81.24.87,2.13.67,3.05,1.63-1.65-1.99-9.38,13.13-4,12v1c-6.01.06-7.5,10.51-15,9.01l5,1.99c-2.01.33-5.42.76-7.27,1.23-.54.14-7.73,3.83-7.73,4.27v23c0,.42,1.59,2.19,2.52.52,1.46-2.63.87-8.35,1.74-11.26.68-2.3,6.44-12.65,9.74-9.75.67.59-4,8.62.5,9.08,4.81.49,9.03-3.09,8.51-8.08.11,0,1.27-1.14,2-1,2.34,1.98,4.72,3.95,7,6-1.69.14-4.54-.5-5.79.22-.25.14-2.44,3.82-3.21,4.78-1.79,2.22-.33,1.42-3,3-5.28-3.85-11.85-2.28-12.96,4.61-.76,4.71,1.42,2.94,1.96,3.39.17.15.23,1.78,1,2,1.03.29,3.01-.38,4.3.19l.7.81c-2.24-.34-9.96,1.02-11.09,2.63-1.92,2.74,1.07,7.05-3.92,6.88,2.8,4.8,6.56,6.97,12.3,5.28.38-.11,6.44-3.99,6.72-4.27,1.71-1.69.86-4.47.98-6.52,1.6,3.17,1.92,10.34,3,11,.47.29,1.55.34,2.55.95.78.49,1.29,1.98,1.45,2.05-.26.67-.79,1.33-1,2v1c-.26.38-.68.67-1,1-1.62,1.7-3.03,2.76-5,4-1,.63-.41,1.52-3,2-.32.06-.67-.04-1,0-.28-3.11,7.6-13.04,1.51-13.02-.32,0-4.24,4.37-4.35,4.67-.77,2.17-.3,6.19.84,8.35-1.27,0-2.82.17-4,0v-6.01c-3.72.29-6.93-1.62-6,3.01-.24-.09-.65.04-1,0-.21-4.1,3.06-5.96-2-7-.07-.49-.92-2.68-1.16-2.82-1.55-.4-3.26-.28-4.84-.18-3.42.21-8.01,2.54-11,0,3.09.69,11.13-1.47,10.98-4.5-.04-.79-2.75-1.06-3.01-2.19-.32-1.42.32-3.3.05-4.81-.82-4.52-18.78-7.1-16.02,4.51l-.81-.68c1.07-4.75-3.56-5.92-2.19-10.32.13-.42,2.09-1.02,2.07-1.57-.01-.63-2.41-4.39-3.07-5.43,2.94-5.32-3.82-8.45-8-9,2.38-1.7,4.12-3.81,6-6,1.84,3.83.32,8.07,6,9,.93.15,5.79.21,6.01,0,.5-.49,0-6.6-1.01-8l1-1c2.26,1.28,2.91-.4,5.83,3.67,4.66,6.47,3.66,10.84,5.16,17.84.55.99,2-.9,2-1.01v-24.5c0-.21-3.03.23-4.28-.2-.85-.29-3.84-2.74-5.72-3.8-1.6-.9-7.92-5.56-10-5-.56-8.69-1.89-4.89-7-6-1.43-3.08-2.61-8.13-1.95-11.46.41-2.11,2.3-3.29,2.75-5.24,1.11-4.81-2.1-11.75,3.2-14.3-2.46,10.57.59,16.95,3.13,26.88,6.04-.25,9.35,3.64,15.33,4.16,9.43.82,20.68-2.26,24.34-11.74,6.2-16.05-1.85-25.53-15.79-32.29,1.83-.02,3.53-.94,5.38-.9,3.65.09,9.79,1.58,12.62,3.9ZM41.98,91c4.97-4.78-6.64-14.46-11.98-8.48l7.98,3c1.19.28,1.72,7.67,4,5.49Z"/>
      <path class="cls-19" d="M34,6l1,2c-3.82,2.41-7.99,6.68-9,11-5.3,2.55-2.09,9.49-3.2,14.3-.45,1.95-2.33,3.13-2.75,5.24-.66,3.33.52,8.39,1.95,11.46-4.66-1.01-5.73-6.37-5.79-10.5-.05-3.15,2.99-17.3,4-20.79.3-1.03,8.34-12.1,9-12.49,1.36-.8,3.71.17,4.79-.22Z"/>
      <path class="cls-26" d="M86,85c-.06,2.02,1.01,3.97,1,6-.63.56-.83,2.12-1,3-3.77.42-1.6,1.89-3.06,4.23-.53.84-1.68,1.01-1.92,1.48-2.04,4.03-1.15,7.36,2.98,9.29,3.35,1.57,5.47.17,8,2-1.98,1.01-9.29,1.68-11,1-.16-.06-.67-1.56-1.45-2.05-.99-.62-2.08-.67-2.55-.95-.57-2.87.78-16.87,0-18h1c5.48.88,5.99-.81,6-6,.32.05.67-.04,1,0h1Z"/>
      <path class="cls-47" d="M85,31v15c-2.52-2.04.49-6.41-2-9-.93-.96-2.81-.76-3.05-1.63-.74-2.7.55-8.35,0-11.81-.88-5.45-4.4-9.25-8.28-12.66-.58-.51-.48-1.75-.66-1.9l3-1c3.59,2.85,8.27,7.51,9.59,11.98s-2.25,4.82,1.41,11.02Z"/>
      <path class="cls-16" d="M19,85v6.01s7,0,7,0c.34,2.9.57,15.01.04,17.33-.2.87-2.14,1.35-3.04,1.67-4.25,1.55-7.62.11-11,2-1.3-1.04-1.5-2.53-2-3,1,0,2,0,3,0,1.92.02,5.26.45,6.76-.27,1.67-.8,3.11-3.84,3.24-5.73.1-1.53.29-4.04-.14-5.37-.6-1.84-2.35-1.26-2.86-1.63s-.76-1.7-2-2c-1.66-2.8-.84-6-1-9,.41-.19,1.41.16,2,0Z"/>
      <path class="cls-42" d="M74,8l-3,1c-2.82-2.32-8.97-3.81-12.62-3.9-1.85-.04-3.55.88-5.38.9-6.12.05-12.76-1.3-18,2l-1-2c.19-.07.68-1.65,1.4-2.06,2.47-1.39,24.85-1.61,29.16-1.01,2.94.41,7.41,3.45,9.44,5.06Z"/>
      <path class="cls-21" d="M45,132c.18.37,1.01.88,1,1-.05.66-1.13,1.86-1.07,3.49.14,4.17,2.67,8.06-3.87,10.07-7.23,2.21-14.03.9-19.05-4.55l5-1c.83.6,4.16,3.04,4.46,3.08,1.5.19,5.65.2,6.94-.22,1.68-.54,1.27-2.48,1.6-2.86.1-.12,1.74.48,2.02-.66.51-2.09-.64-5.46.9-7.72.65-.94,1.95-.5,2.07-.62Z"/>
      <path class="cls-9" d="M5,91c.13-.17,2.32.07,2.87-1.62.63-1.94-.96-6.44,2.94-4.17.63.37,1.87,4.55,2.69,4.81,4.42,1.4,1.09-3.89,3.5-5.02.16,3-.66,6.2,1,9-7.34-1.75-7.74,1.55-7,7-.75-.72-2.44-1.33-3-2s1.55-2.41-2.49-1.99c-.67.07-.45.98-.51.99-.62.1-1.65-1.36-2-2,2.1-.7,1.62-4.5,2-5Z"/>
      <path class="cls-70" d="M60,132c2.35,1.15.2,10.23.99,11.01.29.28,3.84-.2,5.01,0,1.59.27,2.43,1.61,5.46,1,2.85-.58,4.74-4.76,8.54-4v2c-1.73,1.76-2.59,4.41-5.52,4.98-1.75.34-11.24.42-12.8.06-1.27-.29-1.06-2.37-1.67-3.04v-12Z"/>
      <path class="cls-41" d="M79,50c.45,0,1.4.82,2,1-1.08,1.06-1.61,3.16-4,3.01-.47.64,3.45,2.87,4,2.99v2c-2.82.03-7.02-.82-9,1-.32-.02-.68-.03-1,0-.64.05-1.47.91-2,1l-5-1.99c7.5,1.5,8.99-8.95,15-9.01Z"/>
      <path class="cls-73" d="M26,123c.74.18,1.89-.23,2.49,0,2.66.98-3.76,4.41-4.19,5.28-.46.93-1.3,6.41-1.3,7.73,0,1.77-.06,1.68,1,3,.64.79,2.1,1.35,3,2l-5,1c-.51-.56-1.75-.76-1.96-1.74-.4-1.81-.37-9.66,0-11.53.21-1.05,5.52-3.83,5.96-5.72Z"/>
      <path class="cls-12" d="M7,77c-.09.31.08.69,0,1-.19.78-1.69,1.81-1.95,3.52-.45,3.01.18,6.4-.05,9.48-.38.5.1,4.3-2,5-1.89-3.46-.94-10.14-.99-14.53-.03-2.72-2.05-4.32,2.99-5.47.11-.02,1.21,1.17,2,1Z"/>
      <path class="cls-51" d="M23,110c-.79,2.97,1.9,1.47,2.75,2.2.5.43.66,2.68,1.25,3.8-2.06,1.37-.54,5.01-1,7-5.98-1.44-.97-7.55-3.93-9.57-1.96-1.33-7.74.43-10.07-1.43,3.38-1.89,6.75-.45,11-2Z"/>
      <path class="cls-50" d="M80,142v-2c0-1.33.04-2.67,0-4-.1-3.14.7-6.6-2-9l1-1c3.52,4.18,7.67,6.46,4.27,13.79-1.07,2.31-2.92,1.86-3.27,2.21Z"/>
      <path class="cls-47" d="M57,119c.22,4.31,1.07,8.15,1,13-.01.9-.99,1.79-1,2-3.39-2.77-3.97-10.09-3-14,.23-.92.36-.72,1-1,.27-.12,1.5-.05,2,0Z"/>
      <path class="cls-27" d="M94,66c.11.21,2.7.03,3.37,2.95.62,2.72-.91,5.53,1.63,9.05v5h-1c-.45-2.76-2.21-3.17-3-5-1.59-3.69-.58-7.31-2-11l1-1Z"/>
      <path class="cls-32" d="M50,118c-.11.63.16,1.48,0,2-1.45,4.7.56,11.75-4,13,0-.12-.82-.63-1-1,3.57-3.57-3.59-12.35,4-14,.32-.07.68.07,1,0Z"/>
      <path class="cls-82" d="M24,56c.21.19-.76,2.1,1.47,2.09,2.98-.01,3.32-2.04,3.53-2.09,2.08-.56,8.4,4.1,10,5-.55.39-1.59.59-2,1-6.68-3.25-15.65-3.87-23-3-.08-.31.06-.68,0-1,3.35.33,5.1.14,8-1,.65-.25,1.7-1.27,2-1Z"/>
      <path class="cls-49" d="M22,50c5.11,1.11,6.44-2.69,7,6-.21.06-.55,2.08-3.53,2.09-2.24,0-1.27-1.91-1.47-2.09,3.64-1.46-.36-2.46-2-6Z"/>
      <path class="cls-81" d="M99,78c.09.12,1.76-.52,2.05.63.75,3.02-.05,12.39-.05,16.37-.56-.09-1.87.17-2,0-.36-.48,0-10,0-12.01v-5Z"/>
      <path class="cls-61" d="M79,126l-1,1c-2.04-1.81-5.27-.95-4-7,1.97-1.24,3.38-2.3,5-4,.39,5.09-4.06,5.18,0,10Z"/>
      <path class="cls-2" d="M5,98c.05,0-.16-.92.51-.99,4.04-.42,1.96,1.35,2.49,1.99l1,9c-.77-.79-3.2-.73-3.84-2.66-.69-2.08.08-5.09-.16-7.34Z"/>
      <path class="cls-56" d="M60,132v12c-.12-.13-1.36.19-1.72-.24-1.72-2.11-1.41-6.98-1.28-9.76,0-.21.99-1.1,1-2,.6.13,1.61-.19,2,0Z"/>
      <path class="cls-35" d="M86,46h-1v-15c.12.2,1.19.34,1.49,1,1.25,2.71.85,11.24-.49,14Z"/>
      <path class="cls-20" d="M49,109c1.59-.1,3.29-.22,4.84.18.23.13,1.08,2.33,1.16,2.82.32,2.13-.22,4.77,0,7-.64.28-.77.08-1,1-1.33-1.02-2.69-1.01-4,0,.16-.52-.11-1.37,0-2,1.16-.24,2.74.18,4,0v-6.01s-5,0-5,0c.08-.99-.05-2.01,0-3Z"/>
      <path class="cls-25" d="M11,101c.42,3.06.8,5.13,2,8-1,0-2,0-3,0-.35-.33-.67-.66-1-1l-1-9c.56.67,2.25,1.28,3,2Z"/>
      <path class="cls-3" d="M8,68c-.23,3.83.08,5.11-1,9-.79.17-1.89-1.02-2-1,.44-3.87-1.92-8.21,3-9-.02.33.02.67,0,1Z"/>
      <path class="cls-5" d="M85,46h1c-1.22,2.51-3.33,3.35-5,5-.6-.18-1.55-1-2-1v-1c4.88-3.48,4.29-6.23,4-12,2.49,2.59-.52,6.96,2,9Z"/>
      <path class="cls-67" d="M97,106c-1.02,1.11-4.03,4.51-5,5-2.53-1.83-4.65-.43-8-2,5.23,1.6,5.97-1.78,8-3,.14-.08,2.84-.99,3-1,.11,0,1.29,1.13,2,1Z"/>
      <path class="cls-6" d="M99,97c-2.43,2.27.06,6.99-.23,7.85-.07.21-1.33.67-1.77,1.15-.71.13-1.89-1.01-2-1-.22-1.88.32-4.23,0-6,.89-.9.82-1.78,1-2h3Z"/>
      <path class="cls-53" d="M12,61c-.05.33.05.68,0,1-.54,3.19,0,7.07-4,6,.02-.33-.02-.67,0-1,.08-1.42-.42-3.81.18-4.84.32-.54,2.21-.63,2.82-1.16h1Z"/>
      <path class="cls-74" d="M99,83c0,2.01-.36,11.53,0,12.01.12.16,1.44-.1,2,0,0,.06,1.24.26.6,1.02-.78.92-2.35.75-2.6.98h-3c2.82-3.33,1.84-2.34,2-7,.07-2.03.3-5.16,0-7h1Z"/>
      <path class="cls-56" d="M94,66l-1,1h-1c.06-1.32-.14-2.7,0-4,.05-.46.53-.89,1-1,1.25,2.02.72,3.45,1,4Z"/>
      <path class="cls-33" d="M91,59l-1,2c-.65-.98,1.52-1.55-2-2-.33-.04-.67.02-1,0v-2c1.06.13,1.83-.11,2.97.51.67.36.73,1.19,1.03,1.49Z"/>
      <path class="cls-48" d="M19,57h3c-2.9,1.14-4.65,1.33-8,1,.26-.14.55-.9,1-1,.97-.23,2.81,0,4,0Z"/>
      <path class="cls-77" d="M93,62c-.47.11-.95.54-1,1-1.18-.3-1.43-1.14-2-2l1-2c1.09,1.12,1.29,1.85,2,3Z"/>
      <path class="cls-59" d="M87,57v1h-6v-1c1.67.35,4.14-.22,6,0Z"/>
      <path class="cls-34" d="M19,57c-1.19,0-3.03-.23-4,0,.41-1.56,3.68-1.5,4,0Z"/>
      <path class="cls-39" d="M13,60h-1c.35-.29.64-.77,1-1-.17.14.16.78,0,1Z"/>
      <path class="cls-43" d="M12,61h-1c.35-.3.64-.7,1-1-.04.33.05.68,0,1Z"/>
      <path class="cls-7" d="M80,115v-1s.75-.1,0,1Z"/>
      <path class="cls-1" d="M14,59c-.36.04-.88-.11-1,0,.36-.23.63-.8,1-1,.06.32-.08.69,0,1Z"/>
      <path class="cls-36" d="M53,6c13.95,6.76,21.99,16.25,15.79,32.29-3.66,9.48-14.91,12.56-24.34,11.74-5.98-.52-9.29-4.41-15.33-4.16-2.54-9.92-5.59-16.31-3.13-26.88,1.01-4.32,5.18-8.59,9-11,5.24-3.3,11.88-1.95,18-2Z"/>
      <path class="cls-57" d="M27,91c-1.37,4.41,3.26,5.58,2.19,10.32l.81.68c.39,1.64,6.43,6.65,8,7,2.99,2.54,7.58.21,11,0-.05.99.08,2.01,0,3-.17,2.04-.89,3.96,0,6-7.59,1.65-.43,10.43-4,14-.12.12-1.43-.32-2.07.62-1.55,2.26-.39,5.63-.9,7.72-.28,1.14-1.92.54-2.02.66-.93.57-1.97.73-3,1,2.76-2.82,2.01-6.4,2-10-5.32-1.04-10.52,2.24-10,8-1.69-.77-3.09-1.24-5-1-1.06-1.32-1-1.23-1-3,6.62-.11,6.47-6.2,10.06-10.55-1.43-3.46-3.95-5.43-6.06-9.45-.59-1.12-.75-3.37-1.25-3.8-.85-.73-3.54.77-2.75-2.2.9-.33,2.83-.8,3.04-1.67.54-2.32.3-14.43-.04-17.33h1ZM36,122c.96-3.61-.24-13.06-5.47-12.01-4.65.94,2.59,14.81,5.47,12.01ZM45.99,116.01h-7c-.14,2.66-.51,6.23,2.98,5.98l4.02-5.98Z"/>
      <path class="cls-13" d="M71,62c-.31,1.2-1.36,2.49-1,4,.31,1.28,5.9,3.92,7,4,.53,4.99-3.69,8.57-8.51,8.08-4.49-.46.17-8.49-.5-9.08-3.3-2.9-9.06,7.45-9.74,9.75-.87,2.91-.28,8.63-1.74,11.26-.93,1.67-2.52-.09-2.52-.52v-23c0-.44,7.18-4.13,7.73-4.27,1.85-.48,5.26-.9,7.27-1.23.53-.09,1.36-.95,2-1-.1.64.14,1.44,0,2Z"/>
      <path class="cls-13" d="M69,94c3.14.47,3.99,1.99,5,4-.12,2.05.73,4.83-.98,6.52-.28.28-6.34,4.16-6.72,4.27-5.74,1.69-9.5-.48-12.3-5.28,4.99.17,2-4.13,3.92-6.88,1.13-1.61,8.86-2.97,11.09-2.63Z"/>
      <path class="cls-13" d="M30,102c-2.76-11.6,15.2-9.03,16.02-4.51.27,1.51-.37,3.39-.05,4.81.26,1.14,2.97,1.4,3.01,2.19.15,3.03-7.89,5.19-10.98,4.5-1.57-.35-7.61-5.36-8-7Z"/>
      <path class="cls-30" d="M64,122c1.18.17,2.73,0,4,0,.65,0,1.36.07,2,0,.33-.04.68.06,1,0-2.23,4.63.2,4.88,2,8-.63,1.8.89,3.81,1,5-4.39-.84-4.63-4.52-10-3-.31,4.59-.49,7.72,3,11h-1c-1.17-.2-4.71.29-5.01,0-.79-.77,1.36-9.85-.99-11.01-.39-.19-1.4.13-2,0,.07-4.85-.78-8.69-1-13,.35.04.76-.09,1,0,2.34.9,1.89,2.41,6,3Z"/>
      <path class="cls-13" d="M39,61c1.89,1.06,4.87,3.51,5.72,3.8,1.24.42,4.28-.02,4.28.2v24.5c0,.12-1.45,2-2,1.01-1.5-7.01-.51-11.37-5.16-17.84-2.93-4.07-3.57-2.39-5.83-3.67-2.39-1.35-2.08-2.54-3-4,2.52.18,2.87-1.87,4-3,.41-.41,1.45-.61,2-1Z"/>
      <path class="cls-10" d="M88,59c3.52.45,1.35,1.02,2,2,.57.86.82,1.7,2,2-.14,1.3.06,2.68,0,4-.36,7.46,1.84,7.37-6,8-2.28-2.05-4.66-4.02-7-6-2.81-2.37-3.35-6.23-9-3-.36-1.51.69-2.8,1-4,6.13.63,13.34-2.12,17.99,3l-.99-5v-1Z"/>
      <path class="cls-63" d="M16,61c4.02.9,11.72.11,15.38.95,1.22.28.41,1.66.62,2.05-6.53.9-4.88,1.36-8,5-1.88,2.19-3.62,4.3-6,6-2.67-.35-6.44,1.31-7.05-2.53-.71-4.51,4.23-7.34,5.05-11.47Z"/>
      <path class="cls-54" d="M16,61c-.82,4.13-5.77,6.97-5.05,11.47.61,3.84,4.38,2.18,7.05,2.53,4.18.55,10.94,3.68,8,9-1.53-2.39-1.25-3.57-5.49-4.02-1.11-.02-.25,3.01-.51,4.02-.2.77-.23.8-1,1-.59.16-1.59-.19-2,0-.34-6.31-.45-2.62-2.65-4.29s-2.05-3.93-7.35-2.71c.08-.31-.09-.69,0-1,1.08-3.89.77-5.17,1-9,4,1.07,3.46-2.81,4-6,1.07-.26.72-1.61,1-2,.16-.22-.17-.86,0-1,.12-.11.64.04,1,0,.16.58,1.63,1.92,2,2Z"/>
      <path class="cls-31" d="M95,78c-4.68-.84-8.87,2.36-9,7h-1c-1.75-4.6-3.3-5.5-8-4v-1c.78-.96,2.96-4.64,3.21-4.78,1.24-.72,4.1-.08,5.79-.22,7.84-.63,5.64-.54,6-8h1c1.42,3.69.41,7.31,2,11Z"/>
      <path class="cls-37" d="M35,70c1.01,1.4,1.51,7.52,1.01,8-.22.21-5.08.15-6.01,0-9.3-7.35.35-14.49,5-8Z"/>
      <path class="cls-40" d="M77,91c.78,1.13-.57,15.13,0,18-1.08-.66-1.4-7.83-3-11-1.01-2.01-1.86-3.53-5-4l-.7-.81c-1.28-.58-3.27.1-4.3-.19,3.59-3.09,6.29-3.04,10-7-1.49,4.43,2.76,4.66,3,5Z"/>
      <path class="cls-58" d="M78,127c2.7,2.4,1.9,5.86,2,9-5.86-.93-4.53-1.72-7-6-1.8-3.12-4.23-3.37-2-8,2.59-.48,2-1.37,3-2-1.27,6.05,1.96,5.19,4,7Z"/>
      <path class="cls-72" d="M74,83c-4.07,2.42-8.74,3.26-11,8-.54-.45-2.71,1.32-1.96-3.39,1.11-6.89,7.68-8.46,12.96-4.61Z"/>
      <path class="cls-68" d="M41.98,91c-2.28,2.19-2.81-5.2-4-5.49l-7.98-3c5.33-5.98,16.95,3.7,11.98,8.48Z"/>
      <path class="cls-37" d="M70,122c-.64.07-1.35,0-2,0-1.14-2.15-1.61-6.17-.84-8.35.11-.3,4.03-4.67,4.35-4.67,6.09-.02-1.78,9.91-1.51,13.02Z"/>
      <path class="cls-60" d="M77,81c.65,3.25-1.65,3.56-3,5-3.71,3.96-6.41,3.91-10,7-.77-.22-.83-1.85-1-2,2.26-4.74,6.93-5.58,11-8,2.67-1.58,1.21-.78,3-3v1Z"/>
      <path class="cls-44" d="M83,37c.29,5.77.88,8.52-4,12-5.38,1.13,2.35-13.99,4-12Z"/>
      <path class="cls-65" d="M33,65c.92,1.46.61,2.65,3,4l-1,1c-4.65-6.49-14.3.65-5,8-5.68-.93-4.16-5.17-6-9,3.12-3.64,1.47-4.1,8-5,.18.33.76.62,1,1Z"/>
      <path class="cls-15" d="M26,84c.66,1.04,3.06,4.8,3.07,5.43.01.56-1.94,1.15-2.07,1.57h-1c-.43-3.7-2.34-6.18-6-7,.26-1-.59-4.03.51-4.02,4.23.44,3.96,1.63,5.49,4.02Z"/>
      <path class="cls-8" d="M58,119c-.93-4.63,2.28-2.71,6.01-3.01v6.01c-4.12-.59-3.66-2.1-6.01-3Z"/>
      <path class="cls-17" d="M79,69c-.73-.14-1.89,1.01-2,1-1.1-.08-6.69-2.72-7-4,5.65-3.23,6.19.63,9,3Z"/>
      <path class="cls-55" d="M55,112c5.06,1.04,1.79,2.9,2,7-.5-.05-1.73-.12-2,0-.22-2.23.32-4.87,0-7Z"/>
      <path class="cls-4" d="M86,94c3.79-.42,8.19.47,9,5-.27.27-2.25-.22-2.86,1.64-.51,1.57-.04,3.68-.14,5.36-2.03,1.22-2.77,4.6-8,3-4.13-1.94-5.02-5.26-2.98-9.29.24-.47,1.39-.64,1.92-1.48,1.46-2.33-.71-3.8,3.06-4.23ZM86.01,102.99c.65.65,5.54-.03,4.99-2.48-.87-3.83-7.28.2-4.99,2.48Z"/>
      <path class="cls-28" d="M95,78c.79,1.83,2.55,2.24,3,5,.3,1.84.07,4.97,0,7-3.82,3.31-1.39-6.28-4.49-4.99-1.36.57-2.76,3.74-4,5.05-.76.8-2.26.71-2.52.94,0-2.03-1.06-3.98-1-6,.13-4.64,4.32-7.84,9-7Z"/>
      <path class="cls-76" d="M87,91c.26-.23,1.75-.14,2.52-.94,1.24-1.31,2.64-4.48,4-5.05,3.1-1.29.67,8.3,4.49,4.99-.16,4.66.82,3.67-2,7-.18.22-.11,1.1-1,2-.81-4.53-5.21-5.42-9-5,.17-.88.37-2.44,1-3Z"/>
      <path class="cls-64" d="M85,85c-.33-.04-.68.05-1,0-.87-.14-2.25-1.04-3.02-.51-1.27.86-5.45,5.21-2.98,6.51h-1c-.24-.34-4.49-.57-3-5,1.35-1.44,3.65-1.75,3-5,4.7-1.5,6.25-.6,8,4Z"/>
      <path class="cls-24" d="M84,85c0,5.19-.52,6.88-6,6-2.47-1.31,1.71-5.65,2.98-6.51.77-.52,2.15.37,3.02.51Z"/>
      <path class="cls-66" d="M18,94c1.24.3,1.51,1.64,2,2-.32,3.04-.1,5.76,3,7-.13,1.89-1.56,4.93-3.24,5.73-1.5.72-4.84.28-6.76.27-1.2-2.87-1.58-4.94-2-8-.74-5.45-.34-8.75,7-7Z"/>
      <path class="cls-23" d="M26,91h-7.01s0-6,0-6c.77-.2.8-.23,1-1,3.66.82,5.57,3.3,6,7Z"/>
      <path class="cls-78" d="M23,103c-3.1-1.24-3.32-3.96-3-7,.51.37,2.26-.21,2.86,1.63.43,1.33.24,3.84.14,5.37Z"/>
      <path class="cls-11" d="M29,140c4.07,1.87,2.45,3.43,8,2,1.03-.27,2.07-.43,3-1-.33.39.08,2.32-1.6,2.86-1.28.41-5.44.41-6.94.22-.3-.04-3.63-2.48-4.46-3.08-.9-.65-2.36-1.21-3-2,1.91-.24,3.31.23,5,1Z"/>
      <path class="cls-66" d="M7,78c5.3-1.22,5.05.98,7.35,2.71s2.31-2.02,2.65,4.29c-2.41,1.14.92,6.42-3.5,5.02-.82-.26-2.06-4.44-2.69-4.81-3.9-2.27-2.31,2.23-2.94,4.17-.55,1.69-2.74,1.45-2.87,1.62.23-3.08-.4-6.46.05-9.48.26-1.71,1.75-2.75,1.95-3.52Z"/>
      <path class="cls-22" d="M73,130c2.47,4.28,1.14,5.07,7,6,.04,1.33,0,2.67,0,4-3.8-.76-5.69,3.42-8.54,4-3.03.61-3.87-.73-5.46-1h1c6.4-.26,7.57-1.89,7-8-.11-1.19-1.63-3.2-1-5Z"/>
      <path class="cls-13" d="M81,59c1.98-.02,4.03-.12,6,0,.33.02.67-.04,1,0v1c-4.09,1.42-8.38.99-12.62,1.07-1.91.04-3.13-1.06-3.38-1.07,1.98-1.82,6.18-.97,9-1Z"/>
      <path class="cls-62" d="M88,60l.99,5c-4.65-5.12-11.86-2.37-17.99-3,.14-.56-.1-1.36,0-2,.32-.03.68-.02,1,0,.25.01,1.47,1.11,3.38,1.07,4.24-.08,8.53.35,12.62-1.07Z"/>
      <path class="cls-52" d="M87,58v1c-1.97-.12-4.02-.02-6,0v-1h6Z"/>
      <path class="cls-80" d="M23,136c0-1.32.84-6.8,1.3-7.73.43-.87,6.85-4.3,4.19-5.28-.6-.22-1.74.18-2.49,0,.46-1.99-1.06-5.63,1-7,2.11,4.02,4.62,5.99,6.06,9.45-3.58,4.34-3.43,10.43-10.06,10.55Z"/>
      <path class="cls-69" d="M49,112h5.01s0,6.01,0,6.01c-1.26.17-2.85-.24-4,0-.32.07-.68-.07-1,0-.89-2.04-.17-3.96,0-6Z"/>
      <path class="cls-79" d="M37,62c-1.13,1.13-1.48,3.18-4,3-.24-.38-.82-.67-1-1-.21-.39.6-1.77-.62-2.05-3.67-.84-11.36-.05-15.38-.95-.37-.08-1.84-1.42-2-2,7.35-.87,16.32-.25,23,3Z"/>
      <path class="cls-45" d="M95,99c.32,1.77-.22,4.12,0,6-.16,0-2.86.92-3,1,.1-1.68-.37-3.79.14-5.36.61-1.86,2.59-1.37,2.86-1.64Z"/>
      <path class="cls-14" d="M12,62c.05-.32-.05-.67,0-1s-.04-.67,0-1h1c-.28.39.07,1.74-1,2Z"/>
      <path class="cls-75" d="M29,140c-.51-5.76,4.68-9.04,10-8,.01,3.6.76,7.18-2,10-5.55,1.43-3.93-.13-8-2Z"/>
      <path class="cls-18" d="M36,122c-2.89,2.8-10.12-11.07-5.47-12.01,5.23-1.06,6.44,8.4,5.47,12.01Z"/>
      <path class="cls-46" d="M45.99,116.01l-4.02,5.98c-3.49.24-3.11-3.33-2.98-5.99h7Z"/>
      <path class="cls-71" d="M67,143c-3.49-3.28-3.31-6.41-3-11,5.37-1.52,5.61,2.16,10,3,.57,6.11-.6,7.74-7,8Z"/>
      <path class="cls-38" d="M86.01,102.99c-2.29-2.28,4.12-6.31,4.99-2.48.55,2.45-4.34,3.13-4.99,2.48Z"/>
    </g>
  </g>
</svg>