<?xml version="1.0" encoding="UTF-8"?>
<svg id="_Слой_2" data-name="Слой 2" xmlns="http://www.w3.org/2000/svg" viewBox="0 0 100 151">
  <defs>
    <style>
      .cls-1 {
        fill: #fbdec7;
      }

      .cls-2 {
        fill: #4c271d;
      }

      .cls-3 {
        fill: #421b10;
      }

      .cls-4 {
        fill: #7f4f43;
      }

      .cls-5 {
        fill: #4b2419;
      }

      .cls-6 {
        fill: #341c15;
      }

      .cls-7 {
        fill: #4c2519;
      }

      .cls-8 {
        fill: #f9ceb0;
      }

      .cls-9 {
        fill: #fcd3b5;
      }

      .cls-10 {
        fill: #fde3cd;
      }

      .cls-11 {
        fill: #fbdfc8;
      }

      .cls-12 {
        fill: #fbd1b3;
      }

      .cls-13 {
        fill: #2a1d16;
      }

      .cls-14 {
        fill: #e7a480;
      }

      .cls-15 {
        fill: #fbd0b2;
      }

      .cls-16 {
        fill: #aa9a95;
      }

      .cls-17 {
        fill: #462016;
      }

      .cls-18 {
        fill: #674336;
      }

      .cls-19 {
        fill: #fce3cd;
      }

      .cls-20 {
        fill: #522b1f;
      }

      .cls-21 {
        fill: #4e261a;
      }

      .cls-22 {
        fill: #e5a07c;
      }

      .cls-23 {
        fill: #d69274;
      }

      .cls-24 {
        fill: #431c11;
      }

      .cls-25 {
        fill: #51281a;
      }

      .cls-26 {
        fill: #fdd4b6;
      }

      .cls-27 {
        fill: #451e13;
      }

      .cls-28 {
        fill: #fce0c9;
      }

      .cls-29 {
        fill: #874831;
      }

      .cls-30 {
        fill: #fce2cb;
      }

      .cls-31 {
        fill: #441e13;
      }

      .cls-32 {
        fill: #894b34;
      }

      .cls-33 {
        fill: #e2a17f;
      }

      .cls-34 {
        fill: #40190e;
      }

      .cls-35 {
        fill: #371f18;
      }

      .cls-36 {
        fill: #cf9175;
      }

      .cls-37 {
        fill: #fbe1cb;
      }

      .cls-38 {
        fill: #d39679;
      }

      .cls-39 {
        fill: #fce1ca;
      }

      .cls-40 {
        fill: #e5a07b;
      }

      .cls-41 {
        fill: #8c4b33;
      }

      .cls-42 {
        fill: #fad1b3;
      }

      .cls-43 {
        fill: #f0ecea;
      }

      .cls-44 {
        fill: #3d170c;
      }

      .cls-45 {
        fill: #fcd1b3;
      }

      .cls-46 {
        fill: #fce3cc;
      }

      .cls-47 {
        fill: #4b2318;
      }

      .cls-48 {
        fill: #4a2418;
      }

      .cls-49 {
        fill: #f9ccad;
      }

      .cls-50 {
        fill: #fbd2b4;
      }

      .cls-51 {
        fill: #fcd2b3;
      }

      .cls-52 {
        fill: #f8caac;
      }

      .cls-53 {
        fill: #5a2e1f;
      }

      .cls-54 {
        fill: #c0b5b1;
      }

      .cls-55 {
        fill: #f9d0b2;
      }

      .cls-56 {
        fill: #d89c7e;
      }
    </style>
  </defs>
  <g id="_Слой_4_Изображение" data-name="Слой 4 Изображение">
    <g>
      <path class="cls-22" d="M65,6c.59-.13,1.36.09,2,0,.13,1.27,2.12,1.41,3,2-1.57,2.98,2.91,5.76,4.2,8.3,3.64,7.16,2.17,10.13,2.73,17.29.16,2.01.15,2.45,2.07,3.41-1.1.35-4.35,6.51-4.75,7.75-.48,1.47-1.35,4.97,1.75,4.25v1c-6.28.07-4.33,2.27-7,7-2.88-.11-5.26,1.61-8,2.01l1,2.99c-1.98.24-10.35,3.11-10.88,4.62-1.51,4.32.2,19.19.89,24.37,2.95-2.26,2.04-7.33,3.29-11.2.5-1.53,3.99-9.75,4.7-10.8,1.85.04,5.84-2.24,6.99.52.88,2.1-2.58,1.07-3.05,3.98-.61,3.8,1.78,5.44,5.36,4.53.31-.08,2.22-2.85,4.7-4.03.67-.32,1.33-.68,2-1,.66.73,2.32,1.24,3.23,1.97,1.62,1.29,1.07,3.43,4.27,3.06.48-.06.51-1.54,1.21-2.01,1.16-.76,3.91-1.15,4.23-2.62.07-.33-1.56-4.98-1.94-6.4,2.55,1.44,1.39,4.65,5,5-.28,2.91.19,6.05,0,9-.81-.14-1.87.39-2.77-.22-.74-.51-.72-2.78-2.22-2.78,1.12,4.12-2.59,2.61-3.56,3.92-1.16,1.58-.57,6.23.55,8.08-.48-.17-1.38.11-2,0-1.59-4.53-.71-11.98-6.99-8.49-2.58,1.43-1.91,3.95-2.01,5.49-.25,3.77.9,4.77,1,7,.02.33-.01.67,0,1-1.22-.43-3.46,1.04-4,1-.97-.07-3.05-1.78-5.47-2.03-1.98-.2-7.51-.14-8.95.91-1.21.89-.29,3.82-.77,5.41s-2.84,2.31-2.85,4.2c-.02,4.89,8.57,4.63,11.89,5.41,1.97-5.12,6.2-5.28,6.15-10.9,1.49.78,2.83.29,3.08,2.46s.3,11.22-.23,12.89-1.54,1.45-2.85,1.64c.11-2.44,2.97-6.22-1.49-7-.34,1.88-5.12,4.17-4.5,5.49.84,1.79,4.27,1.77,5.99,1.52-.03.66,0,1.34,0,2-7.07.99.83,16.83,6,15-.84,1.77-2.82,3.39-4,5-1.79-4.29-6.27-2.87-9.99-2.99-.26,1.69,1.12,2.71,1.99,3.99-7.97,1.1-3.91-6.21-4.98-10.3-.27-1.04-2.4-.95-2.87-2.32-.81-2.31.45-5.92-.09-7.84-.31-1.11-4.8.56-3.06-3.54.07-.15,3.73,1.53,2.99-1.49-.56-2.25-10.11-9.89-11-2.51-5.47,3.91-1.82,2.81,0,7-1.49.78-2.83.29-3.08,2.46-.46,4.11.01,10.16.08,14.54-3.08.07-2.19-1.22-2.58,1.46-.25,1.71-.06,5.41-.61,6.39-.26.47-2.12.63-2.81,1.16-.75-2.18,1.37-5.79.92-7.37-1.23-4.4-12.66.3-10.84,5.76.5,1.5,3.61,1.13,2.91,3.61-2.87-.38-5.91.14-8-3-.91-1.37-.85-2.49-1-4,2.98-1.39,7.46-2.86,9-6,3.45-1.53,1.95-5.34,1-8,3.53.13,2.74.6,3-2.45.51-5.95-.54-8.78-7-9.55.15,1.6-.24,3.46,0,5-2.28-5.71-.41-12.93-1-19,4.35,5.26,8.16,12.47,16.36,9.82,1.61-.52,4.31-5.63,4.64-5.82.66-.39,3.21.68,5.07-1.43.59-.67,3.27-7.25,2.92-7.56-1.95.39-10.26-.56-11,0-.23.17.23,1.8,0,2-.36.33-6.08-2.37-9.51-2.05-.97.09-7.69,2.58-8.49,3.05-1.96-7.67.61-13.41-6.5-18.98-.65-.02-1.99,3.85-2.5,4.98-.81.18-2.53-.26-3,0,.61-3.19-1.61-6.8-4.99-7-1.09,2.52,1.38,5.11,1.5,6.51.1,1.29-.56,2.91-.5,4.48h-1c-.1-2.23.97-4.55-2-4,.05-2.36-2.57-7.79-.47-11.01.41-.64,1.96-.73,2.24-1.19.93-1.57-.39-3.87,2.23-7.79-.97,9.06.9,6.69,5.72,9.29,1.37.74,2.08,4.45,7.28,2.71.26-1.29-.39-5.56,0-6.01.19-.22,2.2.11,3,0,.2,2.06-.37,4.53,0,6.49,1.15,6.08,13.59.69,5-5.49-.98-.8.02-1.9,0-2,3.94-.2,6.74,2.77,8.85,5.65l4.63,17.34c1.76-1.17,1.44-2.67,1.57-4.44.26-3.63.65-17.15,0-19.9-.29-1.2-3.62-1.28-5.01-2.21-.66-.45-.85-1.32-1.04-1.45-2.96-1.91-8.59-4.3-12-5-2.56-5.45-1.66-9.53-9-8-.65-.64-1.38-1.43-2-2,.45-2.99-.76-7.76.15-10.38.47-1.37,2.64-1.29,2.89-2.31.8-3.17-3.14-14.28,2.96-15.3-.91,5.58-1.07,10.51.51,15.99,2.25,7.79,5.67,11.38,13.68,13.32,7.22,1.75,21.03.34,25.66-5.97,11-14.99,2.69-29.59-11.85-37.35,3.78-.04,11.3.59,14,0ZM38.78,84.21c-1.57-2.74-8.72-3.91-11.78-3.21-1.18,4.7,3.54,2.31,6.96,4.54,1.72,1.12,2.39,3.85,3.56,4.44,2.31,1.17,1.74-4.95,1.26-5.78ZM70.01,81c-7.44-1.19-13.17,1.85-12,9.99,3.23-.12,3.41-3.82,6.06-5.42,3.2-1.94,7-.15,5.94-4.57ZM39,115.99h-2.99c.26,2.95-1.12,6.78,1.51,9,3.22-.2.75-7.06,1.48-9Z"/>
      <path class="cls-34" d="M16,83c.51-1.13,1.85-5,2.5-4.98,7.11,5.57,4.54,11.31,6.5,18.98-.5.28-.69.55-1,1-1.38,2.03-1.46,14.59-1.06,17.56.49,3.59,2.74,3.45,3.06,8.44.49,7.68-.52,3.83-4,5,2.77-4.57-1.39-5.54-1.99-8.52-.81-4.03,2.12-13.66-2.51-14.49s-5.38,1.16-10.51-1.99c-.11-.96.16-2.08,0-3h1c.82,2.17,2.21,1.79,4,2,5.78.69,9.8-.23,8.05-7.38-.3-1.21-1.61-.41-2.05-.62-.32-.15-.62-.82-1-1,2.21-5.01-2.87-6.97-3.01-7.52-.29-1.16,1.52-2.4,2.01-3.48Z"/>
      <path class="cls-24" d="M32,5c-.06.25,1.19,2.02,0,3-1.41.74-7.29,6.22-8.05,7.46-1.27,2.07-.66,2.78-.95,4.54-6.1,1.03-2.16,12.14-2.96,15.3-.26,1.02-2.42.95-2.89,2.31-.91,2.62.3,7.39-.15,10.38-.34-.31-2.21-.21-3.08-1.38-1.29-1.72-1.38-11.7-.91-14.1.43-2.17,2.36-2.77,2.79-4.21.69-2.3.02-5.19.86-8.14,1.73-6.03,8.5-15.11,15.33-15.17Z"/>
      <path class="cls-3" d="M16,57c-1.15,1.51-2.67,2.64-4,4-.69.7-1.25.88-2,2-2.62,3.92-1.3,6.23-2.23,7.79-.28.46-1.82.56-2.24,1.19-2.1,3.22.52,8.65.47,11.01-.06,3.25-1.63,7.99-1.05,12.55.29,2.29,1.71,3.46,2.05,5.45.16.92-.11,2.04,0,3-2.98-1.84-5.12-4.18-5.76-7.74-1.75-9.61-.68-25.29,3.79-33.49.16-.29,4.14-4.65,4.4-4.85,2.28-1.7,4.46-.53,6.57-.93Z"/>
      <path class="cls-3" d="M82,91c.16.36,2.62.77,1.92,3.33-.51,1.87-2.98,2.04-3.67,2.94-.47.62-.11,1.54-.24,1.73-3.77,5.36-3.02,5.36-3,12,0,.09-.87.26-.86.5.1,3.04,10.24.07,11.86,2.5-.13.11.53,1.75-.63,2.04-1.87.47-9.87-.57-10.38-.05-.05,1.99.07,4.01,0,6.01-1.73-.26-4.68.43-6,0-1.06-3.57,2.55-2.81,3.02-5.47.84-4.72.19-16.15-.02-21.53-.01-.33.02-.67,0-1,2.63.26,3.81.27,6-1,.65-.38,1.28-1.51,2-2Z"/>
      <path class="cls-27" d="M70,8c3.3,2.24,8.69,6.91,9.79,10.71.8,2.78-.29,6.06.22,8.78.42,2.2,2.54,2.8,2.97,5.03.67,3.45.23,10.28-.99,13.49l-1.11-8.41c-.05-.83-.68-.47-.89-.59s-.67.08-1,0c-1.92-.95-1.91-1.39-2.07-3.41-.56-7.17.9-10.14-2.73-17.29-1.29-2.54-5.76-5.32-4.2-8.3Z"/>
      <path class="cls-48" d="M42,135c0,.22,1,.75,1,1,.03,2-.45,10.83-1.19,11.81-1.71,2.27-14.22,2.83-17.1,1.98-2.13-.63-3.35-3.47-4.71-4.79l1-2c2.09,3.14,5.13,2.62,8,3,.46.06,1.16,1.53,3.24.88.9-.28,2.7-2.08,3.76-2.88.69-.53,2.55-.69,2.81-1.16.54-.98.35-4.68.61-6.39.4-2.68-.49-1.39,2.58-1.46Z"/>
      <path class="cls-33" d="M20,56c-1.21,3.77,6.2,1.63,8,2,3.41.7,9.04,3.09,12,5l-10-1c-.66,2.26.71,4.24,1,6,.02.1-.98,1.2,0,2-.64-.46-3.67-1.04-4-2-.42-1.23.78-4.46-.93-5.57-1.54-1.01-11.43-1.21-14.07-1.43,1.33-1.36,2.85-2.49,4-4,1.63-.3,2.37-.4,4-1Z"/>
      <path class="cls-47" d="M62,3c2.6.41,2.57,1.81,3,2v1c-2.7.59-10.22-.04-14,0-6.05.06-13.56-.87-19,2,1.19-.98-.06-2.75,0-3,.09-.35.9-1.96,1-2,1.36-.5,26.38-.41,29,0Z"/>
      <path class="cls-41" d="M29,133c-1.54,3.14-6.02,4.61-9,6-.26-2.59.18-5.38,0-8,.67-.42,1.55-1.85,2-2,3.48-1.17,4.49,2.68,4-5,3.95,2.04,4.98,4.95,3,9Z"/>
      <path class="cls-6" d="M77,58c2.04.28,8.53,1.16,9.58,1.91,1.4,1.01,1.54,3.18,2.4,4.34,2.34,3.2,2.17,2.48,4.02,6.74-.47.1-.96.55-1,1-3.61-.35-2.45-3.56-5-5-.14-.54.25-1.79-.01-1.97-.25-.17-5.69-1.04-5.99-1.03-.12-.47-.54-.93-1-1,.81-3.07-2.06-1.46-2.85-2.12-.64-.54.09-2.32-.15-2.88Z"/>
      <path class="cls-24" d="M77,122c4.26.64,3.67,9.96,3.02,13.53-.45,2.47-4.59,4.31-6.02,5.47-.84-.47-2.06-1.09-3-1,.37-.62.58-1.43,1-2,1.18-1.61,3.16-3.23,4-5,1.76-3.7.87-6.97,1-11Z"/>
      <path class="cls-44" d="M46,119c.6,3.94,1.27,15.27-3,17,0-.25-1-.78-1-1-.06-4.38-.54-10.43-.08-14.54.24-2.17,1.58-1.68,3.08-2.46.16.38.96.76,1,1Z"/>
      <path class="cls-5" d="M96,81c.36.33,1.76-1.07,2.07,1.44s.58,18.59-2.07,18.56c.26-5.29-1.29-8.8-1-14,.11-1.99-.08-4.01,0-6h1Z"/>
      <path class="cls-31" d="M20,131c.18,2.62-.26,5.41,0,8,.15,1.51.09,2.63,1,4l-1,2c-.39-.37-2.66-.2-3.51-1.98-.99-2.07-.97-8.76.43-10.64.89-1.2,2.41-.96,3.08-1.38Z"/>
      <path class="cls-21" d="M19,50c7.34-1.53,6.44,2.55,9,8-1.8-.37-9.21,1.77-8-2,1.13-.42,2.79-.22,3-1.99-3.29.38-3.44-3.46-4-4.01Z"/>
      <path class="cls-7" d="M76,50c.67,0,1.33,0,2,0-4.31,4.72-2.91,3.6-1,8-1.91-.26-6.72-.95-8-1,2.67-4.73.72-6.93,7-7Z"/>
      <path class="cls-44" d="M58,140c-.02.71-.99.93-1,1-4.01.28-3.5-7.17-3-10,.07-.39,1.6-1.45,2-2,2.07,4.95,2.15,5.11,2,11Z"/>
      <path class="cls-29" d="M51,112c-3.37-.22-4.85-.19-5.04,3.48-.17,3.23,1.24,2.52,5.04,3.52v1l-5-1c-.04-.24-.84-.62-1-1-1.82-4.19-5.47-3.09,0-7,4.94-3.53,3.77-2.37,6,1Z"/>
      <path class="cls-2" d="M52,119c3.87,1.49,1.35,2.38,2.05,6.48.29,1.71,1.49,2.41,1.95,3.52-.4.55-1.93,1.61-2,2-3.51-3.28-3.29-6.43-3-11v-1c.33.09.73-.1,1,0Z"/>
      <path class="cls-17" d="M65,141c2.66-.06,4.2-.82,6-1,.94-.09,2.16.53,3,1-.37.3-.57,1.6-1,2-5.34-.21-10.86.73-16-1-.08-.23-.03-.74,0-1,0-.07.98-.29,1-1,2.17,1.32,4.61,1.06,7,1Z"/>
      <path class="cls-16" d="M62,3c-2.62-.41-27.64-.5-29,0,1.04-1.66,3.79-1,5.49-1.02,7.56-.08,16.29-.74,23.51,1.02Z"/>
      <path class="cls-31" d="M94,109c-1.27,2.13-4.4,3.66-6,5-1.62-2.43-11.76.55-11.86-2.5,0-.24.86-.42.86-.5,2.72,1.32,6.98,1.37,10,1,3.58-.43.78-3.61,5-4,.11-.01,1.29,1.13,2,1Z"/>
      <path class="cls-6" d="M96,101c-.07,1.44-1.22,6.68-2,8-.71.13-1.89-1.01-2-1,.29-3.05-1.12-6.88,1.5-8.98l2.5,1.98Z"/>
      <path class="cls-13" d="M93,71c.16.36,1.76.73,1.97,1.74.45,2.19-.74,6.64,1.03,8.26h-1c-.96-.1-2.08.16-3,0,.19-2.95-.28-6.09,0-9,.04-.45.53-.9,1-1Z"/>
      <path class="cls-18" d="M82,46c-1.33,3.49-3.49,3.44-4,4-.67,0-1.33,0-2,0v-1c.08-3.01,3.92-3.02,4.07-3.56.55-1.96-.51-6.07-.07-8.44.21.12.84-.23.89.59l1.11,8.41Z"/>
      <path class="cls-20" d="M73,143c-2.21,2.06-11.6.96-15.04.52-.47-.4-.77-.94-.96-1.52,5.14,1.73,10.66.79,16,1Z"/>
      <path class="cls-54" d="M65,5c.59.26,2.14-.2,3.02.02-.07.5-1.02.91-1.02.98-.64.09-1.41-.13-2,0v-1Z"/>
      <path class="cls-26" d="M51,6c14.54,7.75,22.85,22.36,11.85,37.35-4.63,6.31-18.44,7.72-25.66,5.97-8-1.94-11.43-5.54-13.68-13.32-1.58-5.48-1.42-10.41-.51-15.99.29-1.75-.32-2.47.95-4.54.76-1.24,6.65-6.72,8.05-7.46,5.44-2.87,12.95-1.94,19-2Z"/>
      <path class="cls-10" d="M43,96c.24,2.6.41,5.7,3,7-.33.19-3.03,5.3-4.64,5.82-8.2,2.65-12.01-4.57-16.36-9.82-.3-.36-.66-.68-1-1,.31-.45.5-.72,1-1,.81-.46,7.53-2.95,8.49-3.05,3.42-.32,9.14,2.38,9.51,2.05Z"/>
      <path class="cls-10" d="M70,96c0,1,0,2,0,3,.05,5.62-4.18,5.78-6.15,10.9-3.32-.78-11.91-.52-11.89-5.41,0-1.89,2.37-2.6,2.85-4.2s-.44-4.52.77-5.41c1.44-1.06,6.97-1.11,8.95-.91,2.42.25,4.5,1.96,5.47,2.03Z"/>
      <path class="cls-37" d="M40,63c.19.12.38,1,1.04,1.45,1.38.93,4.72,1.01,5.01,2.21.66,2.75.27,16.27,0,19.9-.13,1.77.19,3.27-1.57,4.44l-4.63-17.34c-2.11-2.88-4.91-5.85-8.85-5.65-.29-1.76-1.66-3.74-1-6l10,1Z"/>
      <path class="cls-19" d="M27,68c-.01.69-.35.91-1,1-.79.11-2.81-.22-3,0-.39.45.26,4.72,0,6.01-5.2,1.74-5.91-1.98-7.28-2.71-4.83-2.6-6.7-.24-5.72-9.29.75-1.12,1.31-1.3,2-2,2.64.22,12.52.42,14.07,1.43,1.71,1.11.51,4.34.93,5.57Z"/>
      <path class="cls-46" d="M62,62c.33-.04.67.02,1,0,.96,1.12,2.01,3.09,3,4-2.48,1.91-3.97,0-6,3-.71,1.05-4.2,9.27-4.7,10.8-1.25,3.87-.34,8.94-3.29,11.2-.69-5.18-2.4-20.06-.89-24.37.53-1.51,8.89-4.39,10.88-4.62Z"/>
      <path class="cls-38" d="M84,90c.24.08.71,1.18,1.4.99,2.48-.68.55-5.86,3.21-6.88,4.13-1.58,2.95,2.77,6.38,2.9-.29,5.2,1.26,8.71,1,14l-2.5-1.98c-2.62,2.1-1.21,5.93-1.5,8.98-4.22.39-1.42,3.57-5,4,4.32-5.32-1.56-15.22,6-16.49-5.24-5-7.92,3.69-13,3.49.13-.19-.23-1.11.24-1.73.69-.9,3.16-1.07,3.67-2.94.7-2.56-1.75-2.97-1.92-3.33-.12-.26.11-.69,0-1,.62.11,1.52-.17,2,0Z"/>
      <path class="cls-9" d="M81,64c.3-.01,5.74.86,5.99,1.03.26.18-.13,1.43.01,1.97.38,1.42,2.01,6.07,1.94,6.4-.32,1.46-3.07,1.85-4.23,2.62-.71.47-.73,1.95-1.21,2.01-3.2.37-2.65-1.76-4.27-3.06-.91-.73-2.57-1.24-3.23-1.97-4.47-4.98-.51-8.73,5-9Z"/>
      <path class="cls-55" d="M13,83c-1.35.76-3.55,4.49-2.9,6.34.1.29,3.93,4.23,4.19,4.4,1.05.67,2.32.07,2.72.26s.68.85,1,1c-1.62,2.74-3.02,5.48-6,7-4.96-.45-2.84-10.68-3-15-.06-1.57.6-3.19.5-4.48-.11-1.4-2.59-3.99-1.5-6.51,3.39.2,5.6,3.81,4.99,7Z"/>
      <path class="cls-30" d="M36,144c-1.05.8-2.85,2.6-3.76,2.88-2.09.65-2.79-.82-3.24-.88.69-2.48-2.41-2.12-2.91-3.61-1.83-5.46,9.6-10.16,10.84-5.76.44,1.59-1.67,5.19-.92,7.37Z"/>
      <path class="cls-41" d="M70,118c.01,1.14-.16,2.28.09,3.41.09.64.51.46.91.59,1.32.43,4.27-.26,6,0-.13,4.03.76,7.3-1,11-5.17,1.83-13.07-14.01-6-15Z"/>
      <path class="cls-14" d="M80,63c.46.07.88.53,1,1-5.51.27-9.47,4.02-5,9-.67.32-1.33.68-2,1-.47-3.36-5.62-5.83-8-8-.99-.91-2.04-2.88-3-4,.97-.07,2.02-.04,3,0,.09,1.52,6.3,3.54,8,2.99.06-4.29-5.2-2.88-8-2.99-.32-5.17,8.77.1,9.99.55,1.5.56,2.7.25,4.01.45Z"/>
      <path class="cls-23" d="M43,96c.22-.2-.23-1.83,0-2,.74-.56,9.05.4,11,0,.35.31-2.33,6.89-2.92,7.56-1.86,2.11-4.41,1.04-5.07,1.43-2.59-1.3-2.76-4.4-3-7Z"/>
      <path class="cls-39" d="M66,66c2.38,2.17,7.53,4.64,8,8-2.48,1.17-4.4,3.95-4.7,4.03-3.57.91-5.96-.73-5.36-4.53.47-2.91,3.93-1.88,3.05-3.98-1.15-2.75-5.14-.47-6.99-.52,2.03-3.01,3.52-1.09,6-3Z"/>
      <path class="cls-12" d="M84,90c-1.12-1.85-1.71-6.5-.55-8.08.96-1.31,4.67.19,3.56-3.92,1.5,0,1.48,2.27,2.22,2.78.89.61,1.95.08,2.77.22.92.16,2.04-.1,3,0-.08,1.99.11,4.01,0,6-3.43-.13-2.25-4.48-6.38-2.9-2.66,1.02-.73,6.2-3.21,6.88-.7.19-1.16-.9-1.4-.99Z"/>
      <path class="cls-15" d="M26,118c-.23-1.54.16-3.4,0-5,6.45.76,7.51,3.59,7,9.55-.26,3.05.53,2.58-3,2.45-1.18-3.27-3.36-2.79-4-7Z"/>
      <path class="cls-35" d="M73,87c.1-1.54-.57-4.06,2.01-5.49,6.28-3.49,5.4,3.96,6.99,8.49.11.31-.12.74,0,1-.72.49-1.35,1.62-2,2-.42-2.28-4.31-6.5-7-6Z"/>
      <path class="cls-28" d="M31,70c8.59,6.18-3.85,11.57-5,5.49-.37-1.96.2-4.43,0-6.49.65-.09.99-.31,1-1,.33.96,3.36,1.54,4,2Z"/>
      <path class="cls-1" d="M70.01,81c1.07,4.42-2.73,2.63-5.94,4.57-2.65,1.6-2.83,5.31-6.06,5.42-1.17-8.14,4.56-11.18,12-9.99Z"/>
      <path class="cls-25" d="M69,57c1.28.05,6.09.74,8,1,.24.55-.49,2.34.15,2.88.79.67,3.66-.95,2.85,2.12-1.31-.19-2.51.11-4.01-.45-1.21-.45-10.31-5.72-9.99-.55-.98-.04-2.03-.07-3,0-.33.02-.67-.04-1,0l-1-2.99c2.74-.4,5.12-2.12,8-2.01Z"/>
      <path class="cls-40" d="M45,111c.88-7.37,10.44.26,11,2.51.75,3.01-2.92,1.33-2.99,1.49-1.75,4.1,2.75,2.43,3.06,3.54.54,1.92-.72,5.53.09,7.84.48,1.36,2.6,1.27,2.87,2.32,1.06,4.09-2.99,11.4,4.98,10.3.42.62,1.07,1.04,1,2-2.39.06-4.83.32-7-1,.15-5.89.07-6.05-2-11-.46-1.11-1.67-1.82-1.95-3.52-.69-4.1,1.83-4.99-2.05-6.48-.46-1.77,1.02-3.94.77-5.42-.18-1.09-1.57-1.26-1.77-1.58-2.23-3.37-1.06-4.53-6-1Z"/>
      <path class="cls-11" d="M38.78,84.21c.48.83,1.05,6.95-1.26,5.78-1.17-.59-1.84-3.33-3.56-4.44-3.42-2.23-8.14.16-6.96-4.54,3.07-.71,10.21.47,11.78,3.21Z"/>
      <path class="cls-36" d="M6,83c2.97-.55,1.9,1.77,2,4,.21,4.64-.15,9.36,0,14h-1c-.34-1.99-1.76-3.16-2.05-5.45-.58-4.56.99-9.3,1.05-12.55Z"/>
      <path class="cls-32" d="M74,95c.21,5.39.86,16.81.02,21.53-.47,2.66-4.09,1.89-3.02,5.47-.4-.13-.83.05-.91-.59-.24-1.13-.07-2.28-.09-3.41,0-.66-.03-1.34,0-2,1.31-.19,2.35-.05,2.85-1.64.53-1.67.47-10.72.23-12.89s-1.58-1.68-3.08-2.46c0-1,0-2,0-3,.54.04,2.78-1.43,4-1Z"/>
      <path class="cls-56" d="M16,83c-.49,1.08-2.3,2.32-2.01,3.48.14.55,5.22,2.51,3.01,7.52-.39-.19-1.67.41-2.72-.26-.26-.16-4.09-4.11-4.19-4.4-.65-1.85,1.55-5.58,2.9-6.34.47-.26,2.19.18,3,0Z"/>
      <path class="cls-50" d="M80,37c-.44,2.37.62,6.48.07,8.44-.15.54-3.99.55-4.07,3.56-3.11.72-2.23-2.78-1.75-4.25.4-1.24,3.65-7.4,4.75-7.75.33.08.79-.13,1,0Z"/>
      <path class="cls-8" d="M72,138c-.42.57-.63,1.38-1,2-1.8.18-3.34.94-6,1,.07-.96-.58-1.38-1-2-.88-1.29-2.25-2.31-1.99-3.99,3.72.12,8.21-1.29,9.99,2.99Z"/>
      <path class="cls-40" d="M25,99c.59,6.07-1.28,13.29,1,19,.64,4.21,2.82,3.73,4,7,.95,2.66,2.45,6.47-1,8,1.98-4.05.95-6.96-3-9-.32-4.99-2.57-4.85-3.06-8.44-.41-2.97-.32-15.53,1.06-17.56.34.32.7.64,1,1Z"/>
      <path class="cls-43" d="M73,87c2.69-.5,6.58,3.72,7,6-2.19,1.27-3.37,1.26-6,1-.1-2.23-1.25-3.23-1-7Z"/>
      <path class="cls-49" d="M70,116c-1.72.25-5.15.28-5.99-1.52-.62-1.32,4.16-3.61,4.5-5.49,4.46.78,1.6,4.56,1.49,7Z"/>
      <path class="cls-45" d="M39,115.99c-.73,1.94,1.74,8.79-1.48,9-2.63-2.22-1.25-6.04-1.51-9h2.99Z"/>
      <path class="cls-52" d="M12,102v1c-1.79-.21-3.18.17-4-2-.15-4.64.21-9.36,0-14h1c.16,4.32-1.96,14.55,3,15Z"/>
      <path class="cls-4" d="M18,95c.45.21,1.76-.6,2.05.62,1.75,7.15-2.27,8.07-8.05,7.38v-1c2.98-1.52,4.38-4.26,6-7Z"/>
      <path class="cls-42" d="M80,99c5.07.2,7.76-8.5,13-3.49-7.56,1.28-1.67,11.18-6,16.49-3.02.37-7.28.32-10-1-.02-6.64-.77-6.64,3-12Z"/>
      <path class="cls-53" d="M51,112c.21.32,1.59.49,1.77,1.58.25,1.48-1.24,3.65-.77,5.42-.27-.1-.67.09-1,0-3.8-1-5.22-.29-5.04-3.52.2-3.67,1.67-3.7,5.04-3.48Z"/>
      <path class="cls-51" d="M66,62c2.8.12,8.06-1.29,8,2.99-1.69.54-7.9-1.47-8-2.99Z"/>
    </g>
  </g>
</svg>