<?xml version="1.0" encoding="UTF-8"?>
<svg id="_Слой_2" data-name="Слой 2" xmlns="http://www.w3.org/2000/svg" viewBox="0 0 71 151">
  <defs>
    <style>
      .cls-1 {
        fill: #4b2419;
      }

      .cls-2 {
        fill: #f4c6a8;
      }

      .cls-3 {
        fill: #f8cdaf;
      }

      .cls-4 {
        fill: #d4977a;
      }

      .cls-5 {
        fill: #421b0f;
      }

      .cls-6 {
        fill: #fbd1b3;
      }

      .cls-7 {
        fill: #563227;
      }

      .cls-8 {
        fill: #d99b7e;
      }

      .cls-9 {
        fill: #8e5d4f;
      }

      .cls-10 {
        fill: #3e2e24;
      }

      .cls-11 {
        fill: #8e4f37;
      }

      .cls-12 {
        fill: #df9e7b;
      }

      .cls-13 {
        fill: #db9e80;
      }

      .cls-14 {
        fill: #fce3cd;
      }

      .cls-15 {
        fill: #884932;
      }

      .cls-16 {
        fill: #5a2b1c;
      }

      .cls-17 {
        fill: #b4a6a2;
      }

      .cls-18 {
        fill: #d3977a;
      }

      .cls-19 {
        fill: #3e160b;
      }

      .cls-20 {
        fill: #8f513a;
      }

      .cls-21 {
        fill: #482013;
      }

      .cls-22 {
        fill: #7d4b40;
      }

      .cls-23 {
        fill: #3d2e26;
      }

      .cls-24 {
        fill: #f7ddc7;
      }

      .cls-25 {
        fill: #411a0f;
      }

      .cls-26 {
        fill: #fdd4b6;
      }

      .cls-27 {
        fill: #532c21;
      }

      .cls-28 {
        fill: #421a0f;
      }

      .cls-29 {
        fill: #fde4ce;
      }

      .cls-30 {
        fill: #451e13;
      }

      .cls-31 {
        fill: #cb896d;
      }

      .cls-32 {
        fill: #f8cfb1;
      }

      .cls-33 {
        fill: #d6987b;
      }

      .cls-34 {
        fill: #481e12;
      }

      .cls-35 {
        fill: #7c422d;
      }

      .cls-36 {
        fill: #fad1b3;
      }

      .cls-37 {
        fill: #d8997c;
      }

      .cls-38 {
        fill: #b2a49f;
      }

      .cls-39 {
        fill: #835043;
      }

      .cls-40 {
        fill: #512d22;
      }

      .cls-41 {
        fill: #d49579;
      }

      .cls-42 {
        fill: #4a2317;
      }

      .cls-43 {
        fill: #8d4d35;
      }

      .cls-44 {
        fill: #4e281b;
      }

      .cls-45 {
        fill: #d19373;
      }

      .cls-46 {
        fill: #dcd6d4;
      }

      .cls-47 {
        fill: #d29275;
      }

      .cls-48 {
        fill: #e5a17c;
      }

      .cls-49 {
        fill: #da9d7f;
      }

      .cls-50 {
        fill: #3d160b;
      }

      .cls-51 {
        fill: #eeebea;
      }

      .cls-52 {
        fill: #461f14;
      }

      .cls-53 {
        fill: #fce1cb;
      }

      .cls-54 {
        fill: #fad0b2;
      }

      .cls-55 {
        fill: #fefefe;
      }

      .cls-56 {
        fill: #f3d2bb;
      }

      .cls-57 {
        fill: #fcd2b3;
      }

      .cls-58 {
        fill: #b1a29d;
      }

      .cls-59 {
        fill: #d5987a;
      }

      .cls-60 {
        fill: #e4a17d;
      }

      .cls-61 {
        fill: #421c12;
      }

      .cls-62 {
        fill: #87574a;
      }

      .cls-63 {
        fill: #462015;
      }

      .cls-64 {
        fill: #8c4c35;
      }

      .cls-65 {
        fill: #d5967a;
      }

      .cls-66 {
        fill: #cf8c70;
      }

      .cls-67 {
        fill: #7f4d41;
      }
    </style>
  </defs>
  <g id="_Слой_11_Изображение" data-name="Слой 11 Изображение">
    <g>
      <path class="cls-25" d="M57,48h-1c2.59-4.17,1.82-7.48,2-12,.11-2.58.14-5.43,0-8-.12-2.09.31-4.17-.24-6.26-.45-1.71-2.03-2.55-2.76-3.74-1.9-3.09-4.16-6.45-7-9-.71-.64-1.78-.87-2.6-1.39-.57-.36-.33-1.58-.4-1.61l1-1c2.12.95,3.51.66,6.04,2.46,2.06,1.46,8.11,9.07,8.74,11.25.86,2.97.55,24.62-.73,26.87-.64,1.12-2.62,1.8-3.05,2.42Z"/>
      <path class="cls-61" d="M10,10l-5.99,12.51c-.56,7.27.69,15.34-.01,22.49-.05.53-.81,1.37-1,2-.07-.18-1.61-.38-1.99-2.48-.57-3.19-.61-21.96,0-25.01.95-4.78,5.01-7.69,7.99-10.51l1,1Z"/>
      <path class="cls-30" d="M65,64c4.34,6.04,7.08,23.2,3.48,30-.77,1.45-2.89,1.61-3.55,2.68-1.18,1.94-.5,5.35-1.12,6.17-.38.5-1.68.02-1.81.15l-1-2c.47-.79,2-5,3-7,.51-1.01,1.62-2.04,2-3,1.07-2.74,1.76-9.61,2-13,.14-2.01-2.79-6.71-4-9-.55-1.05-1.43-1.96-2-3,.8-.21,2.15-1.51,3-2Z"/>
      <path class="cls-23" d="M46,5l-1,1c-.3-.14-5.79-.85-6.55-.86-.8-.01-1.33.86-1.45.86-3.63,0-7.39-.21-11,0-4.94.29-4.74,1.11-8,2l-1-4c6.67-2.22,20.04-3.45,26.62-1.08,1.53.55,2.15,1.98,2.38,2.08Z"/>
      <path class="cls-28" d="M17,136c-1.3,1.41-2.58.87-3,4-.13.96.06,2.03,0,3,5.41.64,7.5.02,12.01-2,1.33-.6,2.86-.78,4-2,.01.33,0,.67,0,1,0,2,0,4,0,6-.33-.01-.67.01-1,0-5.25-.21-12.3-.68-17,1-4.76-1.46-1.34-12.1,4-13-.04.4.82,1.43,1,2Z"/>
      <path class="cls-5" d="M38,99c.62-.18,1.11.54,1,1-.93,3.92-.35,2.21,0,5,.53,4.26-1.8,5.08,3,7,3.61,1.44,6.12,1.07,10,1-2.47,5.34-3.23,1.93-4,10-.09.9-1,1.87-1,2h-1c-2.17-9.27,1.49-10.08-9-10-2.03-4.07-.6-9.52-1-14,.02-.33-1.36-1.72-1.01-1.99.4-.31,2.37.27,3.01,0Z"/>
      <path class="cls-30" d="M11,116c-.22.23-.93,1.67-1,2-.2,1.01-.19,6.49.17,6.85.32.33,1.92.13,2.73.75,2.04,1.57-.17,2.02,4.11,2.4,3.01.27,3.1-1.08,3.05,2.51-.05,4.49-1.11,3.38-3.05,5.49-.18-.57-1.04-1.6-1-2,.02-.24,1.35-1.05,1-1.99-8.68,1.13-11.91-8.14-10.01-15.3.09-.35,2.2-1.85,3.02-2.71l1,2Z"/>
      <path class="cls-52" d="M11,88c5.2.88,2.06,5.55,3.2,9.3.57,1.89,2.19,1.77,2.8,5.7.1.62-.04,1.35,0,2,.05.94.1,2.08,0,3s.22,2.38,0,3c-4.05,1.27-.94-6.6-2-8.01-.18-.24-1.67.24-2,0-3.84-2.69-2.23-7.7-3.02-11.29-.05-.23-2.21-2.64-2.98-3.71.22.23,3.02-.16,4,0Z"/>
      <path class="cls-42" d="M56,48h1c-.99,1.42-1.25,3.31-2.31,4.7-.99,1.31-5.57,1.99-2.78,5.7,1.07,1.42,6.25.16,8.43.79,1.26.37,1.35,1.59,1.65,1.8-.6,1.37-2.78,1.16-4,1-1.95-.25-3.15-1.25-6-1-2.31.68-6.77-3.76-5.93-4.94.09-.12,1.61.16,1.94-.75.29-.81-.18-1.91,0-2.31,1.84-4.25,3.61-3.86,8-5Z"/>
      <path class="cls-50" d="M8,70c-1.36,2.78,0,2.81,0,4-1.38,1.43-1.49,13.49-1,14-.27-.38-1.65-.7-2.06-1.41-1.31-2.29-1.47-13.18-.92-16.07s3.98-3.92,4.98-6.52h1l1-2c1.14.33,2.16.05,2.98,1.5-1.75,2.16-4.76,4.01-5.98,6.5Z"/>
      <path class="cls-63" d="M48,123c5.02,2.05,2.07,7.5,3.2,11.3.89,2.99,5.76,3.76,3.82,11.04-.3,1.13-1.92.54-2.02.65-.48-.1-.94-.54-1-1-.72-5.7-2.09-3.9-3-6-.32-.72-.8-5.56-1-7s-1.01-6.3-1-7c0-.13.91-1.1,1-2Z"/>
      <path class="cls-18" d="M55,106c-1.13,1.55-1.8,4.66-2,5-.37.63-.69,1.34-1,2-3.88.07-6.39.44-10-1v-1c11.35,2.53,7.54-8.49,16-12-.96,1.72-1.99,5.04-3,7Z"/>
      <path class="cls-40" d="M5,45c3.32,1.56,1.73,5.68,2.27,9.27s2.08,3.01,2.73,6.73c-.67,0-1.33,0-2,0-1.16-1.4-3.51-2.68-3.85-3.66-.99-2.85.53-6.23-1.15-10.34.19-.63.95-1.47,1-2h1Z"/>
      <path class="cls-44" d="M53,146c-.43.53.04,1.89-2,3h-20c-1.22-.59-1.86-1.96-2-2v-1c.33.01.67-.01,1,0,4.53.17,17.53,2.83,21,0,.36-.29.63-.71,1-1,.06.46.52.9,1,1Z"/>
      <path class="cls-7" d="M62,103c-2.91,2.88-4.34,7.43-9,8,.2-.34.87-3.45,2-5,1.23-1.68,5.8-4.66,6-5l1,2Z"/>
      <path class="cls-27" d="M18,8c-2.52.69-5.58.55-8,2l-1-1c.5-.47.57-2.47,1.17-2.8.32-.18,5.46-1.74,6.83-2.2l1,4Z"/>
      <path class="cls-1" d="M13,103c.33.23,1.82-.24,2,0,1.06,1.41-2.04,9.28,2,8.01-.69,1.92-5.21,4.17-6,5l-1-2c3.57-3.76,5.93-4.72,3-11Z"/>
      <path class="cls-62" d="M65,64c-.85.49-2.2,1.79-3,2s-2.07-.14-3,0c-.6-1.32-1.13-2.48-1-4,1.22.16,3.4.37,4-1,1.59,1.12,1.87,1.43,3,3Z"/>
      <path class="cls-38" d="M51,149c-3.16,1.72-16.62,1.62-20,0h20Z"/>
      <path class="cls-58" d="M29,146v1c-4.04-1.1-13.2,1.16-17,0,4.7-1.68,11.75-1.21,17-1Z"/>
      <path class="cls-46" d="M10,61c.05.31,0,.68,0,1h-1c-.06-.18-.71-.65-1-1,.67,0,1.33,0,2,0Z"/>
      <path class="cls-55" d="M10,63h-1c0-.33.08-.77,0-1h1c0,.33,0,.67,0,1Z"/>
      <path class="cls-51" d="M10,64h-1c.08-.22,0-.66,0-1h1v1Z"/>
      <path class="cls-26" d="M37,6c3.87,1.51,6.4,3.95,11,3,2.84,2.55,5.1,5.91,7,9-.05,3.5-.71,8.06,3,10,.14,2.57.11,5.42,0,8-7.47,8.6-3.38,2.21-9.17.66-4.19-1.12-9.2,3.15-11.28,6.39-1.94,3.03-1.62,5.91-2.76,8.27-.85,1.76-4.59,1.83-2.22,4.69h4.43c-1.03,8.64-10.04,8.47-17,7.99-4.3-1.38-4.5-2.99-10-3-.65-3.72-2.22-3.31-2.73-6.73-.54-3.6,1.05-7.71-2.27-9.27-.58-5.7.8-10.8,2.29-16.21.4-1.44,1.91-2.72,2.5-4.5s-.27-4.29.69-6.31c1.38-2.9,12.92-9.18,15.51-11.99,3.61-.21,7.37,0,11,0ZM29,45.01c-.56-.58-5.18-1.2-6.42-1.01-7.56,1.15-8.63,14.04.41,11.99l1.01-10c.22-.24,8.07,2.24,4.99-.98Z"/>
      <path class="cls-48" d="M58,36c-.18,4.52.59,7.83-2,12-4.39,1.14-6.16.75-8,5l-5.51,1c-.83,1.15,1.7,1.85,1.45,3.38-.14.85-5.49,5.82-6.7,6.36-4.5,2.01-12.73,1.72-17.23.27,6.95.49,15.97.66,17-7.99h-4.43c-2.37-2.86,1.37-2.93,2.22-4.68,1.14-2.37.82-5.24,2.76-8.27,2.08-3.24,7.09-7.51,11.28-6.39,5.79,1.55,1.7,7.94,9.17-.66ZM47.7,49.71c2.12-2.64,1.61-10.75-1.2-10.69-1.08.02-2.01,3.81-2.8,4.68-1.27,1.41-5.07,1.62-4.75,3.77.66,4.4,5.88,5.79,8.75,2.23Z"/>
      <path class="cls-47" d="M58,28c-3.71-1.94-3.05-6.5-3-10,.73,1.19,2.31,2.03,2.76,3.74.55,2.08.12,4.17.24,6.26Z"/>
      <path class="cls-9" d="M45,6c.08.03-.17,1.25.4,1.61.82.52,1.88.75,2.6,1.39-4.6.95-7.13-1.49-11-3,.13,0,.65-.87,1.45-.86.75.01,6.25.72,6.55.86Z"/>
      <path class="cls-4" d="M26,6c-2.59,2.81-14.13,9.09-15.51,11.99-.96,2.02-.08,4.47-.69,6.31s-2.11,3.06-2.5,4.5c-1.49,5.4-2.87,10.51-2.29,16.21h-1c.7-7.14-.55-15.22.01-22.49l5.99-12.51c2.42-1.45,5.48-1.31,8-2,3.26-.89,3.06-1.71,8-2Z"/>
      <path class="cls-8" d="M68,78c-9.51-1.3-10.88,3.58-10,12v1c-.77-.75-2.12-1.28-3-2,.27-2.59-.19-5.39,0-8.01-2.67.81-10.28-2.43-9.01,3.01-.67,0-1.33,0-2,0-.32-.68-.69-1.34-1-2-.34-.71-.6-1.31-1-2-.81-1.4-.94-2.61-3-4,.26.01,3.11-2,5-1,.61.39.97,1.84,2.25,2.33,4.42,1.68,9.61-.64,13.75-2.33,3.92-1.59,4.62.1,4-6,1.21,2.29,4.14,6.99,4,9Z"/>
      <path class="cls-53" d="M68,78c-.24,3.39-.93,10.26-2,13-1.38-1.68-1.27-9.24-2.01-10-2.34-2.38-2.85,5.61-3.02,6.52-.49,2.65,1.09,2.77-2.97,2.48-.88-8.42.49-13.3,10-12Z"/>
      <path class="cls-41" d="M58,90c4.06.29,2.48.17,2.97-2.48.17-.92.68-8.9,3.02-6.52.74.76.63,8.32,2.01,10-.38.96-1.49,1.99-2,3-1.05.16-2.11.4-3,1-.97-1.17-1.98-3.01-3-4v-1Z"/>
      <path class="cls-67" d="M64,94c-1,2-2.53,6.21-3,7-.2.34-4.77,3.32-6,5,1.01-1.96,2.04-5.28,3-7,1.03-1.85.69-2.45,3-4,.89-.6,1.95-.84,3-1Z"/>
      <path class="cls-12" d="M62,66c.57,1.04,1.45,1.95,2,3,.62,6.1-.08,4.41-4,6,2.56-4.09.42-5.88-1-9,.93-.14,2.19.21,3,0Z"/>
      <path class="cls-15" d="M21,124c.16.52,6.65,7.3,8,7,1.07,2.63.89,5.25,1,8-1.14,1.22-2.67,1.4-4,2l1-6c-6.49-1.54-8.09,2.5-13,5,.42-3.13,1.7-2.59,3-4,1.95-2.12,3-1.01,3.05-5.49.04-3.58-.04-2.24-3.05-2.51v-1c1.97-.07,3.24-1.27,4-3Z"/>
      <path class="cls-66" d="M14,140c4.92-2.5,6.51-6.54,13-5l-1,6c-4.5,2.02-6.59,2.64-12.01,2,.07-.98-.12-2.04,0-3Z"/>
      <path class="cls-45" d="M31,140l4.69,5.99h15.31c-3.47,2.84-16.47.18-21,.01,0-2,0-4,0-6h1Z"/>
      <path class="cls-19" d="M29,130c.07.1,1.29-.21,1.66.31.43.6,3.19,4.95,3.31,5.23,1.02,2.33-4.6,1.41-1.97,4.46-.33,0-.67,0-1,0h-1c0-.33.01-.67,0-1-.11-2.75.07-5.37-1-8v-1Z"/>
      <path class="cls-37" d="M43,82c-1.8,4.49-2.16,8.33,2,11-.48.31-3.57,4.46-7,6-.63.28-2.6-.3-3.01,0-.35.27,1.03,1.67,1.01,1.99-.08,1.08-3.41,10.22-4,11-.07.09-1.73-.41-2.01.66-.22.85-.22,7.58.01,8.34.16.62-.52,1.05-1,1-.77-2.2-.57-5.17-1.57-6.97-.92-1.66-6.59-6.53-8.43-9.03,6.64.65,6.69-4.63,0-4,2.08-.91,3.04-.65,4-1,.29-.11.7.1,1,0,2.56,1.52,2.57,4.88,6,4.01-.92-5.88,2.38-7.58,6-11h-11.99c-.59,3.72,4.08,1.2,1.99,4.99-3.42-.11-2.55-4.18-6.52-4.99-3.74-.76-2.31,1.65-2.48,3.99-3.51-2.6-.85-7.57-3-11,5.87.13,5.86,2.8,6.69,2.98,1.59.35,9.21.31,10.66-.16,2.22-.72,6.67-9.62,10.65-9.82.4.69.66,1.29,1,2Z"/>
      <path class="cls-16" d="M50,90c2.99,7.14-2.86,8.28-8,9-.78.11-1.95,1.06-3,1,.11-.46-.38-1.18-1-1,3.43-1.54,6.52-5.69,7-6,.53-.34,4.5.88,2.92-1.94-.12-.21-1.67-.5-1.92-1.06.72.13,1.89-1.01,2-1,.44.03,1.4.74,2,1Z"/>
      <path class="cls-22" d="M46,125c-.33-.05-.68.06-1,0-1.06-.2-2.08-.41-3-1-.72-8.35-2.73-4.44-5-9,10.49-.08,6.83.73,9,10Z"/>
      <path class="cls-20" d="M37,115c-1,0-2,0-3,0-.7-.8-2.29-1-2-3,.59-.78,3.92-9.92,4-11,.4,4.48-1.03,9.93,1,14Z"/>
      <path class="cls-59" d="M42,106l-3-1c-.35-2.79-.93-1.08,0-5,1.05.06,2.22-.89,3-1v7Z"/>
      <path class="cls-35" d="M42,106v6c-4.8-1.92-2.47-2.74-3-7l3,1Z"/>
      <path class="cls-39" d="M47,125c0,.7.8,5.54,1,7-.67-.25-1.36-.84-2-1l-1-6c.32.06.67-.05,1,0h1Z"/>
      <path class="cls-31" d="M10,118c4.1.04,5.4-4.37,10-3,.15,4.86.83,8.49-3,12v1c-4.28-.38-2.07-.83-4.11-2.4-.8-.62-2.41-.42-2.73-.75-.35-.37-.36-5.85-.17-6.85Z"/>
      <path class="cls-64" d="M24,115h-3c.44,2.45-.64,6.97,0,9-.76,1.73-2.03,2.93-4,3,3.83-3.52,3.15-7.14,3-12-4.59-1.37-5.9,3.05-10,3,.07-.33.78-1.77,1-2,.79-.83,5.31-3.08,6-5,.22-.62-.1-2.09,0-3,3.98,1.25,5.12,3.81,7,7Z"/>
      <path class="cls-37" d="M40,68c-.42.52-.59,1.45-1,2-2.03,2.75-.46,3.76-6,3-1.74-.88-2.84-2.78-5.55-2.95-6.81-.44-8.47,2.65-12.06,6.89-.99,1.17-3,.6-2.37,2.53l2.96,3.03-2.98,4.5c-.85.09-1.68.02-2,1-.98-.16-3.78.23-4,0-.49-.51-.38-12.57,1-14,0,2.54-.43,5.67.5,8,2.11-5.05,6.07-8.24,8.5-13,.19-.02,1.13-.97,2.43-1.04,6.82-.34,13.76.32,20.57.04Z"/>
      <path class="cls-37" d="M19,106c1.84,2.49,7.51,7.36,8.43,9.03,1,1.8.8,4.77,1.57,6.97-4.51-.51-2.07-3.24-3.29-5.76-.3-.61-1.5-.89-1.71-1.24-1.88-3.19-3.02-5.75-7-7,.1-.92.05-2.06,0-3,.5.38,1.73.64,2,1Z"/>
      <path class="cls-65" d="M13,87c.32-.03.67,0,1,0,2.15,3.43-.51,8.4,3,11,3.07,2.27,6.68-.67,6,3-.96.35-1.92.09-4,1-.68.3-1.32.71-2,1-.62-3.93-2.23-3.81-2.8-5.7-1.14-3.75,2-8.42-3.2-9.3.32-.98,1.15-.91,2-1Z"/>
      <path class="cls-56" d="M19,106c-.27-.36-1.5-.62-2-1-.04-.65.1-1.38,0-2,.68-.29,1.32-.7,2-1,6.69-.63,6.64,4.65,0,4Z"/>
      <path class="cls-14" d="M58,62c-.13,1.52.4,2.68,1,4,1.42,3.12,3.56,4.91,1,9-4.15,1.68-9.34,4.01-13.75,2.33-1.27-.48-1.63-1.94-2.25-2.33-3.62-2.28-5.87,1.08-5-5,.41-.55.58-1.48,1-2,3.05-3.7,7.11-6.58,12-7,2.85-.25,4.05.75,6,1Z"/>
      <path class="cls-11" d="M48,53c-.17.4.29,1.51,0,2.31-.32.91-1.85.62-1.94.75-.84,1.18,3.61,5.62,5.93,4.94-4.89.42-8.95,3.3-12,7-6.82.29-13.76-.38-20.57-.04-1.29.07-2.23,1.02-2.43,1.04-.88.08-2.4-1.01-3.52-.89-1.84.19-3.26,2.37-5.48,1.89,1.22-2.49,4.23-4.34,5.98-6.5-.82-1.45-1.84-1.17-2.98-1.5-.3-.09-.68.07-1,0,0-.32.05-.69,0-1,5.5,0,5.7,1.62,10,3s12.73,1.75,17.23-.27c1.21-.54,6.56-5.5,6.7-6.36.25-1.53-2.27-2.23-1.45-3.38l5.51-1Z"/>
      <path class="cls-3" d="M17,69c-2.44,4.76-6.4,7.94-8.5,13-.92-2.32-.5-5.46-.5-8,0-1.19-1.36-1.22,0-4,2.22.48,3.64-1.71,5.48-1.89,1.12-.11,2.64.97,3.52.89Z"/>
      <path class="cls-17" d="M10,64v-1c0-.33,0-.67,0-1,.32.07.7-.09,1,0l-1,2Z"/>
      <path class="cls-60" d="M30,121c.74,2.35,6.57,4.85,7.08,5.66,1.08,1.69.81,5.71,2.15,7.1,2.16,2.24,7.45,1.59,4.76-2.76.64.1,1.45-.14,2,0,.64.16,1.33.75,2,1,.2,1.44.68,6.28,1,7-1.14,2.03-.93,1.93-3.16,1.79-4.06-.26-7.51-.8-11.84-.79,9.09-3.67-.11-7.57-2.68-11.81-1.16-1.91-1.6-4.12-2.32-6.19.48.05,1.16-.38,1-1Z"/>
      <path class="cls-36" d="M52,145c-.37.29-.64.71-1,1h-15.31s-4.69-6-4.69-6c.33,0,.67,0,1,0,.67,0,1.33,0,2,0,4.33-.02,7.78.52,11.84.79,2.23.14,2.02.24,3.16-1.79.91,2.1,2.28.3,3,6Z"/>
      <path class="cls-32" d="M58,91c1.02.99,2.03,2.83,3,4-2.31,1.55-1.97,2.15-3,4-8.46,3.51-4.65,14.53-16,12v-12c5.14-.72,10.99-1.86,8-9,1.29.55,2.54-.93,2,3,2.96.24,2.76-1.72,3-4,.88.72,2.23,1.25,3,2Z"/>
      <path class="cls-10" d="M29,45.01c3.08,3.22-4.77.74-4.99.98l-1.01,10c-9.04,2.05-7.97-10.84-.41-11.99,1.24-.19,5.86.42,6.42,1.01Z"/>
      <path class="cls-57" d="M47.7,49.71c-2.86,3.56-8.09,2.17-8.75-2.23-.32-2.15,3.48-2.36,4.75-3.77.78-.87,1.72-4.66,2.8-4.68,2.81-.06,3.32,8.05,1.2,10.69Z"/>
      <path class="cls-29" d="M33,73c1.26.64,5.03,2.96,6,3,2.06,1.39,2.19,2.6,3,4-3.98.21-8.43,9.11-10.65,9.82-1.46.47-9.07.51-10.66.16-.84-.18-.82-2.85-6.69-2.98-.33,0-.68-.03-1,0l2.98-4.5-2.96-3.03c-.63-1.93,1.38-1.36,2.37-2.53,3.59-4.24,5.24-7.33,12.06-6.89,2.71.18,3.81,2.07,5.55,2.95Z"/>
      <path class="cls-24" d="M46,84c-1.27-5.43,6.33-2.19,9.01-3.01-.19,2.62.26,5.41,0,8.01-.23,2.28-.03,4.24-3,4,.54-3.93-.72-2.45-2-3-.6-.26-1.56-.97-2-1v-5.01c-.67-.03-1.33,0-2,0Z"/>
      <path class="cls-43" d="M44,84c.96,2.01,1.24,4.36,2,6,.26.56,1.81.85,1.92,1.06,1.58,2.82-2.39,1.6-2.92,1.94-4.16-2.67-3.8-6.51-2-11,.31.66.68,1.32,1,2Z"/>
      <path class="cls-49" d="M39,70c-.87,6.08,1.38,2.72,5,5-1.89-1-4.74,1.01-5,1-.97-.04-4.74-2.36-6-3,5.54.76,3.97-.25,6-3Z"/>
      <path class="cls-21" d="M46,84c.67,0,1.33-.03,2,0v5.01c-.11,0-1.28,1.13-2,1-.76-1.64-1.04-3.99-2-6,.67,0,1.33,0,2,0Z"/>
      <path class="cls-34" d="M23,115c-.71,3.72,2.48,5.86,3.46,8.05s.57,4.15,2.54,6.95v1c-1.35.3-7.84-6.48-8-7-.63-2.03.44-6.55,0-9.01h2Z"/>
      <path class="cls-15" d="M24,115c.21.35,1.41.63,1.71,1.24,1.22,2.52-1.22,5.25,3.29,5.76.73,2.07,1.16,4.28,2.32,6.19,2.57,4.24,11.76,8.14,2.68,11.81-.67,0-1.33,0-2,0-2.63-3.05,2.99-2.13,1.97-4.46-.12-.28-2.88-4.63-3.31-5.23-.37-.52-1.59-.21-1.66-.31-1.96-2.8-1.52-4.68-2.54-6.95s-4.17-4.33-3.46-8.05h1Z"/>
      <path class="cls-54" d="M32,112c-.29,2,1.3,2.2,2,3,2.81,3.24,5.19,6.78,8,10,.15,1.36-.29,2.82.2,4.31.43,1.31,1.65,1.44,1.8,1.69,2.69,4.35-2.6,5-4.76,2.76-1.34-1.39-1.07-5.41-2.15-7.1-.52-.81-6.35-3.31-7.08-5.66-.24-.76-.24-7.49-.01-8.34.28-1.07,1.94-.56,2.01-.66Z"/>
      <path class="cls-6" d="M26,99c2.09-3.79-2.59-1.27-1.99-4.99h11.99c-3.63,3.42-6.93,5.12-6,11-3.43.88-3.44-2.48-6-4.01.18-.06,1.83-1.69,2-2Z"/>
      <path class="cls-2" d="M17,98c.17-2.34-1.26-4.74,2.48-3.99,3.97.8,3.1,4.88,6.52,4.99-.17.31-1.82,1.94-2,2-.3.1-.71-.11-1,0,.68-3.67-2.93-.73-6-3Z"/>
      <path class="cls-13" d="M37,115c2.27,4.56,4.28.65,5,9,.03.33-.04.67,0,1-2.81-3.22-5.19-6.76-8-10,1,0,2,0,3,0Z"/>
      <path class="cls-33" d="M45,125l1,6c-.55-.14-1.36.1-2,0-.16-.25-1.38-.38-1.8-1.69-.48-1.49-.05-2.95-.2-4.31-.04-.33.03-.67,0-1,.92.59,1.94.8,3,1Z"/>
    </g>
  </g>
</svg>