<?xml version="1.0" encoding="UTF-8"?>
<svg id="_Слой_2" data-name="Слой 2" xmlns="http://www.w3.org/2000/svg" viewBox="0 0 104 154">
  <defs>
    <style>
      .cls-1 {
        fill: #431d11;
      }

      .cls-2 {
        fill: #461f13;
      }

      .cls-3 {
        fill: #3e2c23;
      }

      .cls-4 {
        fill: #fcd2b4;
      }

      .cls-5 {
        fill: #dbb49b;
      }

      .cls-6 {
        fill: #f8cdaf;
      }

      .cls-7 {
        fill: #3e170c;
      }

      .cls-8 {
        fill: #d7997c;
      }

      .cls-9 {
        fill: #fcd3b5;
      }

      .cls-10 {
        fill: #e9b496;
      }

      .cls-11 {
        fill: #f6d7c0;
      }

      .cls-12 {
        fill: #94533a;
      }

      .cls-13 {
        fill: #fde3cd;
      }

      .cls-14 {
        fill: #482217;
      }

      .cls-15 {
        fill: #f9cfb2;
      }

      .cls-16 {
        fill: #5d3527;
      }

      .cls-17 {
        fill: #402720;
      }

      .cls-18 {
        fill: #8a5a4d;
      }

      .cls-19 {
        fill: #4b261b;
      }

      .cls-20 {
        fill: #d59a7d;
      }

      .cls-21 {
        fill: #2e1711;
      }

      .cls-22 {
        fill: #facfb1;
      }

      .cls-23 {
        fill: #4d281d;
      }

      .cls-24 {
        fill: #f6c9ab;
      }

      .cls-25 {
        fill: #361e18;
      }

      .cls-26 {
        fill: #451e12;
      }

      .cls-27 {
        fill: #e5a07c;
      }

      .cls-28 {
        fill: #443027;
      }

      .cls-29 {
        fill: #d89a7c;
      }

      .cls-30 {
        fill: #432b24;
      }

      .cls-31 {
        fill: #573124;
      }

      .cls-32 {
        fill: #fdd4b6;
      }

      .cls-33 {
        fill: #4e322a;
      }

      .cls-34 {
        fill: #5b352a;
      }

      .cls-35 {
        fill: #fde4ce;
      }

      .cls-36 {
        fill: #835246;
      }

      .cls-37 {
        fill: #451e13;
      }

      .cls-38 {
        fill: #d19477;
      }

      .cls-39 {
        fill: #8c4d35;
      }

      .cls-40 {
        fill: #f7ceb0;
      }

      .cls-41 {
        fill: #d6987b;
      }

      .cls-42 {
        fill: #fbe2cc;
      }

      .cls-43 {
        fill: #dda487;
      }

      .cls-44 {
        fill: #f2ceb6;
      }

      .cls-45 {
        fill: #50372f;
      }

      .cls-46 {
        fill: #e09d7a;
      }

      .cls-47 {
        fill: #9e5f45;
      }

      .cls-48 {
        fill: #f8dbc4;
      }

      .cls-49 {
        fill: #e5a37f;
      }

      .cls-50 {
        fill: #9d5e44;
      }

      .cls-51 {
        fill: #e7e3e2;
      }

      .cls-52 {
        fill: #e4a17c;
      }

      .cls-53 {
        fill: #9d5f46;
      }

      .cls-54 {
        fill: #4a2317;
      }

      .cls-55 {
        fill: #fad2b6;
      }

      .cls-56 {
        fill: #502a1e;
      }

      .cls-57 {
        fill: #553024;
      }

      .cls-58 {
        fill: #e7c2ab;
      }

      .cls-59 {
        fill: #f9cdb0;
      }

      .cls-60 {
        fill: #d69a7d;
      }

      .cls-61 {
        fill: #f8dec8;
      }

      .cls-62 {
        fill: #d7987b;
      }

      .cls-63 {
        fill: #d89d80;
      }

      .cls-64 {
        fill: #8d553f;
      }

      .cls-65 {
        fill: #fce1cb;
      }

      .cls-66 {
        fill: #fad0b2;
      }

      .cls-67 {
        fill: #f4caad;
      }

      .cls-68 {
        fill: #d29074;
      }

      .cls-69 {
        fill: #f0cdb5;
      }

      .cls-70 {
        fill: #d28f72;
      }

      .cls-71 {
        fill: #422b23;
      }

      .cls-72 {
        fill: #8a4c34;
      }

      .cls-73 {
        fill: #c9bfbc;
      }

      .cls-74 {
        fill: #8c4e37;
      }

      .cls-75 {
        fill: #79483c;
      }

      .cls-76 {
        fill: #462015;
      }

      .cls-77 {
        fill: #674339;
      }

      .cls-78 {
        fill: #482015;
      }

      .cls-79 {
        fill: #553126;
      }

      .cls-80 {
        fill: #915038;
      }

      .cls-81 {
        fill: #f8cbae;
      }
    </style>
  </defs>
  <g id="_Слой_33_Изображение" data-name="Слой 33 Изображение">
    <g>
      <path class="cls-1" d="M69,5h1c2.26,1,3.1,1.67,5,3h-1C58.28,5.61,41.02-.5,29,14c-1.92,2.31-3.99,4.47-4.78,7.72-.43,1.77-2.45,16.43-2.22,17.28h-1c.14-2.35.59-3.48-2-3,1.58-9.02-.73-16.91,5-24.5,3.97-5.24,5.72-4.91,10.77-7.2,1.38-.62.72-2.13,2.67-2.37,4.44-.54,24.14-.71,28.07.05,1.94.38,2.26,1.87,3.49,3.02Z"/>
      <path class="cls-2" d="M24,90c-.35,3.4-1.45,2.09-3,3-3.13,1.85,3.49,7.83,5.99,6-1.07,4.4-1.57,9.9-.91,14.41.46,3.14,3.3,9.25,4.91,11.59.32.46,1.16,1.79,1,1.99l-5,1.01c.03-.41-.41-1.19-1-1,.2-.6.3-7.73,0-8-.49-.46-11.32-.62-13.36-1.19-1.27-.36-1.37-1.61-1.65-1.81.63-.19,1.47-.95,2-1,3.3-.3,6.95.78,10-1,.67-.5,1.05-6.36,1-8-.11-3.46-.74-2.44-2-4-2.48-3.07-5.17-2.98-4.9-7.33.35-5.84,1.81-4.85,6.9-4.67Z"/>
      <path class="cls-37" d="M78,108c.08-3.99-2.31-19.47,4-12-.08.3.07.68,0,1-.47,2.16-1.29,2.8-1,6,.06.66-.04,1.34,0,2,1.12,2.61,8.91-.61,11,2-3.83,2.52-8,1.57-8,2v14.5c0,.48-3.02,2.47-3.54,3.55-.79,1.64.54,2.46.54,2.95-.53,0-1.94,1.32-2.99,1-.16-.94.2-2.18,0-3-2.14-8.49,1.41-5.52,2.03-7.73.35-1.25-.24-2.98-.03-4.27.49-2.92,3.38-7.08-2-8Z"/>
      <path class="cls-25" d="M64,151c2.27-4.06,8.32-1.05,12.32-2.2,1.76-.51,1.86-1.99,2.68-2.8,1.52-1.49,1.72-2.71,2-3,.43-.45,3.54-.26,3.01-2.49-3-1.46-2.68-1.54-3.01-4.51-.2-1.83,0-4.08,0-6,1.94.02,6.56,10.5,5.99,13.47-.33,1.72-7.11,8.86-8.69,9.33-1.83.54-9.77.55-11.81.19-2.15-.38-1.71-1.23-2.48-1.99Z"/>
      <path class="cls-78" d="M44,111c3.46,2.25,9.69.45,14,1,.33,2.99-.51,6.65.01,9.49.5,2.68,4.4,3.52,1.99,6.51-3.13-2.42-6.08-4.56-6.01-8.99-2.21-.02-.21,3.72-1.16,4.87-.37.44-1.67-.02-1.83.12-.7-1.14-1.57-2.78-2-4-.65-1.83-.93-4.75-1.09-4.95-.36-.46-2.39.21-2.91-.05-1.76-.87-8.16-8.13-2.52-5.96.89.34,1.18,1.74,1.52,1.96Z"/>
      <path class="cls-14" d="M86,37v10.99s-2-6.99-2-6.99c-.17-1.64.34-2.21-2-2,.09-2.05-.79-15.47-1.2-17.29-.94-4.14-5.62-7.62-6.8-11.71-.15-.53.1-1.37,0-2h1c3.64,2.55,7.55,6.02,8.76,10.74,1.6,6.26-.44,10.18,2.24,18.26Z"/>
      <path class="cls-20" d="M100,86h1c-.41,1.14,1.04,2.6-2,2-.47-.09-1.43-1.66-3-.99.99,2.88-.81,6.13-1,7.99l-1.49-7.99c-1.22,2.06-4.76,5.71-5.28,7.73-.62,2.4.67,5.54-1.23,7.27-.03-.33.05-.68,0-1-.3-2.09.81-4.55-1.5-5.98-1.56,1.18-.87,3.59-2.99,2.97l-.51-.99c.07-.32-.08-.7,0-1,.3-1.12.56-3.22,1-4,2.4-4.26,7.6-.46,2-6,7.15,2.91,5.75-2.66,8-5,.1-.1.64.04,1,0,2.42-.3,2.37,3.83,3.99,1.99s-1.88-3.32-1.98-3.71c-.27-1.13.15-2.36-.02-3.29,4.87,1.66,1.63,7.07,4,10Z"/>
      <path class="cls-33" d="M51,124c-2.38,2.18-.11,11.11-.98,14.29-.19.68-3.95,2.79-5.02,3.71-1.41-.61-.73-2.12-1-3,.34-.17,1.58.32,1.88-.07,2.72-3.45-3.41-11.58-2.85-13.34.41-1.29,6.46-2.47,5.97-5.59.43,1.22,1.3,2.86,2,4Z"/>
      <path class="cls-45" d="M24,136v6.01c5.42-1.43,13.79,1.96,18.45,1.05,1.28-.25-.33-3.12,1.55-4.06.27.88-.41,2.39,1,3-.08.07.23,1.24-.69,2.04-3.1,2.71-17.65,2.88-20.91,1.02-.63-.36-.95-1.48-1.41-2.06.95-2.41,1.03-4.44,2-7Z"/>
      <path class="cls-23" d="M27,59c-1.33,3.91-7.6.9-9.85,2.18-.5.29-.61,2.23-1.15,2.82-.63.7-1.37,1.31-2,2-1.76,1.94-3.44,4.19-6,5,0-.33-.02-.67,0-1,.52-7.01.23-3.06,2.99-6.47,5.51-6.8,4.95-5.26,14.01-6.53.7.68.6,1.19,2,2Z"/>
      <path class="cls-16" d="M86,37c1.04,3.12,1.73,9.19,1.07,12.45-.23,1.16-2.31.22-2.96.63-.15.1.61,1.41.29,1.92-.92,1.44-3.96,1.34-3.4,4,2.41.24,5.19-.39,7.51.02,2.16.38,1.95,1.62,2.48,1.98-.6.18-1.54,1-2,1-.33,0-.68.03-1,0-.04-.66.06-1.34,0-2-3.48-.21-7.08.27-10.56,0-3.07-.24-2.57.49-2.45-3,.81-.82-1.76-1.4,3-2,1.1-.14,3.26.43,3.87-.18.25-.26.02-1.59.52-2.4.27-.44,1.42-.49,1.58-1.14.37-1.55.23-5.5.04-7.28l1.99,6.99v-10.99Z"/>
      <path class="cls-56" d="M64,128c3.51,5.57-.81,6.68-1.8,9.73-.56,1.71-.08,3.54-.2,5.27-.1,1.44-.14,2.77-1,4-.26-.26-2.29.17-2.86-1.61-.49-1.52-.42-8.11.06-9.68.35-1.14,1.87-2.08,2.58-3.47.53-1.03-.01-2.71.22-3.24.19-.43,2.28-.91,3-1Z"/>
      <path class="cls-63" d="M8,77c.01.15.89,1.15,1.04,2.41.55,4.48-1.76,6.62,2.96,9.59-1.19,1.33-5.73.75-6,1-.22.21.04,4.75,0,6-.17,4.64.12,9.35,0,14-.11-.21-1.43-.44-1.8-1.66-.86-2.85.24-6.71-.25-9.81-.28-1.73-1.69-2.65-1.95-3.53,4.04.28,2.49.19,2.97-2.48.75-4.12,1.03-8.47,2.03-12.52.22-.91,1.01-1.9,1-3Z"/>
      <path class="cls-34" d="M7,80c-.99,4.05-1.28,8.4-2.03,12.52-.49,2.67,1.06,2.76-2.97,2.48-1.66-5.7-2.8-13.43,3-17,.1.43,1.59,1.43,2,2Z"/>
      <path class="cls-57" d="M9,98c.59,3.58-2.07,10.75,3,11,.06,1.75-.51,3.56,1,5v1c-.53.05-1.37.81-2,1-3.29-2.25-3.3-2.8-5-6,.12-4.65-.17-9.36,0-14,1.96-.36,2.3,1.49,3,2Z"/>
      <path class="cls-36" d="M64,143c1.12,5.83,10.52,1.93,15,3-.82.8-.92,2.29-2.68,2.8-4,1.15-10.05-1.86-12.32,2.2-1.03-1.01-1.98-2.98-3-4,.86-1.23.9-2.56,1-4h2Z"/>
      <path class="cls-30" d="M99,88c-.48,4.19,1.14,10-.94,13.59-.4.7-1.68.97-2.06,1.41-.96-.27-.95-1.15-1-2-.11-1.81-.18-4.24,0-6,.2-1.86,1.99-5.12,1-7.99,1.57-.67,2.52.9,3,.99Z"/>
      <path class="cls-79" d="M101,77l-1,9c-2.37-2.93.87-8.34-4-10-.25-1.4-.91-4.17-1-5-.12-1.08-.99-2.53-1-3-.01-1.09,1.83-4.07,1-6,3.56,5.32,3.51,10.07,6,15Z"/>
      <path class="cls-71" d="M27,128c-.08.98-.7,4.19-1,5-.38,1.01-1.64,2.03-2,3-.97,2.56-1.05,4.59-2,7-4.58-5.8-.52-8.39,2.15-14.39.41-.92,1.81-1.49,1.85-1.61.59-.19,1.03.59,1,1Z"/>
      <path class="cls-31" d="M27,52c.81.16,2.53-.34,2.94.07.45.45-.2,2.4.06,2.93.73,2.94-1.9,1.56-5,2-1.29-1.26-2.8-3.5-4-5,.71.13,1.88-1.01,2-1,.55.03,2.86.77,4,1Z"/>
      <path class="cls-23" d="M95,62c.83,1.93-1.01,4.91-1,6h-1c.1-3.43-2.97-5.82-4-9,.46,0,1.4-.82,2-1,1.95,1.35,2.67,2.01,4,4Z"/>
      <path class="cls-21" d="M19,36c2.59-.48,2.14.65,2,3-3.97,2.25.2,9.8-4,9-.33-1.32-.26-8.06.01-9.53.38-2.03,1.96-2.31,1.99-2.47Z"/>
      <path class="cls-77" d="M59,114c.64,8.11,1,7.64,5,14-.72.09-2.81.57-3,1-.37-.28-.64-.72-1-1,2.41-2.99-1.49-3.83-1.99-6.51-.53-2.84.31-6.5-.01-9.49,1.26.11.93,1.11,1,2Z"/>
      <path class="cls-7" d="M8,71c-.01.99-.05,2.01,0,3s-.09,2.02,0,3c0,1.1-.78,2.09-1,3-.41-.57-1.9-1.57-2-2-.68-3.04-.8-7.76,3-8-.02.33,0,.67,0,1Z"/>
      <path class="cls-76" d="M95,101c.05.85.04,1.73,1,2-1.5,1.74-1.85,2.58-4,4-2.09-2.61-9.88.61-11-2,2.31-.14,4.7.2,7,0,7.13-.61,2.68-2.84,7-4Z"/>
      <path class="cls-17" d="M21,39c-.17,2.82-2.07,6.54-.47,9.02.6.93,3.23.73,2.47,2.98-.12,0-1.29,1.13-2,1-1.19-1.48-3.71-2.86-4-4,4.2.8.03-6.75,4-9Z"/>
      <path class="cls-19" d="M101,86h-1l1-9c1.87,3.71,1.3,5.42,0,9Z"/>
      <path class="cls-73" d="M70,5h-1c.46-.49.61-.17,1,0Z"/>
      <path class="cls-32" d="M74,8c.1.63-.15,1.47,0,2l-7.01,1.51c2.1,4.12,6.42,6.5,7.57,11.42,1.53,6.51-.91,15.67-7.18,18.95-3.61,1.89-4.13-.51-5.38,3.12s1.39,5.86,0,10h6.01c-.07-1.64.11-3.35,0-5l2.99-1v8c-.79,1.02-1.26,2.83-1.99,4-.46.14-1.35,1.85-2.46,1.7-1.82-.24-2.96-3.93-5.54,1.3-6.3-.16-12.97.86-19-1-.97-.3-6.32-2.58-7-3-.34-.21-.62-.73-1-1-.71-3.6-1.54-6.43.02-10l2.98,6h5c-1.43-4.01-.14-4.87,1-8,2.63-7.16-5.83-3.53-8.72-4.63-1.18-.45-2.62-3.2-3.71-4.44-.9-1.03-3.1-1.7-3.34-2.13-.31-.56-1.29-8.89-1.25-10.23.11-3.77,1.99-7.97,3.03-11.56,12.02-14.5,29.28-8.39,45-6Z"/>
      <path class="cls-52" d="M29,14c-1.04,3.59-2.92,7.79-3.03,11.56-.04,1.33.94,9.67,1.25,10.23.24.43,2.44,1.11,3.34,2.13,1.09,1.24,2.53,3.99,3.71,4.44,2.9,1.11,11.35-2.53,8.72,4.63l-6-3v11s-2.99-6-2.99-6c-1.55,3.57-.73,6.39-.02,10-1.31-.93-3.34-2.63-4-4-.26-.53.39-2.48-.06-2.93-.41-.41-2.13.09-2.94-.07,1.69-5.32-1.95-5.84-2.76-7.22-.17-.28-2.16-5.46-2.24-5.78-.22-.84,1.8-15.51,2.22-17.28.79-3.25,2.86-5.41,4.78-7.72Z"/>
      <path class="cls-5" d="M22,39c.08.32,2.08,5.5,2.24,5.78.81,1.38,4.45,1.9,2.76,7.22-1.14-.23-3.45-.97-4-1,.76-2.26-1.87-2.05-2.47-2.98-1.6-2.48.3-6.19.47-9.02h1Z"/>
      <path class="cls-29" d="M33,81c.4,4.78-1.97,7.02,3,9,5.6,2.24,12.11-.3,16,1,.13,1.29-.18,2.75,0,4-1.44-.26-3.8.37-5,0-.21-.06-.54-2.08-3.46-2.08-6.49-.01-9.3,7.91-4.54,12.08-2.79,3.78-2.67-6.49-5.53-2-.87,1.36,2.02,6.37,2.53,8-4.77.45-4.15,9.25-.49,10,6.32,1.3,3.74-1.42,4.49-3,.94-1.96,2.88-2.81,5-3,.52.26,2.55-.41,2.91.05.16.2.44,3.12,1.09,4.95.49,3.12-5.56,4.3-5.97,5.59-.56,1.76,5.57,9.89,2.85,13.34-.31.39-1.55-.1-1.88.07-1.47-4.89-6.94-10.3-12.28-8.86-2.16.59-3.08,4.96-5.72,2.86.3-.81.92-4.02,1-5l5-1.01c.16-.2-.68-1.52-1-1.99.09-7.18-5.62-12.11-3.98-19.31.19-.84,1.69-.82,1.97-1.39,1.62-3.25,1.9-14.89.95-18.76-.5-2.02-.88-3.19-2.94-1.55.11-.49.04-1.41,0-2-.04-.66.06-1.34,0-2h-13.01c.09-.99-.06-2.01,0-3,3.09.75,13.82,1.13,14.5-2.98,1.78,1.42,1.31,3.68,2.46,5.56.47.78,1.78,1.06,2.04,1.42Z"/>
      <path class="cls-15" d="M13,89c.22,2.91.21,3.28,1,6,1.16,3.96,3.36,7.07,8,7,1.26,1.56,1.89.54,2,4-3.06,5.61-2.98-1.52-5.49-.99-2.02,1.29-1.36,3.13-1.51,4.99-.11,1.32.09,2.68,0,4h-4c-1.51-1.44-.94-3.25-1-5-.1-2.73.54-7.1.03-9.33-.26-1.17-2.23-1.09-3.03-1.67-.7-.51-1.04-2.36-3-2,.05-1.24-.21-5.79,0-6,.27-.26,4.81.33,6-1h1Z"/>
      <path class="cls-54" d="M27,84c2.07-1.65,2.45-.48,2.94,1.55.95,3.87.67,15.51-.95,18.76-.28.57-1.78.55-1.97,1.39-1.64,7.2,4.07,12.13,3.98,19.31-1.61-2.33-4.45-8.45-4.91-11.59-.66-4.51-.16-10.01.91-14.41-2.5,1.83-9.12-4.16-5.99-6,4.45,8.29,7.17,6.22,6-3.01-1-.04-2,.04-3,0,.07-.65-.05-1.34,0-2,1.83-.92,2.56-2.12,3-4Z"/>
      <path class="cls-63" d="M17,88c3.02.96,3.43,1.8,7,0-.05.66.07,1.35,0,2-5.09-.18-6.55-1.17-6.9,4.67-.26,4.34,2.42,4.26,4.9,7.33-4.64.07-6.84-3.04-8-7v-8c1.48-.46,2.07.7,3,1Z"/>
      <path class="cls-47" d="M17,110c.15-1.86-.5-3.7,1.51-4.99,2.51-.52,2.42,6.6,5.49.99.05,1.64-.33,7.5-1,8,.8-4.03-4.61.02-6-4Z"/>
      <path class="cls-51" d="M24,90c1,.03,2.01-.05,3,0,1.17,9.23-1.55,11.3-6,3.01,1.55-.91,2.65.4,3-3Z"/>
      <path class="cls-27" d="M17,110c1.39,4.02,6.8-.03,6,4-3.05,1.78-6.7.7-10,1v-1h4c.09-1.32-.11-2.68,0-4Z"/>
      <path class="cls-8" d="M62,114c-.33,1.1-2.33,2.17-2,3.48s3.21,1.14,3.8,1.79c.51.56.03,2.26.33,2.54.36.34,3.71.31,3.88.18.16-.12-.08-2.74,0-4,3.28,1.02,3.5,2.78,7,1,2-1.02,2.64-1.75,3-4l2,1c-.21,1.29.37,3.02.03,4.27-.61,2.21-4.17-.76-2.03,7.73-.82,2.63-3.72,3.08-3.01,6l6.01,2c.33,2.97,0,3.05,3.01,4.51.53,2.23-2.58,2.04-3.01,2.49-2.47.82-2.88,1.29-5,0,3.76.9,1.52-5.01.76-5.76-1.58-1.55-10.13-2.02-11.33-.31l.57,6.07c-.66.05-1.34,0-2,0h-2c.12-1.73-.35-3.56.2-5.27.99-3.04,5.3-4.16,1.8-9.73-4-6.36-4.36-5.89-5-14h3ZM68,125.01c-1.56,2.12,4.35,4.84,5.99,1.47.47-3.39-5.4-2.28-5.99-1.47Z"/>
      <path class="cls-64" d="M75,88c-.25,9.68,2.2,2.96,2.6,2.92,1.53-.17,3.61,1.4,5.4,1.08-.44.78-.7,2.88-1,4-6.31-7.47-3.92,8.01-4,12-.28-.05-.72-.05-1,0,2.17-8.55-5.94-11.93-2-20Z"/>
      <path class="cls-53" d="M87,101l-6,2c-.29-3.2.53-3.84,1-6l.51.99c2.12.62,1.43-1.79,2.99-2.97,2.32,1.43,1.2,3.89,1.5,5.98Z"/>
      <path class="cls-72" d="M78,128c.21.82-.15,2.06,0,3,1.05.32,2.46-1,2.99-1,0,1.92-.2,4.17,0,6l-6.01-2c-.72-2.91,2.18-3.36,3.01-6Z"/>
      <path class="cls-75" d="M80,116l-2-1c.32-1.99-.05-4.82,0-7,5.38.92,2.49,5.08,2,8Z"/>
      <path class="cls-41" d="M87,102c.09,1.07.48,2.08,1,3-2.3.2-4.69-.14-7,0-.04-.66.06-1.34,0-2l6-2c.05.32-.03.67,0,1Z"/>
      <path class="cls-68" d="M76,143c2.12,1.29,2.53.82,5,0-.28.29-.48,1.51-2,3-4.48-1.07-13.88,2.83-15-3,.66,0,1.34.05,2,0,4.14-.31,4.12-.18,6.5-3.98,1.35,1.36,1.74,2.91,3.5,3.98Z"/>
      <path class="cls-70" d="M55,105c.83,2.25,7.58-.71,7,4-3.48,4.32-12.66.98-18,2-.34-.22-.63-1.62-1.52-1.96-5.64-2.17.76,5.09,2.52,5.96-2.12.19-4.06,1.04-5,3-4.24,1.06-2.69-2.81-4-7-.51-1.64-3.4-6.65-2.53-8,2.86-4.49,2.74,5.79,5.53,2,1.01-1.37.59-3.03,1-4l8.6,3.98c2.11-.48,4.56.05,6.4.02Z"/>
      <path class="cls-74" d="M63,109c-1.35,1.23-.64,3.8-1,5h-3c-.07-.89.26-1.89-1-2-4.31-.55-10.54,1.25-14-1,5.34-1.02,14.52,2.32,18-2h1Z"/>
      <path class="cls-27" d="M74,10c1.18,4.09,5.85,7.57,6.8,11.71.42,1.83,1.29,15.24,1.2,17.29-.16,3.77-5.75,8.17-4,13-4.76.6-2.19,1.18-3,2-.11.11-1.13-.26-1.69.34-.36.38-2.18,2.5-2.31,2.66v-8s-3,1-3,1c-.37-5.04-.27-5.35-6-5,1.25-3.62,1.77-1.23,5.38-3.12,6.28-3.28,8.71-12.44,7.18-18.95-1.15-4.92-5.48-7.3-7.57-11.42l7.01-1.51Z"/>
      <path class="cls-67" d="M82,39c2.34-.21,1.83.36,2,2,.19,1.78.33,5.73-.04,7.28-.15.65-1.31.7-1.58,1.14-.5.81-.26,2.14-.52,2.4-.61.61-2.77.04-3.87.18-1.75-4.83,3.84-9.23,4-13Z"/>
      <path class="cls-42" d="M93,81c-2.25,2.34-.85,7.91-8,5-1.55-1.54-1.34-2.57-4-3,.04-2-.06-4,0-6,.03-1-.05-2.01,0-3,2.36.31,8.33-.9,9.56.95.99,1.49-.45,5.1,2.45,6.05Z"/>
      <path class="cls-40" d="M87,102c1.9-1.72.62-4.86,1.23-7.27.52-2.02,4.06-5.67,5.28-7.73l1.49,7.99c-.18,1.76-.11,4.19,0,6-4.32,1.16.13,3.39-7,4-.52-.92-.91-1.93-1-3Z"/>
      <path class="cls-26" d="M81,83c2.66.43,2.45,1.46,4,3,5.6,5.54.4,1.74-2,6-1.79.32-3.87-1.25-5.4-1.08-.4.04-2.84,6.77-2.6-2.92.92-1.89,2.56-2.31,3-5,.97.1,2.08-.15,3,0Z"/>
      <path class="cls-43" d="M94,68c0,.47.88,1.92,1,3-4.22-.26-2.41,7.18-1,10-.36.04-.9-.1-1,0-2.9-.95-1.45-4.56-2.45-6.05-1.23-1.85-7.2-.64-9.56-.95-.04,1,.04,2,0,3h-1c.61-3.16-2.76-1.85-5-2,1.31-1.43,3.55-1.18,5.31-2,.52-.24.43-1.55,1.44-1.93,2.5-.93,7.21-.42,9.58-1.05,1.2-.32.52-1.88.66-2.01s.67.08,1,0h1Z"/>
      <path class="cls-58" d="M95,71c.09.83.75,3.6,1,5,.17.93-.25,2.15.02,3.29.09.38,3.63,1.83,1.98,3.71s-1.58-2.29-3.99-1.99c-1.41-2.82-3.22-10.26,1-10Z"/>
      <path class="cls-9" d="M44,139c-1.88.94-.26,3.81-1.55,4.06-4.66.91-13.04-2.48-18.46-1.05v-6.01c.37-.97,1.63-1.99,2.01-3,2.64,2.1,3.56-2.27,5.72-2.86,5.34-1.45,10.8,3.96,12.28,8.86Z"/>
      <path class="cls-13" d="M16,64c4.42.63,11.28-.98,15.29.21,2.32.69,7.31,7.64,8.94,8.55,1.26.7,4.86.2,7.35,1.17,2.65,1.03,3.51,3.83,6.42,4.08-.04,1.9.26,4.26,0,6-1.27,8.41-5.77,6-13,6-.58-3.3-5.63-2.58-6.56-3.94-.77-1.13.07-2.97-1.44-5.06-.26-.36-1.57-.64-2.04-1.42-1.15-1.89-.68-4.15-2.46-5.56-.68,4.11-11.41,3.73-14.5,2.98.17-3.07-1.55-7.14,0-11,.63-.69,1.37-1.3,2-2Z"/>
      <path class="cls-62" d="M88,59c.06.99-.08,2.01,0,3-1.05-2.85-10.5-1.52-11-1-.66.68.87,3.81.75,4.54-.42,2.49-6.03.92-8.09,1.61-1.37.46-4.17,5.7-8.36,6.63-6.15,1.37-7.15-2.71-7.29,4.21-2.91-.25-3.77-3.05-6.42-4.08-2.49-.97-6.09-.47-7.35-1.17-1.63-.91-6.61-7.86-8.94-8.55-4.01-1.19-10.87.42-15.29-.21.53-.59.65-2.53,1.15-2.82,2.25-1.28,8.53,1.73,9.85-2.18,2.03,1.17,1.81.22,5,3,3.52,3.07,6.48,1.45,8,3,.16.17-.55,1.76.62,2.05,5.66,1.4,17-1.13,23.38-.05.34-3.78.07-2.92-3.01-3,2.58-5.23,3.72-1.54,5.54-1.3,1.11.15,2-1.56,2.46-1.7,6.18-1.85,8.38-3.04,15.56-3,1.54,0,2.66.92,3.44,1Z"/>
      <path class="cls-60" d="M14,77c-1.66-.4-3.24-3.89-6-3-.05-.99-.01-2.01,0-3,2.56-.81,4.24-3.06,6-5-1.55,3.86.17,7.93,0,11Z"/>
      <path class="cls-50" d="M34,59c.38.27.66.79,1,1-1.66-.35-2.23.75-3,2-3.19-2.78-2.97-1.83-5-3-1.4-.81-1.3-1.32-2-2,3.1-.44,5.73.94,5-2,.66,1.37,2.69,3.07,4,4Z"/>
      <path class="cls-39" d="M75,54c-.12,3.5-.62,2.76,2.45,3,3.48.27,7.07-.21,10.56,0,.05.66-.04,1.34,0,2-.78-.08-1.91-1-3.44-1-7.17-.04-9.37,1.15-15.56,3,.74-1.17,1.2-2.98,2-4,.13-.17,1.95-2.28,2.31-2.66.56-.6,1.58-.23,1.69-.34Z"/>
      <path class="cls-38" d="M93,68c-.33.08-.86-.13-1,0-.5-1.55-3.54-.64-3.95-1.04-.34-.33.05-3.78-.05-4.96-.08-.99.06-2.01,0-3,.32.03.67,0,1,0,1.03,3.18,4.1,5.57,4,9Z"/>
      <path class="cls-11" d="M14,77c-.06.99.09,2.01,0,3-.33,3.7-1.38,3.92-1,9h-1c-4.72-2.97-2.4-5.11-2.96-9.59-.16-1.26-1.03-2.26-1.04-2.41-.09-.98.05-2.01,0-3,2.76-.89,4.34,2.6,6,3Z"/>
      <path class="cls-49" d="M9,98c.8.58,2.77.5,3.03,1.67.51,2.23-.13,6.6-.03,9.33-5.07-.25-2.41-7.42-3-11Z"/>
      <path class="cls-80" d="M61,64c3.07.08,3.34-.78,3.01,3-6.38-1.08-17.72,1.45-23.38.05-1.17-.29-.46-1.88-.62-2.05l2-2c6.03,1.86,12.7.84,19,1Z"/>
      <path class="cls-3" d="M68,50c.12,1.65-.07,3.35,0,5.01h-6.01c1.39-4.15-1.23-6.43,0-10.01,5.73-.35,5.63-.04,6,5Z"/>
      <path class="cls-28" d="M43,47c-1.15,3.13-2.43,3.99-1,7.99h-5s0-11,0-11l6,3Z"/>
      <path class="cls-12" d="M35,60c.68.42,6.03,2.7,7,3l-2,2c-1.52-1.55-4.48.07-8-3,.77-1.25,1.34-2.35,3-2Z"/>
      <path class="cls-29" d="M75,75c2.24.15,5.61-1.16,5,2-3.47-.82-1.55,3.26-2,6s-2.08,3.11-3,5c-3.94,8.07,4.17,11.45,2,20-5.05.86-2.46,6.09-3,10-.79-.09-2.77.24-2.98,0-.56-.64,1.09-9.97-1.52-9.97-2.23,0-1.39,8.18-1.5,9.98-.08,1.25.16,3.87,0,4-.17.13-3.52.16-3.88-.18-.3-.28.18-1.98-.33-2.54-.59-.65-3.47-.48-3.8-1.79s1.67-2.38,2-3.48c.36-1.2-.35-3.77,1-5,.19-.17,3.32.77,2.05-3.41-.15-.49-2.16-1.04-3.05-1.59-2.2-1.35-2.73-3.04-7-1.99.15.92-.24,2.32,0,2.99-1.83.03-4.29-.5-6.4-.02l-8.6-3.98c.39-.93.68-1.34,1-2,2.6-.88,2.24,3.49,4.49,2.99s.7-2.63.51-3.99c2.5,1.12,4.49.83,7.01-.01.31-1.14-.9-2.25-1.01-2.99-.18-1.25.13-2.71,0-4,1.62.54,0,4.06,2.99,3.01-.74-1.44,1-3.68,1.01-4.01,7.92-.55,10.6,2.77,14.73-4.78.6-1.1,2.85-5.17,2.99-5.47.72-1.62-.32-3,1.28-4.75ZM60.99,95.01c-.51-.52-6.65-.27-5.99,2.48.92,3.85,8.59.14,5.99-2.48ZM68,96h-3.99c-.89,8.07,4.91,7.94,3.99,0Z"/>
      <path class="cls-61" d="M27,82c.04.59.11,1.51,0,2-.44,1.88-1.17,3.08-3,4-3.57,1.8-3.98.96-7,0-2.17-6.61,4.85-8.75,10-6Z"/>
      <path class="cls-22" d="M47,95c-.25.38-.8.67-1,1l-.51-.99c-3.76-.78-1.8,1.25-2.79,2.67-.48.69-1.59,1.08-1.71,1.32-.32.66-.61,1.07-1,2s.01,2.63-1,4c-4.76-4.18-1.94-12.1,4.54-12.08,2.91,0,3.25,2.02,3.46,2.08Z"/>
      <path class="cls-6" d="M14,80h13.01c.05.66-.05,1.34,0,2-5.15-2.75-12.17-.61-10,6-.93-.3-1.52-1.46-2.99-1v8c-.8-2.72-.79-3.09-1.01-6-.38-5.08.67-5.3,1-9Z"/>
      <path class="cls-81" d="M36,111c1.31,4.19-.24,8.06,4,7-.76,1.58,1.83,4.29-4.49,3-3.66-.75-4.28-9.55.49-10Z"/>
      <path class="cls-10" d="M56,90c0,.32-1.74,2.57-1.01,4.01-3,1.05-1.38-2.46-2.99-3.01-3.89-1.3-10.4,1.24-16-1,1.67,0,3.33,0,5,0,7.23,0,11.73,2.41,13-6,.62,1.26,2.01,4.95,2,6Z"/>
      <path class="cls-55" d="M41,90c-1.67,0-3.33,0-5,0-4.97-1.98-2.6-4.22-3-9,1.51,2.08.67,3.93,1.44,5.06.93,1.36,5.98.64,6.56,3.94Z"/>
      <path class="cls-35" d="M52,95c.11.74,1.31,1.85,1.01,2.99-2.51.84-4.51,1.13-7.01.01-.17-1.21-.96-.39,0-2,.2-.33.75-.62,1-1,1.2.37,3.56-.26,5,0Z"/>
      <path class="cls-59" d="M66,143l-.57-6.07c1.2-1.71,9.76-1.25,11.33.31.76.75,3,6.67-.76,5.76-1.76-1.07-2.15-2.62-3.5-3.98-2.38,3.8-2.36,3.67-6.5,3.98Z"/>
      <path class="cls-69" d="M77,108c.28-.05.72-.05,1,0-.05,2.18.32,5.01,0,7-.36,2.25-1,2.98-3,4-.1-.47-.54-.95-1-1,.54-3.91-2.05-9.14,3-10Z"/>
      <path class="cls-44" d="M68,118c.11-1.8-.73-9.98,1.5-9.98,2.61,0,.96,9.33,1.52,9.97.21.24,2.19-.09,2.98,0,.46.05.9.53,1,1-3.5,1.78-3.72.02-7-1Z"/>
      <path class="cls-48" d="M68,125.01c.59-.81,6.46-1.92,5.99,1.47-1.64,3.36-7.55.65-5.99-1.47Z"/>
      <path class="cls-46" d="M62,104c.89.55,2.9,1.1,3.05,1.59,1.27,4.19-1.86,3.24-2.05,3.41h-1c.58-4.71-6.17-1.75-7-4,2.39-.04,4.82.39,7-1Z"/>
      <path class="cls-18" d="M80,77h1c-.06,2,.04,4,0,6-.92-.15-2.03.1-3,0,.45-2.74-1.47-6.82,2-6Z"/>
      <path class="cls-13" d="M88,62c.09,1.18-.3,4.63.05,4.96.41.4,3.45-.51,3.95,1.04-.14.14.54,1.69-.66,2.01-2.37.64-7.08.12-9.58,1.05-1.01.38-.93,1.69-1.44,1.93-1.77.83-4,.57-5.31,2-1.6,1.75-.56,3.13-1.28,4.75-.14.3-2.39,4.37-2.99,5.47-4.12,7.54-6.81,4.23-14.73,4.78.01-1.05-1.38-4.74-2-6,.26-1.74-.04-4.1,0-6,.14-6.92,1.14-2.84,7.29-4.21,4.19-.93,6.99-6.17,8.36-6.63,2.05-.69,7.66.88,8.09-1.61.12-.73-1.4-3.86-.75-4.54.5-.52,9.95-1.85,11,1Z"/>
      <path class="cls-4" d="M68,96c.92,7.94-4.88,8.07-3.99,0h3.99Z"/>
      <path class="cls-24" d="M46,96c-.96,1.61-.17.79,0,2,.19,1.37,1.68,3.51-.51,3.99s-1.89-3.87-4.49-2.99c.12-.24,1.23-.63,1.71-1.32.99-1.42-.98-3.45,2.79-2.67l.51.99Z"/>
      <path class="cls-65" d="M60.99,95.01c2.6,2.62-5.07,6.33-5.99,2.48-.66-2.75,5.48-3,5.99-2.48Z"/>
      <path class="cls-66" d="M62,104c-2.18,1.39-4.61.96-7,1-.25-.67.15-2.08,0-2.99,4.28-1.04,4.81.65,7,1.99Z"/>
    </g>
  </g>
</svg>