<?xml version="1.0" encoding="UTF-8"?>
<svg id="_Слой_2" data-name="Слой 2" xmlns="http://www.w3.org/2000/svg" viewBox="0 0 102 150">
  <defs>
    <style>
      .cls-1 {
        fill: #eae5e4;
      }

      .cls-2 {
        fill: #f7caac;
      }

      .cls-3 {
        fill: #421b10;
      }

      .cls-4 {
        fill: #4b2419;
      }

      .cls-5 {
        fill: #451f14;
      }

      .cls-6 {
        fill: #472014;
      }

      .cls-7 {
        fill: #fcd2b4;
      }

      .cls-8 {
        fill: #f8cdaf;
      }

      .cls-9 {
        fill: #dea486;
      }

      .cls-10 {
        fill: #f9ceb0;
      }

      .cls-11 {
        fill: #473127;
      }

      .cls-12 {
        fill: #d99c7f;
      }

      .cls-13 {
        fill: #3c231b;
      }

      .cls-14 {
        fill: #372820;
      }

      .cls-15 {
        fill: #4d261a;
      }

      .cls-16 {
        fill: #6e463b;
      }

      .cls-17 {
        fill: #f9cfb2;
      }

      .cls-18 {
        fill: #fbe0ca;
      }

      .cls-19 {
        fill: #341e18;
      }

      .cls-20 {
        fill: #825348;
      }

      .cls-21 {
        fill: #d59a7d;
      }

      .cls-22 {
        fill: #facfb1;
      }

      .cls-23 {
        fill: #431c10;
      }

      .cls-24 {
        fill: #cfa991;
      }

      .cls-25 {
        fill: #dca387;
      }

      .cls-26 {
        fill: #5b3224;
      }

      .cls-27 {
        fill: #fce3cd;
      }

      .cls-28 {
        fill: #d59376;
      }

      .cls-29 {
        fill: #4f2619;
      }

      .cls-30 {
        fill: #8a4a32;
      }

      .cls-31 {
        fill: #f7d0b6;
      }

      .cls-32 {
        fill: #583429;
      }

      .cls-33 {
        fill: #e5a07c;
      }

      .cls-34 {
        fill: #e49f7b;
      }

      .cls-35 {
        fill: #40190d;
      }

      .cls-36 {
        fill: #f0ebe9;
      }

      .cls-37 {
        fill: #d89a7c;
      }

      .cls-38 {
        fill: #88584b;
      }

      .cls-39 {
        fill: #5f3629;
      }

      .cls-40 {
        fill: #382b25;
      }

      .cls-41 {
        fill: #90513a;
      }

      .cls-42 {
        fill: #d99d7f;
      }

      .cls-43 {
        fill: #fdd4b6;
      }

      .cls-44 {
        fill: #fcd2b5;
      }

      .cls-45 {
        fill: #975840;
      }

      .cls-46 {
        fill: #fbd1b4;
      }

      .cls-47 {
        fill: #fde4ce;
      }

      .cls-48 {
        fill: #3c2721;
      }

      .cls-49 {
        fill: #441d11;
      }

      .cls-50 {
        fill: #441e13;
      }

      .cls-51 {
        fill: #482116;
      }

      .cls-52 {
        fill: #faddc6;
      }

      .cls-53 {
        fill: #d39073;
      }

      .cls-54 {
        fill: #fbe2cc;
      }

      .cls-55 {
        fill: #f6cdaf;
      }

      .cls-56 {
        fill: #3d2b22;
      }

      .cls-57 {
        fill: #c98f74;
      }

      .cls-58 {
        fill: #9c5b41;
      }

      .cls-59 {
        fill: #9d5e44;
      }

      .cls-60 {
        fill: #fad1b3;
      }

      .cls-61 {
        fill: #8b594c;
      }

      .cls-62 {
        fill: #422a22;
      }

      .cls-63 {
        fill: #f0c6aa;
      }

      .cls-64 {
        fill: #8b4b34;
      }

      .cls-65 {
        fill: #8c533f;
      }

      .cls-66 {
        fill: #c7bcb9;
      }

      .cls-67 {
        fill: #825146;
      }

      .cls-68 {
        fill: #381f18;
      }

      .cls-69 {
        fill: #d69f83;
      }

      .cls-70 {
        fill: #f6cbad;
      }

      .cls-71 {
        fill: #f3ceb5;
      }

      .cls-72 {
        fill: #fce2cc;
      }

      .cls-73 {
        fill: #482014;
      }

      .cls-74 {
        fill: #4a251b;
      }

      .cls-75 {
        fill: #bd8b71;
      }

      .cls-76 {
        fill: #dfa587;
      }
    </style>
  </defs>
  <g id="_Слой_35_Изображение" data-name="Слой 35 Изображение">
    <g>
      <path class="cls-6" d="M6,76c-.46.54-1.91,1.49-2,2-.3,1.63.05,4.15,0,6-.02.66-.03,1.34,0,2,.23,4.61-1.32,6,3,9,.34,3.12-.49,7.04,0,10,.55,3.31,4.35,4.03,2,7-1.28-1-3.88-2.63-4.49-4.02-1.27-2.89-.07-8.79-.76-10.39-.49-1.13-3.6-2.46-3.76-5.59v-12c.18-1.85,3.88-4.7,4-5,.32,1.03,1.29.75,2,1Z"/>
      <path class="cls-37" d="M28,57c.18.08.46.77,1,1,.2,5.99,4.77,5.19,8.27,6.02,1.1.26,1.22,1.65,1.73,1.98,2.38,1.56,16.77,1.39,20.55,1.05,1.21-.11,4.62-.77,2.45-2.05v-1c.33-.01.67.02,1,0,1.77-.09,4.66.47,6.06-.45s.68-3.16.94-3.55c.19-.3.71-.6,1-1,.08-.11,1.87-1.94,2-2,1.75-.82,4.09-.83,6-1-.93,1.02-5.98,6.06-5.98,6.5,0,.81,4.35,2.66,2,4.02-2.9,1.68-10.84,2.5-13.98,4.02-1.38.66-1.98,2.66-3.76,3.27-1.26.43-4.06,0-4.28.2-1.17,1.11-.23,8.29,4,7.01-8.07,8.6-2.8,9.84,6.6,9.06,2.01-.17,2.45-.14,3.4-2.07-.26.55.36,2.65-.02,2.97-.8.7-10.02-.58-12.29,0-1.08.28-1.05,4.34-7.16,3.09-1.18-.24.11-2.9-1.09-3.13-5.28-1.04-14.52,3.08-16.22-3.66-1.47-5.84.36-8.55-6.73-12.27-.87,1.47-.6,4.25-.49,5.99-1.9-1.42-.76-4.81-1-7v-1c2.14.74,6.89,3.74,8.04,5.45,3.04,4.53-.36,10.88,5.41,11.59,8.78,1.09,18.76-.23,8.55-9.04,4.24,1.29,5.15-5.92,4-7.01-.24-.23-3.07.28-4.36-.16-1.38-.47-1.3-2.39-2.89-3.16-3.59-1.73-10.73-3.49-14.75-3.68-.7-2.33,1.93-3.77,2.04-5.47.02-.25-3.44-3.28-3.68-3.35-1.06-.35-7.5-.48-8.36-.17v-2c1.59-.14,3.38-.01,5,0,3.56.03,3.12-.71,7,1Z"/>
      <path class="cls-53" d="M58,111c1.62,2.04.04,5.1,2,7,.56.55,2.14.79,3,1,4.17,1.01,4.57,1.52,6-2,.25-.62.99-1.89,1-2,2.67-.88,1.61,2.34,3,3,.4.19,1.4-.13,2,0h1c.02,2-.07,4.01,0,6-3.42-.51-4.13,4.92-2.03,6.57.91.71,2.23.22,3.03.43,3.65.97.99.62,2.24,3.21s2.63,2.24,2.76,5.79c-4.3-3.76-4.54-6.91-11.42-5.96-1.11.15-6.71,2.31-7.12,2.91-1.77,2.63,2.01,8.22-3.46,7.04-.43-.53-.59-1.46-1-2-.89-2.96,1.02-6.64,1-9,1.69-.22,2.76,2.47,3.01-.49.5-5.85-1.89-4.26-2.78-5.72-1-1.64,1.1-5.95-3.24-5.78.24-3.16,1.07-8.73-2-10,.91-.12,2.37.23,3,0Z"/>
      <path class="cls-23" d="M35,3c1.44,1.2,3.66.6,3,3-.32.07-5.62,2.38-5.94,2.56-.51.29-5.89,4.81-6.11,5.14-.32.48-3.85,7.38-3.93,7.81-.85,4.43,1.07,11.83-.2,15.81-.42,1.33-2.21,1.78-2.82,2.67-1.9,2.77-.76,5.71-1,9-.16-.17-1.75.61-2.04-.63-.33-1.35-.23-8.25,0-9.92.36-2.62,2.05-3.98,2.45-6.33,1.45-8.37-1.25-12.9,4.6-20.63,3-3.97,7.36-6.8,12-8.5Z"/>
      <path class="cls-46" d="M82,140c.02.67-.02,1.33,0,2-3.54,6.55-9.74-.2-14,4h-6c-.48-.57-1.25-1.07-2-2,5.46,1.18,1.69-4.42,3.46-7.04.41-.61,6.01-2.76,7.12-2.91,6.88-.95,7.12,2.2,11.42,5.96Z"/>
      <path class="cls-3" d="M86,87c0,1-.01,2,0,3,.11,7.98-2.84,4.54-6,9-1.21,1.7-1.64,10.1-1,12,1.27,3.75,11.56-1.42,11,4-2.37.56-6.32-.37-9,0-1.16.16-1.22.09-2,1-2.84,3.31.82,10.5-2,14-1.62-1.61-.93-3.95-1-6s.02-4,0-6c-.06-4.96-.18-10.04,0-15,.07-1.87-.43-4.95-.05-6.36.22-.8,2.11-.83,3.05-1.64.73-.63,3.34-2.81,3.49-3.04.78-1.21.28-2.21.51-2.96.27-.89-.41-1.53,1-2,.48-.16,1.36.1,2,0Z"/>
      <path class="cls-15" d="M98,76c.42.61,2.45.99,2.85,2.68.34,1.47-.89,3.83-.89,5.78,0,2.41.91,9.1.73,10.11-.22,1.23-2.94,1.41-3.53,3.09-1.21,3.37,1.47,7.39.75,9.69-.17.52-7.36,7.53-7.9,7.65.56-5.42-9.73-.25-11-4h1c1.99-.36,10.26.55,10.96-.07.41-.36-.2-2.3.04-2.93.64-1.66,2.9-3.5,2.95-3.73.65-2.71.28-7.22,1.05-10.27,3.27-3.2,1.78-3.52,2-8,.14-2.94-.27-6.13,0-9,.04-.45.53-.9,1-1Z"/>
      <path class="cls-5" d="M83,49c-.2-3.17,1.14-10.32-3-10,1.7-12.23-2.57-22.16-9-32,.45-.05.89-.53,1-1,3.32,2.28,9.81,10.03,10.76,13.74,1.23,4.86-1.1,10.37-.58,13.56.27,1.7,2.17,2.91,2.59,4.44.54,1.97.6,7.69.05,9.62-.36,1.28-1.61,1.36-1.82,1.64Z"/>
      <path class="cls-51" d="M25,106c.37,6.05-.51,7.91,3.15,13.39,1.09,1.63,3.72,1.24,2.88,4.02-.15.51-5.09,3.87-5.47,4.61-.84,1.65-.27,3.62-1.07,4.97-.6,1-2.8,1.12-3.34,2.66-.91,2.62.31,7.38-.15,10.35-.25-.42-1.6-.35-1.99-2.48-.34-1.86-.36-8.19,0-10.01.08-.42,2.76-6.63,3.25-7.76,1.74-4.04,5.76-4.46-.26-8.76,3.19-.02,2.77,1.13,2.54-2.03-.29-3.89-1.78-9.39.46-12.97.07,1.33-.08,2.68,0,4Z"/>
      <path class="cls-49" d="M17,88c.07.69,1.47,4.18,2,5,1.81,2.79,2.71,1.34,4,2,3.18,1.63,1.84,3.89,2,7-2.24,3.58-.74,9.08-.46,12.97.23,3.16.65,2.01-2.54,2.03-.29-.21-.35-1.46-1.63-1.82-4.25-1.19-5.16.97-10.37-2.18,2.22-2.65,10.86.65,12-2,.16-.38-.06-1.36,0-2,.15-1.5.07-3.45,0-5-.21-4.38,1.3-4.1-3-6,.34-2.76-3.02-2.31-4-5,3.08-1.75-2.35-5.83,2-5Z"/>
      <path class="cls-13" d="M72,6c-.11.47-.55.95-1,1-5.47.59-7.27-1.55-11.47-2.03s-10.49-.04-15.05.01c-1.69.02-4.45-.64-5.49,1.02-.32.05-.68-.07-1,0,.66-2.4-1.56-1.8-3-3C43.48-.11,64.61.92,72,6Z"/>
      <path class="cls-73" d="M55,111c3.07,1.27,2.24,6.84,2,10s.97,3.34-3,3c-1.55-3.18-.59-4.82-1.5-8.01-.79,2.73-1.23,5.41-2.5,8.01-.56-.09-1.87.17-2,0-.57-.76.4-9.9,0-12.01,1.75-1.53,4.96-.74,7-1Z"/>
      <path class="cls-50" d="M16,56v2c-.38.14-4.95,5.58-5.24,6.26-.97,2.25-.56,3.64-.76,5.74-3.84.8-3.17,2.5-3,6-.33-.08-.72.1-1,0-.71-.25-1.68.03-2-1,.58-1.5-.53-5.36-.02-7.31.26-1.02,2.02-.94,2.48-1.69.91-1.49.22-3.45,1.07-4.98.15-.28,4.25-4.34,4.52-4.51,1.42-.88,2.59-.39,3.95-.52Z"/>
      <path class="cls-14" d="M45,146h1c-.63,1.56.22,2.52-2.48,3.01-2.06.37-20.44.33-21.37-.19-.43-.25-.71-2.09-1.15-2.82h24Z"/>
      <path class="cls-20" d="M48,112c.41,2.11-.57,11.25,0,12.01.12.16,1.44-.1,2,0-.54,1.1-3.64,6.48-4,7-.21.3-2.06-1.05-2,4-7.98-6.92,1.28-10.19,2.43-14.03.95-3.17-.25-7.38,1.57-8.97Z"/>
      <path class="cls-74" d="M98,76c-.47.1-.96.55-1,1-1.91.62-2.41-1.57-3-3-.47-1.13.42-3.5-2-4,0-.33.04-.68,0-1-.35-2.97-2.77-5.16-3-8-.03-.41,1.17-2.08,1-3,2.69,2.31,5.28,6.75,6.43,10.07.93,2.68.08,5.74,1.57,7.93Z"/>
      <path class="cls-17" d="M19,40l6.52,7.02-.52,4.98c-3.96-.37-2.5-2.27-6-2-.24-.3-.67-.63-1-1,.24-3.29-.9-6.23,1-9Z"/>
      <path class="cls-24" d="M80,39c4.14-.32,2.8,6.83,3,10-.24.35-.72.62-1,1-.37.3-.66.67-1,1-.24.23-.93.98-1,1-1.13.26-2.79-.22-4,0-1.32-5.45,3.31-7.99,4-13Z"/>
      <path class="cls-62" d="M68,146c4.89,0,10.51-.74,15,1-.52.37-.29,1.6-2.49,1.98-4.74.82-11.08-.61-16.05.09-2.11.32-1.64-2.1-2.47-3.08h6Z"/>
      <path class="cls-61" d="M57,121c4.33-.16,2.24,4.14,3.24,5.78.89,1.46,3.27-.13,2.78,5.72-.25,2.96-1.33.27-3.01.49-.01-1.17-.81-1.52-1-2-1.48-3.75-3.67-4.26-5-7,3.97.34,2.77.01,3-3Z"/>
      <path class="cls-39" d="M80,130c.91,1.85,2.11,4.33,3,6,.03,2-.05,4,0,6h-1c-.02-.67.02-1.33,0-2-.13-3.55-1.56-3.3-2.76-5.79s1.41-2.24-2.24-3.21v-1c2.82-3.5-.84-10.69,2-14,.42,4.66-1.09,9.76,1,14Z"/>
      <path class="cls-19" d="M46,131c1.73,3.77,1.61,11.02,0,15h-1c.28-3.82-.96-7.14-1-11-.06-5.05,1.79-3.7,2-4Z"/>
      <path class="cls-26" d="M19,50c3.5-.27,2.04,1.63,6,2,.99.09,2.01-.08,3,0v5.01c-3.88-1.71-3.45-.97-7-1,1.42-.67-1.27-5.09-2-6Z"/>
      <path class="cls-35" d="M60,133c.02,2.36-1.89,6.04-1,9-.07-.1-1.43.31-2.07-.62-1.79-2.6-1.69-9.31,2.07-10.38.19.48.99.83,1,2Z"/>
      <path class="cls-29" d="M76,52c1.21-.22,2.87.26,4,0-.21.87-.06,2.91,0,4-.33.01-.67-.03-1,0-1.91.17-4.25.18-6,1-.18-3.28-.33-4.4,3-5Z"/>
      <path class="cls-4" d="M90,58c.17.92-1.03,2.59-1,3-2.2.39-2.72-2.76-3.71-3.02-3.3-.86-5.07,1.97-5.29-1.98,4.58-.15,6.51-1,10,2Z"/>
      <path class="cls-40" d="M84,146c-1.5-.69-.97-2.68-1-4-.05-2,.03-4,0-6,.32.59,2.47.75,2.99,3.53.8,4.35-.38,4.17-1.99,6.47Z"/>
      <path class="cls-75" d="M84,146c-.22.31-.69.78-1,1-4.49-1.74-10.11-1-15-1,4.26-4.2,10.46,2.55,14-4h1c.03,1.32-.5,3.31,1,4Z"/>
      <path class="cls-16" d="M10,106c.76,8.29,5.19,4.16,12,5-1.14,2.65-9.78-.65-12,2-.36-.21-.64-.72-1-1,2.35-2.97-1.45-3.69-2-7l3,1Z"/>
      <path class="cls-66" d="M81,115c-2.02,4.56-.61,10.08-1,15-2.09-4.24-.58-9.34-1-14,.78-.91.84-.84,2-1Z"/>
      <path class="cls-68" d="M80,52c.07-.02.76-.77,1-1-.28.47-.98.93-1,1Z"/>
      <path class="cls-48" d="M81,51c.34-.33.63-.7,1-1-.28.38-.81.67-1,1Z"/>
      <path class="cls-46" d="M4,86c3.27-.64,2.49,3.77,3.61,4.07,1.56.41,6.74-.6,7.38-.05.33.29-.24,2.3,0,2.98-.84.48-2.89.17-3,1.99,2.27,1.55,5.04,2.15,7,3.01,4.3,1.9,2.79,1.62,3,6-5.1,3.34-.82-3.53-6-2.01-.7,5.91-.08,7.11,6,7.01-.06.64.16,1.62,0,2-6.81-.84-11.24,3.29-12-5-.26-2.81.61-6.97-.15-9.38-.59-1.87-2.32-1.25-2.85-1.62-4.32-3-2.77-4.39-3-9Z"/>
      <path class="cls-42" d="M22,73v1c-2.39.33-8.21-.94-9.54.96-.31.44-2.49,9.94-2.36,10.47.55,2.25,5.15,1.55,6.91,1.58-.06.26-.03.72,0,1-4.35-.83,1.08,3.25-2,5-.25-.68.33-2.69,0-2.98-.64-.56-5.83.46-7.38.05-1.12-.3-.34-4.71-3.61-4.07-.03-.66-.02-1.34,0-2,4.18.05,4.66-7.62,0-6,.09-.51,1.54-1.46,2-2,.28.1.67-.08,1,0,.55.14,1.37,1.67,3,1,.11-1.98-.13-4.02,0-6,4.24,1,8.03.62,12,2Z"/>
      <path class="cls-21" d="M10,106l-3-1c-.49-2.96.34-6.88,0-10,.54.37,2.27-.24,2.85,1.62.76,2.41-.11,6.57.15,9.38Z"/>
      <path class="cls-70" d="M4,78c4.66-1.62,4.18,6.05,0,6,.05-1.85-.3-4.37,0-6Z"/>
      <path class="cls-43" d="M43,6c7.68-.35,13.33.58,20.06,4.44,7.81,4.49,11.13,10.95,9.85,19.97-.2,1.39-3.27,10.48-3.83,11.17-2,2.44-10.39.63-13.06,4.92,2.95,2.87,3.63,1.35,3.98,5.5.07.79-.17,2.86,0,3,.31.27,5.5.49,6.01-1l2.99-6c1.24,3.61.78,7.27,1.01,11,.02.31.04.97,0,1-2.38,1.46-8.47-.94-7,4-.33.02-.67-.01-1,0-5.18.17-18.54.88-22.42-1.12-.89-.46-1.24-1.67-1.58-1.88-5.57-3.53-10.33-6.17-4.5-13l1.5,6c.52,1.55,5.77,1.23,6,1,1.88-1.89-2.05-3.28-2.04-3.5.09-1.7,4.83-5.86,2.03-7.5-3.79-2.78-13.46-4.21-15.48-9.02-.88-2.09-.91-11.01-.57-13.52,1.05-7.76,11.53-13.12,18.04-15.46Z"/>
      <path class="cls-37" d="M79,75c.15,1.62-.21,3.42,0,5-2.57-1.71-1.62-1.08-2.44,1.04-2.63,6.71-4.98,10.49-3.53,18.44.34,1.87,1.33,2.79,2.98,3.52-.18,4.96-.06,10.04,0,15h-1c-.09-2.15.13-4.34,0-6.49-.08-1.29.82-4.26-1.49-3.51-2.5.81-.54,7.92-.51,10.01-1.39-.66-.33-3.88-3-3,.22-2.35-.67-10.45-3.53-6.03-.79,1.22-1.22,11.04,2.53,8.03-1.43,3.52-1.83,3.01-6,2,.94-2.65-.94-6.14-1-8-.01-.35,2.81-3.56-.51-3.01-2.35.39-2.37,2.6-3.49,3.01-.63.23-2.09-.12-3,0-2.04.26-5.25-.53-7,1s-.63,5.8-1.57,8.97c-1.15,3.84-10.41,7.11-2.43,14.03.04,3.86,1.28,7.18,1,11h-24c.46-2.97-.76-7.73.15-10.35.54-1.54,2.74-1.66,3.34-2.66.8-1.35.23-3.32,1.07-4.97.38-.74,5.32-4.1,5.47-4.61.83-2.77-1.79-2.38-2.88-4.02-3.66-5.48-2.78-7.35-3.15-13.39.37-2.1,2.61-4.21,3-5,1.68-3.37,2.76-14.85-3-15-.33,0-.81-.08-1,0,.06-1.05-.88-2.21-1-3-.09-.62.04-1.35,0-2-.1-1.74-.37-4.53.49-5.99,7.09,3.71,5.26,6.42,6.73,12.27,1.7,6.75,10.94,2.62,16.22,3.66,1.2.23-.09,2.89,1.09,3.13,6.11,1.25,6.08-2.81,7.16-3.09,2.27-.59,11.48.69,12.29,0,.37-.32-.25-2.42.02-2.97.45-.94,2.42-1.39,2.83-2.67.53-1.64-.31-3.86.38-5.13.14-.26,4.04-2.48,5.01-3.2.91-.67,1.19-2.12,1.76-2.52.96-.67,1.69.52,2.01.51ZM58,95c-1.88.73-5.91-.2-5,3,1.1,3.86,4.92.87,5.9,1.16.2.06.57,1.48,1.1,1.84.88.6,1.95.85,2.62,1.36,1.08.82,2.51,5.05,3.39.15,1.07-5.91-.04-6.99-5.01-8.51-.19-.06-.53-1.09-1.33-1.07-.69.01-1.26,1.91-1.67,2.07ZM36,102c1.55,1.45,2.98.73,4.74,1.33.53.18.96,1.58,1.26,1.67,3.99,1.17,7.59-2,5-3-.74-1.82-4.03-.48-4.92-1.11-.43-.3.08-1.49-.08-1.89,9.1.61,7.14-5.28-1-4-.22-.53-.15-1.15-1-1-4.33-.24-7.11,5.1-4,8ZM54.57,102.07c-3.2.97-.15,4.08,3.86,2.86,3.2-.97.15-4.08-3.86-2.86ZM29.01,117.99c4.39.13,3.87-7.86,1.48-9.99-2.43-.48-1.42,1.94-1.48,3.48-.1,2.16.06,4.35,0,6.5ZM38.77,113.34c-1.15-.77-3.55-.75-2.76,1.15l3.52,3.49c.92.35,6.18-4.8,3.96-4.99-2.65-.22-2.93,1.56-4,2.01-.8.34-.37-1.43-.72-1.67ZM36.5,121.02c-2.07,0-2.07,6.96,0,6.96s2.07-6.96,0-6.96ZM40.74,136.25c-4.85-5.16-20.38-1.69-16.3,7.81,1.25,1.78,14.49,0,17.56.94-.07-2.47.49-6.88-1.27-8.75Z"/>
      <path class="cls-27" d="M16,58c.86-.31,7.3-.17,8.36.17.24.08,3.7,3.1,3.68,3.35-.11,1.71-2.75,3.15-2.04,5.47,4.02.2,11.16,1.95,14.75,3.68,1.6.77,1.52,2.7,2.89,3.16,1.29.44,4.11-.07,4.36.16,1.15,1.09.24,8.3-4,7.01,10.21,8.81.23,10.13-8.55,9.04-5.77-.72-2.37-7.07-5.41-11.59-1.15-1.72-5.9-4.71-8.04-5.45-3.97-1.38-7.76-1-12-2,.02-.33-.03-.67,0-1,.19-2.1-.21-3.49.76-5.74.3-.69,4.86-6.12,5.24-6.26Z"/>
      <path class="cls-54" d="M80,56c.21,3.95,1.99,1.12,5.29,1.98.99.26,1.51,3.41,3.71,3.02.23,2.84,2.65,5.03,3,8-2.33,1.41-12.02.66-13,2.01-2.63,3.67,8.18,2.4,9,3.99-1.46-.45-6.88-.04-9,0-.32,0-1.06-1.18-2.01-.51-.57.4-.85,1.84-1.76,2.52-.97.72-4.87,2.94-5.01,3.2-.69,1.27.15,3.49-.38,5.13-.41,1.28-2.38,1.73-2.83,2.67-.95,1.93-1.4,1.9-3.4,2.07-9.4.78-14.67-.46-6.6-9.06-4.23,1.28-5.16-5.9-4-7.01.22-.21,3.02.23,4.28-.2,1.78-.6,2.38-2.6,3.76-3.27,3.14-1.52,11.08-2.34,13.98-4.02,2.34-1.36-2.01-3.21-2-4.02,0-.44,5.05-5.48,5.98-6.5.33-.03.67.01,1,0Z"/>
      <path class="cls-34" d="M71,7c6.43,9.84,10.7,19.77,9,32-.69,5.01-5.32,7.55-4,13-3.33.6-3.18,1.72-3,5-.13.06-1.92,1.89-2,2h-1c-.24-3.73.22-7.39-1.01-11l-2.99,6c1.51-4.45.04-10.94-5.99-8.99-1.22,3.42,6.23,5.99,0,6.99-.35-4.15-1.03-2.63-3.98-5.5,2.67-4.29,11.06-2.47,13.06-4.92.56-.68,3.63-9.78,3.83-11.17,1.27-9.02-2.04-15.48-9.85-19.97-6.73-3.87-12.37-4.8-20.06-4.44-1.29.06-2.82-.19-4,0,1.04-1.66,3.79-1,5.49-1.02,4.56-.06,10.75-.51,15.05-.01s6,2.62,11.47,2.03Z"/>
      <path class="cls-33" d="M43,6c-6.51,2.34-16.99,7.7-18.04,15.46-.34,2.51-.31,11.43.57,13.52,2.02,4.81,11.68,6.24,15.48,9.02-.76-.44-5.03-1.27-5.54-.05-.63.99-.84,8.94-.46,10.05l-1.5-6c-5.83,6.83-1.08,9.46,4.5,13-3.53.53-6.03-1.73-9-3-.54-.23-.82-.92-1-1v-5.01c-.99-.08-2.01.1-3,0l.52-4.98-6.52-7.02c.61-.89,2.39-1.34,2.82-2.67,1.27-3.98-.65-11.39.2-15.81.08-.43,3.61-7.33,3.93-7.81.22-.33,5.61-4.85,6.11-5.14.32-.18,5.62-2.5,5.94-2.56s.68.05,1,0c1.18-.19,2.71.06,4,0Z"/>
      <path class="cls-54" d="M22,74c.24,2.19-.9,5.58,1,7,.04.65-.09,1.38,0,2-1.62.12-5.66,2.6-6,4-1.76-.03-6.35.67-6.91-1.58-.13-.52,2.06-10.03,2.36-10.47,1.33-1.9,7.15-.62,9.54-.96Z"/>
      <path class="cls-58" d="M38,61c.34.21.69,1.42,1.58,1.88,3.88,2,17.24,1.28,22.42,1.12v1c-6.8-.09-13.63.16-20.43-.08-1.72-.06-2.91-2.48-2.57,1.08-.51-.33-.63-1.72-1.73-1.98-3.5-.83-8.06-.03-8.27-6.02,2.97,1.27,5.47,3.53,9,3Z"/>
      <path class="cls-45" d="M62,65c2.17,1.28-1.24,1.94-2.45,2.05-3.78.34-18.17.51-20.55-1.05-.34-3.55.85-1.13,2.57-1.08,6.8.23,13.64-.01,20.43.08Z"/>
      <path class="cls-59" d="M70,60c-.25.4.47,2.63-.94,3.55s-4.3.36-6.06.45c-1.47-4.94,4.62-2.54,7-4Z"/>
      <path class="cls-30" d="M70,60s.02-.69,0-1h1c-.29.4-.81.7-1,1Z"/>
      <path class="cls-18" d="M70,115c-.01.11-.75,1.38-1,2-3.75,3.01-3.32-6.81-2.53-8.03,2.85-4.42,3.75,3.68,3.53,6.03Z"/>
      <path class="cls-63" d="M73,118c-.03-2.08-1.99-9.2.51-10.01,2.31-.74,1.41,2.23,1.49,3.51.13,2.15-.09,4.34,0,6.49-.6-.13-1.6.19-2,0Z"/>
      <path class="cls-52" d="M63,119c-.86-.21-2.44-.45-3-1,.05-2.51-.87-6,2-7,.06,1.86,1.94,5.35,1,8Z"/>
      <path class="cls-28" d="M58,111c1.13-.41,1.14-2.63,3.49-3.01,3.32-.55.5,2.66.51,3.01-2.87,1-1.95,4.49-2,7-1.96-1.9-.38-4.96-2-7Z"/>
      <path class="cls-64" d="M76,124c.07,2.05-.62,4.39,1,6v1c-.8-.21-2.12.27-3.03-.43-2.1-1.64-1.39-7.07,2.03-6.57Z"/>
      <path class="cls-55" d="M97,86c-.22,4.48,1.27,4.8-2,8-5.44,5.33-4.16,6.03-4,14-.24.63.37,2.57-.04,2.93-.7.62-8.97-.29-10.96.07-.45-4.4,5.5-2.51,6.01-3,.42-.4.14-5.65-1.52-5.99-2.55-.53-1.52,4.05-4.48,2.99v-6c3.16-4.46,6.1-1.02,5.99-9,4.26,0,7.93-1.06,11-4Z"/>
      <path class="cls-72" d="M88,75c.98.3,1.66,2.88,3,3-.59,6.84,2.59,7.87-5,9-.64.1-1.52-.16-2,0-2.41-4.16-4.34-2.09-5-7-.21-1.58.15-3.38,0-5,2.12-.04,7.54-.45,9,0Z"/>
      <path class="cls-67" d="M79,80c.66,4.91,2.59,2.84,5,7-1.41.47-.73,1.11-1,2-2.02-4.92-6.96.66-7.06,3.45-.11,3.26.1,2.65,3.06,2.55-.94.81-2.83.84-3.05,1.64-.38,1.41.12,4.49.05,6.36-1.65-.74-2.64-1.66-2.98-3.52-1.45-7.95.9-11.73,3.53-18.44.83-2.11-.13-2.75,2.44-1.04Z"/>
      <path class="cls-12" d="M94,74c.59,1.43,1.09,3.62,3,3-.27,2.87.14,6.06,0,9-3.07,2.94-6.74,4.01-11,4-.01-1,0-2,0-3,7.59-1.13,4.41-2.16,5-9,1.82.17,3.91-1.94,3-4Z"/>
      <path class="cls-38" d="M80,99v6c2.97,1.06,1.94-3.52,4.49-2.99,1.66.35,1.94,5.59,1.52,5.99-.51.49-6.46-1.4-6.01,3h-1c-.64-1.9-.21-10.3,1-12Z"/>
      <path class="cls-1" d="M79,95c-2.96.09-3.17.71-3.06-2.55.1-2.79,5.04-8.37,7.06-3.45-.23.74.27,1.75-.51,2.96-.15.23-2.76,2.41-3.49,3.04Z"/>
      <path class="cls-57" d="M95,94c-.77,3.05-.4,7.56-1.05,10.27-.06.23-2.31,2.07-2.95,3.73-.16-7.97-1.44-8.67,4-14Z"/>
      <path class="cls-41" d="M25,86c-.52,2.44,2.74,2.59,3.02,3.71.73,2.89-.54,8.02-.02,11.29-.39.79-2.63,2.9-3,5-.08-1.32.07-2.67,0-4-.16-3.11,1.18-5.37-2-7,4.35,0,2.03-4.96-1-7,.99-.09,1.78-1.91,2-2,.19-.08.67,0,1,0Z"/>
      <path class="cls-36" d="M22,88c3.03,2.04,5.35,7,1,7-1.29-.66-2.19.79-4-2v-6c2.18-.63,2.37.57,3,1Z"/>
      <path class="cls-38" d="M22,109c-6.08.1-6.69-1.09-6-7.01,5.17-1.53.89,5.35,6,2.01.07,1.55.15,3.5,0,5Z"/>
      <path class="cls-32" d="M24,86c-.22.09-1.01,1.91-2,2-.63-.42-.82-1.63-2.99-1v6c-.53-.82-1.93-4.31-2.01-5-.03-.28-.06-.74,0-1,.34-1.4,4.38-3.88,6-4,.12.79,1.06,1.95,1,3Z"/>
      <path class="cls-69" d="M15,93c.98,2.69,4.34,2.24,4,5-1.96-.87-4.73-1.46-7-3.01.11-1.82,2.16-1.51,3-1.99Z"/>
      <path class="cls-8" d="M10,71c-.14,1.98.1,4.01,0,6-1.62.68-2.45-.86-3-1-.17-3.5-.84-5.2,3-6-.03.33.02.67,0,1Z"/>
      <path class="cls-25" d="M92,69c.04.32,0,.67,0,1,0,2.23-.77,5.37-1,8-1.34-.12-2.02-2.7-3-3-.81-1.59-11.63-.32-9-3.99.97-1.35,10.67-.6,13-2.01Z"/>
      <path class="cls-44" d="M94,74c.91,2.06-1.18,4.17-3,4,.23-2.63.99-5.77,1-8,2.42.5,1.53,2.87,2,4Z"/>
      <path class="cls-11" d="M41,44c2.8,1.64-1.95,5.8-2.03,7.5-.01.22,3.92,1.61,2.04,3.5-.23.23-5.48.55-6-1-.37-1.1-.16-9.06.46-10.05.51-1.23,4.78-.4,5.54.05Z"/>
      <path class="cls-56" d="M66,54c-.51,1.49-5.7,1.27-6.01,1-.17-.15.07-2.21,0-3,6.23-1.01-1.21-3.57,0-6.99,6.04-1.94,7.51,4.54,5.99,8.99Z"/>
      <path class="cls-60" d="M40.74,136.25c1.75,1.86,1.2,6.28,1.27,8.75-3.07-.94-16.32.84-17.56-.94-4.09-9.5,11.45-12.97,16.3-7.81Z"/>
      <path class="cls-10" d="M61,94c4.97,1.52,6.07,2.6,5.01,8.51-.88,4.9-2.31.67-3.39-.15-.67-.51-1.73-.76-2.62-1.36-.8-2.86,4.37-2.26,2.53-5.05-.71-.88-4.17-.87-1.53-1.95Z"/>
      <path class="cls-2" d="M40,94c-5.04,5.27,1.61,3.14,1.01,7.49-.15,1.11-3.82.26-5.01.51-3.11-2.9-.33-8.24,4-8Z"/>
      <path class="cls-76" d="M61,94c-2.64,1.08.82,1.07,1.53,1.95,1.84,2.78-3.33,2.19-2.53,5.05-.53-.36-.9-1.77-1.1-1.84-.97-.3-4.8,2.69-5.9-1.16,4.11.15,10.6.63,5-3,.41-.16.98-2.06,1.67-2.07.79-.02,1.13,1.01,1.33,1.07Z"/>
      <path class="cls-47" d="M29.01,117.99c.05-2.15-.1-4.34,0-6.5.07-1.54-.94-3.96,1.48-3.48,2.39,2.13,2.91,10.11-1.48,9.99Z"/>
      <path class="cls-9" d="M41,95c.35.85.43,2.52,1,4,.15.4-.35,1.59.08,1.89.89.63,4.19-.7,4.92,1.11-2.49-.96-6.34-.31-5,3-.3-.09-.73-1.49-1.26-1.67-1.76-.6-3.19.12-4.74-1.33,1.18-.25,4.85.6,5.01-.51.6-4.36-6.04-2.22-1.01-7.49.85-.15.78.47,1,1Z"/>
      <path class="cls-71" d="M42,99c-.57-1.48-.65-3.15-1-4,8.14-1.28,10.1,4.61,1,4Z"/>
      <path class="cls-31" d="M38.77,113.34c.35.24-.08,2,.72,1.67,1.07-.45,1.35-2.23,4-2.01,2.22.19-3.04,5.34-3.96,4.99l-3.52-3.49c-.79-1.9,1.61-1.92,2.76-1.15Z"/>
      <path class="cls-65" d="M28,101c-.52-3.27.75-8.4.02-11.29-.28-1.11-3.54-1.27-3.02-3.71,5.76.15,4.68,11.63,3,15Z"/>
      <path class="cls-72" d="M58,95c5.6,3.63-.89,3.15-5,3-.91-3.2,3.12-2.27,5-3Z"/>
      <path class="cls-10" d="M36.5,121.02c2.07,0,2.07,6.96,0,6.96s-2.07-6.96,0-6.96Z"/>
      <path class="cls-22" d="M54.57,102.07c4.02-1.21,7.07,1.9,3.86,2.86-4.02,1.21-7.07-1.9-3.86-2.86Z"/>
      <path class="cls-7" d="M47,102c2.59,1-1.01,4.17-5,3-1.34-3.31,2.51-3.96,5-3Z"/>
    </g>
  </g>
</svg>