<?xml version="1.0" encoding="UTF-8"?>
<svg id="_Слой_2" data-name="Слой 2" xmlns="http://www.w3.org/2000/svg" viewBox="0 0 78 150">
  <defs>
    <style>
      .cls-1 {
        fill: #4c2519;
      }

      .cls-2 {
        fill: #d89b7d;
      }

      .cls-3 {
        fill: #421b0f;
      }

      .cls-4 {
        fill: #957f7a;
      }

      .cls-5 {
        fill: #824f42;
      }

      .cls-6 {
        fill: #fbe0ca;
      }

      .cls-7 {
        fill: #ca886c;
      }

      .cls-8 {
        fill: #50382d;
      }

      .cls-9 {
        fill: #f9ceb1;
      }

      .cls-10 {
        fill: #3d2722;
      }

      .cls-11 {
        fill: #e5a380;
      }

      .cls-12 {
        fill: #451c10;
      }

      .cls-13 {
        fill: #552c20;
      }

      .cls-14 {
        fill: #2e1711;
      }

      .cls-15 {
        fill: #f2c6a8;
      }

      .cls-16 {
        fill: #43251c;
      }

      .cls-17 {
        fill: #492013;
      }

      .cls-18 {
        fill: #9f6148;
      }

      .cls-19 {
        fill: #f9dcc4;
      }

      .cls-20 {
        fill: #fbe1ca;
      }

      .cls-21 {
        fill: #d4987b;
      }

      .cls-22 {
        fill: #3f180d;
      }

      .cls-23 {
        fill: #3b2119;
      }

      .cls-24 {
        fill: #d89a7c;
      }

      .cls-25 {
        fill: #d19a7f;
      }

      .cls-26 {
        fill: #a69d9b;
      }

      .cls-27 {
        fill: #fdd4b6;
      }

      .cls-28 {
        fill: #fbd1b4;
      }

      .cls-29 {
        fill: #fde4ce;
      }

      .cls-30 {
        fill: #f7ceb0;
      }

      .cls-31 {
        fill: #d29879;
      }

      .cls-32 {
        fill: #f8ccae;
      }

      .cls-33 {
        fill: #864932;
      }

      .cls-34 {
        fill: #fce2cb;
      }

      .cls-35 {
        fill: #3d2822;
      }

      .cls-36 {
        fill: #7b4c40;
      }

      .cls-37 {
        fill: #8d4e36;
      }

      .cls-38 {
        fill: #f9cdaf;
      }

      .cls-39 {
        fill: #341d17;
      }

      .cls-40 {
        fill: #d38f73;
      }

      .cls-41 {
        fill: #d79a7d;
      }

      .cls-42 {
        fill: #d8997c;
      }

      .cls-43 {
        fill: #894c35;
      }

      .cls-44 {
        fill: #d29276;
      }

      .cls-45 {
        fill: #4b2418;
      }

      .cls-46 {
        fill: #532c20;
      }

      .cls-47 {
        fill: #431d13;
      }

      .cls-48 {
        fill: #d18e71;
      }

      .cls-49 {
        fill: #da9d7f;
      }

      .cls-50 {
        fill: #5d3d34;
      }

      .cls-51 {
        fill: #8b4c35;
      }

      .cls-52 {
        fill: #331b15;
      }

      .cls-53 {
        fill: #fbd0b1;
      }

      .cls-54 {
        fill: #4e2a20;
      }

      .cls-55 {
        fill: #fadec8;
      }

      .cls-56 {
        fill: #301913;
      }

      .cls-57 {
        fill: #d89a7d;
      }

      .cls-58 {
        fill: #d29175;
      }

      .cls-59 {
        fill: #eed0ba;
      }

      .cls-60 {
        fill: #3e2721;
      }

      .cls-61 {
        fill: #461e13;
      }

      .cls-62 {
        fill: #593024;
      }

      .cls-63 {
        fill: #8c4c35;
      }

      .cls-64 {
        fill: #855446;
      }

      .cls-65 {
        fill: #e4a07c;
      }
    </style>
  </defs>
  <g id="_Слой_28_Изображение" data-name="Слой 28 Изображение">
    <g>
      <path class="cls-27" d="M60,5c1.11.35,2.29,3.53,7,4,.33.03.67-.02,1,0-.15.5.08,1.36,0,2-1.28-.55-6.32-1.63-8-1.5l6.47,7.53c1.46,6.83,3.37,14.67,6.53,20.97-.07,1.97.37,4.5-.01,6.26-.23,1.07-1.66,1.23-1.99,1.74-1.26,1.93-1.48,8.58-2,12-.14.89-.98,1.79-1,2-1.34,1.12-3.36-.06-4,0-6.41.59-12.31,5.81-19.57,2.07l-5.42-7.07c2.55-.27,7.37,1.39,6.02-2.51-.21-.6-2.09-.78-2.51-1.47-1.15-1.9,0-4.67-1.03-7.02-.17-.39-5.12-6.25-5.45-6.54-2.13-1.86-6.83-2.56-9.32-1.5-1.31.56-.77,4.65-3.21,4.03-4.6-1.18-3.51-15.17-3.51-19,3.89-10,12.68-16.23,23.46-17.03,2.78-.21,14.27.32,16.54,1.03ZM60,45c-.67-1.56-.31-2.94-2.87-3.49-.84-.18-9.77.63-10.19.92-1.44,1-.88,3.97-.94,5.57l8.01,1c.19,1.97-.14,4.03,0,6,2.78,1.63,9.17-1.68,7.01-4-.24-.26-7.82-.15.01-2.52.2-1.34-.53-2.36-1.02-3.48Z"/>
      <path class="cls-42" d="M17,64c-1.58,3.58-5.22,4.19-4,9,1.05,4.14,6.96,1.45,8.99-1-.94,8.55.85,4.71,7.01,7,1.88,1.86,8.53,8.6,10.08,9.42,3.09,1.65,7.2,1.22,10.92,2.58-.3.33-.61.83-1,1-3.99,1.8-4.17-.39-4,5,.03,1-.03,2,0,2.99,2.98-.46,3.24-1.11,5.99-.99,2.16.09,5.22-.64,6,1.99l-5.99,1.5c1.46,1.64,3.77,2.74,5.99,2.51v10c-3.83-3.87-5.37-5.97-11.51-3l1.51,4c-.76-.3-3.75-1.27-3.99-1v5h-1.01c-.01-1.68.42-3.43-.54-4.98-1.52-2.13-12.02-10.87-12.3-11.68-1.29-3.81,2.19-9.04-3.2-10.87-.65-2.13,5.66-5.75,3.03-8.47-1.68-1.75-6.81,5.38-8.99,6-.28.08-.66-.05-1,0v-1c.25-.08,3.94-3.25,4-3.51.68-2.74-4.87-2.87-7-2.49.15-2.58,7.77-6.35,1.49-6.48-7.74-.16-2.81,3.86-5.49,6.48-.24.24-1.72-.03-2.89,1.57-3.28,4.49-1.79,14.92-1.11,20.43h-1c-.16-5.04-.81-4.44-2-8,.14-4.65-.2-9.36,0-14,3.33-.14,4.71-4.87,5.02-7.49.52-4.49.46-5.01-4.02-4.51.42-1.32,1.58-.56,2-1l.98-.5-.98-.5c.16-.59-.19-1.55,0-2,3.26.64,5.89-1.89,8-4,.1.47.55.96,1,1ZM41.78,95.21c-.4-.69-4.5-2.57-5.77-2.21-.97,1.02,3.24,11.31,4.51,11.99,1.92,1.03,1.41-1.52,1.48-2.47.12-1.61.37-6.27-.22-7.31Z"/>
      <path class="cls-65" d="M20,21c0,3.83-1.09,17.82,3.51,19,2.44.63,1.89-3.47,3.21-4.03,2.49-1.06,7.19-.36,9.32,1.5.33.29,5.28,6.15,5.45,6.54,1.04,2.35-.13,5.13,1.03,7.02.42.69,2.3.87,2.51,1.47,1.35,3.9-3.46,2.23-6.02,2.51l5.42,7.07c7.27,3.73,13.16-1.49,19.57-2.07v1h-1c-2.83.24-1.86,2.44-5.56,2.92-9.06,1.17-19.81,1.11-23.44-8.92.49-.74,2.68-.83,2-2.99-4.89,1.66-7.74-4.7-12-2.01-.62-.4-1.37-.62-2-1-2.34-7.79-4.94-20.43-2-28ZM31.99,38c-4.64-3.43-3.77,14.1,2.37,12.92.31-.06,5.13-3.38,4.64-4.41-.96-1.88-5.11-1.78-5.8-2.72-.56-.76-.68-5.4-1.21-5.79Z"/>
      <path class="cls-22" d="M20,90c2.18-.62,7.31-7.74,8.99-6,2.62,2.72-3.69,6.34-3.03,8.47,5.39,1.83,1.91,7.06,3.2,10.87.27.8,10.77,9.55,12.3,11.68.96,1.56.53,3.31.54,4.98,0,1,0,2,0,3-.07-.01-.5.92-.97,1.02-.26-1.89-.69-3.57-2.03-5.02-3.82-4.12-7.72-.99-7,4-.63.65-.96,1.1-2,1,.46-4.95-.34-10.46,0-15.5-.25-1.42-.95.51-1,.5-.51-.14-1.78-1.18-1.98-1-.23.21-.96,4.2-2.02,6-2.99.46-1.61-.69-2-2-.36-1.22-.84-2.78-1-4-.28-2.11.44-5.17,0-7,8,1.52,2.98-8.26-2-8,.19-.85-.13-2.06,0-3Z"/>
      <path class="cls-39" d="M61,4l-1,1c-2.27-.71-13.76-1.24-16.54-1.03-10.78.8-19.58,7.03-23.46,17.03-2.94,7.57-.34,20.21,2,28-2.44-1.46-5.69-3.17-6.07-6.43-1.49-12.7-1.33-30.16,10.77-37.58,7.55-4.63,16.91-2.96,25.85-2.94,1.95,0,4.75-1.02,5.85-.83,1.59.28,2.15,2.54,2.6,2.77Z"/>
      <path class="cls-17" d="M66,104c-.56,1.3-3.63,2.61-2,7h9c.05.45.54.88,1,1-.13.12.49,1.67-.68,2-2.32.65-5.39-.06-8.32,1-.55.2-1.93-.61-2.05.6.8,4.1-1.39,14.69,1.05,17.4,2.62,2.91,8.55,3.73,8.9,4.09.25.25.84,6.07.66,6.99-.47,2.42-2.41,1.76-2.57,1.92h-1c-.23-1.36.35-6.67,0-7-.37-.35-5.54.86-9-4-.65-3.86,1.34-14.78-1-17,.1-3.03-.64-9.04.15-11.35.6-1.74,3.33-1.41,3.86-4.14.64-3.3-.46-7.99-.01-11.51.16-.34.77-.64,1-1,.54,4.42-1.24,10.18,1,14Z"/>
      <path class="cls-12" d="M39,119c1.34,1.45,1.77,3.13,2.03,5.02.47-.1.9-1.03.97-1.02,1.07.21,6.45,5.56,6.8,6.71,1.02,3.35-1.29,11.36-.8,16.29-7.01-.14-9.41.87-16-2,.76-3.73,11.87,1.36,13-2,1.33-3.97-7.08-6.98-5.98-10.45.39-1.22,2.93-1.2,3.07-2.14.27-1.83-2.65-5.11-3.08-7.41-.17-.89.11-2.04,0-3Z"/>
      <path class="cls-51" d="M24,50c4.25-2.69,7.11,3.66,12,2.01.69,2.17-1.5,2.25-2,2.99-2.58,3.9,4.16,9.34,7.52,9.98,4.05.77,20.89,1.64,21.48-3.98h1c-1.26,4.07,4.96,3.08,2,7-.38-.25-.66-.8-1-1-4.85-2.88-20.56.06-27-1-2.98-.97-3.17-2.97-5-4-2.08-1.17-5.66-2.01-8-2l1-2c.83-.09,4.95-.84,5.48-1,1.71-.52-2.59-4.84-3.54-5.48-1.16-.78-2.6-.32-2.94-.52-.4-.24-.67-.79-1-1Z"/>
      <path class="cls-52" d="M5,97c1.19,3.56,1.84,2.96,2,8,.08,2.33-.05,4.67,0,7-.3-.44-1.99-.84-2.49-1.97-1.16-2.64.03-5.19-.48-7.34-.26-1.08-2.58-.67-3.05-3.16s-.5-22.72,0-24.86c.23-.99,2.16-1.27,3.03-1.67.72,7.81-1.45,16.64,1,24Z"/>
      <path class="cls-61" d="M68,60c-.55,5.8,3.85,5.36,4.94,9.55s.59,9.73.04,13.95c-.25,1.9,1.18,4.06-1.98,3.5-.37-.26-2.54.46-3-1,.22-.16,1.54.34,1.87-.08.89-1.12-.38-13.25.12-15.93h-2s-1,0-1,0c.09-.76-.25-1.06-1-1v-1c2.96-3.92-3.26-2.93-2-7v-1c.64-.06,2.66,1.12,4,0Z"/>
      <path class="cls-3" d="M71,87c.31.22,2.45,5.87,3,7-.65.21-1.42.91-2,1-8.26,1.34-3.22,2.54-6,9-2.24-3.82-.46-9.58-1-14,.86-1.34,1.71-3.05,3-4,.46,1.46,2.63.74,3,1Z"/>
      <path class="cls-1" d="M8,105c.51,4.11-.63,9.08,5,9,1.72-.03,3.19-.96,4-1,1.59-.08,4.44,3.03,6-1,.39,1.31-.99,2.46,2,2-2.7,4.56-6.37,4.81-11.45,3.94s-4.6-3.07-6.55-5.94c-.05-2.33.08-4.67,0-7h1Z"/>
      <path class="cls-50" d="M75,17c-3.54-.34-1.15.84-1.08,2.57.35,8.79-.1,17.64.08,26.43-.3.13-.62.78-1,1-.49-.91-.99-1.09-2-1,.33-.5,1.75-.67,1.99-1.74.38-1.76-.06-4.29.01-6.26.15-4.2.7-12.86-.01-16.49-.43-2.17-2.31-2.72-2.79-4.23-.77-2.41,1-4.91-2.2-6.29.99.11.82-.41,1-1,4.08.43,4.63,4.02,6,7Z"/>
      <path class="cls-23" d="M75,17c.16.34.87.65,1,1-.02,6.99.02,14.01,0,21-.02,5.05,2.38,5.15-2,7-.18-8.79.28-17.64-.08-26.43-.07-1.73-2.47-2.91,1.08-2.57Z"/>
      <path class="cls-45" d="M74,94c.25.52,1.81.46,2.06,2.49.23,1.9.2,14.74-.3,15.33-.41.48-1.63.06-1.76.19-.46-.12-.95-.54-1-1-.11-.95.02-2.02,0-3-.07-3.26.28-6.82,0-10-.09-1.07-.48-2.08-1-3,.58-.09,1.35-.79,2-1Z"/>
      <path class="cls-62" d="M26,125c.77,1.25,1.34,2.35,3,2-.15.56.3,1.59.02,2.28-.58,1.45-3.68.91-3.06,4.21.12.66,1.98.79,2.48,1.53.53.77.44,1.86.56,1.98l-1.99-1c-.16.25-.16,5.66-.01,6-1.58-1.05-.57-3.43-1.55-5-.42-.68-1.94-.77-2.22-1.21-.43-.69-.54-7.09-.31-8.23.22-1.07,2.17-.2,2.86-.74.56-.44.09-1.72.21-1.82Z"/>
      <path class="cls-13" d="M29,137c4.2,4.33,9.93,5.66,16,5-1.13,3.36-12.24-1.73-13,2-1.16-.51-4.89-1.76-5-2-.15-.34-.15-5.75.01-6l1.99,1Z"/>
      <path class="cls-46" d="M73,47c2.06,3.81,2.11,12.38-4,11,.52-3.42.74-10.07,2-12,1.01-.09,1.51.09,2,1Z"/>
      <path class="cls-36" d="M24,60c-.13,0-1.12.87-2.42,1.05-1.59.23-3.55-.41-4.97-.1-1.16.26-.47,1.9-.62,2.05-2.11,2.11-4.74,4.64-8,4,1.73-4.16,2.27-4.07,5-7h11Z"/>
      <path class="cls-25" d="M6,72c.47.33,3.19-.76,2.03,3.33-.28.99-2.37.89-2.88,2.31-.54,1.51-.08,3.69-.15,5.36-.2,4.64.14,9.35,0,14-2.45-7.36-.28-16.19-1-24,.55-.26,1.1-1.08,2-1Z"/>
      <path class="cls-12" d="M50,148c4.34-1.71,10.8-1.19,15.55-1,1.93.08,4.01-1.03,3.45,2-3.44.81-15.52.15-19-1Z"/>
      <path class="cls-59" d="M6,71c4.48-.5,4.54.02,4.02,4.51-.31,2.63-1.69,7.35-5.02,7.49.07-1.68-.39-3.85.15-5.36.5-1.42,2.59-1.32,2.88-2.31,1.17-4.09-1.56-3-2.03-3.33-.04-.03-.07-.79,0-1Z"/>
      <path class="cls-16" d="M25,51c.33.2,1.78-.26,2.94.52.95.64,5.25,4.96,3.54,5.48-.53.16-4.65.91-5.48,1-2.81.31-6.08-.13-9,0,1.12-2.21,8.34-.32,9-1l-1-6Z"/>
      <path class="cls-47" d="M51,146c6.32.06,12.68-.04,19,0h1c-.39.41.01,2.53-2,3,.56-3.03-1.53-1.92-3.45-2-4.74-.19-11.21-.71-15.55,1-.44-.15-1.3.28-1.9-.1-.34-.61-.04-1.28-.1-1.9,1,.02,2,0,3,0Z"/>
      <path class="cls-56" d="M17,58c2.92-.13,6.19.31,9,0l-1,2c-.33,0-.67,0-1,0h-11c1.12-1.2-2.01-1.73,4-2Z"/>
      <path class="cls-54" d="M30,124c-.04.47-.75,2.11-1,3-1.66.35-2.23-.75-3-2,1.06-.9,2.85-.9,3.06-1.62.92-3.18-.78-10.56-.06-14.38.05.01.75-1.92,1-.5-.34,5.04.45,10.54,0,15.5Z"/>
      <path class="cls-26" d="M76,39c.02-6.99-.02-14.01,0-21,1.97,5.18,1.44,15.47,0,21Z"/>
      <path class="cls-60" d="M67,9c-4.71-.47-5.89-3.65-7-4l1-1c2.84,1.48,6.7.27,6,5Z"/>
      <path class="cls-4" d="M65,115c-2.12,5.56-.53,12.13-1,18-2.43-2.71-.25-13.3-1.05-17.4.12-1.21,1.5-.4,2.05-.6Z"/>
      <path class="cls-14" d="M69,10c-.18.59,0,1.11-1,1,.08-.64-.15-1.5,0-2h1c.06.2.06.8,0,1Z"/>
      <path class="cls-35" d="M69,9h-1c.1-.34.32-.65.51-.94.6-.03.39.64.49.94Z"/>
      <path class="cls-10" d="M8,70c.14-.14-.09-.65,0-1l.98.5-.98.5Z"/>
      <path class="cls-11" d="M68,11c3.2,1.38,1.43,3.88,2.2,6.29.48,1.51,2.36,2.06,2.79,4.23.71,3.62.16,12.28.01,16.49-3.16-6.3-5.07-14.15-6.53-20.97l-6.47-7.53c1.68-.12,6.71.95,8,1.5Z"/>
      <path class="cls-8" d="M54,49c-.37-3.87.49-3.17-3-5.99,4.56-1.43,5.31,1.75,9,1.99.49,1.13,1.22,2.15,1.02,3.48-7.83,2.37-.25,2.26-.01,2.52,2.16,2.32-4.22,5.63-7.01,4-.14-1.98.19-4.04,0-6Z"/>
      <path class="cls-2" d="M60,45c-3.69-.24-4.44-3.42-9-1.99,3.49,2.82,2.63,2.12,3,5.99l-8.01-1c.06-1.59-.5-4.57.94-5.57.42-.29,9.35-1.1,10.19-.92,2.56.55,2.2,1.93,2.87,3.49Z"/>
      <path class="cls-29" d="M27,67c6.48-6.18,7.28.75,8,7.01,6.31.16,5.85-5.5,13.53-4.02,1.21.23,8.58,7.85,8.45,8.47-.18.84-2.99,2.56-2.96,3.05.05.94,4,.88,3.02,3.96-.24.74-2.05.77-2.51,1.52-1.11,1.82.15,4.68-2.03,6-.74-.66-1.58-1.64-2.5-1.98-3.72-1.35-7.83-.93-10.92-2.58-1.55-.83-8.2-7.56-10.08-9.42-.13-.13.35-1.46-.14-1.82-1.35-1.01-5.23,1.36-5.91-2.69-.69-4.14,1.76-3.5,3.1-5.24.5-.66.64-1.96.94-2.25Z"/>
      <path class="cls-24" d="M33,62c1.83,1.03,2.02,3.03,5,4,7.82,2.53,18.54.21,27,1,.34.2.62.75,1,1v1c-1.06.08-5.49,1.55-5.87,2.63-1.74,4.94,2.4,9.51.87,14.37,9.73,1.91,4.94-9.79,6-16h1c.78,4.15-1.08,12.57,0,16-1.29.95-2.14,2.66-3,4-.23.36-.84.66-1,1-1.43,3.16-.43,4.03-.98,6.35-.25,1.05-1.96.56-2.02.65l-1.01-8c-1.63-1.5-3.92,3.86-3.99,5h-5.01s0,3,0,3v1c-2.76-.11-3.01.53-5.99.99-.04-.99.03-2,0-2.99,3.33,2.6,3.82-1.47,5.99-3.51l-1.99-1.49c.39-.17.7-.67,1-1,.92.34,1.76,1.32,2.5,1.98,2.18-1.32.92-4.18,2.03-6,.46-.75,2.27-.77,2.51-1.52.98-3.08-2.97-3.02-3.02-3.96-.03-.48,2.78-2.21,2.96-3.05.13-.62-7.24-8.24-8.45-8.47-7.68-1.48-7.22,4.18-13.53,4.02-.72-6.26-1.52-13.18-8-7.01h-1c-.08-4.6-5.74-2.71-9-3,.23-.53-.65-1.76.6-2.05,3.91-.91,11.03.75,15.4.05Z"/>
      <path class="cls-28" d="M12,83l2,1c-.1.25,1.12,1.21,1.03,2.5-.05.68-3.14-.06-2.02,2.49,1.7-.31,4.6.45,5.99,0v1c-3.59.53-5.81-1.74-6,2-.08,1.55-.33,8.69,0,9,.81.76,8.59-1.98,7,7-.28,1.57-2.24,3.49-3,5-.81.04-2.28.97-4,1l-5-9c-.68-5.51-2.18-15.94,1.11-20.43,1.17-1.6,2.65-1.33,2.89-1.57Z"/>
      <path class="cls-34" d="M47,116l-1.51-4c6.14-2.97,7.68-.87,11.51,3,.13.13-.19,1.19.27,1.73.71.82,2.23.81,2.73,1.27-.08,2.4.51,7.25,0,9-3.98.34-2.77,0-3-3-.45-5.85-1.69-1.08-6-4-.4-2.72-1.52-3.03-4-4Z"/>
      <path class="cls-55" d="M26,67c-5.22,1.56-6.09,7.82-13,6-1.22-4.81,2.42-5.42,4-9,3.26.29,8.92-1.6,9,3Z"/>
      <path class="cls-65" d="M56,95c.07-1.14,2.37-6.5,3.99-5l1.01,8c-.72,1.12.81,6.5-4,7-2.22.23-4.53-.87-5.99-2.51l5.99-1.5c-.78-2.63-3.84-1.9-6-1.99v-1h6c.6-1.31-1.01-2.84-1-3Z"/>
      <path class="cls-37" d="M60,118c-.49-.47-2.02-.46-2.73-1.27-.46-.54-.14-1.6-.27-1.73v-10c4.81-.5,3.28-5.88,4-7,.06-.09,1.77.4,2.02-.65.55-2.32-.45-3.18.98-6.35-.45,3.52.65,8.22.01,11.51-.53,2.73-3.26,2.4-3.86,4.14-.79,2.31-.06,8.32-.15,11.35Z"/>
      <path class="cls-43" d="M43,120c2.82,2.45,1.95,3.42,6,4,2.07,3.79,2.26,7.76,2,12-2.3,1.04-2.36,8.04,0,10-1,0-2,.02-3,0-.49-4.93,1.82-12.94.8-16.29-.35-1.15-5.73-6.5-6.8-6.71,0-1,0-2,0-3h1Z"/>
      <path class="cls-15" d="M47,116c2.48.97,3.6,1.28,4,4,.03.23-1.62,2.15,1,4-.33,0-.67.02-1,0-.65-.05-1.37.09-2,0-4.05-.58-3.18-1.55-6-4v-5c.25-.28,3.24.7,4,1Z"/>
      <path class="cls-9" d="M41.78,95.21c.59,1.04.34,5.7.22,7.31-.07.94.44,3.5-1.48,2.47-1.27-.68-5.47-10.96-4.51-11.99,1.28-.37,5.38,1.51,5.77,2.21Z"/>
      <path class="cls-57" d="M26,67h1c-.3.29-.44,1.59-.94,2.25-1.34,1.74-3.8,1.1-3.1,5.24.68,4.05,4.56,1.68,5.91,2.69.49.36,0,1.69.14,1.82-6.16-2.29-7.95,1.55-7.01-7-2.03,2.45-7.94,5.14-8.99,1,6.91,1.82,7.78-4.44,13-6Z"/>
      <path class="cls-6" d="M19,89c-1.39.44-4.3-.31-5.99,0-1.11-2.55,1.97-1.81,2.02-2.49.1-1.29-1.13-2.26-1.03-2.5.04-.1,1.89-.98,2-1,2.13-.39,7.68-.25,7,2.49-.06.26-3.75,3.43-4,3.51Z"/>
      <path class="cls-38" d="M12,83c2.69-2.62-2.24-6.63,5.49-6.48,6.28.13-1.34,3.9-1.49,6.48-.11.02-1.96.9-2,1l-2-1Z"/>
      <path class="cls-18" d="M19,90c.34-.05.72.08,1,0-.13.94.19,2.15,0,3-.13.58-1.48,1.73-1,3-1.24-1.43-4.2-3.14-6-4,.19-3.74,2.41-1.47,6-2Z"/>
      <path class="cls-21" d="M33,62c-4.37.7-11.5-.96-15.4-.05-1.24.29-.36,1.52-.6,2.05-.45-.04-.9-.53-1-1,.15-.15-.55-1.79.62-2.05,1.41-.31,3.38.33,4.97.1,1.29-.19,2.28-1.05,2.42-1.05.33,0,.67,0,1,0,2.34,0,5.92.83,8,2Z"/>
      <path class="cls-32" d="M49,92l1.99,1.49c-2.17,2.04-2.67,6.1-5.99,3.51-.17-5.39,0-3.2,4-5Z"/>
      <path class="cls-53" d="M31.99,38c.53.39.65,5.03,1.21,5.79.69.94,4.84.84,5.8,2.72.5,1.03-4.32,4.35-4.64,4.41-6.14,1.18-7-16.35-2.37-12.92Z"/>
      <path class="cls-63" d="M34,55c3.64,10.03,14.39,10.08,23.44,8.92,3.69-.48,2.73-2.67,5.56-2.92-.59,5.62-17.43,4.75-21.48,3.98-3.36-.64-10.1-6.07-7.52-9.98Z"/>
      <path class="cls-48" d="M39,122c.43,2.3,3.35,5.58,3.08,7.41-.14.94-2.68.92-3.07,2.14-1.1,3.47,7.31,6.48,5.98,10.45-6.07.66-11.8-.67-16-5-.11-.12-.03-1.21-.56-1.98s-2.36-.87-2.48-1.53c-.62-3.3,2.49-2.76,3.06-4.21.28-.7-.18-1.72-.02-2.28.25-.89.96-2.53,1-3,1.04.1,1.37-.35,2-1,2.5-2.57,2.96-2.93,7-1Z"/>
      <path class="cls-41" d="M19,96c.19.22,2.93,4.72,3,5,.44,1.83-.28,4.89,0,7h-2c1.59-8.98-6.19-6.24-7-7-.33-.31-.08-7.45,0-9,1.8.86,4.76,2.57,6,4Z"/>
      <path class="cls-33" d="M39,119c.11.96-.17,2.11,0,3-4.04-1.93-4.5-1.57-7,1-.72-4.99,3.18-8.12,7-4Z"/>
      <path class="cls-64" d="M22,108c.16,1.22.64,2.78,1,4-1.56,4.03-4.41.92-6,1,.76-1.51,2.72-3.43,3-5h2Z"/>
      <path class="cls-30" d="M57,124c.23,3.01-.98,3.34,3,3-.12.42-2.09.98-2.07,1.59.01.36,2.56,5.7,3.07,6.41,3.46,4.86,8.63,3.65,9,4,.35.33-.23,5.63,0,7-6.32-.04-12.68.06-19,0-2.36-1.96-2.3-8.96,0-10,.68-.31,2.72.7,3.06-.54,1.19-4.36-1.62-7.76-3.06-11.46.33.02.67,0,1,0,1.67,0,3.33,0,5,0Z"/>
      <path class="cls-5" d="M72,95c.52.92.91,1.93,1,3-4.49-.31-4.49,10.31,0,10,.02.98-.11,2.05,0,3h-9c-1.62-4.39,1.45-5.7,2-7,2.78-6.46-2.26-7.66,6-9Z"/>
      <path class="cls-31" d="M61,135c-.51-.71-3.05-6.06-3.07-6.41-.02-.61,1.94-1.17,2.07-1.59.51-1.75-.08-6.6,0-9,2.34,2.22.35,13.14,1,17Z"/>
      <path class="cls-63" d="M65,67c-8.46-.79-19.18,1.53-27-1,6.44,1.06,22.15-1.88,27,1Z"/>
      <path class="cls-20" d="M67,70c-1.06,6.2,3.73,17.91-6,16,1.53-4.85-2.61-9.43-.87-14.37.38-1.08,4.8-2.54,5.87-2.63.75-.06,1.09.24,1,1Z"/>
      <path class="cls-58" d="M68,70h2c-.51,2.67.76,14.8-.12,15.92-.33.42-1.65-.08-1.87.08-1.08-3.43.78-11.85,0-16Z"/>
      <path class="cls-44" d="M13,114c-5.63.08-4.49-4.89-5-9l5,9Z"/>
      <path class="cls-40" d="M73,98c.28,3.18-.07,6.74,0,10-4.49.31-4.49-10.31,0-10Z"/>
      <path class="cls-19" d="M56,95c-.01.16,1.59,1.69,1,2.99h-6s0-3,0-3h5.01Z"/>
      <path class="cls-49" d="M51,120c4.31,2.92,5.55-1.85,6,4-1.67,0-3.33,0-5,0-2.62-1.85-.97-3.77-1-4Z"/>
      <path class="cls-7" d="M51,124c1.43,3.7,4.25,7.1,3.06,11.46-.34,1.24-2.38.24-3.06.54.26-4.24.07-8.21-2-12,.63.09,1.35-.05,2,0Z"/>
    </g>
  </g>
</svg>