<?xml version="1.0" encoding="UTF-8"?>
<svg id="_Слой_2" data-name="Слой 2" xmlns="http://www.w3.org/2000/svg" viewBox="0 0 100 151">
  <defs>
    <style>
      .cls-1 {
        fill: #421b10;
      }

      .cls-2 {
        fill: #41190d;
      }

      .cls-3 {
        fill: #f8f8f7;
      }

      .cls-4 {
        fill: #fcd2b4;
      }

      .cls-5 {
        fill: #542e23;
      }

      .cls-6 {
        fill: #f9ceb0;
      }

      .cls-7 {
        fill: #fcd3b5;
      }

      .cls-8 {
        fill: #faddc5;
      }

      .cls-9 {
        fill: #fde3cd;
      }

      .cls-10 {
        fill: #fbdfc8;
      }

      .cls-11 {
        fill: #dea587;
      }

      .cls-12 {
        fill: #fbd1b3;
      }

      .cls-13 {
        fill: #461e12;
      }

      .cls-14 {
        fill: #f0c7aa;
      }

      .cls-15 {
        fill: #2c1f17;
      }

      .cls-16 {
        fill: #985940;
      }

      .cls-17 {
        fill: #d59a7d;
      }

      .cls-18 {
        fill: #facfb1;
      }

      .cls-19 {
        fill: #d19175;
      }

      .cls-20 {
        fill: #2c1e17;
      }

      .cls-21 {
        fill: #864832;
      }

      .cls-22 {
        fill: #baada9;
      }

      .cls-23 {
        fill: #cb886b;
      }

      .cls-24 {
        fill: #4e261a;
      }

      .cls-25 {
        fill: #e5a07c;
      }

      .cls-26 {
        fill: #d4987b;
      }

      .cls-27 {
        fill: #d69274;
      }

      .cls-28 {
        fill: #b0a7a6;
      }

      .cls-29 {
        fill: #facdaf;
      }

      .cls-30 {
        fill: #9b8279;
      }

      .cls-31 {
        fill: #fdd4b6;
      }

      .cls-32 {
        fill: #e8e3e1;
      }

      .cls-33 {
        fill: #451e13;
      }

      .cls-34 {
        fill: #cb886c;
      }

      .cls-35 {
        fill: #441e13;
      }

      .cls-36 {
        fill: #5c3427;
      }

      .cls-37 {
        fill: #451d11;
      }

      .cls-38 {
        fill: #57463d;
      }

      .cls-39 {
        fill: #4c2417;
      }

      .cls-40 {
        fill: #492216;
      }

      .cls-41 {
        fill: #663d32;
      }

      .cls-42 {
        fill: #3f2923;
      }

      .cls-43 {
        fill: #4a2317;
      }

      .cls-44 {
        fill: #68463b;
      }

      .cls-45 {
        fill: #e2a07d;
      }

      .cls-46 {
        fill: #fcd1b3;
      }

      .cls-47 {
        fill: #fce3cc;
      }

      .cls-48 {
        fill: #e19d79;
      }

      .cls-49 {
        fill: #874932;
      }

      .cls-50 {
        fill: #6c483b;
      }

      .cls-51 {
        fill: #39221b;
      }

      .cls-52 {
        fill: #fce2cc;
      }

      .cls-53 {
        fill: #482014;
      }

      .cls-54 {
        fill: #e7a581;
      }

      .cls-55 {
        fill: #9a8680;
      }

      .cls-56 {
        fill: #f8dac4;
      }

      .cls-57 {
        fill: #472a22;
      }

      .cls-58 {
        fill: #d28f72;
      }

      .cls-59 {
        fill: #e4a17d;
      }

      .cls-60 {
        fill: #fbe0c9;
      }

      .cls-61 {
        fill: #3d251e;
      }

      .cls-62 {
        fill: #5d3c34;
      }

      .cls-63 {
        fill: #d89c7e;
      }
    </style>
  </defs>
  <g id="_Слой_6_Изображение" data-name="Слой 6 Изображение">
    <g>
      <path class="cls-33" d="M42,137c.19,5.25.91,9.34-4.01,12.49l-6.99,1.51c-.33,0-.67,0-1,0-.36-.01-6.59-1.34-7-1.51-1.4-.59-2.08-2.58-3-3.49l1-2c.58.23,2.17-.31,3.33.16,1.59.65.94,2.65,3.12,2.92,1.35.17,5.8.23,6.92-.04,1.18-.29.48-1.9.63-2.04.43-.41,2.69-1.98,3-2,.2-.01,1.12,1.32,1.99,1l.02-7.99c.87-.33,1.81,1.01,1.99,1Z"/>
      <path class="cls-25" d="M69,10c1.34,4.12,5.94,8.64,6.77,12.73.77,3.76-.64,9.9.34,12.66.72,2.02,3.63,1.05,3.95,2.22.3,1.09.1,6.79-.07,8.4-.04.33.05.68,0,1l-9.37,2.9c-1.55,1.63-1.01,3.31-.63,5.1-2.36,1.72-12.45,2.48-9,7-1.56,0-7.27,2.25-8.42,3.08-4.41,3.2-.27,19.38-1.58,24.91,5.04-.2,2.19-6.81,3.2-10.29.56-1.91,6-10.31,7.8-11.7,9.62-1.29-2.05,6.25,2.1,9.89,2.44,2.14,7.12-2.38,8.9-3.89.9-.76,1.06-3.17,2.96-1.96.11.07-.04,1.19.4,1.55,3.19,2.54,5.4,4.65,9.63,5.41-.46,3.23-2.26,1.94-2.85,3.63-.63,1.81.04,4.4-.15,6.37-1.52-3.09-1.69-8.66-2.01-8.99-.26-.27-6.59-.25-7.4-.06-1.24.28-.35,1.67-.59,2.05-.67,1.08-1.96,1.87-2,2-1.8-5.61-12.74-1.9-13.8,1.69-1.59,5.4-.35,5.35,3.8,5.31l-1,3c-.4.07-5.32,2.63-5.53,2.97-1.71,2.82,1.8,7.12-3.47,6.03-1.79,1.61,4.98,4.78,6.6,4.97,8.02.97,10.03-6.32,9.41-12.97.33.01.67.01,1,0,8.97,6.27-9.31,17.87-8.99,19.49,1.24,6.43,11.95-8.61,12.99-7.49h1c-.26,2.55.33,5.51,0,8-2.57-.12-2.54,1.48-3.48,3.02-3.59,5.92-4.8,5.66.48,9.98v1c-5.32-2.04-11.43-2.44-10,5-1.69-2.03-1.3-7.98-2-11,.32-.41.54-.71,1-1,1.74-1.1,2.72.87,2-5l-8.01.52c-2.59-2.1,1.37-1.41,2.01-3.03,1.02-2.58-6.79-8.8-9.93-6.39-.39.3.11,1.6-.06,1.9-1.23,2.09-3.6,3.17-2.99,6,.64-.05,1.42.13,1.99,0,.45,1.97-1.65,2.44-2,3-2.45,3.86-.08,9.91-1.01,14.27-.22,1.05-1.67,1.23-1.99,1.73-1.73,2.68-.9,4.88-1,8-.31.02-2.57,1.59-3,2,.58-.94,1.42-9.59,1-10h-8c.2-.85-.2-2.13,0-3,.22-.18,1.29.6,2.02-.67,1.13-1.96.88-4.4-.02-6.33,8.72-2.79-2.57-17.24-4-7-.12-.25-1.61-.41-1.99-2.48-1.28-6.94.9-17.17-.01-24.52.47.01,1.49-.98,2-1,.11,0,.24,1.24.99,1,.76-1.41-2.69-10.49-3.13-10.86-.24-.2-5.85-1-6.28-.93-1.14.19-1.2,1.46-1.57,1.79-.7.61-1.34,1.34-2,2-1.5-2.55-1.21-6.66-4.51-7.99-2.49-1-1.38,5.2-1.49,5.99-3.76.87-1.39-5.89-2-9,.09-.19,1.46-.38,1.82-1.64.67-2.39-.11-4.36,1.18-7.36,2.29,1.51.16,6.52,1.13,7.87.32.46,3.06.75,4.14,1.34,1.88,1.03,2.88,3.53,4.76,2.32.29-.18,2.57-4.02,3.97-5.54,5.37.46.14,2.37-.02,2.67-3.78,7.34,8.82,9.46,10.8,2.58.97-3.38-6.06-4.9-7.79-7.24-.72-.97.11-3.34-2.23-4.34s-8.29-1.01-11.77-1.66c1.7-3.15,11.33-2.44,14.47-1.95,1.66.26,2.82,1.81,3.53,1.95-2.93,5.87,5.33,7.29,8.03,11.47,3.68,5.7,4.09,12,4.48,18.54,2.23,0,2.36-1.74,2.54-3.46.49-4.56,1.44-17.21-.24-20.87-.75-1.63-8.73-4.97-10.82-5.68,2.57.97,2.48-2.45,1.99-2.97-.32-.34-7.7-1.74-8.77-3.25-.76-1.08-.27-4.79-1.43-5.58-.7-.48-2.59-.07-3.77-.69-2.97-1.56-5.98-9.38-3.91-11.44.42-.42,2.72.52,2.95-.6.67-3.21-1.14-6.8-1.1-9.9.04-2.79,1.34-4.39,2.03-6.56.29,4.64-.53,9.7.24,14.26.22,1.29,3.69,10.01,4.29,10.71.39.47,10.2,4.6,11.2,4.8,7.96,1.64,20.28-.36,25.11-7.45,6.14-9.02,5.76-21.35-1.83-29.33l4-4c.56.18,3.64.97,4,1ZM26,83.99c5.18.29,8.68,1.7,10.99,6.52,1.91,1.42,2.46-3.2,1.48-5.5-2.86-6.72-15.16-3.95-12.48-1.02ZM32.76,94.21c-15.24,2.17-.82,18.14,8.22,14.26,5.09-2.18,1.86-5.03,1.29-7.25-.43-1.69.05-4.02-.73-5.27-1.13-1.81-6.67-2.04-8.78-1.74ZM39,125.01c-.28-3.13,1.57-8.99-2.99-9v9s2.99,0,2.99,0Z"/>
      <path class="cls-51" d="M63,3c2.94,1.94,5.5,2.5,7.01,3.53,1.03.71.82,2.32.99,2.47-.58.18-1.6,1.04-2,1-.36-.03-3.44-.82-4-1-6.39-2.07-7.18-3.51-15-4-4.8-.3-11.72-.61-16,1-3.21.7-8.91,6.25-11,9-6.05,7.97-2.47,11.56-4.01,19.49-.61,3.15-4.69,4.54-3,10.81.27,1.01,2.08,1.04,2.47,1.74.72,1.29.38,2.69.54,2.96-7.31.69-6.88-12.92-5.99-17.49.43-2.22,2.55-2.82,2.97-5.03.52-2.71-.6-6.08.21-8.79.18-.62,6.89-9.51,7.77-10.23,1.36-1.12,6.48-3.91,8.03-4.47,8.22-2.94,21.95.11,31-1Z"/>
      <path class="cls-1" d="M26,90c-.51.02-1.53,1.01-2,1-.13,0-1.01-1.38-1.99-1,.25,1.86.97,3.52,1.05,5.44.44,10.71-1.65,17.45,1.95,27.55-.26-.03-.79-.08-1,0-.74.27-.73.15-1,1-.78-.73-2.39-1.3-3-2v-16s-1,1-1,1c-3.93-1.93-7.07-.08-11-2-.61-3.34,1.37-1.43,3-2,1.15-.4,1.2-.55,2-1,5.76,1.13,7.13-2.25,6.07-7.45-.23-1.14-2.56-.2-2.96-.6-.73-.74.56-4.91-.26-5.81-.37-.41-3.45-.17-3.86-1.65-.28-1.01,1.12-2.41,1-2.48.35-.32.67-.67,1-1,.66-.66,1.3-1.39,2-2,7.93-1.63,6.87,3.79,10,9Z"/>
      <path class="cls-13" d="M83,91c1.21,6-1.32,4.33-3,6-3.48,3.45-5.93,9.81-3.08,14.33,1.91,3.03,8.57.31,11.08,2.67-.55.38-.41,1.61-2.47,1.99-2.6.48-5.82-.27-8.53.01-1.87,8.27,5.86,12.01,2,20-.76.1-1.71-.97-2-1-.16-2.35.44-5.02-.22-7.29-.77-2.67-5.81-5.9-5.87-6.32-.17-1.32,1.74-3.83,2.08-6.39s-.26-5.45,0-8c.2-1.95,2.39-12.47,2-13,1.39-.27,3.91.39,5,0,.84-.3,1.05-2.37,2-3,.21-.14.68.11,1,0Z"/>
      <path class="cls-43" d="M11,61c-.4.73-1.75,1.43-2,2-1.29,3-.51,4.97-1.18,7.36-.35,1.26-1.72,1.45-1.82,1.64-1.27,2.54-2.6,9.45,1,10.5-2.99,2.06-2.71,3.41-3,6.5-.37,3.95.33,8.96,1,12-1.85-.8-3.56-1.13-4.01-3.5-.69-3.65-.6-22.08-.05-26.06.43-3.14,1.92-3.12,2.84-5.19,1.96-4.41-1.46-2.14,4.21-6.25.9.65,1.99.69,3,1Z"/>
      <path class="cls-26" d="M84,91c4.54-1.61,1.43-2.64,2.61-5.02,2.62-5.3,4.71.86,7.39,1.02-.43,3.96.47,2.84.93,5.53.52,2.99-1.78,7.52,3.07,6.47-.28,1.26-1.95,1.84-2,2-.97-.23-2.42-2.97-3.52-1.02-.5.89-1.99,8-2.48,10.02-.56.12-1.84-.18-2,0,1.98-3.75.19-8.93.98-12.3.32-1.38,3.78-1.09,3.02-3.7-2.3-1.91-10.2,4.13-12,5.99v-3c1.68-1.67,4.21,0,3-6,.3-.1.7.11,1,0Z"/>
      <path class="cls-40" d="M71,9c9.6,8.43,11.47,20.73,11,33.55-.07,1.92,1.03,4.01-2,3.45.17-1.61.37-7.3.07-8.4-.33-1.17-3.23-.2-3.95-2.22-.99-2.76.42-8.89-.34-12.66-.83-4.09-5.43-8.6-6.77-12.73.4.04,1.42-.82,2-1Z"/>
      <path class="cls-39" d="M44,116c.12-.03.69-1.45,2-1-.27,5.52,2.29,3.19,5,1-.07,1.04.9,2.24,1,3,.24,1.88-.16,4.06,0,6-.67-1.55-2.89-3.04-2.01-6.01-9.96-2.4-1.01,17.53-7.99,18.01-.18.01-1.12-1.33-1.99-1l-.02,7.99c-.87.33-1.79-1.01-1.99-1,.1-3.12-.73-5.32,1-8,3.5.12,2.76.62,3-2.45.35-4.44-.25-9.09,0-13.55.35-.56,2.45-1.03,2-3Z"/>
      <path class="cls-57" d="M76,135c.32-.01.68-.04,1,0,.29.03,1.24,1.1,2,1-3.28,6.8-15.12,5.62-21.34,4.02-1.26-.32-.49-1.86-.66-2.02.18-.63.96-1.49,1-2,2.49,1.3,5.9,1.29,8.62,1.07,1.78-.14,3.05-1.04,3.38-1.07,2.03-.21,3.97-.91,6-1Z"/>
      <path class="cls-35" d="M59,122c-.46.29-.68.59-1,1-2.67,3.41.3,8.83,0,13-.04.51-.82,1.37-1,2-4.71-4.75-2.12-3.79-3.05-9.47-.28-1.7-1.46-2.39-1.95-3.53-.16-1.94.24-4.12,0-6,3.8.49,9.95-2.78,7,3Z"/>
      <path class="cls-37" d="M20,51c4.96-2.95,4.29,3.21,5.51,4.99,1.51,2.19,6.78.33,5.49,5.01-.32-.07-.68.06-1,0-.7-.14-1.87-1.69-3.53-1.95-3.15-.49-12.77-1.2-14.47,1.95-.34-.06-.72.09-1,0-1.01-.31-2.1-.35-3-1,.67-.49.8-2.22,2.69-2.79,2.9-.87,8.54-.19,11.33-1.69,1.89-1.02-1.27-3.19-2.02-4.52Z"/>
      <path class="cls-36" d="M80,47c-.91,5.84-10.22,7.28,0,12-1,.05-2.01-.05-3,.01l1,1.99c-.67,0-1.33,0-2,0-.39-4.84-4.35,1.64-6-6-.39-1.79-.92-3.47.63-5.1l9.37-2.9Z"/>
      <path class="cls-25" d="M22,20c-.7,2.17-2,3.77-2.03,6.56-.04,3.11,1.77,6.69,1.1,9.9-.24,1.12-2.53.18-2.95.6-2.07,2.06.94,9.88,3.91,11.44,1.18.62,3.07.21,3.77.69,1.16.8.68,4.51,1.43,5.58,1.07,1.52,8.45,2.91,8.77,3.25.49.53.58,3.95-1.99,2.97-2.01-.69-2.52.11-3,0,1.29-4.68-3.98-2.83-5.49-5.01-1.22-1.77-.55-7.94-5.51-4.99-.17-.3-.75-.58-1-1-.16-.28.18-1.67-.54-2.96-.39-.7-2.2-.73-2.47-1.74-1.69-6.28,2.39-7.66,3-10.81,1.54-7.93-2.04-11.52,4.01-19.49-.09,1.71-.48,3.38-1,5Z"/>
      <path class="cls-21" d="M28,132c-3.63,2.97-1.75,6.27-8,5,.24-2.13.75-5.02,0-7,.79-.75,1.18-.74,2-2h1c3.72,2.38,3.09-1.94,2-5,5.68.73,3.89,5.15,3,9Z"/>
      <path class="cls-24" d="M98,99c-4.85,1.05-2.56-3.48-3.07-6.47-.46-2.69-1.36-1.57-.93-5.53.21-1.95.86-3.68,1-6,.02-.33,0-.67,0-1,4.2,1.47,3.76,15.6,3,19Z"/>
      <path class="cls-5" d="M20,137c-.23,2.07-3.12,5.37,1,7l-1,2c-4.45-4.43-4.97-5.27-4.08-12.53.28-2.25,2.54-2.01,4.08-3.47.75,1.98.24,4.87,0,7Z"/>
      <path class="cls-44" d="M80,100c-2.08,2.17-4.15,5.78-2.73,8.76s6.95,4.07,10.08,3.26c1.08-.28.52-1.88.65-2.02.16-.18,1.44.12,2,0-.14.56.09,1.36,0,2-.13.13.26,1.32-.25,1.75-.6.51-1.55.11-1.75.25-2.51-2.36-9.17.36-11.08-2.67-2.85-4.53-.4-10.88,3.08-14.33v3Z"/>
      <path class="cls-61" d="M96,101c-.82,2.51-.72,5.12-1.52,6.98-.7,1.63-3.33,2.87-4.48,4.02.09-.64-.14-1.44,0-2,.49-2.02,1.98-9.13,2.48-10.02,1.1-1.96,2.55.79,3.52,1.02Z"/>
      <path class="cls-41" d="M7,96c.23,3.52,1.11,4.97,4,7-1.63.57-3.61-1.34-3,2-2.21-1.08-2.51-1.76-3-4-.67-3.04-1.37-8.05-1-12h1c-.45,2.07-.44,6.36,2,7Z"/>
      <path class="cls-28" d="M34,2c4.86-.47,23.99-.88,28,0,.53.12.75.83,1,1-9.05,1.11-22.78-1.94-31,1-.28-2.7.07-1.81,2-2Z"/>
      <path class="cls-3" d="M62,2c-4.01-.88-23.14-.47-28,0,6.87-1.76,15.29-1.09,22.51-1.02,1.69.02,4.45-.64,5.49,1.02Z"/>
      <path class="cls-30" d="M94,72h-1.99s0,8,0,8l-2-8c-1.99-1.42.1-3.87,0-6h1c1.04,1.34,2.51,4.4,3,6Z"/>
      <path class="cls-11" d="M90,65v1c.1,2.13-1.99,4.58,0,6,.06.99-.17,1.46-1,2-2.39-2.65-2.86-5.76-4-9,1.68.04,2.84-1,3-1,.28,0,1.57.73,2,1Z"/>
      <path class="cls-15" d="M80,59c1.57-.07,3.99-.31,5.36.14,1.89.61,1.25,2.28,1.64,2.86-2.43-.28-5.44.02-8,0-.33,0-.67,0-1,0v-1l-1-1.99c.99-.06,2,.04,3-.01Z"/>
      <path class="cls-38" d="M94,72c1,3.3,1.07,4.34,1,8,0,.33.02.67,0,1-1-.04-2.01.06-3,0v-9s2,0,2,0Z"/>
      <path class="cls-63" d="M87,62c.18.02.62.81,1,1v1c-.16,0-1.32,1.04-3,1-2.87-.07-4.72.06-6-3,2.56.02,5.57-.28,8,0Z"/>
      <path class="cls-55" d="M20,122c-2.34-2.71-.37-11.13-1-15l.99-1v16Z"/>
      <path class="cls-62" d="M23,127c0-.33,0-.67,0-1,0-.62-.14-1.57,0-2,.27-.85.26-.73,1-1l-1,4Z"/>
      <path class="cls-22" d="M23,127v1h-1c.28-.44.08-1.61,1-2,0,.33,0,.67,0,1Z"/>
      <path class="cls-50" d="M91,66h-1v-1c.36.23.74.66,1,1Z"/>
      <path class="cls-20" d="M88,63c-.38-.19-.82-.98-1-1,.24.36.74.63,1,1Z"/>
      <path class="cls-34" d="M28,135c-.04.15-1.65.46-2,2.48-1.33,7.68,6.85,11,9,7.52-.15.14.56,1.75-.63,2.04-1.12.27-5.56.21-6.92.04-2.18-.27-1.53-2.27-3.12-2.92-1.16-.47-2.75.07-3.33-.16-4.12-1.63-1.23-4.93-1-7,6.25,1.27,4.37-2.03,8-5-.2.87.2,2.14,0,3Z"/>
      <path class="cls-31" d="M50,6c1.88.3,9.66,5.59,11,7,7.58,7.98,7.97,20.31,1.83,29.33-4.82,7.09-17.14,9.09-25.11,7.45-1-.21-10.8-4.34-11.2-4.8-.59-.7-4.07-9.42-4.29-10.71-.77-4.56.05-9.63-.24-14.26.52-1.62.91-3.29,1-5,2.09-2.75,7.79-8.3,11-9,2.14-.47,13.6-.38,16,0Z"/>
      <path class="cls-9" d="M32.76,94.21c2.11-.3,7.66-.06,8.78,1.74.78,1.24.3,3.58.73,5.27.57,2.22,3.8,5.07-1.29,7.25-9.04,3.88-23.46-12.08-8.22-14.26Z"/>
      <path class="cls-52" d="M34,61c2.09.72,10.07,4.05,10.82,5.68,1.68,3.66.73,16.31.24,20.87-.18,1.71-.31,3.45-2.54,3.46-.39-6.54-.81-12.84-4.48-18.54-2.69-4.18-10.96-5.61-8.03-11.47.32.06.68-.07,1,0,.48.11.99-.69,3,0Z"/>
      <path class="cls-7" d="M78,62c.33,0,.67,0,1,0,1.28,3.06,3.13,2.93,6,3,1.14,3.24,1.61,6.35,4,9-.75.49-2.47.67-2.82,1.19-.59.88,0,2.08-.18,2.81-.07.29.05.66,0,1-4.23-.75-6.45-2.87-9.63-5.41-.45-.36-.3-1.48-.4-1.55-1.9-1.22-2.07,1.19-2.96,1.96-.14-1.07-.43-2.08-1-3,3.55-7.24-.4-5.61-6-7,0-.33-.04-.68,0-1,.04-.35-.08-.73,0-1,3.99.02,8.01-.02,12,0Z"/>
      <path class="cls-47" d="M61,62c1.37,0,3.36,1.21,5,1-.04.32,0,.67,0,1v2c-.22,0-3.43,1.56-4,2-1.79,1.4-7.24,9.8-7.8,11.7-1.01,3.48,1.84,10.09-3.2,10.29,1.31-5.53-2.83-21.71,1.58-24.91,1.15-.83,6.85-3.07,8.42-3.08Z"/>
      <path class="cls-47" d="M67,95c.62,6.66-1.38,13.94-9.41,12.97-1.62-.2-8.39-3.36-6.6-4.97,5.27,1.09,1.76-3.21,3.47-6.03.21-.34,5.13-2.9,5.53-2.97,3.04-.55,5.17.93,7,1Z"/>
      <path class="cls-4" d="M12,61c3.48.65,9.37.64,11.77,1.66s1.51,3.36,2.23,4.34c-1.76.5-1.84.74-3,2-1.4,1.52-3.68,5.35-3.97,5.54-1.88,1.21-2.88-1.28-4.76-2.32-1.08-.59-3.82-.89-4.14-1.34-.96-1.35,1.16-6.36-1.13-7.87.25-.57,1.6-1.27,2-2,.28.09.66-.06,1,0Z"/>
      <path class="cls-56" d="M28,135h8c.42.41-.43,9.06-1,10-2.14,3.49-10.32.16-9-7.52.35-2.02,1.96-2.33,2-2.48Z"/>
      <path class="cls-58" d="M71,85c-1.82,6.42,1.84,5.67,2,6,.2.41-.47,1.84.29,2.71.45.51,1.65.22,1.71.29.39.53-1.8,11.05-2,13h-1l-1-12.99c-1.48-.68-2.75.99-3,.99-.33.01-.67.01-1,0-1.83-.07-3.96-1.55-7-1l1-3c.33,0,.68.04,1,0,4.84-.54,5.86-1.07,8-5,.21-.4.66-.7,1-1Z"/>
      <path class="cls-46" d="M26,67c1.73,2.35,8.76,3.86,7.79,7.24-1.99,6.89-14.58,4.76-10.8-2.58.15-.3,5.39-2.21.02-2.67,1.16-1.26,1.24-1.5,3-2Z"/>
      <path class="cls-10" d="M71,84c-.1.29.09.69,0,1-.34.3-.79.6-1,1-5.87-.08-7.35-1.51-8,5-.32.04-.67,0-1,0-4.15.05-5.39.09-3.8-5.31,1.06-3.6,12-7.3,13.8-1.69Z"/>
      <path class="cls-49" d="M73,115c-.34,2.56-2.26,5.07-2.08,6.39.06.43,5.09,3.65,5.87,6.32.65,2.26.06,4.94.22,7.29-.32-.04-.68-.01-1,0,.68-4.65-3.93-5.31-6-7-5.28-4.31-4.07-4.06-.48-9.98.94-1.54.91-3.15,3.48-3.02Z"/>
      <path class="cls-53" d="M82,91c-.95.63-1.16,2.7-2,3-.31-4.05-6.82-11.08-7-3-.16-.33-3.82.42-2-6,.09-.31-.1-.71,0-1,.04-.13,1.33-.92,2-2,9.25-4.14,5.56,3.93,9,9Z"/>
      <path class="cls-12" d="M70,129v7c-3.23-.02-7.7.76-10-2-1.43-7.44,4.68-7.04,10-5Z"/>
      <path class="cls-60" d="M72,71c.57.92.86,1.93,1,3-1.78,1.52-6.46,6.03-8.9,3.89-4.15-3.64,7.52-11.18-2.1-9.89.57-.44,3.78-2.01,4-2,1.1.03,5.22,3.76,6,5Z"/>
      <path class="cls-6" d="M86,78c3.32.24,1.35,2.74,6,3,.99.06,2-.04,3,0-.14,2.32-.79,4.05-1,6-2.68-.16-4.77-6.32-7.39-1.02-1.18,2.39,1.93,3.41-2.61,5.02-.32-.68-.67-1.33-1-2,.19-1.97-.48-4.56.15-6.37.58-1.69,2.39-.4,2.85-3.63.05-.34-.07-.71,0-1Z"/>
      <path class="cls-27" d="M68,95c.25,0,1.52-1.67,3-.99l1,12.99c-1.04-1.12-11.75,13.91-12.99,7.49-.31-1.62,17.96-13.21,8.99-19.49Z"/>
      <path class="cls-53" d="M45,110c5.22-3.42,5.14,2.09,9,3.02.52.7-2.39,2.49-3,2.98-2.72,2.19-5.27,4.52-5-1-1.3-.44-1.88.98-2,1-.57.12-1.35-.06-1.99,0-.6-2.82,1.76-3.9,2.99-6Z"/>
      <path class="cls-25" d="M24,91c.92,7.35-1.26,17.58.01,24.52.38,2.07,1.87,2.23,1.99,2.48,1.36,2.94,3,4.84,4,7,.89,1.93,1.15,4.38.02,6.33-.73,1.27-1.8.49-2.02.67.89-3.85,2.68-8.27-3-9-3.6-10.1-1.5-16.84-1.95-27.55-.08-1.92-.8-3.59-1.05-5.44.98-.38,1.86.99,1.99,1Z"/>
      <path class="cls-8" d="M26,83.99c-2.69-2.93,9.61-5.7,12.48,1.02.98,2.3.42,6.92-1.48,5.5-2.31-4.83-5.81-6.24-10.99-6.52Z"/>
      <path class="cls-18" d="M26,118c1.43-10.24,12.72,4.21,4,7-1-2.16-2.64-4.06-4-7Z"/>
      <path class="cls-16" d="M70,55c1.65,7.64,5.61,1.16,6,6-1.4,0-2.9.26-4.26-.2-2.64-.89-3.6-5.7-5.74,1.2-.08.27.04.65,0,1-1.64.21-3.63-1.01-5-1-3.45-4.52,6.64-5.28,9-7Z"/>
      <path class="cls-25" d="M65,9l-4,4c-1.34-1.41-9.12-6.7-11-7v-1c7.82.49,8.61,1.93,15,4Z"/>
      <path class="cls-29" d="M14,83c-.33.33-.65.68-1,1-.59-.37-3.97-.22-5-2,.06-.32-.05-.67,0-1,.11-.79-1.01-6.99,1.49-5.99,3.31,1.33,3.02,5.44,4.51,7.99Z"/>
      <path class="cls-48" d="M76,135c-2.03.09-3.97.79-6,1v-8c2.07,1.69,6.68,2.35,6,7Z"/>
      <path class="cls-25" d="M60,134c2.3,2.76,6.77,1.98,10,2-.33.03-1.6.93-3.38,1.07-2.73.22-6.13.23-8.62-1.07.3-4.17-2.67-9.59,0-13,.7,3.02.31,8.97,2,11Z"/>
      <path class="cls-25" d="M16,81c.38-.33.43-1.6,1.57-1.79.43-.07,6.04.73,6.28.93.44.37,3.89,9.44,3.13,10.86-.74.24-.88-1.01-.99-1-3.13-5.21-2.07-10.63-10-9Z"/>
      <path class="cls-7" d="M39,125.01h-2.99s0-9,0-9c4.57.02,2.71,5.87,2.99,9Z"/>
      <path class="cls-23" d="M6,72c.61,3.11-1.76,9.87,2,9-.05.33.06.68,0,1-.56,3.16-2.67,5.46-3,7h-1c.29-3.1,0-4.45,3-6.5-3.6-1.04-2.27-7.95-1-10.5Z"/>
      <path class="cls-25" d="M73,82c.24-.38-.65-1.77.59-2.05.82-.19,7.15-.21,7.4.06.32.34.49,5.9,2.01,8.99.33.67.68,1.32,1,2-.3.11-.7-.1-1,0-.32.11-.79-.14-1,0-3.44-5.07.25-13.14-9-9Z"/>
      <path class="cls-25" d="M45,110c.17-.29-.33-1.59.06-1.9,3.14-2.41,10.95,3.81,9.93,6.39-.64,1.61-4.59.92-2.01,3.03l8.01-.52c.72,5.87-.25,3.9-2,5,2.95-5.78-3.2-2.51-7-3-.1-.76-1.07-1.96-1-3,.61-.49,3.52-2.27,3-2.98-3.86-.93-3.78-6.45-9-3.02Z"/>
      <path class="cls-25" d="M42,119c-.25,4.46.35,9.11,0,13.55-.24,3.07.49,2.57-3,2.45.32-.5,1.76-.68,1.99-1.73.93-4.36-1.43-10.41,1.01-14.27Z"/>
      <path class="cls-42" d="M50,5v1c-2.4-.38-13.86-.47-16,0,4.28-1.61,11.2-1.3,16-1Z"/>
      <path class="cls-14" d="M7,96c-.8-12.18,10.49-1.99,9.61,2.07-.19.85-2.98,3.58-3.61,3.93-.8.45-.85.6-2,1-2.89-2.03-3.77-3.48-4-7Z"/>
      <path class="cls-45" d="M13,84c.11.07-1.29,1.47-1,2.48.41,1.48,3.48,1.24,3.86,1.65.82.9-.47,5.07.26,5.81.4.41,2.73-.53,2.96.6,1.06,5.2-.31,8.58-6.07,7.45.62-.35,3.42-3.08,3.61-3.93.89-4.06-10.4-14.24-9.61-2.07-2.44-.64-2.45-4.93-2-7,.33-1.54,2.44-3.84,3-7,1.03,1.78,4.41,1.63,5,2Z"/>
      <path class="cls-2" d="M23,128v-1l1-4c.21-.08.74-.03,1,0,1.09,3.06,1.72,7.38-2,5Z"/>
      <path class="cls-32" d="M73,91c.18-8.08,6.69-1.05,7,3-1.09.39-3.61-.27-5,0-.06-.08-1.26.22-1.71-.29-.76-.87-.09-2.3-.29-2.71Z"/>
      <path class="cls-7" d="M80,100c1.79-1.86,9.69-7.9,12-5.99.76,2.6-2.69,2.32-3.02,3.7-.79,3.37,1,8.55-.98,12.3-.13.14.43,1.74-.65,2.02-3.13.81-8.62-.2-10.08-3.26s.64-6.59,2.73-8.76Z"/>
      <path class="cls-19" d="M76,61c.67,0,1.33,0,2,0v1c-3.99-.02-8.01.02-12,0,2.15-6.9,3.11-2.09,5.74-1.2,1.36.46,2.86.21,4.26.2Z"/>
      <path class="cls-17" d="M92,80v1c-4.65-.26-2.68-2.76-6-3,.18-.73-.4-1.93.18-2.81.35-.52,2.07-.7,2.82-1.19.83-.54,1.06-1.01,1-2l2,8Z"/>
      <path class="cls-54" d="M66,64c5.6,1.39,9.55-.24,6,7-.78-1.24-4.9-4.97-6-5v-2Z"/>
      <path class="cls-59" d="M70,86c-2.14,3.93-3.16,4.46-8,5,.65-6.51,2.13-5.08,8-5Z"/>
    </g>
  </g>
</svg>