<?xml version="1.0" encoding="UTF-8"?>
<svg id="_Слой_2" data-name="Слой 2" xmlns="http://www.w3.org/2000/svg" viewBox="0 0 71 150">
  <defs>
    <style>
      .cls-1 {
        fill: #d99c7e;
      }

      .cls-2 {
        fill: #421b10;
      }

      .cls-3 {
        fill: #4b2419;
      }

      .cls-4 {
        fill: #d39b7f;
      }

      .cls-5 {
        fill: #4c2519;
      }

      .cls-6 {
        fill: #441d12;
      }

      .cls-7 {
        fill: #8f523b;
      }

      .cls-8 {
        fill: #fde3cd;
      }

      .cls-9 {
        fill: #f8d0b2;
      }

      .cls-10 {
        fill: #d99c7f;
      }

      .cls-11 {
        fill: #fbdfc8;
      }

      .cls-12 {
        fill: #fbd1b3;
      }

      .cls-13 {
        fill: #8a4b33;
      }

      .cls-14 {
        fill: #eccfba;
      }

      .cls-15 {
        fill: #351d16;
      }

      .cls-16 {
        fill: #3a241e;
      }

      .cls-17 {
        fill: #d08d70;
      }

      .cls-18 {
        fill: #8f4f37;
      }

      .cls-19 {
        fill: #482419;
      }

      .cls-20 {
        fill: #e7cbb6;
      }

      .cls-21 {
        fill: #39211b;
      }

      .cls-22 {
        fill: #2e1711;
      }

      .cls-23 {
        fill: #facfb1;
      }

      .cls-24 {
        fill: #8e4f37;
      }

      .cls-25 {
        fill: #d49175;
      }

      .cls-26 {
        fill: #fadfc8;
      }

      .cls-27 {
        fill: #92533a;
      }

      .cls-28 {
        fill: #e3a07c;
      }

      .cls-29 {
        fill: #492013;
      }

      .cls-30 {
        fill: #40180d;
      }

      .cls-31 {
        fill: #8d4c34;
      }

      .cls-32 {
        fill: #623120;
      }

      .cls-33 {
        fill: #e4a07b;
      }

      .cls-34 {
        fill: #e5a17d;
      }

      .cls-35 {
        fill: #fdd4b6;
      }

      .cls-36 {
        fill: #77463b;
      }

      .cls-37 {
        fill: #fcd2b5;
      }

      .cls-38 {
        fill: #441c10;
      }

      .cls-39 {
        fill: #4a251a;
      }

      .cls-40 {
        fill: #fde4ce;
      }

      .cls-41 {
        fill: #dca588;
      }

      .cls-42 {
        fill: #b3a4a0;
      }

      .cls-43 {
        fill: #897b79;
      }

      .cls-44 {
        fill: #301710;
      }

      .cls-45 {
        fill: #d5997c;
      }

      .cls-46 {
        fill: #d3987c;
      }

      .cls-47 {
        fill: #563025;
      }

      .cls-48 {
        fill: #8c4b33;
      }

      .cls-49 {
        fill: #d8997c;
      }

      .cls-50 {
        fill: #8b4d35;
      }

      .cls-51 {
        fill: #653829;
      }

      .cls-52 {
        fill: #311b15;
      }

      .cls-53 {
        fill: #d29275;
      }

      .cls-54 {
        fill: #df9d79;
      }

      .cls-55 {
        fill: #fbd2b4;
      }

      .cls-56 {
        fill: #cd9377;
      }

      .cls-57 {
        fill: #d08c70;
      }

      .cls-58 {
        fill: #512416;
      }

      .cls-59 {
        fill: #442e25;
      }

      .cls-60 {
        fill: #452d26;
      }

      .cls-61 {
        fill: #cf9579;
      }

      .cls-62 {
        fill: #412a24;
      }

      .cls-63 {
        fill: #461e13;
      }

      .cls-64 {
        fill: #603d33;
      }

      .cls-65 {
        fill: #462015;
      }

      .cls-66 {
        fill: #472116;
      }

      .cls-67 {
        fill: #694437;
      }

      .cls-68 {
        fill: #8c4c34;
      }
    </style>
  </defs>
  <g id="_Слой_29_Изображение" data-name="Слой 29 Изображение">
    <g>
      <path class="cls-52" d="M16,49c-4.2-.28-6.57-5.7-7-9.5-1.09-9.54.38-28.08,9.47-33.53,1.92-1.15,3.7-.94,5.31-1.67,1.24-.56,1.08-2.09,1.92-2.28,3.51-.78,26.75-1.19,28.31-.02.22.16-.22,1.85,0,2l-1,1c-3.25-1.51-9.32-1.1-13-1-8.47.24-17.61,2.17-23.03,9.47-4.96,6.68-4.53,17.42-3.97,25.53.3,4.38.8,6.14,3,10Z"/>
      <path class="cls-31" d="M17,49c.37-.03,1.32-1.4,3.4-1.05s3.14,2.29,4.89,3.3c1.17.67,3.59.63,3.72.77.59.64-3.3,5.49,2.94,9.55,3.59,2.33,4.63,1,8.06,1.44,3.08.4,5.38,1.65,9.45.94,3.81-.66,6.12-4.86,10.55-3.94-.02.31-.05.7,0,1,.11.62-.18,1.72,0,2,.39,1.47,1.53,2,3,2v1c-.6.06-.83.5-1,1h-31c-.98-1.94-3.13-2.4-4-3-.3-.21-.54-.77-1-1-.14-3.16-1.59-2.77-4-3,3.28-4.62-.42-9.3-5-11Z"/>
      <path class="cls-9" d="M22,139c.33-.04.67.02,1,0,3.3-.17,6.69,0,10,0h9c.03,3,.83,4.88,1,7,.04.49,0,.99,0,1.48-.18.68-.67.4-.99.52.56-3.02-1.53-1.94-3.45-2-6.17-.21-12.38.15-18.55,0-1.2-3.18-1.88-6.52,2-7Z"/>
      <path class="cls-2" d="M36,108c.13,2.08.13,4.15-1,6-.67,0-1.33,0-2,0-1.29,0-6.76-.25-7.01,0-.51.5,1.35,9.86-2.99,11-.01-.18-.92-1.09-1-2-.19-2.25.49-5.39.01-7.29-.18-.73-2.02-1.37-2.88-2.34-.61-.68-.73-1.91-1.13-2.37l1-1c1.38,1.65,2.13.86,4,1s4.07.06,6,0c1-.03,2.01.05,3,0,.12-1.98-.16-4.03,0-6.01.2-2.48-1-5.96,2-7,1.12,2.73,1.82,7.05,2,10Z"/>
      <path class="cls-6" d="M63,86c.67,0,1.33,0,2,0-.13.15.12,1.15-.35,1.62-1.38,1.38-3.8,1.87-4.45,4.08-.78,2.68.4,5.96-.4,8.59-.44,1.43-2.32,2.03-2.78,4.21-1.14,5.45.14,5.46,2.98,8.49l-2,2c-.2-.37-.83-.66-1-1-1.38-2.78-2.58-3.99-3-7-.17-1.24.07-2.7,0-4s.07-2.67,0-4c4.55-.36,3.25-8.08,3-12,1.86-1.23,3.92-.99,6-1Z"/>
      <path class="cls-66" d="M60,113c.76.81,2.29.9,2.8,2.68,2,6.97.08,16.07-8.8,15.32-.55,2.4,1.95,2.88,3,3.99l-1,2c-2.5-2.44-8.17-2.88-5.55-9.07.87-1.3,2.52-.69,3.55-.93.73-.17,1.67.38,2.73-.25.26-.15,4.08-4.12,4.18-4.41.79-2.28-1.75-5.18-2.91-7.34l2-2Z"/>
      <path class="cls-65" d="M23,125c.04.74.03,4.96,0,6-.08,2.8-1.01,5.23-1,8-3.88.48-3.2,3.82-2,7,.2.52-.21,1.84,0,2-4.59-1.72-4.94-4.71-3.98-9.49.43-2.17,2.36-2.78,2.79-4.2,1.06-3.54-1.42-9,3.2-11.3.08.91.99,1.82,1,2Z"/>
      <path class="cls-3" d="M60,145c-5.09.56-11.48-1.26-16,1h-1c-.17-2.12-.97-4-1-7,0-.66-.05-1.35,0-2,.34.32.72.62,1,1,4.46,5.94,7.02,3.76,14.01,4-.07-.97.13-2.05,0-3-.18-1.3-.12-1.14-1-2l1-2c2.69,2.86,4.54,5.29,3,10Z"/>
      <path class="cls-5" d="M68,45h-1v-4c0-8.15-.81-17.16,1-25,.08.17,1.45.44,1.81,1.65.66,2.24.67,22.06.18,24.87-.37,2.1-1.91,2.3-1.99,2.48Z"/>
      <path class="cls-16" d="M63,66c5.34-.55,4.9,15.99,4.02,19.34-.29,1.13-1.92.54-2.02.66-.67,0-1.33,0-2,0v-1c1.58-2.45,1.35-7.74,1.03-10.53-.3-2.61-1.71-3.91-2.03-5.47-.08-.41-.11-1.69,0-2,.17-.5.4-.94,1-1Z"/>
      <path class="cls-47" d="M68,16c-1.81,7.84-1,16.85-1,25-2.52-6.11-.1-14.22-.92-20.56-.09-.73-2.6-3.39-3.08-6.44-.19-1.23.13-2.71,0-4,2.64,2.64,2.38.45,5,6Z"/>
      <path class="cls-19" d="M4,70c-1.8,4-1.47,15.53,0,20,.11.5.74.71,1,1-.12.28.12.72,0,1l-1,1h-1c-2.87-4.18-2.58-13.98-2.06-19.56.38-4.11,1.76-3.66,2.06-4.44l1,1Z"/>
      <path class="cls-7" d="M53,5c1.93.9,4.98,4.88,9,4,.23.3.68.68,1,1,.13,1.29-.19,2.77,0,4-4.34,1.08-2.46-2.26-3.13-2.81s-2.61-.06-3.78-.75c-1.94-1.14-5.1-4.76-6.8-5.24-3-.85-6.84.97-9.29-1.21,3.68-.1,9.75-.51,13,1Z"/>
      <path class="cls-15" d="M20,146c6.16.15,12.38-.21,18.55,0,1.93.06,4.01-1.02,3.45,2-.43.15-1.36-.05-2,0-2.61.19-19.2.61-20,0-.21-.16.2-1.48,0-2Z"/>
      <path class="cls-22" d="M22,60c-2.79-.27-6.11,0-9,0h-2c2.63-2.41,9.01.66,9-4s-2.03-3.1-3.48-5.04c-.55-.74-.33-1.62-.52-1.96.32.02.68.03,1,0,4.58,1.7,8.28,6.38,5,11Z"/>
      <path class="cls-44" d="M11,60h2c-.39.6-.58,1.46-1,2-1.49,1.92-3.25,2.94-5,5-.66.77-2.91,2.81-3,3l-1-1c.6-1.55.55-3.25,1.58-4.91,1.25-2.03,3.06-2.72,4.42-4.09h2Z"/>
      <path class="cls-38" d="M8,93c.37,1.54,1.03,3.8,2,5-.09.98.13,2.04,0,3-.06.46-.53.88-1,1-3.45-3.43-3.04-4.68-6-9h1c.67-.04.77-.5,1-1,.12-.28-.12-.72,0-1,.57.64,2.15,1.43,3,2Z"/>
      <path class="cls-39" d="M67,45h1c-1.68,4.12-.31,6.91-1.2,10.34-.31,1.18-1.64,1.4-1.8,1.66-1.62-1.05-1.05-4.15-1-6,.06-2-.05-4.01,0-6.01h3Z"/>
      <path class="cls-62" d="M54,4c.61.45,4.33-.62,5.79.21.91.52,1.62,4.04,2.21,4.79-4.02.88-7.07-3.1-9-4l1-1Z"/>
      <path class="cls-63" d="M10,101c1.75.11,4.32,3.27,6,5,1.57,1.63,2.31,3.17,3,4l-1,1c-1.74-2.01-6.48-6.49-9-9,.47-.12.94-.54,1-1Z"/>
      <path class="cls-21" d="M20,56c0,4.66-6.37,1.59-9,4h-2c.27-.27-.16-2.31,1.61-2.87,2.69-.84,6.62.84,9.39-1.13Z"/>
      <path class="cls-67" d="M65,57c-1.29,2.14-1.33,3.47-5,4-.05-.3-.02-.69,0-1,.31-5.38,1.86-2,2.89-3.06.74-.76-.9-5.18,1.11-5.94-.05,1.85-.62,4.95,1,6Z"/>
      <path class="cls-43" d="M40,148c-5.32,1.5-14.97,1.89-20,0,.8.61,17.39.19,20,0Z"/>
      <path class="cls-42" d="M60,145c-.7,2.15-13.1.48-16,1,4.52-2.26,10.91-.44,16-1Z"/>
      <path class="cls-60" d="M63,65c-1.47,0-2.61-.53-3-2,.32.5,2.89.67,3,2Z"/>
      <path class="cls-35" d="M40,4c2.45,2.18,6.28.37,9.29,1.21,1.69.48,4.86,4.1,6.8,5.24,1.17.69,3.13.22,3.78.75s-1.21,3.88,3.13,2.81c.47,3.04,2.98,5.71,3.08,6.44.82,6.35-1.6,14.45.92,20.56v4h-3c-.05,1.99.06,4,0,6-2.01.76-.37,5.18-1.11,5.94-1.03,1.06-2.58-2.32-2.89,3.06-4.43-.92-6.74,3.28-10.55,3.94-4.07.71-6.37-.54-9.45-.94l-5.99-6.52,4.98-1.49c.31-2.29-2.01-2.77-2.74-4.75s-.41-4.28-1.47-6.53c-.9-1.9-6.34-7.31-8.3-7.69-8.4-1.67-5.71,1.53-8.98,6.95l-4.5-3.98c-.56-8.12-.99-18.85,3.97-25.53,5.42-7.3,14.56-9.23,23.03-9.47ZM47,49c.77,4.09-.09,7.55,5.34,5.84,4.97-1.57-.41-4.02-.35-4.31.22-.96,1.89-2.23,2.01-4.52.28-5.47-5.51-4.35-10-4-9.97.77-4.55,6.96,3,7Z"/>
      <path class="cls-33" d="M13,39l4.5,3.98c3.27-5.42.59-8.62,8.98-6.95,1.96.39,7.39,5.79,8.3,7.69,1.07,2.25.75,4.6,1.47,6.53s3.06,2.46,2.74,4.75l-4.98,1.49,5.99,6.52c-3.43-.45-4.47.89-8.06-1.44-6.24-4.06-2.35-8.91-2.94-9.55-.13-.14-2.54-.09-3.72-.77-1.75-1-2.88-2.96-4.89-3.3s-3.03,1.02-3.4,1.05c-.32.03-.68.02-1,0-2.2-3.86-2.7-5.62-3-10Z"/>
      <path class="cls-8" d="M27,64c.87.6,3.02,1.06,4,3,1.24,2.46,1.54,4.57,0,7-4.77-1.74-5.16,2.33-6.62,2.85-5.1,1.81-9.99-2.39-14.38-3.85-1.11-11.8,8.53-9.24,17-9Z"/>
      <path class="cls-49" d="M62,67c-.11.31-.08,1.59,0,2-.53.94-1.67,2.07-2,3-.85,2.41-.57,10.71,3,8,.02,1.67-.02,3.33,0,5v1c-2.08.01-4.14-.23-6,1-.02-.33.03-.67,0-1-.37-4.59-2.93-3.62-2.98-4.5.79-1.08,3.18-2.28,2.9-3.86-.09-.52-7.05-7.3-7.56-7.47-1.82-.59-5.68-.36-7.64.06-.53.11-9.33,3.43-9.72,3.77h-1c1.54-2.43,1.24-4.54,0-7h31Z"/>
      <path class="cls-45" d="M26,63c.46.23.7.79,1,1-8.47-.24-18.11-2.8-17,9-.72-.24-2.77.28-3,0-.38-.45.25-4.73,0-6,1.75-2.06,3.51-3.08,5-5,3.4.91,8.64-1.02,11.38-.7.91.1,1.78,1.29,2.62,1.7Z"/>
      <path class="cls-56" d="M22,60c2.41.23,3.86-.16,4,3-.84-.42-1.71-1.6-2.62-1.7-2.74-.31-7.98,1.61-11.38.7.42-.54.61-1.4,1-2,2.89,0,6.21-.27,9,0Z"/>
      <path class="cls-34" d="M42,121h1c-.06.32.04.67,0,1-.14,1.3.08,2.68,0,4-4.63-.15-3.65,2.84-4.91,4.36-.15.18-2.71,2.3-3.09,2.64-1.66,1.47-5.04.59-2,6-3.31,0-6.7-.17-10,0,1.38-1.88.61-4.39,1.2-6.34.42-1.39,1.61-1.39,1.8-1.66-.07,2.71-.74,3.35,2.52,3.04,6.59-.61,3.37-6.54,5.7-8.82.96-.94,3.07-.63,4-1.23,1.42-.91,1.43-3.35,3.78-2.99Z"/>
      <path class="cls-30" d="M44,129c-.12,1.88-1.72,4.24-2,8-.05.65,0,1.34,0,2h-2l-5-5c4.68.71,4.55-5.09,8-7-.01.49,1.03,1.57,1,2Z"/>
      <path class="cls-28" d="M29,123c-.88,4.81-.18,3.93-3,8-.18.27-1.38.27-1.8,1.66-.59,1.95.18,4.47-1.2,6.34-.33.02-.67-.04-1,0-.01-2.77.92-5.2,1-8,5.85-.5.27-7.69,6-8Z"/>
      <path class="cls-27" d="M35,133v1l5,5h-7c-3.04-5.41.34-4.53,2-6Z"/>
      <path class="cls-33" d="M29,79c8.67,4.54,7.46,12.97,20.31,9.98.37-.09.44-1.2,2.69-1.98-2.67,4.36-.28,4.15,1,6-3.49.48-3.93,1.07-5,4l-1-3.99h-11c.44,2.44,4.74,3.7,5.5,4.99,1.17,2.01-.4,5.29,2.01,6.99.04-3.72,2.35-2.81,2.49-3,2.11,1.6,5.7,2.56,8,1,.07,1.3-.17,2.76,0,4-4.94,2.73-9.99,8.52-11,14h-1c-.48-2.66.67-7.23.07-9.46-.32-1.17-2.84-.3-3.07-.54-.46-.47,1.5-4.11-3-3-.18-2.95-.88-7.27-2-10-.29-.7-.05-1.4-1-2-2.36-1.51-5.6-.49-8-2-.14-.29.16-.83,0-1,3.11-2.14,6.96-10.41,2-11v-1c2.68.39,1.64-1.03,2-2Z"/>
      <path class="cls-55" d="M13,89c1.17.14,1.97.53,3,1,.59.27,1.59.65,2,1,.33.28,2.94,3.52,3.66,4.4,1.72,2.08-1.96,2.21,4.34,2.6.33.02.67.02,1,0,2.99,1.25,1.99,4.18,2,7,0,2,0,4,0,6-1.93.06-4.09.14-6,0-3.66-2.85-3.54-6.72-5.53-9.97-.41-.67-6.81-7.54-7.47-8.03,2.14.58,2.2-1.33,3.01-2.98-1.02-.02-2.56.12-3.01-1.02.98.08,2.03-.12,3,0Z"/>
      <path class="cls-36" d="M33,114c-2.21,4.23-3.18,2.7-4,8-.05.33.06.68,0,1-5.73.31-.15,7.5-6,8,.03-1.04.04-5.26,0-6,4.34-1.14,2.48-10.5,2.99-11,.25-.25,5.72,0,7.01,0Z"/>
      <path class="cls-53" d="M10,93c.65.5,7.05,7.36,7.47,8.03,2,3.25,1.88,7.11,5.53,9.97-1.87-.14-2.62.65-4-1-.69-.83-1.43-2.37-3-4,.67-4.13-4.17-5.74-6-8-.97-1.2-1.63-3.46-2-5,.35.24,1.69-.24,2,0Z"/>
      <path class="cls-46" d="M35,114h3c-1.85,2.31-6.48,6.52-9,8,.82-5.3,1.79-3.77,4-8,.67,0,1.33,0,2,0Z"/>
      <path class="cls-54" d="M34,98c-3,1.04-1.8,4.52-2,7h-3c0-2.82.99-5.75-2-7,2.25-.1,5.1.74,6-2,.95.6.71,1.3,1,2Z"/>
      <path class="cls-24" d="M32,105c-.16,1.98.13,4.02,0,6.01-1,.04-2-.04-3,0,0-2,0-4,0-6h3Z"/>
      <path class="cls-18" d="M36,108c4.5-1.11,2.54,2.53,3,3-.21.96-.39,2.24-1,3h-3c1.13-1.85,1.13-3.92,1-6Z"/>
      <path class="cls-57" d="M57,114c.17.34.8.63,1,1,1.16,2.15,3.7,5.06,2.91,7.34-.1.29-3.92,4.26-4.18,4.41-1.07.63-2,.08-2.73.25.48-2.39-2.44-2.45-3.01-3.74-.3-.68.17-1.71.01-2.26-.56-2.02-1.52-3.75-1-6,2.18-.17,4.55-1.55,7-1Z"/>
      <path class="cls-48" d="M57,114c-2.45-.55-4.82.83-7,1-.11,0-1.34-1.56-1.99-1-1.71,1.47,1.06,8.6-5.01,8,.04-.33-.06-.68,0-1,1.01-5.48,6.06-11.27,11-14,.42,3.01,1.62,4.22,3,7Z"/>
      <path class="cls-1" d="M57,86c.03.33-.02.67,0,1,.25,3.92,1.55,11.64-3,12-.02-.33.03-.67,0-1-.18-2.31.54-2.78-1-5-1.28-1.85-3.67-1.64-1-6,1.59-.56,3.31-.85,5-1Z"/>
      <path class="cls-41" d="M54,98c.03.33-.02.67,0,1,.07,1.33-.07,2.67,0,4-2.3,1.56-5.89.6-8-1,1.2-1.47,1.35-2.49,2-4h6Z"/>
      <path class="cls-13" d="M51,121c.15.55-.31,1.58-.01,2.26.57,1.29,3.5,1.35,3.01,3.74-1.03.24-2.69-.37-3.55.93-2.62,6.19,3.05,6.63,5.55,9.07.88.86.82.7,1,2-8.05,1.66-3.82-6.7-12.44-5.06-1.23.23.06,3.57-1.56,4.06-.28-.38-.66-.68-1-1,.28-3.76,1.88-6.12,2-8,3.92-1.27,5.25-4.76,7-8Z"/>
      <path class="cls-17" d="M57,139c.13.96-.06,2.03,0,3-6.99-.24-9.54,1.94-14.01-4,1.62-.49.33-3.83,1.56-4.06,8.62-1.64,4.39,6.72,12.44,5.06Z"/>
      <path class="cls-61" d="M63,85c-.02-1.67.02-3.33,0-5-.06-4.05,1.49-6.81-3-8,.33-.93,1.47-2.06,2-3,.32,1.57,1.73,2.86,2.03,5.47.32,2.79.55,8.08-1.03,10.53Z"/>
      <path class="cls-25" d="M7,67c.25,1.27-.38,5.55,0,6,.23.28,2.28-.24,3,0,4.39,1.46,9.28,5.67,14.38,3.85,1.46-.52,1.84-4.6,6.62-2.85h1c-.11.09.15,1.33-.54,1.97-1.98,1.79-1.42.25-2.46,3.03-.36.97.68,2.39-2,2-1.48-1.49-10.22-1.71-10.99-.99-.41.38.26,8.26-.01,9.99-1.03-.47-1.83-.86-3-1-.66-3.56,2.22-10.3-3-9-.3-4.42-1.55-3.74-6-4,.6,4.06-.85,10.32,0,14-1.47-4.47-1.8-16,0-20,.09-.19,2.34-2.23,3-3Z"/>
      <path class="cls-14" d="M4,90c-.84-3.68.61-9.94,0-14,4.45.26,5.7-.41,6,4,.13,1.98-.14,4.02,0,6l-1.01-6c-.92-1.34-3.25,9.28-3.99,11-.26-.29-.89-.5-1-1Z"/>
      <path class="cls-51" d="M4,93l1-1c-.23.5-.33.96-1,1Z"/>
      <path class="cls-25" d="M10,86c.06.89-.22,2.45,0,3,.45,1.13,1.99,1,3.01,1.02-.81,1.65-.86,3.56-3.01,2.98-.31-.24-1.65.24-2,0-.85-.57-2.43-1.36-3-2,.74-1.72,3.07-12.34,3.99-11l1.01,6Z"/>
      <path class="cls-64" d="M16,106c-1.68-1.73-4.25-4.89-6-5,.13-.96-.09-2.02,0-3,1.83,2.26,6.67,3.87,6,8Z"/>
      <path class="cls-59" d="M54,46c-.12,2.29-1.79,3.56-2.01,4.52-.07.29,5.32,2.75.35,4.31-5.43,1.71-4.57-1.74-5.34-5.84-.12-.62.11-1.38,0-2-.33-1.9-3.11-3.09-2-3.99,1.87-1.52,7.08,1.94,9,2.99Z"/>
      <path class="cls-10" d="M44,42c-.42,3.28-.22,4.21,3,5,.11.62-.12,1.38,0,2-7.55-.04-12.97-6.23-3-7Z"/>
      <path class="cls-4" d="M54,46c-1.91-1.06-7.12-4.51-9-2.99-1.11.9,1.66,2.09,2,3.99-3.22-.79-3.42-1.72-3-5,4.49-.35,10.28-1.47,10,4Z"/>
      <path class="cls-40" d="M32,74c.4-.34,9.19-3.66,9.72-3.77,1.96-.41,5.82-.65,7.64-.06.51.16,7.47,6.94,7.56,7.47.28,1.58-2.11,2.78-2.9,3.86.05.88,2.61-.09,2.98,4.5-1.69.15-3.41.44-5,1-2.25.78-2.32,1.9-2.69,1.98-12.85,2.99-11.64-5.45-20.31-9.98,1.04-2.78.47-1.24,2.46-3.03.7-.63.43-1.87.54-1.97Z"/>
      <path class="cls-37" d="M60,72c4.49,1.19,2.94,3.95,3,8-3.57,2.71-3.85-5.59-3-8Z"/>
      <path class="cls-12" d="M39,111c.23.24,2.75-.63,3.07.54.6,2.23-.55,6.81-.07,9.46-2.35-.35-2.37,2.08-3.78,2.99-.93.6-3.04.29-4,1.23-2.33,2.28.89,8.21-5.7,8.82-3.26.3-2.59-.33-2.52-3.04,2.82-4.07,2.12-3.19,3-8,.06-.32-.05-.67,0-1,2.52-1.48,7.15-5.69,9-8,.61-.76.79-2.04,1-3Z"/>
      <path class="cls-58" d="M50,115c-.52,2.25.44,3.98,1,6-1.75,3.24-3.08,6.73-7,8,.03-.43-1.01-1.51-1-2,0-.33-.02-.67,0-1,.08-1.32-.14-2.7,0-4,6.07.6,3.3-6.53,5.01-8,.65-.56,1.88,1.01,1.99,1Z"/>
      <path class="cls-50" d="M43,126c-.02.33,0,.67,0,1-3.45,1.91-3.32,7.71-8,7v-1c.38-.34,2.95-2.46,3.09-2.64,1.25-1.52.28-4.52,4.91-4.36Z"/>
      <path class="cls-20" d="M27,81v1c-4.63,3.14-2.12,3.25-2.38,6.59-.08,1.03-1.48,1.15-1.62,1.41-1.6.06-4.15-.62-5,1-.41-.35-1.41-.73-2-1,.27-1.73-.39-9.61.01-9.99.77-.72,9.51-.51,10.99.99Z"/>
      <path class="cls-23" d="M46,102c-.15.18-2.45-.73-2.49,3-2.41-1.7-.83-4.98-2.01-6.99-.75-1.29-5.05-2.55-5.5-4.99h11s1,3.99,1,3.99c-.11.3.12.73,0,1-.65,1.51-.8,2.53-2,4Z"/>
      <path class="cls-68" d="M27,82c4.96.59,1.11,8.86-2,11-.86-.93-3.88.46-2-3,.14-.26,1.54-.38,1.62-1.41.27-3.34-2.25-3.45,2.38-6.59Z"/>
      <path class="cls-32" d="M23,90c-1.88,3.46,1.14,2.07,2,3,.16.17-.14.71,0,1,.51,1.08.54,2.8,1,4-6.3-.39-2.62-.52-4.34-2.6-.73-.88-3.33-4.11-3.66-4.4.85-1.62,3.4-.94,5-1Z"/>
      <path class="cls-11" d="M53,93c1.54,2.22.82,2.69,1,5h-6c.12-.27-.11-.7,0-1,1.07-2.93,1.51-3.52,5-4Z"/>
      <path class="cls-29" d="M33,96c-.9,2.74-3.75,1.9-6,2-.33.02-.67.02-1,0-.46-1.2-.49-2.92-1-4,2.4,1.51,5.64.49,8,2Z"/>
      <path class="cls-26" d="M10,80c5.22-1.3,2.34,5.44,3,9-.97-.12-2.02.08-3,0-.22-.55.06-2.11,0-3-.14-1.98.13-4.02,0-6Z"/>
    </g>
  </g>
</svg>