<?xml version="1.0" encoding="UTF-8"?>
<svg id="_Слой_2" data-name="Слой 2" xmlns="http://www.w3.org/2000/svg" viewBox="0 0 81 147">
  <defs>
    <style>
      .cls-1 {
        fill: #fbdec7;
      }

      .cls-2 {
        fill: #41190d;
      }

      .cls-3 {
        fill: #8d4d36;
      }

      .cls-4 {
        fill: #3b2b23;
      }

      .cls-5 {
        fill: #3f2721;
      }

      .cls-6 {
        fill: #4b2216;
      }

      .cls-7 {
        fill: #fbdfc8;
      }

      .cls-8 {
        fill: #481f13;
      }

      .cls-9 {
        fill: #4b261c;
      }

      .cls-10 {
        fill: #fbd1b3;
      }

      .cls-11 {
        fill: #f9cfb2;
      }

      .cls-12 {
        fill: #673d2f;
      }

      .cls-13 {
        fill: #b07e67;
      }

      .cls-14 {
        fill: #37211b;
      }

      .cls-15 {
        fill: #5c372c;
      }

      .cls-16 {
        fill: #8f4f37;
      }

      .cls-17 {
        fill: #402923;
      }

      .cls-18 {
        fill: #5e362a;
      }

      .cls-19 {
        fill: #553127;
      }

      .cls-20 {
        fill: #2f221a;
      }

      .cls-21 {
        fill: #2e1711;
      }

      .cls-22 {
        fill: #8e4f37;
      }

      .cls-23 {
        fill: #4c281e;
      }

      .cls-24 {
        fill: #ca9378;
      }

      .cls-25 {
        fill: #fce3cd;
      }

      .cls-26 {
        fill: #401a0f;
      }

      .cls-27 {
        fill: #5a3830;
      }

      .cls-28 {
        fill: #4c2216;
      }

      .cls-29 {
        fill: #dc9f83;
      }

      .cls-30 {
        fill: #4f2619;
      }

      .cls-31 {
        fill: #442f26;
      }

      .cls-32 {
        fill: #441c11;
      }

      .cls-33 {
        fill: #fdd4b6;
      }

      .cls-34 {
        fill: #49251a;
      }

      .cls-35 {
        fill: #d39175;
      }

      .cls-36 {
        fill: #fbd1b4;
      }

      .cls-37 {
        fill: #fde4ce;
      }

      .cls-38 {
        fill: #fadfc9;
      }

      .cls-39 {
        fill: #d6987b;
      }

      .cls-40 {
        fill: #d39073;
      }

      .cls-41 {
        fill: #2f211a;
      }

      .cls-42 {
        fill: #e8a986;
      }

      .cls-43 {
        fill: #aaa19f;
      }

      .cls-44 {
        fill: #814530;
      }

      .cls-45 {
        fill: #4f271b;
      }

      .cls-46 {
        fill: #78473c;
      }

      .cls-47 {
        fill: #f5caad;
      }

      .cls-48 {
        fill: #a09694;
      }

      .cls-49 {
        fill: #fbd2b4;
      }

      .cls-50 {
        fill: #3d160b;
      }

      .cls-51 {
        fill: #461f14;
      }

      .cls-52 {
        fill: #fce1cb;
      }

      .cls-53 {
        fill: #d7997b;
      }

      .cls-54 {
        fill: #593327;
      }

      .cls-55 {
        fill: #d79679;
      }

      .cls-56 {
        fill: #cd8b6f;
      }

      .cls-57 {
        fill: #d18e72;
      }

      .cls-58 {
        fill: #f9dec8;
      }

      .cls-59 {
        fill: #da9976;
      }

      .cls-60 {
        fill: #e39f7b;
      }

      .cls-61 {
        fill: #d38f72;
      }

      .cls-62 {
        fill: #532b1f;
      }

      .cls-63 {
        fill: #472116;
      }

      .cls-64 {
        fill: #8b4b33;
      }
    </style>
  </defs>
  <g id="_Слой_37_Изображение" data-name="Слой 37 Изображение">
    <g>
      <path class="cls-33" d="M39,5c12.63,1.96,19.9,14.28,23.03,25.47,2.4,8.58.79,8.08-.03,15.53-.45,4.11-.29,8.77-1,13-.31.09-.69-.09-1,0-5.31,1.53-7.92,4.25-9.63,4.84-1.93.67-9.7.31-12.37.16l-7.98-8.5,5.98-1.51c-3.8-3.15-1.36-7.86-2.91-10.52-.75-1.29-5.96-5.91-7.51-6.54-8.22-3.31-7.11,2.99-9.91,2.93-2.58-.05-3.4-2.77-3.66-4.87-1.02-8.13.89-16.61,6-23,2.68-3.36,2.98-3.42,7-5,4.76-1.88,8.66-2.83,14-2ZM48.74,43.28c-1.81-.74-3.86-.15-5.74-.28-.86,2.89,2.26,1.72,2.86,3.6.67,2.1-.13,5.13.13,7.4h5c-1.75-2.46,1.18-6.45.95-7.43-.05-.22-2.98-3.21-3.2-3.29Z"/>
      <path class="cls-40" d="M55,76c1.02-.76.51-2.75,2.99-1.99l1.01,11.99h0s2,0,2,0c-.3,1.02-.42,2.08-1,3-4.19-.31-6.49,1.77-6,6h-1c-2.82-1.2-2.52,4.19-1.83,6.36.34,1.09,8.64,7.61,8.8,8.35.94,4.37-1.38,10.52,1.15,14.7.16.27,4.21,4.32,4.51,4.41,1.93.62,4.76.07,6.91.17,1.92.08,4.01-1.02,3.45,2.01-3.82,2.69-9.19,6.51-13.56,7.94-2.08.68-4.24,1.11-6.44,1.06-1.91-7.53,3.32-9.25-4.52-14.99-1.21-.89-1.51-2.7-3.48-1.01-.59-1.04-.74-1.54-2-2,1.69-4.85-2.06-6.39-3-8.5-.37-.84,1.76-.09,2.01-1.14.72-2.98.87-10.23-.02-13.36.74-.16,2.03-1.54,3.44-1.01,1.73-.54-3.72-5.73-4.09-5.85-2.58-.85-4.38.9-5.35.87-3.35-.1-6.4-.89-10-1-1.67-5.05-2.09-9.77-2.48-15.02l-2.52,1.02c-.22-1.02-1.06-1.65-2-2-.22-.08-.66,0-1,0v-1c1.55.27,7.5-.43,7.95.06.2.22-.28,2.15,1.05,3.94,2.87,3.86,8.26,6.15,11.73,8.28.63.38.68,2.15,1.88,2.59,3.55,1.28,4.51-.8,6.38-2.87h5.01c-.33-3.5.45-7.62,0-11Z"/>
      <path class="cls-57" d="M20,111c1.23-1.57-.03-3.65,3.44-3.01,3.74.69,2.41,4.96,6.56,4.01,0,.67,0,1.33,0,2-3.44.11-11.14,9.47-2,11-.57,3.17-6.63,2.71-6.96,3.04-.49.49.24,6.4-.04,7.96-3.24-.97-9.2-10.16-10.06-2.54-.67,5.99,1.68,4.73,3.06,8.54-4.72-.57-10.99-7.72-9-13,.13-.21,2.82-2.89,3-3,1.63-.96,4.7-.79,5.54-1.96.61-.84.94-5.22,1.46-7.04.44-1.57,1.85-4.85,2-6,.47.1.96.55,1,1,.13,1.37-.94,5.93,1.48,4.99,3.58-1.39,7.38-6.11.52-5.99Z"/>
      <path class="cls-39" d="M12,35c.26,2.1,1.09,4.82,3.66,4.87,2.8.05,1.69-6.25,9.91-2.93,1.56.63,6.76,5.25,7.51,6.54,1.55,2.66-.89,7.37,2.91,10.52l-5.98,1.51,7.98,8.5c-4.76-.26-5.16.43-9-3-.55-.49-3.19-3.53-3.48-4.06-1.59-2.9,1.28-3-2.52-3.94-3.39-.84-3.95-1.95-8-3-.17-.05-.53-.88-1-1-.08-.17-.75-.45-1-1-.63-1.36-1.92-3.46-1.98-3.69-.54-2.3.04-6.57-.02-9.31h1ZM24.35,41.64c-1.07-.89-.98-3.22-3.34-2.63-1.84,5.6-.95,9.74,4.45,12.06,1.57-.22,4.73-2.9,4.47-4.42-1.28-2.33-3.67-3.41-5.58-5Z"/>
      <path class="cls-21" d="M35,2c5.22-.18,11.01-.54,16,1,5.61,1.73,15.17,10.14,16.79,15.71.83,2.84.65,20.15.26,23.9-.15,1.52-.24,1.4-1.06,2.39-3.02.56-1.94-1.53-2-3.45-.17-5.14,1.04-16.99.02-20.85-.27-1.02-2.02-.94-2.48-1.7-.91-1.49-.23-3.47-1.06-4.99-2.72-5-16.79-9.6-22.48-10.01-4.03-.29-13.69-1.62-14,3-4.02,1.58-4.32,1.64-7,5-3.37-.42-4.98,2.2-6,5l-2-2c1.76-3.39,4.42-6.69,7.65-8.85,6.3-4.23,10.26-3.9,17.35-4.15Z"/>
      <path class="cls-59" d="M39,4c5.7.41,19.77,5.01,22.48,10.01.83,1.52.14,3.5,1.06,4.99.46.75,2.21.67,2.48,1.7,1.02,3.86-.19,15.7-.02,20.85.06,1.92-1.02,4.01,2,3.45-.9,1.09-.74.76-2,1-.31.06-1.97-1.24-3,0,.82-7.46,2.44-6.95.03-15.53-3.13-11.19-10.4-23.51-23.03-25.47v-1Z"/>
      <path class="cls-32" d="M45,99c.88,3.12.74,10.38.02,13.36-.25,1.04-2.38.3-2.01,1.14.94,2.11,4.68,3.65,3,8.5-.11-.04-.96,1.09-2.36-.03s-1.55-2.85-1.69-2.95c-.36-.26-2.86,1.75-3.95,1.98-.32.07-.7-.08-1,0-.26-1.28.39-5.53,0-6-.23-.27-2.22.19-2.99,0-1.13-.28-3.07-1.03-4-1,0-.67,0-1.33,0-2,0-.34.07-.74,0-1h4c1.69,0,4.65.33,6,0,2.8-.68,2.44-9.57,2-12,.95-.13,2.14.19,3,0Z"/>
      <path class="cls-17" d="M8,67c-.03,3.27-1.56,6.35,0,9-.89.17-2.04-.13-3,0,.58,3.74-.8,9.64,0,13.01.38,1.59,6.27,5.56,8,7,.36.3.63.71,1,1l-2,1c-.62-.26-2.34.25-3.95-.52-1.14-.55-5.42-5.18-6.05-6.48v-20c1.72-2.7,2.87-5.34,5-8,.78,1.22,1.01,2.57,1,4Z"/>
      <path class="cls-3" d="M60,59c.25,1.47-.36,3.75,0,5-2.67-.47-2.04.63-2,3-7.9-1.67-19.79,1.95-28-1-.25-.7-1.74-3.81-2-4l1-1c3.84,3.43,4.24,2.74,9,3,2.67.15,10.44.51,12.37-.16,1.7-.59,4.32-3.31,9.63-4.84Z"/>
      <path class="cls-51" d="M79,128c.97,4.77-.36,7.7-4.27,10.32-.7.47-8.6,4.27-9.46,4.41-3.54.55-6.04.81-9.27-.73-.09-.64.14-1.44,0-2,2.2.05,4.36-.39,6.44-1.06,4.37-1.43,9.74-5.25,13.56-7.94,1.17-.82,1.2-1.01,2-2,.3-.37.65-.68,1-1Z"/>
      <path class="cls-28" d="M20,102c.32.24,6.01,2.56,6.73,3.27.48.48.15,1.81.59,2.35,1.17,1.45,1.9.39,2.68,3.37.07.26,0,.66,0,1-4.15.95-2.82-3.33-6.56-4.01-3.47-.64-2.21,1.45-3.44,3.01-.29.36-1.5.6-2,1-.04-.45-.53-.9-1-1,.17-1.26.27-7.27,0-8l3-1Z"/>
      <path class="cls-54" d="M60,64c.05.17,1.27,1.48,2,3,.25.51,1.81.51,2.06,2.49.74,5.93-.67,13.38-.06,19.51-.72.82-1.72.76-2,1-.62-.19-1.48-.96-2-1,.58-.92.7-1.98,1-3,1.08-3.68,2.72-17.79-3-19-.04-2.37-.67-3.47,2-3Z"/>
      <path class="cls-45" d="M48,124c1.97-1.69,2.27.13,3.48,1.01,7.84,5.74,2.61,7.45,4.52,14.99.14.56-.09,1.36,0,2-5.94-2.83-3.15-7.23-4.43-12.11-.09-.34-2.93-4.77-3.57-5.89Z"/>
      <path class="cls-41" d="M9,46c-.34-.39-1.1-.62-.99-1.47-.09-9.25-1.69-18.75.99-27.53,1.71,7.3,1.11,15.9,1.02,23.51-.02,1.69.64,4.45-1.02,5.49Z"/>
      <path class="cls-63" d="M33,126c-3.77,3.45-3.84,3.3-8,6-2.85,1.85-2.9,2.43,0,4-1.2-.08-3.1.27-4,0,.28-1.56-.44-7.47.04-7.96.33-.33,6.38.13,6.96-3.04.32.05.67-.04,1,0,1.27.16,3.29-.6,4,1Z"/>
      <path class="cls-13" d="M31,136c.94,1.64,1.88,1.8,1.8,4.22-.13,4.1-1.79,3.07-2.8,3.78-4.38-1.72-11.05-1.17-16-1v-1c5.07.62,9.85.83,13-3.5,1.67-2.29.64-.91-1-2.5h5Z"/>
      <path class="cls-5" d="M14,143c4.95-.17,11.62-.72,16,1-.32.22-.48,1.48-1.67,1.8-2.12.57-12.53.61-14.86.19-2.13-.38-2.05-1.73-2.48-1.99.48-1.3,1.9-.96,3-1Z"/>
      <path class="cls-30" d="M60,89c.52.04,1.38.81,2,1-5.11,4.46-4.79,5.26-3,12-.71-.2-2.14.4-2.83-.13-.29-.22-2.1-6.32-2.17-6.87-.49-4.23,1.81-6.31,6-6Z"/>
      <path class="cls-9" d="M18,57c-.08,2.58-1.78,2.56-3,4-1.03,1.22-1.89,1.95-3,3-1.23,1.17-1.87,2.99-4,3,.01-1.43-.22-2.78-1-4,.57-.72,4.02-4.52,4.3-4.68,1.86-1.08,6.26.16,5.7-3.32.16.41,1.04.7,1,2Z"/>
      <path class="cls-64" d="M54,95c.06.55,1.88,6.65,2.17,6.87.69.53,2.13-.06,2.83.13.09.33-.1.72,0,1,.44,1.19.7,1.41,1,0h1c.08.28-.05.65,0,1,.17,1.24-.25,2.89,0,4-1.64-.23-8.68-7.09-8.86-7.65-.59-1.75-.08-3.8.86-5.35h1Z"/>
      <path class="cls-20" d="M65,46c-.57,3.12.79,8.77.07,11.39-.17.6-3.21,1.37-4.07,1.61.71-4.23.55-8.89,1-13,1.03-1.24,2.69.06,3,0Z"/>
      <path class="cls-4" d="M12,17c-1.76,4.81-1.13,12.62-1,18,.06,2.74-.52,7.01.02,9.31.05.23,1.34,2.33,1.98,3.69-1.36-.58-2.97-.81-4-2,1.66-1.04,1-3.79,1.02-5.49.09-7.62.7-16.22-1.02-23.51.18-.6.68-1.38,1-2l2,2Z"/>
      <path class="cls-26" d="M8,126c-.18.11-2.87,2.79-3,3-1.72,2.68-.91,4.89-1,8-.37-.5-1.96-.83-2.48-1.97-2.47-5.41,2.3-8.64,5.48-12.03l1,3Z"/>
      <path class="cls-62" d="M15,117c-.51,1.82-.85,6.2-1.46,7.04-.84,1.17-3.91,1-5.54,1.96l-1-3c2.27-2.42,4.65-5.79,8-6Z"/>
      <path class="cls-2" d="M15,50c4.05,1.05,4.61,2.16,8,3l1,3.99h-6c.04-1.29-.84-1.58-1-1.99-.55-1.44-1.39-3.74-2-5Z"/>
      <path class="cls-34" d="M66,111c-.07,3.18.11,6.39.03,9.58-.03,1.37-1.03,2.29-1.03,2.42-.36-3.18.65-7.33-.2-10.32-.52-1.82-2.46-2.14-2.8-2.68s-.88-1.5-1-2c-.25-1.11.17-2.76,0-4,3.98.2,3.88,3.98,5,7Z"/>
      <path class="cls-6" d="M5,129c-1.99,5.28,4.28,12.43,9,13v1c-1.1.04-2.52-.3-3,1-3.92-2.38-4.33-3.42-7-7,.09-3.11-.72-5.32,1-8Z"/>
      <path class="cls-12" d="M68,123c4.2,2.24,9.74-1.21,11,5-.35.32-.7.63-1,1-2.97-1.88-5.82-1.66-9-2-.2-.64-.93-1.44-1-2-.08-.64.02-1.34,0-2Z"/>
      <path class="cls-50" d="M68,123c.02.66-.08,1.36,0,2-1.21.05-3.05-.7-3-2,0-.13,1-1.04,1.03-2.42.08-3.19-.11-6.4-.03-9.58,2.12,5.74,1.78,5.74,2,12Z"/>
      <path class="cls-19" d="M37,121c.3-.08.68.07,1,0-1.24,1.32-2.15,3.51-3.33,4.7-.47.47-1.53.17-1.67.3-.71-1.6-2.73-.84-4-1,.91-1.95,3.02-3.41,5-4,.79-.24,2.17.22,3,0Z"/>
      <path class="cls-15" d="M62,67c3.5-.12,2.76-.62,3,2.45.27,3.48.61,17.71-1,19.55-.6-6.14.81-13.58.06-19.51-.25-1.98-1.81-1.98-2.06-2.49Z"/>
      <path class="cls-18" d="M14,97c2.2,1.71,4.08,3.58,6,5l-3,1c-.12-.33-4.67-4.86-5-5l2-1Z"/>
      <path class="cls-14" d="M25,132c.82,1.73,3.58.49,4.83,1.19.42.23.73,2.06,1.17,2.81h-5c-.33,0-.67.02-1,0-2.9-1.57-2.85-2.15,0-4Z"/>
      <path class="cls-43" d="M2,91c-1.55-3.19-1.78-17.22,0-20v20Z"/>
      <path class="cls-48" d="M35,2c3.36-1.74,8.78-1.15,12.54-1,1.92.08,4.01-1.03,3.46,2-4.99-1.54-10.78-1.18-16-1Z"/>
      <path class="cls-50" d="M15,50c-.1-.21-.76-.48-1-1,.47.12.83.95,1,1Z"/>
      <path class="cls-63" d="M60,103h-1c-.1-.28.09-.67,0-1,.31.09.69-.09,1,0v1Z"/>
      <path class="cls-27" d="M61,103h-1v-1c.77.22.78.25,1,1Z"/>
      <path class="cls-31" d="M48.74,43.28c.21.09,3.14,3.07,3.2,3.29.24.98-2.7,4.97-.95,7.42h-5c-.26-2.26.54-5.29-.13-7.39-.6-1.88-3.72-.71-2.86-3.6,1.88.13,3.93-.46,5.74.28Z"/>
      <path class="cls-24" d="M18,12c-5.11,6.39-7.02,14.87-6,23h-1c-.13-5.38-.76-13.19,1-18,1.02-2.8,2.63-5.42,6-5Z"/>
      <path class="cls-23" d="M39,4v1c-5.34-.83-9.24.12-14,2,.31-4.62,9.97-3.29,14-3Z"/>
      <path class="cls-37" d="M30,79c-1.17-6.51,1.56-4.19,2.67-5.26,1.46-1.41.83-3.12,3.85-3.72,1.71-.34,12.48-.33,13.82.14,1.05.37,4.48,4.47,4.66,5.84-.68.51-2.55.68-2.82,1.15-.87,1.53.28,5.85-.2,8.12-.21.99-1.48,1.17-1.98,1.73-1.87,2.07-2.83,4.15-6.38,2.87-1.21-.44-1.26-2.2-1.88-2.59-3.47-2.13-8.86-4.42-11.73-8.28Z"/>
      <path class="cls-53" d="M58,67c5.72,1.21,4.08,15.32,3,19h0s0-12.01,0-12.01h-2.01s0,12.01,0,12.01l-1.01-11.99c-2.48-.76-1.98,1.24-2.99,1.99-.18-1.38-3.61-5.47-4.66-5.84-1.34-.47-12.11-.48-13.82-.14-3.02.61-2.39,2.31-3.85,3.72-1.11,1.08-3.83-1.24-2.67,5.26-1.33-1.79-.85-3.72-1.05-3.94-.45-.49-6.4.21-7.95-.06,6.47-2.36,10.89,1.1,9-8-.07-.34.1-.73,0-1,8.21,2.95,20.1-.67,28,1Z"/>
      <path class="cls-61" d="M53,95c-.94,1.55-1.45,3.6-.86,5.35.19.56,7.23,7.41,8.86,7.65.12.5.68,1.49,1,2,.43,5.81-2.16,14.5,4.29,17.35,1.41.62,2.39-.39,2.71-.35,3.18.34,6.03.12,9,2-.8.99-.83,1.18-2,2,.56-3.03-1.53-1.92-3.45-2.01-2.16-.09-4.98.46-6.91-.17-.3-.1-4.35-4.14-4.51-4.41-2.53-4.18-.22-10.33-1.15-14.7-.16-.74-8.45-7.26-8.8-8.35-.69-2.18-.99-7.56,1.83-6.36Z"/>
      <path class="cls-58" d="M24,78c.74,3.46-.08,9.44-1,13-5.49-2.16-2.35-2.63-6-5-1.36-5.28,3.23-5.82,5-10,.94.35,1.78.98,2,2Z"/>
      <path class="cls-7" d="M30,67c1.89,9.1-2.53,5.64-9,8v1c-.33,0-.67,0-1,0-3.39.74-1.56-2.45-2-5,3.99-1.45,7.41-4.5,12-4Z"/>
      <path class="cls-16" d="M29,92c-.33,0-.67,0-1,0-1.33,0-2.67,0-4,0-.19-.21-.93-.97-1-1,.92-3.56,1.74-9.54,1-13l2.52-1.02c.39,5.25.81,9.97,2.48,15.02Z"/>
      <path class="cls-55" d="M20,76c.33,0,.67,0,1,0s.78-.08,1,0c-1.77,4.18-6.36,4.72-5,10-.24-.16-1.45.36-1.84-.12-1.4-1.75,1.46-4.45-3.16-5.88-.52-.16-.94-.39-1-1,.09-.19.09-1.7,0-2,2.72-1.24,5.37-.08,7.54-.16.91-.03,1.37-.85,1.46-.84Z"/>
      <path class="cls-47" d="M39,93c.97.03,2.77-1.72,5.35-.87.36.12,5.82,5.31,4.09,5.85-1.4-.52-2.69.85-3.44,1.01-.86.19-2.05-.13-3,0-.41-2.28-2.37-3-3-4-.2-.32.13-1.42,0-2Z"/>
      <path class="cls-11" d="M55,76c.45,3.38-.33,7.5,0,11.01h-5.01c.5-.56,1.77-.74,1.98-1.74.48-2.27-.68-6.59.2-8.12.27-.48,2.14-.64,2.82-1.15Z"/>
      <path class="cls-8" d="M39,93c.13.58-.2,1.68,0,2-3.37-.31-11.19,1.38-11-3,.33,0,.67,0,1,0,3.6.11,6.65.9,10,1Z"/>
      <rect class="cls-25" x="59" y="73.99" width="2.01" height="12.01"/>
      <path class="cls-49" d="M21,136c.9.27,2.8-.08,4,0,.33.02.67,0,1,0,1.64,1.59,2.67.21,1,2.5-3.16,4.33-7.94,4.12-13,3.5-1.38-3.81-3.73-2.55-3.06-8.54.85-7.62,6.81,1.57,10.06,2.54Z"/>
      <path class="cls-58" d="M30,114c.93-.03,2.87.72,4,1v6c-1.98.59-4.09,2.05-5,4-.33-.04-.68.05-1,0-9.14-1.53-1.44-10.89,2-11Z"/>
      <path class="cls-1" d="M20,111c6.86-.12,3.06,4.59-.52,5.99-2.42.94-1.35-3.62-1.48-4.99.5-.4,1.71-.64,2-1Z"/>
      <path class="cls-10" d="M24.35,41.64c1.9,1.59,4.3,2.67,5.58,5,.26,1.52-2.9,4.2-4.47,4.42-5.39-2.32-6.29-6.45-4.45-12.06,2.36-.59,2.27,1.74,3.34,2.63Z"/>
      <path class="cls-22" d="M23,53c3.81.95.93,1.04,2.52,3.94.29.52,2.93,3.56,3.48,4.06l-1,1c-2.36-1.75-9.86-.71-13-1,1.22-1.44,2.92-1.42,3-4h6s-1-4-1-4Z"/>
      <path class="cls-36" d="M12,80c4.62,1.42,1.76,4.13,3.16,5.88.39.49,1.6-.03,1.84.12,3.65,2.37.51,2.84,6,5,.07.03.81.79,1,1,.8.87,3.07,5.32,4.64,5.83,2.8.9,9.42-1,10.9,1.13,1.31,1.87,1.75,9.62.46,12.04-1.35.33-4.31,0-6,0-3.67-4.48-8.75-10.71-13.49-14-2.6-1.8-4.26-1.35-5.51-2-5.54-2.85-4.75-9.7-3-15Z"/>
      <path class="cls-56" d="M28,92c-.19,4.38,7.63,2.69,11,3,.63,1,2.59,1.72,3,4,.44,2.43.8,11.32-2,12,1.29-2.42.85-10.17-.46-12.04-1.49-2.13-8.1-.23-10.9-1.13-1.57-.51-3.84-4.96-4.64-5.83,1.33,0,2.67,0,4,0Z"/>
      <path class="cls-35" d="M15,95c1.25.64,2.91.19,5.51,2,4.74,3.3,9.82,9.52,13.49,14h-4c-.78-2.99-1.51-1.93-2.68-3.37-.44-.54-.11-1.87-.59-2.35-.71-.72-6.41-3.04-6.73-3.27-1.92-1.42-3.8-3.29-6-5-.37-.29-.64-.7-1-1l2-1Z"/>
      <path class="cls-46" d="M34,115c.77.19,2.77-.27,2.99,0,.39.47-.25,4.72,0,6-.83.22-2.21-.24-3,0v-6Z"/>
      <path class="cls-52" d="M17,70c-2.45,3.21-3.08,5.44-7,6-.64.09-1.39-.11-2,0-1.56-2.65-.03-5.73,0-9,2.13-.01,2.77-1.83,4-3,1.54-.03,9.13-.53,8.98,1.5-.02.3-3.13,3.39-3.98,4.5Z"/>
      <path class="cls-29" d="M12,80c-1.75,5.3-2.54,12.15,3,15l-2,1c-1.73-1.44-7.62-5.41-8-7,3.41.53,2.75-4.99,3.76-7.77.52-1.44,2.15-2.04,2.24-2.23.06.61.48.84,1,1Z"/>
      <path class="cls-38" d="M8,76c.61-.11,1.36.09,2,0-.13.75.97.91,1,1,.09.3.09,1.81,0,2s-1.71.79-2.24,2.23c-1.01,2.78-.36,8.3-3.76,7.77-.8-3.36.58-9.26,0-13.01.96-.13,2.11.17,3,0Z"/>
      <path class="cls-60" d="M28,62c.26.19,1.75,3.3,2,4,.1.27-.07.66,0,1-4.59-.5-8.01,2.55-12,4-.03-.2-.81-.61-1-1,.85-1.11,3.96-4.2,3.98-4.5.15-2.03-7.44-1.53-8.98-1.5,1.11-1.05,1.97-1.78,3-3,3.14.29,10.64-.75,13,1Z"/>
      <path class="cls-50" d="M59,103h1c-.3,1.41-.56,1.19-1,0Z"/>
      <path class="cls-44" d="M65,123c-.05,1.3,1.79,2.05,3,2,.07.56.8,1.36,1,2-.33-.04-1.3.97-2.71.35-6.45-2.85-3.86-11.54-4.29-17.35.34.54,2.28.86,2.8,2.68.85,2.98-.16,7.14.2,10.32Z"/>
      <path class="cls-42" d="M18,71c.44,2.55-1.39,5.74,2,5-.08,0-.55.81-1.46.84-2.18.08-4.82-1.08-7.54.16-.03-.09-1.13-.25-1-1,3.92-.56,4.55-2.79,7-6,.19.39.97.8,1,1Z"/>
    </g>
  </g>
</svg>