<?xml version="1.0" encoding="UTF-8"?>
<svg id="_Слой_2" data-name="Слой 2" xmlns="http://www.w3.org/2000/svg" viewBox="0 0 74 150">
  <defs>
    <style>
      .cls-1 {
        fill: #693b30;
      }

      .cls-2 {
        fill: #5f3426;
      }

      .cls-3 {
        fill: #7a4a3e;
      }

      .cls-4 {
        fill: #cb8f73;
      }

      .cls-5 {
        fill: #351f19;
      }

      .cls-6 {
        fill: #d99c7f;
      }

      .cls-7 {
        fill: #edeae9;
      }

      .cls-8 {
        fill: #875b50;
      }

      .cls-9 {
        fill: #854832;
      }

      .cls-10 {
        fill: #e7a784;
      }

      .cls-11 {
        fill: #d89b7e;
      }

      .cls-12 {
        fill: #8a4e37;
      }

      .cls-13 {
        fill: #2d211a;
      }

      .cls-14 {
        fill: #fbe0ca;
      }

      .cls-15 {
        fill: #d89d7f;
      }

      .cls-16 {
        fill: #4c342d;
      }

      .cls-17 {
        fill: #8e513a;
      }

      .cls-18 {
        fill: #411b10;
      }

      .cls-19 {
        fill: #d49074;
      }

      .cls-20 {
        fill: #522f24;
      }

      .cls-21 {
        fill: #634137;
      }

      .cls-22 {
        fill: #8f5037;
      }

      .cls-23 {
        fill: #2e1711;
      }

      .cls-24 {
        fill: #502c22;
      }

      .cls-25 {
        fill: #7c6057;
      }

      .cls-26 {
        fill: #f6c9ab;
      }

      .cls-27 {
        fill: #4f291e;
      }

      .cls-28 {
        fill: #d89d81;
      }

      .cls-29 {
        fill: #421a0e;
      }

      .cls-30 {
        fill: #c7876b;
      }

      .cls-31 {
        fill: #f7ceb2;
      }

      .cls-32 {
        fill: #e5a17d;
      }

      .cls-33 {
        fill: #d89a7c;
      }

      .cls-34 {
        fill: #f0d4bf;
      }

      .cls-35 {
        fill: #9f9491;
      }

      .cls-36 {
        fill: #f7ddc7;
      }

      .cls-37 {
        fill: #fdd4b6;
      }

      .cls-38 {
        fill: #fcd2b5;
      }

      .cls-39 {
        fill: #fde4ce;
      }

      .cls-40 {
        fill: #c9bebb;
      }

      .cls-41 {
        fill: #654237;
      }

      .cls-42 {
        fill: #f8cfb1;
      }

      .cls-43 {
        fill: #7b4a3f;
      }

      .cls-44 {
        fill: #583327;
      }

      .cls-45 {
        fill: #473228;
      }

      .cls-46 {
        fill: #fbe1cb;
      }

      .cls-47 {
        fill: #44332a;
      }

      .cls-48 {
        fill: #e7e3e2;
      }

      .cls-49 {
        fill: #c0b4af;
      }

      .cls-50 {
        fill: #8e4e36;
      }

      .cls-51 {
        fill: #d5977b;
      }

      .cls-52 {
        fill: #573125;
      }

      .cls-53 {
        fill: #512d22;
      }

      .cls-54 {
        fill: #8b4b34;
      }

      .cls-55 {
        fill: #472015;
      }

      .cls-56 {
        fill: #392b24;
      }

      .cls-57 {
        fill: #4f2a1f;
      }

      .cls-58 {
        fill: #f8f6f6;
      }

      .cls-59 {
        fill: #d8987b;
      }

      .cls-60 {
        fill: #f3ceb5;
      }

      .cls-61 {
        fill: #472b21;
      }

      .cls-62 {
        fill: #da9e81;
      }

      .cls-63 {
        fill: #fce1cb;
      }

      .cls-64 {
        fill: #fad0b2;
      }

      .cls-65 {
        fill: #d89a7d;
      }

      .cls-66 {
        fill: #fefefe;
      }

      .cls-67 {
        fill: #532f25;
      }

      .cls-68 {
        fill: #3f2922;
      }

      .cls-69 {
        fill: #825245;
      }

      .cls-70 {
        fill: #e8e4e2;
      }

      .cls-71 {
        fill: #351c13;
      }

      .cls-72 {
        fill: #9e9391;
      }

      .cls-73 {
        fill: #5f3e34;
      }
    </style>
  </defs>
  <g id="_Слой_32_Изображение" data-name="Слой 32 Изображение">
    <g>
      <path class="cls-24" d="M52,128c3.07.17,7.17.35,6,4-.43.31-2.69.13-2.99,1.55-.39,1.88,5.8,7.72,1.99,13.45h-24c-3.32-1.2-3.8-1.27-6-4,.36.35,8.93.98,9.8-.28,1.18-1.72-1.71-2.72,3.2-2.72.65,3.99,9.52,5.42,12,3,.41-.4.98-.28,1.03-1.47.25-6.09-3.04-3.53-6.03-5.53,2.8-2.28.04-5.23,2-8,.81-.14,2.1-.05,3,0Z"/>
      <path class="cls-29" d="M24,94c1.1.01,2.52-.28,3,1-.8.62-2.01.91-2.49,1.98-.8,1.79-2.25,15.43,2.49,15.02.07.62,1.39,1.79,1,3-4.72-1.22-3.77,1.85-4,2s-4.55,1.89-5,2c-.66-1.58-4.34-1.58-5,0-2.35.09-1.02,1.66-5-1-.62-3.28,4.01-1.39,8-3,1.1-.44,2.04.25,2.81-1.66.67-1.68,2.54-9.56,1.19-10.34-.68-.39-2.19-.32-3-1-.13-6.82-1.19-8.07,6-8Z"/>
      <path class="cls-65" d="M15,26c-.21,4.43-1.32,14.36,2.99,16.52,4,2,2.6-4.95,3.08-5.45.18-.2,4.61-.8,5.31-.74,4.48.38,6.71,4.21,8.63,7.67-1.04.27-.83,1.21-1,2-.8-2.81-4.83-2.33-5.76-3.25-.41-.41-1.41-6.5-3.78-2.78-.69,1.09-.82,6.97-.49,8.33.07.27,2.92,2.38,4.02,3.7.16.19-.16.76,0,1h-3c-1.72-3.47-3.63-2.77-6.23-4.07-2.79-1.41-2.59-.84-2.77-.93-.56-.27-.83-.92-1-1-1.61-6.87-.88-13.99-1-21h1Z"/>
      <path class="cls-57" d="M63,60c-.28,1.05-2.3,2.16-2.01,3.48.31,1.42,4.05,1.71,5.01,2.52.5.43,1.42,3.03,2,4,.59,6.07-1.28,13.29,1,19-.43,1.33-2.77,1.97-4,5h-3v-4c.98-1.96,1.32-1.9,2-3,1.61-2.59,1.07-4.93,1-8-.19-7.94-.34-5.38-4-11-.87-1.34-1.97-3.94-3-5.48,1.18-1.97,3.48-1.8,5-2.52Z"/>
      <path class="cls-4" d="M56,6c2.09,1.94,5.13,4.94,7,7,.3.33,1.38,3.31,3,4,.32,2.85,1.75,4.04,2.06,6.45.84,6.5.07,13.49-.06,19.55-.02-7.11-2.95-12.87-5.3-19.19-.76-2.05-.54-4.68-1.37-6.56-1.25-2.87-9.55-6.4-6.33-11.24v-1c.37.26.66.69,1,1Z"/>
      <path class="cls-55" d="M34,122c1.77-.46,5.77-.64,5,2-4.44,1.99-2.79,6.98-3,11-.27.21.88,2.94-1.99,1.99v-5c-5.8-.77-3.06.96-4.55,3.93-.59,1.18-4.43,5.18-2.46,7.07-1.7-2.11-3.01-2.39-1.8-6.29,3.06-3.25,4.98-10.71,7.8-13.71.26-.28.86-.96,1-1Z"/>
      <path class="cls-5" d="M68,16c1.05,1.7,2.14,3.13,3,5,.21,7.4-1.01,15.9,1,23-.17,1.07-1.2,2.25-2,3-.06-.18-1.88-.35-2-3-.01-.33,0-.67,0-1,.12-6.06.89-13.05.06-19.55-.31-2.41-1.74-3.6-2.06-6.45-.15-1.3.08-2.69.01-3.99h.98c-.11,1.18.43,2.04,1.01,2.99Z"/>
      <path class="cls-44" d="M14,17c-1.11,5.35-.06,5.41,0,9,.12,7.01-.61,14.13,1,21-1.22-.56-2.56-.93-3.5-1.98-.05-7.63-1.21-17.64-.02-25.08.27-1.67.14-3.51,2.51-2.94Z"/>
      <path class="cls-41" d="M5,74c-.12.12.07.64,0,1-1.34.52-1.5,12.81-.99,14.49.13.45.55.61.99.51-.04,3.32-.03,6.68,0,10,.02,2-.05,4,0,6s-.23,4.18,0,6c.1.76,1.07,1.96,1,3-.79-.88-1.83-.87-2.8-2.74-1.27-2.45-.16-3.01-.2-4.26-.25-8.14.1-16.36.02-24.51-.02-1.69.64-4.44-1.02-5.49.35-1.98.25-2.81,1-5l2,1Z"/>
      <path class="cls-8" d="M62,118c.04.33-.05.67,0,1,.14.94-.17,2.1,0,3,.21,1.11,1.1,2.3,2,3-.29,1-4.84,6.14-6,7,1.17-3.65-2.93-3.83-6-4,.57-.55,1.68-2.87,2-3,.92-.37,3.51.61,4.56-.93.79-1.16.56-5.37.44-7.07l3,1Z"/>
      <path class="cls-68" d="M55,5v1c-8.28-.22-16.78-2.38-25,0l-1-3c5.85.01,11.71-.03,17.57.03,1.27.01,2.3-1.03,2.43-1.03,2.6.05,4.42,1.87,6,3Z"/>
      <path class="cls-40" d="M3,108c-2.3-.7-1.93-2.59-2.06-4.45-.53-7.83-.28-17.92,1.06-25.55,1.66,1.04,1,3.8,1.02,5.49.09,8.16-.26,16.37-.02,24.51Z"/>
      <path class="cls-20" d="M70,47c.62,1.79-1.35,8.66-2,11-1.12.03-2.02.57-3,1,.69-5.58-2.27-11.7,3-15,.12,2.65,1.94,2.82,2,3Z"/>
      <path class="cls-27" d="M16,48c.18.09-.02-.48,2.77.93,2.6,1.31,4.51.6,6.23,4.07.18.37-.3,1.52-.01,2.32.35.98,1.93.6,2,.69,1.95,2.68-3.18,1.86-4.98,1.98-.33.02-.67-.02-1,0,.56-3.46-1.48-6.49-5-7-.22-.78.15-2.08,0-3Z"/>
      <path class="cls-17" d="M29,106c-2.75,4.64.35,7.19,4,10,.18.14,1.36.63,2,1l-3,3c-.46-.34-1.1-.51-1.5-.97l-.5.97c-.21-.15-1.16-.03-1.96-.58-1.14-.78-.88-3.48-4.04-2.42.23-.16-.72-3.22,4-2,.39-1.2-.93-2.38-1-3-.28-2.43-.88-7.03,2-6Z"/>
      <path class="cls-1" d="M15,58v1c-2.82,1.18-2.51,1.71,0,3-.43.11-3.18,3.45-4,4-.89.6-1.95.85-3,1-.05-.45-.53-.89-1-1,1.67-2.76.19-1.68,3.53-5.02s1.54-1.49,4.47-2.98Z"/>
      <path class="cls-23" d="M30,6c-2.03.59-9.56,4.57-11,6l-1-1c3.77-3.67,6.11-5.6,11-8l1,3Z"/>
      <path class="cls-18" d="M19,12c-4.31,4.28-3.75,8.64-4,14h-1c-.06-3.59-1.11-3.65,0-9,.22-1.05-.48-2.67.22-3.76.39-.62,2.85-1.33,3.78-2.24l1,1Z"/>
      <path class="cls-48" d="M65,94c-3.41,8.42-1.3,13.88-1,22h-2c-.03-.33.02-.67,0-1v-21h3Z"/>
      <path class="cls-7" d="M68,58c-.75,2.68-2.36,5.06-2,8-.95-.81-4.7-1.1-5.01-2.52-.29-1.32,1.73-2.43,2.01-3.48.67-.32,1.39-.73,2-1,.98-.43,1.88-.97,3-1Z"/>
      <path class="cls-16" d="M56,6c5.35-3.13,5.18.92,8,4l-1,3c-1.87-2.06-4.91-5.06-7-7Z"/>
      <path class="cls-52" d="M8,67c.16,1.43.26,4.08-.15,5.35-.63,1.99-2.66,1.46-2.85,1.65l-2-1c1.04-3.03,2.63-4.74,4-7,.47.11.95.55,1,1Z"/>
      <path class="cls-66" d="M69,88c.6-4.97-.43-10.89,0-16,2.14,5.57,3.48,10.15,0,16Z"/>
      <path class="cls-72" d="M72,23c-.39,6.51.54,13.57,0,20-.03.33.05.68,0,1-2.01-7.1-.79-15.6-1-23,.3.65.72,1.09,1,2Z"/>
      <path class="cls-58" d="M57,147c-.62.94-1.29.71-2,1h-16c-2.62-.37-3.05.07-6-1h24Z"/>
      <path class="cls-70" d="M21,58c-2.53.18-3.41-.09-6,1v-1c1.07-.54,2.12-2.31,4-2.01-.83-1.74-2.46-3.07-3-4.99,3.52.51,5.56,3.54,5,7Z"/>
      <path class="cls-35" d="M49,2c-.13,0-1.16,1.04-2.43,1.03-5.86-.06-11.72-.02-17.57-.03,4.72-2.31,14.4-1.01,20-1Z"/>
      <path class="cls-61" d="M64,10c1.88,2.06,5.27,1.17,4,6-.59-.95-1.13-1.81-1.01-2.99h-.98c.07,1.31-.16,2.69-.01,3.99-1.62-.69-2.7-3.67-3-4l1-3Z"/>
      <path class="cls-66" d="M72,43c.54-6.43-.39-13.49,0-20,1.71,5.51,1.65,14.34,0,20Z"/>
      <path class="cls-21" d="M5,112c3.7.82,1.43,2.67,6,3,1.05.08,5.74.17,6,0-3.99,1.61-8.62-.28-8,3-1.74-1.16-1.83-1.7-3-3,.07-1.04-.9-2.24-1-3Z"/>
      <path class="cls-49" d="M69,72c-.43,5.11.6,11.03,0,16-.04.35.09.74,0,1-2.28-5.71-.41-12.93-1-19,.44.73.69,1.18,1,2Z"/>
      <path class="cls-66" d="M55,148c-3.77,1.54-10.3,1.36-14.52.97-1.61-.15-1.4-.96-1.48-.97h16Z"/>
      <path class="cls-13" d="M64,118c.04,1.56.18,3.52,0,5-.43-.17-.89-.56-1-1-.24-.96.37-2.4-1-3-.05-.33.04-.67,0-1-.09-.64.06-1.35,0-2h1l1,2Z"/>
      <path class="cls-21" d="M19,119c-1.2.3-3.5-.06-5,0,.66-1.58,4.34-1.58,5,0Z"/>
      <path class="cls-56" d="M64,123c-.08.65.15,1.49,0,2-.9-.7-1.79-1.89-2-3h1c.11.44.57.83,1,1Z"/>
      <path class="cls-47" d="M64,118l-1-2h1c.02.67-.02,1.33,0,2Z"/>
      <path class="cls-53" d="M32,120c.46.33.83,1.87,2,2-.14.04-.74.72-1,1-.57-1.62-1.79-2.12-3-3l.5-.97c.4.46,1.04.63,1.5.97Z"/>
      <path class="cls-32" d="M37,112c1.57.05,10.07,2.66,11.01,3.49,1.49,1.31.62,3.72,1.54,5.5.23.44,3.8,2.93,4.45,4.01-.32.13-1.43,2.45-2,3-.9-.05-2.19-.14-3,0-3.63.63-3.97,5.2-3,8l-1.01-7.99-5.99,2.99c.69-2.31,1.26-4.71,2-7,.15-.45-.35-1.57.08-1.89.51-.38,4.86.06,4.9-1.61.04-1.85-7.35-1.28-9.98-2.5l7.99-1.5c-1.33-1.02-5.88-.33-6.86-1.67-.55-.76.08-2.22-.14-2.83Z"/>
      <path class="cls-42" d="M39,131l5.99-2.99,1.01,7.99c.05.15.79-.14,1,0,2.99,2.01,6.28-.56,6.03,5.53-.05,1.19-.62,1.07-1.03,1.47-5.62,1.29-6.77-3-12-3-.25-1.52.19-3.41,0-5.01-.66-.03-1.33.02-2,0-.25-1.56.62-2.73,1-4Z"/>
      <path class="cls-43" d="M27,143c-1.97-1.89,1.87-5.89,2.46-7.07,1.48-2.98-1.26-4.7,4.54-3.93v5c2.88.95,1.73-1.78,2-1.99.14-.11,1.45-.01,2,0,.67.01,1.33-.04,2,0,.19,1.6-.25,3.49,0,5.01-4.91,0-2.02.99-3.2,2.72-.87,1.27-9.44.63-9.8.28Z"/>
      <path class="cls-69" d="M52,143c-2.48,2.42-11.35.99-12-3,5.23,0,6.38,4.29,12,3Z"/>
      <path class="cls-12" d="M49,128c-1.96,2.77.8,5.72-2,8-.21-.14-.95.15-1,0-.97-2.8-.63-7.37,3-8Z"/>
      <path class="cls-38" d="M12,87c1.09-2.06,4.29-9.26,5.84-4.34,2.41,7.68-4.23,8.23-3.56,12.72.13.86,3.04,6.04,3.73,6.62.81.68,2.32.61,3,1-1.06,1.76-3.47,11.66-4,12-.26.17-4.95.08-6,0-1.36-3.49-3.89-5.91-4.01-10l-1.99,1c-.05-2,.02-4,0-6,3.58-3.55,4.85-8.93,7-13Z"/>
      <path class="cls-6" d="M20,69c-.52.95-2.84,5.35-2.87,5.67-.21,2.15,2.39,2.65,2.87,3.33,1.78,2.54-2.04,9.5,1,12h6.02v-9.02h-6.03v9.02h6.01c-.82,1.2-3.31,1.74-3,4-7.19-.07-6.13,1.18-6,8-.69-.58-3.6-5.76-3.73-6.62-.67-4.49,5.97-5.04,3.56-12.72-1.54-4.92-4.75,2.28-5.84,4.34-.85-.39-1-1.16-1-2,0-2.73.06-5.24,0-8,0-.33,0-.67,0-1,3.94,3,2.83-1.92,4.98-4.52,1.08-1.3,2.19-2.41,4.02-2.48Z"/>
      <path class="cls-54" d="M30,83c1.5,2.25,1.46,8.07,1.02,10.53-.47,2.62-3.63,2.12-3.59,4.94.04,3.29,3.55,5.67,3.56,6.03.01.63-1.84,1.25-1.98,1.5-2.88-1.03-2.28,3.57-2,6-4.74.41-3.29-13.23-2.49-15.02.48-1.07,1.68-1.36,2.49-1.98s2.77-.54,3.04-1.67c.52-2.24-.04-7.52-.04-10.33Z"/>
      <path class="cls-2" d="M30,81c0,.67,0,1.33,0,2,0,2.81.55,8.09.04,10.33-.26,1.13-2.25,1.06-3.04,1.67-.48-1.28-1.9-.99-3-1-.31-2.26,2.18-2.8,3-4,2.75-4.05-1.35-8.85,3-9Z"/>
      <path class="cls-3" d="M17,115c.53-.34,2.94-10.24,4-12,1.35.77-.52,8.66-1.19,10.34-.77,1.91-1.71,1.22-2.81,1.66Z"/>
      <path class="cls-37" d="M55,6c-3.22,4.85,5.08,8.37,6.33,11.24.82,1.89.6,4.51,1.37,6.56,2.35,6.32,5.29,12.08,5.3,19.19,0,.33-.01.67,0,1-5.27,3.3-2.31,9.42-3,15-.61.27-1.33.68-2,1,1.22-4.58-4.13-.49-6,1-3.43-.3-3.95,2.56-7.44,3.05-7.47,1.05-12.17-1.45-15.56-8.04h5.44c2.37-2.64-1.29-2.94-1.77-4.21-1.29-3.45-.52-3.91-2.68-7.8-1.92-3.47-4.15-7.3-8.63-7.67-.69-.06-5.12.54-5.31.74-.48.51.92,7.46-3.08,5.45-4.3-2.16-3.19-12.08-2.99-16.52.25-5.36-.31-9.72,4-14,1.44-1.43,8.97-5.41,11-6,8.22-2.38,16.72-.22,25,0ZM55,55c1.53-1.53,1.55-8.25.51-10.01-1.79-3.04-18.07-4.4-14.51,4.01l6.99-.99,1.01,7c.53,1.16,4.41,1.59,6,0Z"/>
      <path class="cls-50" d="M28,53c.78,1.18,1.83.8,2.01,1.02.43.55-2.35,2.04-2.01,3.45.11.45,6.29,6.17,6.72,6.32,3.27,1.1,14.49,1.84,17.81,1.23,1.87-.34,2.79-2.68,4.48-4.01,1.87-1.49,7.22-5.58,6-1-1.52.72-3.83.55-5,2.52,1.04,1.54,2.13,4.14,3,5.48-6.8-1.16-24.46,1.97-29.55-.95-2.02-1.16-4.38-6.02-6.93-6.04-.83,0-1.37.98-1.52.99-.66.03-1.34-.04-2,0l1-4c1.81-.12,6.94.69,4.98-1.98-.07-.09-1.65.29-2-.69-.28-.8.2-1.96.01-2.32h3Z"/>
      <path class="cls-33" d="M35,44c2.15,3.89,1.38,4.35,2.68,7.8.48,1.28,4.14,1.57,1.77,4.22h-5.44c3.39,6.59,8.09,9.09,15.56,8.04,3.49-.49,4-3.35,7.44-3.05-1.68,1.34-2.6,3.67-4.48,4.01-3.32.61-14.54-.13-17.81-1.23-.44-.15-6.62-5.87-6.72-6.32-.34-1.41,2.45-2.9,2.01-3.45-.17-.22-1.22.16-2.01-1.02-.16-.24.16-.81,0-1,4.59-.11,5.2-2.28,6-6,.17-.79-.04-1.73,1-2Z"/>
      <path class="cls-64" d="M28,52c-1.1-1.32-3.95-3.44-4.02-3.7-.34-1.36-.2-7.24.49-8.33,2.36-3.72,3.37,2.37,3.78,2.78.92.92,4.96.44,5.76,3.25-.8,3.72-1.41,5.89-6,6Z"/>
      <path class="cls-33" d="M61,68c3.66,5.62,3.81,3.06,4,11l-5.99-4.99-1.01,5.99c-.26-1.5.2-3.41,0-5.01-6.22-1.29.21,4.23-3,6.01.39-3.33.18-2.47-2.2-3.3-4.15-1.44-14.53-8.36-17.88-6.24-.99.63-.67,2.2-.93,2.53-5.27,1.27-1.6-3.91-3.94-5.57-1.75-1.25-7.6-.03-10.06-.43,1.57-3.14,4.79-2.12,3.97-5.47l-.97-.53c.14,0,.68-.99,1.52-.99,2.55.02,4.91,4.88,6.93,6.04,5.09,2.92,22.75-.21,29.55.95Z"/>
      <path class="cls-31" d="M58,80l1.01-5.99,5.99,4.99c.07,3.07.61,5.41-1,8-.88.17-2.33-.25-3,0-.69-.88-.65-2.05-1-3-.87-2.37-1.63-1.83-2-4Z"/>
      <path class="cls-51" d="M64,87c-.68,1.1-1.02,1.04-2,3-.81,1.62-2.04,2.89-2,5-.84-.03-1.46.79-2,1-1.19.46-2.25.06-3,2-.32-.6-2.95-.44-3.04-1.58-.08-.91,2.44-6.21,3.04-6.42.71-.24,2.29.37,3.25-.03s1.48-2.5,2.75-2.97c.67-.25,2.12.17,3,0Z"/>
      <path class="cls-73" d="M62,94v21c-.43-5.83-1.9-14.3-2-20-.04-2.11,1.19-3.38,2-5v4Z"/>
      <path class="cls-22" d="M36,118c2.63,1.22,10.02.65,9.98,2.5-.04,1.67-4.39,1.23-4.9,1.61-.43.32.06,1.44-.08,1.89-.6.13-1.58-.19-2,0,.77-2.64-3.23-2.46-5-2-1.17-.13-1.54-1.67-2-2l3-3c.35.2.64.83,1,1Z"/>
      <path class="cls-30" d="M41,124c-.74,2.29-1.31,4.69-2,7-.38,1.27-1.25,2.44-1,4-.55-.01-1.86-.11-2,0,.21-4.02-1.44-9.01,3-11,.42-.19,1.4.13,2,0Z"/>
      <path class="cls-62" d="M12,87c-2.15,4.07-3.42,9.45-7,13-.03-3.32-.04-6.68,0-10,2.66.35,4.31-3.42,6-5,0,.84.15,1.61,1,2Z"/>
      <path class="cls-28" d="M11,76c0,.33,0,.67,0,1-3.27.26-2.89-2.62-6-2,.07-.36-.12-.88,0-1,.19-.19,2.22.34,2.85-1.65.4-1.27.31-3.92.15-5.35,1.05-.15,2.11-.4,3-1,.06,3.32-.09,6.68,0,10Z"/>
      <path class="cls-15" d="M11,115c-4.57-.33-2.3-2.18-6-3-.23-1.82.05-4.07,0-6l1.99-1c.12,4.08,2.65,6.51,4.01,10Z"/>
      <path class="cls-25" d="M5,90c-.44.1-.85-.06-.99-.51-.51-1.68-.35-13.97.99-14.49-.69,3.8.05,10.68,0,15Z"/>
      <path class="cls-46" d="M37,112c-1.08-3.02-2.81-2.89-3.02-3.7-.63-2.39.46-6.58.03-9.3h2.99c-.53,8.44-.05,4.74,4.28,6.2,1.41.48,2.11,2.21,3.42,2.6,2.66.79,6.27-.24,9.3,1.2s4.77,4.91,5,8c.12,1.69.36,5.91-.44,7.07-1.05,1.54-3.64.57-4.56.93-.65-1.08-4.22-3.57-4.45-4.01-.92-1.78-.06-4.19-1.54-5.5-.94-.83-9.45-3.44-11.01-3.49Z"/>
      <path class="cls-71" d="M60,95c.1,5.7,1.57,14.17,2,20,.02.33-.03.67,0,1,.06.65-.09,1.36,0,2l-3-1c-.23-3.09-2.04-6.59-5-8-2.43-4.14-.51-2.27,2-3,.6-.17,1.84.58,2.04-.63l-.04-9.37c.54-.21,1.16-1.03,2-1Z"/>
      <path class="cls-47" d="M63,122h-1c-.17-.9.14-2.06,0-3,1.37.6.76,2.04,1,3Z"/>
      <path class="cls-67" d="M21,58c.33-.02.67.02,1,0l-1,4c-1.79.12-4.58-.37-6,0-2.51-1.29-2.82-1.82,0-3,2.59-1.09,3.47-.82,6-1Z"/>
      <path class="cls-19" d="M32,81c1.4.5,4.4,5.28,5.26,5.72,1.37.7,3.55.2,5.49,1.03,2.05.88,3.21,4.18,5.27,2.79,1.69-1.14,1.75-5.11,6.98-3.53,0,1,0,2,0,3-.61.21-3.12,5.51-3.04,6.42.1,1.14,2.72.98,3.04,1.58.49.93.66,6.37,1,8-2.51.73-4.43-1.14-2,3-3.03-1.44-6.64-.4-9.3-1.2-1.3-.39-2.01-2.13-3.42-2.6-4.33-1.46-4.81,2.23-4.28-6.2h-2.99c.43,2.72-.65,6.92-.03,9.3.21.82,1.94.68,3.02,3.7-3.15-.11-4.28.63-4,4-3.65-2.81-6.75-5.36-4-10,.15-.25,2-.87,1.98-1.5,0-.36-3.51-2.74-3.56-6.03-.04-2.83,3.12-2.32,3.59-4.94.44-2.46.48-8.28-1.02-10.53,0-.67,0-1.33,0-2,.58-.02,1.62-.13,2,0ZM47,96.99c-4.18-7.52-9.43-.1-6.53,5.05.69,1.22,3.21.15,3.44-.14,1.41-1.83-2.56-7.87,3.09-4.9Z"/>
      <path class="cls-26" d="M37,112c.22.61-.41,2.07.14,2.83.98,1.34,5.53.65,6.86,1.67l-7.99,1.5c-.36-.17-.65-.8-1-1-.64-.37-1.82-.86-2-1-.28-3.37.85-4.11,4-4Z"/>
      <path class="cls-34" d="M21,62c.66-.04,1.34.03,2,0l.97.53c.82,3.35-2.4,2.33-3.97,5.47-.13.27.14.75,0,1-1.83.07-2.94,1.17-4.02,2.48-2.15,2.6-1.05,7.52-4.98,4.52-.09-3.32.06-6.68,0-10,.82-.55,3.57-3.89,4-4,1.42-.37,4.21.12,6,0Z"/>
      <path class="cls-63" d="M20,68c2.47.41,8.31-.82,10.06.43,2.33,1.66-1.34,6.83,3.94,5.57-.48.64-.69,1.57-1.52,1.99h-1.48c-1.09-4.05-2.78.21-4.7.81s-4.58-.51-6.3,1.2c-.48-.68-3.07-1.18-2.87-3.33.03-.32,2.35-4.72,2.87-5.67.14-.25-.13-.73,0-1Z"/>
      <path class="cls-36" d="M5,75c3.11-.62,2.73,2.26,6,2,.06,2.76,0,5.27,0,8-1.69,1.58-3.34,5.35-6,5,.05-4.32-.69-11.2,0-15Z"/>
      <path class="cls-10" d="M31,76c.36,1.36-.34,3.53,1,5-.38-.13-1.42-.02-2,0-4.35.15-.25,4.95-3,9h-6c-3.04-2.5.78-9.46-1-12,1.72-1.71,4.33-.6,6.3-1.2s3.61-4.85,4.7-.8Z"/>
      <rect class="cls-14" x="20.99" y="80.98" width="6.03" height="9.02"/>
      <path class="cls-11" d="M55,55c.88-2.32-3-2.66-2.98-3.5,0-.34,5.28-2.37,2.81-5.36-.29-.36-7.92-3.33-8.83-1.65,5.57,1.59,1.71,7.67,3,10.5l-1.01-7-6.99.99c-3.57-8.41,12.72-7.04,14.51-4.01,1.04,1.76,1.02,8.48-.51,10.01Z"/>
      <path class="cls-45" d="M49,55c-1.29-2.83,2.57-8.91-3-10.5.9-1.69,8.53,1.29,8.83,1.65,2.46,2.98-2.81,5.01-2.81,5.36-.02.84,3.86,1.18,2.98,3.5-1.59,1.59-5.47,1.16-6,0Z"/>
      <path class="cls-39" d="M34,74c.25-.33-.07-1.9.93-2.53,3.34-2.12,13.73,4.8,17.88,6.24,2.38.82,2.59-.03,2.2,3.3-.8.44-2.3.08-2.98,1.5,2.16,1.67,2.59.84,2.98,3.5.05.31,0,.68,0,1-5.22-1.58-5.29,2.39-6.98,3.53-2.06,1.39-3.21-1.91-5.27-2.79-1.94-.83-4.12-.33-5.49-1.03-.86-.44-3.86-5.22-5.26-5.72-1.34-1.47-.64-3.64-1-5h1.48c.83-.43,1.04-1.36,1.52-2Z"/>
      <path class="cls-59" d="M55,81c3.2-1.78-3.22-7.3,3-6.01.2,1.59-.25,3.5,0,5.01.37,2.17,1.13,1.63,2,4-2.5-.53-2.12.86-2,3l-3-1c-.39-2.66-.82-1.83-2.98-3.5.68-1.42,2.18-1.06,2.98-1.5Z"/>
      <path class="cls-60" d="M60,84c.35.95.31,2.12,1,3-1.27.47-1.77,2.57-2.75,2.97s-2.54-.21-3.25.03c0-1,0-2,0-3,0-.32.05-.69,0-1l3,1c-.12-2.14-.5-3.54,2-3Z"/>
      <path class="cls-9" d="M58,96l.04,9.37c-.21,1.21-1.44.46-2.04.63-.34-1.63-.51-7.07-1-8,.75-1.94,1.81-1.54,3-2Z"/>
      <path class="cls-26" d="M47,96.99c-5.65-2.97-1.68,3.07-3.09,4.9-.23.3-2.75,1.36-3.44.14-2.9-5.14,2.35-12.57,6.53-5.05Z"/>
    </g>
  </g>
</svg>