<?xml version="1.0" encoding="UTF-8"?>
<svg id="_Слой_2" data-name="Слой 2" xmlns="http://www.w3.org/2000/svg" viewBox="0 0 79 151">
  <defs>
    <style>
      .cls-1 {
        fill: #461f13;
      }

      .cls-2 {
        fill: #8d4d36;
      }

      .cls-3 {
        fill: #d5997b;
      }

      .cls-4 {
        fill: #d89b7d;
      }

      .cls-5 {
        fill: #fde3cd;
      }

      .cls-6 {
        fill: #ac9c97;
      }

      .cls-7 {
        fill: #faddc7;
      }

      .cls-8 {
        fill: #542d21;
      }

      .cls-9 {
        fill: #fbe0ca;
      }

      .cls-10 {
        fill: #c18268;
      }

      .cls-11 {
        fill: #451d12;
      }

      .cls-12 {
        fill: #f5d8c1;
      }

      .cls-13 {
        fill: #8f5037;
      }

      .cls-14 {
        fill: #cb9377;
      }

      .cls-15 {
        fill: #d59376;
      }

      .cls-16 {
        fill: #bb7c62;
      }

      .cls-17 {
        fill: #e6b69b;
      }

      .cls-18 {
        fill: #92523a;
      }

      .cls-19 {
        fill: #ca9277;
      }

      .cls-20 {
        fill: #e5a07c;
      }

      .cls-21 {
        fill: #fbdfc9;
      }

      .cls-22 {
        fill: #512c21;
      }

      .cls-23 {
        fill: #643e32;
      }

      .cls-24 {
        fill: #e4a07b;
      }

      .cls-25 {
        fill: #d08f73;
      }

      .cls-26 {
        fill: #fdd4b6;
      }

      .cls-27 {
        fill: #734231;
      }

      .cls-28 {
        fill: #e9c6af;
      }

      .cls-29 {
        fill: #f8dac3;
      }

      .cls-30 {
        fill: #684237;
      }

      .cls-31 {
        fill: #d39073;
      }

      .cls-32 {
        fill: #eae6e5;
      }

      .cls-33 {
        fill: #413128;
      }

      .cls-34 {
        fill: #3d251f;
      }

      .cls-35 {
        fill: #4c352c;
      }

      .cls-36 {
        fill: #481e12;
      }

      .cls-37 {
        fill: #f6c8aa;
      }

      .cls-38 {
        fill: #462116;
      }

      .cls-39 {
        fill: #563125;
      }

      .cls-40 {
        fill: #7d4d3f;
      }

      .cls-41 {
        fill: #844832;
      }

      .cls-42 {
        fill: #4b2317;
      }

      .cls-43 {
        fill: #a99994;
      }

      .cls-44 {
        fill: #d29276;
      }

      .cls-45 {
        fill: #ca8c72;
      }

      .cls-46 {
        fill: #4a2418;
      }

      .cls-47 {
        fill: #fbd2b4;
      }

      .cls-48 {
        fill: #cd9377;
      }

      .cls-49 {
        fill: #d18e71;
      }

      .cls-50 {
        fill: #874932;
      }

      .cls-51 {
        fill: #542b1f;
      }

      .cls-52 {
        fill: #fbd0b1;
      }

      .cls-53 {
        fill: #714438;
      }

      .cls-54 {
        fill: #fadec8;
      }

      .cls-55 {
        fill: #4a2014;
      }

      .cls-56 {
        fill: #4f2c22;
      }

      .cls-57 {
        fill: #d5987a;
      }

      .cls-58 {
        fill: #f3cbb1;
      }

      .cls-59 {
        fill: #3e180d;
      }

      .cls-60 {
        fill: #451f13;
      }

      .cls-61 {
        fill: #3c241d;
      }

      .cls-62 {
        fill: #361d16;
      }

      .cls-63 {
        fill: #7f4d41;
      }
    </style>
  </defs>
  <g id="_Слой_41_Изображение" data-name="Слой 41 Изображение">
    <g>
      <path class="cls-36" d="M44,118c-5.88-1.04-4.08,2.26-5,6-.7,2.86-3.02,5.71-3.01,6.49s4.27.77,2.9,4.87c-.71,2.11-7.74,3.7-5.89,8.64,2.46-.38,6.13.59,8.3.03,1.02-.26.87-2.27,2.35-2.83,1.27-.48,3.34.09,4.41-.62,1.51-1-.22-5.43,3.93-5.57.07.55.8,1.36,1,2-.66,1.63-.97,4.74-1.99,5.51-.33.25-7.09,3.11-7.72,3.27-3.13.84-8.85,1.04-12.29,1.21,1.23-5.35-1.78-15.71,1.12-20.42,1.28-2.09,3.21-.9,3.88-5.58,1.46-1.56,2.64-3.34,4-5,1.17,1.04,2.67,1.07,4,2Z"/>
      <path class="cls-2" d="M45,56c2.86,2.91,5.29,1.53,7,5-5.71.52-7.76,2.32-11,7-8.31,0-20.24-1.03-28,0-1.38.18-3.74,2.05-4,3h-1c.07-.97.78-4.54,1-6,.36-2.43-.08-3.26,0-4,.07-.62,1.48-1.48,2-2,2.11,1.94,6.91,4,10,5,8.65,2.79,19.9,1.03,24-8Z"/>
      <path class="cls-60" d="M17,136c-2.94,5.47-6.3,2.97-9,5-2.39,1.8.75,5.86-3,5-.93-1.67-1.61-8.43-.99-8.99.4-.36,8.71-.35,9.86-3.64.6-1.72.32-16.93-.45-17.48-3.05-2.16-8.77,1.45-9.42-3.89,1.28-.01.93-1.01,1-1,2.31.2,6.2,1.99,9,1,1.82-.64.63-3.66,1.2-5.33l.8-.67c.81,2.8,2.1,5.31,2.08,8.51-.03,6.54-2.16,14.47-1.08,21.49Z"/>
      <path class="cls-1" d="M49,91c-.42-.58-1.19-10.03,3.04-6.32,2.47,2.16,2.2,2.82,5.96,5.32.31,3.22-.54,2.44-2,4-2.72,2.92-7.96,6.63-1,9-.24,1.79.02,4.09,0,6-.03,2.33.02,4.67,0,7-.27-.23-1.9.08-2.51-.95-.77-1.28-.31-3.4-1.01-5.05-.29-.7-1.42-.85-1.48-1-.2-.46-.94-.8-1-1-.21-.68.07-2.07,0-3-.37-4.63-.62-9.57,2.04-13.49,0-.87-1.95-.39-2.04-.51Z"/>
      <path class="cls-34" d="M76,75c1.33,2.74,1.7,20.98.99,24.48-.26,1.28-4.11,10.83-4.99,12.52-2-1.3-2.12-3.82-2-6,.24-.73,1.99-7.59,2-8h1c2.34-6.06.32-14.27,1-21,.16-1.63-.25-2.36,2-2Z"/>
      <path class="cls-46" d="M8,15c-2.87,9.52-5.4,20.15-2,30,.19.55-.22,1.76,0,2-.47.1-.96.55-1,1-4.22-2.1-3.73-4.06-4-8,1.7-4.36,1.19-11.07,1-16-.05-1.22-1.75-2.86-.88-5.34.52-1.5,2.64-1.58,3.36-2.72,1.61-2.54-.75-3.65,4.52-5.95-.42,1.47-.49,3.3-1,5Z"/>
      <path class="cls-46" d="M58,48l-2-1c1.31-1.38,1.65-.33,2-3,1.31-5.26,1.69-14.14,1.02-19.52-.42-3.4-2.45-5.29-3.02-8.48-.27-1.48.18-3.42,0-5,7.14,8.42,7.42,19.59,5.91,30.41-.65,4.69-2.06,4.16-3.91,6.59Z"/>
      <path class="cls-18" d="M36,121c-.67,4.67-2.6,3.49-3.88,5.58-2.9,4.71.11,15.07-1.12,20.42-7.48.38-15.87-1.12-23,1-1.27-.68-1.79.17-3-2,3.75.86.61-3.2,3-5,.61,1.1.49,4.75,1.61,5.06,2.05.57,19.5.01,20.25-1.19,1.98-3.15-2.52-6.22-2.87-8.87-.25-1.87.52-7.04,1-9,.09-.35-.13-.85,0-1s1.75-.12,2.53-.97c1.76-1.94,2.47-3.99,5.47-5.03,0,.32.05.68,0,1Z"/>
      <path class="cls-3" d="M65,92c-.26,1.71.37,9.65,0,10-.46.44-4.66-.61-5.86.13-2.34,1.46-.16,12.66,5.09,11.69,4.01-.74,3.29-3.44,4.23-5.85.4-1.04,1.45-1.75,1.53-1.98-.12,2.18,0,4.7,2,6-.34.65-.61,1.38-1,2-3.4-2.67-2.36.88-4.42,1.08-1.5.15-5.68.25-6.92-.04-2.42-.56.29-7.67-4.66-6.04.02-1.91-.24-4.21,0-6,.07-.52.76-1.35,1-2,6.6-.05,4.99-4.37,6-8,.44-1.6,2.48-.7,3-1Z"/>
      <path class="cls-42" d="M58,48c-1.86,2.44-6.96,6.63-5.53,9.02,2.86,4.81,12.45-1.45,13.53,4.98-2.53-.86-4.42-.85-7-1-2.13-.12-4.91-.19-7,0-1.71-3.47-4.14-2.09-7-5-.87-.89-2.55-.85-2-2.99,5.43,1.61,5.43-1.48,7.05-2.41,2.89-1.65,3.26-.78,5.95-3.6l2,1Z"/>
      <path class="cls-33" d="M46,4c-.69,1.5-2.68.97-4,1-6.63.14-13.38-.32-20,0-.96.05-3.7-.2-4,0v-2c6.13-2.42,21.6-1.67,28,1Z"/>
      <path class="cls-11" d="M50,109c-4.09,5.44-2.05,12.57,1,18-1.46-.87-3.61-1.34-5-3-.04-.33.04-.67,0-1-.36-2.69.76-3.07-2-5-1.33-.93-2.83-.96-4-2,.85-1.03,2.71-3.71,3-4,1.51-1.51,4.01-3.09,6-4,.06.2.8.54,1,1Z"/>
      <path class="cls-8" d="M55,109c4.95-1.63,2.24,5.48,4.66,6.04,1.24.29,5.42.19,6.92.04,2.07-.2,1.03-3.75,4.42-1.08-.36.58-1.65,1.19-2.35,2.02-.37.44.31,1.75.19,1.85-1.53,1.28-8.72,1.38-10.92.68-1.83-.58-1.99-1.76-2.92-2.55.02-2.33-.03-4.67,0-7Z"/>
      <path class="cls-38" d="M8,71c-.36,5.28.27,10.71,0,16-.03.65.09,1.37,0,2h-1c-.5-1.03-1.58-2.01-2-3v-17c.53-.86,3.12-3.01,4-4-.22,1.46-.93,5.03-1,6Z"/>
      <path class="cls-61" d="M31,147c-.97,4.24-15.61,3.55-19.48,2.95-2.27-.35-2.37-1.33-3.52-1.95,7.13-2.12,15.52-.62,23-1Z"/>
      <path class="cls-22" d="M56,11c.18,1.58-.27,3.52,0,5h-1c-2.88-3.19-8.94-9.09-13-10v-1c1.32-.03,3.31.5,4-1,5.33,2.22,6.29,2.62,10,7Z"/>
      <path class="cls-30" d="M66,62c4.92,1.66,2.91,3.97,5.14,7.36,1.38,2.1,3.79,3.46,4.86,5.64-2.25-.36-1.84.37-2,2h-1c-.16-1.47-1.87-3.34-3-5-.76-1.11-.76-1.49-2-3s-3.49-3.58-5-5c-1.33-1.26-2.32-2.17-4-3,2.58.15,4.47.14,7,1Z"/>
      <path class="cls-56" d="M8,89c-.4,2.8-1.74,1.79-1.99,2.66-1.37,4.85,1.98,2.36,3.99,4.34-2.53-1.07-4.72,1.75-6,2-.07.01-.32-1.11-.98-1.01l-.02,15.01c-2.73-.95-2.66-12.82-2.01-15.29.26-.98,1.97-1.01,2.41-1.77,1.2-2.08,1.09-4.98,3.61-5.94h1Z"/>
      <path class="cls-39" d="M6,47c.1.11,1.74-.43,2.02.65,1.35,5.09-2.6,6.24,2.98,11.35-.52.52-1.93,1.38-2,2-5.06-2.22-4.45-8.29-4-13,.04-.45.53-.9,1-1Z"/>
      <path class="cls-51" d="M18,5c-.13.09.12,1.66-1.66,2.8-2.09,1.33-5.59,1.44-7.34,2.2.31-1.08.44-3.12,1.24-3.76.33-.26,6.51-2.74,7.76-3.24v2Z"/>
      <path class="cls-62" d="M53,137c-.2-.64-.93-1.45-1-2-.11-.96.02-2.02,0-3-.04-1.66.03-3.33,0-5,3.28,1.61,3.83,4.95,2.8,8.35-.36,1.21-1.75,1.51-1.8,1.65Z"/>
      <path class="cls-53" d="M51,127c.24.14.72-.14,1,0,.03,1.67-.04,3.34,0,5-1.22-.21-5.43-3.71-5.73-4.27-.7-1.29-.1-2.54-.27-3.73,1.39,1.66,3.54,2.13,5,3Z"/>
      <path class="cls-43" d="M5,86c-1.49-3.49-1.83-14.03,0-17v17Z"/>
      <path class="cls-59" d="M4,98v1c.29,3.18-.42,6.93,0,10,.07.51.89,1.32,1,2-.07,0,.28.99-1,1-.33,0-.78.08-1,0l.02-15.01c.66-.1.91,1.02.98,1.01Z"/>
      <path class="cls-6" d="M1,40c-.33-4.77-.59-11.75,1-16,.19,4.93.7,11.64-1,16Z"/>
      <path class="cls-49" d="M46,123c.04.33-.04.67,0,1,.16,1.19-.43,2.45.27,3.73.3.56,4.51,4.06,5.73,4.27.02.98-.11,2.04,0,3-4.15.14-2.43,4.57-3.93,5.57-1.08.71-3.15.15-4.41.62-1.48.56-1.34,2.57-2.35,2.83-2.18.57-5.84-.41-8.3-.03-1.85-4.94,5.18-6.53,5.89-8.64,1.38-4.1-2.89-4.07-2.9-4.87s2.31-3.63,3.01-6.49c1.3-3.07,4.37-2.36,7-1Z"/>
      <path class="cls-41" d="M44,118c2.76,1.93,1.64,2.31,2,5-2.63-1.36-5.7-2.07-7,1,.92-3.74-.88-7.04,5-6Z"/>
      <path class="cls-41" d="M42,112h1c-.29.29-2.15,2.97-3,4-1.36,1.66-2.54,3.44-4,5,.05-.32,0-.68,0-1,0-.81.19-2.58,0-3,2.76-1.11,2.83-4.91,6-5Z"/>
      <path class="cls-26" d="M42,6c4.06.91,10.12,6.81,13,10-1.65,4.99,2.28,9.01,2.94,12.55.46,2.45.02,5.8.06,8.45-6.85,7.75-3.67,2.42-6.24.24-4.65-3.92-12.9,2.68-14.84,7.18-1.16,2.69-.7,5.02-1.6,7.38-.49,1.29-4.13,1.56-1.77,4.22h4.44c-1.29,9.02-9.62,8.43-17,7.99-3.09-1-7.89-3.06-10-5-5.58-5.11-1.63-6.26-2.98-11.35-.29-1.08-1.92-.54-2.02-.65-.22-.24.19-1.45,0-2-1.63-9.11,1.52-13.5,4.53-20.97.76-1.88.16-4.09.99-6.01.31-.7,6.55-6.84,7.53-7.47,2.72-1.77,7.92-1.42,7.95-4.55,3.47-.17,12.17-.64,15,0ZM29.99,47c3.05-2.74-14.51-6.91-12.02,2.37.31,1.14,2.34-.28,2.04,2.13-.1.77-3.18.12-2.01,2.99.74,1.8,3.49,1.96,5.02,1.03,2.88-1.74,1.01-8.88,3.44-9.31.6-.11,2.96,1.3,3.53.78Z"/>
      <path class="cls-24" d="M21,64c7.38.44,15.7,1.03,17-7.99h-4.44c-2.37-2.64,1.28-2.92,1.77-4.21.9-2.36.44-4.69,1.6-7.38,1.94-4.49,10.19-11.1,14.84-7.18,2.58,2.18-.6,7.51,6.24-.24.03,2.17.27,4.97,0,7-.35,2.67-.69,1.62-2,3-2.69,2.82-3.06,1.94-5.95,3.6-1.62.93-1.62,4.02-7.05,2.41-.56,2.14,1.12,2.1,2,2.99-4.1,9.03-15.35,10.79-24,8Z"/>
      <path class="cls-31" d="M41,68h2c-.96,2.06-1.21,3.72-1.01,6-2.69.51-2.32-2.53-4.23-3.33-5.81-2.43-13.8,2.34-16.33,7.34-1.24,2.46,2.58,3.78,2.54,4.49-.05.94-4,.88-3.02,3.96.23.74,2.05.76,2.5,1.52.78,1.32.36,2.93,1.54,5.02.36.64,1.52,1.29,2,2-1.12.08-5.8.22-6.01,0-.79-.8,1.97-5.33-2.99-4.02.31,2.39-.84,4.68-.56,7.05.35,2.93,3.23,6.36,3.55,7.95-3.77-.2-3.07-3.86-4.07-6.24-.3-.71-1.75-.74-1.9-1.46-.52-2.44,1.06-5.53-1.03-7.3-.23-.2-1.5-.08-2.48-1.01-.84-.81-1-2.41-1.52-2.99.48-.11.93-.53,1-1l5.99.99c-2.5-6.14-.76-3.94.49-7.01,2.02-4.97.95-10.52-5.48-8.98.29-1.02.41-2.08,1-3,7.76-1.03,19.69,0,28,0Z"/>
      <path class="cls-25" d="M52,61c2.09-.19,4.87-.12,7,0,1.68.83,2.67,1.74,4,3-4.27.51-11.67-2.23-11,4-3.59-3.48-6.15-6.14-9,0h-2c3.24-4.68,5.29-6.48,11-7Z"/>
      <path class="cls-45" d="M13,68c-.59.92-.71,1.98-1,3-1.63,5.83-.25,9.81-1,15-.07.47-.52.89-1,1-.11-.13-.67.08-1,0,.74-4.4-1.03-12.16,0-16,.26-.95,2.62-2.82,4-3Z"/>
      <path class="cls-10" d="M9,87h-1c.27-5.29-.36-10.72,0-16h1c-1.03,3.84.74,11.6,0,16Z"/>
      <path class="cls-47" d="M32,115c-.3,3.33-4,5.15-5,7h-6.01c-.81,4.64,1.64,2.56,5.01,3,.56.07,1.36.8,2,1-.13.15.09.65,0,1-5.12.23-6.01,11.02-1,9,.35,2.66,4.85,5.72,2.87,8.87-.76,1.2-18.2,1.76-20.25,1.19-1.13-.31-1-3.96-1.61-5.06,2.7-2.03,6.06.47,9-5,3.97-7.4-2.44-12.77,4-20,2.26-2.53,6.61-5.72,10.06-3.51.93.59.77,2.38.94,2.51Z"/>
      <path class="cls-50" d="M14,91c2.09,1.78.51,4.86,1.03,7.3.15.72,1.6.75,1.9,1.46,1,2.37.3,6.04,4.07,6.24.57,2.78-.4,6.98,0,10-6.44,7.23-.03,12.6-4,20-1.08-7.02,1.04-14.95,1.08-21.49.02-3.2-1.27-5.7-2.08-8.51-.57-1.99-.85-4.47-2-6,.1-2.99-.07-6.01,0-9Z"/>
      <path class="cls-63" d="M10,96c2.27,2.24-.18,5.62,2,9,1.47,2.27,3.05,2.29,2,7-2.8.99-6.69-.8-9-1-.11-.68-.93-1.49-1-2,5.24.75,4.26-5.08,4.01-8.54-.21-2.85-2.46-1.04-4.01-1.46v-1c1.28-.25,3.47-3.07,6-2Z"/>
      <path class="cls-55" d="M16,106l-.8.67c-.57,1.67.62,4.69-1.2,5.33,1.05-4.71-.53-4.73-2-7,3.08.76,1.91-2.32,2-5,1.15,1.53,1.43,4.01,2,6Z"/>
      <path class="cls-20" d="M49,91c.09.12,2.04-.36,2.04.51-2.66,3.93-2.41,8.86-2.04,13.49-2.83.44-5.67,4.41-7,7-3.17.09-3.24,3.89-6,5-.48-1.07-3.47-1.57-4-2-.17-.14-.01-1.92-.94-2.51-3.45-2.21-7.8.98-10.06,3.51-.4-3.02.57-7.22,0-10-.33-1.6-3.21-5.03-3.55-7.95-.28-2.38.86-4.66.56-7.05,4.96-1.31,2.2,3.21,2.99,4.02.21.21,4.89.07,6.01,0,.8-.06,2.82.16,2.99,0,1.97-1.89-4.14-2.22-1.99-3.99.97-.8,7.82,1.27,10.99-1.01,1.09-.78,4.09-5.11,6-7-.59,3.76.64,6.3,4,8ZM38.97,104.99c-.17-3.24,2.26-5.63,3.21-8.33,1.54-4.35-5.16-2.55-6.02,0-.76,2.28.14,5.83-.16,8.34l2.97-.02ZM21,95.98v3.02s6.01.01,6.01.01v-3.02s-6.01-.01-6.01-.01Z"/>
      <path class="cls-4" d="M53,69c3.13-.52,4.56,4.7,5.7,5.01,1.73.47,5.07.37,6.3-1.01.77,1.25,1.34,2.35,3,2-.49,3.59,1.2,8.45,5,9,.12,4.65-.08,9.35,0,14h-1c0-.13-1-1.13-1.04-2.42-.19-6.61.75-7.31-4.96-11.58-.36-.27-.63-.72-1-1,0-1.67.02-3.34,0-5.01l-7.01.02c.79,1.07,2.14,3.23,3,3.99-1.26,1.64-3.34.33-5,2-2.95,2.96,1.7,2.87,2,6-3.76-2.5-3.48-3.16-5.96-5.32-4.24-3.7-3.47,5.74-3.04,6.32-3.36-1.7-4.59-4.24-4-8,.84-.83,3.68-4.18,4.06-4.4,3.77-2.15,7.6.46,5.91-6.9-.04-.16-1.77-2.46-1.97-2.7Z"/>
      <path class="cls-32" d="M56,94c5.48.65.99,4.33,0,7-.24.65-.93,1.48-1,2-6.96-2.37-1.72-6.08,1-9Z"/>
      <path class="cls-23" d="M62,93c-1.01,3.63.6,7.95-6,8,.99-2.67,5.48-6.35,0-7,1.46-1.56,2.31-.78,2-4,1.4.93,2.58,2.1,4,3Z"/>
      <path class="cls-40" d="M49,105c.07.93-.21,2.32,0,3-1.99.91-4.49,2.49-6,4h-1c1.33-2.59,4.17-6.56,7-7Z"/>
      <path class="cls-54" d="M66,84c5.72,4.27,4.78,4.96,4.96,11.58.04,1.29,1.04,2.29,1.04,2.42-.01.41-1.76,7.27-2,8-.07.22-1.12.94-1.53,1.98-.94,2.42-.22,5.12-4.23,5.85-5.25.97-7.43-10.24-5.09-11.69,1.2-.74,5.4.31,5.86-.13.36-.35-.27-8.3,0-10,6.17-3.55.82-4.14,1-8Z"/>
      <path class="cls-19" d="M73,98c-.08-4.65.12-9.35,0-14-.06-2.27.24-4.82,0-7h1c-.68,6.73,1.34,14.94-1,21Z"/>
      <path class="cls-57" d="M27,6c-.03,3.13-5.23,2.77-7.95,4.55-.98.64-7.22,6.77-7.53,7.47-.83,1.92-.23,4.13-.99,6.01-3.01,7.47-6.16,11.86-4.53,20.97-3.4-9.85-.87-20.48,2-30l12.26-7.02c.7-.33,1.29-1.85,1.74-1.98,1.11-.31,3.54.07,5,0Z"/>
      <path class="cls-27" d="M22,5v1c-.45.13-1.04,1.65-1.74,1.98l-12.26,7.02c.51-1.7.58-3.53,1-5,1.75-.76,5.25-.87,7.34-2.2,1.78-1.13,1.52-2.71,1.66-2.8.3-.2,3.04.05,4,0Z"/>
      <path class="cls-14" d="M58,44c.27-2.03.03-4.83,0-7-.03-2.65.4-6-.06-8.45-.66-3.54-4.59-7.56-2.94-12.55h1c.58,3.18,2.6,5.08,3.02,8.48.67,5.38.28,14.26-1.02,19.52Z"/>
      <path class="cls-37" d="M36,117c.19.42,0,2.19,0,3-3,1.04-3.71,3.09-5.47,5.03-.77.85-2.4.83-2.53.97-.64-.2-1.44-.93-2-1,.73-.8.62-2.3,1-3,1-1.85,4.7-3.67,5-7,.53.43,3.52.93,4,2Z"/>
      <path class="cls-44" d="M27,136c-5.01,2.02-4.12-8.77,1-9-.48,1.96-1.25,7.13-1,9Z"/>
      <path class="cls-29" d="M66,84c-.18,3.86,5.17,4.45-1,8-.52.3-2.56-.6-3,1-1.42-.9-2.6-2.07-4-3-.3-3.13-4.95-3.04-2-6,5.12-2.05,8.75,7.94,9,0,.01-.33,0-.67,0-1,.37.28.64.73,1,1Z"/>
      <path class="cls-48" d="M42,5v1c-2.83-.64-11.53-.17-15,0-1.46.07-3.89-.31-5,0v-1c6.62-.32,13.37.14,20,0Z"/>
      <path class="cls-60" d="M10,87c.52.57.68,2.18,1.52,2.99.98.94,2.25.82,2.48,1.01-.07,2.99.1,6.01,0,9-.09,2.68,1.08,5.76-2,5-2.18-3.38.27-6.76-2-9-2.01-1.98-5.36.5-3.99-4.34.25-.87,1.59.14,1.99-2.66.09-.63-.03-1.35,0-2h1c.33.08.89-.13,1,0Z"/>
      <path class="cls-12" d="M63,64c1.51,1.42,3.76,3.48,5,5-2.08.61-2.49,3.43-3,4-1.22,1.38-4.57,1.49-6.3,1.01-1.15-.32-2.57-5.53-5.7-5.01-.27-.33-.68-.69-1-1-.67-6.23,6.73-3.49,11-4Z"/>
      <path class="cls-28" d="M70,72c1.13,1.66,2.84,3.53,3,5,.24,2.18-.06,4.73,0,7-3.8-.55-5.49-5.41-5-9,.14-1.05,1.14-2.33,2-3Z"/>
      <path class="cls-13" d="M70,72c-.86.67-1.86,1.95-2,3-1.66.35-2.23-.75-3-2,.51-.57.92-3.39,3-4,1.24,1.51,1.24,1.89,2,3Z"/>
      <path class="cls-16" d="M4,99c1.54.43,3.8-1.38,4.01,1.46.25,3.46,1.23,9.28-4.01,8.54-.42-3.07.29-6.82,0-10Z"/>
      <path class="cls-35" d="M29.99,47c-.57.51-2.93-.89-3.53-.78-2.43.43-.56,7.57-3.44,9.31-1.53.93-4.28.77-5.02-1.03-1.18-2.87,1.91-2.23,2.01-2.99.3-2.41-1.73-.99-2.04-2.13-2.49-9.27,15.07-5.11,12.02-2.37Z"/>
      <path class="cls-5" d="M52,68c.32.31.73.67,1,1,.2.25,1.93,2.54,1.97,2.7,1.69,7.36-2.14,4.75-5.91,6.9-.39.22-3.22,3.57-4.06,4.4-1.91,1.89-4.91,6.22-6,7-3.23.55-8.66-.76-11.45-.07-1.29.32.65,3.96-2.55,3.07-1.18-2.09-.75-3.7-1.54-5.02-.45-.76-2.27-.78-2.5-1.52-.98-3.08,2.97-3.02,3.02-3.96.04-.71-3.78-2.03-2.54-4.49,2.53-5,10.52-9.77,16.33-7.34,1.9.8,1.53,3.84,4.23,3.33-.21-2.27.05-3.93,1.01-6,2.85-6.14,5.41-3.48,9,0Z"/>
      <path class="cls-21" d="M12,71c6.43-1.54,7.5,4.01,5.48,8.98-1.24,3.07-2.99.87-.49,7.01l-5.99-.99c.75-5.19-.63-9.17,1-15Z"/>
      <path class="cls-58" d="M39,90c-3.17,2.27-10.03.21-10.99,1.01-2.15,1.77,3.96,2.1,1.99,3.99-.18.17-2.19-.05-2.99,0-.48-.71-1.64-1.36-2-2,3.2.9,1.26-2.75,2.55-3.07,2.79-.7,8.22.62,11.45.07Z"/>
      <path class="cls-15" d="M27,122c-.38.7-.27,2.2-1,3-3.37-.44-5.82,1.64-5.01-3h6.01Z"/>
      <path class="cls-52" d="M38.97,104.99l-2.97.02c.3-2.51-.6-6.07.16-8.34.86-2.56,7.56-4.35,6.02,0-.96,2.7-3.38,5.09-3.21,8.33Z"/>
      <rect class="cls-7" x="22.49" y="94.49" width="3.02" height="6.02" transform="translate(-73.55 121.31) rotate(-89.89)"/>
      <path class="cls-9" d="M61,82c-.86-.76-2.21-2.92-3-3.99l7.01-.02c.01,1.66,0,3.34,0,5.01,0,.33.01.67,0,1-1.5-.22-2.89-1.02-4-2Z"/>
      <path class="cls-17" d="M65,84c-.25,7.94-3.88-2.05-9,0,1.66-1.67,3.74-.36,5-2,1.11.98,2.5,1.78,4,2Z"/>
    </g>
  </g>
</svg>