<?xml version="1.0" encoding="UTF-8"?>
<svg id="_Слой_2" data-name="Слой 2" xmlns="http://www.w3.org/2000/svg" viewBox="0 0 76 146">
  <defs>
    <style>
      .cls-1 {
        fill: #d39174;
      }

      .cls-2 {
        fill: #421b10;
      }

      .cls-3 {
        fill: #f8ceb1;
      }

      .cls-4 {
        fill: #684236;
      }

      .cls-5 {
        fill: #4e2518;
      }

      .cls-6 {
        fill: #d7997c;
      }

      .cls-7 {
        fill: #774c3e;
      }

      .cls-8 {
        fill: #d8d0ce;
      }

      .cls-9 {
        fill: #d6987a;
      }

      .cls-10 {
        fill: #fde3ce;
      }

      .cls-11 {
        fill: #faddc7;
      }

      .cls-12 {
        fill: #51291d;
      }

      .cls-13 {
        fill: #451d12;
      }

      .cls-14 {
        fill: #fae0ca;
      }

      .cls-15 {
        fill: #e1a17f;
      }

      .cls-16 {
        fill: #f8ddc7;
      }

      .cls-17 {
        fill: #4a2216;
      }

      .cls-18 {
        fill: #a16851;
      }

      .cls-19 {
        fill: #c08d76;
      }

      .cls-20 {
        fill: #e4a07b;
      }

      .cls-21 {
        fill: #4a2e25;
      }

      .cls-22 {
        fill: #d89a7c;
      }

      .cls-23 {
        fill: #fdd4b6;
      }

      .cls-24 {
        fill: #4e281d;
      }

      .cls-25 {
        fill: #c9bebb;
      }

      .cls-26 {
        fill: #8c5b4e;
      }

      .cls-27 {
        fill: #7f4e43;
      }

      .cls-28 {
        fill: #441d11;
      }

      .cls-29 {
        fill: #482116;
      }

      .cls-30 {
        fill: #44332b;
      }

      .cls-31 {
        fill: #c88e73;
      }

      .cls-32 {
        fill: #f6cdb0;
      }

      .cls-33 {
        fill: #91523a;
      }

      .cls-34 {
        fill: #e8bea2;
      }

      .cls-35 {
        fill: #905139;
      }

      .cls-36 {
        fill: #f5d8c2;
      }

      .cls-37 {
        fill: #d8997c;
      }

      .cls-38 {
        fill: #3c2c23;
      }

      .cls-39 {
        fill: #fad0b3;
      }

      .cls-40 {
        fill: #d49579;
      }

      .cls-41 {
        fill: #8a4b34;
      }

      .cls-42 {
        fill: #d1977b;
      }

      .cls-43 {
        fill: #482318;
      }

      .cls-44 {
        fill: #4f291d;
      }

      .cls-45 {
        fill: #935d4d;
      }

      .cls-46 {
        fill: #4a2419;
      }

      .cls-47 {
        fill: #432c25;
      }

      .cls-48 {
        fill: #f9ddc6;
      }

      .cls-49 {
        fill: #3d160b;
      }

      .cls-50 {
        fill: #d7977a;
      }

      .cls-51 {
        fill: #d1977e;
      }

      .cls-52 {
        fill: #f9dcc5;
      }

      .cls-53 {
        fill: #825044;
      }

      .cls-54 {
        fill: #d28f72;
      }

      .cls-55 {
        fill: #663f35;
      }

      .cls-56 {
        fill: #552c1f;
      }

      .cls-57 {
        fill: #f5c9ac;
      }

      .cls-58 {
        fill: #553126;
      }

      .cls-59 {
        fill: #4e2417;
      }
    </style>
  </defs>
  <g id="_Слой_17_Изображение" data-name="Слой 17 Изображение">
    <g>
      <path class="cls-47" d="M41,138c-.31.27-.79.7-1,1-.64.92-1.55,1.14-1,3l15.83-.19c.08-1.14.78-1.92,1.17-2.8-.24,2.13-.13,2.24,2,2-.04.06,1.28.6.07,1.41-1.79,1.2-4.66,1.36-6.07,3.59h-11c-7.21-1.32-3.14-4.5-3-9l3,1Z"/>
      <rect class="cls-8" x="3" y="145" width="23" height="1"/>
      <path class="cls-23" d="M46,5c-.88,2.63,3.75,2.83,6,3,1.58,4.34,6.73,6.51,10,10,.57,6.58,2,10.94,2,18-5.2,6.47-4.09,1.63-6.39-.07-5.25-3.86-12.21,3.26-14.49,7.68-1.13,2.19-.85,4.22-1.67,6.33-.53,1.39-3.38,2.39-2.45,5.05.54.54,7.36-1.22,5.99,1.49-6.23,6.14-9.97,7.62-18.99,6.51-1.56-.6-2.68-1.7-4.09-2.43-1.19-.62-3.3-.29-3.79-.75-.54-.51.1-2.54-.13-2.81-.32-.38-4.02-.68-2.99,1.99-.32-.34-.68-.65-1-1-.28-3.88.4-8.2,0-12-.86-8.23-2.8-8.86.01-18.49.59-2.01,2.39-2.9,2.78-4.22.58-1.98-.21-4.15.72-6.28s6.95-6.34,8.89-8.18c1.79-1.7,1.38-1.53.6-3.83,6.82-1.91,12.25-1.04,19,0ZM35,44.99c-1.18-5.08-9.36-2.39-10.83.2-.22.39,0,8.49.24,8.86.98,1.43,4,.91,5.59.96.24-4.48-1.06-11.64,5-10.02Z"/>
      <path class="cls-37" d="M44,68c-.3.76.42,2.41-1,3-.81-1.21-13-1.49-14.99-.46-.25.13-3.75,3.83-3.84,4.09-2.37,7.36.85,18.38,10.44,14.54,4.33-1.74,3.33-10.68,10.39-10.17-.78,4.27-1.97,11.16,0,15v1c-.33.15-.64.83-1,1-1.03.48-3.03.34-3.81,1.22-.47.53-.04,1.59-.19,1.78-.89,1.19-1.37,2.44-3,3-.22-4.38,1.42-10.88-5.49-10.01-3.71.47,1.82,3.75,1.97,3.98,1.91,3.03-2.05,9.18,3.53,8.03.01.33-.01.67,0,1h-4c-.14-2.64.5-5.44-.48-8.02-1.06-2.77-2.05.91-2.52,1.02.58-3.52-3.05-5.97-6-4-.02-.92.16-3.86,0-4-.22-.21-3.88.08-5.01,0-2.09-.15-4.27-1.68-5,1-.54-.62-1.38-.75-2-2,.02.05.87.03,1,0,2.66-.67-.68-12.49,2-15-.29.58-.08,7.92,0,9.51.07,1.28-.8,4.25,1.49,3.5,1.79-.59.28-10.21,1.51-13.01.44-1,2.28-1.56,2.98-2.5-1.4-2.4-6.91,1.05-3.54-3.56,1.33-1.82,22.78-1.21,26.56.06Z"/>
      <path class="cls-2" d="M71,90h1c-2.23,3.9-6.59,12.02-8.97,15.27-1.15,1.57-4.11,1.98-4.83,4.44s.35,5.49-.2,7.64c-.2.77-1.7.63-1.82.8-1.27,1.91,3.95,4.34,4.61,6.56s.52,11.12-.33,13.28c-.2.5-1.81,2.14-2.47,3.02-2.13.24-2.24.13-2-2,.17-.38-.29-1.46.06-2.24.55-1.22,2.15-.66,2.47-4.7.56-6.86-1.55-4.12-4.87-5.23-.27-.09-4-3.6-4.18-3.82-1.05-1.29,3.4-2.91,2.51-5.01-.94-.15-2.18.2-2.99,0-2.85-.72-6.05-1.75-9-1-.38-.6-.58-1.47-1-2v-1h2c.33,0,.67,0,1,0,6.64,3.48,14.23-1.91,14-9,3.58-4.18,5.41-3.43,6-10,4.41-.14,5.16-5.78,9-5Z"/>
      <path class="cls-13" d="M34,129c-.99-.14-2.43-1.55-3.99-1-.27,6.48,1.8,12.47-4.01,17H3c-2.92,1.22-2.44-6.56-2.03-8.33.21-.91,2.16-1.36,3.03-1.67,0,.67,0,1.33,0,2,.02,1.76-.49,4.15,1.64,4.86,1.34.45,17.36.36,18.15-.09,5-2.85-.67-10.21.34-13.11.52-1.48,4.52-3.27,5.87-4.67,4.82-.38,3.51,2.01,4,5Z"/>
      <path class="cls-6" d="M27,5c.78,2.3,1.18,2.13-.6,3.83-1.93,1.84-7.97,6.07-8.89,8.18s-.13,4.3-.72,6.28c-.39,1.32-2.19,2.21-2.78,4.22-2.81,9.62-.87,10.26-.01,18.49-1.65-.74-2.64-1.66-2.98-3.52-1.17-6.41.81-15.7-.02-22.48.51-.76,1.62-.88,2.5-2.97.97-2.31,1.41-5.49,1.5-8.03.34-.33.66-.68,1-1,4.02,1.57,7.3-2.39,9-3,.5-.18,1.43.16,2,0Z"/>
      <path class="cls-35" d="M15,59c-1.02-2.67,2.67-2.37,2.99-1.99.23.27-.41,2.3.13,2.81.49.45,2.6.13,3.79.75,1.41.73,2.53,1.83,4.09,2.43,3.58,1.38,14.54,1.38,18,0,2.13-.24,2.24-.13,2,2-.57.69-1.71,2.25-2,3-3.78-1.27-25.23-1.87-26.56-.06-3.37,4.61,2.14,1.16,3.54,3.56-.7.94-2.54,1.5-2.98,2.5-.65.07-1.38-.1-2,0-1.83-2.65-.84-4.46,0-7,.69-2.1,3.3-2.18,1-5-.94-1.15-1.88-2.87-2-3Z"/>
      <path class="cls-46" d="M19,90c3.07,1.58,2.49,11.53,2,15-1.08,7.53-3.26,4.54-6.03,6.47-2.23,1.55-.36,19-.93,22.9-.24,1.23-1.53.43-2.04.63v-1c1.67-6.45,1.67-15.55,0-22v-1c1.66-2.83,4.3-2.32,4.91-6.55.29-2.02.53-9.11.1-10.74-.11-.43-2.15-1.72-3.01-2.71.73-2.68,2.91-1.15,5-1Z"/>
      <path class="cls-27" d="M59,49l1,2c-.63.39-1.37.62-2,1-.6.36-8,3.38-5.99,4.99l7.99-.99c3.12,1.9,7.9,4.01,10,8-.8.48-.72,1.36-1,2-.14.32-.91.65-1,1-2.19-.28-4.35-3.19-6-5-.19-.21.61-1.77-.59-2.05-1.06-.24-6.16-.17-7.41.05-2.65-.26-5.74,1.23-5-2,.43-1.16-.43-5.6,0-6,.25-.23,3.09.3,4.37-.14.9-.31,1.98-1.57,5.63-2.85Z"/>
      <path class="cls-29" d="M66,45c-.4-.16-.89-1-1-1-.98-6.06,1.75-19.89-.95-24.59-.4-.69-1.63-.95-2.05-1.41-.09-.98,0-2.01,0-3,0-1.67,0-3.33,0-5,1.61,1.82,5.5,6.03,5.98,8.52.65,3.34.41,22.48-.5,25.45-.18.6-1.35.8-1.48,1.03Z"/>
      <path class="cls-30" d="M52,3l-1,2c-1.09-.37-3.55.22-5,0-6.75-1.04-12.18-1.91-19,0-.57.16-1.5-.18-2,0-.58-.18-1.6-1.04-2-1-.02-2.71,1.19-2.8,3.45-3.05,4.36-.48,19.06-.64,23.07.07,2.16.38,2.2,1.84,2.48,1.98Z"/>
      <path class="cls-28" d="M11,20c-2.07,3.11-.81,15.71-1,20.55-.08,1.92,1.03,4.01-2,3.45-.25-1.04.09-2.75,0-4-.5-7.17.36-14.78,0-22,.32-1,3.13-6.48,3.53-6.99.96-1.22,2.83-1.4,3.47-2.01-.09,2.53-.52,5.71-1.5,8.03-.88,2.09-1.99,2.21-2.5,2.97Z"/>
      <path class="cls-58" d="M72,90h-1v-2c1.36-3.39,1.65-11.11.99-14.48-.41-2.08-3.29-4.21-2.99-7.52.28-.64.2-1.52,1-2,1.05,2,.82,3.81,1.52,4.98.57.95,2.43,1.16,2.98,2.02.79,1.22.87,13.37.48,15.48-.51,2.79-2.58,2.82-2.98,3.52Z"/>
      <path class="cls-44" d="M14,46c.4,3.8-.28,8.12,0,12-.47-.52-2.53-.62-2.82-1.14-.65-1.17,0-5-.4-7.13-.49-2.51-2.46-4.4-2.77-5.73,3.03.56,1.92-1.53,2-3.45.19-4.83-1.07-17.44,1-20.55.83,6.78-1.15,16.07.02,22.48.34,1.87,1.33,2.79,2.98,3.52Z"/>
      <path class="cls-24" d="M62,10c0,1.67,0,3.33,0,5-2.92-2.1-5.15-4.77-8-7-.88-.69-2.8-2.93-3-3l1-2c5.3,2.7,5.96,2.43,10,7Z"/>
      <path class="cls-43" d="M12,112v23c-3.05,1.18-5.24.79-8,2,0-.67,0-1.33,0-2,5.53-1.96,6.53.68,7.05-6.46.36-4.92-1.26-13.78.95-17.54v1Z"/>
      <path class="cls-21" d="M16,67c-2.69.14-2.8,1.09-3.06,3.44-.63,5.76.58,12.65.06,18.56-.13.03-.98.05-1,0-1.34-2.94.99-17.57,0-22,1.13-2.31,3.28-3.3,5-5,2.3,2.82-.31,2.9-1,5Z"/>
      <path class="cls-2" d="M58,52c.11,1.05,1.29,3.57,2,4l-7.99.99c-2-1.62,5.4-4.63,5.99-4.99Z"/>
      <path class="cls-12" d="M25,5c-1.7.61-4.98,4.57-9,3,.19-.19-.12-1.85.95-2.51.31-.19,5.37-1.44,6.05-1.49.4-.04,1.42.82,2,1Z"/>
      <path class="cls-4" d="M66,45c-2.03,3.58-2.52,3.83-6,6l-1-2c1.51-.53,3.41-4.4,5-5,.21-.08.66,0,1,0,.11,0,.6.84,1,1Z"/>
      <path class="cls-25" d="M8,40c-1.49-6.1-1.9-16.15,0-22,.36,7.22-.5,14.83,0,22Z"/>
      <path class="cls-56" d="M12,89c-1.66-3.37-1.69-18.55,0-22,.99,4.43-1.34,19.06,0,22Z"/>
      <path class="cls-5" d="M38,129c.87.22,6.47,2.02,6.77,2.22,1.52,1.04,1.7,4.29-.77,4.78-.82.38-2.31,1.39-3,2l-3-1c.1-3.07-1.87-4.39-3-7v-1c.9.18,2.17-.21,3,0Z"/>
      <path class="cls-7" d="M35,130c-.26-.32-.96-.73-1-1,.33.05.68-.06,1,0v1Z"/>
      <path class="cls-9" d="M49,118c.82.21,2.06-.14,2.99,0,.89,2.11-3.56,3.72-2.51,5.01.18.22,3.91,3.73,4.18,3.82,3.32,1.1,5.42-1.63,4.87,5.23-.33,4.04-1.93,3.48-2.47,4.7-.35.78.11,1.85-.06,2.24-.39.88-1.09,1.66-1.17,2.8l-15.83.19c-.55-1.85.35-2.07,1-3-.56,3.03,1.53,1.93,3.45,2,4.97.18,13.42,1.22,11.59-6.3-.07-.28-4.29-3.57-4.55-3.69-2.45-1.1-.98,2.87-1.62,3.86-.58.89-3.96.72-4.87,1.14,2.47-.49,2.29-3.74.77-4.78-.29-.2-5.9-1.99-6.77-2.22-.11-.63.16-1.48,0-2,7.93,1.24,5.75-1.8,8.03-5.21.92-1.38,3.25-1.44,2.97-3.79Z"/>
      <path class="cls-32" d="M44,136c.91-.42,4.29-.24,4.87-1.14.64-.98-.83-4.95,1.62-3.86.27.12,4.48,3.41,4.55,3.69,1.83,7.52-6.62,6.48-11.59,6.3-1.92-.07-4.01,1.03-3.45-2,.21-.3.69-.73,1-1,.69-.61,2.18-1.62,3-2Z"/>
      <path class="cls-22" d="M26,63c9.02,1.1,12.76-.38,18.99-6.51,1.38-2.71-5.45-.96-5.99-1.49-.93-2.65,1.91-3.66,2.45-5.05.81-2.11.54-4.14,1.67-6.33,2.28-4.43,9.25-11.54,14.49-7.68,2.3,1.69,1.19,6.54,6.39.07,0,2.66,0,5.34,0,8-1.59.6-3.49,4.47-5,5-3.66,1.28-4.73,2.54-5.63,2.85-1.28.45-4.13-.09-4.37.14-.43.4.43,4.84,0,6-.12.33-4.67,4.87-5,5-3.46,1.38-14.42,1.38-18,0ZM52.45,49.47c3.69-3.31,4.18-7.25,1.03-11.46-2.65-.39-.9,2.68-2.38,4.59-1.17,1.51-4.97,1.49-5.93,3.88.8,2.52,3.51,4.89,6.18,4.57.63-.08.68-1.2,1.1-1.57Z"/>
      <path class="cls-38" d="M35,44.99c-6.06-1.62-4.76,5.53-5,10.02-1.58-.05-4.6.47-5.59-.96-.25-.37-.46-8.47-.24-8.86,1.46-2.59,9.65-5.27,10.83-.2Z"/>
      <path class="cls-31" d="M65,44c-.34,0-.79-.08-1,0,0-2.66,0-5.34,0-8,0-7.06-1.43-11.42-2-18,.43.45,1.66.72,2.05,1.41,2.69,4.7-.04,18.53.95,24.59Z"/>
      <path class="cls-42" d="M54,8c2.85,2.23,5.08,4.9,8,7,0,.99-.09,2.02,0,3-3.27-3.49-8.42-5.66-10-10,.66.05,1.34-.03,2,0Z"/>
      <path class="cls-26" d="M51,5c.2.07,2.12,2.31,3,3-.66-.03-1.34.05-2,0-2.25-.17-6.88-.37-6-3,1.45.22,3.91-.37,5,0Z"/>
      <path class="cls-54" d="M30,98c.47-.11,1.46-3.79,2.52-1.02.98,2.58.34,5.38.48,8.02h3c1.14,3.6-1.33,5.89-1.95,8.54-1.16,4.94.33,5.9-4.05,10.45-1.35,1.4-5.36,3.19-5.87,4.67-1.01,2.9,4.66,10.26-.34,13.11-.79.45-16.81.53-18.15.09-2.13-.71-1.61-3.1-1.64-4.86,2.76-1.21,4.95-.82,8-2,.52-.2,1.8.6,2.04-.63.57-3.91-1.3-21.35.93-22.9,2.77-1.93,4.95,1.06,6.03-6.47l3-2c2.82,6.63,12.51-5.23,0-1-.21-1.15.08-2.72,0-4,1.82-.26,4.37.38,6,0ZM30.2,110.3c.43-.1,3.91,1.22,3.78-.8-.13-2.17-7.23-3.23-9.4-1.61-1.37,1.02.21,4.59-1.51,5.69-2.61,1.67-5.77-2.12-6.1,4.94-.45,9.55,5.24,3.76,8.55-.49,1.15-1.47,3.74-7.5,4.67-7.73Z"/>
      <path class="cls-10" d="M43,71c.53.79-.58,4.43,3,4-.3,1.2-.81,2.96-1,4-7.06-.5-6.06,8.44-10.39,10.17-9.59,3.84-12.81-7.17-10.44-14.54.09-.27,3.59-3.96,3.84-4.09,2-1.03,14.18-.75,14.99.46Z"/>
      <path class="cls-1" d="M59,70c1.37,2.24,4.15,1.9,3,6,.93,1.13,5.57-3.67,6-5,1.14.58,2.72,1.74,3,3-5.37.27-8.18,16.08-4.5,15.98.48-.01,3.12-3.7,4.5-3.98v4c-3.84-.78-4.59,4.86-9,5,.19-2.12.41-8.83-.13-10.38-.73-2.11-3.71-1.44-3.87-1.62-.26-.29.65-2.75-.54-3.07-2.01-.54-6.07.5-8.47.07-.05.66.04,1.34,0,2l-2.99-2-1.01,14c-1.97-3.84-.78-10.73,0-15,.19-1.04.7-2.8,1-4,.11-.43.59-.81,1-1,3.57,5.44,13.14,4.16,12-4Z"/>
      <path class="cls-15" d="M54,60c1.24-.22,6.35-.3,7.41-.05,1.2.28.4,1.84.59,2.05-2.82-2.04-9.32,2.65-6,6-1.84-.32-9.12-1.9-10.01-1-.56.57.12,5.66,1.01,7-.41.19-.89.57-1,1-3.58.43-2.47-3.21-3-4,1.42-.59.7-2.24,1-3s1.43-2.31,2-3c1.38-1.65,5.98-4.64,8-5Z"/>
      <path class="cls-41" d="M39,115c.42.53.62,1.4,1,2-4.58,1.16-2.87,7.14-2,10,.16.52-.11,1.37,0,2-.83-.21-2.1.18-3,0-.32-.06-.67.05-1,0-.49-2.99.82-5.38-4-5,4.38-4.55,2.89-5.52,4.05-10.45.62-2.65,3.1-4.94,1.95-8.55h1c.2,4.89-1.2,5.94,2,10Z"/>
      <path class="cls-17" d="M45,94l1.01-14,2.99,2c-.1,1.76-.35,4.91.14,6.39.55,1.69,2.68,1.4,2.86,1.61.09.1.03,1.48,0,2-1.91,2.08-4.93,2.05-7,3v-1Z"/>
      <path class="cls-53" d="M19,90c1.13.08,4.78-.22,5.01,0,.15.15-.03,3.08,0,4,.03,1.33-.09,2.68,0,4s-.21,2.85,0,4c.06.35-.1.76,0,1l-3,2c.49-3.47,1.07-13.42-2-15Z"/>
      <path class="cls-59" d="M40,99c3.78-.33,1.37,1.1.99,2.49-1.13,4.15-1.51,8.28-1.99,12.51v1c-3.2-4.06-1.8-5.11-2-10-.01-.33.01-.67,0-1-.03-.81.02-1.61,0-2,1.63-.56,2.11-1.81,3-3Z"/>
      <path class="cls-52" d="M37,102c.02.39-.03,1.19,0,2-5.57,1.16-1.62-4.99-3.53-8.03-.15-.23-5.68-3.51-1.97-3.98,6.92-.88,5.27,5.63,5.49,10.01Z"/>
      <path class="cls-18" d="M44,96c-.47,2.67.63,2.04,3,2-1.15.44-3.71,1.03-3.86,1.16-.6.5.05,2.15-.14,2.84-1.01,3.64-.4,5.79-1.01,8.34-.22.9-3.67.34-.99,3.66h-2c.48-4.23.86-8.36,1.99-12.51.38-1.39,2.78-2.82-.99-2.49.14-.19-.28-1.26.19-1.78.78-.87,2.79-.74,3.81-1.22Z"/>
      <path class="cls-34" d="M18,74c-1.23,2.8.28,12.42-1.51,13.01-2.29.76-1.42-2.22-1.49-3.5-.08-1.59-.29-8.93,0-9.51.05-.1.66.06,1,0,.62-.1,1.35.07,2,0Z"/>
      <path class="cls-56" d="M16,67c-.84,2.54-1.83,4.35,0,7-.34.06-.95-.1-1,0-2.68,2.51.66,14.33-2,15,.52-5.91-.69-12.8-.06-18.56.26-2.35.37-3.3,3.06-3.44Z"/>
      <path class="cls-36" d="M30,98c-1.63.38-4.18-.26-6,0-.09-1.32.03-2.67,0-4,2.95-1.97,6.58.48,6,4Z"/>
      <path class="cls-33" d="M51,95c-.21.61-.66,1.42-1,2-1.13,0-2.01.62-3,1-2.37.04-3.47.67-3-2,.36-.17.67-.85,1-1,2.07-.95,5.09-.92,7-3-.06,1.22-.66,2-1,3Z"/>
      <path class="cls-16" d="M62,95c-.59,6.57-2.42,5.82-6,10-4.91,5.73-4.72,8.16-13,9,.56-2.59-.79-10.39,0-12,.32-.66,3.87-.86,4.97-1.55,1.22-.76,1.38-2.34,2.03-3.45.34-.58.79-1.39,1-2,1.75.25,5.81-1.78,6.49-3.01s.81-8.65.51-8.99c.16.18,3.15-.49,3.87,1.62.53,1.55.32,8.25.13,10.38Z"/>
      <path class="cls-3" d="M49,118c.28,2.35-2.05,2.41-2.97,3.79-2.28,3.41-.09,6.46-8.03,5.21-.87-2.86-2.58-8.84,2-10,2.95-.75,6.15.28,9,1Z"/>
      <path class="cls-19" d="M56,105c.23,7.09-7.36,12.48-14,9,.33,0,.68.03,1,0,8.28-.84,8.09-3.27,13-9Z"/>
      <path class="cls-51" d="M43,114c-.32.03-.67,0-1,0s-.67,0-1,0c-2.68-3.32.78-2.76.99-3.66.61-2.55,0-4.7,1.01-8.34-.79,1.61.56,9.41,0,12Z"/>
      <path class="cls-45" d="M49,58c-.74,3.23,2.35,1.74,5,2-2.02.36-6.62,3.35-8,5,.24-2.13.13-2.24-2-2,.33-.13,4.88-4.67,5-5Z"/>
      <path class="cls-49" d="M12,134v-22c1.67,6.45,1.67,15.55,0,22Z"/>
      <path class="cls-14" d="M62,62c1.65,1.81,3.81,4.72,6,5-.28,1.11.31,3.02,0,4-.42,1.33-5.07,6.12-6,5,1.15-4.09-1.64-3.75-3-6-.18-.3.31-1.61-.06-1.92-.46-.4-2.1.07-2.94-.08-3.32-3.35,3.18-8.04,6-6Z"/>
      <path class="cls-55" d="M71,88v-2c0-3.25.59-9.32,0-12-.28-1.26-1.86-2.42-3-3,.31-.98-.28-2.89,0-4,.09-.35.86-.68,1-1-.3,3.31,2.58,5.44,2.99,7.52.66,3.37.37,11.09-.99,14.48Z"/>
      <path class="cls-57" d="M52.45,49.47c-.42.37-.47,1.5-1.1,1.57-2.66.32-5.38-2.05-6.18-4.57.96-2.39,4.75-2.37,5.93-3.88,1.49-1.91-.26-4.98,2.38-4.59,3.15,4.22,2.65,8.16-1.03,11.46Z"/>
      <path class="cls-20" d="M30.2,110.3c-.94.23-3.53,6.26-4.67,7.73-3.31,4.24-9,10.04-8.55.49.33-7.06,3.49-3.27,6.1-4.94,1.72-1.1.13-4.67,1.51-5.69,2.17-1.62,9.27-.55,9.4,1.61.12,2.02-3.36.7-3.78.8Z"/>
      <path class="cls-11" d="M24,102c12.51-4.23,2.82,7.63,0,1-.1-.24.06-.65,0-1Z"/>
      <path class="cls-48" d="M56,68c.84.15,2.48-.32,2.94.08.36.31-.12,1.62.06,1.92,1.14,8.16-8.43,9.44-12,4-.88-1.34-1.57-6.44-1.01-7,.89-.9,8.16.68,10.01,1Z"/>
      <path class="cls-39" d="M49,82c.04-.66-.06-1.34,0-2,2.4.43,6.46-.61,8.47-.07,1.19.32.28,2.78.54,3.07-2.86-3.22-2.08,10.85-6,7-.18-.21-2.31.08-2.86-1.61-.48-1.48-.24-4.63-.14-6.39Z"/>
      <path class="cls-16" d="M71,74c.59,2.68,0,8.75,0,12-1.38.28-4.02,3.97-4.5,3.98-3.68.1-.87-15.71,4.5-15.98Z"/>
      <path class="cls-50" d="M58,83c.3.34.17,7.74-.51,8.99s-4.74,3.27-6.49,3.01c.34-1,.94-1.78,1-3,.03-.52.09-1.9,0-2,3.92,3.85,3.14-10.22,6-7Z"/>
      <path class="cls-40" d="M50,97c-.66,1.1-.82,2.68-2.03,3.45-1.1.69-4.64.9-4.97,1.55.19-.69-.46-2.34.14-2.84.16-.13,2.71-.72,3.86-1.16.99-.38,1.87-1.01,3-1Z"/>
    </g>
  </g>
</svg>