<?xml version="1.0" encoding="UTF-8"?>
<svg id="_Слой_2" data-name="Слой 2" xmlns="http://www.w3.org/2000/svg" viewBox="0 0 96 152">
  <defs>
    <style>
      .cls-1 {
        fill: #dc9d81;
      }

      .cls-2 {
        fill: #f7c9aa;
      }

      .cls-3 {
        fill: #f8cdaf;
      }

      .cls-4 {
        fill: #4c2519;
      }

      .cls-5 {
        fill: #fcd3b5;
      }

      .cls-6 {
        fill: #fde3cd;
      }

      .cls-7 {
        fill: #4a3931;
      }

      .cls-8 {
        fill: #8b4c34;
      }

      .cls-9 {
        fill: #94553d;
      }

      .cls-10 {
        fill: #d99a7d;
      }

      .cls-11 {
        fill: #2a1d16;
      }

      .cls-12 {
        fill: #4c342d;
      }

      .cls-13 {
        fill: #f9ceb1;
      }

      .cls-14 {
        fill: #d08d70;
      }

      .cls-15 {
        fill: #dc9c79;
      }

      .cls-16 {
        fill: #623728;
      }

      .cls-17 {
        fill: #2e1711;
      }

      .cls-18 {
        fill: #431c10;
      }

      .cls-19 {
        fill: #4a2216;
      }

      .cls-20 {
        fill: #693a2a;
      }

      .cls-21 {
        fill: #f9cfb1;
      }

      .cls-22 {
        fill: #f6c9ab;
      }

      .cls-23 {
        fill: #451e12;
      }

      .cls-24 {
        fill: #e5a07c;
      }

      .cls-25 {
        fill: #e49f7b;
      }

      .cls-26 {
        fill: #955941;
      }

      .cls-27 {
        fill: #302119;
      }

      .cls-28 {
        fill: #cc8d71;
      }

      .cls-29 {
        fill: #411a0f;
      }

      .cls-30 {
        fill: #fdd4b6;
      }

      .cls-31 {
        fill: #f9dfc9;
      }

      .cls-32 {
        fill: #5c392d;
      }

      .cls-33 {
        fill: #4c261a;
      }

      .cls-34 {
        fill: #37261e;
      }

      .cls-35 {
        fill: #fde4ce;
      }

      .cls-36 {
        fill: #835246;
      }

      .cls-37 {
        fill: #5e3c31;
      }

      .cls-38 {
        fill: #311a13;
      }

      .cls-39 {
        fill: #69473c;
      }

      .cls-40 {
        fill: #e3a17d;
      }

      .cls-41 {
        fill: #9c5e45;
      }

      .cls-42 {
        fill: #815144;
      }

      .cls-43 {
        fill: #5d372b;
      }

      .cls-44 {
        fill: #e2bba0;
      }

      .cls-45 {
        fill: #5d3325;
      }

      .cls-46 {
        fill: #d39073;
      }

      .cls-47 {
        fill: #f5c7a9;
      }

      .cls-48 {
        fill: #e29f7c;
      }

      .cls-49 {
        fill: #9a593f;
      }

      .cls-50 {
        fill: #542e22;
      }

      .cls-51 {
        fill: #da9876;
      }

      .cls-52 {
        fill: #f3c8aa;
      }

      .cls-53 {
        fill: #b9aba8;
      }

      .cls-54 {
        fill: #9f5d44;
      }

      .cls-55 {
        fill: #4d2215;
      }

      .cls-56 {
        fill: #d7977b;
      }

      .cls-57 {
        fill: #3c2c23;
      }

      .cls-58 {
        fill: #4b2317;
      }

      .cls-59 {
        fill: #432921;
      }

      .cls-60 {
        fill: #431b10;
      }

      .cls-61 {
        fill: #93533b;
      }

      .cls-62 {
        fill: #ebb08f;
      }

      .cls-63 {
        fill: #d4997c;
      }

      .cls-64 {
        fill: #894f39;
      }

      .cls-65 {
        fill: #d8987b;
      }

      .cls-66 {
        fill: #d7967a;
      }

      .cls-67 {
        fill: #d69a7d;
      }

      .cls-68 {
        fill: #dba489;
      }

      .cls-69 {
        fill: #fbd2b4;
      }

      .cls-70 {
        fill: #f5d4bd;
      }

      .cls-71 {
        fill: #98573f;
      }

      .cls-72 {
        fill: #452e26;
      }

      .cls-73 {
        fill: #f9dcc5;
      }

      .cls-74 {
        fill: #d28f72;
      }

      .cls-75 {
        fill: #cbc1bf;
      }

      .cls-76 {
        fill: #e2a280;
      }

      .cls-77 {
        fill: #3e180d;
      }

      .cls-78 {
        fill: #ca8c71;
      }

      .cls-79 {
        fill: #e4a583;
      }

      .cls-80 {
        fill: #664339;
      }

      .cls-81 {
        fill: #dc9f7e;
      }

      .cls-82 {
        fill: #422b24;
      }

      .cls-83 {
        fill: #553328;
      }

      .cls-84 {
        fill: #f4c3a5;
      }

      .cls-85 {
        fill: #e4a07c;
      }
    </style>
  </defs>
  <g id="_Слой_31_Изображение" data-name="Слой 31 Изображение">
    <g>
      <path class="cls-46" d="M27,91c.85,1.99,5.26.66,7.58.96,1.26.16,2.28,1.04,2.42,1.04-9.43,8.92-6.11,9.71,5,10,.07.92-.54,2.86.59,3.02l14.41-.02c-.04-4.62-7.48-2.88-10.99-2.99l-2.99-1.99c5.32-.84,12.86,2.4,15.99-3.01,1.02,2.6,1.1,2.96,1,6-.14,4.25.02,4.81-3,8,.28-2.7-.07-1.81-2-2-3.92-2.59-10.35.11-14.38-1.15-.86-.27-2.71-4.86-4.62-2.84-1.8,1.9,2.38,4.27,2.99,4.99,2.19,2.55,4.28,2.54,3.01,7.3-.34,1.29-3.36.53-3.01,4.7.23,2.79,5.15,6.83,3,12-.33.02-.67-.03-1,0s-.67-.03-1,0c-1.04-12.38-13.8-11.73-20-3,.07-.99-.02-2,0-3l4.96-10.54c.46-4.36-.42-9.18.04-13.46.11-1.01.94-5.38,1.2-6.3.6-2.1,6.09-4.36-.2-5.7.18-1.56-.05-3.37,0-5,1.43.52.7,2.29,1,3ZM31.99,110c-3.56-.56-4.08,4.98-1.49,5.99,4.27,1.66,1.23-3.31,1.49-5.99Z"/>
      <path class="cls-69" d="M16,94c-.03,4.09,3.6,10.75,6,14,.1,1.63.05,3.36,0,5l-4.99-4c-3,7.69.73,5.23,4.99,9-2.3,3.68-9.07,1.94-13,1-.32-.34-.68-.64-1-1-.65-5.67.92-13.11-.02-18.51-.38-2.21-1.67-2.02-1.98-2.49-.26-.39-.79-.67-1-1,.13-.74-.22-2.81,0-3,.42-.37,9.56-.26,11.01,1Z"/>
      <path class="cls-60" d="M73,87l4.51-6c1.76-.57,1.55,1.16,2.49,2-.5,4.44-2.15,5.38-3,10-.04.24-.94.75-.96,1.57-.05,2.39,1.51,5.11.93,7.77.2,1.28,1.52.45,2.02.66,3.6,1.45,6.14,1.07,10,1-4.81,2.99-5.2,2.74-11,3-.66.03-1.34-.05-2,0v15.01c-1.12,1.53-4.14,2.04-3,6-.14,0-1.28,1.13-2,1,0-2.44-.46-6.19.2-8.3.48-1.55,2.54-2.01,2.57-3.96.23-13.94-6.33-13.49-.77-29.74Z"/>
      <path class="cls-55" d="M26,86c.02.66.02,1.34,0,2-.05,1.63.18,3.44,0,5-.53,4.66-2.87,3.22-3.11,5.49-.27,2.49.46,4.7,2.11,6.51-.46,4.27.41,9.1-.04,13.46l-4.96,10.54c.04-2.33-.02-4.67-.01-7-.25-.4-1.45.93-1.99,1-1.85.24-5.39.28-7.02-.49-1.81-.86-1.6-3.11-1.98-3.51,3.93.94,10.7,2.68,13-1,1.38-2.2-.07-2.81,0-5,.05-1.64.1-3.37,0-5,0-.1,1.06-.51.62-1.96-1.36-4.46-5.13-6.41-3.6-13.31.23-1.05,1.67-1.23,1.98-1.73,1.58-2.47.31-4.27,2-6,.08.14,2.43.34,3,1Z"/>
      <path class="cls-4" d="M71,10v1c-2.86-1.47-6.66-.41-9.3-1.2-3.97-1.18-2.51-2.43-9.7-2.8-.66-.03-1.34,0-2,0-4.86-2.26-11.57-.43-17-1,.24-.73-.16-2.1,0-3,2.7-.65,25.21-.5,28.45.05,1.2.2,7.29,3.19,8.12,3.92,1.25,1.09,1.25,2.87,1.43,3.03Z"/>
      <path class="cls-23" d="M55,110c1.93.19,2.28-.7,2,2-.32.34-.69.64-1,1-.38-.14-1.39.01-2,0-1-.02-2,.01-3,0-2.4,1.59-.11,9.82-1,11.01-.1.13-1.56-.03-2,0-.78.04-2.87-.16-3,0-.48.54.35,9.15,0,11.01-.99.06-2.01-.07-3,0,2.15-5.17-2.77-9.21-3-12,6.32-2.72,6.67-6.58,6-13,3.16-.05,6.95-.3,10,0Z"/>
      <path class="cls-33" d="M23,12c-.69,1.83-1.61,4.16-2,6-1.75,8.35-.89,15.87-4,23-1.47,3.38-1.01,6.39-1,10-.36-.31-2.27.24-2.86-1.62-.47-1.46-.46-9.12-.22-10.95s1.88-1.31,2.06-2.11c1.75-7.9-1.54-20.09,8.02-24.32Z"/>
      <path class="cls-82" d="M92,67c1.15,2.55,2.55,2.56,2.98,7.52.62,7.1,1.29,22.23-2.98,27.48-3.24.29-3.29.24-3-3,.56-.9,1.96-2.82,2-3,2.35-5.01.61-10.91,0-16-.36-3.01-.01-7.26-.23-8.39s-2.19-2.2-2.77-3.61l4-1Z"/>
      <path class="cls-32" d="M40,135c.03.31.04.7,0,1-.02.17-1.26.21-1,.99h2c-.26.93-1.26,3.08-1.99,3.52-1.3.78-15.28.88-17.5.48-2.39-.44-2.36-1.51-3.52-2.98.32-.86,1.06-1.91,2-2,2.22-.22,6.74,1.59,10.56,1.05,2.99-.42,5.5-1.66,9.44-2.05Z"/>
      <path class="cls-59" d="M77,53c.2,1.03,1.75.82,2,1,3.82,2.86,4.98,1.23,7.07,2.47.98.58.71,2.29.93,2.53-.87.45-2.03,1.04-3,1-.33-.01-.67.03-1,0-4.88-.43-8.73-1-14-1-.34-4.34-.59-5.53,4-6,.35-.04,1.55,1.17,2.34,1.03,1.1-.19.6-1.92,1.66-2.03v1Z"/>
      <path class="cls-37" d="M5,74c.11-.01,1.3,1.12,2,1v1c-1.13.54-2.73,1.77-3,3-.61,2.72-.31,14.87,1,17,.21.33.74.61,1,1-.43.77-1.91,2.38-2,3C.13,96.63-.16,78.31,1.93,75.41c.78-1.09,1.82-1.3,3.07-1.41Z"/>
      <path class="cls-72" d="M8,118c-.35-.4-2.13-.52-2.72-1.23-1.72-2.09-1.73-13.67-1.28-16.77.09-.62,1.57-2.23,2-3,.31.46,1.6.27,1.98,2.49.93,5.4-.64,12.84.02,18.51Z"/>
      <path class="cls-12" d="M77,133c.06.15,1.61.47,1.99,2.47.44,2.29.28,11.17-.91,12.91-.69,1.01-1.82.45-2.08.62-5.25-1.32-14.14-1.69-19.52-1-1.47.19-3.11.78-1.48,2-.56-.22-2.6-1.57-3-2l2-9c.28,1.2-.4,8,0,8h21.5c2.95,0,.34-9.75.5-12,.04-.51.82-1.37,1-2Z"/>
      <path class="cls-52" d="M17,41c4.34-.17,2.24,4.15,3.24,5.78.91,1.48,4.41,1.84,2.76,7.22-1.33-.05-2.67.03-4,0-1-1.26-1.79-1.98-3-3-.01-3.61-.47-6.62,1-10Z"/>
      <path class="cls-16" d="M22,65c-2.87.26-6.95-.99-9,1-.34.08-4.77,4.61-5,5,.47-2.67-.63-2.04-3-2,.38-1.44,2.11-1.53,2.66-2.32.85-1.23.61-3.3,2.32-4.2,3.07-1.61,8.67.81,12.02-1.48.24,1.29,1.54,2.35,0,4Z"/>
      <path class="cls-44" d="M80,40c-1.23,3.92-1.19,6.9-1,11,.03.72,1.24,1.79,0,3-.25-.18-1.8.03-2-1-.02-.11,2.24-1.24,0-1-1.06.11-.56,1.84-1.66,2.03-.79.14-2-1.06-2.34-1.03-.65-5.1,1.53-10.4,6-13h1Z"/>
      <path class="cls-50" d="M81,37c-.61.91-.68,1.99-1,3h-1c-.13-1.7-1.7-2.91-1.95-4.55-.39-2.57-1.35-14.29-1.05-16.45.12-.9,1.15-1.69,2-2,2.29,5.79,1.17,13.73,3,20Z"/>
      <path class="cls-20" d="M23,54c1,.04,2.01-.05,3,0,.08,1.33-.08,2.68,0,4.01.07,1.16.18,2.95,0,4-.55,3.26-1.09,2.73-4,3,1.54-1.65.24-2.71,0-4-.74-3.99-.28-3.58-3-7,1.33.03,2.67-.05,4,0Z"/>
      <path class="cls-38" d="M79,51c-.19-4.1-.23-7.08,1-11,.32-1.01.39-2.09,1-3,.09.32,1.47,1.14,1.8,2.66.76,3.54,1.39,11.04-3.8,11.34Z"/>
      <path class="cls-77" d="M76,149c-1.57,1.01-1.58,1.69-4,2-4.86-2.27-11.58-.41-17-1-1.62-1.23.01-1.81,1.48-2,5.37-.69,14.26-.32,19.52,1Z"/>
      <path class="cls-18" d="M52,134c2.06,1.03,2.15,1.8,2,4-.02.33.02.67,0,1l-2,9c-2.49-2.65-2.78-8.98-1.82-12.36.35-1.23,1.75-1.48,1.82-1.64Z"/>
      <path class="cls-19" d="M51,113c.22,2-.42,4.43.02,6.31.17.73,1.71.57,1.93,1.4.21.76,1.06,6.55,1.05,7.29-.02,1-.92,1.65-1,2-1.58-2.26-4.36-2.97-5-6,.44-.02,1.9.14,2,0,.89-1.18-1.4-9.42,1-11.01Z"/>
      <path class="cls-7" d="M20,129c-.02,1,.07,2.01,0,3s-1.64,2.42,0,4c-.94.09-1.68,1.14-2,2-5.78-7.32,2.3-8.07,0-15,.54-.07,1.74-1.4,1.99-1-.01,2.33.05,4.67.01,7Z"/>
      <path class="cls-39" d="M33,6c-.3.95-1.53,2.01-2,3-.63.12-1.38.87-2,1-1.99.42-3.89,1.23-6,1,2.11-5.34,2.73-3.62,6.92-5.6,1.09-.52,2.03-2.14,3.08-2.4-.16.9.24,2.27,0,3Z"/>
      <path class="cls-29" d="M87,59c.8.87,3.29,2.75,3.66,3.33.66,1.05.62,3.08,1.34,4.67l-4,1c-1.02-2.49-1.04-6.46-4-8,.97.04,2.13-.55,3-1Z"/>
      <path class="cls-45" d="M55,128l5,2.5c-3.48,1.63-4,4.59-6,7.5.15-2.2.06-2.97-2-4,.95-2.17.62-2.24,1-4,.08-.35.98-1,1-2h1Z"/>
      <path class="cls-15" d="M29,10c-.98,3.22-3.4,7.46-7,8h-1c.39-1.84,1.31-4.17,2-6,.11-.29-.11-.71,0-1,2.11.23,4.01-.58,6-1Z"/>
      <path class="cls-80" d="M73,128c5.63.12,3.31,3.13,4,5-.18.63-.96,1.49-1,2-.69-.46-4.73-2.74-5-3,0-1,0-2,0-3,.72.13,1.86-1,2-1Z"/>
      <path class="cls-43" d="M78,17c-.85.31-1.88,1.1-2,2-2.4-1.65-4.01-5.23-5-8v-1c2.51,2.28,5.21,2.48,7,7Z"/>
      <path class="cls-83" d="M89,99c-.29,3.24-.24,3.29,3,3-1.64,2.01-1.75,1.22-3,2-3.86.07-6.4.45-10-1h1c1.77-.28,4.45.41,6,0s2.19-2.69,3-4Z"/>
      <path class="cls-75" d="M72,151c-4.21.54-13.33.43-17-1,5.42.59,12.14-1.27,17,1Z"/>
      <path class="cls-53" d="M78,107c-2.59,4.3.69,11.31-2,15v-15.01c.66-.04,1.34.04,2,0Z"/>
      <path class="cls-58" d="M5,69c2.37-.04,3.47-.67,3,2-.86,1.44-1.48,2.03-1,4-.7.12-1.89-1.01-2-1,.24-1.49-.34-3.7,0-5Z"/>
      <path class="cls-11" d="M41,136c-.06.32.09.7,0,1h-2c-.26-.79.97-.83,1-1h1Z"/>
      <path class="cls-27" d="M41,136h-1c.04-.3.03-.69,0-1,.33-.03.67.03,1,0v1Z"/>
      <path class="cls-35" d="M26,70c.15.03.55,1.04,1.51,1.04s1.32-.99,1.49-1.04c.69-.2,1.25-1.12,2.47-1.04.39.03,3.79,4.75,5.54,5.52,2.95,1.31,5.89-.53,8.99,2.51.88.87,2.8,4.16,2,5-.48.51-3.63-1.21-3,1.49,2.36,1.81,3.17,1.59,3.99,4.51-1.21,1.22-.23,2.79-2.44,3.08-5.84.78-13.48-.74-19.56-.08-.3-.71.43-2.48-1-3,.02-.66.02-1.34,0-2-.06-2.66.05-5.34,0-8l-9.99,1c-.52,4.59,5.9,2.25,6.92,3.12.48.41-.17,2.46.07,2.87-1.69,1.73-.42,3.53-2,6h-3c-2.66,0-5.34.01-8,0-1.07-3.29,1.27-4.97,2-7,.63-1.73,1.67-2.9,1.06-5.43-.28-1.15-1.78-.36-2.06-.57.5-3.15,1.72-4.5,2-8,4.21-2.13,8.74-.91,13,0Z"/>
      <path class="cls-25" d="M77,75c-.73,5.12-1.9,5.17-4,9-6.37,11.62-3.23,11.1-3,23-4.66-2.5-1.91,5.34-4,9-1.33-11.07-10.95-6.61-3,1l-3,1c-.55-.99-3.31-4.73-4-5,.31-.36.68-.66,1-1,3.02-3.19,2.86-3.75,3-8l3.51,2.02c.68-2.09.94-5.29.3-7.34s-2.94-2.03-3.57-2.99c-.56-.86-.09-2.5-.25-2.68-.46-.52-2.64,1.03-2.99,1-1.02-.08-3.56-3.19-7-2,.04-.54,1-.9,1-1,5.64-.42,12.42,2.13,15.23-4.27.96-2.18.67-6.09,2.01-7.49.37-.39,8.22-6.12,8.75-6.24-.06.65.09,1.36,0,2Z"/>
      <path class="cls-5" d="M40,135c-3.95.39-6.46,1.63-9.44,2.05-3.82.54-8.34-1.27-10.56-1.05-1.64-1.58-.07-3.02,0-4,6.2-8.73,18.96-9.38,20,3Z"/>
      <path class="cls-65" d="M41,93c1.19-.06,3.3-1.83,6.36-1.01,1.05.28.29,2.34,1.14,2,.74-.3,1.24-1.91,1.5-2,3.44-1.19,5.98,1.92,7,2-.08,1.69,1.54,2.83,2,4-3.14,5.41-10.68,2.17-15.99,3.01l2.99,1.99c-1.33-.04-2.67.03-4,0-.06-.8.18-2.75,0-3,4.24-.41,9.86.92,13.76-.74,1.43-.61,1.51-.26,1.24-2.26h-15s0,2.99,0,2.99c-.14-.2-3.16.79-2-3.37.24-.87,3.67-.28,1-3.63Z"/>
      <path class="cls-3" d="M41,93c2.67,3.34-.76,2.76-1,3.63-1.16,4.16,1.86,3.18,2,3.37.18.25-.06,2.2,0,3-11.11-.29-14.43-1.08-5-10,1.32.02,2.68.07,4,0Z"/>
      <path class="cls-2" d="M57,94c.35.03,2.54-1.52,2.99-1,.16.18-.31,1.82.25,2.68.63.96,2.9.88,3.57,2.99s.38,5.25-.3,7.34l-3.51-2.02c.1-3.04.02-3.4-1-6-.46-1.17-2.08-2.31-2-4Z"/>
      <path class="cls-8" d="M45,110c.67,6.42.32,10.28-6,13-.35-4.18,2.67-3.42,3.01-4.7,1.27-4.76-.82-4.75-3.01-7.3,1.09-1.68,4.11-.97,6-1Z"/>
      <path class="cls-22" d="M46,103c3.51.12,10.96-1.63,10.99,2.99l-14.41.02c-1.13-.16-.52-2.1-.59-3.02,1.33.03,2.67-.04,4,0Z"/>
      <path class="cls-71" d="M25,105c-1.65-1.81-2.38-4.03-2.11-6.51.24-2.27,2.58-.83,3.11-5.49,6.29,1.34.8,3.6.2,5.7-.26.92-1.09,5.29-1.2,6.3Z"/>
      <path class="cls-1" d="M50,92c-.26.09-.76,1.7-1.5,2-.85.34-.09-1.72-1.14-2-3.06-.82-5.17.94-6.36,1.01-1.32.07-2.68.02-4,0-.13,0-1.16-.88-2.42-1.04-2.33-.29-6.73,1.03-7.58-.96,6.08-.65,13.72.86,19.56.08,2.2-.29,1.22-1.86,2.44-3.08.25.89-.22,2.43,0,3.49l.99.51Z"/>
      <path class="cls-54" d="M39,111c-.62-.72-4.8-3.09-2.99-4.99,1.91-2.01,3.76,2.58,4.62,2.84,4.03,1.26,10.46-1.44,14.38,1.15-3.05-.3-6.84-.05-10,0-1.89.03-4.91-.68-6,1Z"/>
      <path class="cls-30" d="M31.99,110c-.26,2.68,2.78,7.65-1.49,5.99-2.59-1.01-2.07-6.55,1.49-5.99Z"/>
      <path class="cls-48" d="M4,79h5c.71.65-3.48,7.84,3,5-.74,2.03-3.07,3.71-2,7,2.66.01,5.34,0,8,0-1.6.94-1.99,1.14-2,3-1.45-1.27-10.59-1.37-11.01-1-.21.19.14,2.26,0,3-1.31-2.13-1.61-14.28-1-17Z"/>
      <path class="cls-42" d="M21,91c-.32.49-1.75.68-1.98,1.73-1.52,6.9,2.24,8.85,3.6,13.31.44,1.45-.63,1.86-.62,1.96-2.4-3.25-6.03-9.91-6-14,.01-1.86.4-2.06,2-3h3Z"/>
      <path class="cls-26" d="M22,118c-4.26-3.77-7.99-1.31-4.99-9l4.99,4c-.07,2.19,1.38,2.8,0,5Z"/>
      <path class="cls-78" d="M73,87c-5.56,16.25,1,15.8.77,29.74-.03,1.95-2.09,2.4-2.57,3.96-.65,2.11-.2,5.86-.2,8.3,0,1,0,2,0,3-3.02-2.96-.99-7.53-1-12s.08-8.68,0-13c-.23-11.9-3.37-11.38,3-23-.16.89.24,2.29,0,3Z"/>
      <path class="cls-9" d="M80,76c0,1.67,0,3.33,0,5,0,.65.07,1.36,0,2-.94-.83-.73-2.57-2.49-2l-4.51,6c.24-.71-.16-2.11,0-3,2.1-3.83,3.27-3.88,4-9,.9-.11,2.55,1.03,3,1Z"/>
      <path class="cls-36" d="M78,96c1.59,1.51,2.92,1.03,5,1,.74,2.46-1.11,1.88-2,3-.83,1.05-1.33,1.41-1,3h-1c-.5-.2-1.83.63-2.02-.66.57-2.67-.99-5.39-.93-7.77.02-.82.91-1.33.96-1.57-.77,1.28.27,2.3,1,3Z"/>
      <path class="cls-41" d="M83,87c-2.04.05-3.31,4.18-4.35,5.7-.32.46-1.61.23-1.65.3.85-4.62,2.5-5.56,3-10,1.31,1.16,3.1,1.53,3,4Z"/>
      <path class="cls-68" d="M23,85c-.24-.41.41-2.47-.07-2.87-1.03-.87-7.44,1.47-6.92-3.12l9.99-1c.06,2.66-.05,5.34,0,8-.57-.66-2.92-.86-3-1Z"/>
      <path class="cls-30" d="M50,7c.66,0,1.34-.03,2,0,3.88,3.13,9.06,2.92,12.9,6.6,7.63,7.31,7.51,25.98-2.9,30.4-1.49.63-3.76-.54-4.63,2.99-.53,2.16,2.98,4.65.63,8,4.79.18,5.46.61,6-3.99,3.76-2.77,3.3,4.95,3,8-.12,1.2-.67,2-1,3-1.58.61-3.89.53-5.3,1.24-1.22.61-1.58,1.7-1.7,1.76-10.06-.15-16.77,1.48-26-3-1.61-2.65-3.68-3.05-4.07-6.47-.21-1.84-.21-6.88,3.07-4.53.03.58.83,3.89,1,4,8.67,3.84,4.7-1.47,6.45-4.05.74-1.1,3.67-.85,4.53-2.45-2.87-3.92-6.93-3.67-10.98-4.5-.89-.18-2.1.17-3,0-9.16-7.88-8-11.81-8-23v-3c3.6-.54,6.02-4.78,7-8,.62-.13,1.37-.88,2-1,5.57-1.07,13.29-1.96,19-2Z"/>
      <path class="cls-24" d="M71,11c.99,2.77,2.6,6.35,5,8-.3,2.17.66,13.88,1.05,16.45.25,1.63,1.82,2.84,1.95,4.55-4.47,2.6-6.65,7.9-6,13-4.59.47-4.34,1.66-4,6-.67,0-1.33,0-2,0,.3-3.05.76-10.77-3-8,.29-2.53.75-5.92-2-7,10.41-4.42,10.54-23.09,2.9-30.4-3.84-3.68-9.02-3.47-12.9-6.6,7.19.37,5.73,1.62,9.7,2.8,2.65.78,6.44-.28,9.3,1.2Z"/>
      <path class="cls-81" d="M50,7c-5.71.04-13.43.93-19,2,.47-.99,1.7-2.05,2-3,5.43.57,12.14-1.26,17,1Z"/>
      <path class="cls-47" d="M56,113c.69.27,3.45,4.01,4,5,.31.55-.44,2.66.94,3.54.39.25,11.25,2.35,4.48,4.41-4.17,1.27-6.71-5.17-10.42-5.95-.26-2-2.63-4.32-1-7,.61.01,1.62-.14,2,0Z"/>
      <path class="cls-28" d="M54,113c-1.63,2.68.74,5,1,7,.32,2.49-.22,5.43,0,8h-1c.01-.73-.84-6.53-1.05-7.29-.22-.83-1.76-.67-1.93-1.4-.44-1.88.2-4.31-.02-6.31,1,.01,2-.02,3,0Z"/>
      <path class="cls-85" d="M22,21c-3.18,7.3-.88,21.29,8,23,.9.17,2.11-.18,3,0-1.15,1.04.06,2.56,0,3-.11.87-1.14,1.61-1,4-3.29-2.35-3.29,2.69-3.07,4.53.4,3.42,2.47,3.82,4.07,6.47-.39-.19-1.55.22-2.35-.18-1.59-.8-2.04-3.71-4.65-3.82-.08-1.33.08-2.68,0-4.01-1-.05-2,.04-3,0,1.65-5.38-1.85-5.73-2.76-7.22-1-1.64,1.1-5.95-3.24-5.78,3.11-7.13,2.25-14.65,4-23h1v3Z"/>
      <path class="cls-63" d="M84,60c2.96,1.54,2.98,5.51,4,8,.58,1.42,2.55,2.49,2.77,3.61s-.13,5.38.23,8.39c-6.31,4.14-.6,4.07,0,6-1.71.09-3.43-.89-5-1,1.61-1.66,1.12-9.09-.13-9.86-2.15-1.32-4.89.78-5.87.86-.45.03-2.1-1.11-3-1,.09-.64-.06-1.35,0-2,2.06-.46,8.17,1.1,8.99-1.51,1.02-3.01-2.67-2.88-3.01-4.21s0-3.73.02-5.28c0-.67,0-1.33,0-2,.33.03.67-.01,1,0Z"/>
      <path class="cls-67" d="M80,81c2.4.27,3.62,4.58,4.12,4.96.72.54,1.77-.97,1.88-.96,1.57.11,3.29,1.09,5,1,.25.8.24,9.02,0,10-.04.18-1.44,2.1-2,3-.81,1.31-1.51,3.61-3,4,.76-4.34-1.41-2.86-5-3,.89-1.12,2.74-.53,2-3-2.08.03-3.42.5-5-1,4.84,1.73,10.44-3.59,9.39-7.99-1.42.83-4.17-1.02-4.39-1.01.1-2.47-1.69-2.84-3-4,.07-.64,0-1.35,0-2Z"/>
      <path class="cls-64" d="M91,96c.24-.98.25-9.2,0-10-.6-1.93-6.31-1.86,0-6,.61,5.09,2.35,10.99,0,16Z"/>
      <path class="cls-51" d="M69,59c5.27,0,9.12.57,14,1,0,.67,0,1.33,0,2-3.44.36-7.72-.52-11,0-1.8.28-3.78,1.76-5,3-.64.08-1.41-.12-2,0,.62-.9.67-2,1-3s.88-1.8,1-3c.67,0,1.33,0,2,0Z"/>
      <path class="cls-17" d="M77,53v-1c2.24-.24-.02.89,0,1Z"/>
      <path class="cls-40" d="M23,68c-1.87.36-9.31-.52-10.01,0-.14.1.04,1.55,0,2-.28,3.5-1.5,4.85-2,8-2.06-1.54.68-4.25-4-2v-1c-.48-1.97.14-2.56,1-4,.23-.39,4.66-4.92,5-5,1.31-.3,6.16-.25,7.53.01,2.02.38,2.23,1.88,2.47,1.99Z"/>
      <path class="cls-66" d="M11,78c.28.21,1.78-.59,2.06.57.61,2.53-.42,3.7-1.06,5.43-6.49,2.84-2.3-4.35-3-4.99h-5c.27-1.23,1.87-2.46,3-3.01,4.68-2.25,1.94.46,4,2Z"/>
      <path class="cls-14" d="M63,117c.33.32.66.79,1,1,2.02,1.26,3.47,2.13,6,2,.01,4.47-2.02,9.04,1,12,.27.26,4.31,2.54,5,3-.16,2.25,2.45,12-.5,12h-21.5c-.4,0,.28-6.8,0-8,.02-.33-.02-.67,0-1,1.99-2.92,2.52-5.87,6-7.5l-5-2.5c-.22-2.57.32-5.51,0-8,3.71.77,6.25,7.22,10.42,5.95,6.77-2.06-4.09-4.16-4.48-4.41-1.38-.88-.63-2.99-.94-3.54l3-1ZM73,144c.45-2.74-1.96-8.95-4.69-9.8-7.94-2.46-15.19,7.85-9.67,9.65s5.52-1.9,5.87-1.89c1.65.05,5.2,3.59,8.49,2.03Z"/>
      <path class="cls-74" d="M34,66h-5.01s0,4,0,4c-.17.05-.49,1.04-1.49,1.04s-1.36-1.01-1.51-1.04c.7-3.28-1.89-1.49-3-2-.24-.11-.45-1.6-2.47-1.99-1.37-.26-6.22-.31-7.53-.01,2.05-1.99,6.13-.74,9-1s3.45.26,4-3c2.78,1.12,5.22,2.79,8,4Z"/>
      <path class="cls-49" d="M26,58c2.61.11,3.06,3.01,4.65,3.82.8.41,1.96,0,2.35.18,9.23,4.48,15.94,2.85,26,3-5.93,3.04-16.48-.99-23,2-.65-.21-1.33-.71-2-1-2.78-1.21-5.22-2.88-8-4,.18-1.05.07-2.84,0-4Z"/>
      <path class="cls-31" d="M81,100c3.59.14,5.76-1.34,5,3-1.55.41-4.23-.28-6,0-.33-1.59.17-1.95,1-3Z"/>
      <path class="cls-25" d="M67,65c-.13.13-.59,1.57-2,3-1.64,1.66-4.03,5.47-6.05,6.45-4.37,2.11-9.49-1.07-7.95,6.55-1.21-1.82-1.23-2.71-1-5.01l-4,1.01c-3.1-3.04-6.03-1.2-8.99-2.51-1.75-.78-5.15-5.5-5.54-5.52-1.23-.08-1.79.83-2.47,1.04v-4s5,0,5,0c.67.29,1.35.79,2,1,4.4,1.39,16.66,1.7,21.54,1.04,2.89-.39,4.89-2.52,7.46-3.04.59-.12,1.36.08,2,0Z"/>
      <path class="cls-56" d="M46,77l4-1.01c-.23,2.29-.21,3.19,1,5.01.56.83,2.03.72,2.01,1.51.5,2.02-2.76,1.92-3.06,3.19-.54,2.28,1.08,4.49,1.05,5.3,0,.1-.96.46-1,1l-.99-.51c-.23-1.06.24-2.6,0-3.49-.83-2.92-1.63-2.7-3.99-4.51-.63-2.7,2.51-.99,3-1.49.8-.84-1.12-4.13-2-5Z"/>
      <path class="cls-79" d="M23,68c1.11.51,3.7-1.28,3,2-4.26-.91-8.79-2.13-13,0,.04-.44-.14-1.9,0-2,.69-.52,8.14.36,10.01,0Z"/>
      <path class="cls-6" d="M83,62c-.02,1.55-.35,4.02-.02,5.28.34,1.33,4.04,1.2,3.01,4.21-.82,2.61-6.93,1.05-8.99,1.51-.53.12-8.38,5.85-8.75,6.24-1.34,1.41-1.06,5.32-2.01,7.49-2.81,6.39-9.59,3.85-15.23,4.27.03-.81-1.59-3.03-1.05-5.3.3-1.27,3.56-1.17,3.06-3.19.02-.79-1.45-.68-2.01-1.51-1.54-7.62,3.58-4.44,7.95-6.55,2.02-.98,4.41-4.79,6.05-6.45l7.02.55c2.23-3.22,1.3-4.43-2.01-2.55l1.99-4c3.28-.52,7.56.36,11,0Z"/>
      <path class="cls-73" d="M70,107c.08,4.32-.01,8.68,0,13-2.53.13-3.98-.74-6-2,.48-.72,1.63-1.36,2-2,2.09-3.66-.66-11.5,4-9Z"/>
      <path class="cls-84" d="M66,116c-.37.64-1.52,1.28-2,2-.34-.21-.67-.68-1-1-7.95-7.61,1.67-12.07,3-1Z"/>
      <path class="cls-70" d="M42,100v-3s14.99,0,14.99,0c.28,2,.19,1.65-1.24,2.26-3.9,1.66-9.51.33-13.76.74Z"/>
      <path class="cls-13" d="M80,76c.97-.07,3.72-2.18,5.87-.86,1.25.77,1.75,8.19.13,9.86-.11,0-1.16,1.5-1.88.96-.51-.38-1.72-4.69-4.12-4.96,0-1.67,0-3.33,0-5Z"/>
      <path class="cls-21" d="M83,87c.23,0,2.97,1.84,4.39,1.01,1.05,4.4-4.55,9.72-9.39,7.99-.73-.7-1.77-1.72-1-3,.04-.07,1.33.16,1.65-.3,1.04-1.52,2.31-5.65,4.35-5.7Z"/>
      <path class="cls-61" d="M66,62c-.33,1-.38,2.1-1,3-2.56.53-4.57,2.66-7.46,3.04-4.89.65-17.15.35-21.54-1.04,6.52-2.99,17.07,1.04,23-2,.12-.06.48-1.15,1.7-1.76,1.41-.7,3.72-.62,5.3-1.24Z"/>
      <path class="cls-57" d="M62,44c2.75,1.08,2.29,4.47,2,7-.54,4.61-1.2,4.17-6,3.99,2.35-3.35-1.16-5.84-.63-8,.87-3.53,3.14-2.36,4.63-2.99Z"/>
      <path class="cls-10" d="M33,44c4.05.83,8.11.58,10.98,4.5-.86,1.6-3.79,1.35-4.53,2.45-1.75,2.58,2.22,7.89-6.45,4.05.54.36,3.83-.24,5,0-4.99-4.44,8.11-8.69-5-7.99.06-.44-1.15-1.96,0-3Z"/>
      <path class="cls-34" d="M33,47c13.11-.7.01,3.55,5,7.99-1.17-.23-4.46.37-5,0-.17-.11-.97-3.42-1-4-.14-2.39.89-3.13,1-4Z"/>
      <path class="cls-76" d="M30,44c-8.88-1.71-11.18-15.7-8-23,0,11.19-1.16,15.12,8,23Z"/>
      <path class="cls-62" d="M72,62l-1.99,4c3.3-1.87,4.24-.67,2.01,2.55l-7.02-.55c1.41-1.43,1.87-2.87,2-3,1.22-1.24,3.2-2.72,5-3Z"/>
      <path class="cls-69" d="M73,144c-3.3,1.56-6.84-1.98-8.49-2.03-.35-.01-.44,3.66-5.87,1.89s1.73-12.12,9.67-9.65c2.73.85,5.14,7.05,4.69,9.8Z"/>
    </g>
  </g>
</svg>