<?xml version="1.0" encoding="UTF-8"?>
<svg id="_Слой_2" data-name="Слой 2" xmlns="http://www.w3.org/2000/svg" viewBox="0 0 103 153">
  <defs>
    <style>
      .cls-1 {
        fill: #563329;
      }

      .cls-2 {
        fill: #d6997c;
      }

      .cls-3 {
        fill: #f9ceb0;
      }

      .cls-4 {
        fill: #d7997c;
      }

      .cls-5 {
        fill: #441d12;
      }

      .cls-6 {
        fill: #fde3cd;
      }

      .cls-7 {
        fill: #593124;
      }

      .cls-8 {
        fill: #d4997d;
      }

      .cls-9 {
        fill: #572c1e;
      }

      .cls-10 {
        fill: #d89e81;
      }

      .cls-11 {
        fill: #895a4d;
      }

      .cls-12 {
        fill: #fbd1b3;
      }

      .cls-13 {
        fill: #f9cfb2;
      }

      .cls-14 {
        fill: #f9ceb1;
      }

      .cls-15 {
        fill: #9b5c43;
      }

      .cls-16 {
        fill: #51362d;
      }

      .cls-17 {
        fill: #c98a6e;
      }

      .cls-18 {
        fill: #e9c0a4;
      }

      .cls-19 {
        fill: #9a5c43;
      }

      .cls-20 {
        fill: #2e1711;
      }

      .cls-21 {
        fill: #facfb1;
      }

      .cls-22 {
        fill: #f8ddc7;
      }

      .cls-23 {
        fill: #f9dec7;
      }

      .cls-24 {
        fill: #4a2216;
      }

      .cls-25 {
        fill: #f7dbc4;
      }

      .cls-26 {
        fill: #643727;
      }

      .cls-27 {
        fill: #92533a;
      }

      .cls-28 {
        fill: #95543b;
      }

      .cls-29 {
        fill: #fce3cd;
      }

      .cls-30 {
        fill: #40180d;
      }

      .cls-31 {
        fill: #522b1f;
      }

      .cls-32 {
        fill: #cc9276;
      }

      .cls-33 {
        fill: #5e3b30;
      }

      .cls-34 {
        fill: #e5a07c;
      }

      .cls-35 {
        fill: #512c22;
      }

      .cls-36 {
        fill: #fbd3b5;
      }

      .cls-37 {
        fill: #d79e82;
      }

      .cls-38 {
        fill: #d89a7c;
      }

      .cls-39 {
        fill: #441c11;
      }

      .cls-40 {
        fill: #6a4439;
      }

      .cls-41 {
        fill: #fdd4b6;
      }

      .cls-42 {
        fill: #3f2d23;
      }

      .cls-43 {
        fill: #daa184;
      }

      .cls-44 {
        fill: #4c261a;
      }

      .cls-45 {
        fill: #d59270;
      }

      .cls-46 {
        fill: #98583f;
      }

      .cls-47 {
        fill: #4c261b;
      }

      .cls-48 {
        fill: #cd977c;
      }

      .cls-49 {
        fill: #c99176;
      }

      .cls-50 {
        fill: #f8dbc4;
      }

      .cls-51 {
        fill: #f6c8aa;
      }

      .cls-52 {
        fill: #fbe1cb;
      }

      .cls-53 {
        fill: #965940;
      }

      .cls-54 {
        fill: #3c2c23;
      }

      .cls-55 {
        fill: #431d12;
      }

      .cls-56 {
        fill: #845347;
      }

      .cls-57 {
        fill: #d59377;
      }

      .cls-58 {
        fill: #d8987c;
      }

      .cls-59 {
        fill: #d1957b;
      }

      .cls-60 {
        fill: #fbd2b4;
      }

      .cls-61 {
        fill: #fadec7;
      }

      .cls-62 {
        fill: #f9ddc6;
      }

      .cls-63 {
        fill: #3d160b;
      }

      .cls-64 {
        fill: #d7987b;
      }

      .cls-65 {
        fill: #461f14;
      }

      .cls-66 {
        fill: #e8e0de;
      }

      .cls-67 {
        fill: #552d22;
      }

      .cls-68 {
        fill: #d89573;
      }

      .cls-69 {
        fill: #462d27;
      }

      .cls-70 {
        fill: #482014;
      }

      .cls-71 {
        fill: #d7997b;
      }

      .cls-72 {
        fill: #d29073;
      }

      .cls-73 {
        fill: #a16147;
      }

      .cls-74 {
        fill: #573226;
      }

      .cls-75 {
        fill: #f9dec8;
      }

      .cls-76 {
        fill: #321a14;
      }

      .cls-77 {
        fill: #f4d7c1;
      }

      .cls-78 {
        fill: #f9d0b2;
      }

      .cls-79 {
        fill: #f1c8ab;
      }

      .cls-80 {
        fill: #8c4c34;
      }

      .cls-81 {
        fill: #7f4d41;
      }

      .cls-82 {
        fill: #492317;
      }
    </style>
  </defs>
  <g id="_Слой_19_Изображение" data-name="Слой 19 Изображение">
    <g>
      <path class="cls-5" d="M19,141c.38,1.34,1.35.75,2,1-.1,1.7,2.28,3.08,3,4,.65.84,1.36,2.45,2,3,3.19,2.74,8.78-.74,12,2-.72.62-1.37,1.3-2,2h-13c-4.16-5.49-8.54-6.37-6.98-14.53.4-2.07,1.86-2.22,1.98-2.47,1.3,1.45.62,3.68,1,5Z"/>
      <path class="cls-55" d="M18,49c-2.75-2.13-2.5-6.09-2.04-9.55.41-3.08,2.53-4.22,2.99-7,1.22-7.41-1.66-12.13,3.21-19.79C30.06.23,48.36.88,61.54,1.96c5.64.46,4.13,1.98,6.21,2.98,2.99,1.44,2.12-.21,6.25,3.06-.6-.16-.99.53-1,1-7.13-2.61-11.44-3.71-19-4-10.8-.41-21.39.33-28,10-6.23,9.11-2.06,15.4-3.94,23.43-.28,1.19-1.58.34-2.06.57-2.3,1.11.16,7.46-2,10Z"/>
      <path class="cls-39" d="M86,90c-.24,2.28.53,5.26-.16,7.37-.1.29-3.28,3.96-3.84,4.63-.11.13-1.74-.54-2.04.65-.35,1.38.19,3.68.04,5.35-.12,1.32.1,2.68,0,4-.01.18-1.45,1.02-1,1.99l11,1.01c0,.07,1.02.37,1,1-.29.15-.36,1.6-2.48,1.99-6.37,1.15-16.94-3.46-11.52,9.01-.46.12-.95.55-1,1-11.58-1.11-3.65-2.99-3.13-4.6.65-2.01-.4-4.78.27-6.78.46-1.35,2.61-1.27,2.88-2.31.51-1.98-.05-6.75-.02-9.3.11-9.99,1.09-4.01,3.91-6.12.45-.34-.07-1.68.09-1.88.98-1.28,3.09-1.64,3.01-3.49-.01-.46-2.03-.88-3.01-1.51-1.34-2.61,4.18-2.56,6-2Z"/>
      <path class="cls-36" d="M78,134c.56-.14,1.36.09,2,0,.05.32-.04.67,0,1,.24,2.19-.9,5.59,1,7-.11.3-.74.64-1,1-6.63-.54-13.83.29-20-1,.02-.67-.03-1.34,0-2,.3-6.44,5.94-10.73,12.3-8.79,2.93.89,1.57,3.82,5.7,2.79Z"/>
      <path class="cls-24" d="M27,87c3-.56,1.96,1.53,2,3.46.13,5.85-3.1,11.49-4,18.54-.08.65.05,1.34,0,2-4.37-6.82-2.96,6-3,9.54-.06,5.23-.89,3.69-1,4.46-4.22-1.68-.82-14.85-2.01-15.99-.5-.48-6.12,1-8.99-3.01h2c1.31,0,2.71.12,4,0,2.86-.26,4.09.95,6-2,1.64-2.53.07-3.29,0-6-.04-1.34-.27-3.98,0-5,.58-2.17,3.22-1.83,4.54-2.99l1.45,1.98c.61-1.95-.7-3.56-.99-5Z"/>
      <path class="cls-7" d="M26,52c2.97.62,3.54-1.33,3,4-.1.95-1,1.89-1,2-8.5-.75-16.86-.53-17,10-.38.26-.64.74-1,1-.79.57-2.78,1.34-3,2-.45,1.35.31,4.33,0,6-.1-.12-.67.07-1,0-2.08-2.05-.62-6.18-1-9,2.36-1.55,5.14-9.81,7-11,2.06-1.31,8.21-.49,10.44-.93.99-.19.19-2.07.81-2.78.51-.59,2.37-.29,2.74-1.29Z"/>
      <path class="cls-67" d="M21,125c.1-.77.94.77,1-4.46.04-3.54-1.37-16.36,3-9.54-.05.66.03,1.34,0,2-5.37-.1.17,9.8.55,10.95,1.04,3.15-.37,6.36,3.43,8.55-1.19,2.41-4.71.9-5.84,1.63-.7.46-1.08,6.48-4.14,6.87-.38-1.32.3-3.55-1-5,.93-1.99,3.68-6.16,3.85-6.73.65-2.22-.89-3.96-.85-4.27Z"/>
      <path class="cls-47" d="M55,122c.92.95,4.78,1.83,4.98,2.02,1.22,1.21-7.99,14.85.02,15.98-.03.66.02,1.33,0,2-.87-.18-2.05.12-3,0-4.76-5.43-1.96-5.62-3.11-11.39-.95-4.77-3.48-8.72-2.89-13.61.59-.04,1.43-.9,2-1-.24,2.72.17,4.11,2,6Z"/>
      <path class="cls-82" d="M99,96c-.19-.38-.97-.81-1-1-.17-1.24.07-2.7,0-4-.16-3.07,1.35-7.97-3-8-.05-4.95-1.08-6.75-2-11-.06-.3,0-.68,0-1-.01-.56.35-1.11,1-1,2.48,2.73,6.21,8.57,6.99,12.51.93,4.73.4,9.72-1.99,13.49Z"/>
      <path class="cls-44" d="M77,17c6.94,3.46,3.03,12.7,4.01,18.99,1.74.23.94-2.27.99-3.48.2-4.82-.14-9.69,0-14.51,2.13,5.22.29,10.11,1.05,15.45.22,1.54,1.68,2.77,2,5,.44,3.09.28,7.94-1.05,10.55-1.17-3.04-1.05-5.64-2-9-2.58-9.09-.66-14.8-5-23Z"/>
      <path class="cls-9" d="M78,57c2.87.13,7.28,1.74,10.8,1.21,2.53,1.71,4.65,11.19,5.2,11.79-.65-.11-1.01.44-1,1-.64-.37-1.39-.6-2-1,.41-2.72-2.8-7.49-5.02-8.48-3.15-1.4-5.84.56-8.98-1.52.1-1.09.57-2.02,1-3Z"/>
      <path class="cls-33" d="M60,142c6.17,1.29,13.37.46,20,1-.22.31.03,1.44-.47,2.02-1.18,1.38-14.43,1.38-17.08,1.03-3.7-.49-3.48-1.81-5.45-4.05.95.12,2.13-.18,3,0Z"/>
      <path class="cls-18" d="M82,40c.95,3.36.83,5.96,2,9-.3.58-1.48,1.32-2,2-1.86.4-4.25.49-6,1-.3-3.42,2.77-11.31,6-12Z"/>
      <path class="cls-63" d="M82,18c-.14,4.82.2,9.69,0,14.51-.05,1.22.76,3.72-.99,3.48-.98-6.29,2.93-15.53-4.01-18.99-1.27-2.41-4.08-4.29-4-8,0-.47.4-1.16,1-1,3.24,2.57,6.42,6.12,8,10Z"/>
      <path class="cls-79" d="M26,52c-1.59-.33-2.41-.49-4-1-.24-.08-1.59-.78-2-1-.63-.34-1.12-.32-2-1,2.16-2.54-.3-8.89,2-10l5.79,8.73c.31.91.5,3.49.21,4.27Z"/>
      <path class="cls-16" d="M98,95c.03.19.81.62,1,1-2.55,4.03.11,10.19-.98,14.29-.25.94-1.83,1.01-2.42,1.76-.56.71-.46,1.82-.6,1.95-6.18.75-.54-3.44-.06-6.55s-.18-6.4.06-9.45c.57-2.17-1.48-3.6,3-3Z"/>
      <path class="cls-69" d="M4,88c.29-.02,1.55-1.64,2.99-1,.23,2.24-.3,4.83,0,7,.37,2.62,1.24,7.62,2,10-7.66-1.64-4.38-10.32-5-16Z"/>
      <path class="cls-70" d="M54,112l1,3c-.88.3-1.89.98-2,1-.57.1-1.41.96-2,1-.16.01-1.68-1.6-2.99-1,.14,3.3.39,5.09-1.01,8-.57-.09-1.86.15-1.99,0-.39-.46,3.56-11.36-1.01-9.99.04-.66-.06-1.34,0-2,3.31-.16,6.7.2,10.01,0Z"/>
      <path class="cls-81" d="M41,147c-.09.32.11.72,0,1l-15,1c-.64-.55-1.35-2.16-2-3,3.89-.44,8.82.64,12.52-.02,2.17-.39,2.06-1.72,2.48-1.98,1.02-.63,1.98-1.37,3-2-.05.92-.71,4.02-1,5Z"/>
      <path class="cls-30" d="M41,128c.35-.04.72.08,1,0-2.76,4.02,1.84,6.05,1.98,6.7.48,2.14,1.32,12.76-2.98,12.3.29-.98.95-4.08,1-5,.23-4.47-5.11-11.15-3-14,.09-.12,1.56.05,2,0Z"/>
      <path class="cls-31" d="M44,114c4.57-1.37.62,9.53,1.01,9.99.13.16,1.42-.09,1.99,0-1.16,2.42-2.53,3.31-5,4-.28.08-.65-.04-1,0-1.44-3.94,2.11-5.61,2.8-7.73.53-1.64.15-3.57.2-5.27.01-.33-.02-.67,0-1Z"/>
      <path class="cls-1" d="M6,77c.07.73-.85.77-1,1-2.3,3.62.85,7.12-3,9-1.43-1.75-1.47-7.1-.98-9.31.12-.53,4.58-5.68,3.98-9.69.38,2.82-1.08,6.95,1,9Z"/>
      <path class="cls-26" d="M82,51c-1.78,2.33-2.73,3.13-4,6-1.44-.06-3.73-.23-5,0,.42-3.7-.16-4.08,3-5,1.75-.51,4.14-.6,6-1Z"/>
      <path class="cls-11" d="M12,106h-2c-.33-.46-.83-1.46-1-2-.76-2.38-1.63-7.38-2-10h1c3.6,3.32,3.13,7.49,4,12Z"/>
      <path class="cls-40" d="M95,98c-.24,3.05.41,6.47-.06,9.45s-6.13,7.3.06,6.55c-1.4,1.31-2.54,1.27-4,2,.02-.63-1-.93-1-1-.01-.31-.07-.74,0-1,.65-2.42,3.88-6.31,3.97-6.7.65-2.99-.02-5.33,1.03-9.3Z"/>
      <path class="cls-48" d="M5,78c1.86,4.95-2.45,7.17,3,9v7h-1c-.3-2.16.22-4.76,0-7-1.44-.65-2.7.97-2.99,1-1.5.11-1.3-.14-2-1,3.85-1.88.7-5.38,3-9Z"/>
      <path class="cls-76" d="M80,134c-.64.09-1.44-.14-2,0-2.45-.75-2.22-3.81-2-6,.05-.45.54-.88,1-1,.97,2.22,2.36,2.95,3,7Z"/>
      <path class="cls-74" d="M26,52c-.37,1-2.23.7-2.74,1.29-.63.72.17,2.59-.81,2.78-2.24.44-8.39-.39-10.44.93,2.32-3.03,6.62-1.81,10-2.01.52-1.46-.85-2.23-1-2.99-.02-.1.89-.7,1-1,1.59.51,2.41.67,4,1Z"/>
      <path class="cls-35" d="M41,148c-.67,1.79-1.86,2.02-3,3-3.22-2.74-8.81.74-12-2l15-1Z"/>
      <path class="cls-33" d="M80,135c3.77-.67,1.91,4.46,1,7-1.9-1.41-.76-4.81-1-7Z"/>
      <path class="cls-20" d="M22,51c-.11.3-1.02.9-1,1l-1-2c.41.22,1.76.92,2,1Z"/>
      <path class="cls-72" d="M26,143c3.19-.22,2.61-2.75,3.54-3.04,2.38-.74,4.48,5.19,9.46,3.04v1c-.43.26-.31,1.6-2.48,1.98-3.7.66-8.63-.42-12.52.02-.72-.92-3.1-2.3-3-4,1.26.49,3.7,1.09,5,1Z"/>
      <path class="cls-4" d="M25,113c-.1,2.01-1.44,4.77-.92,6.37.43,1.32,2.67,1.25,2.94,2.32,1.09,4.25-1.86,4.5,1.87,8.91,4.4,5.2-4.03,3.9-4.77,4.51-.28.23-.37,2.53-.9,3.58-.5.98-2.18,2.69-2.21,3.3-.65-.25-1.62.34-2-1,3.06-.39,3.44-6.41,4.14-6.87,1.14-.74,4.65.77,5.84-1.63-3.8-2.19-2.39-5.4-3.43-8.55-.38-1.15-5.92-11.05-.55-10.95Z"/>
      <path class="cls-41" d="M54,5c5.76,2.96,17.66,8.51,18.95,15.55,1.39,7.55.23,17.72-7.22,21.7-1.38.74-3.74.39-4.5,1.02-.51.43-.12,1.63-.23,1.73-.3.26-3,.52-2.98,1.5.01.7,4.96,3,4.96,4,0,.71-3.76,2.45-2.98,4.49,1.49-.29,6.32.49,6.95-.07.41-.36-.18-2.26.04-2.93.27-.79,1.41-1.61,1.01-3,5.62,5.82.42,9.24-5.01,12-7.27,3.69-11.66.57-19,3-4.53-.45-3.49-1.27-6-3-4.59-3.18-6.76-3.95-6.07-10.53.24-2.26.39-3.49,3.07-3.47-.72,6.08.53,11,6.98,6.5-5.41-4.21-.81-3.38-.12-6.21,1.31-5.34-3.26-3.86-5.86-4.29-5.34-.89-3.16-2.01-5.56-3.94-1.99-1.6-4.02-1.04-5.2-3.8-2.68-6.27-.56-13.96.76-20.26,6.61-9.67,17.2-10.41,28-10Z"/>
      <path class="cls-34" d="M73,9c-.08,3.71,2.73,5.59,4,8,4.34,8.2,2.42,13.91,5,23-3.23.69-6.3,8.58-6,12-3.16.92-2.58,1.3-3,5-3.81.69-4.57,5.1-9,4h-1c5.43-2.76,10.63-6.18,5.01-12,.4,1.39-.74,2.21-1.01,3,.4-5.31.47-10.28-6-7,.12-.1-.28-1.3.23-1.73.76-.63,3.12-.29,4.5-1.02,7.45-3.98,8.61-14.14,7.22-21.7-1.29-7.04-13.2-12.59-18.95-15.55,7.56.29,11.87,1.39,19,4Z"/>
      <path class="cls-71" d="M36,43c.39,1.45-.88,3.03-1,4-2.68-.02-2.84,1.21-3.07,3.47-.69,6.58,1.48,7.35,6.07,10.53-5.22.82-5.72-2.42-9-5,.54-5.33-.03-3.38-3-4,.29-.78.1-3.36-.21-4.27l-5.79-8.73c.48-.23,1.78.62,2.06-.57,1.88-8.03-2.29-14.31,3.94-23.43-1.32,6.3-3.44,13.98-.76,20.26,1.18,2.76,3.21,2.2,5.2,3.8,2.4,1.93.22,3.05,5.56,3.94Z"/>
      <path class="cls-38" d="M38,65c.18.12-.61,2.44,2.5,3,2.49.45,22.32.22,23.52-.54,1.37-.87,1.05-3.93,5.99-2.47-1.78,1.34-4.89,6.55-7.02,7.48-2.69,1.17-9.76.52-10.88,5.23-.5,2.12,1.95,3.19,1.73,4.59-.24,1.51-3.24,4.5-1.83,7.7,3.65-.1,7.36.14,11,0,1.44-.06,5.28.33,6,0l-5,2.99c4.73.73,7.14,1.38,9,6.01.15,2.78-.89,6,3,6-.03,2.56.53,7.33.02,9.3-.27,1.04-2.42.96-2.88,2.31-.68,2,.37,4.78-.27,6.78-.52,1.61-8.45,3.49,3.13,4.6-.22,2.19-.45,5.25,2,6-4.13,1.03-2.77-1.9-5.7-2.79-6.36-1.94-12,2.35-12.3,8.79-8.01-1.13,1.2-14.77-.02-15.98-.2-.2-4.06-1.07-4.98-2.02,3.07-1.3,2.36-4.37,1-7,.41-.17,1.48.22,2.34-.17,1.3-.59,4.65-4.46,3.65-5.83-.34-.47-2.49,1.79-2.99,2-4.33-.81-12.82,1.1-16.46.07-1.02-.29-.45-1.49-.56-2.31-.3-2.11-4.8-.26-3.98,2.22l5.99,4.02c-.05,1.71.33,3.63-.2,5.27-.69,2.11-4.24,3.79-2.8,7.73-.44.05-1.91-.12-2,0-1.63,1.52-1.18,5.68-1,8-6.11.09-14.78-2.13-12,7-1.3.09-3.74-.51-5-1,.03-.61,1.71-2.32,2.21-3.3.54-1.05.63-3.35.9-3.58.75-.61,9.17.69,4.77-4.51-3.73-4.41-.78-4.66-1.87-8.91-.27-1.07-2.52-1-2.94-2.32-.52-1.6.82-4.36.92-6.37,1.67.03.63,3.17,1.28,4.74.09.21,2.97,3.14,3.19,3.16.34.03,3.12-.88,2.54-2.4-.39-1.01-2.33-.49-2.87-2.12-.72-2.15.17-5.51-.13-7.89l-4.01.5c.9-7.05,4.13-12.7,4-18.54-.04-1.92.99-4.02-2-3.46-.16-.78-.74-1.87-1-3-.56-2.42,1.51-7.09-3-7v-1c.27.07,3.72-1.64,5-1,1.71,1.82.47,3.45,1.24,4.78.3.52,2.01.45,2.56,1.88.46,1.2-.03,2.79.75,4.33.11.22,3.24,3.36,3.45,3.47,1.46.75,11.34.91,11.88.43,2.41-2.16-.3-7.01-2.86-8.39.04-.79,2.72-1.05,3-2.2,1.94-8.05-3.85-4.18-8.94-6.87-3.33-1.76-5.22-5.93-7.08-8.42,1.3,1.47,5.44.65,6,1ZM48,95l-8.98-.5c2.6,3.22,3.48,3.83,7.49,2.52,1.38-.45,1.82.65,1.49-2.02ZM63,98.99c.24.25-.85,6.71,2.49,6,2.35-.5,3.33-10.48-3.22-11.81-5.23-1.07-5.89,4.09-11.27,2.83.87,4.29,5.71,1.74,5.98,1.98.16.14.18,4.08,1.52,3.99.3-.02,2.5-5.05,4.5-2.99ZM38.99,102c1.1-9.37-5.1-9.33-3.99,0h3.99ZM48.01,102l-6,1.48c2.74,2.52,7.22,2.75,6-1.48ZM57,102.01c-1.44-.29-5.98-.02-5.97,1.49,0,2.14,6.88,2.36,5.97-1.49ZM35,108.99h-2.99c.26,2.95-1.12,6.78,1.51,9,3.22-.2.75-7.06,1.48-9ZM68.5,111.02c-1.63,0-1.28,4.75-2.01,5.97-.45.76-5.76,2.89-1.92,3.95,8.22,2.25,5.67-9.92,3.93-9.91ZM29.37,124.13l-.53,3.45,6.08.94.53-3.45-6.08-.94Z"/>
      <path class="cls-23" d="M93,90c1.76-.11,3.47.04,5,1,.07,1.3-.17,2.76,0,4-4.48-.6-2.43.83-3,3-1.05,3.97-.37,6.31-1.03,9.3-.09.39-3.32,4.28-3.97,6.7h-4.01c-.04-.99.04-2,0-3-.06-2,.06-4.01,0-6-3.78-1.1-2.73,3.05-6,3,.15-1.67-.4-3.97-.04-5.35.31-1.19,1.93-.51,2.04-.65,3.28-.49,4.54.23,5-3,.59-.13,1.63.19,2,0,2.56-1.32-1.03-8.69,4-9Z"/>
      <path class="cls-27" d="M76,83c-.82,3.7,1.21,2.78,3,4-.12,1.08-.43,2.08-1,3-.26.43-1.81.46-2.04,2.51-.35,3.11.89,7.36,4.04,4.49-.15.2.37,1.54-.09,1.88-2.82,2.11-3.81-3.87-3.91,6.12-3.89,0-2.85-3.22-3-6-.19-3.52-.66-13.43,1.28-15.76.36-.43,1.6-.11,1.72-.24Z"/>
      <path class="cls-8" d="M79,87c2.33,1.59,1.23,2.96,6.24,1.74,1.34-.33,2.81-3.09,4.27-.75.7,1.13-1.41,8.64-.52,11.01-.37.19-1.41-.13-2,0,.25-1.76,1.16-8.34-1-9-1.82-.56-7.34-.61-6,2-.68-.44-1.28-1.48-2-2,.57-.92.88-1.92,1-3Z"/>
      <path class="cls-66" d="M80,92c.98.63,3,1.05,3.01,1.51.08,1.85-2.03,2.21-3.01,3.49-3.15,2.88-4.39-1.38-4.04-4.49.23-2.05,1.78-2.09,2.04-2.51.72.52,1.32,1.56,2,2Z"/>
      <path class="cls-15" d="M80,108c3.27.04,2.21-4.1,6-3,.06,1.99-.06,4.01,0,6l-6,1c.1-1.32-.12-2.68,0-4Z"/>
      <path class="cls-68" d="M86,111c.03,1-.05,2.01,0,3h4.01c-.07.26-.01.69,0,1l-11-1.01c-.44-.97.99-1.81,1-1.99l6-1Z"/>
      <path class="cls-49" d="M87,99c-.46,3.23-1.72,2.51-5,3,.56-.67,3.74-4.34,3.84-4.63.69-2.11-.08-5.09.16-7.37,2.16.66,1.25,7.24,1,9Z"/>
      <path class="cls-78" d="M17,90c1.88.9,3.4,1.38,5,3-.27,1.02-.04,3.66,0,5-3,.73-3.03-1-4.5-2.98-2.17,1.47-1.4,3.73-1.5,5.98-.06,1.33,1.1,3.28,0,5-1.29.12-2.69,0-4,0-.87-4.51-.4-8.68-4-12v-7c2.86.96,5.8,1.47,9,3Z"/>
      <path class="cls-65" d="M26,84c.26,1.13.84,2.22,1,3,.29,1.44,1.6,3.04.99,5l-1.45-1.98c-1.33,1.16-3.96.81-4.54,2.99-1.6-1.62-3.12-2.1-5-3-2.2-3.16-.42-2.54,1-4,.99-1.02,2.55-2.8,4-3,1.36-.19,2.84.28,4,1Z"/>
      <path class="cls-25" d="M25,109l4.01-.5c.3,2.38-.59,5.74.13,7.89.54,1.62,2.48,1.1,2.87,2.12.59,1.52-2.19,2.43-2.54,2.4-.22-.02-3.11-2.96-3.19-3.16-.65-1.58.39-4.71-1.28-4.74.03-.66-.05-1.34,0-2s-.08-1.35,0-2Z"/>
      <path class="cls-53" d="M16,101c.1-2.25-.66-4.51,1.5-5.98,1.47,1.98,1.5,3.71,4.5,2.98.07,2.71,1.64,3.47,0,6,.85-3.18-3.58-1.79-6-3Z"/>
      <path class="cls-45" d="M16,101c2.42,1.21,6.85-.18,6,3-1.91,2.95-3.14,1.74-6,2,1.1-1.72-.06-3.67,0-5Z"/>
      <path class="cls-46" d="M29,56c3.28,2.58,3.78,5.82,9,5,2.51,1.73,1.47,2.55,6,3,6.64.67,13.57-.12,20-1,1.58-.22,3.38.15,5,0-1.48.81-4.44,1.82-6,2-7.3.83-15.97-1.45-23,1-.66-.34-1.32-.7-2-1-.56-.35-4.7.47-6-1-.64-.86-2.26-1.72-3-3-.17-.29-.98-1.89-1-2-.04-.31-.01-.68,0-1,0-.11.9-1.05,1-2Z"/>
      <path class="cls-10" d="M12,79c-.32,5.03-.92,8.69,6,7-1.42,1.46-3.2.84-1,4-3.2-1.53-6.14-2.04-9-3-5.45-1.83-1.14-4.05-3-9,.15-.23,1.07-.27,1-1,.33.07.9-.12,1,0,1.19,1.47.3,4.86,5,2Z"/>
      <path class="cls-43" d="M22,71c1.25,3.41,4.38,2.28,6,4-1.28-.64-4.73,1.07-5,1-.15-.04-.42-1.62-2.47-1.99-1.16-.2-8.23-.31-8.53-.02-.25.24.17,3.02,0,4-3.1-2.7.05-8.26-5-7,.22-.66,2.21-1.43,3-2,3.66,2.62,7.73,2.05,12,2Z"/>
      <path class="cls-13" d="M17,61l-1.01,5.99c1.23.66,5.5.75,5.92,1.12.51.44-.15,2.26.08,2.89-4.27.05-8.34.62-12-2,.36-.26.62-.74,1-1,1.03-.72,3.18-.64,3.76-1.23.97-1,.74-4.39,1.24-5.77h1Z"/>
      <path class="cls-32" d="M28,58c-.01.32-.04.69,0,1-3.25.55-10.67-1.64-12,2-.5,1.38-.27,4.77-1.24,5.77-.57.59-2.72.51-3.76,1.23.14-10.53,8.5-10.75,17-10Z"/>
      <path class="cls-61" d="M7,71c5.05-1.26,1.9,4.3,5,7-.05.32.02.67,0,1-4.7,2.86-3.81-.53-5-2,.31-1.67-.45-4.65,0-6Z"/>
      <path class="cls-52" d="M55,115c.31-.11.72.11,1,0,1.36,2.63,2.07,5.7-1,7-1.83-1.89-2.24-3.28-2-6,.11-.02,1.12-.7,2-1Z"/>
      <path class="cls-29" d="M86,64c.34.22,1.86,3.95,5,6,.61.4,1.36.63,2,1,0,.32-.06.7,0,1-1.9.41-1.52,1.88-2,3-2.01-.7-1.85,1.8-2.69,1.98-1.59.35-8.16.34-9.84.04-3.04-.54-1.42-3.35-3.96-3.01-2.22,1.38-.99,3.93-1.8,5.74-.54,1.21-1.67.47-2.72,5.25-2.54,1.32-5.71,2.17-7,5-3.65.14-7.35-.1-11,0-1.41-3.2,1.59-6.19,1.83-7.7.22-1.4-2.24-2.47-1.73-4.59,1.12-4.71,8.19-4.06,10.88-5.23,2.13-.92,5.24-6.14,7.02-7.48.38-.29.93-.98,1-1,1.19-.3,14.37-.4,15,0Z"/>
      <path class="cls-77" d="M95,83c0,.95.14,2.13,0,3-6.05,3.67-2.19-6.08-6-7,1.25-1.15,1.42-2.65,2-4,.48-1.12.1-2.59,2-3,.92,4.25,1.95,6.05,2,11Z"/>
      <path class="cls-59" d="M98,91c-1.53-.96-3.24-1.11-5-1v-1c1.75-.95,1.73-1.28,2-3,.14-.87,0-2.05,0-3,4.35.03,2.84,4.93,3,8Z"/>
      <path class="cls-64" d="M69,63c2.46-1.34,3.14-2.9,4.58-5.04,2.7-.77,2.51,1.43,3.42,2.04,3.14,2.08,5.83.12,8.98,1.52,2.23.99,5.43,5.76,5.02,8.48-3.14-2.05-4.66-5.78-5-6-3.91-1.69-11.3-1.67-15,0-.07.02-.62.71-1,1-4.94-1.47-4.62,1.6-5.99,2.47-1.19.76-21.03.99-23.52.54-3.1-.56-2.31-2.89-2.5-3,.68.3,1.34.66,2,1,3.56,1.82,14.78,1.16,19.55,1,1.92-.06,4.01,1.02,3.45-2,1.56-.18,4.52-1.19,6-2Z"/>
      <path class="cls-28" d="M73,57c1.27-.23,3.56-.06,5,0-.43.98-.9,1.91-1,3-.91-.6-.71-2.81-3.42-2.04-1.44,2.14-2.12,3.7-4.58,5.04-1.62.15-3.42-.22-5,0v-2c4.43,1.1,5.19-3.31,9-4Z"/>
      <path class="cls-73" d="M44,115l-5.99-4.02c-.82-2.48,3.68-4.34,3.98-2.22.12.82-.46,2.02.56,2.31,3.63,1.03,12.13-.88,16.46-.07-2.43,1.02-2.36.84-5,1-3.31.2-6.69-.15-10.01,0-.05.66.04,1.34,0,2-.02.33.01.67,0,1Z"/>
      <path class="cls-19" d="M59,111c.5-.21,2.65-2.47,2.99-2,1,1.37-2.35,5.24-3.65,5.83-.86.39-1.93,0-2.34.17-.28.11-.69-.11-1,0l-1-3c2.64-.16,2.57.02,5-1Z"/>
      <path class="cls-17" d="M42,142c-1.02.63-1.98,1.37-3,2v-1c.86-2.45-.86-5.25-1-7-.18-2.32-.63-6.48,1-8-2.11,2.85,3.23,9.53,3,14Z"/>
      <path class="cls-14" d="M38,136c.14,1.75,1.86,4.55,1,7-4.98,2.15-7.08-3.78-9.46-3.04-.93.29-.35,2.82-3.54,3.04-2.78-9.13,5.89-6.91,12-7Z"/>
      <path class="cls-42" d="M67,52c-.23.67.36,2.57-.04,2.93-.63.55-5.46-.22-6.95.07-.78-2.04,2.98-3.78,2.98-4.49,0-1-4.95-3.3-4.96-4-.01-.98,2.68-1.24,2.98-1.5,6.47-3.28,6.4,1.69,6,7Z"/>
      <path class="cls-54" d="M36,43c2.6.43,7.17-1.05,5.86,4.29-.69,2.83-5.29,2,.12,6.21-6.45,4.5-7.7-.42-6.98-6.5.12-.97,1.39-2.55,1-4Z"/>
      <path class="cls-64" d="M64,61v2c-6.43.88-13.36,1.67-20,1,7.34-2.43,11.73.69,19-3h1Z"/>
      <path class="cls-6" d="M29,61c.74,1.28,2.36,2.14,3,3,1.86,2.49,3.74,6.66,7.08,8.42,5.09,2.7,10.88-1.18,8.94,6.87-.28,1.16-2.96,1.41-3,2.2,2.57,1.37,5.27,6.22,2.86,8.39-.53.48-10.42.33-11.88-.43-.22-.11-3.34-3.25-3.45-3.47-.78-1.54-.29-3.12-.75-4.33-.55-1.43-2.26-1.36-2.56-1.88-.78-1.33.46-2.96-1.24-4.78s-4.75-.59-6-4c-.23-.63.42-2.45-.08-2.89-.42-.37-4.69-.46-5.92-1.12l1.01-5.99h12Z"/>
      <path class="cls-57" d="M70,85c1.05-4.78,2.17-4.04,2.72-5.25.81-1.81-.42-4.36,1.8-5.74,2.54-.34.91,2.47,3.96,3.01,1.68.3,8.25.31,9.84-.04.84-.18.68-2.68,2.69-1.98-.58,1.35-.75,2.85-2,4-2.44-.59-9.9-.36-12,1-.15.09-.36,2.3-1,3-.12.13-1.36-.19-1.72.24-1.94,2.33-1.47,12.24-1.28,15.76-1.86-4.63-4.27-5.29-9-6.01l5-2.99c1.11-.5.78-3.99,1-5Z"/>
      <path class="cls-75" d="M23,76v1c-1.56,1.6-1.02,3.95-1,6-1.45.2-3.01,1.98-4,3-6.92,1.69-6.32-1.97-6-7,.02-.33-.05-.68,0-1,.17-.99-.25-3.77,0-4,.31-.3,7.38-.19,8.53.02,2.05.36,2.32,1.95,2.47,1.99Z"/>
      <path class="cls-3" d="M63,98.99c-1.99-2.06-4.19,2.97-4.5,2.99-1.35.09-1.37-3.84-1.52-3.99-.27-.24-5.11,2.31-5.98-1.98,5.38,1.26,6.03-3.9,11.27-2.83,6.55,1.34,5.57,11.32,3.22,11.81-3.34.7-2.24-5.75-2.49-6Z"/>
      <path class="cls-3" d="M68.5,111.02c1.74,0,4.29,12.17-3.93,9.91-3.84-1.05,1.46-3.19,1.92-3.95.73-1.22.38-5.96,2.01-5.97Z"/>
      <path class="cls-50" d="M35,108.99c-.73,1.94,1.74,8.79-1.48,9-2.63-2.22-1.25-6.04-1.51-9h2.99Z"/>
      <path class="cls-51" d="M38.99,102h-3.99c-1.11-9.33,5.09-9.37,3.99,0Z"/>
      <path class="cls-56" d="M26,84c-1.16-.72-2.64-1.19-4-1-.02-2.05-.56-4.4,1-6,4.51-.09,2.44,4.58,3,7Z"/>
      <path class="cls-21" d="M48,95c.32,2.67-.11,1.57-1.49,2.02-4.01,1.31-4.89.7-7.49-2.52l8.98.5Z"/>
      <path class="cls-60" d="M69,90c-.72.33-4.56-.06-6,0,1.29-2.83,4.46-3.68,7-5-.22,1.01.11,4.5-1,5Z"/>
      <rect class="cls-62" x="30.4" y="123.25" width="3.49" height="6.16" transform="translate(-97.62 138.72) rotate(-81.18)"/>
      <path class="cls-41" d="M48.01,102c1.22,4.23-3.26,4-6,1.48l6-1.48Z"/>
      <path class="cls-12" d="M57,102.01c.9,3.86-5.97,3.63-5.97,1.49,0-1.52,4.53-1.78,5.97-1.49Z"/>
      <path class="cls-22" d="M77,80c.5-.31,11.37-.19,11.87.13,1.28.82.27,8.21,4.13,8.87v1c-5.03.31-1.44,7.68-4,9-.89-2.36,1.22-9.88.52-11.01-1.46-2.34-2.93.42-4.27.75-5.02,1.22-3.91-.15-6.24-1.74-1.79-1.22-3.82-.3-3-4,.64-.7.85-2.91,1-3Z"/>
      <path class="cls-80" d="M63,65c.56,3.02-1.53,1.94-3.45,2-4.77.16-15.99.82-19.55-1,7.03-2.45,15.7-.17,23-1Z"/>
      <path class="cls-37" d="M28,59c.02.11.83,1.71,1,2h-13c1.33-3.64,8.75-1.45,12-2Z"/>
      <path class="cls-2" d="M86,64c-.63-.4-13.81-.3-15,0,3.7-1.67,11.09-1.69,15,0Z"/>
      <path class="cls-58" d="M89,79c3.81.92-.05,10.67,6,7-.27,1.72-.25,2.05-2,3-3.87-.66-2.86-8.05-4.13-8.87-.5-.32-11.36-.45-11.87-.13,2.1-1.36,9.56-1.59,12-1Z"/>
    </g>
  </g>
</svg>