<?xml version="1.0" encoding="UTF-8"?>
<svg id="_Слой_2" data-name="Слой 2" xmlns="http://www.w3.org/2000/svg" viewBox="0 0 91 147">
  <defs>
    <style>
      .cls-1 {
        fill: #533026;
      }

      .cls-2 {
        fill: #d4977a;
      }

      .cls-3 {
        fill: #bdb1ad;
      }

      .cls-4 {
        fill: #5a3529;
      }

      .cls-5 {
        fill: #3c251e;
      }

      .cls-6 {
        fill: #f0c3a6;
      }

      .cls-7 {
        fill: #97837d;
      }

      .cls-8 {
        fill: #ca886c;
      }

      .cls-9 {
        fill: #d69a7e;
      }

      .cls-10 {
        fill: #5d3629;
      }

      .cls-11 {
        fill: #5a372c;
      }

      .cls-12 {
        fill: #5d3428;
      }

      .cls-13 {
        fill: #907a74;
      }

      .cls-14 {
        fill: #4f3730;
      }

      .cls-15 {
        fill: #d39478;
      }

      .cls-16 {
        fill: #facfb2;
      }

      .cls-17 {
        fill: #89726b;
      }

      .cls-18 {
        fill: #fadfc8;
      }

      .cls-19 {
        fill: #f6c9ab;
      }

      .cls-20 {
        fill: #c79178;
      }

      .cls-21 {
        fill: #f9d1b3;
      }

      .cls-22 {
        fill: #401a0f;
      }

      .cls-23 {
        fill: #40180d;
      }

      .cls-24 {
        fill: #fbe1ca;
      }

      .cls-25 {
        fill: #f9cdae;
      }

      .cls-26 {
        fill: #865245;
      }

      .cls-27 {
        fill: #3f180d;
      }

      .cls-28 {
        fill: #d89a7c;
      }

      .cls-29 {
        fill: #492419;
      }

      .cls-30 {
        fill: #fdd4b6;
      }

      .cls-31 {
        fill: #fcd2b5;
      }

      .cls-32 {
        fill: #cf8e71;
      }

      .cls-33 {
        fill: #fde4ce;
      }

      .cls-34 {
        fill: #451e13;
      }

      .cls-35 {
        fill: #441e13;
      }

      .cls-36 {
        fill: #532e22;
      }

      .cls-37 {
        fill: #492217;
      }

      .cls-38 {
        fill: #34261f;
      }

      .cls-39 {
        fill: #894b34;
      }

      .cls-40 {
        fill: #ac846f;
      }

      .cls-41 {
        fill: #4e2a1f;
      }

      .cls-42 {
        fill: #7c4a3f;
      }

      .cls-43 {
        fill: #da9f82;
      }

      .cls-44 {
        fill: #fbe1cb;
      }

      .cls-45 {
        fill: #dd9c79;
      }

      .cls-46 {
        fill: #451d11;
      }

      .cls-47 {
        fill: #8c4b33;
      }

      .cls-48 {
        fill: #4f271b;
      }

      .cls-49 {
        fill: #96817b;
      }

      .cls-50 {
        fill: #423129;
      }

      .cls-51 {
        fill: #d39074;
      }

      .cls-52 {
        fill: #d8997c;
      }

      .cls-53 {
        fill: #2f231c;
      }

      .cls-54 {
        fill: #8b4d35;
      }

      .cls-55 {
        fill: #8a4a33;
      }

      .cls-56 {
        fill: #e6a481;
      }

      .cls-57 {
        fill: #8e4e37;
      }

      .cls-58 {
        fill: #532e23;
      }

      .cls-59 {
        fill: #8a4b34;
      }

      .cls-60 {
        fill: #4a2318;
      }

      .cls-61 {
        fill: #3f190e;
      }

      .cls-62 {
        fill: #492115;
      }

      .cls-63 {
        fill: #f2c5a8;
      }

      .cls-64 {
        fill: #331b15;
      }

      .cls-65 {
        fill: #471e11;
      }

      .cls-66 {
        fill: #d89a7d;
      }

      .cls-67 {
        fill: #fae0c9;
      }

      .cls-68 {
        fill: #9c9692;
      }

      .cls-69 {
        fill: #f0c6a9;
      }

      .cls-70 {
        fill: #4d271b;
      }

      .cls-71 {
        fill: #d28f72;
      }

      .cls-72 {
        fill: #52392f;
      }

      .cls-73 {
        fill: #824f43;
      }

      .cls-74 {
        fill: #cf8f73;
      }
    </style>
  </defs>
  <g id="_Слой_27_Изображение" data-name="Слой 27 Изображение">
    <g>
      <path class="cls-52" d="M27,14c-1.63,7.9-6.87,20.03.5,25.98,3.57-8.56,13.53-1.91,16.56,3.46,1.84,3.26.15,7.39,2.94,10.55l-4.98,1.51c3.21,2.36,5.67,5.26,7.98,8.5-3.23-.18-4.01.6-7.06-1.44s-7.43-6.7-4.94-10.56c.84-1.29,4.71-2.15,3.89-5.3-.39-1.51-8.34-9.26-9.89-7.7v10c-2.38-.83-3.8,1-4.01,1-.33,0-.67,0-1,0s-1.47-.73-2-1c-.22-2.89-1.73-4.27-2.07-7.43-.5-4.69-.53-16.49.03-21.12.28-2.3,1-2.77,2.04-4.45.74-1.19,1.38-1.33,2-2Z"/>
      <path class="cls-5" d="M79,18c-.96,8.2,1.3,19.2,0,27-3-2.29-1.85-6.63-2-10s.28-6.82-.26-10.24c-.2-1.27-3.6-11.04-3.99-11.51-.61-.75-2.75-.86-3.75-1.75-2.92-2.59-5.21-5.58-10-6.49-5.98-2.07-13.72-.93-19.99-.48-1.8.13-3.45,1.82-3.01-1.52,15.63-4.06,36.01-2.13,43,15Z"/>
      <path class="cls-8" d="M85,92c2.25,4.58.45,10.86,1,16-2.92-.52-6.94.42-10,0-.35-.05-.73.08-1,0,.52-.92.91-1.93,1-3,.67-7.83-2.56-5.58-3.06-8.49-1.2-6.93,7.58-3.97,12.06-4.51Z"/>
      <path class="cls-35" d="M48,118c.36.04.82-.1,1,0,.42.24,2.34,3.2,3,4,5.55,6.75,6.61,12.21,4,21-.29-.36-1.46-.4-1.81-1.65-.85-3.01.59-12.78-4.68-13.38s-2.6,2.75-.51,5.03h-6c-.06-.54-.96-1.49-.99-2.58-.13-4.55,5.63-5.43,5.97-6.99.06-.28-1.55-3.94-1.98-5.43.66.05,1.35-.07,2,0Z"/>
      <path class="cls-70" d="M25,16c-1.04,1.67-1.77,2.15-2.04,4.45-.56,4.63-.53,16.43-.03,21.12.34,3.16,1.85,4.54,2.07,7.43-1.65-.83-5.64-3.41-6.02-5.47-.73-3.97-.34-23.44,1.03-26.8.25-.61,1.62-1.13,1.99-1.73l3,1Z"/>
      <path class="cls-55" d="M73,83c.11.59,3.8,6.67,4.13,6.9.43.3,1.62-.94,1.87-.9,2.01.36,4.1,1.24,6,2v1c-4.48.54-13.26-2.42-12.06,4.51.5,2.91,3.73.66,3.06,8.49-1.17.28-5.31-3.73-5.48-4.02-1.82-3.23,2.04-13.84-3.52-9.98.08-1.05-.27-2.19.02-3.23s1.46-1.2,1.98-1.77c1.2-1.33,1.91-3.09,4-3Z"/>
      <path class="cls-46" d="M67,91c5.56-3.86,1.69,6.75,3.52,9.98.17.3,4.31,4.3,5.48,4.02-.09,1.07-.48,2.08-1,3-1.55-.47-2.39-2.75-4.51-3.02-1.18-.15-3.48.49-3.47,1.51,0,.41,4.47,4.78,2.98,7.5-.59-.13-1.36.08-2,0-.31-.33-.66-.71-1-1s-.66-.68-1-1c-.77-4.68-3.13-4.89-1-10,1.66-3.98,1.61-2.59,2-8,.07-.99-.07-2.01,0-3Z"/>
      <path class="cls-29" d="M36,3c-.44,3.34,1.21,1.65,3.01,1.52,6.27-.45,14.01-1.59,19.99.48-11.12-2.12-24.26.62-32,9-.62.67-1.26.81-2,2l-3-1c.2-.34-.28-1.83.53-2.92,2.93-3.93,8.79-7.86,13.47-9.08Z"/>
      <path class="cls-39" d="M53,122c1.45,2.89,4.56,2.89,6,4l1,7c-.57.15-1.85-.21-2,0-.49.66.34,7.29,0,9.01h22.01s0-6.01,0-6.01v-1c.32.38,1.34.3,1.78,1.68.19.58,1.48,6.11,1.23,6.31-.2.16-1.84-.27-2.69.3-.71.48-1,1.51-1.32,1.71h0v-2.01h-21.01v2.01h0c-1.14-.55-1.33-1.17-2-2,2.61-8.79,1.55-14.25-4-21h1Z"/>
      <path class="cls-62" d="M70,114c6.02,1.28,1.37,9.86,3.52,14.98.71,1.7,4.79,4.04,6.48,6.02v1c-4,1.32-9.32-3.33-10-7s.79-9.54-.02-13.27c-.21-.98-1.46-1.16-1.98-1.73.64.08,1.41-.13,2,0Z"/>
      <path class="cls-34" d="M5,78c2.91-.47,1.83.73,2,3,.1,1.39.21,3.73,0,5-2.71-.02-2.8,1.19-3.05,3.45-.68,6.15,1.45,13.71-.95,19.55-.3-.32-.86-.7-1-1v-24c1.74-2.68,1.6-3.05,3-6Z"/>
      <path class="cls-48" d="M75,59c-.8,5.41-2.17,4.04,1,9,.73,4.93-1.47,14.11,1,18,.36.56,2.45,1.03,2,3-.25-.05-1.44,1.19-1.87.9-.33-.23-4.02-6.3-4.13-6.9-.46-2.44.13-6.24,0-9-.06-1.33,0-2.67,0-4,0-1.07-1-2.48-1-3,0-1.2,2.07-5.51,1-8,.56.14,1.36-.09,2,0Z"/>
      <path class="cls-41" d="M49,133c.14.15,1.6-.55,2.33,1.2.64,1.53,1.14,6.41.67,7.8-2.72-.46-18.28.62-19,0-.22-.19.18-2.22,0-3h1c1.73.77,13.11.21,14.05-.44,1.69-1.17.97-4.06-.05-5.56h1Z"/>
      <path class="cls-37" d="M19,104c.02.19.8.78.92,1.6.45,2.88-1.2,6.16,2.08,5.4-.94,3.9-10.15,4.91-13.34,3.84-1.94-.66-1.9-3.13-2.66-3.84h1c3.01-.43,7.9,1.12,10-1,1.65-1.68.75-4.16,2-6Z"/>
      <path class="cls-20" d="M7,86c-.96,5.78-1.12,5.3-1,12,0,.12-1.33.87-.9,2.24.94,2.97,5.28,4.8,1.9,10.76h-1c-.36-.34-1.44-.36-3-2,2.4-5.84.27-13.4.95-19.55.25-2.26.34-3.47,3.05-3.45Z"/>
      <path class="cls-56" d="M21,80c-1.87,2.78-2.33,5.68-2.01,9h7.01c-.37.64-.65,1.34-1,2-.28-.1-.68.09-1,0-1.5-.39-1.76-.78-4-1-1.65-.17-4.92-1.09-5.53-.05l-.47,8.05c-.97-.82-.69-1.42-1-2,.41-2.07-.59-6.45,0-8,.31-.82,5.05-3.42,3-8,1.46-.22,3.41.02,5,0Z"/>
      <path class="cls-58" d="M29,57c.02.33,0,.67,0,1,0,.67,0,1.33,0,2-.72.09-2.66.57-3,1-4.79-1.16-5.98,1.22-9,3-1.68.99-2.78,2.92-5,3h-1c1.04-1.74.89-4.25,3.04-5.46,1-.57,2.6-.54,3.86-1.13.98-.46,1.61-1.82,2.81-2.19,2.36-.73,5.75.07,8.29-1.21Z"/>
      <path class="cls-32" d="M20,90v4c0,.33-.03.67,0,1s-.06.69,0,1c-.47.14-.91.53-1,1-.11.57.03,1.35,0,2-.96-.12-2.12.17-3,0-.34-.07-1.72-.76-2-1l.47-8.05c.61-1.04,3.88-.11,5.53.05Z"/>
      <path class="cls-4" d="M12,67c.8,1.36,1.19,2.94,1.11,4.52-.01.2-1.86,3.13-2.11,3.48-2.36,3.3-2.7.47-3,6h-1c-.17-2.27.91-3.47-2-3,1.85-3.9,3.79-7.31,6-11h1Z"/>
      <path class="cls-38" d="M28,125c0,.11,1.39.97,1,2-1.61,3.03-3.77,5.24-3,9-.45.05-.89.53-1,1-5.29-4.19-2.47-9.62,3-12Z"/>
      <path class="cls-10" d="M79,45c-.06.35.1.75,0,1-.16.39-2.23,1.23-2.79,3.71s.17,5.14-.21,7.29c-3.93.77-1.27-7.62-2-11,1.15-1.18,2.88-.91,3.01-1.03.37-.35-3.04-8.04,0-9.97.15,3.37-1,7.71,2,10Z"/>
      <path class="cls-65" d="M32,97c4.94.84,2.5,4.74,2.96,8.59.15,1.25,1.03,2.28,1.04,2.41.26,3.6,1.01,6.31-3,7,0-.33,0-.67,0-1,0-4.08.87-11.99-1-15-.21-.34-.75-.61-1-1,.46-.11.95-.55,1-1Z"/>
      <path class="cls-1" d="M33,114c0,.33,0,.67,0,1v6c-.89.87-3.31,4.71-4,6,.39-1.03-.99-1.89-1-2-.03-.47.84-8.79.96-9.33.24-1.07,2.24-1.07,3.04-1.67h1Z"/>
      <path class="cls-60" d="M29,58c0-.33.02-.67,0-1-.19-3.07-.83-4.31-2-7,.33,0,.67,0,1,0,5.27,2.27,11.65,8.67,1,8Z"/>
      <path class="cls-27" d="M32,97c-.05.45-.54.89-1,1-.16-.24-1.36-.28-1.81-1.68-.41-1.28.16-3.61-.33-4.2-.13-.16-2.91-.79-3.87-1.12.35-.66.63-1.36,1-2,.21-.37.77-.64,1-1,4.84.91,5.47,4.73,5,9Z"/>
      <path class="cls-14" d="M79,46c.1-.25-.06-.65,0-1,1.3-7.8-.96-18.8,0-27,1.07,2.62,1.91,12.85,1.9,16.39,0,2.77-1,8.81-1.9,11.61Z"/>
      <path class="cls-64" d="M22,111c-3.27.76-1.63-2.52-2.08-5.4-.13-.82-.9-1.41-.92-1.6-.16-1.48-.07-3.45,0-5,.03-.65-.11-1.43,0-2h1c.13.68,1.7,1.87,1.95,3.53.29,1.94.45,8.81.05,10.47Z"/>
      <path class="cls-22" d="M86,108c.2.04.61.81,1,1-.14.15.51,1.74-.64,2.03-2.44.62-11.09.82-10.36-3.03,3.06.42,7.08-.52,10,0Z"/>
      <path class="cls-61" d="M89,93c-.51,5.26,1.18,11.17-1,16-1.32-4.05-1.18-8.35-1-12.55.08-1.92-1.04-4.01,2-3.45Z"/>
      <path class="cls-50" d="M33,139c.18.78-.22,2.81,0,3-2.12-1.04-6.12-3.51-8-5,.11-.47.55-.95,1-1,3.68-.4,6.09-.88,7,3Z"/>
      <path class="cls-13" d="M2,108c-.69-1.48-.88-1.29-1.06-3.4-.33-3.8-.49-18.22,1.06-20.6v24Z"/>
      <path class="cls-11" d="M89,93c-3.04-.56-1.91,1.53-2,3.45-.18,4.2-.32,8.5,1,12.55-.07.15-.85-.15-1,0-.39-.19-.8-.96-1-1-.55-5.14,1.25-11.42-1-16v-1c1.33.53,3.23.24,4,2Z"/>
      <path class="cls-40" d="M74,46c.73,3.38-1.93,11.77,2,11-.18,1.04-.98,1.84-1,2-.64-.09-1.44.14-2,0-.77-.19-1.41-1.57-3,0,.13-.13-.39-1.38.2-1.82.69-.52,2.65.34,2.87-.74.64-3.05-1.4-8.06.93-10.44Z"/>
      <path class="cls-68" d="M79,145c-2.79,1.77-17.79,1.56-21,0h21Z"/>
      <path class="cls-3" d="M52,142c-.5,1.47-1.34.91-2.44,1.04-3.61.45-13.57.42-16.56-1.04.72.62,16.28-.46,19,0Z"/>
      <path class="cls-49" d="M77,86c-2.47-3.89-.27-13.07-1-18,2.47,3.87.27,13.09,1,18Z"/>
      <path class="cls-7" d="M33,114h-1v-15c1.87,3.01,1,10.92,1,15Z"/>
      <path class="cls-23" d="M24,91c.17,1.13-.97.94-1,1l-1,2c-.62.68-.98,1.07-2,1-.03-.33,0-.67,0-1,1.44-2.32.48-3.64,4-3Z"/>
      <path class="cls-36" d="M22,94l1-2c-.32.61-.04.96-1,2Z"/>
      <path class="cls-17" d="M20,97h-1c.09-.47.53-.86,1-1,.07.32-.06.68,0,1Z"/>
      <path class="cls-30" d="M59,5c4.79.91,7.08,3.91,10,6.49,1.01.89,3.14,1,3.75,1.75.38.47,3.79,10.25,3.99,11.51.54,3.42.11,6.83.26,10.24-3.03,1.93.38,9.62,0,9.97-.12.12-1.85-.15-3.01,1.03-2.33,2.38-.3,7.39-.93,10.44-.22,1.08-2.18.21-2.87.74-.59.45-.07,1.69-.2,1.82-1.02,1.06-1.61,1.47-3,2-5.87,2.23-10.67,3.35-17,3-2.31-3.24-4.77-6.14-7.98-8.5l4.98-1.51c-2.79-3.16-1.11-7.29-2.94-10.55-3.03-5.37-12.99-12.02-16.56-3.46-7.37-5.96-2.13-18.09-.5-25.98,7.74-8.38,20.88-11.12,32-9ZM56.74,45.2c.92,1.58-1.34,13.08,6.35,8.34.94-.58,1.06-7.5.45-8.55-1.24-2.13-6.27-2.15-8.53-1.98-.93,2.59,1.46,1.73,1.73,2.19Z"/>
      <path class="cls-47" d="M32,49c.52.18,3.17,4.14,6,3-2.49,3.86,1.84,8.49,4.94,10.56s3.83,1.26,7.06,1.44c6.33.35,11.13-.77,17-3,.69,2.18,2.65,6.32,5,6,0,.52.99,1.93,1,3-1.5.22-3.22-1.88-4-2-8.1-2.94-19.46.49-27.53-.98-3.27-.6-5-7.9-12.47-7.02,0-.67,0-1.33,0-2,10.65.67,4.27-5.73-1-8,.21,0,1.62-1.83,4-1Z"/>
      <path class="cls-63" d="M38,52c-2.83,1.14-5.48-2.82-6-3v-10c1.55-1.56,9.5,6.19,9.89,7.7.82,3.15-3.06,4-3.89,5.3Z"/>
      <path class="cls-28" d="M33,83c1.77.36,6.44,2.91,8.25,3.98,1,.59,1.1,2.43,2.38,2.85,3.08,1.01,7.64-1.2,10.37,1.16-.07.08-.01.68,0,1-.9-.65-4.68-.48-5,.01-2.19,3.43,1.85,2.69,3.32,3.14,2.18.68,1.17,5.29,3.68.84,3.34,3.07,8.12.34,7,5-2.66.71-2.37,5.1-6,4.01l1,2.99c-1.99-.05-4,.03-6,0-1.39,1.3,4.85,8.83,6.01,9.44,1.36.71,5.92.51,5.96,2.06.06,2.39-10.09,2.24-10.98-1.5-.78-5.68-3.64-5.48-4,0-.18-.1-.64.04-1,0-.2-7.87-7.99-5.3-11-10l-1.43-19.52-3.57-5.48c.32.01.69-.06,1,0ZM44.99,105c3.81-3.52-2.92-13.9-4.48-13.98s-1.88,4.86-1.34,6.36c.44,1.23,2.17,1.29,2.55,1.9.45.72.88,7.95,3.28,5.72Z"/>
      <path class="cls-59" d="M37,108c3.01,4.7,10.8,2.13,11,10-.65-.07-1.34.05-2,0-.32-1.1.72-2.46-1-3-4.87-1.53-6.59,2.69-9.5,5.04-.86.69-2.32.79-2.5.96v-6c4.01-.69,3.26-3.4,3-7h1Z"/>
      <path class="cls-42" d="M48,133c1.02,1.49,1.74,4.39.05,5.56-.94.65-12.32,1.21-14.05.44,2.67-4.69,4.97-2.09,8-3,1.41-.43,1.15-1.5,1-3h5Z"/>
      <path class="cls-26" d="M46,118c.43,1.49,2.04,5.15,1.98,5.43-.34,1.56-6.1,2.44-5.97,6.99.03,1.09.93,2.04.99,2.58.15,1.5.41,2.57-1,3-.31-3-3.81-3.96-3.05-7.32.12-.53,5.86-4.67,6.06-5.4.58-2.2-.39-5.81,0-8.28,1.72.54.68,1.9,1,3Z"/>
      <path class="cls-6" d="M49,118c.36-5.48,3.22-5.68,4,0,.07.53-.72,2.89,0,4h-1c-.66-.8-2.58-3.76-3-4Z"/>
      <path class="cls-51" d="M69,86c-.52.57-1.68.69-1.98,1.77s.06,2.18-.02,3.23c-.07.99.07,2.01,0,3-4.3.8-2.93,3.32-3,7-.27-.03-.75-.07-1,0,1.12-4.66-3.66-1.93-7-5-.83-1.29-1.93-2.32-2-4-.01-.32-.07-.92,0-1,.08-.09,1.25.16,1.64-.32,1.26-1.54,2.09-2.34,3.36-3.68,1.45.39,3.02-.88,4-1,1.9-.23,4.05.16,6,0Z"/>
      <path class="cls-44" d="M73,74c.13,2.76-.46,6.56,0,9-2.09-.09-2.8,1.67-4,3-1.95.16-4.1-.23-6,0l3.99-3.02c.72-2.6-2.65-2.32-3.01-3.68-2.42-9.13,2.54-12.24,9.02-5.3Z"/>
      <path class="cls-73" d="M64,101c.07,0,.38,1.02,1,1-2.13,5.11.23,5.32,1,10-.14-.13-1.27.36-1.77-.2-1.55-1.73,1.32-3.05-4.23-3.8-.63-.09-1.35.02-2,0l-1-2.99c3.63,1.09,3.34-3.29,6-4.01.25-.07.73-.03,1,0Z"/>
      <path class="cls-74" d="M68,114c.53.57,1.77.75,1.98,1.73.8,3.73-.69,9.45.02,13.27-5.72-3.56-1.37-10.22-4-16h1c.34.29.69.67,1,1Z"/>
      <path class="cls-57" d="M65,102c-.62.02-.93-.99-1-1,.07-3.68-1.3-6.2,3-7-.39,5.41-.34,4.02-2,8Z"/>
      <path class="cls-15" d="M60,108c5.55.75,2.68,2.07,4.23,3.8.5.56,1.63.07,1.77.2.34.32.66.71,1,1h-1c-2.48,1.85-5.73-2.8-6-5Z"/>
      <path class="cls-21" d="M58,108c.65.02,1.37-.09,2,0,.27,2.2,3.52,6.85,6,5,2.63,5.78-1.72,12.44,4,16,.68,3.67,6,8.32,10,7v6.01s-22.01,0-22.01,0c.35-1.72-.49-8.35,0-9.01.15-.2,1.43.16,2,0,.86-.23,3.81.14,3.97-1.5.08-.78-4.08-4.82-4.97-5.5-1.44-1.11-4.55-1.11-6-4-.72-1.11.07-3.47,0-4,.89,3.74,11.04,3.89,10.98,1.5-.04-1.55-4.6-1.35-5.96-2.06-1.17-.61-7.4-8.14-6.01-9.44,1.99.02,4-.05,6,0Z"/>
      <rect class="cls-53" x="57.99" y="142.99" width="21.01" height="2.01"/>
      <path class="cls-45" d="M59,126c.89.69,5.05,4.73,4.97,5.5-.16,1.64-3.11,1.27-3.97,1.5l-1-7Z"/>
      <path class="cls-2" d="M8,81c-.37,6.89.58,4.21,2.45,7.04.82,1.25.32,2.42.55,2.96-4.64.58-1.97,4.77-5,7-.12-6.7.04-6.22,1-12,.21-1.27.1-3.61,0-5h1Z"/>
      <path class="cls-66" d="M69,68c.78.12,2.5,2.22,4,2,0,1.33-.06,2.67,0,4-6.48-6.94-11.43-3.83-9.02,5.3.36,1.37,3.74,1.08,3.01,3.68l-3.99,3.02c-.98.12-2.55,1.39-4,1,.65-.69,2.74-.99,2-2.49-.57-1.15-3.16-1.73-3.98-3.01.02-.84,4.19-.44,3-6-.18-.85-4.19-5.18-4.65-5.33-1.45-.47-10.31-.49-11.7,0-1.19.41-5.14,6.28-7.66,6.84v-2c.17-.12,2.88-2.83,3-3,1.17-1.64.77-3.91,1.56-4.07,3.56-.68,24.56-.53,28.44.07Z"/>
      <path class="cls-70" d="M73,59c1.07,2.49-.99,6.8-1,8-2.35.32-4.31-3.82-5-6,1.39-.53,1.98-.94,3-2,1.59-1.57,2.23-.19,3,0Z"/>
      <path class="cls-71" d="M45,115c-.38,2.47.59,6.08,0,8.28-.19.73-5.94,4.87-6.06,5.4-.76,3.36,2.74,4.32,3.05,7.32-3.03.91-5.33-1.69-8,3h-1c-.91-3.88-3.32-3.4-7-3-.77-3.76,1.39-5.97,3-9,.69-1.29,3.11-5.13,4-6,.18-.17,1.64-.27,2.5-.96,2.91-2.35,4.63-6.56,9.5-5.04Z"/>
      <path class="cls-31" d="M13,96c.31.58.03,1.18,1,2,.28.24,1.66.93,2,1,.47,3.47-1.17,8.29,1,11-2.1,2.12-6.99.57-10,1,3.38-5.96-.96-7.78-1.9-10.76-.43-1.37.9-2.12.9-2.24,3.03-2.23.36-6.42,5-7,.72,1.68,1.14,3.39,2,5Z"/>
      <path class="cls-43" d="M19,99c-.07,1.55-.16,3.52,0,5-1.25,1.84-.35,4.32-2,6-2.17-2.71-.53-7.53-1-11,.88.17,2.04-.12,3,0Z"/>
      <path class="cls-66" d="M21,64c-.85.73-5.4,8.43-5,8.99,3.2,1.45,4.23.72,7,.01.55-.14,1.36.1,2,0-1,1.38-3.05,3.15-.37,3.87,3.85,1.03,8.17.33,11.37-1.87v2c1.1,3.56-3.09,2.96-3,6-.31-.06-.68.01-1,0-.55-.02-1.76-.13-2,0-.62-4.49-5.17-3.06-9-3-1.59.02-3.54-.22-5,0-1.64.24-2.75,1.01-4,2,.29-2.67,1.59-5.16.99-8l-1.99,1c.25-.35,2.1-3.28,2.11-3.48.08-1.58-.31-3.16-1.11-4.52,2.22-.08,3.32-2.01,5-3,1.33,0,2.67,0,4,0Z"/>
      <path class="cls-67" d="M21,80c3.83-.06,8.38-1.49,9,3-.8.42-2.39,4.04-3,5-.23.36-.79.63-1,1h-7.01c-.33-3.32.13-6.22,2.01-9Z"/>
      <path class="cls-69" d="M12,82c-.3,2.79-1.7,5.01,1,6-.59,1.55.41,5.93,0,8-.86-1.61-1.28-3.32-2-5-.23-.54.28-1.71-.55-2.96-1.87-2.83-2.82-.15-2.45-7.04.3-5.53.64-2.7,3-6l1.99-1c.6,2.84-.7,5.33-.99,8Z"/>
      <path class="cls-25" d="M16,80c2.05,4.58-2.69,7.18-3,8-2.7-.99-1.3-3.21-1-6,1.25-.99,2.36-1.76,4-2Z"/>
      <path class="cls-36" d="M24,91c-3.52-.64-2.56.68-4,3v-4c2.24.22,2.5.61,4,1Z"/>
      <path class="cls-9" d="M29,60c7.47-.89,9.2,6.42,12.47,7.02,8.07,1.48,19.43-1.95,27.53.98-3.88-.6-24.88-.75-28.44-.07-.79.15-.39,2.42-1.56,4.07.68-3.65-2.28-6.86-5.47-8-1.97,4-6.17,5.74-8.53,9-.64.1-1.45-.14-2,0-.24-2.6,6.94-5.89,6.98-7.5.05-2.06-7.28-1.51-8.98-1.5,2.13-1.84,4.32-.57,5.01-1.01.25-.16-.23-1.71,0-1.99.34-.43,2.28-.91,3-1Z"/>
      <path class="cls-12" d="M26,61c-.22.28.25,1.83,0,1.99-.68.44-2.87-.83-5.01,1.01-1.33,0-2.67,0-4,0,3.02-1.78,4.21-4.16,9-3Z"/>
      <path class="cls-54" d="M32,83l3.57,5.48,1.43,19.52h-1c0-.13-.89-1.17-1.04-2.41-.46-3.84,1.98-7.74-2.96-8.59.47-4.27-.16-8.09-5-9,.61-.96,2.2-4.58,3-5,.24-.13,1.45-.02,2,0Z"/>
      <path class="cls-72" d="M56.74,45.2c-.27-.47-2.66.4-1.73-2.19,2.26-.17,7.29-.14,8.53,1.98.62,1.06.49,7.97-.45,8.55-7.69,4.74-5.43-6.76-6.35-8.34Z"/>
      <path class="cls-33" d="M36,77c2.52-.56,6.47-6.43,7.66-6.84,1.39-.48,10.26-.46,11.7,0,.46.15,4.47,4.47,4.65,5.33,1.19,5.57-2.97,5.17-3,6,.82,1.28,3.4,1.86,3.98,3.01.75,1.5-1.34,1.8-2,2.49-1.27,1.34-2.1,2.14-3.36,3.68-.39.48-1.56.23-1.64.32-2.73-2.36-7.29-.16-10.37-1.16-1.28-.42-1.38-2.26-2.38-2.85-1.81-1.07-6.48-3.62-8.25-3.98-.09-3.04,4.1-2.44,3-6Z"/>
      <path class="cls-16" d="M44.99,105c-2.4,2.22-2.83-5-3.28-5.72-.38-.6-2.11-.67-2.55-1.9-.54-1.5-.25-6.43,1.34-6.36s8.29,10.45,4.48,13.98Z"/>
      <path class="cls-19" d="M54,92c.07,1.68,1.17,2.71,2,4-2.51,4.45-1.5-.16-3.68-.84-1.47-.46-5.51.29-3.32-3.14.31-.49,4.1-.66,5-.01Z"/>
      <path class="cls-24" d="M39,72c-.12.17-2.83,2.88-3,3-3.2,2.2-7.52,2.9-11.37,1.87-2.68-.72-.63-2.49.37-3.87,2.36-3.26,6.56-5,8.53-9,3.19,1.14,6.15,4.35,5.47,8Z"/>
      <path class="cls-18" d="M21,64c1.7,0,9.03-.56,8.98,1.5-.04,1.61-7.22,4.9-6.98,7.5-2.77.71-3.79,1.44-7-.01-.4-.55,4.14-8.25,5-8.99Z"/>
    </g>
  </g>
</svg>