<?xml version="1.0" encoding="UTF-8"?>
<svg id="_Слой_2" data-name="Слой 2" xmlns="http://www.w3.org/2000/svg" viewBox="0 0 72 147">
  <defs>
    <style>
      .cls-1 {
        fill: #d99c7e;
      }

      .cls-2 {
        fill: #bc8167;
      }

      .cls-3 {
        fill: #402f28;
      }

      .cls-4 {
        fill: #fcd3b5;
      }

      .cls-5 {
        fill: #441d12;
      }

      .cls-6 {
        fill: #fde3cd;
      }

      .cls-7 {
        fill: #392c25;
      }

      .cls-8 {
        fill: #49241a;
      }

      .cls-9 {
        fill: #472f27;
      }

      .cls-10 {
        fill: #51291d;
      }

      .cls-11 {
        fill: #b4a5a0;
      }

      .cls-12 {
        fill: #62443a;
      }

      .cls-13 {
        fill: #d08d70;
      }

      .cls-14 {
        fill: #d99b7e;
      }

      .cls-15 {
        fill: #463229;
      }

      .cls-16 {
        fill: #d7d0ce;
      }

      .cls-17 {
        fill: #fce3cd;
      }

      .cls-18 {
        fill: #ac9d98;
      }

      .cls-19 {
        fill: #884932;
      }

      .cls-20 {
        fill: #421a0e;
      }

      .cls-21 {
        fill: #db9f81;
      }

      .cls-22 {
        fill: #f7cdb0;
      }

      .cls-23 {
        fill: #fdd4b6;
      }

      .cls-24 {
        fill: #543025;
      }

      .cls-25 {
        fill: #492318;
      }

      .cls-26 {
        fill: #451e13;
      }

      .cls-27 {
        fill: #d39073;
      }

      .cls-28 {
        fill: #f6cdaf;
      }

      .cls-29 {
        fill: #5a3326;
      }

      .cls-30 {
        fill: #7a4c40;
      }

      .cls-31 {
        fill: #5d372c;
      }

      .cls-32 {
        fill: #e5a07b;
      }

      .cls-33 {
        fill: #d38f73;
      }

      .cls-34 {
        fill: #452c25;
      }

      .cls-35 {
        fill: #471e12;
      }

      .cls-36 {
        fill: #8e4e36;
      }

      .cls-37 {
        fill: #f6d6bf;
      }

      .cls-38 {
        fill: #2f1812;
      }

      .cls-39 {
        fill: #472015;
      }

      .cls-40 {
        fill: #92553c;
      }

      .cls-41 {
        fill: #82452f;
      }

      .cls-42 {
        fill: #d89d80;
      }

      .cls-43 {
        fill: #fce2cc;
      }

      .cls-44 {
        fill: #d29073;
      }

      .cls-45 {
        fill: #8e6052;
      }

      .cls-46 {
        fill: #8c4f37;
      }

      .cls-47 {
        fill: #d49174;
      }

      .cls-48 {
        fill: #7a493e;
      }

      .cls-49 {
        fill: #d6997b;
      }

      .cls-50 {
        fill: #edd4bf;
      }

      .cls-51 {
        fill: #f5cfb4;
      }

      .cls-52 {
        fill: #f2d7c1;
      }

      .cls-53 {
        fill: #f2d4be;
      }

      .cls-54 {
        fill: #4d251a;
      }

      .cls-55 {
        fill: #e39f7b;
      }

      .cls-56 {
        fill: #c78b70;
      }

      .cls-57 {
        fill: #eab89b;
      }

      .cls-58 {
        fill: #92553d;
      }

      .cls-59 {
        fill: #825449;
      }
    </style>
  </defs>
  <g id="_Слой_16_Изображение" data-name="Слой 16 Изображение">
    <g>
      <rect class="cls-16" x="16" y="146" width="28" height="1"/>
      <path class="cls-23" d="M39,5c1.78,3.69,6.39,4.14,10,4,.57.51,2.94,2.96,4,4,1.37,1.34,2.42,5.03,3,7,1.61,5.48,2.1,11.32,2,17-2.64-.85-2.29,3.57-4.49,3-1.14-.29-1.02-4.62-6.74-3.82-3.55.5-9.74,6.05-10.56,9.53-.43,1.85.17,4.06-.36,5.67-.1.31-5.78,4.2-2.28,4.64,3.1.39,8.92-.91,3.43,2.99-.3.16-4.78,4.18-4,5-3.81.02-11.14.68-14.3-.02-.46-.1-4.07-4.18-7.7-4.98-.85-.19-2.05.13-3,0-.3-.34-.67-.67-1-1-.04-3.33.05-6.68,0-10-.06-4.02-1.39-6.68-.89-11.4.37-3.44,3.9-14.28,5.37-17.62,1.91-4.35,9.7-6.26,9.52-11.98.15-.05.41-1.62,2.48-1.98,3.48-.61,11.64-.25,15.52-.02ZM24,52c1.98-.84.55-5.57.99-6.01.18-.18,6.7.54,4.01-1.98-1.08-1.01-9.66-1.1-10.88.14-.42.43-.05,1.29-.12,1.85-.68,5.08,1.83,3.64,2.01,4.51.43,2.04-1.12,1.38-1.25,1.56-2.7,3.76,4.51,7.17,5.24-.06Z"/>
      <path class="cls-5" d="M45,4c.15.19.93.96,1,1l-1,1c-1.64-.74-2.26-.8-4-1-4.67-1.38-12.7-1.59-17.55-1.05-2.26.25-3.47.34-3.45,3.05-7.36,3-11.4,7.14-15,14-2.1,4-.82,15.16-1,20.55-.06,1.92,1.02,4.01-2,3.45-.02-.33.02-.67,0-1-.41-8.62.3-17.37,0-26,2.6-6.76,8-12.25,15-14,8.11-2.03,19.78-1.37,28,0Z"/>
      <path class="cls-26" d="M43,119c-.98,1.29-.66,3.71-4,4.5,4.58,3.85,10.1,12,8.98,18.02-.4,2.17-1.66,1.99-1.98,2.48-.1-.47-.55-.96-1-1,3.07-5.88-3.41-5.71-3.99-11.51l-3.51,5.49-1.5-2.98c-.43-4.54-3.5-4.46-3-10,.39-4.36,4.78-2.02,5.96-3.06.39-.34-.18-2.22.04-2.94,1.41-.12,2.79.28,4,1Z"/>
      <path class="cls-39" d="M19,135c.47-.06,1.17.39,1,1-2.29,1.26-2.98,5.85-2,7.01.12.14,2.23-.03,3,0,1.63.05,3.37.11,5,0,4.56-.3,5.56.14,9.49-3.01.05,5.05,5.37,2.61,9.51,3.01.45.04.9.53,1,1-.56.84-.99,1.62-2,2h-28c-4.26-2.87-2.2-10.35,3-11Z"/>
      <path class="cls-25" d="M57,48l-1-1c.23-.26,1.96-2.82,2-3,1.43-5.45,1.55-13.84,1-19.51-.17-1.77-.26-5.09-3-4.49-.58-1.97-1.63-5.66-3-7,1.66.35,2.23-.75,3-2,5.12,6.17,6.01,11.31,6.07,19.49.02,3.03-1.02,15.25-2.53,16.59-.77.68-2.4.75-2.54.92Z"/>
      <path class="cls-20" d="M48,93c5.32,2.43,6.97-1.72,8,6-.53.87-.93,2.38-1.26,2.74-.53.55-1.47.12-1.74.26-2.2,1.18-.87,11.32,0,14-.68-.48-6.04-1.29-7,0,.24-.69-.33-2.24-.02-3.26.36-1.19,2.58-.76,3.05-3.21s.26-9.87-.02-12.53c-.33-3.01-2.96-1.42-1-4Z"/>
      <path class="cls-26" d="M9,65c1.08-.1,2.51-.2,3,1-.62.9-.71,1.52-1,2-3.19,5.22-2.98,5.89-3,12s1.29,5.47,2,8c.46,1.62-.12,4.45-1,6-1.7-2.31-2.86-2.36-4-6v-20c.69-1.37,2.45-2.86,4-3Z"/>
      <path class="cls-19" d="M49,97c.29,2.66.47,10.18.02,12.53s-2.68,2.02-3.05,3.21c-.31,1.02.26,2.56.02,3.26-.66,1.93-2.37,2.18-3,3-1.21-.72-2.59-1.12-4-1,.12-.4-.14-.98.25-1.76.21-.43,1.3-.78,1.75-1.24,8.86-8.99,3.05-4.38,1.96-11.55-.3-1.94,2.22-.52,2.16-3.9s-1.62-3.86-2.12-5.55l6,3Z"/>
      <path class="cls-8" d="M11,89c-.72,3.26,1.83,3.63,3,5,2.11,6.07-2.07,9.25,4,14-.39.32-.66.65-1,1-1.12,1.14-3.68,4.55-4,6l-3-1c1.89-4.32,1.91-16.06-1-20,.88-1.55,1.46-4.38,1-6h1v1Z"/>
      <path class="cls-54" d="M14,124c.07.31-.06.67,0,1,.81,4.49,4.17,2.96,8,3,1.27,1.02,2.88.93,2.99,1.04.21.2-1.05,5.52-1.2,5.78-.22.38-2.04.78-2.8,1.18-.26.14-.74-.14-1,0,.17-.61-.53-1.06-1-1l1-2.99c-4.14-.3-6.57-.92-8-5.01-.79-2.24-2.04-7.18,1-8,.02.25.85,4.37,1,5Z"/>
      <path class="cls-10" d="M57,48c-1.03,1.21-1.76,5.3-4.35,6.02l-.57,2.38c1.95,3.62,6.54,1.9,8.92,2.6.04,2.37.67,3.47-2,3-.75-.51-3.83-.89-5-1-2-2.27-5.07-3.14-8-3.01l1-1.99c2.06-2.02,2.72-3.96,6-7,.79-.73,2.4-1.31,3-2l1,1Z"/>
      <path class="cls-9" d="M5,21c.7,7.42-.93,16.35-.08,23.56.24,2.02,2.6,1.15,2.08,3.44.05,3.32-.04,6.67,0,10-.25-.25-2.29.21-2.86-1.61-.64-2.05.26-4.76-.14-6.87-.45-2.35-1.83-1.86-1.99-4.52,3.02.56,1.94-1.53,2-3.45.18-5.38-1.1-16.54,1-20.55Z"/>
      <path class="cls-12" d="M70,87c-1.67,6.45-1.67,15.55,0,22-.09,1.57.64,3.28-1,4-1.06-2.63-.92-5.24-1-8-.04-1.33.02-2.67,0-4-.05-3.66.08-7.34,0-11-.1-4.78.51-10.43,0-15-.07-.65.15-1.52,0-2h1c.82,5.25.83,8.61,1,14Z"/>
      <path class="cls-7" d="M13,115c-.2.93-.07,2.9,0,4-3.04.82-1.79,5.76-1,8-4.34-1.84-4.89-7.18-3.96-11.26.24-1.04,1.8-1.38,1.96-1.74l3,1Z"/>
      <path class="cls-24" d="M68,113c2.15,3.1.18,1.38-1.18,2.28-3.9,2.59-8.29,4.03-13.16,2.74-1.08-.29-.57-1.95-.66-2.02.96-.29,2.01-.95,3-1,1.64-.08,3.41.18,5,0,3.55-.4,3.88-1.17,7-2Z"/>
      <path class="cls-3" d="M46,5c4.74,2.56,5.06.06,10,6-.77,1.25-1.34,2.35-3,2-1.06-1.04-3.43-3.49-4-4-.91-.81-3.06-2.58-4-3l1-1Z"/>
      <path class="cls-56" d="M69,113c-.25.11-.67-.09-1,0-3.12.83-3.45,1.6-7,2,.29-1.96,3.21-2.43,3.73-3.27,1.03-1.63.03-5.73,3.27-6.73.08,2.76-.06,5.37,1,8Z"/>
      <path class="cls-3" d="M17,4c.7-2.28,2.58-1.95,4.45-2.06,3.01-.17,22.52-.53,23.44.2.46.37-.04,1.66.11,1.85-8.22-1.37-19.89-2.03-28,0Z"/>
      <path class="cls-59" d="M66,65c-3.8-.43-1.21,1.41-1,3-.85-.04-2.21.38-2.81-.18-.24-.23-2.71-5.5-3.19-5.82,2.67.47,2.04-.63,2-3,.86.25,3.88,4.89,5,6Z"/>
      <path class="cls-29" d="M11,59c.12,2.14,3.85,2.8,3.99,3.02,1.23,1.77-2.46,3.2-2.99,3.98-.49-1.2-1.92-1.1-3-1,1.5-1.59.24-4.59-1-6,.95.13,2.15-.19,3,0Z"/>
      <path class="cls-18" d="M2,44c-1.66-1.04-1-3.79-1.02-5.49-.07-5.78-.88-15.58,1.02-20.51.3,8.63-.41,17.38,0,26Z"/>
      <path class="cls-34" d="M66,65c.13.13,1.42-.35,1.8.16.26.34.97,6.4,1.2,7.84h-1c-.08-.24-2.79-2.8-3-4,0-.33.04-.68,0-1-.21-1.59-2.8-3.43,1-3Z"/>
      <path class="cls-38" d="M70,109c-1.67-6.45-1.67-15.55,0-22,.22,6.97.39,15.08,0,22Z"/>
      <path class="cls-11" d="M5,88c-1.37-4.35-1.96-16.12,0-20v20Z"/>
      <path class="cls-32" d="M37,59c5.49-3.9-.33-2.6-3.43-2.99-3.5-.44,2.18-4.33,2.28-4.64.53-1.61-.07-3.82.36-5.67.82-3.47,7-9.03,10.56-9.53,5.73-.8,5.6,3.52,6.74,3.82,2.2.57,1.85-3.85,4.49-3-.03,2.04.38,5.32,0,7-.04.18-1.77,2.74-2,3-.6.69-2.21,1.27-3,2-4.89-1.75-4.71,3.82-5.61,4.07-1.09.31-3.86-.52-4.36-.04-.18.18-.39,3.33-1.03,4.97-1.25.74-4.13.55-5,1Z"/>
      <path class="cls-36" d="M47,56l-1,1.99c2.93-.13,6,.74,8,3.01-.92-.09-2.07-.07-3,0-4.07.29-7.13,2.11-9,6-4.81,1.76-10.78.99-16,1s-10.01,0-15,0c.29-.48.38-1.1,1-2,.54-.78,4.23-2.21,2.99-3.98-.15-.21-3.87-.88-3.99-3.02,3.63.8,7.24,4.88,7.7,4.98,3.16.7,10.49.03,14.3.02.32,0,1.15.81,2.3.71,3.32-.29,5.46-2.81,6.7-5.71.82-1.4,4.57-2.58,5-3Z"/>
      <path class="cls-49" d="M7,48c.52-2.29-1.84-1.42-2.08-3.44-.85-7.21.78-16.14.08-23.56,3.6-6.86,7.64-11,15-14,.28-.11.7.11,1,0,.18,5.73-7.61,7.64-9.52,11.98-1.47,3.34-5,14.18-5.37,17.62-.5,4.72.83,7.37.89,11.4Z"/>
      <path class="cls-15" d="M24,52c-.72,7.23-7.94,3.82-5.24.06.13-.18,1.68.49,1.25-1.56-.18-.87-2.69.57-2.01-4.51,5.86-2.98,6.53.72,6,6Z"/>
      <path class="cls-2" d="M56,20c2.74-.6,2.83,2.72,3,4.49.55,5.67.43,14.06-1,19.51.38-1.68-.03-4.96,0-7,.1-5.68-.39-11.52-2-17Z"/>
      <path class="cls-44" d="M42,58c-.11.29.12.72,0,1-1.24,2.9-3.38,5.42-6.7,5.71-1.15.1-1.98-.71-2.3-.71-.78-.82,3.7-4.84,4-5,.87-.45,3.75-.26,5-1Z"/>
      <path class="cls-45" d="M18,46c.07-.55-.3-1.42.12-1.85,1.22-1.24,9.8-1.15,10.88-.14,2.69,2.52-3.83,1.81-4.01,1.98-.45.44.99,5.17-.99,6.01.53-5.28-.14-8.98-6-6Z"/>
      <path class="cls-3" d="M41,5c-.65-.08-1.34.04-2,0-3.88-.24-12.04-.6-15.52.02-2.07.37-2.33,1.93-2.48,1.98-.3.11-.72-.11-1,0-.02-2.71,1.19-2.8,3.45-3.05,4.85-.54,12.88-.32,17.55,1.05Z"/>
      <path class="cls-31" d="M41,5c1.74.2,2.36.26,4,1,.94.42,3.09,2.19,4,3-3.61.14-8.22-.31-10-4,.66.04,1.35-.08,2,0Z"/>
      <path class="cls-55" d="M30,118c-.15.15-3.35-.52-2,2.5.64,1.43,4.33,1.25,5,3.5-.5,5.54,2.57,5.46,3,10h-1c-.19-2.53-4.67-8.24-7-6.01-.29.28.69,4.34-1,7.01v-7.01c-1.66-.02-3.33.02-5,0-2.68-2.15-2.72-4.1-8-3-.06-.33.07-.69,0-1,2.63.59,8.19-.66,9.48-3.02,2.32-4.24-1.48-5.88,7.52-6.98-.42.93-.72,3.71-1,4Z"/>
      <path class="cls-48" d="M45,143c-4.14-.4-9.46,2.04-9.51-3.01-3.93,3.15-4.93,2.71-9.49,3.01-.27-4.2,4.13-2.23,6.02-3.47,1.05-.69,1.61-4.37,2.98-5.53h1l1.5,2.98,3.51-5.49c.59,5.8,7.06,5.63,3.99,11.51Z"/>
      <path class="cls-19" d="M30,118c2.36,2.57,6.39.22,9,0-.22.73.35,2.6-.04,2.94-1.17,1.03-5.57-1.31-5.96,3.06-.66-2.25-4.35-2.07-5-3.5-1.35-3.02,1.85-2.35,2-2.5Z"/>
      <path class="cls-28" d="M27,135c1.69-2.67.72-6.73,1-7.01,2.33-2.24,6.81,3.47,7,6.01-1.37,1.15-1.93,4.83-2.98,5.53-1.89,1.24-6.29-.72-6.02,3.47-1.63.11-3.37.05-5,0v-6c2.88.14,4.37.58,6-2Z"/>
      <path class="cls-46" d="M21,137v6c-.77-.02-2.88.15-3,0-.98-1.15-.29-5.74,2-7.01.26-.14.74.14,1,0v1Z"/>
      <path class="cls-4" d="M56,99c.46-.75,1.99-.39,2.11-3.49.05-1.38-6.51-15.56-1.61-15.49,2.48.04,2.41,6.34,3.06,7.92,1.73,4.21,6.67,8.13,8.44,13.06.02,1.33-.04,2.67,0,4-3.23,1-2.23,5.1-3.27,6.73-.53.83-3.44,1.31-3.73,3.27-1.59.18-3.36-.08-5,0,.45-5.71-4.83-6.54-3-13,.27-.14,1.21.29,1.74-.26.33-.35.73-1.86,1.26-2.74Z"/>
      <path class="cls-1" d="M58,73c.36.84.85,3.88,1.01,4.01.6.46,2.4-.97,2.99-1.01.08,0,.6.85,1,1-2.63,3.72.01,12.28,4,13h1c.08,3.66-.05,7.34,0,11-1.78-4.93-6.71-8.85-8.44-13.06-.65-1.58-.58-7.89-3.06-7.92-4.9-.07,1.66,14.11,1.61,15.49-.12,3.1-1.65,2.74-2.11,3.49-1.03-7.72-2.68-3.57-8-6-1.16-.53-2.72-1.76-3-3,.47-.1.96-.55,1-1,8.01,5.37,5.8-3.19,6-9-1.66-.64-5.04,1.29-6,1-.17-.05-1.31-2.5-3-2,.23-.96-.2-2.4,0-3.49l.99-.51c-1.2,4.14,11.52,3.49,12.01,3.01.8-.8-1.83-8.15,1.99-5.01Z"/>
      <path class="cls-35" d="M43,94c-.81-2.73-1.69-11.21.01-13,2.93-3.09,1.78,8.09,1.99,9,.28,1.24,1.84,2.47,3,3-1.96,2.58.67.99,1,4l-6-3Z"/>
      <path class="cls-30" d="M53,102c-1.83,6.46,3.45,7.29,3,13-.99.05-2.04.71-3,1-.87-2.68-2.2-12.82,0-14Z"/>
      <path class="cls-47" d="M26,68c-.69,1.86-4.31.47-4.94,1.06-.23.21-.52,4.14-1.46,6.07-.77,1.58-2.57,2.09-2.63,2.54-.31,2.28,2.88,9.34-2.96,8.32v-10.99c-2.99-.15-4.09,3.35-6,4.99.02-6.11-.19-6.78,3-12,4.99,0,10.01.01,15,0Z"/>
      <path class="cls-22" d="M8,80c1.91-1.64,3.01-5.15,5.99-4.99v10.99s0,1,0,1c-1.88-.69-3.28-2.45-3,1h-1c-.71-2.53-2.02-1.79-2-8Z"/>
      <path class="cls-27" d="M46,81c-.17,2.63.25,5.38,0,8-.04.45-.53.9-1,1-.2-.92.94-12.09-1.99-9-1.7,1.79-.82,10.27-.01,13,.5,1.69,2.06,2.12,2.12,5.55s-2.46,1.96-2.16,3.9c1.1,7.17,6.9,2.56-1.96,11.55-.42-.2-.84-.56-1-1-1.16-3.2-1.06-1.27-3.98-3.5.8-1.01,2.2-1.52,2.98-2.5,1.35-1.7.21-2.14.12-4.4-.06-1.77,2.27-4.09-1.61-4.6-2.39,1.07-1.04,5.41-1.57,5.94-.21.21-2.59-.03-3.87.59-.95.47-1.52,1.83-2.81,2.23-3.38,1.04-8.64,1.14-12.27,1.23.34-.35.61-.68,1-1,.28-.22,1.79.25,2,0,1.71-2.07-2.55-2.14-2.94-3.59-.58-2.16,2.22-4.58-1.06-8.96-.61-.81-1.67-1.06-2.01-1.44-1.17-1.37-3.72-1.74-3-5l9,2.99c.48-1.42-.97-1.89-1-1.99-.66-3.06,1.76-2.27,4-1,.46.8,1.79,2.86,2.49,2.88.54.01,7.99-5.07,9.03-5.85,1.22-.93,1.69-3,2.95-4.06,1.35-1.12,3.36-1.15,4.53-1.97.41-.29.86-.41,1-1,1.69-.5,2.83,1.95,3,2Z"/>
      <path class="cls-57" d="M32,112c1.01.17,3.42-.4,3.94.11.9.9-2.01,4.55,4.06,1.89.16.44.58.8,1,1-.46.46-1.54.82-1.75,1.24-.39.78-.13,1.35-.25,1.76-2.61.22-6.64,2.57-9,0,.28-.29.58-3.07,1-4,.35-.78.07-.98,1-2Z"/>
      <path class="cls-43" d="M39,108c-1.37-.5-6.08,2.99-7,4s-.65,1.22-1,2c-9,1.1-5.2,2.73-7.52,6.98-1.29,2.36-6.85,3.61-9.48,3.02-.15-.63-.98-4.75-1-5-.07-1.1-.2-3.07,0-4,.32-1.45,2.88-4.86,4-6,3.63-.1,8.88-.2,12.27-1.23,1.29-.39,1.85-1.76,2.81-2.23,1.28-.63,3.66-.39,3.87-.59.53-.53-.82-4.86,1.57-5.94,3.87.51,1.54,2.83,1.61,4.6.08,2.26,1.22,2.7-.12,4.4Z"/>
      <path class="cls-41" d="M14,94c.33.39,1.4.63,2.01,1.44,3.27,4.37.47,6.79,1.06,8.96.39,1.45,4.65,1.53,2.94,3.59-.21.25-1.72-.22-2,0-6.07-4.75-1.89-7.93-4-14Z"/>
      <path class="cls-51" d="M14,87c1.86.68,4.11,1.13,5,3,.02.11,1.48.57,1,1.99l-9-2.99v-1c-.28-3.45,1.12-1.69,3-1Z"/>
      <path class="cls-58" d="M22,128c1.67.02,3.34-.02,5.01,0v7.01c-1.64,2.58-3.12,2.14-6.01,2v-1c.76-.41,2.57-.8,2.8-1.18.15-.25,1.41-5.57,1.2-5.78-.11-.11-1.72-.02-2.99-1.04Z"/>
      <path class="cls-40" d="M22,128c-3.83-.04-7.19,1.49-8-3,5.28-1.1,5.32.85,8,3Z"/>
      <path class="cls-53" d="M54,61c1.17.11,4.25.49,5,1,.48.32,2.95,5.6,3.19,5.82.6.56,1.96.13,2.81.18.04.32,0,.67,0,1,.16,5.42-2.27,3.38-3,7-.58.03-2.39,1.47-2.99,1.01-.16-.13-.65-3.17-1.01-4.01-1.23-2.87-4.66-5.15-7-8-1.45-1.77-4.05-1.77,0-4,.93-.07,2.08-.09,3,0Z"/>
      <path class="cls-13" d="M53,49c-3.28,3.04-3.94,4.98-6,7-.43.42-4.18,1.6-5,3,.12-.28-.11-.71,0-1,.64-1.64.85-4.79,1.03-4.97.49-.48,3.27.35,4.36.04.9-.25.72-5.82,5.61-4.07Z"/>
      <path class="cls-33" d="M68,73c.15.48-.07,1.35,0,2h-1c-1.15.16-3.4,1.15-4,2-.4-.15-.92-1-1-1,.73-3.62,3.16-1.58,3-7,.21,1.2,2.92,3.76,3,4Z"/>
      <path class="cls-50" d="M68,90h-1v-15h1c.51,4.57-.1,10.22,0,15Z"/>
      <path class="cls-14" d="M40,73c-1.41-1.42-3.38-2.29-5.41-2.01-.47.06-8.21,2.91-8.91,3.24-2,.95-2.97,5.13-7.68,3.78-.79,1.99,3.02,3.88,2.98,4.5-.05.79-4.51,1.45-2.99,4.49,5.72-.55,3.82-.06,5.01,2-2.24-1.27-4.66-2.06-4,1-.89-1.87-3.14-2.32-5-3v-1c5.84,1.02,2.65-6.04,2.96-8.32.06-.46,1.86-.97,2.63-2.54.95-1.93,1.23-5.86,1.46-6.07.64-.59,4.26.8,4.94-1.06,5.22-.01,11.19.76,16-1-.82,1.72-.3,4.54-2,6Z"/>
      <path class="cls-42" d="M51,61c-4.05,2.23-1.45,2.23,0,4,.88,4.23-5.76.24-8,3-1.59,1.04-.66,5.38,1,7l-.99.51c-.21,1.09.22,2.53,0,3.49-.14.59-.59.71-1,1,.33-2.61-.12-5.11-2-7,1.7-1.46,1.18-4.28,2-6,1.87-3.89,4.93-5.71,9-6Z"/>
      <path class="cls-52" d="M46,81c.95.29,4.34-1.64,6-1-.19,5.81,2.01,14.37-6,9,.25-2.62-.17-5.37,0-8Z"/>
      <path class="cls-53" d="M67,75v15c-3.99-.72-6.63-9.28-4-13,.6-.85,2.85-1.84,4-2Z"/>
      <path class="cls-21" d="M51,65c2.34,2.85,5.77,5.13,7,8-3.83-3.15-1.19,4.2-1.99,5.01-.48.48-13.2,1.13-12.01-3.01,3.03,2.97,7.15,1.91,11,2,3.54-6.44-8.68-11.18-12-9,2.24-2.76,8.88,1.23,8-3Z"/>
      <path class="cls-6" d="M40,73c1.88,1.89,2.33,4.39,2,7-1.17.81-3.18.85-4.53,1.97-1.26,1.05-1.73,3.13-2.95,4.06-1.04.79-8.49,5.87-9.03,5.85-.7-.01-2.04-2.08-2.49-2.88-1.18-2.07.72-2.56-5.01-2-1.52-3.04,2.93-3.7,2.99-4.49.04-.62-3.77-2.5-2.98-4.5,4.71,1.35,5.68-2.83,7.68-3.78.69-.33,8.44-3.17,8.91-3.24,2.03-.28,4,.6,5.41,2.01Z"/>
      <path class="cls-37" d="M39,108c-.78.98-2.18,1.49-2.98,2.5,2.92,2.23,2.82.3,3.98,3.5-6.07,2.66-3.16-.99-4.06-1.89-.51-.51-2.92.07-3.94-.11.92-1.01,5.63-4.5,7-4Z"/>
      <path class="cls-17" d="M43,68c3.32-2.18,15.54,2.56,12,9-3.86-.1-7.97.96-11-2-1.66-1.62-2.59-5.96-1-7Z"/>
    </g>
  </g>
</svg>