<?xml version="1.0" encoding="UTF-8"?>
<svg id="_Слой_2" data-name="Слой 2" xmlns="http://www.w3.org/2000/svg" viewBox="0 0 97 153.05">
  <defs>
    <style>
      .cls-1 {
        fill: #9b5b42;
      }

      .cls-2 {
        fill: #d2977b;
      }

      .cls-3 {
        fill: #512a1d;
      }

      .cls-4 {
        fill: #a6948f;
      }

      .cls-5 {
        fill: #cf967a;
      }

      .cls-6 {
        fill: #4b2519;
      }

      .cls-7 {
        fill: #512b1f;
      }

      .cls-8 {
        fill: #f9ceb0;
      }

      .cls-9 {
        fill: #4b2216;
      }

      .cls-10 {
        fill: #d6987a;
      }

      .cls-11 {
        fill: #f6cbaf;
      }

      .cls-12 {
        fill: #593124;
      }

      .cls-13 {
        fill: #d29174;
      }

      .cls-14 {
        fill: #fbd1b3;
      }

      .cls-15 {
        fill: #fbe0ca;
      }

      .cls-16 {
        fill: #38281f;
      }

      .cls-17 {
        fill: #451d12;
      }

      .cls-18 {
        fill: #9b5c43;
      }

      .cls-19 {
        fill: #cf8d71;
      }

      .cls-20 {
        fill: #8e4f37;
      }

      .cls-21 {
        fill: #c68c71;
      }

      .cls-22 {
        fill: #f6c9ab;
      }

      .cls-23 {
        fill: #f9d1b3;
      }

      .cls-24 {
        fill: #4c251a;
      }

      .cls-25 {
        fill: #451e12;
      }

      .cls-26 {
        fill: #da9a78;
      }

      .cls-27 {
        fill: #e5a07c;
      }

      .cls-28 {
        fill: #f0edec;
      }

      .cls-29 {
        fill: #e4a07b;
      }

      .cls-30 {
        fill: #f6ccaf;
      }

      .cls-31 {
        fill: #d89a7c;
      }

      .cls-32 {
        fill: #fdd4b6;
      }

      .cls-33 {
        fill: #4b332c;
      }

      .cls-34 {
        fill: #4d3b31;
      }

      .cls-35 {
        fill: #d28f73;
      }

      .cls-36 {
        fill: #fde4ce;
      }

      .cls-37 {
        fill: #e5a582;
      }

      .cls-38 {
        fill: #42271f;
      }

      .cls-39 {
        fill: #d3987c;
      }

      .cls-40 {
        fill: #f1d4be;
      }

      .cls-41 {
        fill: #dc9977;
      }

      .cls-42 {
        fill: #eaccb6;
      }

      .cls-43 {
        fill: #633d30;
      }

      .cls-44 {
        fill: #8b4a32;
      }

      .cls-45 {
        fill: #e7b89d;
      }

      .cls-46 {
        fill: #d7a387;
      }

      .cls-47 {
        fill: #3d2b22;
      }

      .cls-48 {
        fill: #f8dbc4;
      }

      .cls-49 {
        fill: #91553e;
      }

      .cls-50 {
        fill: #fbe1cb;
      }

      .cls-51 {
        fill: #db9f82;
      }

      .cls-52 {
        fill: #d8997c;
      }

      .cls-53 {
        fill: #53291c;
      }

      .cls-54 {
        fill: #423028;
      }

      .cls-55 {
        fill: #4a2317;
      }

      .cls-56 {
        fill: #864933;
      }

      .cls-57 {
        fill: #d29b7f;
      }

      .cls-58 {
        fill: #9f6249;
      }

      .cls-59 {
        fill: #3c231c;
      }

      .cls-60 {
        fill: #8b4c35;
      }

      .cls-61 {
        fill: #461f14;
      }

      .cls-62 {
        fill: #d89d80;
      }

      .cls-63 {
        fill: #38211b;
      }

      .cls-64 {
        fill: #fad0b2;
      }

      .cls-65 {
        fill: #51281b;
      }

      .cls-66 {
        fill: #965941;
      }

      .cls-67 {
        fill: #613c2f;
      }

      .cls-68 {
        fill: #8d4d34;
      }

      .cls-69 {
        fill: #d49678;
      }

      .cls-70 {
        fill: #9a5a41;
      }

      .cls-71 {
        fill: #492116;
      }

      .cls-72 {
        fill: #93533a;
      }

      .cls-73 {
        fill: #e1b89d;
      }

      .cls-74 {
        fill: #ca9d84;
      }

      .cls-75 {
        fill: #502b20;
      }

      .cls-76 {
        fill: #df9d7a;
      }
    </style>
  </defs>
  <g id="_Слой_26_Изображение" data-name="Слой 26 Изображение">
    <g>
      <path class="cls-59" d="M78,151c-1.14.73-3.04.69-4,2-2.31-.1-4.69.14-7,0-.14,0-1.14-.93-2.42-1.04-2.91-.26-7.07.6-9.58.04-.56-3.03,1.53-1.92,3.45-2,6.08-.24,13.81-.66,19.55,1Z"/>
      <path class="cls-17" d="M93,70c3.6,6.52,1.86,18.35,1.94,26.56.02,1.52,1.09,4.15.96,4.33-.12.16-2.41.89-3.46,2.04-5.35,5.84-4.8,6.93-14.45,6.06,2.4,6.14-3.37,12.25-3.09,16.51.1,1.47,2.26,5.72,3.09,7.5-.77,1.25-1.34,2.35-3,2-.77-1.58-2.89-4.72-3-5-1.1-2.73-.82-5.24-1-8-.04-.66.03-1.34,0-2-.01-.33.01-.67,0-1,1.49-.78,2.83-.29,3.08-2.46.45-3.98-.14-9.29-.08-13.54.05-2.99-.04-6.01,0-9.01.92-.16,2.24.23,3,0,.42,3.03-1.12,7.87,1,10,1.94,1.95,6.75,1.39,9,0s1.75-1.61,2-4c.54-.56,2.89-1.71,3-2,2.29-8.83.38-18.88,1-28Z"/>
      <path class="cls-61" d="M66,4c.47,2.67-.63,2.04-3,2-6.2-1.77-14.89-1.1-21.51-1.02-1.69.02-4.44-.64-5.49,1.02-.7.13-9.68,5.26-10.52,5.99-2.05,1.74-1.67,2.9-2.48,4.01-1.54,2.14-1.96,1.42-3,5-1.58,5.43-.93,10.28-1,16-.26.41-1.51.58-2,2-.82,2.36-.86,7.32-1,10-5.49-6.28.09-12.11.89-18.61.94-7.68-1.05-11.6,4.1-18.9,2.53-3.58,11.41-9.43,15.66-10.11,1.62-.26,22.51-.11,23.82.13,1.93.36,3.75,1.63,5.53,2.5Z"/>
      <path class="cls-55" d="M26,98c-1.65.74-2.64,1.66-2.98,3.52-.54,2.95-.44,16.54.98,18.48-.02.51-.98,1.49-1,2-4.53-5.43-9.93-.81-15-5,2.3-.74,4.68-1.34,7-2,.91-.26,2.31.34,3-1,.66-.05,1.34.03,2,0l1-.51c-.79-1.81-.81-3.58-1-5.49-.17-1.74.34-3.54-.2-5.29-.58-1.9-2.32-2.04-2.8-2.71-1.18-1.64-1.72-3.64-2-4-2.27-2.44,1.83-2.62,3-5l2,7c.48,1.35,2.64,1.35,2.99.99.32-.32.21-7.81,0-8.99-.08-.49-1.54-1.47-2-2,.79-.68,1.43-.63,2-2,4.23-3.06,3.22,8.68,3,12Z"/>
      <path class="cls-6" d="M5,74c-.13,3.31.04,6.68,0,10-.01,1,0,2,0,3-.01,3.98-.1,8.02,0,12,.06,2.38-.5,6.43-.02,8.31.26,1.01,2.27.87,2.83,2.35,1.68,4.43-1.11,6.16,7.19,5.34-2.32.66-4.7,1.26-7,2-1.93-1.59-5.73-6.06-6.05-8.45-1.33-9.99,1.15-22.76-.02-33.09l3.08-2.46c-.02.33.01.67,0,1Z"/>
      <path class="cls-25" d="M74,11c1.57-.46,5.19,5.34,6,7,.66,5.43-1.38,13.32,1,18,.1.19,1.48.41,1.82,1.64.9,3.2-.62,7.52.85,10.92-.27,1.64-3.33,2.02-4.67,2.44,1.18-4.04,3.07-4.97,1.55-10.1-.29-.97-1.48-1.65-1.55-1.9-2.3-8.61-.58-17.88-6-25,.42-.85,1.08-2.09,1-3Z"/>
      <path class="cls-71" d="M23,53c.66,0,1.35-.05,2,0l2,6.99c-.58.51-6.66-.45-8.37-.04-1.23.3-.45,1.87-.63,2.04-.34.33-.66.69-1,1-3.42,3.16-6.22,3.64-9,8-.93,1.45-.48,3.61-3,3,.01-.33-.02-.67,0-1,.4-6.23.88-3.5,2.65-6.34,1.49-2.41,2.99-6.13,5.8-7.72,3.24-1.83,6.28.24,8.54-2.44-1.51-.78-1.43-2.58-1.98-3.5,1,0,2,0,3,0Z"/>
      <path class="cls-9" d="M47,112c1.33-.03,2.67-.04,4,0,1.46,1.83.66,4.19,1,6,.76,4.11,2.25,3.85,2,10-8.01-2.78-3.45-13.09-6.5-12.98s-2.2,7.3-2.5,8.98c-.59-.13-1.64.2-2,0v-12.01c1.32-.03,2.67.03,4,0Z"/>
      <path class="cls-33" d="M20,137c.4,1.79-.84,3.17,1,5,1.71,1.7,9.94,1.14,13,1,2.68-.13,3.02-.54,5-1,.57-.13,1.36.09,2,0h1c-1.88,2.05-2.13,3.4-5.56,3.94-2.64.41-13.45.5-15.72-.15-4.41-1.26-3.45-6.63-2.71-9.79.95-.1,1.75-.14,2,1Z"/>
      <path class="cls-76" d="M63,6c3.38.97,7.16,4.53,11,4,.08.27-.03.65,0,1,.08.91-.58,2.15-1,3-.23-.3-1.45-.65-2-1-.26-.17-.34-1.34-1.68-1.78-1.6-.52-3.66-.08-5.37-.68-9.26-3.24-17.63-6.49-27.95-4.54,1.04-1.66,3.79-1,5.49-1.02,6.63-.08,15.31-.75,21.51,1.02Z"/>
      <path class="cls-7" d="M78,133c.64,1.37,2.58,2.56,2.77,3.61.22,1.24-.94,3.2-.86,4.89.09,2.03,1.3,4.53,1.14,5.87-.08.64-1.51.66-1.62.88-.54,1.17.83,1.31-1.42,2.74-5.74-1.66-13.47-1.24-19.55-1-1.93.08-4.01-1.03-3.45,2-1.2-.27-1.41-1.34-2-2,.1-.47.54-.95,1-1,1.57-.16,3.37.02,5,0,5.99-.07,12.02.05,18.01,0-.16-2.97.21-6.04,0-9.01-.37-5.1-1.07-3.09-2-5,1.66.35,2.23-.75,3-2Z"/>
      <path class="cls-30" d="M23,53c-1,0-2,0-3,0-.63-1.05-3.08-2.94-4-4,.14-2.68.18-7.64,1-10l6.61,8.98-.61,5.02Z"/>
      <path class="cls-65" d="M54,128c1.3.45,3.51.4,5,1.01l-2,4.99c-5.29,4.62-2.37,8.3-3,15-.46.05-.9.53-1,1-.65-.73-1.61-.37-1.98-2.48s-.38-8.82-.1-11.06c.24-1.99,2.79-1.24,3.09-8.46Z"/>
      <path class="cls-39" d="M89,61c-.08-.1-1.43.03-2,0-6.33-.33-12.84-.29-19,1,.38-.52.62-1.68,1-2,3.61-3.04,7.45-1.89,12-2,2.08-.05,4.14.25,6-1,2.01,1.52,1.43,3.22,2,4Z"/>
      <path class="cls-53" d="M79,51c-2.43,8.33,3.97,2.94,8,6-1.86,1.25-3.92.95-6,1-2.54-2.92-10.77,1.44-10-3,1.09-1.46-.84-1.75,3-3,1.37-.44,3.33-.48,5-1Z"/>
      <path class="cls-54" d="M42,142h-1c-.12-.61.17-1.53,0-2,3.51-1.41.92-5.2,1-9,.09-4.59,1.55-3.84,2-5,1.06,4.02,2.09,11.08.06,14.59-.4.69-1.64.96-2.06,1.41Z"/>
      <path class="cls-34" d="M24,128c.14,2.82.04,4.87-2,7-.71.43-1.33,1.42-2,2-.25-1.14-1.05-1.1-2-1,.74-3.16,2.08-8.63,5-10,0,.9.99,1.79,1,2Z"/>
      <path class="cls-38" d="M93,70c-.62,9.12,1.29,19.17-1,28,.56-1.52.05-11.28,0-14-.05-2.99.48-7.35,0-10-.15-.86-.17-.87-1-1,.05-1.13-.68-2.03-1-3l2-1c0,.07.69.43,1,1Z"/>
      <path class="cls-63" d="M92,69l-2,1c-.99-3.01-.72-8.63-1-9,.13.17,1.9-.27,3.12,2.39,1.44,3.16-.22,4.54-.12,5.61Z"/>
      <path class="cls-67" d="M74,10c-3.84.53-7.62-3.03-11-4,2.37.04,3.47.67,3-2,2.63,1.29,7.05,2.67,8,6Z"/>
      <path class="cls-12" d="M24,128c0-.21-.99-1.1-1-2-.01-1.33-.04-2.67,0-4,.02-.51.98-1.49,1-2,.36.49,1.97.84,2.49,1.98,1.17,2.57,1,6.13-2.49,6.02Z"/>
      <path class="cls-75" d="M43,124c.36.2,1.41-.13,2,0-.1.57-.75,1.35-1,2-.45,1.16-1.91.41-2,5-4-2.42-3.2-5.32,0-8,.31.94.41.68,1,1Z"/>
      <path class="cls-4" d="M81,36c-2.38-4.68-.34-12.57-1-18,2.35,4.83.36,12.47,1,18Z"/>
      <path class="cls-69" d="M66,127l-.99,3c2.52-.71,4.5-1.16,6.99,0,.11.28,2.23,3.42,3,5,.93,1.91,1.63-.1,2,5-5.17.87-6.06-5.31-7.62-5.87-10.17-3.65-14.2,6.97-10.38,14.87-1.63.02-3.43-.16-5,0,.63-6.7-2.29-10.38,3-15,.47-.41,4.4-2.4,4.85-3.21.65-1.18-1.77-4.12.67-4.79,2-.54,2.81.86,3.48,1Z"/>
      <path class="cls-40" d="M87,74c.29,3.05-.43,6.59-.03,9.54.82,6,2.8,9.14,2.03,16.46-.25,2.39.22,2.63-2,4-4.08.36-2.69-.07-3-3-.46-4.34.49-8.57-4.51-3.01l-1.49-3.99c.34-.11.66-.83,1-1,2.43-1.2,4.55-2.88,4.99-5.99-.95.17-1.37-.54-1.99-1.01,1.53-.43,3.82,1.38,4.01-1.47.21-3.15-.17-6.39,0-9.54h-6.01s0-.99,0-.99c2.32-.08,4.69.16,7,0Z"/>
      <path class="cls-13" d="M55,115c-.85,1.74,4.08,6.97,4.5,6.98.49.02,2.01-2.76,3.5-2.98.28-.04.97-.04,1,0,.23.27.05,1.95.93,2.54,2.13,1.41,4.37-.13,6.07-1.54.03.66-.04,1.34,0,2-2.49,1.52-2.04,5.62-5,5-.67-.14-1.48-1.54-3.48-1-2.44.66-.02,3.61-.67,4.79-.45.81-4.38,2.8-4.85,3.21l2-4.99c-1.49-.61-3.7-.56-5-1.01.25-6.15-1.24-5.89-2-10,2.64.96,1.55-2.24,3-3Z"/>
      <path class="cls-37" d="M91,73c.83.13.85.14,1,1-5.17-1.68-3.65,8.16,0,10,.05,2.72.56,12.48,0,14-.11.29-2.46,1.44-3,2,.77-7.33-1.21-10.46-2.03-16.46-.4-2.94.33-6.49.03-9.54.92-.06,2.23-1.29,4-1Z"/>
      <path class="cls-19" d="M74,103c-.07,4.24.52,9.56.08,13.54-.24,2.17-1.58,1.68-3.08,2.46-.08-2.33.1-4.68,0-7-.26-5.83-1.53-13.67-1-19,2.37,2.93-.87,8.34,4,10Z"/>
      <path class="cls-48" d="M71,112c.1,2.32-.08,4.67,0,7,.01.33-.01.67,0,1-1.7,1.4-3.93,2.95-6.07,1.54-.88-.59-.7-2.27-.93-2.54,3.1-1.36,3.79-4.97,4.01-8l2.99,1Z"/>
      <path class="cls-56" d="M79,93c-.34.17-.66.89-1,1-.3.1-.69-.09-1,0-.76.23-2.08-.17-3,0-.04,2.99.05,6.01,0,9.01-4.87-1.66-1.63-7.07-4-10,.03-.33-.06-.68,0-1l7.98-2.01,1.02,3.01Z"/>
      <path class="cls-58" d="M78,94l1.49,3.99c5-5.57,4.06-1.34,4.51,3.01-2.48,1.91-6.85-.52-6,3-2.12-2.13-.58-6.97-1-10,.31-.09.7.1,1,0Z"/>
      <path class="cls-20" d="M72,130c-2.49-1.17-4.47-.71-6.99,0l.99-3c2.96.62,2.51-3.48,5-5,.18,2.76-.1,5.27,1,8Z"/>
      <path class="cls-27" d="M84,101c.31,2.93-1.08,3.36,3,3-2.25,1.39-7.06,1.95-9,0-.85-3.52,3.52-1.09,6-3Z"/>
      <path class="cls-32" d="M71,13c.92,7.83,2.02,23-5.49,28.01-2.03,1.35-8.08,2.3-8.51,3.99.86,2.4-.08,7.97,1,9,1.24,1.18,5.47,1.51,6,1l1.01-7c5.57.9,3.15,9.42,0,12-1.12.65-6.99,3.88-7.52,3.98-1.72.33-17.71.52-18.48.02-.11-.07-.07-1.76-1.02-2.44-1.97-1.41-6.53-2.58-7.49-4.55-1.07-2.23-1.25-8.18,1.49-9.01l1.01,6c.52,1.55,5.77,1.23,6,1,1.88-1.89-2.05-3.29-2.04-3.5.16-2.2,4.22-4.38,1.04-7.49-1.92-1.88-4.6-.47-6.99-1.51-.49-.21-7.26-6.99-7.49-7.51-1.88-4.13.3-14.07-.52-18.98.8-1.12.43-2.27,2.48-4.01.85-.72,9.82-5.85,10.52-5.99,10.32-1.95,18.69,1.3,27.95,4.54,1.71.6,3.77.16,5.37.68,1.34.44,1.42,1.61,1.68,1.78Z"/>
      <path class="cls-31" d="M38,44c-5.67-2.01-6.14,6.63-5,10l-1.01-6c-2.74.82-2.57,6.78-1.49,9.01.95,1.97,5.52,3.14,7.49,4.55.95.68.91,2.37,1.02,2.44-1.62-.23-3.31-.72-5-1-1.43-.24-3.19-.91-4-1,.53-2.54-1.69-3.82-2.76-5.79s1.39-2.94-2.24-3.21c-.65-.05-1.34,0-2,0l.61-5.02-6.61-8.98c.49-1.42,1.74-1.59,2-2,2.37-3.69.35-11.42,1-16,1.04-3.58,1.46-2.86,3-5,.81,4.92-1.36,14.85.52,18.98.23.52,7,7.3,7.49,7.51,2.39,1.04,5.07-.37,6.99,1.51Z"/>
      <path class="cls-24" d="M19,37c.07-5.72-.58-10.57,1-16-.65,4.58,1.37,12.31-1,16Z"/>
      <path class="cls-52" d="M89,61c.28.37.01,5.99,1,9,.32.97,1.05,1.87,1,3-1.77-.29-3.08.94-4,1-2.31.16-4.68-.08-7,0-5.24.17-1.83.62-3.2,4.27-.78,2.08-3.91,3.34-2.8,6.73-1.53,1.67-3.57,4.77-4,7-.06.32.03.67,0,1-.53,5.33.74,13.17,1,19l-2.99-1c-.22,3.03-.9,6.64-4.01,8-.03-.04-.72-.04-1,0-.21-2.24.31-4.85,0-7-.11-.75-1.23-1.89-1.01-3.01-.98.41-1.93.8-2.99,1.01-1.31.26-2.75.89-4,1-1.18-4.46-11.13-3.81-11,0-.78-.18-.69-.45-1-1-2.03-3.6-1.18-1.03-4.74-2.75-1.63-.79-7.35-7.22-9.26-5.24-2.5,2.59,6.45,9.24,7.45,12.04,1.36,3.81-1.03,7.84,5.54,6.96.05.64-.15,1.54,0,2-3.2,2.68-4,5.58,0,8-.08,3.8,2.51,7.59-1,9-4.34-11.72-9.46-10.75-19-5,2.04-2.13,2.14-4.18,2-7,3.49.11,3.66-3.45,2.49-6.02-.52-1.14-2.13-1.49-2.49-1.98.28-8.29,1.5-14.53,2-22,.22-3.32,1.23-15.06-3-12,3.53-8.53-6.5-6.38-12-5v-1c.11-.1-.43-1.74.65-2.02,3.59-.95,11.87,1.63,14.35-.98.81-.85,1.2-5.64,3.55-2.01.28.43-.21,7.78.7,10.27,2.3,6.31,10.08,4.7,15.33,4.78,1.93.03,3.68-1.03,4.43-1.04,3.67-.05,9.86,2.52,14.01.51s5.77-12.93,7.47-14.53c1.13-1.07,3.03-.88,4.43-1.57,1-.49,1.67-1.87,2.79-2.21,7.3-2.18,9.3,3.12,8.3-10.2.57.03,1.92-.1,2,0ZM42,97c-.4-.81.72-3-1.63-3.88-6.09-2.28-4.64,8.08.63,6.88.09,1.82,1.96,4.28,3.71,4.79s17.11.66,13.28-2.79c-4.48-1.11-16.4,3.14-13.99-4.01,1.13.25,2.73-.15,3.99,0v-1.99c-.98.16-3.68-.27-3.99,0-.19.16.18,1.45,0,1.99-.4-.09-1.93-.86-2-1ZM57.99,97.99c.18-4.2-6.17-4.2-5.99,0h5.99ZM36,122c2.73-2.72-3.78-14.05-6.93-9.92-2.17,2.84,3.62,13.22,6.93,9.92Z"/>
      <path class="cls-64" d="M6,99c-.48-.64.34-7.35.01-9,1.29,1.9,6.14,2.61,6.77,3.28.4.43.04,1.83.51,2.4s1.63.22,1.71.32c.28.36.82,2.36,2,4,.07,1.43.05,4.02-1,5-.18.16-1.75-.54-2.05.62-1.82,7.16,3.16,5.04,6.05,8.38-.66.03-1.34-.05-2,0-6.88.52-8.76.92-9.94-6.56-.29-1.87.29-7.98-.06-8.45-.17-.22-1.84.22-2,0Z"/>
      <path class="cls-50" d="M11,81c5.5-1.38,15.53-3.53,12,5-.57,1.37-1.21,1.32-2,2-.59.51-2.43,1.89-3,2-7.48,1.4-10.15-2.02-7-9Z"/>
      <path class="cls-62" d="M11,80v1c-3.15,6.98-.48,10.4,7,9v1c-1.17,2.38-5.27,2.56-3,5-.08-.1-1.22.27-1.71-.32s-.11-1.97-.51-2.4c-.63-.67-5.48-1.38-6.77-3.28.33,1.65-.49,8.36-.01,9h-1c-.1-3.98-.01-8.02,0-12,3.83,1.27,3.33-3.35,4-7,.56-.12,1.79.19,2,0Z"/>
      <path class="cls-49" d="M16,105c-.71,2.77,2.09,1.89,4,3,.19,1.91.21,3.67,1,5.49l-1,.51c-2.88-3.34-7.87-1.22-6.05-8.38.3-1.16,1.87-.46,2.05-.62Z"/>
      <path class="cls-43" d="M24,120c-1.42-1.94-1.52-15.53-.98-18.48.34-1.87,1.33-2.79,2.98-3.52-.5,7.47-1.72,13.71-2,22Z"/>
      <path class="cls-28" d="M23,90c.2,1.19.32,8.68,0,8.99-.36.35-2.52.35-2.99-.99-.69-1.96-.56-8.67,3-8Z"/>
      <path class="cls-46" d="M20,108c-1.91-1.11-4.71-.23-4-3,1.05-.98,1.07-3.57,1-5,.48.67,2.21.81,2.8,2.71.54,1.75.03,3.55.2,5.29Z"/>
      <path class="cls-26" d="M6,99c.16.21,1.83-.23,2,0,.36.47-.23,6.58.06,8.45,1.18,7.48,3.06,7.08,9.94,6.56-.69,1.34-2.09.74-3,1-8.3.81-5.51-.91-7.19-5.34-.56-1.49-2.57-1.34-2.83-2.35-.48-1.87.08-5.92.02-8.31h1Z"/>
      <path class="cls-43" d="M23,90c-3.56-.67-3.69,6.04-3,8l-2-7v-1c.57-.11,2.41-1.49,3-2,.46.53,1.92,1.51,2,2Z"/>
      <path class="cls-2" d="M10,71c-.1.97.14,2.06,0,3-.25,1.65-.73,3.31-1,5-3.72.57-2.4,2.58-4,5,.04-3.32-.13-6.69,0-10,2.52.61,2.07-1.55,3-3,.64-.09,1.43.13,2,0Z"/>
      <path class="cls-42" d="M9,80c-.67,3.65-.17,8.27-4,7,0-1-.01-2,0-3,1.6-2.42.28-4.43,4-5-.05.33.06.68,0,1Z"/>
      <path class="cls-29" d="M73,14c5.42,7.12,3.7,16.39,6,25-1.28,2.06-4.49,6.46-5.29,8.3s-.3,3.02.29,4.7c-3.84,1.25-1.91,1.54-3,3-.61.81-2.68,3.75-3,4-.94.72-2.35.62-3,1,3.16-2.58,5.57-11.1,0-12l-1.01,7c.84-.82,1.32-15.53-6-10h-1c.43-1.69,6.48-2.63,8.51-3.99,7.51-5.01,6.41-20.18,5.49-28.01.55.35,1.77.7,2,1Z"/>
      <path class="cls-73" d="M79,51c-1.67.52-3.63.56-5,1-.59-1.69-1.06-2.93-.29-4.7s4-6.24,5.29-8.3c.07.24,1.26.93,1.55,1.9,1.52,5.13-.37,6.07-1.55,10.1Z"/>
      <path class="cls-10" d="M30,62c.81.09,2.57.76,4,1,.62,1.39,1.64,2.35,3,3,3.88,1.86,18.71,1.51,23,0,2.41-.85,2.94-1.87,6-3-.81,8.98-10.3,8.43-15,13-.45.44-1.8.69-2,1-12.68-2.99-17.67-16.2-32-13v-1c.34-.31.66-.67,1-1,4.32-.04,7.65-.47,12,0Z"/>
      <path class="cls-72" d="M25,53c3.63.27,1.12,1.15,2.24,3.21s3.29,3.25,2.76,5.79c-4.35-.47-7.68-.04-12,0,.18-.17-.6-1.75.63-2.04,1.71-.41,7.79.55,8.37.04l-2-6.99Z"/>
      <path class="cls-5" d="M17,64c-.26,2.79-4.47,6.42-7,7-.57.13-1.36-.09-2,0,2.78-4.36,5.58-4.84,9-8v1Z"/>
      <path class="cls-60" d="M43,110c.31.55.22.82,1,1s2.04-.06,3,0v1c-1.33.03-2.68-.04-4,0v12.01c-.59-.32-.69-.06-1-1-.15-.46.05-1.36,0-2-.27-3.64,1.25-7.95-1.99-10.52l2.99-.48Z"/>
      <path class="cls-60" d="M51,112c2.81.09,6.86-1.16,6,2-.38.28-.67.67-1,1-.31-.02-.85-.08-1,0-1.45.76-.36,3.96-3,3-.34-1.81.46-4.17-1-6Z"/>
      <path class="cls-70" d="M59,110c.32,2.44-.36,2.79-2,4,.86-3.16-3.19-1.91-6-2-1.33-.04-2.67-.03-4,0v-1c2.39.16,5.64.21,8,0,1.25-.11,2.69-.74,4-1Z"/>
      <path class="cls-23" d="M41,140c.17.47-.12,1.39,0,2-.64.09-1.43-.13-2,0,.18-4.27-5.41-3.34-5,0-4.48-4.22-3.74-.22-4.65,0-2.35.55-5.78-.35-8.35,0-1.84-1.83-.6-3.21-1-5,.67-.58,1.29-1.57,2-2,9.54-5.75,14.66-6.72,19,5Z"/>
      <path class="cls-21" d="M34,142v1c-3.06.14-11.29.7-13-1,2.56-.35,6,.55,8.35,0,.92-.21.17-4.21,4.65,0Z"/>
      <path class="cls-36" d="M39,142c-1.98.46-2.32.87-5,1v-1c-.41-3.34,5.18-4.27,5,0Z"/>
      <path class="cls-14" d="M77,140c.21,2.96-.15,6.03,0,9.01-5.99.05-12.02-.08-18.01,0-3.82-7.9.21-18.52,10.38-14.87,1.57.56,2.45,6.74,7.62,5.87Z"/>
      <path class="cls-36" d="M87,61c1,13.32-1,8.02-8.3,10.2-1.12.33-1.79,1.72-2.79,2.21-1.4.69-3.31.5-4.43,1.57-1.69,1.61-3.25,12.48-7.47,14.53s-10.34-.56-14.01-.51c-.17-.88.25-2.32,0-3,6.61-3.7,2.37-4.8,1-10,4.7-4.57,14.19-4.02,15-13,.57-.21,1.08-.81,2-1,6.16-1.29,12.67-1.33,19-1Z"/>
      <path class="cls-18" d="M69,60c-.38.32-.62,1.48-1,2-.92.19-1.43.79-2,1-3.06,1.13-3.59,2.15-6,3-.39-1.7-3.12-.95-4.5-1-4.54-.18-9.76.51-14.1.05-1.4-.15-2.22-1.02-2.4-1.05.77.51,16.77.32,18.48-.02.53-.1,6.4-3.33,7.52-3.98.65-.38,2.06-.28,3-1l1,1Z"/>
      <path class="cls-68" d="M71,55c-.77,4.44,7.46.08,10,3-4.55.11-8.39-1.04-12,2l-1-1c.32-.25,2.39-3.19,3-4Z"/>
      <path class="cls-32" d="M92,74c.48,2.65-.05,7.01,0,10-3.65-1.84-5.17-11.68,0-10Z"/>
      <path class="cls-3" d="M80,84c.77.77-.21.35,2,2,.63.47,1.05,1.18,1.99,1.01-.44,3.11-2.57,4.79-4.99,5.99l-1.02-3.01-7.98,2.01c.43-2.23,2.47-5.33,4-7,1.63-1.78,3.42-3.6,6-1Z"/>
      <path class="cls-15" d="M80,75h6.01c-.16,3.14.22,6.38,0,9.53-.19,2.85-2.48,1.04-4.01,1.47-2.21-1.65-1.23-1.23-2-2v-9Z"/>
      <path class="cls-66" d="M80,74v10c-2.58-2.6-4.37-.78-6,1-1.11-3.39,2.02-4.65,2.8-6.73,1.37-3.65-2.04-4.1,3.2-4.27Z"/>
      <path class="cls-11" d="M63,112c.31,2.15-.21,4.76,0,7-1.49.22-3.01,3-3.5,2.98-.41-.02-5.35-5.24-4.5-6.98.15-.08.69-.02,1,0,1.54.11,3.25,1.31,5,1.01.14-2.54-1.01-4.63,2-4.01Z"/>
      <path class="cls-47" d="M38,44c3.18,3.12-.88,5.29-1.04,7.49-.02.22,3.92,1.61,2.04,3.5-.23.23-5.48.55-6-1-1.14-3.37-.67-12.01,5-10Z"/>
      <path class="cls-16" d="M64,55c-.53.51-4.76.18-6-1,5.27-4.97.15-3.6,0-9,7.32-5.53,6.84,9.18,6,10Z"/>
      <path class="cls-74" d="M58,54c-1.08-1.03-.14-6.6-1-9h1c.15,5.4,5.27,4.03,0,9Z"/>
      <path class="cls-44" d="M39,64c.19.03,1.01.9,2.4,1.05,4.33.46,9.56-.23,14.1-.05,1.38.05,4.11-.7,4.5,1h-23c-1.36-.65-2.38-1.61-3-3,1.69.28,3.38.77,5,1Z"/>
      <path class="cls-36" d="M49,77c-.15.24-1.88,5.05-1.84,5.33.19,1.36,2.55,2.87,2.84,3.67.25.68-.17,2.12,0,3-.75,0-2.5,1.07-4.43,1.04-5.25-.08-13.02,1.53-15.33-4.78-.91-2.49-.42-9.84-.7-10.27-2.35-3.63-2.74,1.16-3.55,2.01-4.88-1.12-14.41,2.88-16-3,.14-.94-.1-2.03,0-3,2.53-.58,6.74-4.21,7-7,14.33-3.2,19.32,10.01,32,13Z"/>
      <path class="cls-35" d="M42,121c-6.57.88-4.18-3.14-5.54-6.96-1-2.79-9.95-9.45-7.45-12.04,1.9-1.98,7.63,4.46,9.26,5.24,3.55,1.72,2.71-.85,4.74,2.75l-2.99.48c3.24,2.57,1.72,6.87,1.99,10.52Z"/>
      <path class="cls-14" d="M36,122c-3.3,3.3-9.09-7.09-6.93-9.92,3.15-4.12,9.65,7.2,6.93,9.92Z"/>
      <path class="cls-22" d="M44,98c-2.41,7.15,9.51,2.89,13.99,4.01,3.83,3.45-11.61,3.27-13.28,2.79s-3.62-2.97-3.71-4.79c-.02-.45,1.19-2.05,1-3,.07.14,1.6.91,2,1Z"/>
      <path class="cls-8" d="M42,97c.19.95-1.02,2.55-1,3-5.27,1.2-6.72-9.16-.63-6.88,2.35.88,1.23,3.07,1.63,3.88Z"/>
      <path class="cls-41" d="M55,111c-2.36.21-5.61.16-8,0-.96-.06-2.19.18-3,0-.13-3.81,9.82-4.46,11,0Z"/>
      <path class="cls-45" d="M10,74c1.59,5.88,11.12,1.88,16,3-2.47,2.61-10.76.03-14.35.98-1.08.29-.54,1.92-.65,2.02-.21.19-1.44-.12-2,0,.06-.32-.05-.67,0-1,.27-1.69.75-3.35,1-5Z"/>
      <path class="cls-57" d="M63,112c-3.01-.62-1.86,1.47-2,4.01-1.75.3-3.45-.9-5-1.01.33-.33.62-.72,1-1,1.64-1.21,2.32-1.56,2-4,1.06-.21,2.01-.59,2.99-1.01-.22,1.12.91,2.26,1.01,3.01Z"/>
      <path class="cls-32" d="M57.99,97.99h-5.99c-.18-4.2,6.17-4.2,5.99,0Z"/>
      <path class="cls-32" d="M44,98c.18-.54-.18-1.83,0-1.99.31-.27,3.01.16,3.99,0v1.99c-1.26-.15-2.87.26-3.99,0Z"/>
      <path class="cls-51" d="M50,86c-.29-.81-2.65-2.31-2.84-3.67-.04-.28,1.69-5.09,1.84-5.33.2-.31,1.55-.56,2-1,1.37,5.2,5.61,6.3-1,10Z"/>
      <path class="cls-1" d="M60,66c-4.29,1.51-19.12,1.86-23,0h23Z"/>
    </g>
  </g>
</svg>