<?xml version="1.0" encoding="UTF-8"?>
<svg id="_Слой_2" data-name="Слой 2" xmlns="http://www.w3.org/2000/svg" viewBox="0 0 75 151">
  <defs>
    <style>
      .cls-1 {
        fill: #4a2114;
      }

      .cls-2 {
        fill: #461f13;
      }

      .cls-3 {
        fill: #965d48;
      }

      .cls-4 {
        fill: #fcd3b5;
      }

      .cls-5 {
        fill: #482c24;
      }

      .cls-6 {
        fill: #492015;
      }

      .cls-7 {
        fill: #ce8f74;
      }

      .cls-8 {
        fill: #fbd1b3;
      }

      .cls-9 {
        fill: #c89075;
      }

      .cls-10 {
        fill: #f7d7c0;
      }

      .cls-11 {
        fill: #f7dbc4;
      }

      .cls-12 {
        fill: #4d281d;
      }

      .cls-13 {
        fill: #fadfc8;
      }

      .cls-14 {
        fill: #401a0f;
      }

      .cls-15 {
        fill: #572c20;
      }

      .cls-16 {
        fill: #8a4a32;
      }

      .cls-17 {
        fill: #2f1711;
      }

      .cls-18 {
        fill: #998e8c;
      }

      .cls-19 {
        fill: #d89a7c;
      }

      .cls-20 {
        fill: #c88f73;
      }

      .cls-21 {
        fill: #3a231d;
      }

      .cls-22 {
        fill: #fdd4b6;
      }

      .cls-23 {
        fill: #421a0f;
      }

      .cls-24 {
        fill: #fde4ce;
      }

      .cls-25 {
        fill: #3a2b22;
      }

      .cls-26 {
        fill: #fce2cb;
      }

      .cls-27 {
        fill: #fadfc9;
      }

      .cls-28 {
        fill: #d1957a;
      }

      .cls-29 {
        fill: #894b34;
      }

      .cls-30 {
        fill: #7c4b3f;
      }

      .cls-31 {
        fill: #92543d;
      }

      .cls-32 {
        fill: #926556;
      }

      .cls-33 {
        fill: #d39074;
      }

      .cls-34 {
        fill: #d8997c;
      }

      .cls-35 {
        fill: #d69c7f;
      }

      .cls-36 {
        fill: #8e4e36;
      }

      .cls-37 {
        fill: #e6a481;
      }

      .cls-38 {
        fill: #5c362b;
      }

      .cls-39 {
        fill: #f5caad;
      }

      .cls-40 {
        fill: #d89c7f;
      }

      .cls-41 {
        fill: #f9cdb0;
      }

      .cls-42 {
        fill: #9c5f47;
      }

      .cls-43 {
        fill: #fbd2b4;
      }

      .cls-44 {
        fill: #5f3f35;
      }

      .cls-45 {
        fill: #da9d7f;
      }

      .cls-46 {
        fill: #39221b;
      }

      .cls-47 {
        fill: #3d231b;
      }

      .cls-48 {
        fill: #79483d;
      }

      .cls-49 {
        fill: #502a1f;
      }

      .cls-50 {
        fill: #fce2cc;
      }

      .cls-51 {
        fill: #382019;
      }

      .cls-52 {
        fill: #cc9075;
      }

      .cls-53 {
        fill: #7a493e;
      }

      .cls-54 {
        fill: #d69579;
      }

      .cls-55 {
        fill: #78473b;
      }

      .cls-56 {
        fill: #9e9491;
      }

      .cls-57 {
        fill: #67463d;
      }

      .cls-58 {
        fill: #3e2720;
      }
    </style>
  </defs>
  <g id="_Слой_14_Изображение" data-name="Слой 14 Изображение">
    <g>
      <path class="cls-14" d="M8,71c.17,3.45-.5,7.83,0,11,.7,4.46,5.1,4.49,5.84,6.66.9,2.64-.27,7.31.16,10.34.22,1.58,2.55,11.58,3,12-2.37,1.48-2.66.24-3,3-.38,3.1.86,4.44,1,6,.04.4-1.37,1.93-.91,3.36.49,1.52,6.66,6.29,8.91,4.64.39-2.17-.91-3.41-1.99-4.99l1-1c.29.38,1.65.59,2,1,2.75,3.26,7.32,6.34,6.02,11.29-.29,1.11-3.54,1.26-3.02,3.71-.24.07-.92,1.25-1.94,1.56-1.5.46-3.3.18-4.06.44-1.98.69-.68,5.08-1,7-.27-.44-1.61-.41-1.98-2.47-.2-1.12-.23-7.22.03-7.48.35-.35,7.99-.35,8.93-3.54-2.79-3.24-7.88-.92-11-1.9-7.03-2.22-4.07-8.15-5-13.08-.43-2.3-2.6-2.67-3.04-5.96-.3-2.2-.35-10.92.08-12.86.19-.86,2.97-.67,2.89-5.08-.11-5.84-6.1-4.6-6.97-11.06-.42-3.09-.33-12.75,1-15.15.39-.7,1.64-.96,2.06-1.4.84,1.23.93,2.56,1,4ZM13.99,106h-2.99c-.72,7.67,3.71,7.67,2.99,0Z"/>
      <path class="cls-36" d="M49,58c2.1.96,5.71,1.86,5,4-11.9-.19-9.36,4.96-15,6-7.41,1.37-18.68-1.01-26.54-.07-1.94.23-1.82,2.33-3.46,3.07h-1c-.07-1.44-.16-2.77-1-4,.13-.14-.35-1.31.24-1.79,1.48-1.23,4.34,1.93,1.76-5.21.5.16,1.38-.11,2,0,3.12,1.36,6.81,3.11,10,4,4.4,1.22,12.23,1.89,16.6.18,2.03-.79,4.63-6.01,7.4-7.18,1.58.92,3.15.61,4,1Z"/>
      <path class="cls-23" d="M42,104c1.59-.83,2.53-2.64,3,.53.4,2.69-.26,8.15.91,9.88.82,1.2,2.24.36,3.09.59,3.15.86,5.42,1.49,9,1-.84,1.21-2.95,3.47-3.02,3.71-1.13,4.24,1.48,10.59-.98,15.29-.71.12-1.89-1.01-2-1,1.24-6.3-1.32-8.17-4.02-12.99-5.13-.59-2.1,9.17-2.99,10h-2.99c-.08-1.99.08-4.01,0-6.01-.01-.33,0-.67,0-1-.11-3.97-.06-8.03,0-12,.04-2.54-.3-5.6,0-8Z"/>
      <path class="cls-12" d="M8,11c-.26,1.13.25,2.84,0,4-.72,3.31-2.09,4.22-3,6s-2.07,22.46-2,26c-2.3-.7-1.93-2.58-2.06-4.45-.33-4.91-.77-18.89.03-23.09.45-2.32,2.36-2.04,2.74-2.74,1.11-2.04-.09-5.62,4.29-5.72Z"/>
      <path class="cls-46" d="M67,105c-3.23.74-1.74-2.35-2-5,.18-.28-.39-1.73.24-2.72.92-1.45,4.08-1.04,4.76-5.28.53-3.32.32-11.42,0-15-.15-1.75-.32-2.41-1-4l2-2c.06.15,1.61.4,1.99,2.48.5,2.83.52,17.24,0,20-.12.65-4.78,8.59-5.98,11.52Z"/>
      <path class="cls-51" d="M56,12c.08.11,1.35-.32,1.76.2.77.97,2.85,8.06,3.24,9.8-.18,5.31.25,10.7,0,16-.11,2.39.31,4.67-.45,7.05-.91,2.86-3.33,3.44-4.55,4.95l-1-2c.2-.15,2.94-3.76,3-4,1.29-4.44,2.1-19.85,0-23-1.62-2.42-2.61-1.45-3-6-.09-1.07-.21-2.54,1-3Z"/>
      <path class="cls-58" d="M17,4c1.28-.65.26-1.68,4.44-2.06,5.83-.52,14.07-.14,20.1.06,1.92.06,4.01-1.02,3.45,2-.16,0-1.34,1.02-3,1-6.13-.07-12.42-.24-18.55,0-1.92.08-4.01-1.03-3.45,2-.39-.09-1.77-.77-2-1-.21-.21.25-2.13-1-2Z"/>
      <path class="cls-2" d="M56,50c-.22.28-.19,1.62-.94,2.56-1.41,1.75-4.26.9-3.06,5.44-1,0-2,0-3,0-.85-.39-2.42-.08-4-1-2.54-1.47-2.1-2.68-3-4,2.76.26,4.63-1.97,7-3,1.68-.73,4.4-.8,6-2l1,2Z"/>
      <path class="cls-49" d="M52,58c6.98,0,10.55-1.94,15,4l-2,1.98c3.57-.1,4.66,5.84,1,5.02-.34-.33-.61-.7-1-1-2.5-6.43-5.07-5.9-11-6,.71-2.14-2.9-3.04-5-4,1,0,2,0,3,0Z"/>
      <path class="cls-42" d="M5,38c.36,6.41,2.25,6.81,2.96,10.54.48,2.57-.6,9.13.04,10.46-1.29-.66-3.33-1.09-3.84-2.66-.15-.45-1.14-8.47-1.16-9.34-.07-3.54,1.1-24.23,2-26,.23,5.63-.32,11.38,0,17Z"/>
      <path class="cls-5" d="M45,4c6.22.2,7.83,3.79,11,8-1.21.46-1.09,1.93-1,3-4.28-1.28-8.69-8.06-13-9v-1c1.66.02,2.84-1.01,3-1Z"/>
      <path class="cls-21" d="M52,134c.11-.01,1.29,1.12,2,1-.62,1.18-3.81,1.86-1.99,4.99-8.36-.48-5.62,1.48-8.01,6.01-2.22-1.98-.41-6.38-1-9,3.73,1.03,6-2.7,9-3Z"/>
      <path class="cls-28" d="M62,103c-.85,2.3-1.9,9.79-2,11s-1.7,1.57-2,2c-3.58.49-5.85-.14-9-1v-1c10.74.78,8.01-3.41,10.22-9.32.48-1.28,1.73-1.57,1.78-1.68h1Z"/>
      <path class="cls-38" d="M65,100c.26,2.65-1.23,5.74,2,5-.95,2.32-1.58,1.9-1.95,2.73-1.22,2.75,1.35,5.23-5.05,6.27.1-1.21,1.15-8.7,2-11,.38-1.03,2.57-2.34,3-3Z"/>
      <path class="cls-21" d="M27,147c1.66.05,3.34,0,5,0h11c-.39.56-.64,1.67-1,2-6.07.59-13.29-1.28-19,1-3.23-.47-2.38-1.97-3-3,2.32.05,4.68-.08,7,0Z"/>
      <path class="cls-47" d="M43,137c.59,2.62-1.22,7.02,1,9-.19.36-.75.64-1,1h-11v-1h10.01c.06-.66-.05-1.34,0-2,.3-4.9-1.21-5.44-2-9,1.42,0,2.67.54,3,2Z"/>
      <path class="cls-6" d="M18,6c-.39.53-.61,1.66-1,2-3.55-.93-5.69,1.91-9,2,.95-3.07,6.07-4.51,9-6,1.25-.13.79,1.79,1,2Z"/>
      <path class="cls-17" d="M71,71l-2,2c-.15-.35-.8-.65-1-1-.47-.81-1.43-2.46-2-3,3.66.82,2.56-5.12-1-5.02l2-1.98c2.56,3.42,2.58,5.27,4,9Z"/>
      <path class="cls-57" d="M17,8c-2.65,2.31-6.24,4.68-9,7,.25-1.16-.26-2.87,0-4,.08-.33-.09-.71,0-1,3.31-.09,5.45-2.93,9-2Z"/>
      <path class="cls-56" d="M42,149c-1.58,1.46-16.02,1.44-19,1,5.71-2.28,12.93-.41,19-1Z"/>
      <path class="cls-18" d="M61,38c.25-5.3-.18-10.69,0-16,1.11,4.95,2.12,11.3,0,16Z"/>
      <path class="cls-3" d="M9,60c-.37-.12-.67-.83-1-1,.08.16.78-.15,1,0v1Z"/>
      <path class="cls-19" d="M45,78c2.61,1.34,6.07,2.38,9,3,.32.07.67-.05,1,0,.08,1.48-1.63,3.95-3,4-.58.02-3.61-1.88-6,.01,4.03,5.45,3.54,8.24,1,13.99-2.84-.78-1.52,2.09-2.21,2.79-1.05,1.06-2.33-1.41-2.79,2.21-.3,2.4.04,5.46,0,8-4.28-.11-3.23,6.82-3,9.55.26,3.05-.53,2.57,3,2.45,0,.33-.01.67,0,1l-3,1c-.24-.77-2.4-1.4-2.82-2.66-.99-2.97.7-6.96-.7-10.31-.94-2.26-6.78-5.67-8.48-4.03-.41.4-.2,10.41.15,11.39.45,1.28,2.29,1.31,2.61,1.84.67,1.11-.04,3.21.72,4.8.71,1.48,6.34,3.62,5.58,8.38-2.18,1.09-4.81,2.14-7.11,2.93-1.05.36-1.85-.37-1.94-.34-.52-2.44,2.73-2.59,3.02-3.71,1.29-4.95-3.28-8.03-6.02-11.29-.48-2.99.7-7.68.02-10.3-.27-1.05-2.38-.9-2.87-2.35-2.09-6.3-2.49-3.85-3.68-6.31-.75-1.54-.05-3.96-.74-4.82-.38-.48-1.68-.12-1.74-.21-.36-.53-.49-10.28-.72-12.8-.17-1.92-1.44-3.68,1.72-3.2-.21.54-.97,1.2-.97,1.53.02,3.74,12.38,6.4,16.27,5.26,2.76-.81,4.1-5.07,4.94-5.55,1.33-.76,4.03.1,5.77-1.24,2.38-1.83-.75-5.85,3-5ZM31.99,94.01h-7.99c4.63,2.86,2.75,6.09,3,11,5.38,1.17,2.82-4.55,3.29-7.36.22-1.33,2.25-1.85,1.7-3.64ZM46,94.01c-2.73-.21-7.41-.25-9.34,1.94-3.2,3.65,4.09,3.9,4.4,3.63.85-.74.58-2.66,1.2-3.32.85-.89,3.5-.12,3.73-2.26ZM24,96.01h-6c-1.84,6.19,8.23,1.92,6,0Z"/>
      <path class="cls-4" d="M39,126c.5,1.62.29,5.81,1,9,.79,3.56,2.3,4.1,2,9-3.25.43-8.47-1.51-10,2v1c-1.66,0-3.34.05-5,0,1.31-6.16-7.5-1.28-6-7,.75-.26,2.55.02,4.06-.44,1.02-.31,1.7-1.48,1.94-1.56.09-.03.89.7,1.94.34,2.3-.79,4.93-1.85,7.11-2.93.77-4.76-4.87-6.9-5.58-8.38-.76-1.59-.06-3.69-.72-4.8-.32-.54-2.15-.56-2.61-1.84-.35-.98-.56-10.99-.15-11.39,1.69-1.64,7.54,1.77,8.48,4.03,1.4,3.35-.29,7.35.7,10.31.42,1.27,2.59,1.89,2.82,2.66Z"/>
      <path class="cls-33" d="M39,68c-.28,1.35-.44,3.42-2,4-6.5-5.87-18.22-2.38-22,5-2.32,4.53,1.26,3.08,1.99,4.03.97,1.28-.95,1.87-.99,1.97-3.16-.48-1.89,1.28-1.72,3.2.23,2.52.36,12.27.72,12.8h-1c-.43-3.03.73-7.7-.16-10.34-.74-2.17-5.14-2.2-5.84-6.66,5.47,1.19,1.8-4.39,3.22-6.8.46-.79,4.62-1.2,2.27-4.2h-4.49c1.64-.74,1.52-2.83,3.46-3.06,7.87-.95,19.14,1.44,26.54.07Z"/>
      <path class="cls-29" d="M15,99c.06.09,1.36-.27,1.74.21.69.86-.01,3.28.74,4.82,1.2,2.47,1.59.02,3.68,6.31.48,1.45,2.6,1.31,2.87,2.35.68,2.63-.51,7.31-.02,10.3-.35-.41-1.71-.62-2-1-2.71-3.57-1.22-6.36-2.14-9.39-.54-1.78-2.55-1.32-2.86-1.61-.45-.42-2.78-10.42-3-12h1Z"/>
      <path class="cls-55" d="M21,123c1.09,1.58,2.38,2.82,1.99,4.99-2.25,1.65-8.42-3.12-8.91-4.64-.46-1.43.95-2.96.91-3.36,1.82-.91,2.41-1.93,2-4,1.29,4.49,2.15,4.3,4,7Z"/>
      <path class="cls-39" d="M9,71h4.49c2.35,2.99-1.81,3.41-2.27,4.2-1.42,2.41,2.25,8-3.22,6.8-.5-3.17.17-7.55,0-11h1Z"/>
      <path class="cls-15" d="M22,122l-1,1c-1.85-2.7-2.71-2.51-4-7-.22-.77.17-2.08,0-3l-3,1c.34-2.76.63-1.52,3-3,.31.29,2.32-.17,2.86,1.61.92,3.03-.57,5.81,2.14,9.39Z"/>
      <path class="cls-9" d="M21,140c-1.5,5.72,7.31.84,6,7-2.32-.08-4.68.05-7,0,.32-1.92-.98-6.31,1-7Z"/>
      <path class="cls-30" d="M14,114l3-1c.18.93-.22,2.23,0,3,.41,2.07-.18,3.09-2,4-.14-1.56-1.38-2.9-1-6Z"/>
      <path class="cls-53" d="M13.99,106c.72,7.67-3.71,7.67-2.99,0h2.99Z"/>
      <path class="cls-22" d="M42,6c4.31.94,8.72,7.72,13,9,.39,4.55,1.38,3.58,3,6-.15,5.31.21,10.69,0,16-3.2-.81-2.13,3.56-3.51,4.01-2.42.79-1.64-3.24-2.63-3.87-.79-.5-6.86-.31-8.15.06-2.73.8-4.52,4.68-5.7,6.8-.13.23-1.46.44-1.8,1.66-.57,2.01.36,4.59-.69,6.35-1.27,2.11-8.17,3.72,2.49,4-2.22,8.49-9.55,8.58-17,7.99-3.19-.89-6.88-2.64-10-4-.44-.19-1.72-.81-2-1-.22-.15-.92.16-1,0-.65-1.33.44-7.89-.04-10.46-.7-3.73-2.59-4.13-2.96-10.54,2.32-5.6,3.59-13.96,6.22-19.28,2.22-4.48,8.48-6.58,9.78-11.72,6.08.25,14.79-2.35,21-1ZM19,46c-2.99,5.26,1.56,2.97,1.01,5.5-.11.5-3.41.76-2.02,4.5,5.92,1.53,6.72-2.87,6-8,9.63-3.69-1.47-8.21-5-2Z"/>
      <path class="cls-37" d="M54,62c5.93.1,8.5-.43,11,6-3.37-2.64-11.61-7.24-12.99-.42-.94,4.68,4.06,3.84,4.99,8.42-.26.05-1.64,2.38-2,3-.47-5.94-6.84-12.43-13-10.99,1.1,3.4-.24,8.33,3,9.99-3.75-.85-.62,3.17-3,5,1.73-6.45-4.91-6.89-6-11,.32.02.8.08,1,0,1.56-.58,1.72-2.65,2-4,5.64-1.04,3.1-6.19,15-6Z"/>
      <path class="cls-19" d="M39,45c.13,1.33-.36,3.09-.02,4.26.07.24,2.15,2.47,3.02,3.74s.46,2.53,3,4c-2.77,1.17-5.37,6.39-7.4,7.18-4.38,1.71-12.21,1.04-16.6-.18,7.45.59,14.77.5,17-7.99-10.66-.29-3.76-1.89-2.49-4,1.06-1.75.12-4.34.69-6.35.35-1.22,1.68-1.43,1.8-1.66.18.38.98.82,1,1Z"/>
      <path class="cls-16" d="M11,60c-.62-.11-1.5.16-2,0v-1c.28.19,1.56.81,2,1Z"/>
      <path class="cls-48" d="M42,125c.08,1.99-.08,4.01,0,6.01h2.99c.88-.83-2.14-10.59,2.99-10,2.7,4.82,5.26,6.69,4.02,12.99-3,.3-5.27,4.03-9,3-.33-1.46-1.58-2-3-2-.71-3.19-.5-7.38-1-9l3-1Z"/>
      <path class="cls-31" d="M47,99c-.45,1.01-1.39,1.55-1,2.99,1.65-.04,3.34.08,5,0l-4.04,1.52,2.04,10.48v1c-.84-.23-2.27.61-3.09-.59-1.18-1.73-.52-7.19-.91-9.88-.47-3.17-1.41-1.37-3-.53.46-3.62,1.74-1.14,2.79-2.21.69-.7-.63-3.57,2.21-2.79Z"/>
      <path class="cls-4" d="M42,112c-.06,3.97-.11,8.03,0,12-3.52.13-2.74.61-3-2.45-.23-2.73-1.28-9.66,3-9.55Z"/>
      <path class="cls-52" d="M20,7c.28.07.66-.01,1,0-1.29,5.14-7.56,7.24-9.78,11.72-2.63,5.31-3.9,13.68-6.22,19.28-.32-5.62.23-11.37,0-17,.91-1.78,2.28-2.69,3-6,2.76-2.32,6.35-4.69,9-7,.39-.34.61-1.47,1-2,.23.23,1.61.91,2,1Z"/>
      <path class="cls-40" d="M70,92c-.68,4.25-3.84,3.84-4.76,5.28-.63.99-.06,2.44-.24,2.72-.43.66-2.62,1.97-3,3h-1c.68-1.7,3.88-9,3.99-9.52.7-3.6-.45-8.66.01-12.48,6.12.6.29,8.79,5,11Z"/>
      <path class="cls-10" d="M70,77c.32,3.58.53,11.68,0,15-4.71-2.21,1.12-10.4-5-11-.66-.06-1.34.04-2,0,.87-1.2,2.76-3.49,4-4,.62-.26,2.14.17,3,0Z"/>
      <path class="cls-35" d="M69,73c.68,1.59.85,2.25,1,4-.86.17-2.38-.26-3,0-2.13.24-2.24.13-2-2,1.6-.84,3.57-.6,3-3,.2.35.85.65,1,1Z"/>
      <path class="cls-34" d="M38,44c1.18-2.11,2.98-6,5.7-6.8,1.29-.38,7.36-.56,8.15-.06,1,.63.21,4.65,2.63,3.87,1.38-.45.31-4.81,3.51-4.01-.08,1.99.41,5.46,0,7-.06.24-2.8,3.85-3,4-1.6,1.2-4.32,1.27-6,2,.13-14.83-.04-11.22-10-5-.02-.18-.82-.62-1-1Z"/>
      <path class="cls-44" d="M58,44c.41-1.54-.08-5.01,0-7,.21-5.31-.15-10.69,0-16,2.1,3.15,1.29,18.56,0,23Z"/>
      <path class="cls-20" d="M42,5v1c-6.21-1.35-14.92,1.25-21,1-.34-.01-.72.07-1,0-.56-3.03,1.53-1.92,3.45-2,6.13-.24,12.42-.07,18.55,0Z"/>
      <path class="cls-43" d="M49,50c-2.37,1.03-4.24,3.26-7,3-.87-1.27-2.95-3.49-3.02-3.74-.34-1.17.15-2.93.02-4.26,9.96-6.22,10.13-9.83,10,5Z"/>
      <path class="cls-50" d="M65,68c.39.3.66.67,1,1,.57.54,1.53,2.19,2,3,.57,2.4-1.4,2.16-3,3-5.94,3.13-5.79.61-8,1-.93-4.58-5.93-3.74-4.99-8.42,1.37-6.82,9.61-2.22,12.99.42Z"/>
      <path class="cls-27" d="M65,81c-.47,3.83.69,8.89-.01,12.48-.1.51-3.31,7.82-3.99,9.52-.05.11-1.3.4-1.78,1.68-2.21,5.91.51,10.1-10.22,9.32l-2.04-10.48,4.04-1.52c.33-.02.68.04,1,0,3.67-.46,1.86-2.66,3.97-5.53,1.22-1.65,3.88-2.42,4.52-3.47,1.35-2.22.04-6.75.52-9.52.37-2.14,1.57-1.91,1.99-2.48.66.04,1.34-.06,2,0Z"/>
      <path class="cls-7" d="M42,144c-.04.66.06,1.34,0,2h-10.01c1.53-3.51,6.75-1.56,10-2Z"/>
      <path class="cls-24" d="M36,72c1.09,4.11,7.73,4.55,6,11-1.74,1.34-4.44.48-5.77,1.24-.84.48-2.17,4.74-4.94,5.55-3.88,1.14-16.24-1.52-16.27-5.26,0-.33.76-.99.97-1.53.04-.1,1.96-.69.99-1.97-.73-.96-4.31.5-1.99-4.03,3.47-.06,5.1-5.04,7.71-5.8,4.48-1.31,9.43.55,13.29.8Z"/>
      <path class="cls-45" d="M65,75c-.24,2.13-.13,2.24,2,2-1.24.51-3.13,2.8-4,4-.41.57-1.61.34-1.99,2.48-.48,2.76.83,7.29-.52,9.52-.64,1.06-3.31,1.82-4.52,3.47-2.11,2.88-.3,5.07-3.97,5.53-2.1-6.95,5.16-5.81,2-12,4.25,1.19,5.03-1.98,5.05-5.55s-1.37-3.07-4.05-3.45c-.33-.05-.68.07-1,0,.34-.66.63-1.35,1-2s1.74-2.95,2-3c2.21-.39,2.06,2.13,8-1Z"/>
      <path class="cls-26" d="M55,79c-.37.65-.66,1.34-1,2-2.93-.62-6.39-1.66-9-3-3.23-1.66-1.9-6.6-3-9.99,6.16-1.43,12.53,5.05,13,10.99Z"/>
      <path class="cls-1" d="M52,85c-1.18,3.08,1.56,4.14,2,5,3.16,6.19-4.1,5.05-2,12-.32.04-.67-.02-1,0-1.66.08-3.34-.05-5,0-.39-1.45.55-1.99,1-2.99,2.55-5.75,3.03-8.54-1-13.99,2.39-1.89,5.41.01,6-.01Z"/>
      <path class="cls-11" d="M55,81c2.68.38,4.07-.28,4.05,3.45s-.8,6.73-5.05,5.55c-.44-.86-3.18-1.92-2-5,1.37-.05,3.08-2.52,3-4Z"/>
      <path class="cls-41" d="M31.99,94.01c.55,1.79-1.47,2.31-1.7,3.64-.47,2.81,2.08,8.53-3.29,7.36-.26-4.91,1.62-8.14-3-11h7.99Z"/>
      <path class="cls-13" d="M46,94.01c-.23,2.14-2.88,1.36-3.73,2.26-.62.66-.35,2.57-1.2,3.32-.31.27-7.6.02-4.4-3.63,1.92-2.19,6.61-2.15,9.34-1.94Z"/>
      <path class="cls-8" d="M24,96.01c2.23,1.92-7.84,6.19-6,0h6Z"/>
      <path class="cls-54" d="M37,72c-.2.08-.68.02-1,0-3.87-.24-8.82-2.1-13.29-.8-2.61.76-4.24,5.73-7.71,5.8,3.78-7.38,15.5-10.87,22-5Z"/>
      <path class="cls-25" d="M24,48c.71,5.13-.09,9.52-6,8-1.39-3.74,1.91-4,2.02-4.5.54-2.52-4.01-.23-1.01-5.5,2.99-1.03,4.47-1.8,5,2Z"/>
      <path class="cls-32" d="M19,46c3.53-6.21,14.63-1.69,5,2-.53-3.8-2.01-3.03-5-2Z"/>
    </g>
  </g>
</svg>