<?xml version="1.0" encoding="UTF-8"?>
<svg id="_Слой_2" data-name="Слой 2" xmlns="http://www.w3.org/2000/svg" viewBox="0 0 102 148">
  <defs>
    <style>
      .cls-1 {
        fill: #fbdec7;
      }

      .cls-2 {
        fill: #e9aa86;
      }

      .cls-3 {
        fill: #411b0f;
      }

      .cls-4 {
        fill: #553025;
      }

      .cls-5 {
        fill: #7d4b3e;
      }

      .cls-6 {
        fill: #451f14;
      }

      .cls-7 {
        fill: #472014;
      }

      .cls-8 {
        fill: #4b2519;
      }

      .cls-9 {
        fill: #fcd2b4;
      }

      .cls-10 {
        fill: #fcd3b5;
      }

      .cls-11 {
        fill: #583124;
      }

      .cls-12 {
        fill: #fde3cd;
      }

      .cls-13 {
        fill: #edeae9;
      }

      .cls-14 {
        fill: #a26348;
      }

      .cls-15 {
        fill: #d89b7e;
      }

      .cls-16 {
        fill: #e7a682;
      }

      .cls-17 {
        fill: #4b261c;
      }

      .cls-18 {
        fill: #fbd1b3;
      }

      .cls-19 {
        fill: #2a1d16;
      }

      .cls-20 {
        fill: #4e271b;
      }

      .cls-21 {
        fill: #4b261b;
      }

      .cls-22 {
        fill: #e9aa87;
      }

      .cls-23 {
        fill: #31241d;
      }

      .cls-24 {
        fill: #482216;
      }

      .cls-25 {
        fill: #423329;
      }

      .cls-26 {
        fill: #facfb1;
      }

      .cls-27 {
        fill: #c1b5b1;
      }

      .cls-28 {
        fill: #f9cfb1;
      }

      .cls-29 {
        fill: #8a4a32;
      }

      .cls-30 {
        fill: #e4a380;
      }

      .cls-31 {
        fill: #451e12;
      }

      .cls-32 {
        fill: #8f5139;
      }

      .cls-33 {
        fill: #e5a07c;
      }

      .cls-34 {
        fill: #c8896e;
      }

      .cls-35 {
        fill: #441c11;
      }

      .cls-36 {
        fill: #fdd4b6;
      }

      .cls-37 {
        fill: #4c261a;
      }

      .cls-38 {
        fill: #441d11;
      }

      .cls-39 {
        fill: #e3a17d;
      }

      .cls-40 {
        fill: #f8cfb1;
      }

      .cls-41 {
        fill: #492217;
      }

      .cls-42 {
        fill: #faceb0;
      }

      .cls-43 {
        fill: #7e4c40;
      }

      .cls-44 {
        fill: #cf8d70;
      }

      .cls-45 {
        fill: #7c4b3f;
      }

      .cls-46 {
        fill: #edc5a9;
      }

      .cls-47 {
        fill: #2e2019;
      }

      .cls-48 {
        fill: #cc8b6f;
      }

      .cls-49 {
        fill: #451d11;
      }

      .cls-50 {
        fill: #fce1ca;
      }

      .cls-51 {
        fill: #fbdec6;
      }

      .cls-52 {
        fill: #3f170c;
      }

      .cls-53 {
        fill: #fad0b3;
      }

      .cls-54 {
        fill: #623b2e;
      }

      .cls-55 {
        fill: #e7e3e1;
      }

      .cls-56 {
        fill: #4a2318;
      }

      .cls-57 {
        fill: #fad0b1;
      }

      .cls-58 {
        fill: #6d4436;
      }

      .cls-59 {
        fill: #eec1a3;
      }

      .cls-60 {
        fill: #532d21;
      }

      .cls-61 {
        fill: #d7997b;
      }

      .cls-62 {
        fill: #51281b;
      }

      .cls-63 {
        fill: #95553c;
      }

      .cls-64 {
        fill: #472116;
      }

      .cls-65 {
        fill: #e3a27f;
      }
    </style>
  </defs>
  <g id="_Слой_3_Изображение" data-name="Слой 3 Изображение">
    <g>
      <path class="cls-33" d="M68,9c1.18,2.94,5.44,4.99,7,7,.61.79,2.61,4.92,3,6,.67,3.38-1.79,13.82,2,15-.4,4.1-4.78,7.5-4,12-6.16.86-2.85,3.14-5.25,5.76-1.23,1.35-5.64,1.74-7.34,3.2-1.25,1.08-1.12,2.7-1.42,3.04-.1.11-1.24-.26-1.72.31-.52.63-.03,2.19-.88,2.78-2.13,1.49-4.88-.6-5.95,2.83-2.18,7,1.49,15.8.55,23.07,5.05-.31,2.27-7.41,3.24-11.25.6-2.38,5.64-10.38,8.41-10.62,3.98-.35.37,3.7.39,6.28.07,8.25,12.2,1.33,9.95-5.41h1c1.52,1.38,5.18,1.57,5,5-2.58.03-4.7,4.08-6,6-.73,1.08-4.83,8.18-4.89,8.68-.22,1.86,1.42,1.75,1.89,2.32,3.2,3.93,1.34,1.89,1,5-4.39-.82-10.6-3.71-15.01-1.51-2.47,1.23-1.57,4.39-2.53,6.47-.76,1.65-3.53,2.43-3.48,4.53,0,.26,3.5,3.45,3.75,3.51,1.19.33,7.49.23,8.65-.17s1.27-2,1.98-2.48c3.41-2.33,4.94-2.65,6.65-7.36,1.42,2.84,1.05,5.66,2,9,.5,1.75,1.33,3.51,2,6l-7.99-4.99c-.73,5.54.2,8.76,5.99,9.99-3.73,6.33,1.72,9.33,2,15-10.11-6.56-9.49,1.41-6,9-1.57-.19-4.01-2.06-6-2-.92-3.72,2.42-10.34-3-9-.05-3.32-.52-6.93,1-10h6c1.38-1.42-3.65-5.87-4-6,3.49-4.25-4.64-5.39-6.56-3.03-.99,1.21.33,2.14.56,3.03.14.55-.1,1.37,0,2-.56-.14-1.36.09-2,0-.19-2.92-2.29-5.08-4-7-.89-1-.24-4.59-5.37-2.85-3.53,1.2-4.43,8.13-6.63,9.85l-1-2c.91-.19.8-.12,1-1,.05-.21.07-.88,0-1-.11-4.49-5.22-2.77-8-3l2,5c-1.38.38-5.17,4.28-4,5.99l5,1.01c-.33,2.28.46,5.38.07,7.46-.23,1.2-2.9-.11-3.14,1.09-.53,2.7.55,6.94.09,9.87-.2,1.26-3.82.3-5.02.58,1.27-3.3,5.52-7.44,1.47-11-4,.71-5.85,3.39-8.47,6-.19-.62-1.01-1.59-1-2,.13-4.31,4.7-7.35,5.01-10.6s-1.45-3.68-2.01-5.4c4.91,1.08,10.35-6.76,6.99-10-2.1-2.02-5.54,7.97-7.99,7-.17-1.63.12-3.35,0-5,.44-1.17,1.41-2.2,2-4,1.06-3.26.41-6.78,3-8,2.09,5.52,3.17,9.26,9.71,10.81,5.74,1.36,7.09-2.51,10.3-6.3-5.08-.06-2.08-3.52-3.17-6.85-1.44-4.39-13.91-3.05-16.84.34-.18-.53-2.14-.45-2.13-3.5s2-3.02,2.13-3.5c.98-3.56-3.81-10.1-7.04-11.45-.65-.27-.91.46-.96.45-2.31-.59-4.57-1.22-7.01-1v-2.99c6.04,1.29,7.64-4.37,12.01-7-1.04,3.41-.7,4.01,1,6,2.22,2.59,5.19,6.07,9.05,3.54,2.49-1.63-.57-7.47-3.05-8.54l1-1c.38.24,2.47,0,3.69.76,3.24,2.01,7.35,8.32,8.08,11.96.17.85.12,13.98,2.74,9.29.59-1.05,1.91-21.76,1.35-23.38-.83-2.43-4.03-1.04-5.87-2.18-1.54-.95.57-2.16-4-2.46,1.72-5.63-5.95-4.74-10-7-3.03-5.9.22-5.98-8-6-.18-.38-.91-.71-1-1-.69-2.2-1.56-8.29-1.02-10.3.28-1.05,2.39-.93,2.86-2.32,2.24-6.66-2.1-9.25,3.16-17.38.59,4.9-.94,11.66.24,16.26.67,2.58,6.26,10.08,8.51,11.77,10.05,7.52,28.34,4.78,33.74-7.03,7.39-16.14-.84-25.48-14.5-33,7.25.34,9.37,2.29,15,3ZM37.69,87.31l2.81,3.67c5.45-6.65-5.61-13.55-11.49-8.46l8.68,4.8ZM62.99,91c.22-.17.56-3.5,2.48-5.04,1.55-1.25,7.5-2.09,7.52-3.46.03-2.55-14.42-3.38-13.02,5.96.23,1.53,1.86,3.46,3.03,2.53Z"/>
      <path class="cls-10" d="M32,59c.88.95.79,2.81,1.65,3.05,1.25.35,3.72-.16,5.35-.05,4.57.3,2.46,1.5,4,2.46,1.84,1.14,5.04-.25,5.87,2.18.56,1.62-.76,22.33-1.35,23.38-2.62,4.69-2.57-8.44-2.74-9.29-.73-3.64-4.84-9.95-8.08-11.96-1.23-.76-3.32-.52-3.69-.76-.3-.19.11-3.49-5.51-3.1-1.76.12-1.96,1.39-2.49,3.1-4.37,2.63-5.97,8.29-12.01,7v2.99c2.43-.22,4.7.41,7.01,1-.08,3.27-2.13,4.5-3,6-1.08,1.86-1.05,1.73-1,4-4,2.8-4.96-3.35-7.5-4.98-2.2-.04-.38,8.92-4.5,5.98-.03-3.65-.06-7.35,0-11,6.02-.61.98-9.1,4-12,.14-.13,1.36.32,1.77-.19.7-.85.44-4.41,1.23-5.81.43-.32.73-.37,1-1,.64-.09,1.44.14,2,0,6.11-1.55,11.7-.94,18-1Z"/>
      <path class="cls-3" d="M33,6l2,.5c-1.5,1.5-4.17,1.93-4,4.5-2.6,1.89-4.41,4.54-6,7-5.26,8.13-.92,10.72-3.16,17.38-.47,1.39-2.57,1.27-2.86,2.32-.54,2.02.33,8.11,1.02,10.3-1.09-.41-3.74-.41-4.04-1.67-.41-1.72-.24-11.71.1-13.78.66-3.97,4.41-17.25,6.31-20.23,1.53-2.4,7.39-7.38,10.63-6.33Z"/>
      <path class="cls-31" d="M66,3c.2.08.65,1.69,1.41,2.04,2.73,1.24,3.2,1.21,5.59,2.96-.73,1.43-3.53,1.19-5,1-5.63-.71-7.75-2.66-15-3-8.92-.42-14.57-.39-22,5-.18-2.58,2.49-3.01,4-4.5l-2-.5c.51-.56,1.71-2.9,2-3,1.46-.53,29.56-.57,31,0Z"/>
      <path class="cls-61" d="M16,89c.11,5.3,1.95,3.36,3,7-13.22-6.71-9.94,6.3-6,14-.75-.03-2.87.13-3,0-.1-.11.08-1.8-.57-2.88-.61-1-1.89-1.74-2.22-2.83-.93-3.09,1.57-7.86-4.2-7.29,0-.33,0-.67,0-1-.01-1.03,1.02-3.54,1-6,4.12,2.94,2.3-6.02,4.5-5.98,2.54,1.63,3.5,7.78,7.5,4.98Z"/>
      <path class="cls-8" d="M93,107l2,1c-.76.63-4.49,3.81-4.77,3.93-2.08.9-6.96.82-7.22,1.07-.5.49-.05,11.97.99,13.99-4.63-2.85-3.6-2.23-5-8-.38-1.56-.49-3.09-1-5-.67-2.49-1.5-4.25-2-6,.95.12,2.12-.18,3,0,4.01.8,5.97.81,10,1,.12,0,.25,1.08.85.94-.03-2.65,2.76-2.55,3.15-2.94Z"/>
      <path class="cls-37" d="M63,132c5.42-1.34,2.08,5.28,3,9,.75,3.03,8.91,3.43,11.54,3.08,1.34-.18,4.72-4.92,8.46-4.08h1c-.75,1.07-5.27,6.91-5.71,7.02-1.21.29-13.47.3-14.59,0-4.12-1.11-3.64-10.76-3.71-14.02,0-.33,0-.67,0-1Z"/>
      <path class="cls-15" d="M98,78c.22,4.82-.16,9.71,0,14.55.06,1.92-1.02,4.01,2,3.45-.1.34-.93.71-1,1l-3.43-1.06c-1.11.14-.39,1.88-.57,2.06-.16.16-.87-.17-1,0-.98-2.64-5.48-4.99-8-5v-3c4.17,3.55,5.18-5.92,7.5-5.98,2.81-.08-.32,8.29,3.49,6.97,1.32-5.29-1.08-8.81-1.99-13,1.06-.08,2.08-.48,3-1,.02.33-.01.67,0,1Z"/>
      <path class="cls-31" d="M21,98c.4,0,1.72-1.44,1.99-1l.02,11c.06.09,1.95-.9,1.99-1-.59,1.8-1.56,2.83-2,4-1.82,4.87-.07,8.31-1.21,12.28-.46,1.58-2.84,3.24-3.79,4.72l-1-2c1.94-2.36,3.06-11.95,2-13-.36-.36-5.64.42-7.39-.13s-1.34-2.59-1.61-2.86c.13.13,2.25-.03,3,0,9.89.4,10.44-2.94,8-12Z"/>
      <path class="cls-6" d="M83,30c.14,1.89-.11,4.53,0,7-.9-.16-2.26.23-3,0,.29-2.94-1.07-12.45-2-15-.39-1.08-2.39-5.21-3-6l2-4c5.37,6.58,5.38,9.47,6,18Z"/>
      <path class="cls-45" d="M79,119c1.4,5.77.37,5.15,5,8,.49.3,1.16.42,2,1v7c-2.82-.11-5.72,1.07-7-2-.18-.9.24-2.07-.2-3.26-1.34-3.67-4.54-4.38-1.8-10.74.67.02,1.33-.01,2,0Z"/>
      <path class="cls-62" d="M54,111c1.71,1.92,3.81,4.08,4,7,.03.47-1.11,2.09-1,3-.81-.79-5.28-4.78-5.64-4.85-1.47-.27-3.04,1.55-4.36,1.85-.6.13-1.43-.15-2,0-.89-5.2.49-4.15,3.03-6.48,1.96-1.79.67-4.74,5.97-.52Z"/>
      <path class="cls-21" d="M26,144c.95.09,2.03.03,3,0,1.44-.05,3.22-1.28,6-1,.28.03,1.26,1.09,2,1-2.09,3.87-12.62,3.7-16.53,3.08-1.03-.16-4.73-4.05-5.47-5.08.97-.27.94-1.15,1-2,4.63-.22,5.4,3.56,10,4Z"/>
      <path class="cls-20" d="M21,49c8.22.02,4.97.1,8,6,1.01,1.97,1,1.58,2,3-4.49.13-9.04-.18-13.54,0-1.93.08-4.01-1.03-3.46,2-.56.14-1.36-.09-2,0,.25-.57-.43-2.44.08-2.9,1.48-1.32,12.93-.27,12.9-2.6,0-.35-2.86-3.21-3.98-5.5Z"/>
      <path class="cls-49" d="M80,50l-3.98,4.5c-.04,2.81,11.3-.1,10.98,4.5-.33,0-.67,0-1,0-3.98-.07-9.21-.44-13,0-.48-.85-1.07-2.04-1-3,.41-5.46,2.67-6.81,8-6Z"/>
      <path class="cls-46" d="M83,37c.18,4.01-1.77,10.39,3,9-.3,1.11-4.79,2.75-6,3s-2.75-.17-4,0c-.78-4.5,3.6-7.9,4-12,.74.23,2.1-.16,3,0Z"/>
      <path class="cls-60" d="M47,118c.29,2.14-4.54,4.76-4.7,5.25-1.19,3.57.96,9.2-3.3,9.75.1-2.62-1.55-6.16-1-10,.16-1.15,1.14-3.13,2-4,1.95.45,3.4-.58,5-1,.57-.15,1.4.13,2,0Z"/>
      <path class="cls-64" d="M60,118c2.69.66,2.82,1.79,4,4-1.52,3.07-1.05,6.68-1,10,0,.33,0,.67,0,1-5-.14-2.16-6.02-3.18-9.33-.36-1.16-1.96-1.82-2.82-2.67-.11-.91,1.03-2.53,1-3,.64.09,1.44-.14,2,0Z"/>
      <path class="cls-47" d="M4,79c-.06,3.65-.03,7.35,0,11,.02,2.46-1.01,4.97-1,6-3.03.56-1.92-1.53-2-3.45-.15-3.79-.47-9.52-.08-13.08.24-2.17,1.58-1.68,3.08-2.46-.02.67.01,1.33,0,2Z"/>
      <path class="cls-23" d="M100,96c-3.02.56-1.94-1.53-2-3.45-.16-4.84.22-9.73,0-14.55,2.71-.02,2.8,1.19,3.05,3.45.48,4.33.18,10.44-1.05,14.55Z"/>
      <path class="cls-17" d="M18,128c-2.45,3.82-1.63,3.93-2,8-.12,1.31.09,2.68,0,4-.06.85-.03,1.73-1,2-2.42-3.4-3.86-5.99-2.98-10.47.63-3.19,3.53-3.76,4.98-5.53l1,2Z"/>
      <path class="cls-19" d="M86,46c-4.77,1.39-2.82-4.99-3-9-.11-2.47.14-5.11,0-7,4.04,1,3.74,13.25,3,16Z"/>
      <path class="cls-41" d="M94,67c-.16,0-1.51,1.74-3,1-.67-.55-1.46-1.33-2-2-1.18-1.47-1.36-3.02-2-4,.59-.02,1.92.1,1.99,0,.23-.32-.12-1.77,0-2.49l-.99-.51c.1,0,.45-1.3,1.92-.57,2.83,1.42,4.85,5.35,4.08,8.57Z"/>
      <path class="cls-4" d="M99,97c-1.35,5.43.3,7.44-4,11l-2-1c1.27-1.27,1.43-6.92,2-9,.18-.18-.54-1.92.57-2.06l3.43,1.06Z"/>
      <path class="cls-54" d="M94,67c4.09-.15,3.82,6.99,4,10-.92.52-1.94.92-3,1-.48-2.19-.84-8.58-1.11-8.94-.3-.4-1.63.11-1.89-.06-.43-.27-.67-.73-1-1,1.49.74,2.84-.99,3-1Z"/>
      <path class="cls-32" d="M77,12l-2,4c-1.56-2.01-5.82-4.06-7-7,1.47.19,4.27.43,5-1,2.04,1.5,2.48,2.14,4,4Z"/>
      <path class="cls-49" d="M10,110c-1.37-1.39-4.7-3.24-5.49-5.01-.24-.55-1.49-7.25-1.51-7.99,5.78-.56,3.27,4.21,4.2,7.29.33,1.09,1.62,1.83,2.22,2.83.65,1.08.47,2.77.57,2.88Z"/>
      <path class="cls-33" d="M76,49c1.25-.17,2.85.24,4,0v1c-5.33-.81-7.59.54-8,6-2.93,1.19-10.14,1.9-7,6-1.06-.06-2.08-.5-3-1,.3-.35.17-1.97,1.42-3.04,1.69-1.46,6.1-1.85,7.34-3.2,2.4-2.61-.92-4.9,5.25-5.76Z"/>
      <path class="cls-25" d="M8,67c-3.02,2.9,2.02,11.39-4,12,.01-.67-.02-1.33,0-2,.1-4.05-1.72-9.31,3-10h1Z"/>
      <path class="cls-56" d="M39,133c-.07,1.81-1.26,9.63-2,11-.74.09-1.72-.97-2-1,.28-1.73-.4-9.6,0-10.01.22-.22,3.02.13,4,0Z"/>
      <path class="cls-6" d="M87,140h-1v-12c3.51,2.4,4.04,6.14,2.8,10.35-.37,1.27-1.59,1.35-1.8,1.65Z"/>
      <path class="cls-27" d="M66,3c-1.44-.57-29.54-.53-31,0,1.04-1.66,3.79-1,5.49-1.02,6.66-.07,13.37-.08,20.03,0,1.69.02,4.45-.64,5.49,1.02Z"/>
      <path class="cls-52" d="M11,61c-.79,1.4-.53,4.96-1.23,5.81-.42.51-1.63.06-1.77.19h-1c.89-5.19,1.17-3.89,4-6Z"/>
      <path class="cls-5" d="M88,59l.99.51c-.12.72.23,2.17,0,2.49-.07.1-1.4-.02-1.99,0-.29-.44-.35-.83-1-1v-2c.33,0,.67,0,1,0s.67,0,1,0Z"/>
      <path class="cls-36" d="M53,6c13.66,7.51,21.89,16.86,14.5,33-5.4,11.8-23.69,14.55-33.74,7.03-2.25-1.68-7.85-9.18-8.51-11.77-1.18-4.6.35-11.36-.24-16.26,1.59-2.46,3.4-5.11,6-7,7.43-5.39,13.08-5.42,22-5Z"/>
      <path class="cls-12" d="M62,61c.92.5,1.94.94,3,1,.32.02.69.04,1,0-.06.95.58,1.38,1,2,2.91,4.23,4.25,3.68,9,5,2.25,6.74-9.88,13.66-9.95,5.41-.02-2.59,3.59-6.63-.39-6.28-2.77.24-7.81,8.23-8.41,10.62-.97,3.84,1.82,10.94-3.24,11.25.95-7.28-2.72-16.07-.55-23.07,1.07-3.43,3.82-1.34,5.95-2.83.84-.59.36-2.15.88-2.78.48-.58,1.62-.2,1.72-.31Z"/>
      <path class="cls-12" d="M28,97c2.93-3.39,15.4-4.73,16.84-.34,1.09,3.33-1.91,6.79,3.17,6.85-3.21,3.78-4.56,7.65-10.3,6.3-6.55-1.55-7.62-5.28-9.71-10.81-.19-.5.18-1.47,0-2Z"/>
      <path class="cls-12" d="M74,96c-.04.34.07.7,0,1-.13.61.18,1.52,0,2-1.71,4.71-3.24,5.03-6.65,7.36-.71.48-.82,2.08-1.98,2.48s-7.46.5-8.65.17c-.25-.07-3.74-3.26-3.75-3.51-.05-2.1,2.72-2.88,3.48-4.53.96-2.08.06-5.24,2.53-6.47,4.4-2.2,10.62.68,15.01,1.51Z"/>
      <path class="cls-10" d="M79,62c.66,3.31,3.32,5.57,6.49,6.05,1.72.26,4.16.71,3.51-2.05.54.67,1.33,1.45,2,2,.33.27.57.73,1,1,1.07,2.99-2.68,5.22-3,6-2.13,1.07-6.24-1.01-7-1,.18-3.43-3.48-3.62-5-5-.31-.28-.13-2.54-2-3.48-1.04-.52-4.43-1.16-6-1.52,1.5-3.26,6.8-1.9,10-2Z"/>
      <path class="cls-35" d="M86,87c.04.99,0,2,0,3v3c-5.02-.02-7.84,10.83-7,15-.88-.18-2.05.12-3,0-.95-3.34-.58-6.16-2-9,.18-.48-.13-1.39,0-2,4.43.96,2.92-2.29,3-6,5.3.66,6.65-.76,6-6,.33.1.76-.12,1,0,.67.33,1.36,1.47,2,2Z"/>
      <path class="cls-43" d="M23,116c.21,2,.69,2.03,1,3,.56,1.72,2.33,2.08,2.01,5.4s-4.88,6.29-5.01,10.6l-5,1c.37-4.07-.45-4.18,2-8,.95-1.48,3.33-3.14,3.79-4.72,1.14-3.97-.6-7.41,1.21-12.28.12,1.65-.17,3.37,0,5Z"/>
      <path class="cls-10" d="M78,134c.21.14.33,1,1,1,.3,5.39.46,8.89-7,8-3.49-7.59-4.11-15.56,6-9Z"/>
      <path class="cls-18" d="M29,142c-.18.46.12,1.39,0,2-.97.03-2.05.09-3,0,.4-2.56-2.6-2.74-3.49-4.05-.77-1.13-.28-2.2-.51-2.95,2.62-2.61,4.47-5.28,8.47-6,4.05,3.56-.19,7.7-1.47,11Z"/>
      <path class="cls-7" d="M76,82l4.57-3.95,1.42-.04c-.33.98.92,1.66,1.01,1.99.38,1.34-.28,3.54,1,5-.24-.12-.67.1-1,0-2.51-.73-4.67,1.2-6.09,3.5-1.08,1.75.1,1.98.09,2.5-.08,3.71,1.43,6.96-3,6,.07-.3-.04-.66,0-1,.34-3.11,2.2-1.07-1-5-.66-4.22,2.62-4.78,3-9Z"/>
      <path class="cls-9" d="M32,69c2.47,1.07,5.54,6.91,3.05,8.54-3.86,2.52-6.83-.96-9.05-3.54v-6c.21-.22,5.36.72,6,1Z"/>
      <path class="cls-51" d="M37.69,87.31l-8.68-4.8c5.88-5.09,16.94,1.82,11.49,8.46l-2.81-3.67Z"/>
      <path class="cls-1" d="M62.99,91c-1.17.93-2.8-1-3.03-2.53-1.4-9.35,13.06-8.51,13.02-5.96-.02,1.37-5.97,2.21-7.52,3.46-1.91,1.54-2.26,4.86-2.48,5.04Z"/>
      <path class="cls-24" d="M28,90c-1.89.49-2.1-1.27-3-2-.95-.77-3.41-1.45-4.5-3.98-2.02,1.42-1.57,3.73-1.5,5.98-1.71-1.57-.33-3.78-2-5,.87-1.5,2.92-2.73,3-6,.05.01.31-.72.96-.45,3.23,1.35,8.01,7.89,7.04,11.45Z"/>
      <path class="cls-48" d="M79,133c1.28,3.07,4.18,1.89,7,2v5c-3.74-.83-7.12,3.91-8.46,4.08-2.63.35-10.8-.06-11.54-3.08,1.99-.06,4.43,1.81,6,2,7.46.89,7.3-2.61,7-8-.04-.66.12-1.43,0-2Z"/>
      <path class="cls-57" d="M76,119c-5.79-1.24-6.73-4.45-5.99-9.99l7.99,4.99c.51,1.91.62,3.44,1,5-.67-.01-1.33.02-2,0-.32,0-.7.06-1,0Z"/>
      <path class="cls-42" d="M23,116c2.45.98,5.89-9.01,7.99-7,3.37,3.24-2.07,11.07-6.99,10-.31-.97-.79-1-1-3Z"/>
      <path class="cls-59" d="M41,116l1,2c-.3.23-1.12.11-2,1s-1.84,2.85-2,4h-1l-5-1.01c-1.17-1.71,2.62-5.6,4-5.99,1.3-.36,3.57.3,5,0Z"/>
      <path class="cls-44" d="M89,75c-.2.49.21,1.56,0,2-2.02,1.15-5.17.54-6,3-.09-.33-1.34-1.01-1.01-1.99l-1.42.04-4.57,3.95c.06-.66-.04-1.34,0-2,1.3-1.92,3.42-5.97,6-6,.76,0,4.87,2.07,7,1Z"/>
      <path class="cls-33" d="M21,135c-.01.41.81,1.38,1,2,.23.75-.26,1.81.51,2.95.89,1.31,3.89,1.5,3.49,4.05-4.6-.44-5.37-4.22-10-4,.09-1.32-.12-2.69,0-4l5-1Z"/>
      <path class="cls-26" d="M66,116c.35.13,5.39,4.58,4,5.99h-6c-1.18-2.2-1.31-3.33-4-3.99-.1-.63.14-1.45,0-2,1.61.32,4.77-.46,6,0Z"/>
      <path class="cls-33" d="M29,55c4.05,2.26,11.72,1.37,10,7-1.63-.11-4.1.4-5.35.05-.86-.24-.77-2.11-1.65-3.05-.32-.34-.9-.85-1-1-1-1.42-.99-1.03-2-3Z"/>
      <path class="cls-33" d="M39,133c-.99.13-3.79-.23-4,0-.39.41.28,8.28,0,10.01-2.78-.28-4.56.95-6,1,.12-.61-.18-1.54,0-2,1.2-.27,4.82.68,5.02-.58.46-2.93-.62-7.17-.09-9.87.24-1.2,2.91.11,3.14-1.09.4-2.08-.4-5.17-.07-7.46h1c-.55,3.84,1.1,7.38,1,10Z"/>
      <path class="cls-2" d="M25,68c.52-1.71.72-2.98,2.49-3.1,5.63-.38,5.21,2.91,5.51,3.1l-1,1c-.64-.28-5.79-1.22-5.99-1v6c-1.71-1.99-2.05-2.59-1.01-6Z"/>
      <path class="cls-11" d="M25,88c.9.73,1.11,2.49,3,2-.13.48-2.12.47-2.13,3.5s1.95,2.97,2.13,3.5-.19,1.5,0,2c-2.59,1.22-1.94,4.74-3,8,.48-1.27.11-11.18.03-13.57-.04-1.29-1.02-2.25-1.03-2.43-.03-.46,1.11-2.09,1-3Z"/>
      <path class="cls-14" d="M66,116c-1.23-.46-4.39.32-6,0-.23-.89-1.55-1.82-.56-3.03,1.93-2.36,10.05-1.22,6.56,3.03Z"/>
      <path class="cls-33" d="M54,111c-5.3-4.22-4.01-1.27-5.97.52-2.54,2.33-3.92,1.28-3.03,6.48-1.6.42-3.05,1.45-5,1,.88-.89,1.7-.77,2-1,2.21-1.72,3.11-8.65,6.63-9.85,5.12-1.74,4.47,1.85,5.37,2.85Z"/>
      <path class="cls-22" d="M69,64c1.57.36,4.96.99,6,1.52,1.87.94,1.69,3.21,2,3.48h-1c-4.75-1.32-6.09-.77-9-5,.64.09,1.43-.13,2,0Z"/>
      <path class="cls-33" d="M42,114c-1.31-2.27-8.95-3.83-7.01,1h7.01c-.2.89-.09.81-1,1-1.43.3-3.7-.36-5,0l-2-5c2.79.24,7.89-1.49,8,3Z"/>
      <path class="cls-33" d="M79,133c.12.57-.04,1.34,0,2-.67,0-.79-.86-1-1-.28-5.67-5.73-8.67-2-15,.3.06.68,0,1,0-2.74,6.36.46,7.07,1.8,10.74.44,1.19.02,2.36.2,3.26Z"/>
      <path class="cls-33" d="M80,37c-3.79-1.18-1.33-11.62-2-15,.93,2.55,2.29,12.06,2,15Z"/>
      <path class="cls-29" d="M42,114c.07.12.05.79,0,1h-7.01c-1.94-4.83,5.7-3.27,7.01-1Z"/>
      <path class="cls-33" d="M76,82c-.38,4.22-3.66,4.78-3,9-.46-.57-2.11-.46-1.89-2.32.06-.49,4.15-7.59,4.89-8.68-.04.66.06,1.34,0,2Z"/>
      <path class="cls-38" d="M19,90c1.09,1,3.53,1.03,5,1,.01.18.99,1.14,1.03,2.43.08,2.38.45,12.3-.03,13.57-.04.1-1.93,1.09-1.99,1l-.02-11c-.27-.44-1.59.99-1.99,1-1.32.03-1.72-1.86-2-2-1.05-3.64-2.89-1.7-3-7-.05-2.27-.08-2.14,1-4,1.67,1.22.29,3.43,2,5Z"/>
      <path class="cls-58" d="M31,58c.1.15.68.66,1,1-6.3.06-11.89-.55-18,1-.56-3.03,1.53-1.92,3.46-2,4.5-.18,9.05.13,13.54,0Z"/>
      <path class="cls-28" d="M19,96c.28.14.68,2.03,2,2,2.44,9.06,1.89,12.4-8,12-3.94-7.7-7.22-20.71,6-14Z"/>
      <path class="cls-53" d="M94,98c-2.61,3.39-3.35,7.17-5,11-4.03-.19-5.99-.2-10-1-.84-4.17,1.98-15.02,7-15,2.52.01,7.02,2.36,8,5Z"/>
      <path class="cls-34" d="M93,107c-.39.39-3.18.29-3.15,2.94-.6.14-.73-.93-.85-.94,1.65-3.83,2.39-7.61,5-11,.13-.17.84.16,1,0-.57,2.08-.73,7.73-2,9Z"/>
      <path class="cls-40" d="M95,78c.92,4.18,3.31,7.71,1.99,13-3.81,1.32-.69-7.05-3.49-6.97-2.32.06-3.33,9.53-7.5,5.98,0-1,.04-2.01,0-3-.31-7.45.54-3.67,3-9,1.98-.1,4.02.15,6,0Z"/>
      <path class="cls-65" d="M73,59c3.79-.44,9.02-.07,13,0v2c-4.35-1.11-11.89,1.65-16-1,1-.33,1.03-.77,3-1Z"/>
      <path class="cls-63" d="M72,56c-.07.96.52,2.15,1,3-1.97.23-2,.67-3,1-1.17.39-1.91,1.72-4,2-.31.04-.68.02-1,0-3.14-4.1,4.07-4.81,7-6Z"/>
      <path class="cls-50" d="M87,62c.64.98.82,2.53,2,4,.65,2.76-1.79,2.31-3.51,2.05-3.17-.48-5.83-2.73-6.49-6.05,2.66-.08,5.35.11,8,0Z"/>
      <path class="cls-30" d="M92,69c.26.17,1.59-.34,1.89.06.27.36.63,6.75,1.11,8.94-1.98.15-4.02-.1-6,0,.13-.28-.13-.73,0-1,.21-.44-.2-1.51,0-2,.32-.78,4.07-3.01,3-6Z"/>
      <path class="cls-16" d="M86,61c.65.17.71.56,1,1-2.65.11-5.34-.08-8,0-3.2.1-8.5-1.26-10,2-.57-.13-1.36.09-2,0-.42-.62-1.06-1.05-1-2,2.09-.28,2.83-1.61,4-2,4.11,2.65,11.65-.11,16,1Z"/>
      <path class="cls-55" d="M83,85c.65,5.24-.7,6.66-6,6,.01-.52-1.17-.75-.09-2.5,1.42-2.3,3.58-4.23,6.09-3.5Z"/>
      <path class="cls-39" d="M89,78c-2.46,5.33-3.31,1.55-3,9-.64-.53-1.33-1.67-2-2-1.28-1.46-.62-3.66-1-5,.83-2.46,3.98-1.85,6-3-.13.27.13.72,0,1Z"/>
      <path class="cls-13" d="M19,90c-.07-2.25-.52-4.56,1.5-5.98,1.09,2.53,3.55,3.21,4.5,3.98.11.91-1.03,2.54-1,3-1.47.03-3.91,0-5-1Z"/>
    </g>
  </g>
</svg>