<?xml version="1.0" encoding="UTF-8"?>
<svg id="_Слой_2" data-name="Слой 2" xmlns="http://www.w3.org/2000/svg" viewBox="0 0 1173.42 553.73">
  <defs>
    <style>
      .cls-1 {
        fill: none;
      }

      .cls-1, .cls-2, .cls-3 {
        stroke: #000;
        stroke-miterlimit: 10;
      }

      .cls-2 {
        fill: #393934;
      }

      .cls-4 {
        fill: #4d4b45;
      }

      .cls-3 {
        fill: #4d4d4d;
      }
    </style>
  </defs>
  <g id="_Слой_1-2" data-name="Слой 1">
    <g>
      <g>
        <rect class="cls-4" x="34.18" y="153.23" width="1100" height="399.99"/>
        <rect class="cls-1" x="34.18" y="153.23" width="1100" height="399.99"/>
      </g>
      <rect class="cls-2" x="34.62" y="512.45" width="100" height="40"/>
      <rect class="cls-2" x="134.62" y="512.45" width="100" height="40"/>
      <rect class="cls-2" x="234.62" y="512.45" width="100" height="40"/>
      <rect class="cls-2" x="334.62" y="512.45" width="100" height="40"/>
      <rect class="cls-2" x="88.85" y="472.45" width="100" height="40"/>
      <rect class="cls-2" x="188.85" y="472.45" width="100" height="40"/>
      <rect class="cls-2" x="288.85" y="472.45" width="100" height="40"/>
      <rect class="cls-2" x="635.4" y="512.45" width="100" height="40"/>
      <rect class="cls-2" x="734.62" y="512.45" width="100" height="40"/>
      <rect class="cls-2" x="834.62" y="512.45" width="100" height="40"/>
      <rect class="cls-2" x="934.62" y="512.45" width="100" height="40"/>
      <rect class="cls-2" x="1033.84" y="512.45" width="100" height="40"/>
      <rect class="cls-2" x="688.19" y="472.45" width="100" height="40"/>
      <rect class="cls-2" x="788.19" y="472.45" width="100" height="40"/>
      <rect class="cls-2" x="888.19" y="472.45" width="100" height="40"/>
      <rect class="cls-2" x="988.98" y="472.45" width="100" height="40"/>
      <rect class="cls-2" x="34.57" y="432.45" width="100" height="40"/>
      <rect class="cls-2" x="134.57" y="432.45" width="100" height="40"/>
      <rect class="cls-2" x="234.57" y="432.45" width="100" height="40"/>
      <rect class="cls-2" x="334.57" y="432.45" width="100" height="40"/>
      <rect class="cls-2" x="635.35" y="432.45" width="100" height="40"/>
      <rect class="cls-2" x="734.57" y="432.45" width="100" height="40"/>
      <rect class="cls-2" x="834.57" y="432.45" width="100" height="40"/>
      <rect class="cls-2" x="934.57" y="432.45" width="100" height="40"/>
      <rect class="cls-2" x="1033.78" y="432.45" width="100" height="40"/>
      <rect class="cls-2" x="88.85" y="393.23" width="100" height="40"/>
      <rect class="cls-2" x="188.85" y="393.23" width="100" height="40"/>
      <rect class="cls-2" x="288.85" y="393.23" width="100" height="40"/>
      <rect class="cls-2" x="688.19" y="393.23" width="100" height="40"/>
      <rect class="cls-2" x="788.19" y="393.23" width="100" height="40"/>
      <rect class="cls-2" x="888.19" y="393.23" width="100" height="40"/>
      <rect class="cls-2" x="988.98" y="393.23" width="100" height="40"/>
      <rect class="cls-2" x="34.57" y="353.23" width="100" height="40"/>
      <rect class="cls-2" x="134.57" y="353.23" width="100" height="40"/>
      <rect class="cls-2" x="234.57" y="353.23" width="100" height="40"/>
      <rect class="cls-2" x="334.57" y="353.23" width="100" height="40"/>
      <rect class="cls-2" x="635.35" y="353.23" width="100" height="40"/>
      <rect class="cls-2" x="734.57" y="353.23" width="100" height="40"/>
      <rect class="cls-2" x="834.57" y="353.23" width="100" height="40"/>
      <rect class="cls-2" x="934.57" y="353.23" width="100" height="40"/>
      <rect class="cls-2" x="1033.78" y="353.23" width="100" height="40"/>
      <rect class="cls-2" x="88.85" y="313.23" width="100" height="40"/>
      <rect class="cls-2" x="188.85" y="313.23" width="100" height="40"/>
      <rect class="cls-2" x="288.85" y="313.23" width="100" height="40"/>
      <rect class="cls-2" x="688.19" y="313.23" width="100" height="40"/>
      <rect class="cls-2" x="788.19" y="313.23" width="100" height="40"/>
      <rect class="cls-2" x="888.19" y="313.23" width="100" height="40"/>
      <rect class="cls-2" x="988.98" y="313.23" width="100" height="40"/>
      <rect class="cls-2" x="34.57" y="273.23" width="100" height="40"/>
      <rect class="cls-2" x="134.57" y="273.23" width="100" height="40"/>
      <rect class="cls-2" x="234.57" y="273.23" width="100" height="40"/>
      <rect class="cls-2" x="334.57" y="273.23" width="100" height="40"/>
      <rect class="cls-2" x="434.57" y="273.23" width="100" height="40"/>
      <rect class="cls-2" x="535.35" y="273.23" width="100" height="40"/>
      <rect class="cls-2" x="635.35" y="273.23" width="100" height="40"/>
      <rect class="cls-2" x="734.57" y="273.23" width="100" height="40"/>
      <rect class="cls-2" x="834.57" y="273.23" width="100" height="40"/>
      <rect class="cls-2" x="934.57" y="273.23" width="100" height="40"/>
      <rect class="cls-2" x="1033.78" y="273.23" width="100" height="40"/>
      <rect class="cls-2" x="88.85" y="234.01" width="100" height="40"/>
      <rect class="cls-2" x="188.85" y="234.01" width="100" height="40"/>
      <rect class="cls-2" x="288.85" y="234.01" width="100" height="40"/>
      <rect class="cls-2" x="388.85" y="234.01" width="100" height="40"/>
      <rect class="cls-2" x="488.19" y="234.01" width="100" height="40"/>
      <rect class="cls-2" x="588.19" y="234.01" width="100" height="40"/>
      <rect class="cls-2" x="688.19" y="234.01" width="100" height="40"/>
      <rect class="cls-2" x="788.19" y="234.01" width="100" height="40"/>
      <rect class="cls-2" x="888.19" y="234.01" width="100" height="40"/>
      <rect class="cls-2" x="988.98" y="234.01" width="100" height="40"/>
      <rect class="cls-2" x="34.57" y="194.01" width="100" height="40"/>
      <rect class="cls-2" x="134.57" y="194.01" width="100" height="40"/>
      <rect class="cls-2" x="234.57" y="194.01" width="100" height="40"/>
      <rect class="cls-2" x="334.57" y="194.01" width="100" height="40"/>
      <rect class="cls-2" x="434.57" y="194.01" width="100" height="40"/>
      <rect class="cls-2" x="535.35" y="194.01" width="100" height="40"/>
      <rect class="cls-2" x="635.35" y="194.01" width="100" height="40"/>
      <rect class="cls-2" x="734.57" y="194.01" width="100" height="40"/>
      <rect class="cls-2" x="834.57" y="194.01" width="100" height="40"/>
      <rect class="cls-2" x="934.57" y="194.01" width="100" height="40"/>
      <rect class="cls-2" x="1033.78" y="194.01" width="100" height="40"/>
      <rect class="cls-2" x="84.11" y="153.23" width="100" height="40"/>
      <rect class="cls-2" x="184.11" y="153.23" width="100" height="40"/>
      <rect class="cls-2" x="284.11" y="153.23" width="100" height="40"/>
      <rect class="cls-2" x="384.11" y="153.23" width="100" height="40"/>
      <rect class="cls-2" x="483.46" y="153.23" width="100" height="40"/>
      <rect class="cls-2" x="583.46" y="153.23" width="100" height="40"/>
      <rect class="cls-2" x="683.46" y="153.23" width="100" height="40"/>
      <rect class="cls-2" x="783.46" y="153.23" width="100" height="40"/>
      <rect class="cls-2" x="883.46" y="153.23" width="100" height="40"/>
      <rect class="cls-2" x="984.24" y="153.23" width="100" height="40"/>
      <rect class="cls-2" x="34.62" y="472.45" width="54.22" height="40"/>
      <rect class="cls-2" x="34.62" y="392.84" width="54.22" height="40"/>
      <rect class="cls-2" x="34.62" y="313.23" width="54.22" height="40"/>
      <rect class="cls-2" x="34.62" y="234.01" width="54.22" height="40"/>
      <rect class="cls-2" x="1083.78" y="153.23" width="50" height="40"/>
      <rect class="cls-2" x="1088.98" y="234.01" width="45.2" height="40"/>
      <rect class="cls-2" x="1088.98" y="313.23" width="45.2" height="40"/>
      <rect class="cls-2" x="1088.98" y="393.23" width="45.2" height="40"/>
      <rect class="cls-2" x="1088.98" y="472.45" width="45.2" height="40"/>
      <rect class="cls-2" x="34.62" y="153.23" width="49.49" height="40"/>
      <rect class="cls-2" x="388.85" y="313.23" width="100" height="40"/>
      <rect class="cls-2" x="488.19" y="313.23" width="100" height="40"/>
      <rect class="cls-2" x="588.19" y="313.23" width="100" height="40"/>
      <rect class="cls-2" x="535.04" y="512.45" width="100" height="40"/>
      <rect class="cls-2" x="585.04" y="472.45" width="102.94" height="40"/>
      <rect class="cls-2" x="534.99" y="432.45" width="100" height="40"/>
      <rect class="cls-2" x="434.99" y="512.45" width="100" height="40"/>
      <rect class="cls-2" x="487.78" y="472.45" width="96.14" height="40"/>
      <rect class="cls-2" x="434.93" y="432.45" width="100" height="40"/>
      <rect class="cls-2" x="388.34" y="472.45" width="100" height="40"/>
      <rect class="cls-2" x="587.99" y="393.23" width="100" height="40"/>
      <rect class="cls-2" x="535.14" y="353.23" width="100" height="40"/>
      <rect class="cls-2" x="487.78" y="393.23" width="100" height="40"/>
      <rect class="cls-2" x="434.93" y="353.23" width="100" height="40"/>
      <rect class="cls-2" x="388.42" y="393.23" width="100" height="40"/>
      <polygon class="cls-3" points="59.57 93.39 59.57 19.55 .5 19.55 .5 93.39 .5 152.45 148.16 152.45 148.16 93.39 59.57 93.39"/>
      <polygon class="cls-3" points="250.53 93.39 250.53 .5 191.46 .5 191.46 93.39 147.16 93.39 147.16 152.45 294.83 152.45 294.83 93.39 250.53 93.39"/>
      <polygon class="cls-3" points="398.19 93.39 398.19 .5 339.13 .5 339.13 93.39 294.83 93.39 294.83 152.45 442.49 152.45 442.49 93.39 398.19 93.39"/>
      <polygon class="cls-3" points="543.48 93.39 543.48 .5 484.41 .5 484.41 93.39 440.11 93.39 440.11 152.45 587.78 152.45 587.78 93.39 543.48 93.39"/>
      <polygon class="cls-3" points="691.14 93.39 691.14 .5 632.08 .5 632.08 93.39 587.78 93.39 587.78 152.45 735.44 152.45 735.44 93.39 691.14 93.39"/>
      <polygon class="cls-3" points="839.16 93.39 839.16 .5 780.09 .5 780.09 93.39 735.79 93.39 735.79 152.45 883.46 152.45 883.46 93.39 839.16 93.39"/>
      <polygon class="cls-3" points="986.82 93.39 986.82 .5 927.76 .5 927.76 93.39 883.46 93.39 883.46 152.45 1031.12 152.45 1031.12 93.39 986.82 93.39"/>
      <polygon class="cls-3" points="1113.85 93.39 1113.85 19.55 1172.92 19.55 1172.92 93.39 1172.92 152.45 1025.25 152.45 1025.25 93.39 1113.85 93.39"/>
    </g>
  </g>
</svg>