<?xml version="1.0" encoding="UTF-8"?>
<svg id="_Слой_2" data-name="Слой 2" xmlns="http://www.w3.org/2000/svg" viewBox="0 0 104.33 201.03">
  <defs>
    <style>
      .cls-1 {
        fill: #3b2612;
      }

      .cls-1, .cls-2 {
        stroke: #000;
        stroke-miterlimit: 10;
        stroke-width: .25px;
      }

      .cls-2 {
        fill: #754c24;
      }
    </style>
  </defs>
  <g id="_Слой_1-2" data-name="Слой 1">
    <g>
      <rect class="cls-2" x=".12" y="162.83" width="52.04" height="19.04"/>
      <rect class="cls-2" x=".12" y="124.74" width="52.04" height="19.04"/>
      <rect class="cls-2" x=".12" y="199.56" width="104.08" height="1.35"/>
      <polygon class="cls-2" points=".12 181.87 .12 199.56 104.21 199.56 104.21 181.87 52.17 181.87 .12 181.87"/>
      <rect class="cls-2" x="52.17" y="162.83" width="52.04" height="19.04"/>
      <polygon class="cls-2" points=".12 143.79 .12 162.83 52.17 162.83 104.21 162.83 104.21 143.79 52.17 143.79 .12 143.79"/>
      <rect class="cls-2" x="52.17" y="124.74" width="52.04" height="19.04"/>
      <polygon class="cls-2" points=".12 105.7 .12 124.74 52.17 124.74 104.21 124.74 104.21 105.7 52.17 105.7 .12 105.7"/>
      <path class="cls-2" d="M2.82,67.62c-1,5.68-1.74,11.6-2.19,17.69-.03.45-.06.9-.09,1.35h51.62v-19.04H2.82Z"/>
      <path class="cls-2" d="M52.17,29.54H15.16c-2.97,5.71-5.57,12.1-7.75,19.04h44.75v-19.04Z"/>
      <path class="cls-2" d="M.54,86.66H.12v11.72h0c.01-3.97.16-7.88.41-11.72Z"/>
      <path class="cls-2" d="M52.17,86.66H.54c-.25,3.85-.4,7.75-.41,11.72h0v7.32h52.04v-19.04Z"/>
      <path class="cls-2" d="M104.2,98.39h0v-11.72h-.42c.25,3.85.4,7.75.41,11.72Z"/>
      <path class="cls-2" d="M103.79,86.66h-51.62v19.04h52.04v-7.32h0c-.01-3.97-.16-7.88-.41-11.72Z"/>
      <path class="cls-2" d="M52.17,86.66h51.62c-.03-.45-.05-.9-.09-1.35-.45-6.09-1.19-12.01-2.19-17.69h-49.35v19.04Z"/>
      <path class="cls-2" d="M7.41,48.58c-1.87,5.97-3.42,12.34-4.6,19.04h98.7c-1.18-6.7-2.73-13.07-4.6-19.04H7.41Z"/>
      <path class="cls-2" d="M52.17,48.58h44.75c-2.17-6.94-4.78-13.33-7.75-19.04h-37.01v19.04Z"/>
      <path class="cls-2" d="M28.96,10.5c-5.14,4.88-9.8,11.34-13.8,19.04h74.02c-4-7.7-8.65-14.16-13.8-19.04H28.96Z"/>
      <path class="cls-2" d="M52.17,10.5V.12c-8.34,0-16.22,3.74-23.21,10.38h23.21Z"/>
      <path class="cls-2" d="M75.38,10.5C68.39,3.87,60.51.12,52.17.12v10.38h23.21Z"/>
      <polygon class="cls-1" points="95.79 108.68 99.52 115.31 95.64 121.86 88.04 121.77 84.31 115.14 88.19 108.59 95.79 108.68"/>
    </g>
  </g>
</svg>