<?xml version="1.0" encoding="UTF-8"?>
<svg id="_Слой_2" data-name="Слой 2" xmlns="http://www.w3.org/2000/svg" viewBox="0 0 53.5 76.98">
  <defs>
    <style>
      .cls-1 {
        fill: #39b54a;
      }

      .cls-2 {
        fill: #009245;
      }

      .cls-3 {
        fill: none;
        stroke: #000;
        stroke-miterlimit: 10;
        stroke-width: .25px;
      }

      .cls-4 {
        fill: #8e38ff;
      }

      .cls-5 {
        fill: #fcee21;
      }
    </style>
  </defs>
  <g id="_Цветы" data-name="Цветы">
    <g>
      <g>
        <path class="cls-1" d="M50.69,31.38c1.76,1.76,1.84,5.25-.3,6.73-3.19,2.2-9.24,1.45-12.89,2.28,1.35-3.03,4.41-5.58,7.63-6.49.1-.02.16-.12.13-.22s-.13-.16-.22-.13c-3.02.84-5.5,2.48-7.71,4.67h0c1.23-4.84,6.02-9.6,11.35-7.99.56.17,1.61.75,2.01,1.16Z"/>
        <path class="cls-2" d="M48.08,28.82c5.37.73,7.21,8.12,2.39,10.64-3.6,1.9-8.67,1.44-12.59,2.02.35,1.34.85,2.65,1.18,4,1.95,8.09,1.25,15.84-1.13,23.74-.63,2.1-1.55,5.71-3.49,6.86-3.46,2.04-7.05-1-6.73-4.74.12-1.39,1.32-2.65,1.92-3.88,3.81-7.79,4.36-16.47,2.45-24.89-2.46,2.35-3.12,6.24-5.19,8.88-5.94,7.57-15.39-.65-9.31-8.38,3.1-3.95,8.63-5.62,13.39-3.94.01,0,.01-.01.01-.01l-2.88-6.59c-2.27-.08-4.24-.35-5.83-2.11.08,6.93-9.46,5.75-12.31,1.69-.17-.24-.29-.48-.42-.73-.08-.15-.17-.29-.22-.45-.07-.16-.1-.31-.13-.47-.04-.18-.09-.37-.12-.55-.03-.13-.04-.27-.04-.42-.01-.3,0-.61,0-.92v-.73c0-.16-.16-.26-.3-.2-6.05,2.59-10.97-6.57-7.05-11.03,1.26-1.44,3.43-2.32,5.33-2.36.01,0,.02-.01.01-.02-.26-.66-.82-1.12-1.17-1.78C3.16,7.41,9.88.21,15.3,2.78c1.47.7,2.37,2.03,3.5,3.12h0c1.96-10.11,18.27-5.33,12.9,4.16h0c2.99-.65,5.76-.09,6.86,3.05,1.76,5.04-1.4,8.83-6.49,8.95h-.01c1.85,2.54,1.61,5.99-.49,8.25t0,.01c1.74,2.27,3.12,4.83,4.67,7.16,1.72-5.19,5.99-9.45,11.84-8.67ZM50.39,38.11c2.14-1.48,2.07-4.97.3-6.73-.4-.4-1.45-.99-2.01-1.16-5.33-1.61-10.11,3.15-11.35,7.98h0c2.21-2.18,4.69-3.82,7.71-4.66.09-.02.2.03.22.13s-.03.2-.13.22c-3.22.91-6.29,3.46-7.63,6.49,3.65-.83,9.7-.08,12.89-2.28ZM38.94,59.95c.1-.86.16-2.29.11-3.17-.11-2.26-.31-4.51-.58-6.76-.2-1.73-.44-3.46-.88-5.13-.54-2.09-1.37-4.09-2.21-6.07-.73-1.75-1.48-3.52-2.58-5.1-.45-.64-1.18-1.78-1.92-2.12-.61-.27-.93.09-1.53.43-.1.06-.13.18-.09.29.52,1.01,1.1,2.01,1.56,3.05.51,1.16,1.11,3.48,1.64,4.36.33.55,1.36.52,1.52,1.19.13.61-.79.72-.83,1.2,2.11,8.23,1.53,17.25-2.05,25-.59,1.28-2.36,3.72-2.31,4.95.1,2.81,3.65,4.67,5.71,2.44.86-.94,1.35-2.19,1.73-3.4.16-.54.42-1.03.54-1.57.15-.7.37-1.37.57-2.04.53-1.71.94-3.45,1.25-5.2.13-.79.26-1.56.36-2.35ZM29.62,20.8c4.8.89,10.1-1.94,7.73-7.59-1.48-3.52-5.63-2.17-8.33-1-.16.08-.64.35-1.08.58-.1.06-.2.02-.26-.04-.08-.07-.1-.19-.02-.28,1.98-2.39,5.02-3.85,3.67-7.59-.01-.03-.02-.07-.03-.09-.04-.12-.09-.24-.15-.35s-.11-.21-.17-.33c-.07-.1-.12-.2-.19-.29-.07-.1-.15-.19-.21-.28l-.24-.27c-.08-.08-.16-.16-.25-.24s-.18-.16-.27-.22-.18-.13-.28-.2c-.09-.07-.19-.12-.29-.19l-.3-.17c-.11-.04-.21-.1-.33-.15-.1-.04-.21-.09-.33-.13s-.22-.08-.34-.11c-.11-.04-.22-.08-.35-.1-.11-.03-.22-.07-.35-.09-.11-.02-.24-.04-.35-.07-.12-.02-.25-.04-.36-.06-.12-.02-.25-.03-.36-.04-.12-.01-.25-.02-.37-.02-.11-.01-.24-.01-.36-.01-.11-.01-.24-.01-.36,0-.11,0-.24,0-.35.01-.12,0-.24.01-.35.02-.12.01-.25.02-.37.04h-.01s-.04.01-.07.02c-.03.01-.07.02-.11.02-.04.02-.09.03-.15.04-.04.02-.09.03-.15.04-.02.01-.04.01-.08.02-.01.01-.26.08-.34.12-.04.02-.09.03-.13.06-.75.25-1.45.66-2,1.25-.4.4-.61.93-.84,1.44-.06.13-.15.27-.19.42s-.11.27-.2.39c-.17.25-.27.53-.46.76-.2.24-.54.29-.83.31-.34.01-.62-.21-.89-.38-.17-.1-.31-.22-.48-.3-.2-.1-.39-.26-.57-.39-.36-.28-.7-.58-1.07-.82-1.07-.7-2.79-.64-3.97-.33-2.14.56-4.18,2.71-4.27,4.97-.04,1.12.44,2.16.81,3.2.07.17.12.34.2.51.42.8,1.35,1.54,2.11,1.96.2.11.11.43-.11.42-3.32-.13-7.54.19-8.65,3.82-.66,2.18.42,5.05,2.03,6.59,2.63,2.49,5.53.71,7.9-1.1-.92,1.93-1.92,3.6-1.17,5.8.98,2.9,6.08,4.58,8.77,3.51.77-.31,1.37-1.14,1.85-1.8.58-.82.38-2.14.27-3.06-.09-.66-.2-1.31-.24-1.99-.02-.4-.09-1.04.11-1.4.01.01.01.02.02.03.34.85.55,1.72,1.02,2.54.47.8,1.07,1.53,1.81,2.09,1.59,1.19,3.56,1.2,5.29.3,3.04-1.57,3.7-5.58,1.59-8.19l-1.43-1.26c-.17-.15-.03-.42.18-.37ZM29.76,40.53c.21-.07.2-.37-.02-.42-1.26-.28-2.42-.54-3.75-.44-3.84.28-8.95,3.96-9.17,8.08-.15,2.6,1.61,5.47,4.41,5.46,5.86-.01,6.66-8.35,9.92-11.73-3.63.06-6.65,1.73-8.62,4.73-.13.02-.12-.19-.09-.27.11-.27,1.11-1.62,1.36-1.91,1.95-2.33,3.29-2.54,5.95-3.5h.01Z"/>
        <path class="cls-1" d="M39.05,56.78c.04.88-.01,2.3-.11,3.17-.1.79-.22,1.56-.36,2.35-.3,1.75-.72,3.49-1.25,5.2-.2.67-.43,1.35-.57,2.04-.12.54-.38,1.03-.54,1.57-.38,1.21-.86,2.46-1.73,3.4-2.07,2.23-5.61.37-5.71-2.44-.04-1.23,1.72-3.67,2.31-4.95,3.58-7.75,4.16-16.77,2.05-25,.04-.48.97-.59.83-1.2-.16-.67-1.19-.64-1.52-1.19-.53-.88-1.13-3.2-1.64-4.36-.46-1.04-1.04-2.04-1.56-3.05-.04-.11-.01-.24.09-.29.59-.34.92-.7,1.53-.43.74.34,1.47,1.48,1.92,2.12,1.1,1.57,1.85,3.35,2.58,5.1.84,1.99,1.67,3.98,2.21,6.07.44,1.67.67,3.4.88,5.13.27,2.24.47,4.5.58,6.76Z"/>
        <path class="cls-4" d="M37.36,13.22c2.37,5.65-2.93,8.47-7.73,7.59-.21-.04-.35.22-.18.37l1.43,1.26c2.11,2.62,1.45,6.62-1.59,8.19-1.73.9-3.69.89-5.29-.3-.74-.56-1.34-1.29-1.81-2.09-.47-.82-.68-1.68-1.02-2.54-.01-.01-.01-.02-.02-.03l-1.35-2.14c4.53,0,8.5-4.92,5.04-9.09l2.86-1.67c.06.07.16.1.26.04.44-.24.92-.51,1.08-.58,2.69-1.17,6.85-2.53,8.33,1Z"/>
        <path class="cls-4" d="M31.34,4.89c1.35,3.74-1.69,5.2-3.67,7.59-.08.09-.06.21.02.28l-2.86,1.67c-1.61-1.93-3.87-2.48-6.31-2.13-4.61.66-6.57,6.44-2.96,9.59,1.32,1.14,2.81,1.64,4.23,1.64l1.35,2.14c-.2.36-.13,1-.11,1.4.03.67.15,1.32.24,1.99.11.92.31,2.24-.27,3.06-.48.65-1.08,1.48-1.85,1.8-2.68,1.07-7.79-.62-8.77-3.51-.75-2.2.25-3.87,1.17-5.8-2.37,1.81-5.28,3.59-7.9,1.1-1.62-1.54-2.69-4.41-2.03-6.59,1.11-3.63,5.33-3.95,8.65-3.82.22.01.31-.3.11-.42-.76-.43-1.69-1.17-2.11-1.96-.08-.17-.13-.34-.2-.51-.37-1.04-.85-2.08-.81-3.2.09-2.27,2.12-4.41,4.27-4.97,1.18-.31,2.91-.37,3.97.33.37.24.71.54,1.07.82.18.13.37.29.57.39.17.08.31.2.48.3.27.17.55.39.89.38.29-.02.63-.08.83-.31.19-.24.29-.52.46-.76.09-.12.16-.25.2-.39s.13-.28.19-.42c.24-.51.44-1.03.84-1.44.55-.58,1.25-1,2-1.25.04-.02.09-.03.13-.06.08-.04.33-.11.34-.12.03-.01.06-.01.08-.02.06-.01.1-.02.15-.04.06-.01.1-.02.15-.04.04,0,.08-.01.11-.02.02-.01.04-.01.07-.02h.01c.12-.02.25-.03.37-.04.11-.01.22-.02.35-.02.11-.01.24-.01.35-.01.12-.01.25-.01.36,0,.12,0,.25,0,.36.01.12,0,.25.01.37.02.11.01.24.02.36.04.11.01.24.03.36.06.11.02.24.04.35.07.12.02.24.06.35.09.12.02.24.06.35.1.11.03.22.07.34.11s.22.09.33.13c.11.04.21.1.33.15l.3.17c.1.07.2.12.29.19.1.07.19.13.28.2s.18.15.27.22.17.16.25.24l.24.27c.07.09.15.18.21.28.07.09.12.19.19.29.06.11.11.21.17.33s.1.22.15.35c.01.02.02.06.03.09Z"/>
        <path class="cls-1" d="M29.74,40.11c.22.04.24.35.02.42h-.01c-2.66.97-4,1.17-5.95,3.5-.25.29-1.25,1.64-1.36,1.91-.03.08-.04.29.09.27,1.98-3,5-4.67,8.62-4.73-3.27,3.38-4.06,11.72-9.92,11.73-2.81.01-4.56-2.85-4.41-5.46.22-4.12,5.33-7.8,9.17-8.08,1.32-.1,2.49.16,3.75.44Z"/>
        <path class="cls-2" d="M24.83,14.43c3.46,4.18-.51,9.09-5.04,9.09-1.43,0-2.91-.49-4.23-1.64-3.6-3.14-1.65-8.92,2.96-9.59,2.44-.35,4.7.2,6.31,2.13ZM18.74,22.41c7.89,1.09,7.52-9.65.02-8.47-5.06.8-5.03,7.78-.02,8.47Z"/>
        <path class="cls-5" d="M18.76,13.93c7.5-1.18,7.87,9.56-.02,8.47-5.01-.7-5.04-7.68.02-8.47Z"/>
      </g>
      <g>
        <path class="cls-3" d="M19.79,23.52c-1.43,0-2.91-.49-4.23-1.64-3.6-3.14-1.65-8.92,2.96-9.59,2.44-.35,4.7.2,6.31,2.13,3.46,4.18-.51,9.09-5.04,9.09Z"/>
        <path class="cls-3" d="M18.74,22.41c7.89,1.09,7.52-9.65.02-8.47-5.06.8-5.03,7.78-.02,8.47Z"/>
        <path class="cls-3" d="M48.08,28.82c-5.85-.79-10.12,3.48-11.84,8.67-1.55-2.33-2.93-4.89-4.67-7.16t0-.01c2.1-2.26,2.35-5.71.49-8.25h.01c5.08-.11,8.25-3.91,6.49-8.95-1.1-3.14-3.87-3.7-6.86-3.04h0c5.38-9.51-10.93-14.29-12.9-4.19h0c-1.13-1.08-2.03-2.41-3.5-3.11C9.88.21,3.16,7.41,5.83,12.44c.35.66.91,1.12,1.17,1.78.01.01,0,.02-.01.02-1.9.03-4.07.92-5.33,2.36-3.92,4.47,1,13.63,7.05,11.03.15-.06.3.04.3.2v.73c0,.31-.01.62,0,.92,0,.15.01.28.04.42.03.18.08.37.12.55.03.16.07.31.13.47.06.16.15.3.22.45.12.25.25.49.42.73,2.85,4.05,12.39,5.23,12.31-1.69,1.58,1.76,3.56,2.03,5.83,2.11l2.88,6.59s0,.01-.01.01c-4.76-1.68-10.29-.01-13.39,3.94-6.08,7.73,3.37,15.95,9.31,8.38,2.07-2.64,2.73-6.53,5.19-8.88,1.91,8.42,1.36,17.1-2.45,24.89-.59,1.23-1.8,2.49-1.92,3.88-.31,3.74,3.28,6.78,6.73,4.74,1.94-1.14,2.86-4.76,3.49-6.86,2.38-7.9,3.09-15.65,1.13-23.74-.33-1.35-.83-2.66-1.18-4,3.93-.58,8.99-.12,12.59-2.02,4.82-2.53,2.97-9.91-2.39-10.64Z"/>
        <path class="cls-3" d="M27.69,12.76c.06.07.16.1.26.04.44-.24.92-.51,1.08-.58,2.69-1.17,6.85-2.53,8.33,1,2.37,5.65-2.93,8.47-7.73,7.59-.21-.04-.35.22-.18.37l1.43,1.26c2.11,2.62,1.45,6.62-1.59,8.19-1.73.9-3.69.89-5.29-.3-.74-.56-1.34-1.29-1.81-2.09-.47-.82-.68-1.68-1.02-2.54-.01-.01-.01-.02-.02-.03-.2.36-.13,1-.11,1.4.03.67.15,1.32.24,1.99.11.92.31,2.24-.27,3.06-.48.65-1.08,1.48-1.85,1.8-2.68,1.07-7.79-.62-8.77-3.51-.75-2.2.25-3.87,1.17-5.8-2.37,1.81-5.28,3.59-7.9,1.1-1.62-1.54-2.69-4.41-2.03-6.59,1.11-3.63,5.33-3.95,8.65-3.82.22.01.31-.3.11-.42-.76-.43-1.69-1.17-2.11-1.96-.08-.17-.13-.34-.2-.51-.37-1.04-.85-2.08-.81-3.2.09-2.27,2.12-4.41,4.27-4.97,1.18-.31,2.91-.37,3.97.33.37.24.71.54,1.07.82.18.13.37.29.57.39.17.08.31.2.48.3.27.17.55.39.89.38.29-.02.63-.08.83-.31.19-.24.29-.52.46-.76.09-.12.16-.25.2-.39s.13-.28.19-.42c.24-.51.44-1.03.84-1.44.55-.58,1.25-1,2-1.25.04-.02.09-.03.13-.06.08-.04.33-.11.34-.12.03-.01.06-.01.08-.02.06-.01.1-.02.15-.04.06-.01.1-.02.15-.04.04,0,.08-.01.11-.02.02-.01.04-.01.07-.02h.01c.12-.02.25-.03.37-.04.11-.01.22-.02.35-.02.11-.01.24-.01.35-.01.12-.01.25-.01.36,0,.12,0,.25,0,.36.01.12,0,.25.01.37.02.11.01.24.02.36.04.11.01.24.03.36.06.11.02.24.04.35.07.12.02.24.06.35.09.12.02.24.06.35.1.11.03.22.07.34.11s.22.09.33.13c.11.04.21.1.33.15l.3.17c.1.07.2.12.29.19.1.07.19.13.28.2s.18.15.27.22.17.16.25.24l.24.27c.07.09.15.18.21.28.07.09.12.19.19.29.06.11.11.21.17.33s.1.22.15.35c.01.02.02.06.03.09,1.35,3.74-1.69,5.2-3.67,7.59-.08.09-.06.21.02.28Z"/>
        <path class="cls-3" d="M29.76,40.53h-.01c-2.66.97-4,1.17-5.95,3.5-.25.29-1.25,1.64-1.36,1.91-.03.08-.04.29.09.27,1.98-3,5-4.67,8.62-4.73-3.27,3.38-4.06,11.72-9.92,11.73-2.81.01-4.56-2.85-4.41-5.46.22-4.12,5.33-7.8,9.17-8.08,1.32-.1,2.49.16,3.75.44.22.04.24.35.02.42Z"/>
        <path class="cls-3" d="M38.58,62.29c-.3,1.75-.72,3.49-1.25,5.2-.2.67-.43,1.35-.57,2.04-.12.54-.38,1.03-.54,1.57-.38,1.21-.86,2.46-1.73,3.4-2.07,2.23-5.61.37-5.71-2.44-.04-1.23,1.72-3.67,2.31-4.95,3.58-7.75,4.16-16.77,2.05-25,.04-.48.97-.59.83-1.2-.16-.67-1.19-.64-1.52-1.19-.53-.88-1.13-3.2-1.64-4.36-.46-1.04-1.04-2.04-1.56-3.05-.04-.11-.01-.24.09-.29.59-.34.92-.7,1.53-.43.74.34,1.47,1.48,1.92,2.12,1.1,1.57,1.85,3.35,2.58,5.1.84,1.99,1.67,3.98,2.21,6.07.44,1.67.67,3.4.88,5.13.27,2.24.47,4.5.58,6.76.04.88-.01,2.3-.11,3.17-.1.79-.22,1.56-.36,2.35Z"/>
        <path class="cls-3" d="M50.39,38.11c-3.19,2.2-9.24,1.45-12.89,2.28,1.35-3.03,4.41-5.58,7.63-6.49.1-.02.16-.12.13-.22s-.13-.16-.22-.13c-3.02.84-5.5,2.48-7.71,4.67h0c1.23-4.84,6.02-9.6,11.35-7.99.56.17,1.61.75,2.01,1.16,1.76,1.76,1.84,5.25-.3,6.73Z"/>
      </g>
    </g>
  </g>
</svg>