<?xml version="1.0" encoding="UTF-8"?>
<svg id="_Слой_2" data-name="Слой 2" xmlns="http://www.w3.org/2000/svg" xmlns:xlink="http://www.w3.org/1999/xlink" viewBox="0 0 52.53 51.08">
  <defs>
    <style>
      .cls-1 {
        fill: url(#_Безымянный_градиент_173);
        opacity: .5;
        stroke: #000;
        stroke-miterlimit: 10;
        stroke-width: .25px;
      }
    </style>
    <linearGradient id="_Безымянный_градиент_173" data-name="Безымянный градиент 173" x1="44.27" y1="1.15" x2="13.76" y2="54" gradientUnits="userSpaceOnUse">
      <stop offset="0" stop-color="#006837"/>
      <stop offset=".45" stop-color="#006837" stop-opacity=".98"/>
      <stop offset=".61" stop-color="#006837" stop-opacity=".92"/>
      <stop offset=".72" stop-color="#006837" stop-opacity=".8"/>
      <stop offset=".81" stop-color="#006837" stop-opacity=".64"/>
      <stop offset=".89" stop-color="#006837" stop-opacity=".43"/>
      <stop offset=".96" stop-color="#006837" stop-opacity=".17"/>
      <stop offset="1" stop-color="#006837" stop-opacity="0"/>
    </linearGradient>
  </defs>
  <g id="_Трава" data-name="Трава">
    <path class="cls-1" d="M49.69,33.67c-1.64.5-3.09,1.38-4.37,2.51.37-.7.79-1.4,1.27-2.11,1.75-2.61,4.07-3.96,5.7-6.52-9.65,1.34-11.85,11.58-14.56,19.39-.06-.06-.12-.13-.16-.21l-.88-1.63c-.66-2.01-1.2-4.14-1.61-6.35-1.09-8.04.38-16.47,5.11-23.17.33-.46,3.01-2.21,2.4-2.81-3.18,1.76-5.8,4.28-7.96,7.23.65-4.54,1.87-8.86,3.73-12.57,1.05-2.09,2.67-3.74,3.84-5.64.27-.43,1.07-1.29.34-1.65-8.8,7.08-13.44,20-15.5,30.87-.33,1.75-.7,4.08-.99,6.56-.29-1.6-.68-3.22-1.17-4.85-1.54-9.52-5.03-18.8-10.31-26.32-.12-.18-.33-.28-.54-.28-.36,0-.65.29-.65.65v.19c0,.1.02.19.06.28.46,1,2.47,7.38,2.7,8.33.16.64.3,1.29.43,1.95-1.21-1.31-2.52-2.5-3.93-3.53-.68-.49-1.04-.93-2.02-.72,3.31,3.17,5.54,7.12,6.83,11.39.41,7.53-.69,15.32-2.9,22.26-.83-1.68-1.94-4.19-2.59-5.54-1.89-5.95-5.15-12.26-11.08-13.23-.57-.09-.97.57-.63,1.03.58.78,1.73,1.22,2.34,1.9,1.06,1.18,1.96,2.35,2.72,3.53-.52-.24-1.04-.46-1.59-.62-.91-.25-1.51.91-.78,1.51,1.98,1.62,3.77,3.33,5.02,5.27.66,2.86.65,5.92.07,9.41-.07.4.24.77.64.77h16.11c.24,0,.45-.13.57-.33h.84c.1.12.21.23.37.33h17.23c-.03-.13-.05-.26-.07-.39.41-.14.68-.57.56-1.02-1.09-4.22-.4-7.23,2.52-10.82.03-.03.05-.06.08-.09l3.68-3.51c.67-.64.01-1.72-.87-1.45Z"/>
  </g>
</svg>