<?xml version="1.0" encoding="UTF-8"?>
<svg id="_Слой_2" data-name="Слой 2" xmlns="http://www.w3.org/2000/svg" xmlns:xlink="http://www.w3.org/1999/xlink" viewBox="0 0 48.47 38.13">
  <defs>
    <style>
      .cls-1 {
        fill: url(#_Безымянный_градиент_173);
        opacity: .5;
        stroke: #000;
        stroke-miterlimit: 10;
        stroke-width: .25px;
      }
    </style>
    <linearGradient id="_Безымянный_градиент_173" data-name="Безымянный градиент 173" x1="36.92" y1="-1.68" x2="12.39" y2="40.81" gradientUnits="userSpaceOnUse">
      <stop offset="0" stop-color="#006837"/>
      <stop offset=".45" stop-color="#006837" stop-opacity=".98"/>
      <stop offset=".61" stop-color="#006837" stop-opacity=".92"/>
      <stop offset=".72" stop-color="#006837" stop-opacity=".8"/>
      <stop offset=".81" stop-color="#006837" stop-opacity=".64"/>
      <stop offset=".89" stop-color="#006837" stop-opacity=".43"/>
      <stop offset=".96" stop-color="#006837" stop-opacity=".17"/>
      <stop offset="1" stop-color="#006837" stop-opacity="0"/>
    </linearGradient>
  </defs>
  <g id="_Трава" data-name="Трава">
    <path class="cls-1" d="M6.93,36.94c1.48-6.33-2.01-10.39-6.48-14.05-.73-.6-.12-1.76.78-1.51,3.3.92,5.98,3.62,7.8,6.51.38.6,2.06,4.5,3.16,6.67.34.67,1.31.63,1.58-.07,4.46-11.11,3.28-25.28-5.64-33.84.98-.21,1.34.23,2.02.72,7.38,5.34,11.95,15.14,13.48,23.93.1.56-.07.75.19.79.44.06.84-.26.92-.69C26.62,15.86,31.23,5.06,40.1.15c.61.6-2.07,2.35-2.4,2.81-5.82,8.23-6.7,19.08-3.98,28.59.02.06.04.12.07.18l1.28,2.38c.36.67,1.36.58,1.59-.15,1.69-5.46,5.07-11.24,10.54-12.91.88-.27,1.54.81.87,1.45l-3.68,3.51s-.06.06-.08.09c-2.91,3.59-3.6,6.6-2.51,10.82.14.55-.27,1.09-.84,1.09H7.77c-.56,0-.97-.52-.84-1.07Z"/>
  </g>
</svg>