<?xml version="1.0" encoding="UTF-8"?>
<svg id="_Слой_2" data-name="Слой 2" xmlns="http://www.w3.org/2000/svg" viewBox="0 0 40.03 57.54">
  <defs>
    <style>
      .cls-1 {
        fill: #39b54a;
      }

      .cls-2 {
        fill: #009245;
      }

      .cls-3 {
        fill: none;
        stroke: #000;
        stroke-miterlimit: 10;
        stroke-width: .25px;
      }

      .cls-4 {
        fill: #fcee21;
      }

      .cls-5 {
        fill: #f7931e;
      }
    </style>
  </defs>
  <g id="_Цветы" data-name="Цветы">
    <g>
      <g>
        <path class="cls-1" d="M37.87,23.46c1.31,1.31,1.37,3.92-.23,5.02-2.38,1.64-6.89,1.08-9.61,1.7,1-2.26,3.29-4.16,5.69-4.84.08-.02.12-.09.1-.17s-.1-.12-.17-.1c-2.25.63-4.1,1.85-5.75,3.48h0c.92-3.61,4.49-7.16,8.46-5.96.42.13,1.2.56,1.5.86Z"/>
        <path class="cls-2" d="M35.92,21.55c4,.54,5.38,6.05,1.78,7.94-2.69,1.41-6.46,1.07-9.39,1.51.26,1,.64,1.98.88,2.98,1.46,6.04.93,11.81-.85,17.71-.47,1.57-1.16,4.26-2.6,5.12-2.58,1.52-5.26-.75-5.02-3.53.09-1.04.99-1.98,1.43-2.9,2.84-5.81,3.25-12.28,1.83-18.56-1.83,1.75-2.33,4.66-3.87,6.62-4.43,5.64-11.48-.49-6.94-6.25,2.31-2.95,6.44-4.19,9.99-2.94,0,0,0,0,0,0l-2.15-4.91c-1.69-.06-3.16-.26-4.35-1.57.06,5.17-7.06,4.29-9.18,1.26-.13-.18-.22-.36-.31-.54-.06-.11-.13-.22-.17-.33-.05-.12-.08-.23-.1-.35-.03-.13-.07-.28-.09-.41-.03-.1-.03-.2-.03-.31,0-.23,0-.45,0-.69v-.54c0-.12-.12-.19-.23-.15C2.04,22.61-1.63,15.78,1.29,12.44c.94-1.07,2.56-1.73,3.98-1.76,0,0,.02,0,0-.02-.19-.49-.61-.84-.87-1.33C2.42,5.59,7.43.21,11.47,2.13c1.1.52,1.77,1.52,2.61,2.33h0c1.47-7.54,13.63-3.98,9.62,3.11h0c2.23-.49,4.3-.07,5.12,2.28,1.31,3.76-1.05,6.59-4.84,6.67h0c1.38,1.89,1.2,4.47-.37,6.15t0,0c1.3,1.69,2.33,3.6,3.48,5.34,1.28-3.87,4.47-7.05,8.83-6.46ZM37.65,28.48c1.6-1.11,1.54-3.71.23-5.02-.3-.3-1.08-.74-1.5-.86-3.98-1.2-7.54,2.35-8.46,5.95h0c1.65-1.62,3.5-2.85,5.75-3.47.07-.02.15.03.17.1s-.03.15-.1.17c-2.4.68-4.69,2.58-5.69,4.84,2.72-.62,7.23-.06,9.61-1.7ZM29.11,44.77c.08-.64.12-1.71.08-2.36-.08-1.68-.23-3.37-.44-5.04-.15-1.29-.33-2.58-.65-3.83-.4-1.56-1.02-3.05-1.65-4.53-.54-1.31-1.11-2.63-1.93-3.8-.33-.48-.88-1.33-1.43-1.58-.45-.2-.69.07-1.14.32-.08.04-.1.13-.07.22.39.75.82,1.5,1.16,2.28.38.86.83,2.6,1.22,3.25.24.41,1.01.39,1.13.89.1.45-.59.54-.62.9,1.57,6.14,1.14,12.87-1.53,18.65-.44.95-1.76,2.77-1.72,3.69.08,2.09,2.72,3.48,4.26,1.82.64-.7,1-1.63,1.29-2.54.12-.4.31-.77.4-1.17.11-.52.28-1.02.43-1.52.39-1.27.7-2.57.93-3.88.1-.59.19-1.16.27-1.75ZM22.16,15.57c3.58.66,7.54-1.45,5.77-5.66-1.11-2.63-4.2-1.62-6.21-.75-.12.06-.48.26-.8.44-.08.04-.15.02-.19-.03-.06-.05-.08-.14-.02-.21,1.47-1.78,3.74-2.87,2.74-5.66,0-.03-.02-.05-.03-.07-.03-.09-.07-.18-.11-.26s-.08-.16-.13-.24c-.05-.08-.09-.15-.14-.22-.05-.08-.11-.14-.16-.21l-.18-.2c-.06-.06-.12-.12-.18-.18s-.13-.12-.2-.17-.13-.1-.21-.15c-.07-.05-.14-.09-.22-.14l-.23-.13c-.08-.03-.16-.08-.24-.11-.08-.03-.16-.07-.24-.1s-.17-.06-.25-.08c-.08-.03-.17-.06-.26-.08-.08-.03-.17-.05-.26-.07-.08-.02-.18-.03-.26-.05-.09-.02-.18-.03-.27-.04-.09-.02-.18-.03-.27-.03-.09,0-.18-.02-.28-.02-.08,0-.18,0-.27,0-.08,0-.18,0-.27,0-.08,0-.18,0-.26,0-.09,0-.18,0-.26.02-.09,0-.18.02-.28.03h0s-.03,0-.05.02c-.03,0-.05.02-.08.02-.03.02-.07.03-.11.03-.03.02-.07.03-.11.03-.02,0-.03,0-.06.02,0,0-.19.06-.25.09-.03.02-.07.03-.1.04-.56.18-1.08.49-1.49.93-.3.3-.45.69-.63,1.07-.04.1-.11.2-.14.31s-.08.2-.15.29c-.13.18-.2.39-.34.57-.15.18-.4.22-.62.23-.25,0-.46-.16-.66-.28-.13-.08-.23-.17-.36-.23-.15-.08-.29-.19-.43-.29-.27-.21-.52-.44-.8-.61-.8-.52-2.08-.48-2.96-.24-1.6.42-3.11,2.02-3.18,3.71-.03.84.33,1.61.6,2.39.05.13.09.25.15.38.31.59,1,1.15,1.57,1.47.15.08.08.32-.08.31-2.48-.1-5.63.14-6.46,2.85-.49,1.62.31,3.77,1.52,4.91,1.96,1.86,4.13.53,5.89-.82-.69,1.44-1.43,2.69-.87,4.33.73,2.16,4.54,3.42,6.54,2.62.58-.23,1.02-.85,1.38-1.34.44-.61.28-1.6.2-2.29-.07-.49-.15-.98-.18-1.48-.02-.3-.07-.78.08-1.05,0,0,0,.02.02.03.25.64.41,1.28.76,1.89.35.59.8,1.14,1.35,1.56,1.19.89,2.65.9,3.94.23,2.27-1.17,2.76-4.16,1.19-6.11l-1.06-.94c-.13-.11-.03-.31.13-.28ZM22.26,30.28c.16-.05.15-.28-.02-.31-.94-.21-1.81-.4-2.8-.33-2.86.21-6.67,2.96-6.84,6.03-.11,1.94,1.2,4.08,3.29,4.07,4.37,0,4.96-6.23,7.4-8.75-2.7.04-4.96,1.29-6.43,3.52-.1.02-.09-.14-.07-.2.08-.2.83-1.21,1.01-1.42,1.46-1.74,2.45-1.89,4.44-2.61h0Z"/>
        <path class="cls-1" d="M29.19,42.41c.03.65,0,1.72-.08,2.36-.08.59-.17,1.16-.27,1.75-.23,1.31-.54,2.6-.93,3.88-.15.5-.32,1-.43,1.52-.09.4-.28.77-.4,1.17-.28.9-.64,1.83-1.29,2.54-1.54,1.67-4.19.28-4.26-1.82-.03-.92,1.28-2.74,1.72-3.69,2.67-5.78,3.11-12.51,1.53-18.65.03-.36.72-.44.62-.9-.12-.5-.89-.48-1.13-.89-.39-.65-.85-2.39-1.22-3.25-.34-.78-.78-1.52-1.16-2.28-.03-.08,0-.18.07-.22.44-.25.69-.52,1.14-.32.55.25,1.1,1.11,1.43,1.58.82,1.17,1.38,2.49,1.93,3.8.63,1.48,1.25,2.97,1.65,4.53.33,1.25.5,2.54.65,3.83.2,1.67.35,3.36.44,5.04Z"/>
        <path class="cls-5" d="M27.93,9.91c1.77,4.21-2.19,6.32-5.77,5.66-.16-.03-.26.17-.13.28l1.06.94c1.57,1.95,1.08,4.94-1.19,6.11-1.29.67-2.75.66-3.94-.23-.55-.42-1-.96-1.35-1.56-.35-.61-.51-1.26-.76-1.89,0,0,0-.02-.02-.03l-1-1.6c3.38,0,6.34-3.67,3.76-6.78l2.13-1.25c.04.05.12.08.19.03.33-.18.69-.38.8-.44,2.01-.87,5.11-1.88,6.21.75Z"/>
        <path class="cls-5" d="M23.44,3.7c1,2.79-1.26,3.88-2.74,5.66-.06.07-.04.16.02.21l-2.13,1.25c-1.2-1.44-2.89-1.85-4.71-1.59-3.44.49-4.9,4.81-2.21,7.15.99.85,2.09,1.22,3.16,1.22l1,1.6c-.15.27-.1.75-.08,1.05.03.5.11.99.18,1.48.08.69.23,1.67-.2,2.29-.36.49-.8,1.11-1.38,1.34-2,.8-5.81-.46-6.54-2.62-.56-1.64.18-2.89.87-4.33-1.77,1.35-3.93,2.68-5.89.82-1.21-1.15-2.01-3.29-1.52-4.91.83-2.7,3.98-2.95,6.46-2.85.17,0,.23-.23.08-.31-.57-.32-1.26-.87-1.57-1.47-.06-.13-.1-.25-.15-.38-.28-.78-.64-1.55-.6-2.39.07-1.69,1.58-3.29,3.18-3.71.88-.23,2.17-.28,2.96.24.28.18.53.4.8.61.13.1.28.22.43.29.13.06.23.15.36.23.2.13.41.29.66.28.22-.02.47-.06.62-.23.14-.18.22-.39.34-.57.07-.09.12-.18.15-.29s.1-.21.14-.31c.18-.38.33-.77.63-1.07.41-.44.93-.75,1.49-.93.03-.02.07-.03.1-.04.06-.03.24-.08.25-.09.03,0,.04,0,.06-.02.04,0,.08-.02.11-.03.04,0,.08-.02.11-.03.03,0,.06,0,.08-.02.02,0,.03,0,.05-.02h0c.09-.02.18-.03.28-.03.08,0,.17-.02.26-.02.08,0,.18,0,.26,0,.09,0,.18,0,.27,0,.09,0,.18,0,.27,0,.09,0,.18,0,.28.02.08,0,.18.02.27.03.08,0,.18.03.27.04.08.02.18.03.26.05.09.02.18.04.26.07.09.02.18.04.26.08.08.03.17.05.25.08s.17.07.24.1c.08.03.16.08.24.11l.23.13c.08.05.15.09.22.14.08.05.14.1.21.15s.13.11.2.17.13.12.18.18l.18.2c.05.07.11.13.16.21.05.07.09.14.14.22.04.08.08.16.13.24s.08.17.11.26c0,.02.02.04.03.07Z"/>
        <path class="cls-1" d="M22.24,29.97c.17.03.18.26.02.31h0c-1.98.72-2.98.87-4.44,2.61-.18.22-.93,1.22-1.01,1.42-.03.06-.03.22.07.2,1.47-2.24,3.73-3.48,6.43-3.52-2.44,2.52-3.03,8.74-7.4,8.75-2.09,0-3.4-2.13-3.29-4.07.17-3.07,3.98-5.82,6.84-6.03.99-.08,1.86.12,2.8.33Z"/>
        <path class="cls-2" d="M18.58,10.82c2.58,3.11-.38,6.78-3.76,6.78-1.06,0-2.17-.37-3.16-1.22-2.69-2.34-1.23-6.66,2.21-7.15,1.82-.26,3.51.15,4.71,1.59ZM14.04,16.77c5.89.81,5.61-7.2.02-6.32-3.78.59-3.75,5.8-.02,6.32Z"/>
        <path class="cls-4" d="M14.05,10.45c5.59-.88,5.87,7.13-.02,6.32-3.73-.52-3.76-5.73.02-6.32Z"/>
      </g>
      <g>
        <path class="cls-3" d="M14.82,17.6c-1.06,0-2.17-.37-3.16-1.22-2.69-2.34-1.23-6.66,2.21-7.15,1.82-.26,3.51.15,4.71,1.59,2.58,3.11-.38,6.78-3.76,6.78Z"/>
        <path class="cls-3" d="M14.04,16.77c5.89.81,5.61-7.2.02-6.32-3.78.59-3.75,5.8-.02,6.32Z"/>
        <path class="cls-3" d="M35.92,21.55c-4.36-.59-7.55,2.6-8.83,6.46-1.16-1.74-2.19-3.65-3.48-5.34t0,0c1.57-1.68,1.75-4.26.37-6.15h0c3.79-.08,6.15-2.91,4.84-6.67-.82-2.34-2.89-2.76-5.12-2.27h0C27.72.48,15.55-3.09,14.09,4.45h0c-.85-.8-1.52-1.8-2.61-2.32C7.43.21,2.42,5.59,4.41,9.34c.26.49.68.84.87,1.33,0,0,0,.02,0,.02-1.41.03-3.04.69-3.98,1.76-2.92,3.33.75,10.16,5.26,8.23.11-.04.23.03.23.15v.54c0,.23,0,.46,0,.69,0,.11,0,.21.03.31.03.13.06.28.09.41.03.12.05.23.1.35.04.12.11.23.17.33.09.18.18.37.31.54,2.13,3.02,9.24,3.9,9.18-1.26,1.18,1.31,2.65,1.52,4.35,1.57l2.15,4.91s0,0,0,0c-3.55-1.26-7.68,0-9.99,2.94-4.54,5.77,2.51,11.9,6.94,6.25,1.54-1.97,2.03-4.87,3.87-6.62,1.42,6.28,1.01,12.75-1.83,18.56-.44.92-1.34,1.86-1.43,2.9-.23,2.79,2.44,5.06,5.02,3.53,1.45-.85,2.13-3.55,2.6-5.12,1.77-5.89,2.3-11.67.85-17.71-.24-1-.62-1.98-.88-2.98,2.93-.44,6.71-.09,9.39-1.51,3.59-1.88,2.22-7.39-1.78-7.94Z"/>
        <path class="cls-3" d="M20.72,9.57c.04.05.12.08.19.03.33-.18.69-.38.8-.44,2.01-.87,5.11-1.88,6.21.75,1.77,4.21-2.19,6.32-5.77,5.66-.16-.03-.26.17-.13.28l1.06.94c1.57,1.95,1.08,4.94-1.19,6.11-1.29.67-2.75.66-3.94-.23-.55-.42-1-.96-1.35-1.56-.35-.61-.51-1.26-.76-1.89,0,0,0-.02-.02-.03-.15.27-.1.75-.08,1.05.03.5.11.99.18,1.48.08.69.23,1.67-.2,2.29-.36.49-.8,1.11-1.38,1.34-2,.8-5.81-.46-6.54-2.62-.56-1.64.18-2.89.87-4.33-1.77,1.35-3.93,2.68-5.89.82-1.21-1.15-2.01-3.29-1.52-4.91.83-2.7,3.98-2.95,6.46-2.85.17,0,.23-.23.08-.31-.57-.32-1.26-.87-1.57-1.47-.06-.13-.1-.25-.15-.38-.28-.78-.64-1.55-.6-2.39.07-1.69,1.58-3.29,3.18-3.71.88-.23,2.17-.28,2.96.24.28.18.53.4.8.61.13.1.28.22.43.29.13.06.23.15.36.23.2.13.41.29.66.28.22-.02.47-.06.62-.23.14-.18.22-.39.34-.57.07-.09.12-.18.15-.29s.1-.21.14-.31c.18-.38.33-.77.63-1.07.41-.44.93-.75,1.49-.93.03-.02.07-.03.1-.04.06-.03.24-.08.25-.09.03,0,.04,0,.06-.02.04,0,.08-.02.11-.03.04,0,.08-.02.11-.03.03,0,.06,0,.08-.02.02,0,.03,0,.05-.02h0c.09-.02.18-.03.28-.03.08,0,.17-.02.26-.02.08,0,.18,0,.26,0,.09,0,.18,0,.27,0,.09,0,.18,0,.27,0,.09,0,.18,0,.28.02.08,0,.18.02.27.03.08,0,.18.03.27.04.08.02.18.03.26.05.09.02.18.04.26.07.09.02.18.04.26.08.08.03.17.05.25.08s.17.07.24.1c.08.03.16.08.24.11l.23.13c.08.05.15.09.22.14.08.05.14.1.21.15s.13.11.2.17.13.12.18.18l.18.2c.05.07.11.13.16.21.05.07.09.14.14.22.04.08.08.16.13.24s.08.17.11.26c0,.02.02.04.03.07,1,2.79-1.26,3.88-2.74,5.66-.06.07-.04.16.02.21Z"/>
        <path class="cls-3" d="M22.26,30.28h0c-1.98.72-2.98.87-4.44,2.61-.18.22-.93,1.22-1.01,1.42-.03.06-.03.22.07.2,1.47-2.24,3.73-3.48,6.43-3.52-2.44,2.52-3.03,8.74-7.4,8.75-2.09,0-3.4-2.13-3.29-4.07.17-3.07,3.98-5.82,6.84-6.03.99-.08,1.86.12,2.8.33.17.03.18.26.02.31Z"/>
        <path class="cls-3" d="M28.84,46.52c-.23,1.31-.54,2.6-.93,3.88-.15.5-.32,1-.43,1.52-.09.4-.28.77-.4,1.17-.28.9-.64,1.83-1.29,2.54-1.54,1.67-4.19.28-4.26-1.82-.03-.92,1.28-2.74,1.72-3.69,2.67-5.78,3.11-12.51,1.53-18.65.03-.36.72-.44.62-.9-.12-.5-.89-.48-1.13-.89-.39-.65-.85-2.39-1.22-3.25-.34-.78-.78-1.52-1.16-2.28-.03-.08,0-.18.07-.22.44-.25.69-.52,1.14-.32.55.25,1.1,1.11,1.43,1.58.82,1.17,1.38,2.49,1.93,3.8.63,1.48,1.25,2.97,1.65,4.53.33,1.25.5,2.54.65,3.83.2,1.67.35,3.36.44,5.04.03.65,0,1.72-.08,2.36-.08.59-.17,1.16-.27,1.75Z"/>
        <path class="cls-3" d="M37.65,28.48c-2.38,1.64-6.89,1.08-9.61,1.7,1-2.26,3.29-4.16,5.69-4.84.08-.02.12-.09.1-.17s-.1-.12-.17-.1c-2.25.63-4.1,1.85-5.75,3.48h0c.92-3.61,4.49-7.16,8.46-5.96.42.13,1.2.56,1.5.86,1.31,1.31,1.37,3.92-.23,5.02Z"/>
      </g>
    </g>
  </g>
</svg>