<?xml version="1.0" encoding="UTF-8"?>
<svg id="_Слой_2" data-name="Слой 2" xmlns="http://www.w3.org/2000/svg" xmlns:xlink="http://www.w3.org/1999/xlink" viewBox="0 0 41.43 43.96">
  <defs>
    <style>
      .cls-1 {
        fill: url(#_Безымянный_градиент_173);
        opacity: .5;
        stroke: #000;
        stroke-miterlimit: 10;
        stroke-width: .25px;
      }
    </style>
    <linearGradient id="_Безымянный_градиент_173" data-name="Безымянный градиент 173" x1="33.67" y1="4.72" x2="10.02" y2="45.69" gradientUnits="userSpaceOnUse">
      <stop offset="0" stop-color="#006837"/>
      <stop offset=".45" stop-color="#006837" stop-opacity=".98"/>
      <stop offset=".61" stop-color="#006837" stop-opacity=".92"/>
      <stop offset=".72" stop-color="#006837" stop-opacity=".8"/>
      <stop offset=".81" stop-color="#006837" stop-opacity=".64"/>
      <stop offset=".89" stop-color="#006837" stop-opacity=".43"/>
      <stop offset=".96" stop-color="#006837" stop-opacity=".17"/>
      <stop offset="1" stop-color="#006837" stop-opacity="0"/>
    </linearGradient>
  </defs>
  <g id="_Трава" data-name="Трава">
    <path class="cls-1" d="M22.8,23.42l4.22-10.98c1.5-2.22,2.76-4.91,4.57-6.9.5-.55.74-1.25,1.7-1.04-1.55,3.55-3.44,7.04-4.34,10.85-2.02,8.53-1.48,17.82,1.6,26,2.16-5.51,3.64-14.62,10.74-15.44.42.36-3.66,4.82-4.1,5.62-2.14,3.9-2.38,8.02-1.4,12.3H6.82c1.33-5.02.49-9.46-2.59-13.61L.32,25.91c8.02,1.12,9.04,8.71,11.25,14.94.17.48.06,1.14.73,1,3.85-11.99,3.92-26.21-3.49-36.85,1.44-1.13,4.61,4.09,5.2,5.02l5.28,10.92L20.29.01l2.51,23.4Z"/>
  </g>
</svg>