<?xml version="1.0" encoding="UTF-8"?>
<svg id="_Слой_2" data-name="Слой 2" xmlns="http://www.w3.org/2000/svg" viewBox="0 0 35.84 51.5">
  <defs>
    <style>
      .cls-1 {
        fill: #39b54a;
      }

      .cls-2 {
        fill: #009245;
      }

      .cls-3 {
        fill: none;
        stroke: #000;
        stroke-miterlimit: 10;
        stroke-width: .25px;
      }

      .cls-4 {
        fill: #f7931e;
      }

      .cls-5 {
        fill: #ed1c24;
      }
    </style>
  </defs>
  <g id="_Цветы" data-name="Цветы">
    <g>
      <g>
        <path class="cls-1" d="M33.89,21.01c1.18,1.18,1.23,3.5-.2,4.49-2.13,1.47-6.16.97-8.59,1.52.9-2.02,2.94-3.72,5.09-4.33.07-.01.1-.08.09-.15s-.09-.1-.15-.09c-2.01.56-3.67,1.65-5.14,3.11h0c.34-1.34,1.09-2.66,2.1-3.69.2-.21.43-.4.65-.58.07-.06.15-.12.23-.17.62-.45,1.31-.79,2.04-.96.09-.02.19-.04.28-.06,0,0,.02,0,.04,0,.16-.02.33-.04.5-.06.56-.04,1.14.02,1.73.2.37.11,1.07.5,1.34.77Z"/>
        <path class="cls-2" d="M32.14,19.3c3.58.49,4.81,5.41,1.59,7.1-2.4,1.26-5.78.96-8.4,1.35-.37-.89-.73-1.78-1.09-2.66,1.15-3.46,4-6.3,7.9-5.78ZM33.69,25.5c1.43-.99,1.38-3.32.2-4.49-.27-.27-.97-.66-1.34-.77-.59-.18-1.17-.24-1.73-.2-.17.01-.34.04-.5.06-.01,0-.03,0-.04,0-.1.01-.19.04-.28.06-.73.17-1.41.51-2.04.96-.07.05-.16.11-.23.17-.22.18-.45.37-.65.58-1.02,1.03-1.76,2.35-2.1,3.68h0c1.47-1.45,3.13-2.54,5.14-3.11.06-.01.13.02.15.09s-.02.13-.09.15c-2.15.61-4.19,2.31-5.09,4.33,2.43-.55,6.47-.05,8.59-1.52Z"/>
        <path class="cls-1" d="M30.32,20.09c.16-.02.33-.04.5-.06-.17.01-.34.04-.5.06Z"/>
        <path class="cls-1" d="M30.28,20.1c-.09.01-.19.04-.28.06.09-.02.18-.04.28-.06Z"/>
        <path class="cls-1" d="M27.97,21.12c-.08.05-.16.11-.23.17.07-.06.16-.12.23-.17Z"/>
        <path class="cls-2" d="M26.19,30.68c1.08,4.54,1.23,8.23-.48,14.37,1.29-4.78,1.61-9.48.48-14.37Z"/>
        <path class="cls-2" d="M26.19,30.68c1.13,4.9.81,9.6-.48,14.37-.1.4-.22.79-.34,1.19-.42,1.4-1.03,3.81-2.33,4.57-2.31,1.36-4.7-.67-4.49-3.16.08-.93.88-1.77,1.28-2.59,2.54-5.19,2.9-10.98,1.63-16.59-1.64,1.56-2.08,4.16-3.46,5.92-3.96,5.04-10.26-.43-6.21-5.59,2.07-2.63,5.76-3.75,8.93-2.63,0,0,0,0,0,0l-1.92-4.39c-1.51-.05-2.83-.23-3.88-1.41.05,4.62-6.31,3.83-8.21,1.13-.11-.16-.19-.32-.28-.49-.05-.1-.11-.19-.15-.3-.04-.1-.07-.21-.09-.31-.03-.12-.06-.25-.08-.37-.02-.09-.03-.18-.03-.28,0-.2,0-.4,0-.61v-.49c0-.1-.1-.17-.2-.13-4.03,1.73-7.31-4.38-4.7-7.36.84-.96,2.29-1.55,3.56-1.57,0,0,.01,0,0-.01-.17-.44-.55-.75-.78-1.19C2.19,5.03,6.67.22,10.29,1.93c.98.46,1.58,1.35,2.34,2.08h0c1.31-6.74,12.19-3.56,8.6,2.78h0c1.99-.43,3.84-.06,4.57,2.04,1.18,3.36-.94,5.89-4.33,5.97h0c1.24,1.69,1.07,4-.33,5.5t0,0c.53.76,1.06,1.55,1.6,2.37.51.81,1,1.62,1.51,2.4.36.88.73,1.77,1.09,2.66.23.89.57,1.77.79,2.66.02.09.04.18.06.27ZM26.05,40.06c.07-.58.1-1.53.07-2.11-.07-1.5-.21-3.01-.39-4.51-.13-1.15-.29-2.31-.58-3.42-.36-1.39-.91-2.72-1.47-4.05-.49-1.17-.99-2.35-1.72-3.4-.3-.43-.79-1.19-1.28-1.41-.4-.18-.62.06-1.02.28-.07.04-.09.12-.06.19.34.67.73,1.34,1.04,2.04.34.77.74,2.32,1.09,2.9.22.37.91.34,1.01.79.09.4-.52.48-.55.8,1.41,5.49,1.02,11.5-1.37,16.67-.4.85-1.57,2.48-1.54,3.3.07,1.87,2.43,3.11,3.81,1.62.58-.63.9-1.46,1.15-2.27.1-.36.28-.69.36-1.05.1-.46.25-.91.38-1.36.35-1.14.63-2.3.83-3.47.09-.52.17-1.04.24-1.56ZM19.84,13.95c3.2.59,6.74-1.29,5.16-5.06-.99-2.35-3.76-1.44-5.55-.67-.1.05-.43.23-.72.39-.07.04-.13.01-.17-.03-.05-.04-.07-.13-.01-.19,1.32-1.59,3.35-2.57,2.45-5.06,0-.02-.01-.04-.02-.06-.03-.08-.06-.16-.1-.23s-.07-.14-.11-.22c-.04-.07-.08-.13-.13-.19-.04-.07-.1-.13-.14-.19l-.16-.18c-.05-.05-.1-.1-.16-.16s-.12-.1-.18-.15-.12-.09-.19-.13c-.06-.04-.13-.08-.19-.13l-.2-.11c-.07-.03-.14-.07-.22-.1-.07-.03-.14-.06-.22-.09s-.15-.05-.22-.07c-.07-.03-.15-.05-.23-.07-.07-.02-.15-.04-.23-.06-.07-.01-.16-.03-.23-.04-.08-.01-.16-.03-.24-.04-.08-.01-.16-.02-.24-.03-.08,0-.16-.01-.25-.01-.07,0-.16,0-.24,0-.07,0-.16,0-.24,0-.07,0-.16,0-.23,0-.08,0-.16,0-.23.01-.08,0-.16.01-.25.03h0s-.03,0-.04.01c-.02,0-.04.01-.07.01-.03.01-.06.02-.1.03-.03.01-.06.02-.1.03-.01,0-.03,0-.05.01,0,0-.17.05-.22.08-.03.01-.06.02-.09.04-.5.16-.97.44-1.33.83-.27.27-.4.62-.56.96-.04.09-.1.18-.13.28s-.07.18-.13.26c-.11.16-.18.35-.31.51-.13.16-.36.19-.55.21-.22,0-.41-.14-.59-.25-.11-.07-.21-.15-.32-.2-.13-.07-.26-.17-.38-.26-.24-.19-.46-.39-.71-.55-.71-.46-1.86-.43-2.65-.22-1.43.37-2.78,1.8-2.84,3.32-.03.75.29,1.44.54,2.13.04.11.08.22.13.34.28.53.9,1.03,1.41,1.31.13.07.07.28-.07.28-2.22-.09-5.03.13-5.77,2.54-.44,1.45.28,3.37,1.35,4.39,1.75,1.66,3.69.47,5.27-.73-.61,1.29-1.28,2.4-.78,3.87.65,1.93,4.06,3.05,5.85,2.34.52-.21.91-.76,1.24-1.2.39-.55.25-1.43.18-2.04-.06-.44-.13-.88-.16-1.32-.01-.27-.06-.7.07-.94,0,0,0,.01.01.02.22.57.37,1.15.68,1.69.31.53.71,1.02,1.21,1.39,1.06.79,2.37.8,3.53.2,2.03-1.05,2.47-3.72,1.06-5.46l-.95-.84c-.11-.1-.02-.28.12-.25ZM19.93,27.11c.14-.04.13-.25-.01-.28-.84-.19-1.62-.36-2.5-.29-2.56.19-5.97,2.64-6.12,5.39-.1,1.74,1.07,3.65,2.94,3.64,3.91,0,4.44-5.57,6.62-7.82-2.42.04-4.43,1.15-5.75,3.15-.09.01-.08-.13-.06-.18.07-.18.74-1.08.91-1.27,1.3-1.56,2.19-1.69,3.97-2.34h0Z"/>
        <path class="cls-1" d="M26.13,37.94c.03.58,0,1.53-.07,2.11-.07.52-.15,1.04-.24,1.56-.2,1.17-.48,2.33-.83,3.47-.13.45-.28.9-.38,1.36-.08.36-.25.69-.36,1.05-.25.81-.58,1.64-1.15,2.27-1.38,1.49-3.74.25-3.81-1.62-.03-.82,1.15-2.45,1.54-3.3,2.39-5.16,2.78-11.18,1.37-16.67.03-.32.64-.4.55-.8-.1-.45-.79-.43-1.01-.79-.35-.58-.76-2.13-1.09-2.9-.31-.7-.7-1.36-1.04-2.04-.03-.07,0-.16.06-.19.4-.22.61-.46,1.02-.28.49.22.98.99,1.28,1.41.73,1.05,1.24,2.23,1.72,3.4.56,1.32,1.12,2.66,1.47,4.05.29,1.12.45,2.27.58,3.42.18,1.5.31,3,.39,4.51Z"/>
        <path class="cls-2" d="M25.37,46.24c.12-.4.23-.79.34-1.19-.1.38-.22.78-.34,1.19Z"/>
        <path class="cls-5" d="M25,8.89c1.58,3.77-1.95,5.65-5.16,5.06-.14-.03-.23.15-.12.25l.95.84c1.41,1.74.97,4.42-1.06,5.46-1.15.6-2.46.59-3.53-.2-.49-.37-.89-.86-1.21-1.39-.31-.55-.46-1.12-.68-1.69,0,0,0-.01-.01-.02l-.9-1.43h.06c.12,0,.24,0,.35-.02.14-.01.28-.03.41-.06.13-.02.25-.05.37-.09.08-.02.16-.05.25-.08s.19-.07.28-.1c0,0,.02,0,.03-.01.1-.04.19-.09.28-.13,0,0,.02-.01.03-.02.1-.04.19-.1.28-.16.1-.05.19-.12.28-.19.19-.13.36-.29.52-.46.04-.04.09-.09.13-.14.1-.1.19-.22.27-.34.09-.11.16-.23.23-.36.04-.07.07-.13.1-.19.07-.13.12-.25.16-.39.03-.09.06-.17.08-.26.04-.16.07-.31.08-.47,0-.1.01-.2.01-.3,0-.74-.26-1.52-.88-2.26l1.91-1.12s.1.07.17.03c.29-.16.61-.34.72-.39,1.8-.78,4.57-1.68,5.55.67Z"/>
        <path class="cls-2" d="M22.74,22.67c-.54-.82-1.07-1.62-1.6-2.37.58.76,1.1,1.56,1.6,2.37Z"/>
        <path class="cls-5" d="M20.98,3.34c.9,2.49-1.13,3.47-2.45,5.06-.05.06-.04.14.01.19l-1.91,1.12c-1.07-1.29-2.58-1.65-4.21-1.42-3.08.44-4.38,4.3-1.98,6.39.88.76,1.87,1.09,2.82,1.09l.9,1.43c-.13.24-.09.67-.07.94.02.45.1.88.16,1.32.07.61.21,1.5-.18,2.04-.32.43-.72.99-1.24,1.2-1.79.71-5.19-.41-5.85-2.34-.5-1.47.16-2.58.78-3.87-1.58,1.21-3.52,2.4-5.27.73-1.08-1.03-1.8-2.94-1.35-4.39.74-2.42,3.56-2.63,5.77-2.54.15,0,.21-.2.07-.28-.51-.28-1.13-.78-1.41-1.31-.05-.11-.09-.22-.13-.34-.25-.7-.57-1.38-.54-2.13.06-1.51,1.41-2.94,2.84-3.32.79-.21,1.94-.25,2.65.22.25.16.47.36.71.55.12.09.25.19.38.26.11.05.21.13.32.2.18.11.37.26.59.25.19-.01.42-.05.55-.21.13-.16.19-.34.31-.51.06-.08.1-.16.13-.26s.09-.19.13-.28c.16-.34.29-.69.56-.96.37-.39.83-.67,1.33-.83.03-.01.06-.02.09-.04.05-.03.22-.07.22-.08.02,0,.04,0,.05-.01.04,0,.07-.01.1-.03.04,0,.07-.01.1-.03.03,0,.05,0,.07-.01.01,0,.03,0,.04-.01h0c.08-.01.16-.02.25-.03.07,0,.15-.01.23-.01.07,0,.16,0,.23,0,.08,0,.16,0,.24,0,.08,0,.16,0,.24,0,.08,0,.16,0,.25.01.07,0,.16.01.24.03.07,0,.16.02.24.04.07.01.16.03.23.04.08.01.16.04.23.06.08.01.16.04.23.07.07.02.15.04.22.07s.15.06.22.09c.07.03.14.07.22.1l.2.11c.07.04.13.08.19.13.07.04.13.09.19.13s.12.1.18.15.11.1.16.16l.16.18c.04.06.1.12.14.19.04.06.08.13.13.19.04.07.07.14.11.22s.07.15.1.23c0,.01.01.04.02.06Z"/>
        <path class="cls-1" d="M19.91,26.83c.15.03.16.23.01.28h0c-1.77.64-2.66.78-3.97,2.34-.16.19-.83,1.09-.91,1.27-.02.05-.03.19.06.18,1.32-2,3.33-3.11,5.75-3.15-2.18,2.25-2.71,7.81-6.62,7.82-1.87,0-3.04-1.9-2.94-3.64.15-2.75,3.56-5.2,6.12-5.39.88-.07,1.66.1,2.5.29Z"/>
        <path class="cls-2" d="M16.64,9.7c.61.74.88,1.52.88,2.26,0,.1,0,.2-.01.3-.01.16-.04.31-.08.47-.02.09-.05.18-.08.26-.04.13-.1.26-.16.39-.03.07-.06.13-.1.19-.07.12-.15.24-.23.36-.07.12-.16.23-.27.34-.04.05-.08.1-.13.14-.16.16-.34.32-.52.46-.1.07-.19.14-.28.19-.09.06-.19.11-.28.16,0,0-.02.01-.03.02-.09.04-.19.09-.28.13,0,0-.02,0-.03.01-.09.04-.18.07-.28.1-.09.03-.17.06-.25.08-.13.04-.25.07-.37.09-.13.03-.27.04-.41.06-.11.01-.23.02-.35.02h-.06c-.95,0-1.94-.33-2.82-1.09-2.4-2.1-1.1-5.95,1.98-6.39,1.62-.23,3.14.13,4.21,1.42ZM12.58,15.03c5.26.73,5.02-6.44.01-5.65-3.38.53-3.35,5.19-.01,5.65Z"/>
        <path class="cls-5" d="M17.5,12.26c0-.1.01-.2.01-.3,0,.1,0,.2-.01.3Z"/>
        <path class="cls-5" d="M17.34,13c.03-.08.06-.17.08-.26-.02.09-.05.17-.08.26Z"/>
        <path class="cls-5" d="M17.08,13.58c.04-.07.07-.13.1-.19-.02.07-.06.13-.1.19Z"/>
        <path class="cls-5" d="M17.08,13.58c-.07.13-.14.25-.23.36.08-.12.16-.24.23-.36Z"/>
        <path class="cls-5" d="M16.45,14.42s.08-.09.13-.14c-.04.05-.08.1-.13.14Z"/>
        <path class="cls-5" d="M15.36,15.23c.1-.05.19-.1.28-.16-.1.06-.19.12-.28.16Z"/>
        <path class="cls-5" d="M15.04,15.39c.1-.04.19-.09.28-.13-.09.04-.19.09-.28.13Z"/>
        <path class="cls-5" d="M14.73,15.51c.1-.03.19-.07.28-.1-.09.04-.19.07-.28.1Z"/>
        <path class="cls-5" d="M14.11,15.68c.12-.02.25-.05.37-.09-.12.04-.25.07-.37.09Z"/>
        <path class="cls-5" d="M13.69,15.74c.14-.01.28-.03.41-.06-.13.03-.27.04-.41.06Z"/>
        <path class="cls-4" d="M12.59,9.37c5-.79,5.25,6.38-.01,5.65-3.34-.46-3.36-5.12.01-5.65Z"/>
        <path class="cls-5" d="M13.34,15.77c.12,0,.24,0,.35-.02-.11.01-.23.02-.35.02Z"/>
      </g>
      <g>
        <path class="cls-3" d="M21.13,20.3c.58.76,1.1,1.56,1.6,2.37.51.81,1,1.62,1.51,2.4,1.15-3.46,4-6.3,7.9-5.78,3.58.49,4.81,5.41,1.59,7.1-2.4,1.26-5.78.96-8.4,1.35.23.89.57,1.77.79,2.66"/>
        <path class="cls-3" d="M26.19,30.68c1.13,4.9.81,9.6-.48,14.37-.1.4-.22.79-.34,1.19"/>
        <path class="cls-3" d="M27.97,21.12c-.07.05-.16.11-.23.17"/>
        <path class="cls-3" d="M30.28,20.1c-.1.01-.19.04-.28.06"/>
        <path class="cls-3" d="M30.82,20.03c-.17.01-.34.04-.5.06"/>
        <path class="cls-3" d="M27.08,21.87c-1.02,1.03-1.76,2.35-2.1,3.68h0c1.47-1.45,3.13-2.54,5.14-3.11.06-.01.13.02.15.09s-.02.13-.09.15c-2.15.61-4.19,2.31-5.09,4.33,2.43-.55,6.47-.05,8.59-1.52,1.43-.99,1.38-3.32.2-4.49-.27-.27-.97-.66-1.34-.77"/>
        <path class="cls-3" d="M14.48,15.59c-.13.04-.25.07-.37.09-.13.03-.27.04-.41.06-.11.01-.23.02-.35.02"/>
        <path class="cls-3" d="M15.01,15.41c-.09.04-.19.07-.28.1"/>
        <path class="cls-3" d="M15.33,15.26c-.09.04-.19.09-.28.13"/>
        <path class="cls-3" d="M15.64,15.07c-.1.06-.19.12-.28.16"/>
        <path class="cls-3" d="M16.58,14.28c-.04.05-.08.1-.13.14"/>
        <path class="cls-3" d="M17.17,13.39c-.02.07-.06.13-.1.19-.07.13-.14.25-.23.36"/>
        <path class="cls-3" d="M17.42,12.73c-.02.09-.05.18-.08.26"/>
        <path class="cls-3" d="M17.52,11.96c0,.1,0,.2-.01.3"/>
        <path class="cls-3" d="M15.92,14.88c-.1.07-.19.14-.28.19-.09.06-.19.11-.28.16,0,0-.02.01-.03.02-.09.04-.19.09-.28.13,0,0-.02,0-.03.01-.09.04-.18.07-.28.1-.09.03-.17.06-.25.08-.12.04-.25.07-.37.09-.13.03-.27.04-.41.06-.11.01-.23.02-.35.02h-.06c-.95,0-1.94-.33-2.82-1.09-2.4-2.1-1.1-5.95,1.98-6.39,1.62-.23,3.14.13,4.21,1.42.61.74.88,1.52.88,2.26,0,.1,0,.2-.01.3-.01.16-.04.31-.08.47-.02.09-.05.17-.08.26-.04.13-.1.26-.16.39-.03.07-.06.13-.1.19-.07.12-.15.24-.23.36-.07.12-.16.23-.27.34-.04.05-.08.1-.13.14-.16.16-.34.32-.52.46"/>
        <path class="cls-3" d="M12.58,15.03c5.26.73,5.02-6.44.01-5.65-3.38.53-3.35,5.19-.01,5.65Z"/>
        <path class="cls-3" d="M24.25,25.08c-.48-.79-.98-1.59-1.51-2.4-.54-.82-1.07-1.62-1.6-2.37t0,0c1.4-1.5,1.56-3.81.33-5.5h0c3.39-.07,5.5-2.6,4.33-5.97-.73-2.1-2.58-2.47-4.57-2.03h0C24.81.46,13.93-2.73,12.62,4.01h0c-.76-.72-1.35-1.61-2.34-2.07C6.67.22,2.19,5.03,3.97,8.38c.23.44.61.75.78,1.19,0,0,0,.01,0,.01-1.26.02-2.72.61-3.56,1.57-2.61,2.98.67,9.09,4.7,7.36.1-.04.2.03.2.13v.49c0,.21,0,.41,0,.61,0,.1,0,.19.03.28.02.12.05.25.08.37.02.1.04.21.09.31.04.1.1.2.15.3.08.16.16.33.28.49,1.9,2.7,8.26,3.49,8.21-1.13,1.06,1.18,2.37,1.35,3.88,1.41l1.92,4.39s0,0,0,0c-3.17-1.12-6.86,0-8.93,2.63-4.06,5.16,2.25,10.64,6.21,5.59,1.38-1.76,1.82-4.36,3.46-5.92,1.27,5.61.91,11.4-1.63,16.59-.4.82-1.2,1.66-1.28,2.59-.21,2.49,2.19,4.52,4.49,3.16,1.29-.76,1.91-3.17,2.33-4.57.12-.41.24-.81.34-1.19,1.71-6.15,1.56-9.83.48-14.37-.01-.09-.04-.18-.06-.27-.28-1.18-.59-2.11-.79-2.66-.37-.89-.73-1.78-1.09-2.66Z"/>
        <path class="cls-3" d="M18.55,8.59s.1.07.17.03c.29-.16.61-.34.72-.39,1.8-.78,4.57-1.68,5.55.67,1.58,3.77-1.95,5.65-5.16,5.06-.14-.03-.23.15-.12.25l.95.84c1.41,1.74.97,4.42-1.06,5.46-1.15.6-2.46.59-3.53-.2-.49-.37-.89-.86-1.21-1.39-.31-.55-.46-1.12-.68-1.69,0,0,0-.01-.01-.02-.13.24-.09.67-.07.94.02.45.1.88.16,1.32.07.61.21,1.5-.18,2.04-.32.43-.72.99-1.24,1.2-1.79.71-5.19-.41-5.85-2.34-.5-1.47.16-2.58.78-3.87-1.58,1.21-3.52,2.4-5.27.73-1.08-1.03-1.8-2.94-1.35-4.39.74-2.42,3.56-2.63,5.77-2.54.15,0,.21-.2.07-.28-.51-.28-1.13-.78-1.41-1.31-.05-.11-.09-.22-.13-.34-.25-.7-.57-1.38-.54-2.13.06-1.51,1.41-2.94,2.84-3.32.79-.21,1.94-.25,2.65.22.25.16.47.36.71.55.12.09.25.19.38.26.11.05.21.13.32.2.18.11.37.26.59.25.19-.01.42-.05.55-.21.13-.16.19-.34.31-.51.06-.08.1-.16.13-.26s.09-.19.13-.28c.16-.34.29-.69.56-.96.37-.39.83-.67,1.33-.83.03-.01.06-.02.09-.04.05-.03.22-.07.22-.08.02,0,.04,0,.05-.01.04,0,.07-.01.1-.03.04,0,.07-.01.1-.03.03,0,.05,0,.07-.01.01,0,.03,0,.04-.01h0c.08-.01.16-.02.25-.03.07,0,.15-.01.23-.01.07,0,.16,0,.23,0,.08,0,.16,0,.24,0,.08,0,.16,0,.24,0,.08,0,.16,0,.25.01.07,0,.16.01.24.03.07,0,.16.02.24.04.07.01.16.03.23.04.08.01.16.04.23.06.08.01.16.04.23.07.07.02.15.04.22.07s.15.06.22.09c.07.03.14.07.22.1l.2.11c.07.04.13.08.19.13.07.04.13.09.19.13s.12.1.18.15.11.1.16.16l.16.18c.04.06.1.12.14.19.04.06.08.13.13.19.04.07.07.14.11.22s.07.15.1.23c0,.01.01.04.02.06.9,2.49-1.13,3.47-2.45,5.06-.05.06-.04.14.01.19Z"/>
        <path class="cls-3" d="M19.93,27.11h0c-1.77.64-2.66.78-3.97,2.34-.16.19-.83,1.09-.91,1.27-.02.05-.03.19.06.18,1.32-2,3.33-3.11,5.75-3.15-2.18,2.25-2.71,7.81-6.62,7.82-1.87,0-3.04-1.9-2.94-3.64.15-2.75,3.56-5.2,6.12-5.39.88-.07,1.66.1,2.5.29.15.03.16.23.01.28Z"/>
        <path class="cls-3" d="M25.81,41.62c-.2,1.17-.48,2.33-.83,3.47-.13.45-.28.9-.38,1.36-.08.36-.25.69-.36,1.05-.25.81-.58,1.64-1.15,2.27-1.38,1.49-3.74.25-3.81-1.62-.03-.82,1.15-2.45,1.54-3.3,2.39-5.16,2.78-11.18,1.37-16.67.03-.32.64-.4.55-.8-.1-.45-.79-.43-1.01-.79-.35-.58-.76-2.13-1.09-2.9-.31-.7-.7-1.36-1.04-2.04-.03-.07,0-.16.06-.19.4-.22.61-.46,1.02-.28.49.22.98.99,1.28,1.41.73,1.05,1.24,2.23,1.72,3.4.56,1.32,1.12,2.66,1.47,4.05.29,1.12.45,2.27.58,3.42.18,1.5.31,3,.39,4.51.03.58,0,1.53-.07,2.11-.07.52-.15,1.04-.24,1.56Z"/>
        <path class="cls-3" d="M27.08,21.87c.2-.21.43-.4.65-.58.07-.06.15-.12.23-.17.62-.45,1.31-.79,2.04-.96.09-.02.19-.04.28-.06,0,0,.02,0,.04,0,.16-.02.33-.04.5-.06.56-.04,1.14.02,1.73.2"/>
      </g>
    </g>
  </g>
</svg>